<svg xmlns="http://www.w3.org/2000/svg" height="1024" preserveAspectRatio="none" style="display: block;" version="1.1" viewBox="0 0 2048 2048" width="1024">
<defs>
	<linearGradient gradientUnits="userSpaceOnUse" id="Gradient1" x1="1470.01" x2="1440.13" y1="1127.05" y2="1066.04">
		<stop class="stop0" offset="0" stop-color="rgb(255,104,150)" stop-opacity="1"></stop>
		<stop class="stop1" offset="1" stop-color="rgb(250,158,165)" stop-opacity="1"></stop>
	</linearGradient>
	<linearGradient gradientUnits="userSpaceOnUse" id="Gradient2" x1="1713.86" x2="1732.01" y1="1313.4" y2="1225.43">
		<stop class="stop0" offset="0" stop-color="rgb(206,136,50)" stop-opacity="1"></stop>
		<stop class="stop1" offset="1" stop-color="rgb(214,122,65)" stop-opacity="1"></stop>
	</linearGradient>
	<linearGradient gradientUnits="userSpaceOnUse" id="Gradient3" x1="1337.09" x2="1582.83" y1="554.232" y2="836.119">
		<stop class="stop0" offset="0" stop-color="rgb(14,122,67)" stop-opacity="1"></stop>
		<stop class="stop1" offset="1" stop-color="rgb(35,171,85)" stop-opacity="1"></stop>
	</linearGradient>
	<linearGradient gradientUnits="userSpaceOnUse" id="Gradient4" x1="588.589" x2="1513.51" y1="487.869" y2="407.382">
		<stop class="stop0" offset="0" stop-color="rgb(0,162,70)" stop-opacity="1"></stop>
		<stop class="stop1" offset="1" stop-color="rgb(70,192,110)" stop-opacity="1"></stop>
	</linearGradient>
</defs>
<path d="M 0 0 L 2048 0 L 2048 2048 L 0 2048 L 0 0 z" fill="rgb(255,255,255)" transform="translate(0,0)"></path>
<path d="M 859.237 247.227 C 885.844 202.054 914.472 160.764 950.626 122.705 C 961.779 110.964 973.844 98.2314 987.644 89.6644 C 992.749 86.495 998.874 83.4197 1005.03 85.0505 C 1030.32 91.7528 1098.1 171.311 1115.79 194.685 C 1128.84 211.963 1140.82 230.025 1151.67 248.769 C 1197.31 217.626 1257.11 195.127 1311.55 183.466 C 1322.28 181.166 1328.62 182.992 1337.17 189.122 C 1352.31 222.779 1363.16 278.81 1368.39 315.601 C 1373.04 314.654 1399.46 292.767 1405.93 288.566 C 1552.53 193.402 1769.35 258.991 1832.24 423.796 C 1854.57 482.303 1851 511.455 1850.86 571.504 L 1850.94 703.741 L 1850.92 1075.63 L 1849.95 1201.14 C 1849.87 1212.48 1849.03 1224.09 1849.17 1235.28 C 1851.33 1246.53 1850.2 1270.87 1851.13 1283.53 C 1869.72 1370.83 1869.04 1467.44 1837.09 1551.68 C 1833.33 1561.61 1825.66 1583.23 1819.68 1591.03 C 1814.27 1605.38 1808.62 1610.88 1796.8 1620.3 C 1792.23 1631.19 1781.94 1642.57 1774.57 1651.78 C 1742.23 1692.23 1696.22 1726.58 1648.03 1746.17 C 1619.66 1757.56 1589.82 1764.85 1559.4 1767.83 C 1543.17 1769.54 1525.3 1769.08 1508.84 1768.97 L 1432.14 1768.11 L 1210.58 1767.99 C 1207.81 1791.88 1206.76 1817.36 1203.74 1840.67 C 1232.43 1849.78 1247.69 1858.6 1267.93 1882 C 1331.87 1885.16 1398.77 1890.99 1461.45 1904.78 C 1472.79 1908.24 1500.77 1913.36 1506.62 1923.8 C 1512.94 1935.09 1484.36 1945.51 1476.7 1947.72 C 1443.17 1957.45 1407.82 1961.82 1373.15 1965.44 C 1331.34 1969.96 1289.39 1973.1 1247.37 1974.86 C 1157.08 1979.26 1079.47 1980.44 988.93 1980.07 C 883.568 1980.27 778.253 1975.64 673.315 1966.2 C 635.655 1962.58 557.143 1955.86 524.834 1937.97 C 521.167 1935.93 516.552 1932.77 515.7 1928.34 C 515.148 1925.46 516.386 1922.83 518.205 1920.68 C 540.056 1894.85 709.099 1883.92 749.132 1879.61 C 762.387 1864.21 787.173 1852.51 805.861 1845.75 C 803.033 1823.1 801.639 1790.73 800.019 1767.3 C 786.235 1768.07 767.514 1767.48 753.374 1767.39 C 725.658 1767.1 697.941 1766.97 670.223 1767.01 L 549.234 1767.12 C 528.045 1767.11 502.042 1767.79 481.334 1766.77 C 402.862 1762.93 329.848 1726.34 277.177 1668.26 C 219.202 1604.33 194.693 1525.12 198.322 1439.95 C 201.158 1373.37 229.171 1307.65 269.968 1255.86 C 286.597 1234.75 298.941 1218.71 320.352 1201.52 C 333.024 1190.63 346.54 1180.99 359.981 1171.11 C 370.213 1163.59 384.601 1156.13 393.594 1147.61 C 346.67 1099.55 374.506 1104.94 417.286 1093.31 C 405.401 1082.39 392.198 1071.32 381.367 1059.46 C 338.013 1011.97 303.123 947.795 289.069 884.951 C 285.448 868.761 282.492 855.132 283.046 838.543 C 299.292 820.902 341.594 809.742 364.997 805.475 C 348.739 770.99 336.977 737.172 336.821 698.769 C 336.788 690.711 335.773 672.365 342.48 667.861 C 372.624 647.617 445.481 649.808 479.051 650.032 C 471.984 625.461 464.03 601.444 458.737 576.371 C 444.918 510.921 445.02 436.823 459.953 371.647 C 461.176 366.309 463.321 358.109 468.571 355.231 C 484.089 346.726 573.733 357.177 594.978 360.824 C 611.24 363.615 627.186 367.782 643.181 371.785 C 640.32 341.499 640.092 317.047 644.584 286.628 C 648.49 260.171 663.864 197.868 685.232 182.012 C 722.243 180.821 792.844 207.5 826.092 225.739 C 837.064 231.758 848.945 239.823 859.237 247.227 z" fill="rgb(43,29,58)" transform="translate(0,0)"></path>
<path d="M 1368.39 315.601 C 1373.04 314.654 1399.46 292.767 1405.93 288.566 C 1552.53 193.402 1769.35 258.991 1832.24 423.796 C 1854.57 482.303 1851 511.455 1850.86 571.504 L 1850.94 703.741 L 1850.92 1075.63 L 1849.95 1201.14 C 1849.87 1212.48 1849.03 1224.09 1849.17 1235.28 C 1846 1227.13 1842.45 1220.53 1836.19 1214.23 C 1830.31 1208.24 1822.96 1203.9 1814.87 1201.65 C 1802.14 1198.12 1747.08 1199.78 1730.01 1199.9 C 1744.41 1186.2 1766.45 1172.62 1764.98 1149.71 C 1762.71 1105.67 1734.35 1045.42 1682.59 1047.31 C 1639.78 1048.87 1594.57 1104.37 1566.84 1133.72 L 1558.4 1125.11 C 1633.1 1055.91 1691.56 970.943 1711.89 869.688 C 1713.21 863.131 1714.19 856.694 1714.98 850.057 C 1704.74 823.976 1668.12 813.882 1643.39 805.511 C 1649.95 779.888 1655.83 754.099 1661.02 728.167 C 1666.79 700.016 1679.13 668.787 1641.89 660.295 C 1599.84 650.708 1559.58 652.349 1517.04 652.985 C 1541.14 572.78 1550.61 461.763 1541.47 376.889 C 1539.47 358.306 1513.69 360.865 1499.42 361.022 C 1456.41 361.497 1412.88 365.007 1371.35 377.298 C 1371.22 353.538 1371.04 339.044 1368.39 315.601 z" fill="rgb(245,187,166)" transform="translate(0,0)"></path>
<path d="M 393.594 1147.61 C 415.029 1170.1 438.563 1186.55 465.952 1201 C 481.632 1209.27 497.68 1215.17 513.622 1222.71 C 495.8 1233.19 479.951 1245.66 463.166 1257.64 C 439.415 1274.59 404.833 1296.71 386.038 1318.02 C 376.85 1328.43 369.505 1341.33 366.07 1354.85 C 359.722 1379.82 367.465 1403.46 380.446 1424.85 C 420.862 1491.42 548.208 1595.79 624.626 1614.39 C 633.235 1616.49 641.814 1617.36 650.63 1618.09 C 652.895 1647.15 663.557 1672.28 686.004 1691.8 C 719.672 1721.07 754.191 1719.21 795.587 1718.23 C 797.313 1733.94 799.483 1751.51 800.019 1767.3 C 786.235 1768.07 767.514 1767.48 753.374 1767.39 C 725.658 1767.1 697.941 1766.97 670.223 1767.01 L 549.234 1767.12 C 528.045 1767.11 502.042 1767.79 481.334 1766.77 C 402.862 1762.93 329.848 1726.34 277.177 1668.26 C 219.202 1604.33 194.693 1525.12 198.322 1439.95 C 201.158 1373.37 229.171 1307.65 269.968 1255.86 C 286.597 1234.75 298.941 1218.71 320.352 1201.52 C 333.024 1190.63 346.54 1180.99 359.981 1171.11 C 370.213 1163.59 384.601 1156.13 393.594 1147.61 z" fill="rgb(245,187,166)" transform="translate(0,0)"></path>
<path d="M 1080.18 1857.82 L 1080.29 1858.89 C 1082.59 1881.68 1072.3 1935.52 1105.83 1937.08 C 1129.67 1938.19 1155.03 1937.76 1179.03 1937.92 L 1227.93 1938.2 C 1251.1 1938.32 1269.68 1943.31 1280.79 1918.64 C 1278.28 1901.58 1276.28 1896.63 1267.93 1882 C 1331.87 1885.16 1398.77 1890.99 1461.45 1904.78 C 1472.79 1908.24 1500.77 1913.36 1506.62 1923.8 C 1512.94 1935.09 1484.36 1945.51 1476.7 1947.72 C 1443.17 1957.45 1407.82 1961.82 1373.15 1965.44 C 1331.34 1969.96 1289.39 1973.1 1247.37 1974.86 C 1157.08 1979.26 1079.47 1980.44 988.93 1980.07 C 883.568 1980.27 778.253 1975.64 673.315 1966.2 C 635.655 1962.58 557.143 1955.86 524.834 1937.97 C 521.167 1935.93 516.552 1932.77 515.7 1928.34 C 515.148 1925.46 516.386 1922.83 518.205 1920.68 C 540.056 1894.85 709.099 1883.92 749.132 1879.61 C 738.786 1892.56 725.809 1915.73 737.776 1930.48 C 741.831 1936.56 749.524 1937.5 756.763 1937.6 C 806.844 1938.25 857.118 1938.86 907.194 1938.57 C 911.653 1938.17 917.666 1935.1 920.651 1931.99 C 933.874 1918.2 930.326 1884.47 930.91 1866.04 L 1024.73 1866.11 C 1041.67 1866.14 1062.1 1866.7 1078.82 1865.87 C 1080.33 1863.46 1079.98 1861.01 1080.18 1857.82 z" fill="rgb(145,181,187)" transform="translate(0,0)"></path>
<path d="M 1643.06 1623.83 L 1733.6 1624.02 C 1751.74 1624.13 1780.66 1626.49 1796.8 1620.3 C 1792.23 1631.19 1781.94 1642.57 1774.57 1651.78 C 1742.23 1692.23 1696.22 1726.58 1648.03 1746.17 C 1619.66 1757.56 1589.82 1764.85 1559.4 1767.83 C 1543.17 1769.54 1525.3 1769.08 1508.84 1768.97 L 1432.14 1768.11 L 1210.58 1767.99 C 1212.28 1751.78 1213.8 1735.56 1215.13 1719.32 C 1249.65 1719.81 1267.76 1719.83 1299.25 1701.8 C 1330 1684.21 1343.52 1657.74 1352.19 1624.41 C 1365.96 1633.24 1380.71 1644.35 1394.57 1652.6 C 1440.27 1678.87 1493.77 1710.32 1547.5 1712.91 C 1606.18 1715.75 1640.59 1680.73 1643.06 1623.83 z" fill="rgb(245,187,166)" transform="translate(0,0)"></path>
<path d="M 933.609 1767.66 C 981.452 1766.93 1029.7 1768.09 1076.88 1767.27 C 1078.04 1797.15 1079.67 1827.99 1080.18 1857.82 C 1079.98 1861.01 1080.33 1863.46 1078.82 1865.87 C 1062.1 1866.7 1041.67 1866.14 1024.73 1866.11 L 930.91 1866.04 C 931.165 1833.7 932.905 1800.22 933.609 1767.66 z" fill="rgb(255,255,255)" transform="translate(0,0)"></path>
<path d="M 1851.13 1283.53 C 1869.72 1370.83 1869.04 1467.44 1837.09 1551.68 C 1833.33 1561.61 1825.66 1583.23 1819.68 1591.03 C 1822.11 1568.89 1820.61 1526.43 1820.38 1502.07 C 1819.82 1443.61 1821.73 1380.71 1819.37 1322.54 C 1841.91 1317.75 1851.42 1306.28 1851.13 1283.53 z" fill="rgb(245,187,166)" transform="translate(0,0)"></path>
<path d="M 935.064 1719.04 L 1074.34 1719.01 L 1076.88 1767.27 C 1029.7 1768.09 981.452 1766.93 933.609 1767.66 C 934.105 1751.57 934.802 1735.11 935.064 1719.04 z" fill="rgb(245,187,166)" transform="translate(0,0)"></path>
<path d="M 819.266 497.526 C 822.63 409.131 847.503 322.89 891.728 246.28 C 916.706 203.132 942.567 169.181 978.341 134.404 C 983.524 129.366 993.412 118.078 999.96 116.328 L 1003.12 118.385 C 1019.04 130.765 1036.26 143.73 1049.96 158.491 C 1132.55 247.511 1184.77 357.527 1202.94 477.438 C 1203.22 479.287 1203.17 480.856 1203.09 482.706 C 1217.74 466.555 1242.72 454.808 1262.44 445.463 C 1334.04 411.533 1418.57 388.599 1498.08 389.118 C 1503.46 388.898 1508.66 388.428 1513.97 389.225 L 1514.67 390.719 C 1517.91 409.455 1517.56 424.361 1517.41 443.277 C 1516.8 503.594 1509.68 563.668 1496.2 622.46 C 1492.28 639.706 1487.53 655.519 1479.57 671.41 C 1477.19 676.167 1471.17 685.607 1471.82 689.536 C 1519.15 680.743 1565.67 675.14 1613.74 681.435 C 1620.49 682.32 1637.64 684.711 1641.86 690.007 L 1639.48 699.793 C 1636.96 723.467 1630.63 747.524 1624.87 770.579 C 1621.79 782.9 1616.46 797.495 1616.49 810.171 C 1616.5 815.126 1618.3 820.381 1621.55 824.152 C 1625.49 828.72 1675.54 843.976 1688.79 853.182 C 1671.29 936.16 1636.06 1007.37 1575.72 1067.06 C 1564.08 1078.58 1553.54 1090.49 1541.01 1101.28 C 1512.67 1073.3 1496.58 1057.22 1458.17 1044.84 C 1457.13 1027.6 1458.95 1006.75 1458.96 989.005 L 1459.02 934.231 C 1459.34 916.076 1462.61 901.176 1451.86 884.649 C 1440.35 866.954 1417.09 858.853 1398.81 849.985 C 1343.99 823.392 1288.9 806.152 1229.29 793.641 C 1203.41 788.145 1181.21 784.546 1154.93 780.823 C 1151.12 780.927 1133.84 778.724 1129.3 778.255 C 1110.13 776.148 1090.92 774.378 1071.69 772.947 C 1067.54 772.953 1063 772.537 1058.83 772.271 C 1030.38 770.452 1001.85 770.994 973.331 771.144 C 960.223 772.312 946.209 772.334 932.943 773.009 C 916.649 773.838 901.043 775.502 884.841 776.951 C 857.183 779.161 831.067 784.065 803.894 789.443 C 762.199 796.793 737.355 803.481 696.94 815.263 C 693.487 816.365 689.714 817.476 686.371 818.814 C 660.306 827.983 635.512 836.943 609.938 847.146 C 563.905 865.51 548.336 890.501 547.821 939.46 C 548.168 979.742 548.333 1023.02 547.639 1063.24 C 547.629 1108.4 549.421 1158.59 548.264 1202.94 C 489.37 1187.35 449.73 1167.89 406.892 1122.4 C 431.312 1117.56 447.295 1112.47 468.243 1098.09 C 462.801 1094.44 457.447 1090.66 452.186 1086.75 C 375.447 1030.94 324.362 946.619 310.42 852.758 L 312.93 850.656 C 343.897 831.494 378.076 830.375 411.94 824.677 C 380.54 790.021 368.122 742.439 364.005 697.06 C 363.957 693.75 363.434 689.325 365.029 686.707 C 373.277 681.694 384.135 680.885 393.71 679.629 C 436.832 673.969 479.247 677.003 522.091 683.534 C 488.15 605.643 473.666 542.442 476.893 456.414 C 477.803 432.157 480.18 404.348 485.515 380.66 C 495.387 380.015 509.086 380.516 519.014 381.016 C 608.554 385.522 693.148 407.123 768.221 457.555 C 783.446 467.783 806.979 483.986 819.266 497.526 z" fill="url(#Gradient4)" transform="translate(0,0)"></path>
<path d="M 819.266 497.526 C 822.63 409.131 847.503 322.89 891.728 246.28 C 916.706 203.132 942.567 169.181 978.341 134.404 C 983.524 129.366 993.412 118.078 999.96 116.328 L 1003.12 118.385 C 1004.64 123.373 1006.39 126.265 1008.82 130.829 C 985.678 153.032 969.402 176.395 951.464 202.751 C 941.549 217.317 929.814 233.225 920.749 248.152 C 887.193 303.408 863.499 360.022 848.268 422.916 C 840.695 454.19 835.348 481.44 834.095 513.958 C 833.692 524.406 837.379 557.026 835.725 564.056 C 807.583 544.399 784.968 526.009 755.063 506.301 C 754.958 506.619 754.853 506.937 754.748 507.254 C 765.706 546.912 762.508 586.107 729.33 614.76 C 710.125 631.346 678.399 638.002 652.781 635.166 C 630.241 632.868 611.91 623.357 593.237 611.036 C 596.736 619.102 609.632 635.455 615.435 642.802 C 651.038 687.883 693.382 727.941 742.859 757.589 C 754.537 764.474 766.521 770.825 778.776 776.622 C 784.43 779.353 799.534 786.241 803.894 789.443 C 762.199 796.793 737.355 803.481 696.94 815.263 C 693.487 816.365 689.714 817.476 686.371 818.814 C 660.306 827.983 635.512 836.943 609.938 847.146 C 563.905 865.51 548.336 890.501 547.821 939.46 C 548.168 979.742 548.333 1023.02 547.639 1063.24 C 547.629 1108.4 549.421 1158.59 548.264 1202.94 C 489.37 1187.35 449.73 1167.89 406.892 1122.4 C 431.312 1117.56 447.295 1112.47 468.243 1098.09 C 462.801 1094.44 457.447 1090.66 452.186 1086.75 C 375.447 1030.94 324.362 946.619 310.42 852.758 L 312.93 850.656 C 343.897 831.494 378.076 830.375 411.94 824.677 C 380.54 790.021 368.122 742.439 364.005 697.06 C 363.957 693.75 363.434 689.325 365.029 686.707 C 373.277 681.694 384.135 680.885 393.71 679.629 C 436.832 673.969 479.247 677.003 522.091 683.534 C 488.15 605.643 473.666 542.442 476.893 456.414 C 477.803 432.157 480.18 404.348 485.515 380.66 C 495.387 380.015 509.086 380.516 519.014 381.016 C 608.554 385.522 693.148 407.123 768.221 457.555 C 783.446 467.783 806.979 483.986 819.266 497.526 z" fill="rgb(118,202,104)" transform="translate(0,0)"></path>
<path d="M 310.42 852.758 C 313.024 853.936 342.351 880.75 347.441 885.166 C 394.803 926.253 460.638 966.927 522.79 978.882 C 516.012 970.403 506.255 962.058 499.274 954.301 C 487.173 940.854 461.799 911.091 454.306 895.37 C 476.626 918.298 518.213 946.982 547.002 960.102 C 546.998 953.692 546.695 945.554 547.821 939.46 C 548.168 979.742 548.333 1023.02 547.639 1063.24 C 547.629 1108.4 549.421 1158.59 548.264 1202.94 C 489.37 1187.35 449.73 1167.89 406.892 1122.4 C 431.312 1117.56 447.295 1112.47 468.243 1098.09 C 462.801 1094.44 457.447 1090.66 452.186 1086.75 C 375.447 1030.94 324.362 946.619 310.42 852.758 z" fill="rgb(22,133,72)" transform="translate(0,0)"></path>
<path d="M 546.776 1120.46 C 546.718 1112.57 545.811 1066.56 547.639 1063.24 C 547.629 1108.4 549.421 1158.59 548.264 1202.94 C 489.37 1187.35 449.73 1167.89 406.892 1122.4 C 431.312 1117.56 447.295 1112.47 468.243 1098.09 C 496.658 1110.8 514.712 1119.17 546.776 1120.46 z" fill="rgb(21,113,67)" transform="translate(0,0)"></path>
<path d="M 819.266 497.526 C 822.63 409.131 847.503 322.89 891.728 246.28 C 916.706 203.132 942.567 169.181 978.341 134.404 C 983.524 129.366 993.412 118.078 999.96 116.328 L 1003.12 118.385 C 1004.64 123.373 1006.39 126.265 1008.82 130.829 C 985.678 153.032 969.402 176.395 951.464 202.751 C 941.549 217.317 929.814 233.225 920.749 248.152 C 887.193 303.408 863.499 360.022 848.268 422.916 C 840.695 454.19 835.348 481.44 834.095 513.958 C 833.692 524.406 837.379 557.026 835.725 564.056 C 807.583 544.399 784.968 526.009 755.063 506.301 C 748.726 500.556 734.073 491.254 726.582 486.34 C 669.775 449.074 576.409 418.996 508.299 422.197 C 506.648 422.275 504.997 422.363 503.347 422.462 C 495.567 497.427 510.046 586.122 535.506 656.432 C 542.28 675.141 548.205 693.747 560.043 709.918 C 512.368 699.378 463.689 694.047 414.863 694.019 C 398.508 694.159 377.813 697.241 364.005 697.06 C 363.957 693.75 363.434 689.325 365.029 686.707 C 373.277 681.694 384.135 680.885 393.71 679.629 C 436.832 673.969 479.247 677.003 522.091 683.534 C 488.15 605.643 473.666 542.442 476.893 456.414 C 477.803 432.157 480.18 404.348 485.515 380.66 C 495.387 380.015 509.086 380.516 519.014 381.016 C 608.554 385.522 693.148 407.123 768.221 457.555 C 783.446 467.783 806.979 483.986 819.266 497.526 z" fill="rgb(197,229,160)" transform="translate(0,0)"></path>
<path d="M 448.277 757.511 C 501.461 769.127 555.148 784.561 607.47 799.562 C 630.71 806.225 665.131 811.648 686.371 818.814 C 660.306 827.983 635.512 836.943 609.938 847.146 C 563.905 865.51 548.336 890.501 547.821 939.46 C 546.695 945.554 546.998 953.692 547.002 960.102 C 518.213 946.982 476.626 918.298 454.306 895.37 C 461.799 911.091 487.173 940.854 499.274 954.301 C 506.255 962.058 516.012 970.403 522.79 978.882 C 460.638 966.927 394.803 926.253 347.441 885.166 C 342.351 880.75 313.024 853.936 310.42 852.758 L 312.93 850.656 C 371.992 857.877 414.188 853.335 471.188 837.925 C 486.85 833.691 505.273 829.183 519.309 821.114 C 489.819 800.564 471.682 784.653 448.277 757.511 z" fill="rgb(38,161,81)" transform="translate(0,0)"></path>
<path d="M 567.807 575.675 C 573.946 586.609 585.33 600.674 593.237 611.036 C 596.736 619.102 609.632 635.455 615.435 642.802 C 651.038 687.883 693.382 727.941 742.859 757.589 C 754.537 764.474 766.521 770.825 778.776 776.622 C 784.43 779.353 799.534 786.241 803.894 789.443 C 762.199 796.793 737.355 803.481 696.94 815.263 C 634.464 763.88 598.528 707.826 578.517 629.072 C 573.96 611.135 571.959 593.554 567.807 575.675 z" fill="rgb(22,133,72)" transform="translate(0,0)"></path>
<path d="M 1514.67 390.719 C 1517.91 409.455 1517.56 424.361 1517.41 443.277 C 1516.8 503.594 1509.68 563.668 1496.2 622.46 C 1492.28 639.706 1487.53 655.519 1479.57 671.41 C 1477.19 676.167 1471.17 685.607 1471.82 689.536 C 1519.15 680.743 1565.67 675.14 1613.74 681.435 C 1620.49 682.32 1637.64 684.711 1641.86 690.007 L 1639.48 699.793 C 1636.96 723.467 1630.63 747.524 1624.87 770.579 C 1621.79 782.9 1616.46 797.495 1616.49 810.171 C 1616.5 815.126 1618.3 820.381 1621.55 824.152 C 1625.49 828.72 1675.54 843.976 1688.79 853.182 C 1671.29 936.16 1636.06 1007.37 1575.72 1067.06 C 1564.08 1078.58 1553.54 1090.49 1541.01 1101.28 C 1512.67 1073.3 1496.58 1057.22 1458.17 1044.84 C 1457.13 1027.6 1458.95 1006.75 1458.96 989.005 L 1459.02 934.231 C 1459.34 916.076 1462.61 901.176 1451.86 884.649 C 1440.35 866.954 1417.09 858.853 1398.81 849.985 C 1343.99 823.392 1288.9 806.152 1229.29 793.641 C 1234.5 789.735 1246.67 784.023 1253.16 780.272 C 1309.7 747.578 1350.05 712.396 1389.93 660.992 C 1435.01 603.897 1469.75 539.351 1492.57 470.278 C 1498.63 452.258 1504.19 430.125 1509.14 411.523 C 1510.49 408.476 1513.66 394.747 1514.67 390.719 z" fill="url(#Gradient3)" transform="translate(0,0)"></path>
<path d="M 1458.96 989.005 C 1521.84 972.302 1587.98 932.827 1638.38 892.839 C 1653.1 881.159 1673.72 860.673 1688.79 853.182 C 1671.29 936.16 1636.06 1007.37 1575.72 1067.06 C 1564.08 1078.58 1553.54 1090.49 1541.01 1101.28 C 1512.67 1073.3 1496.58 1057.22 1458.17 1044.84 C 1457.13 1027.6 1458.95 1006.75 1458.96 989.005 z" fill="rgb(21,113,67)" transform="translate(0,0)"></path>
<path d="M 1639.48 699.793 C 1636.96 723.467 1630.63 747.524 1624.87 770.579 C 1621.79 782.9 1616.46 797.495 1616.49 810.171 C 1616.5 815.126 1618.3 820.381 1621.55 824.152 C 1625.49 828.72 1675.54 843.976 1688.79 853.182 C 1673.72 860.673 1653.1 881.159 1638.38 892.839 C 1587.98 932.827 1521.84 972.302 1458.96 989.005 L 1459.02 934.231 C 1537.64 897.859 1585.56 822.465 1618.21 745.618 C 1623.21 733.867 1631.91 707.425 1639.48 699.793 z" fill="rgb(22,133,72)" transform="translate(0,0)"></path>
<path d="M 1471.82 689.536 C 1519.15 680.743 1565.67 675.14 1613.74 681.435 C 1620.49 682.32 1637.64 684.711 1641.86 690.007 C 1633.65 693.601 1606.91 697.624 1596.48 699.753 C 1577.89 703.718 1559.41 708.203 1541.07 713.202 C 1493.12 726.332 1457.09 742.272 1414.08 767.007 C 1402.66 773.572 1390.32 781.549 1379 787.584 C 1399.91 766.742 1418.38 748.407 1437.75 725.93 C 1444.55 718.036 1461.7 694.589 1467.71 689.196 C 1469.12 689.4 1470.38 689.515 1471.82 689.536 z" fill="rgb(71,191,109)" transform="translate(0,0)"></path>
<path d="M 1537.77 778.06 C 1572.2 776.486 1564.81 823.768 1529.18 829.376 C 1484.93 827.392 1509.51 786.463 1537.77 778.06 z" fill="rgb(21,113,67)" transform="translate(0,0)"></path>
<path d="M 1077.36 765.974 C 1078.95 760.008 1096.89 734.879 1101.97 726.538 C 1108.06 716.441 1113.62 706.031 1118.62 695.353 C 1162.7 600.849 1168.48 487.069 1134.29 389.335 C 1131.52 378.449 1129.28 367.476 1126.28 356.647 C 1114.78 315.104 1097.84 276.31 1083.08 236.254 L 1085.62 236.543 C 1094.06 242.132 1098.03 251.419 1103.31 259.909 C 1149.2 333.772 1179.44 419.138 1194.18 504.669 C 1195.71 513.545 1195.94 548.609 1199.11 553.056 C 1204.45 550.647 1217.71 539.153 1224 535.137 C 1240.54 524.562 1256.83 514.568 1273.81 504.687 C 1347.08 461.882 1426.43 430.468 1509.14 411.523 C 1504.19 430.125 1498.63 452.258 1492.57 470.278 C 1469.75 539.351 1435.01 603.897 1389.93 660.992 C 1350.05 712.396 1309.7 747.578 1253.16 780.272 C 1246.67 784.023 1234.5 789.735 1229.29 793.641 C 1203.41 788.145 1181.21 784.546 1154.93 780.823 C 1151.12 780.927 1133.84 778.724 1129.3 778.255 C 1110.13 776.148 1090.92 774.378 1071.69 772.947 C 1074.34 770.109 1075.11 769.146 1077.36 765.974 z" fill="rgb(38,161,81)" transform="translate(0,0)"></path>
<path d="M 1146.69 425.825 C 1156.9 437.78 1159.25 449.878 1166.03 462.832 C 1194.08 516.452 1197.39 561.805 1192.75 620.732 C 1189.35 663.889 1181.51 706.791 1168.07 748.293 C 1164.72 758.626 1159.06 770.335 1154.93 780.823 C 1151.12 780.927 1133.84 778.724 1129.3 778.255 C 1110.13 776.148 1090.92 774.378 1071.69 772.947 C 1074.34 770.109 1075.11 769.146 1077.36 765.974 C 1135.63 695.718 1164.88 580.256 1157.55 489.853 C 1156 470.765 1150.91 444.655 1146.69 425.825 z" fill="rgb(22,133,72)" transform="translate(0,0)"></path>
<path d="M 1008.82 130.829 C 1027.49 159.356 1048.56 192.202 1062.97 225.633 C 1090.68 291.648 1129.12 405.682 1058.82 457.53 C 1044.06 468.418 1016.9 475.048 998.981 470.837 C 961.131 461.943 947.829 419.628 934.175 389.808 C 931.512 451.7 936.776 484.682 945.442 545.754 C 908.778 521.097 896.922 496.83 884.843 454.88 C 873.863 500.329 871.454 547.867 872.076 594.422 C 857.889 584.079 848.769 575.56 835.725 564.056 C 837.379 557.026 833.692 524.406 834.095 513.958 C 835.348 481.44 840.695 454.19 848.268 422.916 C 863.499 360.022 887.193 303.408 920.749 248.152 C 929.814 233.225 941.549 217.317 951.464 202.751 C 969.402 176.395 985.678 153.032 1008.82 130.829 z" fill="rgb(118,202,104)" transform="translate(0,0)"></path>
<path d="M 884.841 776.951 C 883.124 769.022 871.33 739.987 867.964 731.375 C 851.782 689.975 833.418 648.493 818.196 606.72 C 845.256 643.151 866.733 680.735 897.169 715.446 C 915.026 735.812 934.818 751.443 952.263 770.439 L 952.814 771.048 C 960.354 770.798 965.831 770.635 973.331 771.144 C 960.223 772.312 946.209 772.334 932.943 773.009 C 916.649 773.838 901.043 775.502 884.841 776.951 z" fill="rgb(22,133,72)" transform="translate(0,0)"></path>
<path d="M 1203.09 482.706 C 1217.74 466.555 1242.72 454.808 1262.44 445.463 C 1334.04 411.533 1418.57 388.599 1498.08 389.118 C 1490.72 394.008 1449.98 389.722 1440.54 395.201 C 1422.43 405.719 1424.04 412.28 1403.07 400.545 C 1375.86 406.651 1321.86 419.365 1297.26 432.665 L 1297.3 433.241 L 1301.66 432.83 L 1301.59 433.964 C 1297.51 437.338 1279.81 449.223 1275.35 450.645 L 1272.4 448.405 C 1265.02 450.655 1263.92 454.687 1257.83 450.88 C 1256.7 450.173 1246.85 454.677 1245.5 455.561 C 1233.94 461.783 1222.63 468.074 1212.44 476.401 C 1207.79 480.197 1205.77 484.999 1200.23 485.564 L 1199.36 484.345 C 1200.59 482.162 1199.85 483.1 1201.53 481.484 L 1202.28 482.573 L 1203.09 482.706 z" fill="rgb(71,191,109)" transform="translate(0,0)"></path>
<path d="M 1125.17 518.891 C 1148.33 516.818 1148.41 549.677 1143.5 564.963 C 1140.39 574.658 1137.83 578.12 1129.07 582.668 C 1101.29 585.528 1105.49 547.101 1113.86 531.578 C 1117.29 525.216 1119.39 523.146 1125.17 518.891 z" fill="rgb(21,113,67)" transform="translate(0,0)"></path>
<path d="M 577.452 1355.27 C 573.565 1344.26 575.036 1263.48 575.054 1247.5 L 575.297 1075.12 L 575.126 977.463 C 575.088 960.872 574.465 939.501 575.299 923.156 C 575.65 916.423 577.29 909.82 580.13 903.706 C 591.626 879.185 621.954 871.152 646.393 862.594 C 823.6 799.671 1014.32 784.83 1199.12 819.58 C 1266.33 832.115 1319.99 846.005 1382.34 876.031 C 1415.7 891.91 1430.06 886.371 1429.37 927.147 C 1429.16 966.884 1429.33 1006.62 1429.88 1046.36 C 1392.58 1062.51 1380.9 1082.81 1367.91 1121.08 C 1365.26 1133.79 1363.09 1144.07 1362.59 1157.19 C 1366.87 1181.49 1380.92 1192.72 1402.15 1201.84 C 1374.18 1201.74 1345.07 1202.09 1317.2 1201.53 C 1259.05 1207.08 1271.57 1256.74 1270.13 1298.61 C 1269.78 1308.81 1285.74 1312.84 1293.3 1313.72 C 1293.75 1333.07 1293.95 1352.42 1293.93 1371.77 C 1294.36 1394.12 1294.06 1417.55 1294.11 1439.98 C 1159.11 1440.77 1024.1 1440.79 889.093 1440.06 L 752.79 1440.19 C 730.136 1440.3 707.671 1441.01 685.013 1440.65 C 638.165 1439.9 600.029 1409.63 581.844 1367.34 C 579.519 1362.66 578.902 1360.24 577.452 1355.27 z" fill="rgb(118,202,104)" transform="translate(0,0)"></path>
<path d="M 581.844 1367.34 C 607.689 1374.28 683.35 1371.99 714.677 1372.01 L 923.249 1372.02 L 1170.72 1371.94 L 1251.59 1371.91 C 1264.69 1371.9 1281.16 1372.35 1293.93 1371.77 C 1294.36 1394.12 1294.06 1417.55 1294.11 1439.98 C 1159.11 1440.77 1024.1 1440.79 889.093 1440.06 L 752.79 1440.19 C 730.136 1440.3 707.671 1441.01 685.013 1440.65 C 638.165 1439.9 600.029 1409.63 581.844 1367.34 z" fill="rgb(38,161,81)" transform="translate(0,0)"></path>
<path d="M 577.452 1355.27 C 573.565 1344.26 575.036 1263.48 575.054 1247.5 L 575.297 1075.12 L 575.126 977.463 C 575.088 960.872 574.465 939.501 575.299 923.156 C 575.65 916.423 577.29 909.82 580.13 903.706 C 591.626 879.185 621.954 871.152 646.393 862.594 C 823.6 799.671 1014.32 784.83 1199.12 819.58 C 1266.33 832.115 1319.99 846.005 1382.34 876.031 L 1381.86 890.587 C 1381.27 895.387 1380.97 898.764 1380.82 903.591 C 1305.14 873.24 1225.8 852.939 1144.83 843.205 C 1019.72 827.12 897.596 830.788 773.021 857.67 C 741.872 864.392 631.981 883.223 610.113 916.05 C 604.864 923.93 605.482 966.972 605.345 979.912 L 604.641 1065.78 C 603.513 1163.63 602.986 1261.47 603.06 1359.32 C 593.951 1358.3 586.405 1356.94 577.452 1355.27 z" fill="rgb(197,229,160)" transform="translate(0,0)"></path>
<path d="M 1382.34 876.031 C 1415.7 891.91 1430.06 886.371 1429.37 927.147 C 1429.16 966.884 1429.33 1006.62 1429.88 1046.36 C 1392.58 1062.51 1380.9 1082.81 1367.91 1121.08 C 1366.25 1112.85 1372.84 1042.96 1373.75 1031.41 C 1377.25 988.927 1379.81 946.373 1381.42 903.778 C 1382.4 899.302 1381.99 895.187 1381.86 890.587 L 1382.34 876.031 z" fill="rgb(38,161,81)" transform="translate(0,0)"></path>
<path d="M 1382.34 876.031 C 1415.7 891.91 1430.06 886.371 1429.37 927.147 C 1424.58 925.609 1414.27 919.856 1409.4 917.359 C 1400.15 912.662 1390.83 908.135 1381.42 903.778 C 1382.4 899.302 1381.99 895.187 1381.86 890.587 L 1382.34 876.031 z" fill="rgb(71,191,109)" transform="translate(0,0)"></path>
<path d="M 1358.54 1201.02 C 1359.24 1187.84 1360.64 1170.07 1362.59 1157.19 C 1366.87 1181.49 1380.92 1192.72 1402.15 1201.84 C 1374.18 1201.74 1345.07 1202.09 1317.2 1201.53 C 1321.02 1200.37 1352.63 1200.95 1358.54 1201.02 z" fill="rgb(38,161,81)" transform="translate(0,0)"></path>
<path d="M 1098.47 1144.84 L 1111.06 1138.99 C 1111.62 1215.66 1077.31 1279.47 992.107 1274.91 C 949.914 1272.65 916.084 1249.53 900.267 1210.2 C 894.811 1196.63 884.544 1156.7 890.079 1143.44 C 892.924 1142.26 892.688 1142.93 896.481 1144.11 C 962.054 1169.95 1032.6 1168.58 1098.47 1144.84 z" fill="rgb(69,29,67)" transform="translate(0,0)"></path>
<path d="M 924.515 1235.3 C 944.975 1201.68 995.406 1190.75 1031.43 1200.45 C 1048.58 1205.06 1068.74 1215.21 1077.87 1231.13 C 1045.62 1273.66 976.782 1276.25 935.724 1244.9 C 931.792 1241.94 928.048 1238.73 924.515 1235.3 z" fill="rgb(240,131,138)" transform="translate(0,0)"></path>
<path d="M 1098.47 1144.84 L 1111.06 1138.99 C 1111.62 1215.66 1077.31 1279.47 992.107 1274.91 C 949.914 1272.65 916.084 1249.53 900.267 1210.2 C 894.811 1196.63 884.544 1156.7 890.079 1143.44 C 892.924 1142.26 892.688 1142.93 896.481 1144.11 C 892.742 1163.9 903.595 1205.38 914.66 1223.11 C 916.466 1226.01 919.119 1227.53 920.434 1229.5 C 921.817 1231.8 922.592 1233.37 924.515 1235.3 C 928.048 1238.73 931.792 1241.94 935.724 1244.9 C 976.782 1276.25 1045.62 1273.66 1077.87 1231.13 C 1082.33 1224.66 1084.28 1221.18 1087.88 1214.16 C 1098.05 1200.3 1101.21 1169.22 1102.98 1152.33 C 1102.02 1150.45 1099.65 1146.78 1098.47 1144.84 z" fill="rgb(43,29,58)" transform="translate(0,0)"></path>
<path d="M 920.434 1229.5 C 935.45 1176 1019.15 1170.59 1060.72 1192.02 C 1073.1 1198.4 1079.26 1203.51 1087.88 1214.16 C 1084.28 1221.18 1082.33 1224.66 1077.87 1231.13 C 1068.74 1215.21 1048.58 1205.06 1031.43 1200.45 C 995.406 1190.75 944.975 1201.68 924.515 1235.3 C 922.592 1233.37 921.817 1231.8 920.434 1229.5 z" fill="rgb(240,88,109)" transform="translate(0,0)"></path>
<path d="M 1206.39 983.186 C 1298.63 975.756 1321.2 1110.78 1231.12 1130.89 C 1138.55 1139.35 1114.87 1004.33 1206.39 983.186 z" fill="rgb(43,29,58)" transform="translate(0,0)"></path>
<path d="M 1224.81 1013.19 C 1233.44 1010.42 1242.89 1012.5 1249.55 1018.65 C 1256.21 1024.79 1259.05 1034.05 1256.97 1042.87 C 1254.9 1051.69 1248.24 1058.72 1239.54 1061.25 C 1226.34 1065.1 1212.5 1057.63 1208.47 1044.49 C 1204.44 1031.34 1211.72 1017.4 1224.81 1013.19 z" fill="rgb(255,255,255)" transform="translate(0,0)"></path>
<path d="M 778.184 986.957 C 817.515 981.084 854.149 1008.24 859.966 1047.58 C 865.782 1086.92 838.574 1123.51 799.226 1129.27 C 759.959 1135.02 723.455 1107.88 717.651 1068.62 C 711.846 1029.36 738.934 992.819 778.184 986.957 z" fill="rgb(43,29,58)" transform="translate(0,0)"></path>
<path d="M 801.598 1009.62 C 809.266 1008.77 816.925 1011.3 822.576 1016.55 C 828.227 1021.8 831.309 1029.26 831.017 1036.97 C 830.537 1049.66 821.117 1060.23 808.561 1062.17 C 799.069 1063.63 789.529 1059.84 783.624 1052.27 C 777.718 1044.69 776.37 1034.52 780.099 1025.67 C 783.829 1016.82 792.053 1010.68 801.598 1009.62 z" fill="rgb(255,255,255)" transform="translate(0,0)"></path>
<path d="M 728.923 1141.42 C 749.593 1140.13 775.931 1143.43 793.325 1155.82 C 803.88 1163.34 808.455 1176.82 798.975 1187.17 C 786.31 1201 761.464 1205.3 743.67 1206.22 C 659.717 1209.85 631.064 1148.74 728.923 1141.42 z" fill="rgb(245,187,166)" transform="translate(0,0)"></path>
<path d="M 1275.18 1138.42 C 1292.41 1138.94 1353.91 1148.34 1330.31 1182.97 C 1321.72 1195.57 1288.14 1199.62 1272.48 1200.7 C 1187.13 1195.86 1199.8 1142.49 1275.18 1138.42 z" fill="rgb(245,187,166)" transform="translate(0,0)"></path>
<path d="M 912.836 1249.53 C 916.694 1250.9 927.873 1261.02 932.235 1264.01 C 964.082 1285.8 1009.07 1290.31 1044.51 1274.94 C 1050.17 1272.48 1069.54 1259.36 1072.46 1259.52 L 1071.38 1262.03 C 1030.48 1307.22 946.276 1297.53 912.836 1249.53 z" fill="rgb(71,191,109)" transform="translate(0,0)"></path>
<path d="M 687.551 1468.89 C 699.035 1468.86 711.423 1469.42 722.981 1469.66 C 773.185 1469.26 824.779 1468.81 874.94 1469.28 C 885.757 1482.73 896.417 1496.3 906.918 1509.99 C 920.966 1525.92 932.89 1545.93 946.165 1560.91 C 956.945 1548.2 971.721 1523.68 982.112 1508.79 C 987.425 1500.96 994.617 1490.09 1000.8 1483.24 C 1006.31 1490.96 1014.15 1501.54 1018.65 1509.67 C 1029.63 1525.98 1042.36 1546.57 1053.48 1562.17 C 1066.33 1544.75 1078.08 1527.37 1091.22 1509.89 C 1101.15 1496.35 1110.84 1483.02 1121.33 1469.89 L 1279.18 1469.88 L 1294.13 1469.84 L 1294 1509.79 L 1294.03 1570.38 C 1294.05 1582.17 1293.45 1595.17 1295.27 1606.8 C 1296.4 1614.01 1302.43 1618.8 1308.01 1622.85 C 1313.76 1623.45 1317.48 1623.78 1323.3 1623.81 C 1312.81 1659.51 1288.4 1687.79 1248.68 1690.42 C 1225.6 1691.95 1201.5 1691.07 1178.28 1691.03 L 1045.21 1690.66 L 845.967 1690.98 C 821.002 1690.98 753.694 1693.83 733.935 1687.78 C 717.237 1682.66 703.832 1671.47 693.085 1658.02 C 685.964 1647.17 682.866 1636.48 680.2 1623.94 C 700.443 1595.33 692.29 1542.96 687.802 1510.05 C 686.864 1497.5 687.303 1481.52 687.551 1468.89 z" fill="rgb(182,104,58)" transform="translate(0,0)"></path>
<path d="M 1279.18 1469.88 L 1294.13 1469.84 L 1294 1509.79 L 1294.03 1570.38 C 1294.05 1582.17 1293.45 1595.17 1295.27 1606.8 C 1296.4 1614.01 1302.43 1618.8 1308.01 1622.85 C 1313.76 1623.45 1317.48 1623.78 1323.3 1623.81 C 1312.81 1659.51 1288.4 1687.79 1248.68 1690.42 C 1225.6 1691.95 1201.5 1691.07 1178.28 1691.03 L 1045.21 1690.66 L 845.967 1690.98 C 821.002 1690.98 753.694 1693.83 733.935 1687.78 C 717.237 1682.66 703.832 1671.47 693.085 1658.02 L 734.797 1657.89 C 738.679 1658.13 742.567 1658.25 746.456 1658.25 L 1092.25 1657.59 L 1176.19 1657.37 C 1192.01 1657.4 1210.28 1659.04 1225.78 1656.19 C 1238.09 1653.93 1250 1646.8 1258.73 1637.98 C 1267.06 1629.58 1273.86 1619 1277.08 1607.56 C 1281.45 1592.09 1278.99 1529.63 1278.98 1509.23 C 1217.72 1510.77 1152.63 1510.34 1091.22 1509.89 C 1101.15 1496.35 1110.84 1483.02 1121.33 1469.89 L 1279.18 1469.88 z" fill="rgb(157,77,49)" transform="translate(0,0)"></path>
<path d="M 1279.18 1469.88 L 1294.13 1469.84 L 1294 1509.79 C 1289.13 1509.34 1283.95 1509.53 1279.04 1509.58 L 1279.18 1469.88 z" fill="rgb(158,37,60)" transform="translate(0,0)"></path>
<path d="M 722.981 1469.66 C 773.185 1469.26 824.779 1468.81 874.94 1469.28 C 885.757 1482.73 896.417 1496.3 906.918 1509.99 L 723.038 1510.19 L 722.981 1469.66 z" fill="rgb(157,77,49)" transform="translate(0,0)"></path>
<path d="M 687.802 1510.05 C 694.132 1509.99 717.973 1509.38 722.871 1510.7 C 723.045 1536.76 723.065 1562.83 722.932 1588.89 C 722.903 1621.68 716.558 1640.32 750.786 1657.2 C 746.566 1657.33 738.706 1657.33 734.797 1657.89 L 693.085 1658.02 C 685.964 1647.17 682.866 1636.48 680.2 1623.94 C 700.443 1595.33 692.29 1542.96 687.802 1510.05 z" fill="rgb(210,137,61)" transform="translate(0,0)"></path>
<path d="M 1000.8 1483.24 C 1006.31 1490.96 1014.15 1501.54 1018.65 1509.67 C 1007.2 1508.99 993.79 1509.12 982.112 1508.79 C 987.425 1500.96 994.617 1490.09 1000.8 1483.24 z" fill="rgb(157,77,49)" transform="translate(0,0)"></path>
<path d="M 1600.94 1308.29 C 1664.45 1308.08 1732.65 1307.51 1796.03 1308.77 C 1796.5 1400.87 1797.88 1495.62 1796.92 1587.54 C 1793.92 1592.2 1788.57 1599.58 1782.46 1599.98 C 1732.6 1603.26 1681.96 1601.09 1631.93 1601.7 C 1621.65 1601.83 1611.25 1601.72 1601.07 1601.22 L 1601 1517.5 C 1601 1503.36 1600.51 1485.67 1601.16 1471.87 L 1600.91 1334.03 L 1600.94 1308.29 z" fill="rgb(250,192,95)" transform="translate(0,0)"></path>
<path d="M 1600.94 1308.29 C 1664.45 1308.08 1732.65 1307.51 1796.03 1308.77 C 1796.5 1400.87 1797.88 1495.62 1796.92 1587.54 C 1793.92 1592.2 1788.57 1599.58 1782.46 1599.98 C 1732.6 1603.26 1681.96 1601.09 1631.93 1601.7 C 1621.65 1601.83 1611.25 1601.72 1601.07 1601.22 L 1601 1517.5 C 1601 1503.36 1600.51 1485.67 1601.16 1471.87 C 1603.24 1489.82 1602.02 1539.93 1601.98 1560.49 L 1695.95 1560.74 C 1712.53 1560.76 1729.11 1561.14 1745.67 1560.3 C 1753.84 1560.86 1762.92 1554.19 1763.22 1545.24 C 1765.49 1477.37 1768.16 1407.13 1767.86 1339.42 C 1741.67 1336.98 1717.13 1336.72 1690.88 1336.07 C 1660.9 1335.15 1630.9 1334.47 1600.91 1334.03 L 1600.94 1308.29 z" fill="rgb(210,137,61)" transform="translate(0,0)"></path>
<path d="M 1316.39 1307.49 C 1331.93 1305.86 1365.85 1306.96 1383.38 1306.96 L 1509.16 1307.02 C 1509.15 1314.72 1508.9 1323.77 1509.15 1331.35 L 1509.06 1466.44 C 1509.02 1497.38 1509.72 1532.1 1508.17 1562.65 L 1507.85 1603.2 C 1449.28 1605.1 1393.13 1602.39 1334.8 1601.93 L 1316.98 1601.76 C 1317.05 1511.85 1317.7 1420.48 1316.66 1330.64 C 1316.72 1322.92 1316.63 1315.2 1316.39 1307.49 z" fill="rgb(250,192,95)" transform="translate(0,0)"></path>
<path d="M 1334.74 1561.88 L 1454.42 1562.56 C 1469.97 1562.65 1493.44 1561.77 1508.17 1562.65 L 1507.85 1603.2 C 1449.28 1605.1 1393.13 1602.39 1334.8 1601.93 C 1334.96 1588.7 1334.77 1575.13 1334.74 1561.88 z" fill="rgb(210,137,61)" transform="translate(0,0)"></path>
<path d="M 1316.66 1330.64 C 1322.11 1330.71 1328.55 1330.62 1333.91 1330.9 C 1334.59 1407.89 1334.87 1484.88 1334.74 1561.88 C 1334.77 1575.13 1334.96 1588.7 1334.8 1601.93 L 1316.98 1601.76 C 1317.05 1511.85 1317.7 1420.48 1316.66 1330.64 z" fill="rgb(255,255,255)" transform="translate(0,0)"></path>
<path d="M 1316.39 1307.49 C 1331.93 1305.86 1365.85 1306.96 1383.38 1306.96 L 1509.16 1307.02 C 1509.15 1314.72 1508.9 1323.77 1509.15 1331.35 C 1467.12 1330.08 1423.24 1331.91 1381.01 1330.52 C 1366.24 1330.04 1348.5 1331.36 1334.09 1330.29 L 1333.91 1330.9 C 1328.55 1330.62 1322.11 1330.71 1316.66 1330.64 C 1316.72 1322.92 1316.63 1315.2 1316.39 1307.49 z" fill="rgb(210,137,61)" transform="translate(0,0)"></path>
<path d="M 1316.39 1307.49 C 1322.67 1307.84 1327.81 1307.93 1334.1 1307.87 C 1334.08 1315.02 1333.86 1323.22 1334.09 1330.29 L 1333.91 1330.9 C 1328.55 1330.62 1322.11 1330.71 1316.66 1330.64 C 1316.72 1322.92 1316.63 1315.2 1316.39 1307.49 z" fill="rgb(254,226,153)" transform="translate(0,0)"></path>
<path d="M 393.292 1390.3 C 383.753 1356.53 400.785 1337.26 426.24 1317.88 C 439.827 1307.53 537.484 1235.66 546.618 1236.71 C 548.562 1239.84 547.904 1241.9 547.968 1246.04 C 548.131 1272.06 546.688 1299.67 547.066 1324.62 C 547.055 1327.95 547.476 1332.3 545.895 1334.97 C 539.959 1338.58 525.025 1346.79 518.759 1348.72 C 512.203 1353.14 495.686 1365.08 488.95 1366.1 C 487.965 1376.6 491.626 1378.6 498.226 1387.03 C 529.223 1426.66 562.588 1450.97 602.139 1480.75 C 614.789 1489.54 634.153 1502.17 645.554 1511.72 C 667.896 1532.25 667.572 1563.11 662.497 1590.94 C 636.758 1591.35 619.368 1585.94 595.921 1574.69 C 592.657 1573.13 584.515 1568.85 581.926 1566.65 C 580.799 1566.17 578.776 1565.2 577.679 1564.59 C 522.888 1533.89 473.484 1494.89 432.309 1447.37 C 417.541 1430.33 400.307 1411.86 393.292 1390.3 z" fill="rgb(118,202,104)" transform="translate(0,0)"></path>
<path d="M 393.292 1390.3 C 383.753 1356.53 400.785 1337.26 426.24 1317.88 C 439.827 1307.53 537.484 1235.66 546.618 1236.71 C 548.562 1239.84 547.904 1241.9 547.968 1246.04 C 539.371 1251.02 524.732 1262.22 515.589 1268.67 C 479.445 1294.16 439.455 1319.35 411.312 1353.82 C 402.555 1364.54 399.022 1380.66 393.292 1390.3 z" fill="rgb(197,229,160)" transform="translate(0,0)"></path>
<path d="M 645.554 1511.72 C 667.896 1532.25 667.572 1563.11 662.497 1590.94 C 636.758 1591.35 619.368 1585.94 595.921 1574.69 C 592.657 1573.13 584.515 1568.85 581.926 1566.65 C 587.01 1566.96 593.767 1568.98 599.015 1570 C 633.076 1576.68 642.231 1537.03 645.554 1511.72 z" fill="rgb(38,161,81)" transform="translate(0,0)"></path>
<path d="M 602.139 1480.75 C 583.489 1480.38 473.981 1400.54 469.796 1373.04 C 468.597 1365.16 481.277 1357.29 488.95 1366.1 C 487.965 1376.6 491.626 1378.6 498.226 1387.03 C 529.223 1426.66 562.588 1450.97 602.139 1480.75 z" fill="rgb(197,229,160)" transform="translate(0,0)"></path>
<path d="M 547.066 1324.62 C 547.055 1327.95 547.476 1332.3 545.895 1334.97 C 539.959 1338.58 525.025 1346.79 518.759 1348.72 C 522.972 1343.42 540.257 1330.83 547.066 1324.62 z" fill="rgb(38,161,81)" transform="translate(0,0)"></path>
<path d="M 696.212 211.128 C 737.98 218.01 775.757 230.856 812.934 251.072 C 820.867 255.386 844.343 266.07 845.646 274.374 C 840.366 282.373 832.828 303.982 829.309 313.627 C 815.661 351.024 800.279 402.831 796.537 442.603 C 767.136 423.527 739.331 405.174 706.258 393.079 C 701.703 391.413 695.808 389.145 691.451 387.074 L 672.878 380.119 C 662.067 324.063 668.719 261.652 696.212 211.128 z" fill="rgb(118,202,104)" transform="translate(0,0)"></path>
<path d="M 696.282 266.06 L 697.631 266.971 C 701.755 298.006 708.579 338.576 735.711 357.484 C 789.924 395.264 779.5 300.358 774.066 276.673 C 792.672 288.269 807.94 301.481 826.605 313.045 L 829.309 313.627 C 815.661 351.024 800.279 402.831 796.537 442.603 C 767.136 423.527 739.331 405.174 706.258 393.079 C 701.703 391.413 695.808 389.145 691.451 387.074 C 683.5 338.74 686.428 312.795 696.282 266.06 z" fill="rgb(38,161,81)" transform="translate(0,0)"></path>
<path d="M 696.212 211.128 C 737.98 218.01 775.757 230.856 812.934 251.072 C 820.867 255.386 844.343 266.07 845.646 274.374 C 842.788 274.132 840.375 273.26 837.627 272.444 C 807.153 256.233 744.391 229.252 710.918 223.865 C 703.913 237.1 698.978 251.33 696.282 266.06 C 686.428 312.795 683.5 338.74 691.451 387.074 L 672.878 380.119 C 662.067 324.063 668.719 261.652 696.212 211.128 z" fill="rgb(197,229,160)" transform="translate(0,0)"></path>
<path d="M 837.627 272.444 C 840.375 273.26 842.788 274.132 845.646 274.374 C 840.366 282.373 832.828 303.982 829.309 313.627 L 826.605 313.045 C 827.307 296.759 831.112 287.256 837.627 272.444 z" fill="rgb(71,191,109)" transform="translate(0,0)"></path>
<path d="M 1316.2 209.974 L 1319.77 220.498 L 1320.41 223.212 C 1338.43 272.245 1344.56 332.095 1343.84 384.224 C 1291.62 400.528 1272.19 409.291 1223.83 434.572 C 1217.89 405.445 1212.49 381.905 1201.7 354.046 C 1194.85 336.357 1187.08 319.709 1179.93 302.3 L 1174.05 289.655 L 1165.16 274.375 C 1219.6 237.743 1254.64 227.225 1316.2 209.974 z" fill="rgb(118,202,104)" transform="translate(0,0)"></path>
<path d="M 1320.41 223.212 C 1338.43 272.245 1344.56 332.095 1343.84 384.224 C 1291.62 400.528 1272.19 409.291 1223.83 434.572 C 1217.89 405.445 1212.49 381.905 1201.7 354.046 C 1194.85 336.357 1187.08 319.709 1179.93 302.3 C 1190.35 297.189 1196.2 292.768 1205.29 285.597 C 1206.48 297.109 1206.61 309.478 1207.89 321.044 C 1209.2 332.953 1210.95 344.725 1212.29 356.668 C 1225.89 338.789 1248.47 323.799 1266.82 310.64 C 1265.47 315.498 1264.09 321.417 1263.14 326.371 C 1257.8 354.451 1246.68 379.789 1237.49 406.662 C 1247.06 400.629 1255.95 394.353 1264.37 386.757 C 1297.18 356.57 1317.02 314.843 1319.71 270.339 C 1320.77 255.018 1319.53 238.936 1320.41 223.212 z" fill="rgb(38,161,81)" transform="translate(0,0)"></path>
<path d="M 1316.2 209.974 L 1319.77 220.498 C 1284.25 231.344 1251.33 244.295 1218.89 262.45 C 1206.61 269.321 1185.17 284.407 1174.05 289.655 L 1165.16 274.375 C 1219.6 237.743 1254.64 227.225 1316.2 209.974 z" fill="rgb(197,229,160)" transform="translate(0,0)"></path>
<path d="M 1519.96 1307.88 C 1543.39 1308.03 1566.61 1309 1589.99 1308.9 C 1589.93 1316.28 1589.65 1324.85 1589.9 1332.13 L 1590.05 1560.96 C 1590.15 1572.76 1590.65 1591.28 1589.34 1602.54 C 1567.03 1603.32 1541.71 1602.89 1519.19 1602.94 C 1519.06 1589.57 1518.97 1574.12 1519.92 1560.92 L 1520.09 1332.08 L 1519.96 1307.88 z" fill="rgb(240,88,109)" transform="translate(0,0)"></path>
<path d="M 1519.92 1560.92 L 1590.05 1560.96 C 1590.15 1572.76 1590.65 1591.28 1589.34 1602.54 C 1567.03 1603.32 1541.71 1602.89 1519.19 1602.94 C 1519.06 1589.57 1518.97 1574.12 1519.92 1560.92 z" fill="rgb(158,37,60)" transform="translate(0,0)"></path>
<path d="M 1519.96 1307.88 C 1543.39 1308.03 1566.61 1309 1589.99 1308.9 C 1589.93 1316.28 1589.65 1324.85 1589.9 1332.13 C 1566.06 1331.59 1543.95 1331.13 1520.09 1332.08 L 1519.96 1307.88 z" fill="rgb(158,37,60)" transform="translate(0,0)"></path>
<path d="M 823.801 1718.45 L 908.027 1719.02 C 907.639 1735.92 907.86 1769.92 906.159 1785.22 C 905.852 1822.37 904.154 1859.61 903.815 1896.77 C 903.771 1901.51 903.416 1906.26 902.993 1910.97 L 761.009 1910.81 C 761.594 1909.55 762.217 1908.31 762.877 1907.09 C 778.444 1878.63 806.025 1872.86 834.767 1864.59 C 831.888 1830.46 828.296 1791.04 826.823 1756.97 C 825.73 1744.44 824.47 1730.97 823.801 1718.45 z" fill="rgb(118,202,104)" transform="translate(0,0)"></path>
<path d="M 823.801 1718.45 L 908.027 1719.02 C 907.639 1735.92 907.86 1769.92 906.159 1785.22 C 905.665 1776.09 906.126 1767.39 906.471 1758.28 C 879.974 1756.2 853.374 1755.77 826.823 1756.97 C 825.73 1744.44 824.47 1730.97 823.801 1718.45 z" fill="rgb(22,133,72)" transform="translate(0,0)"></path>
<path d="M 1101.89 1719.01 L 1188.23 1719.06 C 1185.81 1734 1184.86 1748.43 1183.13 1763.41 C 1182.7 1777.51 1175.93 1853.4 1172.46 1863.55 C 1210.56 1868.23 1230.38 1878.16 1252.26 1909.98 C 1217.77 1910.61 1183.12 1909.45 1148.61 1910.28 C 1137.05 1910.56 1122.3 1911.69 1111.05 1909.62 C 1106.95 1904.27 1104.49 1777.55 1103.62 1760.8 C 1102.69 1747.01 1102.44 1732.86 1101.89 1719.01 z" fill="rgb(118,202,104)" transform="translate(0,0)"></path>
<path d="M 1101.89 1719.01 L 1188.23 1719.06 C 1185.81 1734 1184.86 1748.43 1183.13 1763.41 C 1168.28 1758.48 1117.17 1755.19 1103.62 1760.8 C 1102.69 1747.01 1102.44 1732.86 1101.89 1719.01 z" fill="rgb(38,161,81)" transform="translate(0,0)"></path>
<path d="M 1612.84 1222.97 C 1677.54 1223.02 1743.48 1222.3 1808.07 1223.11 C 1817.39 1228.56 1821.03 1233.05 1826 1242.83 C 1826.48 1251.2 1828.04 1287.98 1824.97 1293.07 C 1820.63 1294.79 1815.54 1295.66 1810.85 1295.66 C 1757.36 1295.66 1703.85 1294.86 1650.36 1295.15 C 1639.09 1295.21 1625.1 1295.95 1614.07 1294.7 L 1612.63 1293.53 C 1612.25 1289.84 1612.2 1289.5 1612.59 1285.85 L 1612.89 1242.06 L 1612.84 1222.97 z" fill="rgb(250,192,95)" transform="translate(0,0)"></path>
<path d="M 1612.84 1222.97 C 1677.54 1223.02 1743.48 1222.3 1808.07 1223.11 C 1817.39 1228.56 1821.03 1233.05 1826 1242.83 C 1821.23 1242.91 1815.8 1243.12 1811.09 1243.06 C 1747.1 1241.09 1677.28 1242.24 1612.89 1242.06 L 1612.84 1222.97 z" fill="rgb(254,226,153)" transform="translate(0,0)"></path>
<path d="M 1826 1242.83 C 1826.48 1251.2 1828.04 1287.98 1824.97 1293.07 C 1820.63 1294.79 1815.54 1295.66 1810.85 1295.66 C 1757.36 1295.66 1703.85 1294.86 1650.36 1295.15 C 1639.09 1295.21 1625.1 1295.95 1614.07 1294.7 L 1612.63 1293.53 C 1612.25 1289.84 1612.2 1289.5 1612.59 1285.85 C 1677.43 1286.21 1742.28 1286.23 1807.12 1285.91 C 1808.93 1275.16 1809.18 1249.22 1811.09 1243.06 C 1815.8 1243.12 1821.23 1242.91 1826 1242.83 z" fill="url(#Gradient2)" transform="translate(0,0)"></path>
<path d="M 1293.11 1240.66 C 1305.22 1219.34 1321.47 1222.49 1342.45 1223.18 L 1497.05 1223.11 L 1497.06 1240.84 L 1497.12 1285.31 C 1497.16 1288.55 1497.67 1292.07 1496.15 1294.73 C 1489.76 1295.36 1483.27 1295.27 1476.84 1295.21 C 1419.57 1294.68 1362.12 1295.7 1304.85 1295.07 L 1292.92 1294.92 C 1292.71 1276.83 1292.78 1258.75 1293.11 1240.66 z" fill="rgb(250,192,95)" transform="translate(0,0)"></path>
<path d="M 1293.11 1240.66 C 1305.22 1219.34 1321.47 1222.49 1342.45 1223.18 L 1497.05 1223.11 L 1497.06 1240.84 C 1454.96 1241.72 1412.58 1240.58 1370.45 1241.22 C 1365.05 1241.3 1359.06 1241.43 1353.7 1241.1 C 1306.35 1240.98 1306.41 1234.09 1308 1282.59 C 1307.09 1287.24 1306.59 1290.62 1304.85 1295.07 L 1292.92 1294.92 C 1292.71 1276.83 1292.78 1258.75 1293.11 1240.66 z" fill="rgb(248,239,208)" transform="translate(0,0)"></path>
<path d="M 1342.45 1223.18 L 1497.05 1223.11 L 1497.06 1240.84 C 1454.96 1241.72 1412.58 1240.58 1370.45 1241.22 C 1365.05 1241.3 1359.06 1241.43 1353.7 1241.1 C 1359.33 1238.27 1390.28 1239.42 1398.53 1239.51 C 1402.01 1236.35 1403.24 1235.04 1407.56 1233.47 L 1421.72 1228.26 L 1421.08 1226.1 L 1421.78 1226.23 C 1420.25 1225.23 1353.44 1225.19 1342.45 1223.18 z" fill="rgb(254,226,153)" transform="translate(0,0)"></path>
<path d="M 1308 1282.59 C 1320.51 1281.59 1348.89 1283 1363.46 1283.19 L 1497.12 1285.31 C 1497.16 1288.55 1497.67 1292.07 1496.15 1294.73 C 1489.76 1295.36 1483.27 1295.27 1476.84 1295.21 C 1419.57 1294.68 1362.12 1295.7 1304.85 1295.07 C 1306.59 1290.62 1307.09 1287.24 1308 1282.59 z" fill="rgb(210,137,61)" transform="translate(0,0)"></path>
<path d="M 1395.58 1621.98 C 1423.34 1621.59 1451.77 1622.41 1479.64 1622.46 L 1614.93 1622.06 C 1614.34 1631.06 1613.77 1638.26 1611.92 1647.04 C 1587.48 1704.15 1524.99 1685.45 1480.49 1666.9 C 1468.44 1661.88 1457.37 1654.78 1445.73 1649.59 C 1429.81 1642.63 1409.61 1631.81 1395.58 1621.98 z" fill="rgb(38,161,81)" transform="translate(0,0)"></path>
<path d="M 1445.73 1649.59 C 1453.31 1647.38 1495.01 1647.83 1505.91 1647.75 C 1541.24 1647.33 1576.58 1647.09 1611.92 1647.04 C 1587.48 1704.15 1524.99 1685.45 1480.49 1666.9 C 1468.44 1661.88 1457.37 1654.78 1445.73 1649.59 z" fill="rgb(118,202,104)" transform="translate(0,0)"></path>
<path d="M 1395.39 1105.05 C 1430.75 1041.48 1478.13 1066.27 1518.23 1107.76 C 1521.56 1110.26 1532.66 1121.1 1535.99 1124.52 C 1558.05 1147.1 1563.85 1153.05 1570.8 1182.8 C 1547.18 1182.53 1541.9 1176.5 1522.29 1164.31 C 1483.04 1139.91 1428.76 1105.41 1383.79 1135.68 C 1385.67 1125.11 1389.5 1114.07 1395.39 1105.05 z" fill="rgb(240,88,109)" transform="translate(0,0)"></path>
<path d="M 1395.39 1105.05 C 1430.75 1041.48 1478.13 1066.27 1518.23 1107.76 C 1511.37 1108.15 1498.23 1094.4 1490.91 1091.3 C 1464.59 1080.15 1425.16 1083.18 1402.68 1101.61 L 1399.21 1104.45 L 1397.82 1105.61 L 1395.39 1105.05 z" fill="url(#Gradient1)" transform="translate(0,0)"></path>
<path d="M 1574.99 1158.32 C 1572.62 1149.88 1579.88 1145.45 1585.89 1139.44 C 1614.72 1110.62 1681.6 1035.46 1719.94 1089.77 C 1728.17 1098.34 1733.97 1115.8 1737.11 1127.12 C 1694.52 1115.32 1650.1 1141.19 1613.49 1161.9 C 1602.04 1168.39 1590.63 1174.95 1579.27 1181.59 C 1578.5 1175.61 1577.17 1163.82 1574.99 1158.32 z" fill="rgb(240,88,109)" transform="translate(0,0)"></path>
<path d="M 1574.99 1158.32 C 1572.62 1149.88 1579.88 1145.45 1585.89 1139.44 C 1614.72 1110.62 1681.6 1035.46 1719.94 1089.77 C 1710.46 1090.01 1699.64 1084.99 1688.85 1085.86 C 1653.59 1088.72 1616.45 1116.67 1591.98 1140.35 C 1586.09 1146.11 1580.42 1152.11 1574.99 1158.32 z" fill="rgb(240,131,138)" transform="translate(0,0)"></path>
<path d="M 1508.75 1223.04 C 1539.13 1223.05 1570.55 1222.63 1600.84 1223.1 L 1600.99 1239.78 L 1601.02 1294.79 L 1508.93 1294.63 L 1508.92 1239.28 L 1508.75 1223.04 z" fill="rgb(213,60,98)" transform="translate(0,0)"></path>
<path d="M 1508.75 1223.04 C 1539.13 1223.05 1570.55 1222.63 1600.84 1223.1 L 1600.99 1239.78 C 1571.32 1238.62 1538.72 1239.24 1508.92 1239.28 L 1508.75 1223.04 z" fill="rgb(240,131,138)" transform="translate(0,0)"></path>
<path d="M 890.133 1469.25 C 925.192 1468.77 960.181 1469.29 995.381 1468.65 C 989.087 1478.3 981.918 1489.21 974.83 1498.24 C 965.238 1512.53 955.967 1526.47 945.667 1540.27 C 935.536 1526.31 925.062 1512.61 914.253 1499.16 C 906.922 1491.36 896.874 1477.9 890.133 1469.25 z" fill="rgb(189,157,161)" transform="translate(0,0)"></path>
<path d="M 914.253 1499.16 C 917.39 1497.25 966.934 1498.27 974.83 1498.24 C 965.238 1512.53 955.967 1526.47 945.667 1540.27 C 935.536 1526.31 925.062 1512.61 914.253 1499.16 z" fill="rgb(235,204,200)" transform="translate(0,0)"></path>
<path d="M 1006.14 1469.1 L 1107.01 1468.91 C 1102 1475.39 1086.79 1497.04 1082 1501.25 C 1072.07 1515.81 1064.06 1526.65 1052.7 1540.06 C 1043.73 1527.34 1034.75 1513.14 1026.32 1500.03 C 1019.37 1490.58 1012.65 1479.06 1006.14 1469.1 z" fill="rgb(189,157,161)" transform="translate(0,0)"></path>
<path d="M 1026.32 1500.03 C 1031.04 1498.58 1077.64 1499.12 1082 1501.25 C 1072.07 1515.81 1064.06 1526.65 1052.7 1540.06 C 1043.73 1527.34 1034.75 1513.14 1026.32 1500.03 z" fill="rgb(235,204,200)" transform="translate(0,0)"></path>
<path d="M 1417.59 1139.23 C 1426.43 1138.74 1436.15 1140.87 1444.81 1142.6 C 1443.03 1149.72 1442.28 1153.4 1441.41 1160.67 C 1453.29 1187.12 1487.95 1185.92 1507.54 1198.93 L 1507.35 1200.25 C 1502.52 1201.25 1494.04 1200.67 1488.75 1200.52 C 1473.53 1200.36 1452.2 1201.13 1438.05 1196.49 C 1418.4 1190.05 1401.95 1180.07 1392.01 1161.61 C 1398.15 1148.85 1403.72 1142.95 1417.59 1139.23 z" fill="rgb(213,60,98)" transform="translate(0,0)"></path>
<path d="M 1707.64 1143.11 C 1712.46 1149.17 1713.52 1171.39 1714.22 1179.86 C 1687.54 1195.69 1644.06 1192.84 1613.75 1192 C 1611.67 1191.96 1609.14 1191.72 1607.02 1191.59 L 1607.02 1190.68 C 1620.69 1184.53 1633.83 1181.14 1648.68 1173.35 C 1668.3 1163.07 1687.46 1152.01 1707.64 1143.11 z" fill="rgb(245,187,166)" transform="translate(0,0)"></path>
<path d="M 549.066 1364.76 L 550.791 1365.63 C 567.829 1417.73 608.114 1450.89 659.027 1467.35 L 658.654 1486.04 L 646.492 1477.54 C 604.415 1450.59 558.546 1418.45 528.636 1377.49 C 534.686 1372.65 542.273 1368.64 549.066 1364.76 z" fill="rgb(245,187,166)" transform="translate(0,0)"></path>
<path d="M 1463.04 1149.25 C 1473.43 1152.41 1521.15 1178.28 1528.1 1185.8 C 1510.19 1186.31 1475.92 1176.07 1463.38 1162.76 C 1460.73 1159.95 1462.48 1152.82 1463.04 1149.25 z" fill="rgb(21,113,67)" transform="translate(0,0)"></path>
<path d="M 1538.06 1197.29 C 1557.7 1195.6 1578.7 1196.22 1597.38 1202.74 C 1590.76 1202.89 1584.11 1203.38 1577.5 1203.8 C 1557.44 1204.29 1538.26 1204.54 1518.21 1203.41 C 1525.02 1199.99 1530.66 1198.49 1538.06 1197.29 z" fill="rgb(240,131,138)" transform="translate(0,0)"></path>
<path d="M 1718.26 1141.44 C 1733.07 1144.87 1739.03 1151.58 1729.75 1165.7 L 1722.92 1172.59 C 1722.43 1160.76 1720.68 1152.91 1718.26 1141.44 z" fill="rgb(159,64,102)" transform="translate(0,0)"></path>
<metadata><recraft-signature>{"signed_by": "recraft", "signature_b64": "LY+QcaYoSyZgot5IfSYVWXcVAP5AWuNminbcwLBnPPGHBmTLVejKjX0LN7MRhW+/mdxmAesUixZn99q73XcQAw==", "signing_algo": "Ed25519", "generation_timestamp": 1783496764, "identifier": "c5f8b651-dc8f-4222-99bc-f9c716df6c49"}</recraft-signature></metadata></svg>