<svg xmlns="http://www.w3.org/2000/svg" height="1024" preserveAspectRatio="none" style="display: block;" version="1.1" viewBox="0 0 2048 2048" width="1024">
<defs>
	<linearGradient gradientUnits="userSpaceOnUse" id="Gradient1" x1="1023.89" x2="1978.35" y1="1027.35" y2="1839.67">
		<stop class="stop0" offset="0" stop-color="rgb(149,176,201)" stop-opacity="1"></stop>
		<stop class="stop1" offset="1" stop-color="rgb(245,244,241)" stop-opacity="1"></stop>
	</linearGradient>
</defs>
<path d="M 0 0 L 2048 0 L 2048 981.564 L 2048 1648.53 L 2048 2048 L 1657.79 2048 L 1059.56 2048 L 0 2048 L 0 0 z" fill="rgb(242,242,242)" transform="translate(0,0)"></path>
<path d="M 1507.18 449.264 C 1519.51 457.001 1566.05 505.03 1577.77 516.921 C 1605.85 545.131 1634.1 573.174 1662.52 601.047 C 1695.89 634.132 1729.6 666.877 1763.63 699.277 C 1778.93 713.811 1795.08 727.739 1809.96 742.487 L 1950.17 882.14 C 1981.86 914.197 2016 950.448 2048 981.564 L 2048 1648.53 L 2048 2048 L 1657.79 2048 L 1059.56 2048 C 1037.96 2027.62 1014.75 2003.16 993.408 1981.91 L 841.973 1829.65 C 819.897 1807.22 795.778 1785.39 773.885 1762.45 C 762.015 1750.01 749.928 1738.86 739.09 1725.22 C 834.1 1726.09 929.113 1726.42 1024.13 1726.21 C 1024.05 1716.68 1024.25 1707.14 1024.72 1697.62 C 1026.05 1677.94 1024.93 1640.7 1024.97 1619.85 L 1025.15 1469.85 L 1025.15 1406.87 C 1025.15 1398.26 1025.54 1378.97 1024.29 1371.07 L 1024.8 1370.85 C 1024.35 1349.88 1024.75 1322.87 1025.4 1301.85 C 1025.95 1294.69 1026.83 1266.48 1025.4 1260.43 L 1023.16 1259.32 L 1021.57 1259.04 C 990.071 1261.67 936.344 1244.42 914.389 1221.65 C 927.9 1220.7 947.12 1215.36 959.004 1209 C 947.496 1204.78 941.083 1202.85 930.912 1195.75 C 921.216 1189.03 913.138 1179.63 910.32 1167.99 C 890.186 1084.88 944.356 986.698 1025.47 961.824 C 1026.6 946.981 1026.07 924.545 1026.23 909.106 L 1026.78 909.016 C 1027.97 869.951 1026.65 828.204 1027.34 788.529 C 1022.04 789.114 1017.8 788.853 1012.49 788.701 C 1016.51 788.224 1023.05 788.306 1027.27 788.229 L 1026.69 601.682 L 1026.88 600.781 C 1026.92 589.734 1027.62 562.075 1026.27 552.065 L 1026.8 551.927 L 1027.02 518.881 C 1063.46 519.787 1100.24 518.743 1136.7 519.272 C 1144.84 519.39 1153.3 519.377 1161.4 518.825 C 1195.33 518.627 1235.71 517.997 1269.33 519.071 C 1269.27 530.041 1269.29 541.011 1269.39 551.981 L 1380.26 551.96 C 1396.85 551.961 1422.19 551.162 1438.11 552.179 L 1462.25 552.28 C 1485.81 550.994 1511.91 558.57 1510.94 523.638 C 1510.3 500.857 1513.74 470.699 1507.18 449.264 z" fill="url(#Gradient1)" transform="translate(0,0)"></path>
<path d="M 1027.34 788.529 C 1034.52 787.509 1071.09 788.16 1080.67 788.138 L 1186.47 788.271 C 1205.57 788.38 1230.74 789.237 1249.41 788.196 L 1249.24 789.071 L 1413.04 789.177 C 1406.6 834.518 1403.15 881.77 1398.09 926.506 C 1389.21 1004.89 1379.46 1088.91 1370.84 1166.38 C 1368.59 1186.57 1351.08 1367.41 1349.11 1371.36 C 1305.06 1370.12 1256.16 1371.01 1211.75 1370.95 L 1211.08 1371.14 L 1024.8 1370.85 C 1024.35 1349.88 1024.75 1322.87 1025.4 1301.85 C 1025.95 1294.69 1026.83 1266.48 1025.4 1260.43 L 1023.16 1259.32 L 1021.57 1259.04 C 990.071 1261.67 936.344 1244.42 914.389 1221.65 C 927.9 1220.7 947.12 1215.36 959.004 1209 C 947.496 1204.78 941.083 1202.85 930.912 1195.75 C 921.216 1189.03 913.138 1179.63 910.32 1167.99 C 890.186 1084.88 944.356 986.698 1025.47 961.824 C 1026.6 946.981 1026.07 924.545 1026.23 909.106 L 1026.78 909.016 C 1027.97 869.951 1026.65 828.204 1027.34 788.529 z" fill="rgb(71,44,36)" transform="translate(0,0)"></path>
<path d="M 1026.78 909.016 L 1037.64 909.194 C 1101.1 916.392 1153.03 954.899 1181.48 1011.6 C 1183.32 1015.26 1189.18 1027.29 1189.04 1031.08 C 1189.05 1031.68 1189.06 1032.29 1189.07 1032.89 C 1213.89 1130.42 1160.12 1225.11 1063.18 1252.45 C 1052.61 1254.6 1028.48 1256.93 1021.57 1259.04 C 990.071 1261.67 936.344 1244.42 914.389 1221.65 C 927.9 1220.7 947.12 1215.36 959.004 1209 C 947.496 1204.78 941.083 1202.85 930.912 1195.75 C 921.216 1189.03 913.138 1179.63 910.32 1167.99 C 890.186 1084.88 944.356 986.698 1025.47 961.824 C 1026.6 946.981 1026.07 924.545 1026.23 909.106 L 1026.78 909.016 z" fill="rgb(93,50,35)" transform="translate(0,0)"></path>
<path d="M 1025.47 961.824 C 1057.07 951.038 1084.57 952.057 1116.11 963.684 C 1125.06 969.229 1133.42 974.801 1137.77 984.919 L 1130.12 985.167 L 1128.7 984.742 C 1125.57 986.942 1115.31 1014.09 1111.7 1021.32 C 1105.03 1033.05 1097.7 1046.64 1089.69 1057.48 C 1054.33 1105.32 1007.77 1141.02 950.148 1157.03 C 945.806 1158.23 938.155 1160.02 933.728 1160.52 C 932.2 1165.54 929.134 1172.74 930.264 1177.29 C 932.65 1179.11 933.329 1178.09 937.376 1177.68 L 938.296 1178.73 L 934.176 1180.03 C 932.614 1185.75 931.468 1189.86 930.912 1195.75 C 921.216 1189.03 913.138 1179.63 910.32 1167.99 C 890.186 1084.88 944.356 986.698 1025.47 961.824 z" fill="rgb(242,242,242)" transform="translate(0,0)"></path>
<path d="M 933.728 1160.52 C 935.268 1155.7 936.842 1150.89 938.451 1146.1 C 961.095 1078.87 995.911 1031.85 1060.47 998.379 C 1075.71 990.479 1112.1 979.13 1128.7 984.742 C 1125.57 986.942 1115.31 1014.09 1111.7 1021.32 C 1105.03 1033.05 1097.7 1046.64 1089.69 1057.48 C 1054.33 1105.32 1007.77 1141.02 950.148 1157.03 C 945.806 1158.23 938.155 1160.02 933.728 1160.52 z" fill="rgb(212,111,56)" transform="translate(0,0)"></path>
<path d="M 1111.7 1021.32 C 1115.79 1018.13 1120.68 1006.27 1121.96 1006.21 C 1120.99 1011.88 1117.3 1024.61 1118.68 1028.08 L 1119.33 1026.98 C 1121.43 1029.94 1120.99 1032.26 1120.43 1035.76 C 1111.61 1090.94 1063.79 1170.06 1017.37 1201.99 C 1014.82 1203.75 1011.83 1205.28 1009.74 1207.58 C 993.197 1213.23 975.8 1214.39 959.004 1209 C 947.496 1204.78 941.083 1202.85 930.912 1195.75 C 931.468 1189.86 932.614 1185.75 934.176 1180.03 L 938.296 1178.73 L 937.376 1177.68 C 933.329 1178.09 932.65 1179.11 930.264 1177.29 C 929.134 1172.74 932.2 1165.54 933.728 1160.52 C 938.155 1160.02 945.806 1158.23 950.148 1157.03 C 1007.77 1141.02 1054.33 1105.32 1089.69 1057.48 C 1097.7 1046.64 1105.03 1033.05 1111.7 1021.32 z" fill="rgb(253,227,192)" transform="translate(0,0)"></path>
<path d="M 1111.7 1021.32 C 1115.79 1018.13 1120.68 1006.27 1121.96 1006.21 C 1120.99 1011.88 1117.3 1024.61 1118.68 1028.08 C 1096.83 1095.75 1036.75 1145.92 970.794 1168.23 C 965.83 1169.91 939.59 1176.38 937.376 1177.68 C 933.329 1178.09 932.65 1179.11 930.264 1177.29 C 929.134 1172.74 932.2 1165.54 933.728 1160.52 C 938.155 1160.02 945.806 1158.23 950.148 1157.03 C 1007.77 1141.02 1054.33 1105.32 1089.69 1057.48 C 1097.7 1046.64 1105.03 1033.05 1111.7 1021.32 z" fill="rgb(93,50,35)" transform="translate(0,0)"></path>
<path d="M 1137.77 984.919 C 1140.65 996.854 1144.55 1008.44 1145.89 1020.73 C 1149.73 1055.82 1139.17 1096.78 1120.84 1126.76 C 1095.89 1167.57 1059.73 1197.07 1012.46 1207.15 C 1011.11 1207.44 1010.72 1207.46 1009.74 1207.58 C 1011.83 1205.28 1014.82 1203.75 1017.37 1201.99 C 1063.79 1170.06 1111.61 1090.94 1120.43 1035.76 C 1120.99 1032.26 1121.43 1029.94 1119.33 1026.98 L 1118.68 1028.08 C 1117.3 1024.61 1120.99 1011.88 1121.96 1006.21 C 1120.68 1006.27 1115.79 1018.13 1111.7 1021.32 C 1115.31 1014.09 1125.57 986.942 1128.7 984.742 L 1130.12 985.167 L 1137.77 984.919 z" fill="rgb(188,199,205)" transform="translate(0,0)"></path>
<path d="M 1128.7 984.742 L 1130.12 985.167 C 1128.14 998.675 1123.29 1013.77 1119.33 1026.98 L 1118.68 1028.08 C 1117.3 1024.61 1120.99 1011.88 1121.96 1006.21 C 1120.68 1006.27 1115.79 1018.13 1111.7 1021.32 C 1115.31 1014.09 1125.57 986.942 1128.7 984.742 z" fill="rgb(145,63,34)" transform="translate(0,0)"></path>
<path d="M 1026.78 909.016 L 1037.64 909.194 C 1043.8 912.881 1053.39 913.371 1059.88 916.053 C 1076.99 923.118 1109.45 946.656 1116.11 963.684 C 1084.57 952.057 1057.07 951.038 1025.47 961.824 C 1026.6 946.981 1026.07 924.545 1026.23 909.106 L 1026.78 909.016 z" fill="rgb(145,63,34)" transform="translate(0,0)"></path>
<path d="M 1027.34 788.529 C 1034.52 787.509 1071.09 788.16 1080.67 788.138 L 1186.47 788.271 C 1205.57 788.38 1230.74 789.237 1249.41 788.196 L 1249.24 789.071 C 1241.4 866.392 1239.29 952.22 1233.47 1030.59 C 1227.92 1105.78 1222.94 1181.02 1218.55 1256.29 C 1216.42 1290.94 1212.03 1337.67 1211.75 1370.95 L 1211.08 1371.14 L 1024.8 1370.85 C 1024.35 1349.88 1024.75 1322.87 1025.4 1301.85 C 1025.95 1294.69 1026.83 1266.48 1025.4 1260.43 L 1023.16 1259.32 L 1021.57 1259.04 C 1028.48 1256.93 1052.61 1254.6 1063.18 1252.45 C 1160.12 1225.11 1213.89 1130.42 1189.07 1032.89 C 1189.06 1032.29 1189.05 1031.68 1189.04 1031.08 C 1189.18 1027.29 1183.32 1015.26 1181.48 1011.6 C 1153.03 954.899 1101.1 916.392 1037.64 909.194 L 1026.78 909.016 C 1027.97 869.951 1026.65 828.204 1027.34 788.529 z" fill="rgb(139,90,71)" transform="translate(0,0)"></path>
<path d="M 1189.04 1031.08 C 1204.15 1072.85 1202.03 1118.92 1183.15 1159.12 C 1159.81 1209.54 1117.04 1242.76 1063.17 1255.42 C 1048.38 1257.72 1038.25 1259.34 1023.16 1259.32 L 1021.57 1259.04 C 1028.48 1256.93 1052.61 1254.6 1063.18 1252.45 C 1160.12 1225.11 1213.89 1130.42 1189.07 1032.89 C 1189.06 1032.29 1189.05 1031.68 1189.04 1031.08 z" fill="rgb(31,24,25)" transform="translate(0,0)"></path>
<path d="M 1161.4 518.825 C 1195.33 518.627 1235.71 517.997 1269.33 519.071 C 1269.27 530.041 1269.29 541.011 1269.39 551.981 L 1380.26 551.96 C 1396.85 551.961 1422.19 551.162 1438.11 552.179 L 1462.25 552.28 C 1456.69 610.062 1450.53 667.785 1443.78 725.44 L 1383.84 1275.43 L 1353.76 1580.49 C 1349.63 1620.2 1346.2 1660.34 1341.36 1699.99 C 1340.36 1708.12 1337.75 1714.15 1331.35 1719.63 C 1327.67 1722.75 1323.29 1724.93 1318.59 1726 C 1311.78 1727.57 1277.8 1727.06 1269.69 1726.21 C 1279.25 1724.97 1304.3 1725.9 1314.98 1726.06 C 1315.46 1716.7 1316.12 1707.34 1316.95 1698 C 1300.2 1698.25 1278.22 1698.89 1261.88 1697.82 C 1239.69 1697.74 1213.8 1698.46 1191.96 1697.36 C 1153.23 1695.94 1112.94 1697.94 1074.05 1697.05 C 1058.9 1696.71 1039.67 1696.49 1024.72 1697.62 C 1026.05 1677.94 1024.93 1640.7 1024.97 1619.85 L 1025.15 1469.85 L 1025.15 1406.87 C 1025.15 1398.26 1025.54 1378.97 1024.29 1371.07 L 1024.8 1370.85 L 1211.08 1371.14 L 1211.75 1370.95 C 1256.16 1371.01 1305.06 1370.12 1349.11 1371.36 C 1351.08 1367.41 1368.59 1186.57 1370.84 1166.38 C 1379.46 1088.91 1389.21 1004.89 1398.09 926.506 C 1403.15 881.77 1406.6 834.518 1413.04 789.177 L 1249.24 789.071 L 1249.41 788.196 C 1230.74 789.237 1205.57 788.38 1186.47 788.271 L 1080.67 788.138 C 1071.09 788.16 1034.52 787.509 1027.34 788.529 C 1022.04 789.114 1017.8 788.853 1012.49 788.701 C 1016.51 788.224 1023.05 788.306 1027.27 788.229 L 1026.69 601.682 L 1026.88 600.781 C 1026.92 589.734 1027.62 562.075 1026.27 552.065 L 1026.8 551.927 L 1027.02 518.881 C 1063.46 519.787 1100.24 518.743 1136.7 519.272 C 1144.84 519.39 1153.3 519.377 1161.4 518.825 z" fill="rgb(93,50,35)" transform="translate(0,0)"></path>
<path d="M 1024.8 1370.85 L 1211.08 1371.14 C 1210.51 1400.03 1207.38 1430.87 1206.16 1460 C 1202.86 1538.79 1195.6 1618.78 1191.96 1697.36 C 1153.23 1695.94 1112.94 1697.94 1074.05 1697.05 C 1058.9 1696.71 1039.67 1696.49 1024.72 1697.62 C 1026.05 1677.94 1024.93 1640.7 1024.97 1619.85 L 1025.15 1469.85 L 1025.15 1406.87 C 1025.15 1398.26 1025.54 1378.97 1024.29 1371.07 L 1024.8 1370.85 z" fill="rgb(233,177,115)" transform="translate(0,0)"></path>
<path d="M 1026.88 600.781 C 1072.4 598.683 1124.45 599.902 1170.64 599.366 L 1228.64 598.501 C 1238.61 598.324 1253.55 597.614 1263.15 598.411 C 1262.69 613.684 1261.03 630.038 1259.57 645.305 C 1255.08 692.56 1254.51 741.077 1249.41 788.196 C 1230.74 789.237 1205.57 788.38 1186.47 788.271 L 1080.67 788.138 C 1071.09 788.16 1034.52 787.509 1027.34 788.529 C 1022.04 789.114 1017.8 788.853 1012.49 788.701 C 1016.51 788.224 1023.05 788.306 1027.27 788.229 L 1026.69 601.682 L 1026.88 600.781 z" fill="rgb(233,177,115)" transform="translate(0,0)"></path>
<path d="M 1211.75 1370.95 C 1256.16 1371.01 1305.06 1370.12 1349.11 1371.36 C 1343.2 1417.76 1339.27 1467.43 1334.74 1514.09 L 1315.97 1697.15 C 1302.37 1697.26 1274.32 1696.58 1261.88 1697.82 C 1239.69 1697.74 1213.8 1698.46 1191.96 1697.36 C 1195.6 1618.78 1202.86 1538.79 1206.16 1460 C 1207.38 1430.87 1210.51 1400.03 1211.08 1371.14 L 1211.75 1370.95 z" fill="rgb(169,117,82)" transform="translate(0,0)"></path>
<path d="M 1161.4 518.825 C 1195.33 518.627 1235.71 517.997 1269.33 519.071 C 1269.27 530.041 1269.29 541.011 1269.39 551.981 L 1380.26 551.96 C 1396.85 551.961 1422.19 551.162 1438.11 552.179 C 1437.29 568.76 1434.56 588.811 1432.72 605.539 L 1424.29 682.8 C 1391.33 663.715 1354.37 646.083 1320.81 627.374 C 1310.38 621.555 1272.85 601.482 1263.15 598.411 C 1253.55 597.614 1238.61 598.324 1228.64 598.501 L 1170.64 599.366 C 1124.45 599.902 1072.4 598.683 1026.88 600.781 C 1026.92 589.734 1027.62 562.075 1026.27 552.065 L 1026.8 551.927 L 1027.02 518.881 C 1063.46 519.787 1100.24 518.743 1136.7 519.272 C 1144.84 519.39 1153.3 519.377 1161.4 518.825 z" fill="rgb(169,117,82)" transform="translate(0,0)"></path>
<path d="M 1161.4 518.825 C 1195.33 518.627 1235.71 517.997 1269.33 519.071 C 1269.27 530.041 1269.29 541.011 1269.39 551.981 C 1189.7 550.632 1106.88 552.169 1026.8 551.927 L 1027.02 518.881 C 1063.46 519.787 1100.24 518.743 1136.7 519.272 C 1144.84 519.39 1153.3 519.377 1161.4 518.825 z" fill="rgb(35,55,70)" transform="translate(0,0)"></path>
<path d="M 1263.15 598.411 C 1272.85 601.482 1310.38 621.555 1320.81 627.374 C 1354.37 646.083 1391.33 663.715 1424.29 682.8 C 1420.2 717.893 1416.31 753.006 1412.59 788.138 C 1359.14 788.081 1302.59 787.081 1249.41 788.196 C 1254.51 741.077 1255.08 692.56 1259.57 645.305 C 1261.03 630.038 1262.69 613.684 1263.15 598.411 z" fill="rgb(190,136,107)" transform="translate(0,0)"></path>
<path d="M 1657.79 2048 C 1658.63 2046.74 1659.02 2046.15 1660.5 2045.61 C 1667.01 2043.23 1680.46 2045.05 1687.56 2045.04 C 1705.91 2045.02 1798.65 2045.79 1806.56 2041.95 C 1808.11 2041.2 1807.82 2040.49 1808.21 2038.97 C 1806.48 2031.2 1787.44 2005.3 1780.28 1999.9 C 1779.66 1999.43 1775.42 1996.43 1774.4 1995.68 L 1774.61 1993.9 C 1794.49 1988.14 1777.44 1961.7 1780.87 1950.03 C 1781.51 1947.86 1795.14 1926.95 1796.86 1925.54 C 1808.67 1915.9 1822.88 1900.09 1836.66 1894.57 L 1838.46 1893.86 C 1844.56 1891.39 1852.32 1892.97 1858.83 1894.37 C 1860.28 1896.77 1860.19 1896.97 1862.36 1898.66 C 1865.17 1895.32 1862.13 1895.96 1866.02 1893.45 C 1868.14 1894.67 1867.32 1894.39 1869.74 1894.86 C 1877.91 1886.89 1882.58 1887.56 1893.38 1884.71 C 1894.04 1882.42 1893.89 1882.48 1895.47 1880.74 C 1904.04 1882.92 1906.31 1877.98 1912.26 1871.9 C 1920.07 1863.92 1917.43 1865.94 1927.65 1863.07 L 1928.75 1860.68 C 1928.23 1856.88 1927 1854.55 1930.49 1852.62 C 1932.53 1853.87 1932.64 1853.95 1934.9 1854.7 C 1938.58 1852.74 1952.2 1846.23 1951.99 1842.43 C 1951.33 1830.83 1955.12 1831.98 1959.04 1824.09 C 1963.26 1815.61 1962.54 1803.05 1972.36 1797.32 C 1976.19 1795.09 1970.01 1791.53 1971.29 1786.19 L 1973.71 1786.69 C 1974.67 1783.78 1972.27 1778.83 1971.15 1775.52 L 1972.96 1773.48 L 1972.58 1771.7 C 1970.15 1769.62 1970 1769.75 1968.57 1766.96 C 1968.61 1761.48 1973.23 1756.02 1975.65 1751.09 C 1991.31 1718.99 2015.85 1694.1 2035.77 1664.92 C 2036.79 1663.43 2047.31 1648.99 2048 1648.53 L 2048 2048 L 1657.79 2048 z" fill="rgb(242,242,242)" transform="translate(0,0)"></path>
<path d="M 1191.96 1697.36 C 1213.8 1698.46 1239.69 1697.74 1261.88 1697.82 C 1278.22 1698.89 1300.2 1698.25 1316.95 1698 C 1316.12 1707.34 1315.46 1716.7 1314.98 1726.06 C 1304.3 1725.9 1279.25 1724.97 1269.69 1726.21 C 1244.6 1727.05 1216.18 1726.18 1190.62 1726.2 L 1024.13 1726.21 C 1024.05 1716.68 1024.25 1707.14 1024.72 1697.62 C 1039.67 1696.49 1058.9 1696.71 1074.05 1697.05 C 1112.94 1697.94 1153.23 1695.94 1191.96 1697.36 z" fill="rgb(71,44,36)" transform="translate(0,0)"></path>
<path d="M 591.089 595.415 C 598.163 598.4 609.628 604.176 616.836 604.136 L 617.022 604.701 C 621.096 646.696 625.546 688.654 630.373 730.569 C 632.36 748.229 634.175 771.801 636.732 788.967 C 671.728 789.018 708.25 788.5 743.085 789.155 L 743.713 788.963 C 777.344 789.794 813.492 788.995 847.303 788.947 C 902.366 789.157 957.43 789.075 1012.49 788.701 C 1017.8 788.853 1022.04 789.114 1027.34 788.529 C 1026.65 828.204 1027.97 869.951 1026.78 909.016 L 1026.23 909.106 C 1026.07 924.545 1026.6 946.981 1025.47 961.824 C 944.356 986.698 890.186 1084.88 910.32 1167.99 C 913.138 1179.63 921.216 1189.03 930.912 1195.75 C 941.083 1202.85 947.496 1204.78 959.004 1209 C 947.12 1215.36 927.9 1220.7 914.389 1221.65 C 936.344 1244.42 990.071 1261.67 1021.57 1259.04 L 1023.16 1259.32 L 1025.4 1260.43 C 1026.83 1266.48 1025.95 1294.69 1025.4 1301.85 C 1024.75 1322.87 1024.35 1349.88 1024.8 1370.85 L 1024.29 1371.07 C 1025.54 1378.97 1025.15 1398.26 1025.15 1406.87 L 1025.15 1469.85 L 1024.97 1619.85 C 1024.93 1640.7 1026.05 1677.94 1024.72 1697.62 C 1024.25 1707.14 1024.05 1716.68 1024.13 1726.21 C 929.113 1726.42 834.1 1726.09 739.09 1725.22 C 703.878 1725.02 706.429 1680.11 703.76 1654.53 L 694.436 1562.36 L 662.312 1258.27 L 628.543 938.845 C 617.557 850.25 607.83 761.503 599.365 672.632 C 596.843 647.297 593.026 620.509 591.089 595.415 z" fill="rgb(169,117,82)" transform="translate(0,0)"></path>
<path d="M 743.713 788.963 C 777.344 789.794 813.492 788.995 847.303 788.947 C 902.366 789.157 957.43 789.075 1012.49 788.701 C 1017.8 788.853 1022.04 789.114 1027.34 788.529 C 1026.65 828.204 1027.97 869.951 1026.78 909.016 L 1026.23 909.106 C 1026.07 924.545 1026.6 946.981 1025.47 961.824 C 944.356 986.698 890.186 1084.88 910.32 1167.99 C 913.138 1179.63 921.216 1189.03 930.912 1195.75 C 941.083 1202.85 947.496 1204.78 959.004 1209 C 947.12 1215.36 927.9 1220.7 914.389 1221.65 C 936.344 1244.42 990.071 1261.67 1021.57 1259.04 L 1023.16 1259.32 L 1025.4 1260.43 C 1026.83 1266.48 1025.95 1294.69 1025.4 1301.85 C 1024.75 1322.87 1024.35 1349.88 1024.8 1370.85 L 1024.29 1371.07 C 952.196 1369.68 874.111 1369.97 801.921 1370.2 L 801.329 1369.96 C 801.968 1365.64 797.392 1324.95 796.748 1318.59 L 786.523 1212.89 L 755.523 894.34 C 753.03 870.51 750.411 846.693 747.665 822.89 C 746.842 815.6 745.075 794.485 743.085 789.155 L 743.713 788.963 z" fill="rgb(190,136,107)" transform="translate(0,0)"></path>
<path d="M 894.956 1208.46 C 864.051 1174.54 845.153 1136.92 844.945 1090.66 C 844.46 982.913 921.776 910.913 1026.23 909.106 C 1026.07 924.545 1026.6 946.981 1025.47 961.824 C 944.356 986.698 890.186 1084.88 910.32 1167.99 C 913.138 1179.63 921.216 1189.03 930.912 1195.75 C 941.083 1202.85 947.496 1204.78 959.004 1209 C 947.12 1215.36 927.9 1220.7 914.389 1221.65 C 908.109 1217.25 901.48 1212.41 894.956 1208.46 z" fill="rgb(212,111,56)" transform="translate(0,0)"></path>
<path d="M 894.956 1208.46 C 901.48 1212.41 908.109 1217.25 914.389 1221.65 C 936.344 1244.42 990.071 1261.67 1021.57 1259.04 L 1023.16 1259.32 L 1025.4 1260.43 C 1026.83 1266.48 1025.95 1294.69 1025.4 1301.85 C 979.401 1279.63 925.584 1251.12 894.956 1208.46 z" fill="rgb(109,101,106)" transform="translate(0,0)"></path>
<path d="M 801.921 1370.2 C 874.111 1369.97 952.196 1369.68 1024.29 1371.07 C 1025.54 1378.97 1025.15 1398.26 1025.15 1406.87 L 1025.15 1469.85 L 1024.97 1619.85 C 1024.93 1640.7 1026.05 1677.94 1024.72 1697.62 C 1008.47 1699.14 977.083 1697.89 959.484 1697.82 C 915.993 1697.58 872.501 1697.6 829.011 1697.9 C 827.159 1687.19 826.453 1663.91 825.425 1651.51 L 816.052 1531.71 L 805.29 1416.49 C 804.294 1404.65 801.498 1381.14 801.921 1370.2 z" fill="rgb(253,227,192)" transform="translate(0,0)"></path>
<path d="M 636.732 788.967 C 671.728 789.018 708.25 788.5 743.085 789.155 C 745.075 794.485 746.842 815.6 747.665 822.89 C 750.411 846.693 753.03 870.51 755.523 894.34 L 786.523 1212.89 L 796.748 1318.59 C 797.392 1324.95 801.968 1365.64 801.329 1369.96 C 768.586 1370.76 733.148 1370.09 700.131 1370.13 C 697.428 1365.45 693.064 1308.43 691.924 1298.36 C 678.194 1177.11 666.17 1055.63 653.204 934.309 C 649.736 902.909 646.092 871.528 642.273 840.168 C 640.356 823.861 637.735 805.177 636.732 788.967 z" fill="rgb(139,90,71)" transform="translate(0,0)"></path>
<path d="M 801.329 1369.96 L 801.921 1370.2 C 801.498 1381.14 804.294 1404.65 805.29 1416.49 L 816.052 1531.71 L 825.425 1651.51 C 826.453 1663.91 827.159 1687.19 829.011 1697.9 C 797.798 1697.67 766.584 1698.03 735.385 1698.98 L 714.602 1505 C 710.108 1462.19 706.035 1412.43 700.131 1370.13 C 733.148 1370.09 768.586 1370.76 801.329 1369.96 z" fill="rgb(254,213,157)" transform="translate(0,0)"></path>
<path d="M 549.43 551.83 C 529.141 536.695 541.666 493.064 538.728 470.379 C 536.846 455.848 542.053 433.627 560.116 431.854 C 581.475 429.757 606.13 431.035 628.354 431.198 C 637.635 431.273 647.42 431.514 656.656 431.268 C 690.593 431.061 726.348 431.933 760.034 431.119 L 1027.87 431.11 L 1028.71 431.327 C 1027.47 439.251 1029.15 449.843 1028.16 458.937 C 1028.11 478.245 1028.45 498.877 1028.02 518.016 L 1116.07 518.256 C 1126.3 518.291 1152.33 517.829 1161.4 518.825 C 1153.3 519.377 1144.84 519.39 1136.7 519.272 C 1100.24 518.743 1063.46 519.787 1027.02 518.881 L 1026.8 551.927 L 1026.27 552.065 C 1027.62 562.075 1026.92 589.734 1026.88 600.781 L 1026.69 601.682 L 1027.27 788.229 C 1023.05 788.306 1016.51 788.224 1012.49 788.701 C 957.43 789.075 902.366 789.157 847.303 788.947 C 813.492 788.995 777.344 789.794 743.713 788.963 L 743.085 789.155 C 708.25 788.5 671.728 789.018 636.732 788.967 C 634.175 771.801 632.36 748.229 630.373 730.569 C 625.546 688.654 621.096 646.696 617.022 604.701 L 616.836 604.136 C 609.628 604.176 598.163 598.4 591.089 595.415 L 590.316 591.989 C 589.641 580.184 587.532 564.658 586.244 552.625 C 574.673 552.943 560.827 553.344 549.43 551.83 z" fill="rgb(62,81,96)" transform="translate(0,0)"></path>
<path d="M 724.931 603.287 C 742.774 602.277 768.344 603.061 786.648 603.05 L 910.001 602.745 L 993.26 601.442 C 999.514 601.356 1021.99 600.649 1026.69 601.682 L 1027.27 788.229 C 1023.05 788.306 1016.51 788.224 1012.49 788.701 C 957.43 789.075 902.366 789.157 847.303 788.947 C 813.492 788.995 777.344 789.794 743.713 788.963 L 743.085 789.155 C 708.25 788.5 671.728 789.018 636.732 788.967 C 634.175 771.801 632.36 748.229 630.373 730.569 C 625.546 688.654 621.096 646.696 617.022 604.701 C 622.349 603.668 649.663 603.87 656.939 603.837 C 673.199 604.365 709.357 604.676 724.931 603.287 z" fill="rgb(253,227,192)" transform="translate(0,0)"></path>
<path d="M 656.939 603.837 C 673.199 604.365 709.357 604.676 724.931 603.287 C 729.366 659.586 736.933 715.757 741.648 772.052 C 742.053 776.895 742.6 784.343 743.713 788.963 L 743.085 789.155 C 708.25 788.5 671.728 789.018 636.732 788.967 C 634.175 771.801 632.36 748.229 630.373 730.569 C 625.546 688.654 621.096 646.696 617.022 604.701 C 622.349 603.668 649.663 603.87 656.939 603.837 z" fill="rgb(254,213,157)" transform="translate(0,0)"></path>
<path d="M 568.466 517.729 C 567.622 506.42 564.76 466.938 571.763 462.268 C 581.675 455.659 638.312 458.044 650.104 458.046 L 782.939 458.623 L 943.614 458.685 C 971.303 458.679 1000.58 458.212 1028.16 458.937 C 1028.11 478.245 1028.45 498.877 1028.02 518.016 L 568.466 517.729 z" fill="rgb(188,199,205)" transform="translate(0,0)"></path>
<path d="M 719.738 551.981 L 923.344 551.963 C 952.922 551.943 998.495 550.478 1026.27 552.065 C 1027.62 562.075 1026.92 589.734 1026.88 600.781 L 1026.69 601.682 C 1021.99 600.649 999.514 601.356 993.26 601.442 L 910.001 602.745 L 786.648 603.05 C 768.344 603.061 742.774 602.277 724.931 603.287 C 709.357 604.676 673.199 604.365 656.939 603.837 C 668.543 602.154 711.348 602.944 724.859 602.92 C 722.805 586.801 721.349 568.258 719.738 551.981 z" fill="rgb(233,177,115)" transform="translate(0,0)"></path>
<path d="M 586.244 552.625 C 591.139 551.567 606.078 551.981 611.935 552.054 L 719.738 551.981 C 721.349 568.258 722.805 586.801 724.859 602.92 C 711.348 602.944 668.543 602.154 656.939 603.837 C 649.663 603.87 622.349 603.668 617.022 604.701 L 616.836 604.136 C 609.628 604.176 598.163 598.4 591.089 595.415 L 590.316 591.989 C 589.641 580.184 587.532 564.658 586.244 552.625 z" fill="rgb(190,136,107)" transform="translate(0,0)"></path>
<path d="M 586.244 552.625 C 591.139 551.567 606.078 551.981 611.935 552.054 C 613.09 569.34 615.65 586.694 616.836 604.136 C 609.628 604.176 598.163 598.4 591.089 595.415 L 590.316 591.989 C 589.641 580.184 587.532 564.658 586.244 552.625 z" fill="rgb(109,101,106)" transform="translate(0,0)"></path>
<path d="M 1226.28 431.48 C 1242.71 431.508 1261.57 431.98 1277.81 431.344 L 1396.59 432.025 L 1418.83 432.305 C 1439.48 431.338 1465.5 431.767 1486.35 432.082 C 1495.51 437.521 1499.83 441.481 1507.18 449.264 C 1513.74 470.699 1510.3 500.857 1510.94 523.638 C 1511.91 558.57 1485.81 550.994 1462.25 552.28 L 1438.11 552.179 C 1422.19 551.162 1396.85 551.961 1380.26 551.96 L 1269.39 551.981 C 1269.29 541.011 1269.27 530.041 1269.33 519.071 C 1235.71 517.997 1195.33 518.627 1161.4 518.825 C 1152.33 517.829 1126.3 518.291 1116.07 518.256 L 1028.02 518.016 C 1028.45 498.877 1028.11 478.245 1028.16 458.937 C 1029.15 449.843 1027.47 439.251 1028.71 431.327 C 1068.98 432.618 1113.46 431.752 1154 431.714 L 1203.36 431.584 C 1208.87 431.563 1221.2 431.907 1226.28 431.48 z" fill="rgb(28,42,56)" transform="translate(0,0)"></path>
<path d="M 1226.28 431.48 C 1242.71 431.508 1261.57 431.98 1277.81 431.344 L 1277.59 458.49 C 1316.73 457.393 1357.88 458.945 1397.37 458.221 C 1409.47 457.999 1465.47 457.041 1473.51 458.397 C 1454.34 459.721 1425.96 458.922 1406.02 458.957 L 1277.32 459.045 C 1277 478.969 1276.87 498.896 1276.94 518.822 L 1269.33 519.071 C 1235.71 517.997 1195.33 518.627 1161.4 518.825 C 1152.33 517.829 1126.3 518.291 1116.07 518.256 L 1028.02 518.016 C 1028.45 498.877 1028.11 478.245 1028.16 458.937 C 1029.15 449.843 1027.47 439.251 1028.71 431.327 C 1068.98 432.618 1113.46 431.752 1154 431.714 L 1203.36 431.584 C 1208.87 431.563 1221.2 431.907 1226.28 431.48 z" fill="rgb(127,144,153)" transform="translate(0,0)"></path>
<path d="M 1226.28 431.48 C 1242.71 431.508 1261.57 431.98 1277.81 431.344 L 1277.59 458.49 C 1316.73 457.393 1357.88 458.945 1397.37 458.221 C 1409.47 457.999 1465.47 457.041 1473.51 458.397 C 1454.34 459.721 1425.96 458.922 1406.02 458.957 L 1277.32 459.045 C 1249.89 458.348 1220.24 458.912 1192.68 458.929 L 1028.16 458.937 C 1029.15 449.843 1027.47 439.251 1028.71 431.327 C 1068.98 432.618 1113.46 431.752 1154 431.714 L 1203.36 431.584 C 1208.87 431.563 1221.2 431.907 1226.28 431.48 z" fill="rgb(35,55,70)" transform="translate(0,0)"></path>
<path d="M 1277.32 459.045 L 1406.02 458.957 C 1425.96 458.922 1454.34 459.721 1473.51 458.397 C 1477.22 460.637 1479.82 463.041 1480.36 467.575 C 1482.18 483.167 1481.22 502.726 1481.02 518.522 C 1434.64 518.967 1387.92 517.785 1341.51 518.206 C 1320.62 518.396 1297.68 517.667 1276.94 518.822 C 1276.87 498.896 1277 478.969 1277.32 459.045 z" fill="rgb(62,81,96)" transform="translate(0,0)"></path>
<path d="M 787.541 350.947 C 808.431 349.132 848.786 350.752 870.981 350.841 L 1027.11 351.035 C 1027.33 377.627 1026.68 404.609 1027.87 431.11 L 760.034 431.119 C 759.949 428.483 759.94 425.845 760.007 423.208 C 760.614 395.258 766.996 370.629 787.541 350.947 z" fill="rgb(190,136,107)" transform="translate(0,0)"></path>
<path d="M 628.354 431.198 C 628.536 421.424 628.772 411.82 629.331 402.148 C 631.793 359.576 665.611 324.195 708.881 323.246 C 727.598 322.836 746.137 322.657 764.85 322.638 L 886.768 322.776 C 920.548 322.872 954.327 322.784 988.106 322.513 C 1005.72 322.378 1032.6 321.387 1049.51 322.854 C 1041.81 323.411 1035.39 323.335 1027.65 323.247 L 1027.25 343.178 C 1027.13 346.028 1026.99 348.165 1027.11 351.035 L 870.981 350.841 C 848.786 350.752 808.431 349.132 787.541 350.947 C 766.996 370.629 760.614 395.258 760.007 423.208 C 759.94 425.845 759.949 428.483 760.034 431.119 C 726.348 431.933 690.593 431.061 656.656 431.268 C 647.42 431.514 637.635 431.273 628.354 431.198 z" fill="rgb(139,90,71)" transform="translate(0,0)"></path>
<path d="M 656.656 431.268 L 656.524 425.527 C 656.158 404.593 656.461 383.744 672.494 367.882 C 692.71 347.882 719.052 350.933 745.094 351.028 L 787.541 350.947 C 766.996 370.629 760.614 395.258 760.007 423.208 C 759.94 425.845 759.949 428.483 760.034 431.119 C 726.348 431.933 690.593 431.061 656.656 431.268 z" fill="rgb(169,117,82)" transform="translate(0,0)"></path>
<path d="M 1027.25 343.178 L 1027.89 349.929 C 1033.41 354.324 1171.23 350.57 1188.49 351.754 C 1194.81 352.188 1210.65 350.505 1217.55 352.552 C 1229.31 377.507 1235.22 404.368 1226.28 431.48 C 1221.2 431.907 1208.87 431.563 1203.36 431.584 L 1154 431.714 C 1113.46 431.752 1068.98 432.618 1028.71 431.327 L 1027.87 431.11 C 1026.68 404.609 1027.33 377.627 1027.11 351.035 C 1026.99 348.165 1027.13 346.028 1027.25 343.178 z" fill="rgb(139,90,71)" transform="translate(0,0)"></path>
<path d="M 1306.02 351.374 C 1331.29 349.997 1356.84 348.801 1376.72 366.989 C 1396.67 385.237 1398.01 407.04 1396.59 432.025 L 1277.81 431.344 C 1261.57 431.98 1242.71 431.508 1226.28 431.48 C 1235.22 404.368 1229.31 377.507 1217.55 352.552 C 1225.79 353.798 1298.3 352.956 1306.02 351.374 z" fill="rgb(93,50,35)" transform="translate(0,0)"></path>
<path d="M 1049.51 322.854 L 1225.48 323.062 C 1255.92 323.072 1293.92 321.991 1323.47 323.149 C 1317.86 323.9 1314.84 324.132 1309.17 324.329 C 1307.08 333.791 1305.68 341.598 1306.02 351.374 C 1298.3 352.956 1225.79 353.798 1217.55 352.552 C 1210.65 350.505 1194.81 352.188 1188.49 351.754 C 1171.23 350.57 1033.41 354.324 1027.89 349.929 L 1027.25 343.178 L 1027.65 323.247 C 1035.39 323.335 1041.81 323.411 1049.51 322.854 z" fill="rgb(71,44,36)" transform="translate(0,0)"></path>
<path d="M 1323.47 323.149 C 1353.8 322.35 1373.98 328.001 1397.35 349.032 C 1417.29 374.54 1423.72 392.652 1419.76 425.242 C 1419.48 427.6 1419.17 429.955 1418.83 432.305 L 1396.59 432.025 C 1398.01 407.04 1396.67 385.237 1376.72 366.989 C 1356.84 348.801 1331.29 349.997 1306.02 351.374 C 1305.68 341.598 1307.08 333.791 1309.17 324.329 C 1314.84 324.132 1317.86 323.9 1323.47 323.149 z" fill="rgb(71,44,36)" transform="translate(0,0)"></path>
<path d="M 1397.35 349.032 C 1407.59 353.302 1471.95 419.084 1486.35 432.082 C 1465.5 431.767 1439.48 431.338 1418.83 432.305 C 1419.17 429.955 1419.48 427.6 1419.76 425.242 C 1423.72 392.652 1417.29 374.54 1397.35 349.032 z" fill="rgb(127,144,153)" transform="translate(0,0)"></path>
<path d="M 549.43 551.83 C 560.827 553.344 574.673 552.943 586.244 552.625 C 587.532 564.658 589.641 580.184 590.316 591.989 C 575.536 578.361 562.711 566.9 549.43 551.83 z" fill="rgb(127,144,153)" transform="translate(0,0)"></path>
<metadata><recraft-signature>{"signed_by": "recraft", "signature_b64": "evWR/vaky6K6TGGh5W3MjjUrd4EFmxeh97QCYeCRD3ELogIB+teOiBuiqiKh/7+hJFzE58C2mNrUfwLYSpLjBw==", "signing_algo": "Ed25519", "generation_timestamp": 1783513069, "identifier": "010d61c6-49f3-4eba-9ee6-1f281abcfa88"}</recraft-signature></metadata></svg>