<svg xmlns="http://www.w3.org/2000/svg" height="1024" preserveAspectRatio="none" style="display: block;" version="1.1" viewBox="0 0 2048 2048" width="1024">
<defs>
	<linearGradient gradientUnits="userSpaceOnUse" id="Gradient1" x1="717.722" x2="746.347" y1="1602.74" y2="1882.72">
		<stop class="stop0" offset="0" stop-color="rgb(139,66,44)" stop-opacity="1"></stop>
		<stop class="stop1" offset="1" stop-color="rgb(109,55,51)" stop-opacity="1"></stop>
	</linearGradient>
	<linearGradient gradientUnits="userSpaceOnUse" id="Gradient2" x1="843.621" x2="710.687" y1="1872.46" y2="1530.48">
		<stop class="stop0" offset="0" stop-color="rgb(162,100,48)" stop-opacity="1"></stop>
		<stop class="stop1" offset="1" stop-color="rgb(191,118,50)" stop-opacity="1"></stop>
	</linearGradient>
	<linearGradient gradientUnits="userSpaceOnUse" id="Gradient3" x1="1017.01" x2="380.268" y1="528.888" y2="302.814">
		<stop class="stop0" offset="0" stop-color="rgb(196,123,49)" stop-opacity="1"></stop>
		<stop class="stop1" offset="1" stop-color="rgb(255,227,80)" stop-opacity="1"></stop>
	</linearGradient>
	<linearGradient gradientUnits="userSpaceOnUse" id="Gradient4" x1="642.462" x2="478.328" y1="615.193" y2="447.757">
		<stop class="stop0" offset="0" stop-color="rgb(232,172,71)" stop-opacity="1"></stop>
		<stop class="stop1" offset="1" stop-color="rgb(252,232,114)" stop-opacity="1"></stop>
	</linearGradient>
	<linearGradient gradientUnits="userSpaceOnUse" id="Gradient5" x1="1316.45" x2="561.904" y1="1383.46" y2="456.404">
		<stop class="stop0" offset="0" stop-color="rgb(246,157,22)" stop-opacity="1"></stop>
		<stop class="stop1" offset="1" stop-color="rgb(255,245,118)" stop-opacity="1"></stop>
	</linearGradient>
	<linearGradient gradientUnits="userSpaceOnUse" id="Gradient6" x1="1608.05" x2="1644.95" y1="716.815" y2="688.185">
		<stop class="stop0" offset="0" stop-color="rgb(130,52,33)" stop-opacity="1"></stop>
		<stop class="stop1" offset="1" stop-color="rgb(152,84,34)" stop-opacity="1"></stop>
	</linearGradient>
	<linearGradient gradientUnits="userSpaceOnUse" id="Gradient7" x1="1643.66" x2="1191.74" y1="1418.03" y2="1047.26">
		<stop class="stop0" offset="0" stop-color="rgb(205,94,28)" stop-opacity="1"></stop>
		<stop class="stop1" offset="1" stop-color="rgb(252,170,21)" stop-opacity="1"></stop>
	</linearGradient>
	<linearGradient gradientUnits="userSpaceOnUse" id="Gradient8" x1="1441.85" x2="1142.03" y1="1316.67" y2="1326.12">
		<stop class="stop0" offset="0" stop-color="rgb(142,44,23)" stop-opacity="1"></stop>
		<stop class="stop1" offset="1" stop-color="rgb(191,139,36)" stop-opacity="1"></stop>
	</linearGradient>
	<linearGradient gradientUnits="userSpaceOnUse" id="Gradient9" x1="818.691" x2="996.582" y1="1203.12" y2="1304.24">
		<stop class="stop0" offset="0" stop-color="rgb(234,156,26)" stop-opacity="1"></stop>
		<stop class="stop1" offset="1" stop-color="rgb(249,223,45)" stop-opacity="1"></stop>
	</linearGradient>
	<linearGradient gradientUnits="userSpaceOnUse" id="Gradient10" x1="590.227" x2="1059.77" y1="1277.23" y2="1421.89">
		<stop class="stop0" offset="0" stop-color="rgb(224,127,17)" stop-opacity="1"></stop>
		<stop class="stop1" offset="1" stop-color="rgb(255,255,108)" stop-opacity="1"></stop>
	</linearGradient>
	<linearGradient gradientUnits="userSpaceOnUse" id="Gradient11" x1="941.744" x2="1066.54" y1="1048.02" y2="1248.24">
		<stop class="stop0" offset="0" stop-color="rgb(244,181,33)" stop-opacity="1"></stop>
		<stop class="stop1" offset="1" stop-color="rgb(255,245,87)" stop-opacity="1"></stop>
	</linearGradient>
	<linearGradient gradientUnits="userSpaceOnUse" id="Gradient12" x1="1044.05" x2="1114.58" y1="727.83" y2="960.443">
		<stop class="stop0" offset="0" stop-color="rgb(238,150,17)" stop-opacity="1"></stop>
		<stop class="stop1" offset="1" stop-color="rgb(249,178,33)" stop-opacity="1"></stop>
	</linearGradient>
	<linearGradient gradientUnits="userSpaceOnUse" id="Gradient13" x1="840.802" x2="1010.6" y1="731.95" y2="1150.3">
		<stop class="stop0" offset="0" stop-color="rgb(200,83,17)" stop-opacity="1"></stop>
		<stop class="stop1" offset="1" stop-color="rgb(243,165,36)" stop-opacity="1"></stop>
	</linearGradient>
	<linearGradient gradientUnits="userSpaceOnUse" id="Gradient14" x1="880.822" x2="1019.15" y1="803.992" y2="1062.31">
		<stop class="stop0" offset="0" stop-color="rgb(249,181,33)" stop-opacity="1"></stop>
		<stop class="stop1" offset="1" stop-color="rgb(255,225,53)" stop-opacity="1"></stop>
	</linearGradient>
	<linearGradient gradientUnits="userSpaceOnUse" id="Gradient15" x1="690.361" x2="600.566" y1="1137.28" y2="818.316">
		<stop class="stop0" offset="0" stop-color="rgb(254,211,68)" stop-opacity="1"></stop>
		<stop class="stop1" offset="1" stop-color="rgb(255,248,164)" stop-opacity="1"></stop>
	</linearGradient>
	<linearGradient gradientUnits="userSpaceOnUse" id="Gradient16" x1="701.414" x2="987.352" y1="868.375" y2="491.246">
		<stop class="stop0" offset="0" stop-color="rgb(255,216,43)" stop-opacity="1"></stop>
		<stop class="stop1" offset="1" stop-color="rgb(255,255,245)" stop-opacity="1"></stop>
	</linearGradient>
	<linearGradient gradientUnits="userSpaceOnUse" id="Gradient17" x1="1468.53" x2="1037.73" y1="1558.12" y2="1008.84">
		<stop class="stop0" offset="0" stop-color="rgb(129,59,38)" stop-opacity="1"></stop>
		<stop class="stop1" offset="1" stop-color="rgb(221,136,37)" stop-opacity="1"></stop>
	</linearGradient>
</defs>
<path d="M 0 0 L 2048 0 L 2048 2048 L 0 2048 L 0 0 z" fill="rgb(251,251,246)" transform="translate(0,0)"></path>
<path d="M 872.786 180.893 C 955.585 163.237 1056.73 162.812 1140.25 175.431 C 1297.49 195.034 1455.82 271.461 1576.17 373.748 C 1609.33 401.935 1643.89 438.925 1672.45 471.737 L 1674.58 474.857 C 1821.97 647.295 1894.09 871.621 1874.81 1097.65 C 1873.13 1115.54 1871.01 1133.38 1868.45 1151.16 C 1867.62 1157.21 1865.16 1172.04 1865.05 1176.95 C 1862.39 1189.01 1860.61 1202.8 1857.59 1214.35 C 1855.42 1224.58 1848.16 1249.38 1847.21 1256.42 C 1845.43 1262.07 1836.85 1288.18 1836.23 1292.92 C 1836.76 1305.47 1830.07 1323.15 1830.84 1327.31 L 1832.35 1327.59 C 1834.07 1326.02 1835.07 1324.93 1836.63 1323.19 C 1837.09 1333.9 1816.69 1381.14 1811.9 1395.92 C 1779.62 1495.62 1727.86 1599.08 1654.92 1675.34 C 1637.98 1693.05 1621.42 1710.62 1604.22 1727.72 C 1377.51 1953.16 999.706 2035.46 707.183 1897.19 C 671.877 1880.5 631.811 1866.22 598.88 1843.98 C 517.284 1788.84 434.795 1724.67 375.901 1644.86 C 371.419 1640.69 366.792 1631.85 362.954 1627.84 C 314.46 1577.22 297.817 1524.6 271.919 1462.46 L 251.189 1412.35 C 242.666 1391.72 238.144 1380.55 233.98 1358.08 C 231.756 1346.08 216.575 1322.72 217.635 1309.59 C 217.139 1305.76 205.144 1271.98 203.166 1264.19 C 192.709 1222.96 182.584 1180.47 178.372 1138.09 C 175.282 1116.75 173.537 1094.22 171.917 1072.73 C 169.637 1064.11 170.072 1019.05 170.132 1008.85 C 170.746 903.738 193.704 798.157 233.87 701.188 C 239.734 687.031 248.803 665.827 256.23 652.903 C 268.98 621.932 301.806 572.688 321.338 543.694 C 449.299 353.941 647.881 223.293 872.786 180.893 z" fill="rgb(99,44,44)" transform="translate(0,0)"></path>
<path d="M 326.919 1039.91 C 327.628 1035.65 327.471 1016.73 327.651 1011.14 C 328.268 994.302 329.529 977.493 331.432 960.75 C 337.688 907.221 351.077 854.769 371.244 804.791 C 387.179 765.969 408.038 723.202 429.805 687.142 C 436.07 676.763 443.079 666.381 449.769 656.223 C 535.788 524.36 664.293 425.856 813.976 377.046 C 819.606 375.177 826.019 374.637 831.201 372.93 C 960.288 330.397 1098.59 334.079 1227.98 373.386 C 1275.99 387.969 1309.41 401.671 1353.82 425.309 C 1362.53 429.63 1414.03 461.689 1419.87 467.348 C 1469.09 498.7 1524.02 551.945 1560.33 597.254 C 1563.51 593.46 1565.03 590.558 1568.84 586.893 L 1568.7 586.171 C 1574.53 579.336 1581.52 572.673 1588.24 566.717 L 1589.05 566.628 C 1600.19 579.149 1612.09 595.885 1621.63 609.656 C 1678.08 692.385 1718.1 785.194 1739.51 883.031 C 1747.7 921.751 1749.98 953.107 1754.19 991.507 C 1757.75 1003.26 1757.04 1045.43 1756.93 1058.69 C 1755.29 1076.17 1755.06 1093.7 1753.34 1110.98 L 1751.12 1111.15 C 1729.11 1303.07 1630.24 1477.87 1477.1 1595.62 C 1365.02 1682.91 1216.51 1740.18 1074.47 1748.04 C 1070 1747.89 1065.38 1748.21 1060.9 1748.42 C 1057.77 1748.99 1043.47 1749.5 1039.98 1749.49 C 988.057 1749.41 912.64 1744.61 862.913 1729.78 C 869.011 1727.75 878.906 1733.53 887.021 1733.67 L 887.801 1732.82 C 885.65 1730.39 885.926 1731.05 884.546 1728.26 C 885.548 1726.5 886.75 1724.4 888.152 1721.94 C 893.84 1719.87 901.854 1718.59 906.547 1714.55 C 908.581 1712.8 908.156 1712.63 908.238 1710.33 C 904.365 1706.86 901.85 1709.71 895.632 1705.72 C 892.467 1703.99 867.109 1698.88 861.501 1697.5 C 847.972 1694.16 834.54 1690.45 821.217 1686.36 C 754.021 1665.18 694.42 1635.35 636.09 1596.15 C 621.022 1586.02 602.565 1574.22 588.795 1562.43 C 571.948 1550.49 540.426 1519.72 525.956 1504.61 C 442.373 1417.31 395.281 1335.73 355.271 1222.22 C 352.018 1215.65 344.655 1188.29 343.584 1180.97 C 334.272 1141.01 327.561 1105.67 324.747 1064.51 C 326.249 1055.67 324.713 1047.31 326.919 1039.91 z" fill="url(#Gradient17)" transform="translate(0,0)"></path>
<path d="M 326.919 1039.91 C 327.628 1035.65 327.471 1016.73 327.651 1011.14 C 328.268 994.302 329.529 977.493 331.432 960.75 C 337.688 907.221 351.077 854.769 371.244 804.791 C 387.179 765.969 408.038 723.202 429.805 687.142 C 436.07 676.763 443.079 666.381 449.769 656.223 C 535.788 524.36 664.293 425.856 813.976 377.046 C 819.606 375.177 826.019 374.637 831.201 372.93 C 960.288 330.397 1098.59 334.079 1227.98 373.386 C 1275.99 387.969 1309.41 401.671 1353.82 425.309 C 1362.53 429.63 1414.03 461.689 1419.87 467.348 C 1421.75 471.651 1454.51 495.04 1461.17 500.368 C 1499.36 530.899 1527.14 559.708 1557.95 597.329 C 1532.64 626.865 1496.61 660.21 1469.4 688.697 C 1451.48 707.451 1419.62 740.934 1399.24 757.137 C 1376.51 741.56 1153.15 593.157 1151.91 593.155 L 1151.74 594.088 C 1114.2 572.115 1078.07 544.448 1041.23 521.104 C 1036.13 517.873 1031.47 513.999 1026.45 511.063 C 1023.12 511.128 1024.67 510.636 1021.85 513.08 C 1024.38 517.843 1023.57 527.904 1023.46 533.732 L 1022.96 616.745 C 1022.94 626.924 1022.3 648.391 1023.36 658.022 C 1010.24 667.93 994.133 678.352 980.371 687.712 C 954.184 705.409 928.09 723.244 902.09 741.214 C 865.381 766.726 829.192 792.855 791.844 817.447 C 787.719 820.163 783.606 823.25 779.37 825.732 C 765.361 836.455 749.241 846.106 734.686 856.192 C 730.659 858.982 719.21 866.449 715.782 869.51 L 716.094 884.347 C 715.047 919.667 714.77 955.005 715.263 990.337 L 639.989 1065.41 C 627.848 1077.5 611.459 1092.9 600.168 1105.37 C 600.132 1117.08 601.179 1159.47 598.287 1168.19 C 598.256 1176.64 598.459 1187.78 597.79 1196.03 C 596.424 1177.9 596.891 1151.83 596.805 1133.31 L 596.979 997.411 C 596.958 994.513 597.256 992.692 595.867 990.61 C 589.605 993.539 542.387 1042.67 534.1 1050.75 L 355.271 1222.22 C 352.018 1215.65 344.655 1188.29 343.584 1180.97 C 334.272 1141.01 327.561 1105.67 324.747 1064.51 C 326.249 1055.67 324.713 1047.31 326.919 1039.91 z" fill="rgb(238,176,53)" transform="translate(0,0)"></path>
<path d="M 1021.85 513.08 C 1024.38 517.843 1023.57 527.904 1023.46 533.732 L 1022.96 616.745 C 1022.94 626.924 1022.3 648.391 1023.36 658.022 C 1010.24 667.93 994.133 678.352 980.371 687.712 C 954.184 705.409 928.09 723.244 902.09 741.214 C 865.381 766.726 829.192 792.855 791.844 817.447 C 787.719 820.163 783.606 823.25 779.37 825.732 C 765.361 836.455 749.241 846.106 734.686 856.192 C 730.659 858.982 719.21 866.449 715.782 869.51 C 711.457 868.124 695.1 856.754 690.385 853.743 C 670.179 840.834 649.952 826.03 629.455 813.692 C 624.438 810.273 603.871 797.992 602.104 794.315 L 601.214 791.093 C 607.243 788.514 629.478 772.115 636.522 767.525 C 658.592 753.146 680.552 737.754 702.594 723.334 L 1021.85 513.08 z" fill="url(#Gradient16)" transform="translate(0,0)"></path>
<path d="M 602.104 794.315 C 616.336 788.207 689.988 732.584 697.567 735.303 L 697.722 739.209 C 701.737 740.168 702.464 735.056 704.541 740.612 C 706.351 745.455 699.842 746.655 699.303 752.381 C 702.1 757.616 714.888 763.688 720.856 766.572 C 730.626 784.808 737.819 778.623 752.866 788.416 C 755.743 790.289 749.034 796.405 754.049 801.378 C 750.777 808.496 740.488 831.05 751.799 836.876 C 760.154 841.179 770.786 827.55 778.372 824.894 L 779.37 825.732 C 765.361 836.455 749.241 846.106 734.686 856.192 C 730.659 858.982 719.21 866.449 715.782 869.51 C 711.457 868.124 695.1 856.754 690.385 853.743 C 670.179 840.834 649.952 826.03 629.455 813.692 C 624.438 810.273 603.871 797.992 602.104 794.315 z" fill="rgb(250,204,71)" transform="translate(0,0)"></path>
<path d="M 597.263 820.394 C 596.915 812.855 596.329 804.385 597.051 796.911 C 597.413 793.164 598.461 793.202 601.214 791.093 L 602.104 794.315 C 603.871 797.992 624.438 810.273 629.455 813.692 C 649.952 826.03 670.179 840.834 690.385 853.743 C 695.1 856.754 711.457 868.124 715.782 869.51 L 716.094 884.347 C 715.047 919.667 714.77 955.005 715.263 990.337 L 639.989 1065.41 C 627.848 1077.5 611.459 1092.9 600.168 1105.37 C 600.132 1117.08 601.179 1159.47 598.287 1168.19 L 597.263 820.394 z" fill="url(#Gradient15)" transform="translate(0,0)"></path>
<path d="M 597.263 820.394 C 596.915 812.855 596.329 804.385 597.051 796.911 C 597.413 793.164 598.461 793.202 601.214 791.093 L 602.104 794.315 C 603.871 797.992 624.438 810.273 629.455 813.692 C 625.301 814.683 624.44 810.811 617.525 816.502 C 613.462 819.845 604.966 820.521 601.027 822.645 C 598.912 825.952 598.393 829.427 598.525 833.357 C 598.563 828.147 598.651 825.398 597.263 820.394 z" fill="rgb(253,248,165)" transform="translate(0,0)"></path>
<path d="M 326.919 1039.91 C 326.864 1063.19 328.38 1086.44 331.455 1109.52 C 334.559 1132.3 340.119 1154.56 344.418 1177.11 C 344.694 1178.56 344.259 1179.75 343.584 1180.97 C 334.272 1141.01 327.561 1105.67 324.747 1064.51 C 326.249 1055.67 324.713 1047.31 326.919 1039.91 z" fill="rgb(199,172,41)" transform="translate(0,0)"></path>
<path d="M 355.271 1222.22 L 534.1 1050.75 C 542.387 1042.67 589.605 993.539 595.867 990.61 C 597.256 992.692 596.958 994.513 596.979 997.411 L 596.805 1133.31 C 596.891 1151.83 596.424 1177.9 597.79 1196.03 C 597.773 1210.7 596.965 1238.08 598.138 1251.86 L 599.099 1254.87 C 599.96 1266.82 599.273 1282.79 599.3 1295.19 C 612.96 1303.09 820.843 1442.26 822.098 1444.25 C 827.335 1451.23 944.002 1528.74 958.062 1537.95 C 938.617 1556.88 919.367 1576.01 900.316 1595.33 C 895.015 1600.74 883.357 1611.85 879.08 1617.18 C 870.644 1615.9 868.023 1610.69 860.462 1611.18 C 848.411 1611.96 840.51 1612.98 828.645 1610.44 C 823.477 1609.33 815.921 1616.87 806.422 1615.95 C 803.863 1615.71 787.131 1614.17 785.973 1615.21 C 777.567 1622.73 759.339 1614.41 754.453 1618.83 L 754.892 1620.22 C 757.809 1620.9 759.858 1620.71 762.823 1620.66 C 759.287 1623.03 724.518 1623.65 718.116 1624.69 C 723.746 1623.78 689.117 1619.23 690.676 1619.44 C 661.008 1615.46 637.555 1594.18 613.485 1578.27 C 608.999 1575.33 592.292 1562.61 589.223 1561.25 L 588.795 1562.43 C 571.948 1550.49 540.426 1519.72 525.956 1504.61 C 442.373 1417.31 395.281 1335.73 355.271 1222.22 z" fill="rgb(204,120,43)" transform="translate(0,0)"></path>
<path d="M 1023.36 658.022 C 1031.59 662.516 1043.56 671.421 1051.79 677.121 L 1096.11 707.499 C 1108.38 715.938 1120.73 724.276 1133.13 732.514 C 1139.96 737.041 1151.42 744.156 1157.33 748.995 C 1150 758.619 1146.85 755.969 1141.09 760.811 L 1143.93 762.201 L 1144.22 763.125 C 1141.39 768.017 1120.7 791.512 1115.63 796.897 C 1123.66 802.48 1173.86 836.716 1178.26 842.003 L 1110.93 908.175 C 1082.65 936.417 1054.2 965.446 1024.59 992.249 C 1020.49 997.755 1016.88 1001.67 1012.26 1006.73 C 1006.52 1010.62 980.1 1039.15 973.314 1046.51 C 945.054 1077.18 918.262 1106.52 888.689 1136 C 896.234 1148.14 921.553 1188.23 926.237 1199.79 L 925.107 1199.92 C 923.362 1197.59 890.099 1141.96 889.315 1139.99 L 887.894 1139.5 C 882.919 1143.59 874.83 1153.71 870.493 1159.12 C 874.229 1166.79 896.665 1204.2 897.078 1207.63 L 896.629 1208.44 C 885.184 1189.33 874.096 1170.02 863.371 1150.51 C 858.9 1142.43 852.133 1130.96 848.422 1122.77 L 844.154 1123.7 L 865.5 1162.28 C 851.564 1177.86 837.49 1193.32 823.28 1208.65 C 816.015 1216.64 804.613 1230.07 797.16 1237.19 C 794.335 1236.03 782.476 1228.53 779.255 1226.55 C 757.57 1213.21 737.597 1198.22 715.688 1185.09 C 716.159 1120.17 716.017 1055.25 715.263 990.337 C 714.77 955.005 715.047 919.667 716.094 884.347 L 715.782 869.51 C 719.21 866.449 730.659 858.982 734.686 856.192 C 749.241 846.106 765.361 836.455 779.37 825.732 C 783.606 823.25 787.719 820.163 791.844 817.447 C 829.192 792.855 865.381 766.726 902.09 741.214 C 928.09 723.244 954.184 705.409 980.371 687.712 C 994.133 678.352 1010.24 667.93 1023.36 658.022 z" fill="url(#Gradient14)" transform="translate(0,0)"></path>
<path d="M 1023.36 658.022 C 1031.59 662.516 1043.56 671.421 1051.79 677.121 L 1096.11 707.499 C 1108.38 715.938 1120.73 724.276 1133.13 732.514 C 1139.96 737.041 1151.42 744.156 1157.33 748.995 C 1150 758.619 1146.85 755.969 1141.09 760.811 L 1143.93 762.201 L 1144.22 763.125 C 1141.39 768.017 1120.7 791.512 1115.63 796.897 C 1087.26 776.325 1054.09 749.617 1026.12 730.715 L 1024.69 725.301 C 1002.14 739.281 979.185 756.451 957.102 771.504 L 816.4 867.842 C 795.532 882.203 775.005 897.209 753.934 911.222 L 758.237 919.8 C 777.611 953.113 799.544 986.394 817.791 1019.78 C 827.123 1033.25 838.034 1052.47 846.731 1066.76 C 860.963 1089.69 874.95 1112.77 888.689 1136 C 896.234 1148.14 921.553 1188.23 926.237 1199.79 L 925.107 1199.92 C 923.362 1197.59 890.099 1141.96 889.315 1139.99 L 887.894 1139.5 C 882.919 1143.59 874.83 1153.71 870.493 1159.12 C 874.229 1166.79 896.665 1204.2 897.078 1207.63 L 896.629 1208.44 C 885.184 1189.33 874.096 1170.02 863.371 1150.51 C 858.9 1142.43 852.133 1130.96 848.422 1122.77 L 844.154 1123.7 L 865.5 1162.28 C 851.564 1177.86 837.49 1193.32 823.28 1208.65 C 816.015 1216.64 804.613 1230.07 797.16 1237.19 C 794.335 1236.03 782.476 1228.53 779.255 1226.55 C 757.57 1213.21 737.597 1198.22 715.688 1185.09 C 716.159 1120.17 716.017 1055.25 715.263 990.337 C 714.77 955.005 715.047 919.667 716.094 884.347 L 715.782 869.51 C 719.21 866.449 730.659 858.982 734.686 856.192 C 749.241 846.106 765.361 836.455 779.37 825.732 C 783.606 823.25 787.719 820.163 791.844 817.447 C 829.192 792.855 865.381 766.726 902.09 741.214 C 928.09 723.244 954.184 705.409 980.371 687.712 C 994.133 678.352 1010.24 667.93 1023.36 658.022 z" fill="url(#Gradient13)" transform="translate(0,0)"></path>
<path d="M 1024.69 681.195 C 1025.5 689.739 1025.84 716.81 1024.69 725.301 C 1002.14 739.281 979.185 756.451 957.102 771.504 L 816.4 867.842 C 795.532 882.203 775.005 897.209 753.934 911.222 L 758.237 919.8 C 777.611 953.113 799.544 986.394 817.791 1019.78 C 827.123 1033.25 838.034 1052.47 846.731 1066.76 C 860.963 1089.69 874.95 1112.77 888.689 1136 C 896.234 1148.14 921.553 1188.23 926.237 1199.79 L 925.107 1199.92 C 923.362 1197.59 890.099 1141.96 889.315 1139.99 L 887.894 1139.5 C 882.919 1143.59 874.83 1153.71 870.493 1159.12 C 874.229 1166.79 896.665 1204.2 897.078 1207.63 L 896.629 1208.44 C 885.184 1189.33 874.096 1170.02 863.371 1150.51 C 858.9 1142.43 852.133 1130.96 848.422 1122.77 L 844.154 1123.7 C 839.986 1118.61 824.834 1089.55 820.933 1082.29 L 766.914 980.776 C 749.377 951.034 734.633 918.794 726.008 885.426 C 748.381 874.578 762.99 862.928 783.135 848.768 L 849.313 802.451 C 887.566 775.895 925.097 748.568 964.279 723.391 C 984.974 710.092 1004.98 695.905 1024.69 681.195 z" fill="rgb(222,150,53)" transform="translate(0,0)"></path>
<path d="M 766.914 980.776 L 769.151 979.744 C 772.674 984.03 772.761 987.622 775.167 992.144 C 798.475 1035.95 823.98 1079.75 848.422 1122.77 L 844.154 1123.7 C 839.986 1118.61 824.834 1089.55 820.933 1082.29 L 766.914 980.776 z" fill="rgb(238,176,53)" transform="translate(0,0)"></path>
<path d="M 817.791 1019.78 C 817.06 1019.64 815.589 1018.97 814.828 1018.66 C 808.316 1010.97 758.663 926.828 758.237 919.8 C 777.611 953.113 799.544 986.394 817.791 1019.78 z" fill="rgb(184,74,20)" transform="translate(0,0)"></path>
<path d="M 1024.69 681.195 C 1033.9 686.997 1044.78 695.523 1054.17 701.921 L 1141.09 760.811 L 1143.93 762.201 L 1144.22 763.125 C 1141.39 768.017 1120.7 791.512 1115.63 796.897 C 1087.26 776.325 1054.09 749.617 1026.12 730.715 L 1024.69 725.301 C 1025.84 716.81 1025.5 689.739 1024.69 681.195 z" fill="rgb(204,120,43)" transform="translate(0,0)"></path>
<path d="M 1026.12 730.715 C 1054.09 749.617 1087.26 776.325 1115.63 796.897 C 1123.66 802.48 1173.86 836.716 1178.26 842.003 L 1110.93 908.175 C 1082.65 936.417 1054.2 965.446 1024.59 992.249 C 1025.65 905.075 1026.16 817.896 1026.12 730.715 z" fill="url(#Gradient12)" transform="translate(0,0)"></path>
<path d="M 1178.26 842.003 L 1178.59 842.1 C 1183.57 847.291 1190.74 852.005 1196.56 856.33 C 1225.31 877.692 1255.8 897.297 1284.02 919.362 C 1281.69 923.438 1269.73 943.56 1269.27 946.115 L 1173.45 1109.85 C 1160.18 1132.56 1138.54 1166.07 1128.23 1188.86 C 1123.32 1194.7 1120.93 1201.3 1116.71 1206.75 L 1058.85 1307.41 C 1051.59 1319.99 1039.92 1337.24 1033.66 1349.18 C 1030.47 1353.56 1027.8 1357.49 1024.83 1362.01 C 1019.95 1360.09 989.721 1308.36 985.242 1299.66 C 971.855 1278.03 959.306 1255.42 946.454 1233.48 C 942.417 1226.59 930.55 1204.78 926.237 1199.79 C 921.553 1188.23 896.234 1148.14 888.689 1136 C 918.262 1106.52 945.054 1077.18 973.314 1046.51 C 980.1 1039.15 1006.52 1010.62 1012.26 1006.73 C 1016.88 1001.67 1020.49 997.755 1024.59 992.249 C 1054.2 965.446 1082.65 936.417 1110.93 908.175 L 1178.26 842.003 z" fill="rgb(238,176,53)" transform="translate(0,0)"></path>
<path d="M 1022.51 998.746 C 1022.44 1010.08 1024.62 1019.42 1024.75 1030.86 C 1025.1 1062.11 1025.07 1093.44 1025.62 1124.68 C 1025.76 1132.83 1027.1 1165.96 1025.87 1172.73 C 1022.83 1200.2 1026.18 1238.34 1024.73 1266.84 C 1023.87 1270.09 1023.74 1271.69 1023.65 1275.06 C 1020.79 1276.94 1012.78 1276.94 1008.83 1278.4 C 997.864 1282.45 985.273 1286.06 985.242 1299.66 C 971.855 1278.03 959.306 1255.42 946.454 1233.48 C 942.417 1226.59 930.55 1204.78 926.237 1199.79 C 921.553 1188.23 896.234 1148.14 888.689 1136 C 918.262 1106.52 945.054 1077.18 973.314 1046.51 C 980.1 1039.15 1006.52 1010.62 1012.26 1006.73 C 1015.81 1005.45 1019.58 1001.44 1022.51 998.746 z" fill="url(#Gradient11)" transform="translate(0,0)"></path>
<path d="M 1024.73 1266.84 C 1025.07 1288.58 1025.11 1310.31 1024.86 1332.05 C 1024.8 1338.65 1024 1356.57 1024.83 1362.01 C 1019.95 1360.09 989.721 1308.36 985.242 1299.66 C 985.273 1286.06 997.864 1282.45 1008.83 1278.4 C 1012.78 1276.94 1020.79 1276.94 1023.65 1275.06 C 1023.74 1271.69 1023.87 1270.09 1024.73 1266.84 z" fill="rgb(252,238,84)" transform="translate(0,0)"></path>
<path d="M 1025.87 1172.73 L 1025.97 1173.66 C 1027.49 1189.12 1026.72 1209.86 1026.54 1225.88 C 1026.23 1253.5 1028.38 1281.69 1025.47 1309.14 C 1025.08 1312.91 1043.79 1323.17 1046.8 1324.39 C 1069.13 1287.52 1092.81 1240.83 1115.77 1205.93 L 1116.71 1206.75 L 1058.85 1307.41 C 1051.59 1319.99 1039.92 1337.24 1033.66 1349.18 C 1030.47 1353.56 1027.8 1357.49 1024.83 1362.01 C 1024 1356.57 1024.8 1338.65 1024.86 1332.05 C 1025.11 1310.31 1025.07 1288.58 1024.73 1266.84 C 1026.18 1238.34 1022.83 1200.2 1025.87 1172.73 z" fill="rgb(250,204,71)" transform="translate(0,0)"></path>
<path d="M 715.263 990.337 C 716.017 1055.25 716.159 1120.17 715.688 1185.09 C 737.597 1198.22 757.57 1213.21 779.255 1226.55 C 782.476 1228.53 794.335 1236.03 797.16 1237.19 C 804.613 1230.07 816.015 1216.64 823.28 1208.65 C 837.49 1193.32 851.564 1177.86 865.5 1162.28 L 844.154 1123.7 L 848.422 1122.77 C 852.133 1130.96 858.9 1142.43 863.371 1150.51 C 874.096 1170.02 885.184 1189.33 896.629 1208.44 C 904.78 1224.36 915.527 1238.79 923.811 1254.24 C 942.747 1289.57 964.455 1325.25 981.058 1361.6 C 988.776 1369.35 1012.96 1384.32 1022.93 1390.83 C 1024.11 1394.01 1024.91 1395.59 1025.45 1398.94 L 1024.9 1400.18 L 1024.98 1489.25 C 1025.01 1504.52 1025.61 1524.26 1024.71 1539.12 C 1018.34 1536.73 988.928 1513.78 981.085 1508.44 L 829.292 1406.48 C 825.768 1404.56 821.85 1402.04 818.467 1399.82 C 745.406 1351.75 673.418 1300.92 599.099 1254.87 L 598.138 1251.86 C 596.965 1238.08 597.773 1210.7 597.79 1196.03 C 598.459 1187.78 598.256 1176.64 598.287 1168.19 C 601.179 1159.47 600.132 1117.08 600.168 1105.37 C 611.459 1092.9 627.848 1077.5 639.989 1065.41 L 715.263 990.337 z" fill="url(#Gradient10)" transform="translate(0,0)"></path>
<path d="M 715.263 990.337 C 716.017 1055.25 716.159 1120.17 715.688 1185.09 C 737.597 1198.22 757.57 1213.21 779.255 1226.55 C 782.476 1228.53 794.335 1236.03 797.16 1237.19 C 804.114 1241.8 830.703 1258.69 834.864 1264.38 C 835.94 1267.36 836.466 1267.23 838.8 1269.28 L 838.042 1270.21 L 836.045 1270.09 L 836.535 1269.47 L 836.043 1269 L 834.765 1269.57 C 834.189 1269.35 833.613 1269.13 833.037 1268.92 C 832.956 1268.91 832.875 1268.91 832.794 1268.9 C 824.233 1265.25 716.727 1193.1 710.956 1186.8 C 676.247 1208.29 634.036 1231.89 598.138 1251.86 C 596.965 1238.08 597.773 1210.7 597.79 1196.03 C 598.459 1187.78 598.256 1176.64 598.287 1168.19 C 601.179 1159.47 600.132 1117.08 600.168 1105.37 C 611.459 1092.9 627.848 1077.5 639.989 1065.41 L 715.263 990.337 z" fill="rgb(250,204,71)" transform="translate(0,0)"></path>
<path d="M 848.422 1122.77 C 852.133 1130.96 858.9 1142.43 863.371 1150.51 C 874.096 1170.02 885.184 1189.33 896.629 1208.44 C 904.78 1224.36 915.527 1238.79 923.811 1254.24 C 942.747 1289.57 964.455 1325.25 981.058 1361.6 C 977.628 1359.93 976.59 1359.63 973.802 1356.9 C 961.855 1350.77 937.873 1332.94 924.239 1324.52 L 923.83 1326.11 C 929.179 1329.92 943.797 1338.3 946.396 1341.19 L 945.982 1343.03 C 940.418 1343.6 924.894 1326.72 920.494 1329.39 C 901.73 1319.39 872.592 1295.72 852.838 1283.16 C 846.263 1278.63 838.993 1273.84 832.794 1268.9 C 832.875 1268.91 832.956 1268.91 833.037 1268.92 C 833.613 1269.13 834.189 1269.35 834.765 1269.57 L 836.043 1269 L 836.535 1269.47 L 836.045 1270.09 L 838.042 1270.21 L 838.8 1269.28 C 836.466 1267.23 835.94 1267.36 834.864 1264.38 C 830.703 1258.69 804.114 1241.8 797.16 1237.19 C 804.613 1230.07 816.015 1216.64 823.28 1208.65 C 837.49 1193.32 851.564 1177.86 865.5 1162.28 L 844.154 1123.7 L 848.422 1122.77 z" fill="url(#Gradient9)" transform="translate(0,0)"></path>
<path d="M 848.422 1122.77 C 852.133 1130.96 858.9 1142.43 863.371 1150.51 C 874.096 1170.02 885.184 1189.33 896.629 1208.44 C 904.78 1224.36 915.527 1238.79 923.811 1254.24 C 942.747 1289.57 964.455 1325.25 981.058 1361.6 C 977.628 1359.93 976.59 1359.63 973.802 1356.9 C 972.449 1346.2 879.197 1186.32 865.5 1162.28 L 844.154 1123.7 L 848.422 1122.77 z" fill="rgb(252,238,84)" transform="translate(0,0)"></path>
<path d="M 834.864 1264.38 C 843.205 1268.73 920.081 1319.93 924.239 1324.52 L 923.83 1326.11 C 929.179 1329.92 943.797 1338.3 946.396 1341.19 L 945.982 1343.03 C 940.418 1343.6 924.894 1326.72 920.494 1329.39 C 901.73 1319.39 872.592 1295.72 852.838 1283.16 C 846.263 1278.63 838.993 1273.84 832.794 1268.9 C 832.875 1268.91 832.956 1268.91 833.037 1268.92 C 833.613 1269.13 834.189 1269.35 834.765 1269.57 L 836.043 1269 L 836.535 1269.47 L 836.045 1270.09 L 838.042 1270.21 L 838.8 1269.28 C 836.466 1267.23 835.94 1267.36 834.864 1264.38 z" fill="rgb(253,248,165)" transform="translate(0,0)"></path>
<path d="M 920.494 1329.39 C 924.894 1326.72 940.418 1343.6 945.982 1343.03 L 946.396 1341.19 C 943.797 1338.3 929.179 1329.92 923.83 1326.11 L 924.239 1324.52 C 937.873 1332.94 961.855 1350.77 973.802 1356.9 C 976.59 1359.63 977.628 1359.93 981.058 1361.6 C 988.776 1369.35 1012.96 1384.32 1022.93 1390.83 C 1024.11 1394.01 1024.91 1395.59 1025.45 1398.94 L 1024.9 1400.18 C 1018.68 1398.66 933.969 1338.34 920.494 1329.39 z" fill="rgb(254,247,193)" transform="translate(0,0)"></path>
<path d="M 1157.33 748.995 L 1158.31 749.092 C 1180.62 766.109 1203.65 782.152 1227.34 797.174 L 1229.42 797.832 C 1235.15 803.052 1253.16 814.622 1260.17 819.368 C 1277.56 831.153 1294.87 843.052 1312.11 855.064 C 1315.61 857.482 1331.36 867.882 1333.56 870.171 L 1333.04 874.826 L 1333.29 875.661 C 1333.2 879.772 1332.88 884.757 1333.57 888.73 L 1335.31 889.686 C 1335.21 890.453 1335.07 891.993 1334.88 892.674 C 1332.55 896.893 1333.68 952.898 1333.49 962.495 C 1332.14 1037.02 1331.73 1111.56 1332.26 1186.09 L 1330.59 1187.19 L 1333.15 1188.2 C 1329.09 1195.65 1302.78 1207.14 1298.38 1214.83 L 1217.92 1268.88 C 1200.86 1280.1 1170.59 1299.08 1154.83 1311.44 C 1142.1 1318.29 1129.78 1329.03 1118.11 1335.47 L 1117.73 1334.26 C 1113.95 1335.27 1086.85 1356 1080.71 1358.67 C 1077.82 1359.93 1078.71 1359.76 1075.94 1358.56 C 1078.83 1355.03 1105.36 1339.81 1111.95 1334.41 L 1111.74 1332.58 C 1098.91 1341.29 1087.56 1348.85 1074.26 1356.76 C 1071.68 1359.34 1069.54 1360.17 1066.33 1361.82 C 1057.7 1367.93 1032.05 1386.38 1022.93 1390.83 C 1012.96 1384.32 988.776 1369.35 981.058 1361.6 C 964.455 1325.25 942.747 1289.57 923.811 1254.24 C 915.527 1238.79 904.78 1224.36 896.629 1208.44 L 897.078 1207.63 C 896.665 1204.2 874.229 1166.79 870.493 1159.12 C 874.83 1153.71 882.919 1143.59 887.894 1139.5 L 889.315 1139.99 C 890.099 1141.96 923.362 1197.59 925.107 1199.92 L 926.237 1199.79 C 930.55 1204.78 942.417 1226.59 946.454 1233.48 C 959.306 1255.42 971.855 1278.03 985.242 1299.66 C 989.721 1308.36 1019.95 1360.09 1024.83 1362.01 C 1027.8 1357.49 1030.47 1353.56 1033.66 1349.18 C 1039.92 1337.24 1051.59 1319.99 1058.85 1307.41 L 1116.71 1206.75 C 1120.93 1201.3 1123.32 1194.7 1128.23 1188.86 C 1138.54 1166.07 1160.18 1132.56 1173.45 1109.85 L 1269.27 946.115 C 1269.73 943.56 1281.69 923.438 1284.02 919.362 C 1255.8 897.297 1225.31 877.692 1196.56 856.33 C 1190.74 852.005 1183.57 847.291 1178.59 842.1 L 1178.26 842.003 C 1173.86 836.716 1123.66 802.48 1115.63 796.897 C 1120.7 791.512 1141.39 768.017 1144.22 763.125 L 1143.93 762.201 L 1141.09 760.811 C 1146.85 755.969 1150 758.619 1157.33 748.995 z" fill="rgb(204,120,43)" transform="translate(0,0)"></path>
<path d="M 870.493 1159.12 C 874.83 1153.71 882.919 1143.59 887.894 1139.5 L 889.315 1139.99 C 890.099 1141.96 923.362 1197.59 925.107 1199.92 L 926.237 1199.79 C 930.55 1204.78 942.417 1226.59 946.454 1233.48 C 959.306 1255.42 971.855 1278.03 985.242 1299.66 C 989.721 1308.36 1019.95 1360.09 1024.83 1362.01 C 1027.8 1357.49 1030.47 1353.56 1033.66 1349.18 C 1033.47 1353.39 1028.56 1359.93 1025.98 1364.16 C 1026.02 1371.86 1026.43 1379.01 1026.33 1386.92 C 1036 1379.16 1047.73 1372.36 1058.13 1365.5 C 1069.49 1358 1096.38 1303.59 1103.96 1289.78 C 1107.83 1282.72 1111.63 1273.28 1117.72 1267.99 C 1107.53 1290.85 1090.65 1315.99 1078.92 1338.51 C 1076.1 1343.91 1067.98 1357.13 1066.33 1361.82 C 1057.7 1367.93 1032.05 1386.38 1022.93 1390.83 C 1012.96 1384.32 988.776 1369.35 981.058 1361.6 C 964.455 1325.25 942.747 1289.57 923.811 1254.24 C 915.527 1238.79 904.78 1224.36 896.629 1208.44 L 897.078 1207.63 C 896.665 1204.2 874.229 1166.79 870.493 1159.12 z" fill="rgb(238,176,53)" transform="translate(0,0)"></path>
<path d="M 1157.33 748.995 L 1158.31 749.092 C 1180.62 766.109 1203.65 782.152 1227.34 797.174 L 1229.42 797.832 C 1235.15 803.052 1253.16 814.622 1260.17 819.368 C 1277.56 831.153 1294.87 843.052 1312.11 855.064 C 1315.61 857.482 1331.36 867.882 1333.56 870.171 L 1333.04 874.826 C 1327.84 876.724 1322.61 878.519 1317.35 880.208 C 1288.77 864.337 1240.95 830.576 1214.17 811.024 C 1211.94 812.821 1178.81 841.746 1178.59 842.1 L 1178.26 842.003 C 1173.86 836.716 1123.66 802.48 1115.63 796.897 C 1120.7 791.512 1141.39 768.017 1144.22 763.125 L 1143.93 762.201 L 1141.09 760.811 C 1146.85 755.969 1150 758.619 1157.33 748.995 z" fill="rgb(172,45,18)" transform="translate(0,0)"></path>
<path d="M 1144.22 763.125 C 1154.29 769.514 1166.63 778.568 1176.82 785.433 C 1185.29 791.133 1207.87 805.017 1214.17 811.024 C 1211.94 812.821 1178.81 841.746 1178.59 842.1 L 1178.26 842.003 C 1173.86 836.716 1123.66 802.48 1115.63 796.897 C 1120.7 791.512 1141.39 768.017 1144.22 763.125 z" fill="rgb(204,120,43)" transform="translate(0,0)"></path>
<path d="M 1157.33 748.995 L 1158.31 749.092 C 1180.62 766.109 1203.65 782.152 1227.34 797.174 C 1207.19 809.089 1162.28 757.302 1143.93 762.201 L 1141.09 760.811 C 1146.85 755.969 1150 758.619 1157.33 748.995 z" fill="rgb(184,74,20)" transform="translate(0,0)"></path>
<path d="M 1333.57 888.73 L 1335.31 889.686 C 1335.21 890.453 1335.07 891.993 1334.88 892.674 C 1332.55 896.893 1333.68 952.898 1333.49 962.495 C 1332.14 1037.02 1331.73 1111.56 1332.26 1186.09 L 1327.2 1185.13 C 1325.32 1182.52 1325.47 1149.24 1325.39 1143.46 C 1324.9 1089.43 1324.76 1035.39 1324.98 981.356 C 1325.04 957.907 1324.43 933.457 1325.43 910.043 C 1325.68 904.319 1331.01 894.847 1333.57 888.73 z" fill="rgb(238,176,53)" transform="translate(0,0)"></path>
<path d="M 1269.27 946.115 L 1270.86 946.957 C 1271.84 952.126 1262.4 968.282 1259.22 974.575 C 1225.34 1041.06 1187.18 1105.28 1145 1166.84 C 1141.59 1171.83 1132.17 1186.07 1128.23 1188.86 C 1138.54 1166.07 1160.18 1132.56 1173.45 1109.85 L 1269.27 946.115 z" fill="rgb(172,45,18)" transform="translate(0,0)"></path>
<path d="M 1330.59 1187.19 L 1333.15 1188.2 C 1329.09 1195.65 1302.78 1207.14 1298.38 1214.83 L 1217.92 1268.88 C 1200.86 1280.1 1170.59 1299.08 1154.83 1311.44 C 1142.1 1318.29 1129.78 1329.03 1118.11 1335.47 L 1117.73 1334.26 C 1113.95 1335.27 1086.85 1356 1080.71 1358.67 C 1077.82 1359.93 1078.71 1359.76 1075.94 1358.56 C 1078.83 1355.03 1105.36 1339.81 1111.95 1334.41 L 1111.74 1332.58 C 1116.51 1327.41 1168.82 1294.35 1178.66 1287.81 C 1229.04 1254.34 1279.8 1219.95 1330.59 1187.19 z" fill="rgb(243,220,89)" transform="translate(0,0)"></path>
<path d="M 1202.83 1119.79 L 1203.93 1121.02 C 1170.7 1185.15 1132.65 1246.99 1099.07 1310.97 C 1091.44 1325.52 1083.82 1340.58 1074.55 1354.18 C 1074.11 1354.84 1074.23 1356 1074.26 1356.76 C 1071.68 1359.34 1069.54 1360.17 1066.33 1361.82 C 1067.98 1357.13 1076.1 1343.91 1078.92 1338.51 C 1090.65 1315.99 1107.53 1290.85 1117.72 1267.99 C 1146.94 1219.09 1175.31 1169.68 1202.83 1119.79 z" fill="rgb(250,204,71)" transform="translate(0,0)"></path>
<path d="M 1202.83 1119.79 C 1206.81 1111.44 1213.87 1097.82 1218.88 1090.17 L 1219.62 1090.72 L 1219.86 1089.95 L 1218.99 1090.02 L 1220.06 1089.33 C 1217.67 1096.38 1208.12 1115.48 1203.93 1121.02 L 1202.83 1119.79 z" fill="rgb(222,150,53)" transform="translate(0,0)"></path>
<path d="M 1298.38 1214.83 C 1310.35 1208.28 1323.95 1198.64 1334.87 1190.37 C 1347.11 1199.71 1371.23 1214.14 1384.91 1222.75 C 1401.51 1233.2 1427.15 1250.55 1444.33 1259.21 C 1372.8 1305.84 1302.96 1354.56 1231.17 1400.63 C 1214.16 1410 1182.48 1432.77 1165.05 1444.53 C 1128.52 1469.15 1091.83 1493.52 1054.97 1517.65 C 1045.24 1524.61 1033.6 1531.63 1024.71 1539.12 C 1025.61 1524.26 1025.01 1504.52 1024.98 1489.25 L 1024.9 1400.18 L 1025.45 1398.94 C 1024.91 1395.59 1024.11 1394.01 1022.93 1390.83 C 1032.05 1386.38 1057.7 1367.93 1066.33 1361.82 C 1069.54 1360.17 1071.68 1359.34 1074.26 1356.76 C 1087.56 1348.85 1098.91 1341.29 1111.74 1332.58 L 1111.95 1334.41 C 1105.36 1339.81 1078.83 1355.03 1075.94 1358.56 C 1078.71 1359.76 1077.82 1359.93 1080.71 1358.67 C 1086.85 1356 1113.95 1335.27 1117.73 1334.26 L 1118.11 1335.47 C 1129.78 1329.03 1142.1 1318.29 1154.83 1311.44 C 1170.59 1299.08 1200.86 1280.1 1217.92 1268.88 L 1298.38 1214.83 z" fill="url(#Gradient8)" transform="translate(0,0)"></path>
<path d="M 1154.83 1311.44 C 1158.72 1310.96 1159.88 1309.88 1163.18 1307.74 C 1165.3 1339.83 1167.36 1338.9 1162.35 1372.54 C 1159.79 1389.74 1143.1 1444.23 1146.05 1454.59 C 1133.6 1466.68 1058.83 1509.05 1054.97 1517.65 C 1045.24 1524.61 1033.6 1531.63 1024.71 1539.12 C 1025.61 1524.26 1025.01 1504.52 1024.98 1489.25 L 1024.9 1400.18 L 1025.45 1398.94 C 1024.91 1395.59 1024.11 1394.01 1022.93 1390.83 C 1032.05 1386.38 1057.7 1367.93 1066.33 1361.82 C 1069.54 1360.17 1071.68 1359.34 1074.26 1356.76 C 1087.56 1348.85 1098.91 1341.29 1111.74 1332.58 L 1111.95 1334.41 C 1105.36 1339.81 1078.83 1355.03 1075.94 1358.56 C 1078.71 1359.76 1077.82 1359.93 1080.71 1358.67 C 1086.85 1356 1113.95 1335.27 1117.73 1334.26 L 1118.11 1335.47 C 1129.78 1329.03 1142.1 1318.29 1154.83 1311.44 z" fill="rgb(199,172,41)" transform="translate(0,0)"></path>
<path d="M 1111.74 1332.58 L 1111.95 1334.41 C 1105.36 1339.81 1078.83 1355.03 1075.94 1358.56 C 1078.71 1359.76 1077.82 1359.93 1080.71 1358.67 C 1086.85 1356 1113.95 1335.27 1117.73 1334.26 L 1118.11 1335.47 L 1048.08 1383.53 C 1042.86 1387.18 1029.74 1395.45 1025.45 1398.94 C 1024.91 1395.59 1024.11 1394.01 1022.93 1390.83 C 1032.05 1386.38 1057.7 1367.93 1066.33 1361.82 C 1069.54 1360.17 1071.68 1359.34 1074.26 1356.76 C 1087.56 1348.85 1098.91 1341.29 1111.74 1332.58 z" fill="rgb(252,238,84)" transform="translate(0,0)"></path>
<path d="M 1589.05 566.628 C 1600.19 579.149 1612.09 595.885 1621.63 609.656 C 1678.08 692.385 1718.1 785.194 1739.51 883.031 C 1747.7 921.751 1749.98 953.107 1754.19 991.507 C 1757.75 1003.26 1757.04 1045.43 1756.93 1058.69 C 1755.29 1076.17 1755.06 1093.7 1753.34 1110.98 L 1751.12 1111.15 C 1729.11 1303.07 1630.24 1477.87 1477.1 1595.62 C 1365.02 1682.91 1216.51 1740.18 1074.47 1748.04 C 1070 1747.89 1065.38 1748.21 1060.9 1748.42 C 1064.71 1741.04 1081.53 1725.69 1088.5 1720.79 C 1095.01 1720.09 1098.06 1719.78 1104.43 1718.13 C 1174.9 1709.45 1245.86 1690.53 1311.01 1662.44 C 1468.63 1594.47 1606.17 1452.88 1671.29 1295.55 C 1677.27 1281.09 1682.78 1266.43 1687.81 1251.6 C 1692.51 1237.38 1716.03 1154.13 1712.76 1146.21 C 1711.99 1138.22 1718.41 1102.09 1719.35 1091.39 C 1723.95 1039.43 1722.64 987.126 1715.46 935.465 C 1714.28 926.876 1712.06 909.965 1709.15 902.224 C 1707.61 899.825 1705.42 889.35 1704.82 886.124 C 1696.81 840.763 1677.56 801.273 1660.09 759.29 C 1634.5 697.767 1600.66 649.4 1560.33 597.254 C 1563.51 593.46 1565.03 590.558 1568.84 586.893 L 1568.7 586.171 C 1574.53 579.336 1581.52 572.673 1588.24 566.717 L 1589.05 566.628 z" fill="url(#Gradient7)" transform="translate(0,0)"></path>
<path d="M 1568.84 586.893 C 1627.71 665.159 1670.01 747.586 1695.57 842.178 C 1698.81 854.175 1708.5 890.77 1709.15 902.224 C 1707.61 899.825 1705.42 889.35 1704.82 886.124 C 1696.81 840.763 1677.56 801.273 1660.09 759.29 C 1634.5 697.767 1600.66 649.4 1560.33 597.254 C 1563.51 593.46 1565.03 590.558 1568.84 586.893 z" fill="url(#Gradient6)" transform="translate(0,0)"></path>
<path d="M 1754.19 991.507 C 1757.75 1003.26 1757.04 1045.43 1756.93 1058.69 C 1755.29 1076.17 1755.06 1093.7 1753.34 1110.98 L 1751.12 1111.15 C 1753.84 1070.09 1757.48 1033.03 1754.19 991.507 z" fill="rgb(88,13,6)" transform="translate(0,0)"></path>
<path d="M 1444.96 790.925 C 1448.65 798.179 1446 809.763 1449.01 813.75 C 1454.18 825.955 1453.79 967.921 1453.13 993.732 C 1447.89 1003.46 1453.22 1026.97 1450.12 1039.56 C 1449.57 1047.03 1449.73 1054.5 1449.78 1061.99 L 1448.94 1075.61 C 1423.95 1100.09 1400.89 1125.88 1376.44 1150.82 C 1365.06 1162.44 1347.88 1181 1334.87 1190.37 C 1323.95 1198.64 1310.35 1208.28 1298.38 1214.83 C 1302.78 1207.14 1329.09 1195.65 1333.15 1188.2 L 1330.59 1187.19 L 1332.26 1186.09 C 1331.73 1111.56 1332.14 1037.02 1333.49 962.495 C 1333.68 952.898 1332.55 896.893 1334.88 892.674 C 1335.07 891.993 1335.21 890.453 1335.31 889.686 L 1333.57 888.73 C 1332.88 884.757 1333.2 879.772 1333.29 875.661 C 1350.73 860.326 1369.79 846.454 1388.38 832.543 C 1407.11 818.537 1425.57 803.97 1444.96 790.925 z" fill="rgb(222,150,53)" transform="translate(0,0)"></path>
<path d="M 1332.26 1186.09 C 1331.73 1111.56 1332.14 1037.02 1333.49 962.495 C 1333.68 952.898 1332.55 896.893 1334.88 892.674 C 1336.47 912.887 1335.93 1183.05 1334.26 1186.68 C 1332.47 1186.32 1333.06 1186.69 1332.26 1186.09 z" fill="rgb(243,220,89)" transform="translate(0,0)"></path>
<path d="M 1449.01 813.75 C 1454.18 825.955 1453.79 967.921 1453.13 993.732 C 1447.89 1003.46 1453.22 1026.97 1450.12 1039.56 C 1448.66 964.8 1451.8 888.61 1449.01 813.75 z" fill="rgb(88,13,6)" transform="translate(0,0)"></path>
<path d="M 1251.4 665.107 C 1263.42 674.874 1316.94 705.123 1323.09 712.601 C 1360.77 739.047 1402.69 763.704 1440.06 790.964 C 1414.81 808.46 1390.78 827.916 1366.12 846.168 C 1358.73 851.64 1340.91 865.966 1333.56 870.171 C 1331.36 867.882 1315.61 857.482 1312.11 855.064 C 1294.87 843.052 1277.56 831.153 1260.17 819.368 C 1253.16 814.622 1235.15 803.052 1229.42 797.832 L 1227.34 797.174 C 1203.65 782.152 1180.62 766.109 1158.31 749.092 C 1189.12 720.579 1220.85 693.73 1251.4 665.107 z" fill="rgb(204,120,43)" transform="translate(0,0)"></path>
<path d="M 1251.4 665.107 C 1263.42 674.874 1316.94 705.123 1323.09 712.601 L 1258.57 772.291 C 1253.79 776.69 1233.96 795.419 1229.42 797.832 L 1227.34 797.174 C 1203.65 782.152 1180.62 766.109 1158.31 749.092 C 1189.12 720.579 1220.85 693.73 1251.4 665.107 z" fill="rgb(238,176,53)" transform="translate(0,0)"></path>
<path d="M 1023.46 533.732 C 1026.37 529.283 1022.63 518.535 1025.14 515.487 L 1026.39 516.47 C 1030.23 519.447 1034.85 521.367 1038.9 524.038 C 1062.69 539.776 1085.76 556.607 1109.52 572.423 C 1122.16 580.84 1135.77 588.143 1148.32 596.645 C 1177.67 616.538 1207.04 636.266 1237.09 655.096 C 1241.37 657.773 1247.61 661.918 1251.4 665.107 C 1220.85 693.73 1189.12 720.579 1158.31 749.092 L 1157.33 748.995 C 1151.42 744.156 1139.96 737.041 1133.13 732.514 C 1120.73 724.276 1108.38 715.938 1096.11 707.499 L 1051.79 677.121 C 1043.56 671.421 1031.59 662.516 1023.36 658.022 C 1022.3 648.391 1022.94 626.924 1022.96 616.745 L 1023.46 533.732 z" fill="rgb(250,204,71)" transform="translate(0,0)"></path>
<path d="M 599.099 1254.87 C 673.418 1300.92 745.406 1351.75 818.467 1399.82 C 821.85 1402.04 825.768 1404.56 829.292 1406.48 L 981.085 1508.44 C 988.928 1513.78 1018.34 1536.73 1024.71 1539.12 C 1033.6 1531.63 1045.24 1524.61 1054.97 1517.65 C 1091.83 1493.52 1128.52 1469.15 1165.05 1444.53 C 1182.48 1432.77 1214.16 1410 1231.17 1400.63 C 1235.2 1400.32 1236.23 1399.29 1239.66 1397.12 L 1241.24 1397.3 C 1241.76 1404.8 1238.31 1397.89 1239.08 1402.37 C 1239.95 1407.36 1241.64 1405.54 1240.57 1411.25 C 1238.22 1413.68 1235.91 1416.14 1233.62 1418.62 L 1233.76 1419.74 C 1238.72 1419.25 1240.18 1413.44 1243.42 1414.14 C 1241.43 1422.36 1196.76 1457.68 1187.75 1463.62 C 1179.42 1469.1 1174.7 1460.07 1162.63 1479.72 C 1134.06 1490.48 1138.53 1506.5 1116.6 1519.3 L 1116.37 1520.5 C 1109.4 1526.9 1033.12 1575.91 1023.31 1580.64 C 1009.49 1569.3 983.071 1553.72 967.062 1542.47 C 934.833 1519.61 902.26 1497.24 869.353 1475.37 C 857.703 1467.51 833.304 1450.09 822.098 1444.25 C 820.843 1442.26 612.96 1303.09 599.3 1295.19 C 599.273 1282.79 599.96 1266.82 599.099 1254.87 z" fill="rgb(148,81,38)" transform="translate(0,0)"></path>
<path d="M 1450.12 1039.56 C 1453.22 1026.97 1447.89 1003.46 1453.13 993.732 C 1455.61 1031.45 1454.35 1083.36 1454.29 1121.64 L 1455.06 1297.51 C 1419.94 1318.82 1387.57 1341.15 1353.46 1363.93 C 1299.96 1400.14 1246.13 1435.85 1191.97 1471.04 C 1169.9 1485.38 1138.64 1508.21 1116.37 1520.5 L 1116.6 1519.3 C 1138.53 1506.5 1134.06 1490.48 1162.63 1479.72 C 1174.7 1460.07 1179.42 1469.1 1187.75 1463.62 C 1196.76 1457.68 1241.43 1422.36 1243.42 1414.14 C 1240.18 1413.44 1238.72 1419.25 1233.76 1419.74 L 1233.62 1418.62 C 1235.91 1416.14 1238.22 1413.68 1240.57 1411.25 C 1241.64 1405.54 1239.95 1407.36 1239.08 1402.37 C 1238.31 1397.89 1241.76 1404.8 1241.24 1397.3 L 1239.66 1397.12 C 1236.23 1399.29 1235.2 1400.32 1231.17 1400.63 C 1302.96 1354.56 1372.8 1305.84 1444.33 1259.21 C 1427.15 1250.55 1401.51 1233.2 1384.91 1222.75 C 1371.23 1214.14 1347.11 1199.71 1334.87 1190.37 C 1347.88 1181 1365.06 1162.44 1376.44 1150.82 C 1400.89 1125.88 1423.95 1100.09 1448.94 1075.61 L 1449.78 1061.99 C 1449.73 1054.5 1449.57 1047.03 1450.12 1039.56 z" fill="rgb(99,44,44)" transform="translate(0,0)"></path>
<path d="M 1449.78 1061.99 C 1450.77 1098.11 1449.05 1138.18 1449.76 1174.78 C 1450.11 1192.45 1450.61 1241.26 1448.48 1256.12 C 1446.65 1257.8 1446.51 1258.08 1444.33 1259.21 C 1427.15 1250.55 1401.51 1233.2 1384.91 1222.75 C 1371.23 1214.14 1347.11 1199.71 1334.87 1190.37 C 1347.88 1181 1365.06 1162.44 1376.44 1150.82 C 1400.89 1125.88 1423.95 1100.09 1448.94 1075.61 L 1449.78 1061.99 z" fill="rgb(184,74,20)" transform="translate(0,0)"></path>
<path d="M 895.632 1705.72 C 950.629 1715.01 1003.52 1721.35 1059.41 1717.83 C 1064.12 1717.53 1072.97 1716.86 1077.43 1717.2 C 1088.54 1719.8 1094.2 1715.37 1104.43 1718.13 C 1098.06 1719.78 1095.01 1720.09 1088.5 1720.79 C 1081.53 1725.69 1064.71 1741.04 1060.9 1748.42 C 1057.77 1748.99 1043.47 1749.5 1039.98 1749.49 C 988.057 1749.41 912.64 1744.61 862.913 1729.78 C 869.011 1727.75 878.906 1733.53 887.021 1733.67 L 887.801 1732.82 C 885.65 1730.39 885.926 1731.05 884.546 1728.26 C 885.548 1726.5 886.75 1724.4 888.152 1721.94 C 893.84 1719.87 901.854 1718.59 906.547 1714.55 C 908.581 1712.8 908.156 1712.63 908.238 1710.33 C 904.365 1706.86 901.85 1709.71 895.632 1705.72 z" fill="rgb(222,150,53)" transform="translate(0,0)"></path>
<path d="M 1712.76 1146.21 C 1716.03 1154.13 1692.51 1237.38 1687.81 1251.6 C 1682.78 1266.43 1677.27 1281.09 1671.29 1295.55 C 1606.17 1452.88 1468.63 1594.47 1311.01 1662.44 C 1245.86 1690.53 1174.9 1709.45 1104.43 1718.13 C 1094.2 1715.37 1088.54 1719.8 1077.43 1717.2 C 1177.7 1711.34 1286.69 1676.63 1373.58 1626.85 C 1481.35 1564.57 1570.61 1474.74 1632.21 1366.58 C 1650.52 1334.81 1661.28 1314.34 1674.58 1279.71 C 1685.37 1251.31 1694.54 1222.32 1702.04 1192.88 C 1705.86 1177.64 1708.69 1161.17 1712.76 1146.21 z" fill="rgb(238,176,53)" transform="translate(0,0)"></path>
<path d="M 1021.85 513.08 C 1024.67 510.636 1023.12 511.128 1026.45 511.063 C 1031.47 513.999 1036.13 517.873 1041.23 521.104 C 1078.07 544.448 1114.2 572.115 1151.74 594.088 C 1176.16 611.283 1202.48 628.238 1227.38 644.92 C 1262.52 668.821 1297.85 692.431 1333.37 715.749 C 1368.24 738.594 1411.97 766.541 1444.96 790.925 C 1425.57 803.97 1407.11 818.537 1388.38 832.543 C 1369.79 846.454 1350.73 860.326 1333.29 875.661 L 1333.04 874.826 L 1333.56 870.171 C 1340.91 865.966 1358.73 851.64 1366.12 846.168 C 1390.78 827.916 1414.81 808.46 1440.06 790.964 C 1402.69 763.704 1360.77 739.047 1323.09 712.601 C 1316.94 705.123 1263.42 674.874 1251.4 665.107 C 1247.61 661.918 1241.37 657.773 1237.09 655.096 C 1207.04 636.266 1177.67 616.538 1148.32 596.645 C 1135.77 588.143 1122.16 580.84 1109.52 572.423 C 1085.76 556.607 1062.69 539.776 1038.9 524.038 C 1034.85 521.367 1030.23 519.447 1026.39 516.47 L 1025.14 515.487 C 1022.63 518.535 1026.37 529.283 1023.46 533.732 C 1023.57 527.904 1024.38 517.843 1021.85 513.08 z" fill="rgb(243,220,89)" transform="translate(0,0)"></path>
<path d="M 872.786 180.893 C 955.585 163.237 1056.73 162.812 1140.25 175.431 C 1297.49 195.034 1455.82 271.461 1576.17 373.748 C 1609.33 401.935 1643.89 438.925 1672.45 471.737 C 1667.32 479.605 1641.68 504.339 1633.09 514.594 C 1627.87 509.2 1616 494.383 1611.42 491.309 L 1610.27 491.936 C 1617.98 500.823 1625.8 509.619 1633.72 518.324 C 1624.72 530.702 1600.39 555.741 1589.05 566.628 L 1588.24 566.717 C 1581.52 572.673 1574.53 579.336 1568.7 586.171 L 1568.84 586.893 C 1565.03 590.558 1563.51 593.46 1560.33 597.254 C 1524.02 551.945 1469.09 498.7 1419.87 467.348 C 1414.03 461.689 1362.53 429.63 1353.82 425.309 C 1309.41 401.671 1275.99 387.969 1227.98 373.386 C 1098.59 334.079 960.288 330.397 831.201 372.93 C 826.019 374.637 819.606 375.177 813.976 377.046 C 664.293 425.856 535.788 524.36 449.769 656.223 C 443.079 666.381 436.07 676.763 429.805 687.142 C 408.038 723.202 387.179 765.969 371.244 804.791 C 351.077 854.769 337.688 907.221 331.432 960.75 C 329.529 977.493 328.268 994.302 327.651 1011.14 C 327.471 1016.73 327.628 1035.65 326.919 1039.91 C 324.713 1047.31 326.249 1055.67 324.747 1064.51 C 327.561 1105.67 334.272 1141.01 343.584 1180.97 C 344.655 1188.29 352.018 1215.65 355.271 1222.22 C 395.281 1335.73 442.373 1417.31 525.956 1504.61 C 540.426 1519.72 571.948 1550.49 588.795 1562.43 C 602.565 1574.22 621.022 1586.02 636.09 1596.15 C 694.42 1635.35 754.021 1665.18 821.217 1686.36 C 834.54 1690.45 847.972 1694.16 861.501 1697.5 C 867.109 1698.88 892.467 1703.99 895.632 1705.72 C 901.85 1709.71 904.365 1706.86 908.238 1710.33 C 908.156 1712.63 908.581 1712.8 906.547 1714.55 C 901.854 1718.59 893.84 1719.87 888.152 1721.94 C 886.75 1724.4 885.548 1726.5 884.546 1728.26 C 885.926 1731.05 885.65 1730.39 887.801 1732.82 L 887.021 1733.67 C 878.906 1733.53 869.011 1727.75 862.913 1729.78 C 841.872 1727.71 798.152 1711.7 777.766 1704.29 C 641.171 1655.78 521.996 1567.91 435.268 1451.77 C 414.921 1424.16 396.611 1395.1 380.482 1364.83 C 378.287 1359.11 365.542 1334.67 362.437 1329.22 C 360.956 1325.36 358.141 1319.83 356.322 1315.95 C 354.802 1311.59 352.381 1306.23 350.45 1301.96 C 338.482 1275.5 328.835 1249.55 320.548 1221.72 C 318.28 1203.58 307.218 1178.36 303.881 1158.13 C 291.236 1081.46 283.404 994.236 295.827 917.08 C 281.385 931.137 266.833 945.081 252.174 958.911 C 244.858 965.858 231.164 976.199 229.463 985.58 C 228.204 982.957 228.561 979.632 228.518 976.5 C 233.47 866.558 262.377 772.847 308.481 674.138 C 308.551 660.804 356.384 588.608 365.378 575.62 C 349.673 585.122 334.586 595.606 320.294 607.131 C 307.729 617.263 294.372 621.983 278.782 614.833 C 269.639 623.706 266.422 644.128 256.23 652.903 C 268.98 621.932 301.806 572.688 321.338 543.694 C 449.299 353.941 647.881 223.293 872.786 180.893 z" fill="url(#Gradient5)" transform="translate(0,0)"></path>
<path d="M 872.786 180.893 C 955.585 163.237 1056.73 162.812 1140.25 175.431 C 1133.13 177.025 1107.99 172.822 1099.06 171.812 C 1094.43 178.062 1084.09 187.051 1078.09 192.783 C 1065.47 204.845 1054.98 216.372 1043.8 229.603 C 1060.4 230.809 1109.69 231.973 1123.37 237.057 C 1118.31 236.878 1112.62 235.965 1107.53 235.449 C 1084.05 233.069 1059.97 231.161 1036.36 230.987 C 1033.84 231.767 978.525 287.376 972.714 293.322 L 970.777 293.623 C 963.885 294.664 955.275 295.36 948.249 295.87 C 919.817 297.935 893.047 302.207 865.222 308.473 C 690.49 348.206 535.857 449.413 429.516 593.64 C 355.042 693.553 315.969 794.942 295.827 917.08 C 281.385 931.137 266.833 945.081 252.174 958.911 C 244.858 965.858 231.164 976.199 229.463 985.58 C 228.204 982.957 228.561 979.632 228.518 976.5 C 233.47 866.558 262.377 772.847 308.481 674.138 C 308.551 660.804 356.384 588.608 365.378 575.62 C 349.673 585.122 334.586 595.606 320.294 607.131 C 307.729 617.263 294.372 621.983 278.782 614.833 C 269.639 623.706 266.422 644.128 256.23 652.903 C 268.98 621.932 301.806 572.688 321.338 543.694 C 449.299 353.941 647.881 223.293 872.786 180.893 z" fill="url(#Gradient4)" transform="translate(0,0)"></path>
<path d="M 872.786 180.893 C 955.585 163.237 1056.73 162.812 1140.25 175.431 C 1133.13 177.025 1107.99 172.822 1099.06 171.812 C 1094.43 178.062 1084.09 187.051 1078.09 192.783 C 1065.47 204.845 1054.98 216.372 1043.8 229.603 C 1060.4 230.809 1109.69 231.973 1123.37 237.057 C 1118.31 236.878 1112.62 235.965 1107.53 235.449 C 1084.05 233.069 1059.97 231.161 1036.36 230.987 C 997.316 230.758 960.188 231.99 921.412 237.495 C 898.672 240.723 875.873 246.684 853.638 250.16 C 837.992 254.202 821.067 257.833 805.806 262.44 C 689.983 297.397 588.679 348.827 497.697 429.29 C 485.08 440.449 444.097 478.45 436.708 490.529 C 421.641 506.091 407.964 521.04 395.27 538.699 C 369.725 567.841 339.076 617.193 320.318 651.658 C 318.341 655.291 310.241 672.621 308.481 674.138 C 308.551 660.804 356.384 588.608 365.378 575.62 C 349.673 585.122 334.586 595.606 320.294 607.131 C 307.729 617.263 294.372 621.983 278.782 614.833 C 269.639 623.706 266.422 644.128 256.23 652.903 C 268.98 621.932 301.806 572.688 321.338 543.694 C 449.299 353.941 647.881 223.293 872.786 180.893 z" fill="url(#Gradient3)" transform="translate(0,0)"></path>
<path d="M 436.708 490.529 L 437.238 492.198 C 435.156 494.966 433.039 497.706 430.886 500.418 C 436.232 502.801 462.306 501.845 470.546 504.502 C 468.482 505.798 466.319 504.631 463.241 504.301 C 455.889 503.513 447.56 503.896 440.108 504 C 432.204 513.476 418.742 514.348 409.748 522.683 C 404.907 527.169 401.101 536.888 395.27 538.699 C 407.964 521.04 421.641 506.091 436.708 490.529 z" fill="rgb(252,238,84)" transform="translate(0,0)"></path>
<path d="M 1123.37 237.057 C 1109.69 231.973 1060.4 230.809 1043.8 229.603 C 1054.98 216.372 1065.47 204.845 1078.09 192.783 C 1084.09 187.051 1094.43 178.062 1099.06 171.812 C 1107.99 172.822 1133.13 177.025 1140.25 175.431 C 1297.49 195.034 1455.82 271.461 1576.17 373.748 C 1609.33 401.935 1643.89 438.925 1672.45 471.737 C 1667.32 479.605 1641.68 504.339 1633.09 514.594 C 1627.87 509.2 1616 494.383 1611.42 491.309 L 1610.27 491.936 C 1592.82 476.86 1571.54 451.957 1552.96 435.205 C 1496.98 384.099 1433.78 341.527 1365.38 308.862 C 1347.22 300.072 1318.34 287.105 1299.06 281.473 C 1252.71 264.377 1208.45 250.609 1159.5 243.275 C 1148.98 241.698 1134.85 239.865 1124.7 237.39 L 1123.37 237.057 z" fill="rgb(204,120,43)" transform="translate(0,0)"></path>
<path d="M 324.747 1064.51 C 323.974 1059.77 323.641 1054.47 323.349 1049.66 C 300.54 673.63 600.331 346.474 976.197 321.818 C 1087.1 314.807 1198.08 334.387 1299.9 378.926 C 1308 382.47 1341.58 397.452 1347.42 402.571 C 1408.1 432.231 1478.42 486.267 1524.75 535.35 C 1539.76 551.255 1554.41 569.576 1568.7 586.171 L 1568.84 586.893 C 1565.03 590.558 1563.51 593.46 1560.33 597.254 C 1524.02 551.945 1469.09 498.7 1419.87 467.348 C 1414.03 461.689 1362.53 429.63 1353.82 425.309 C 1309.41 401.671 1275.99 387.969 1227.98 373.386 C 1098.59 334.079 960.288 330.397 831.201 372.93 C 826.019 374.637 819.606 375.177 813.976 377.046 C 664.293 425.856 535.788 524.36 449.769 656.223 C 443.079 666.381 436.07 676.763 429.805 687.142 C 408.038 723.202 387.179 765.969 371.244 804.791 C 351.077 854.769 337.688 907.221 331.432 960.75 C 329.529 977.493 328.268 994.302 327.651 1011.14 C 327.471 1016.73 327.628 1035.65 326.919 1039.91 C 324.713 1047.31 326.249 1055.67 324.747 1064.51 z" fill="rgb(222,150,53)" transform="translate(0,0)"></path>
<path d="M 1353.82 425.309 L 1353.94 424.249 C 1358.86 425.432 1383.36 441.032 1388.14 444.481 C 1400.07 453.321 1414.4 460.621 1426.29 469.264 C 1456.87 491.495 1486.36 515.757 1513.19 542.419 C 1520.54 549.719 1527.13 556.971 1534.9 563.823 C 1538.07 563.726 1538.27 563.228 1540.9 561.449 C 1542.35 556.166 1539.42 554.296 1536.13 550.53 C 1489.85 497.537 1433.31 454.392 1373.21 418.251 C 1364.96 413.291 1355.76 408.677 1347.16 403.777 L 1347.42 402.571 C 1408.1 432.231 1478.42 486.267 1524.75 535.35 C 1539.76 551.255 1554.41 569.576 1568.7 586.171 L 1568.84 586.893 C 1565.03 590.558 1563.51 593.46 1560.33 597.254 C 1524.02 551.945 1469.09 498.7 1419.87 467.348 C 1414.03 461.689 1362.53 429.63 1353.82 425.309 z" fill="rgb(148,81,38)" transform="translate(0,0)"></path>
<path d="M 1299.06 281.473 C 1318.34 287.105 1347.22 300.072 1365.38 308.862 C 1433.78 341.527 1496.98 384.099 1552.96 435.205 C 1571.54 451.957 1592.82 476.86 1610.27 491.936 C 1617.98 500.823 1625.8 509.619 1633.72 518.324 C 1624.72 530.702 1600.39 555.741 1589.05 566.628 L 1588.24 566.717 C 1583.13 556.447 1559.05 531.499 1550.82 522.196 C 1470.63 431.538 1360.95 365.67 1246.72 327.57 C 1247.52 324.378 1292.9 286.284 1299.06 281.473 z" fill="rgb(222,150,53)" transform="translate(0,0)"></path>
<path d="M 1036.36 230.987 C 1059.97 231.161 1084.05 233.069 1107.53 235.449 C 1112.62 235.965 1118.31 236.878 1123.37 237.057 L 1124.7 237.39 C 1134.85 239.865 1148.98 241.698 1159.5 243.275 C 1208.45 250.609 1252.71 264.377 1299.06 281.473 C 1292.9 286.284 1247.52 324.378 1246.72 327.57 C 1242.7 326.991 1225.09 321.511 1220.15 320.087 C 1205.99 315.892 1191.66 312.305 1177.19 309.334 C 1098.05 292.581 1052.27 289.831 972.714 293.322 C 978.525 287.376 1033.84 231.767 1036.36 230.987 z" fill="rgb(238,176,53)" transform="translate(0,0)"></path>
<path d="M 1729.43 1507.99 C 1766.98 1450.65 1801.12 1393.2 1823.47 1328.02 C 1827.4 1316.57 1831.62 1304.06 1836.23 1292.92 C 1836.76 1305.47 1830.07 1323.15 1830.84 1327.31 L 1832.35 1327.59 C 1834.07 1326.02 1835.07 1324.93 1836.63 1323.19 C 1837.09 1333.9 1816.69 1381.14 1811.9 1395.92 C 1779.62 1495.62 1727.86 1599.08 1654.92 1675.34 C 1637.98 1693.05 1621.42 1710.62 1604.22 1727.72 C 1377.51 1953.16 999.706 2035.46 707.183 1897.19 C 671.877 1880.5 631.811 1866.22 598.88 1843.98 C 517.284 1788.84 434.795 1724.67 375.901 1644.86 C 371.419 1640.69 366.792 1631.85 362.954 1627.84 C 314.46 1577.22 297.817 1524.6 271.919 1462.46 L 251.189 1412.35 C 242.666 1391.72 238.144 1380.55 233.98 1358.08 C 231.756 1346.08 216.575 1322.72 217.635 1309.59 C 223.95 1323.67 228.971 1339.18 234.985 1353.67 C 275.81 1452.03 329.739 1532.01 401.199 1610.79 C 405.18 1614.02 413.78 1623.12 417.743 1627.14 C 428.176 1637.72 437.742 1647.19 448.878 1657.05 C 622.537 1813.02 851.828 1892.24 1084.73 1876.75 C 1237.25 1867.39 1384.29 1816.44 1509.89 1729.43 C 1556.45 1696.69 1605.24 1652.91 1644.87 1611.83 C 1665.52 1590.66 1684.76 1568.17 1702.48 1544.49 C 1708.29 1536.82 1723.21 1514.82 1728.42 1509.08 L 1729.43 1507.99 z" fill="rgb(175,173,179)" transform="translate(0,0)"></path>
<path d="M 1729.43 1507.99 C 1728.03 1515.18 1711.57 1536.41 1706.17 1543.5 C 1646.88 1621.05 1575.42 1688.48 1494.57 1743.18 C 1481.88 1751.78 1464.56 1760.62 1451 1768.15 C 1424.33 1782.95 1397.89 1798.04 1369.83 1810.09 C 1360.55 1814.07 1350.97 1821.16 1342.19 1824.65 C 1324.65 1831.64 1305.82 1837.13 1287.81 1842.92 C 1279.21 1845.68 1268.86 1850.88 1260.43 1853.41 C 1241.66 1859.04 1221.47 1864.79 1202.5 1869.6 C 1189.04 1872.35 1175.35 1874.18 1161.82 1876.57 C 1144.16 1879.68 1126.43 1881.95 1108.59 1883.65 C 1096.59 1884.79 1083.45 1887.62 1071.55 1888.21 C 1044.73 1889.52 1017.42 1888.36 990.604 1887.4 C 975.202 1886.53 952.628 1880.63 936.62 1879.11 C 902.4 1875.88 869.011 1868.96 835.079 1863.73 C 824.091 1862.04 810.109 1852.61 799.042 1850.43 C 793.264 1849.29 783.382 1845.86 777.522 1844 C 759.482 1838.48 741.63 1832.35 723.998 1825.64 C 711.171 1820.82 702.636 1816.83 689.104 1814.1 C 678.187 1811.9 658.287 1798.57 647.462 1793.12 C 633.182 1785.93 618.416 1778.36 604.593 1770.55 C 554.757 1742.3 507.59 1709.58 463.674 1672.8 C 454.738 1665.21 402.814 1618.17 401.199 1610.79 C 405.18 1614.02 413.78 1623.12 417.743 1627.14 C 428.176 1637.72 437.742 1647.19 448.878 1657.05 C 622.537 1813.02 851.828 1892.24 1084.73 1876.75 C 1237.25 1867.39 1384.29 1816.44 1509.89 1729.43 C 1556.45 1696.69 1605.24 1652.91 1644.87 1611.83 C 1665.52 1590.66 1684.76 1568.17 1702.48 1544.49 C 1708.29 1536.82 1723.21 1514.82 1728.42 1509.08 L 1729.43 1507.99 z" fill="rgb(136,136,154)" transform="translate(0,0)"></path>
<path d="M 365.378 575.62 C 356.384 588.608 308.551 660.804 308.481 674.138 C 262.377 772.847 233.47 866.558 228.518 976.5 C 228.561 979.632 228.204 982.957 229.463 985.58 C 231.164 976.199 244.858 965.858 252.174 958.911 C 266.833 945.081 281.385 931.137 295.827 917.08 C 283.404 994.236 291.236 1081.46 303.881 1158.13 C 307.218 1178.36 318.28 1203.58 320.548 1221.72 C 328.835 1249.55 338.482 1275.5 350.45 1301.96 C 352.381 1306.23 354.802 1311.59 356.322 1315.95 C 358.141 1319.83 360.956 1325.36 362.437 1329.22 C 365.542 1334.67 378.287 1359.11 380.482 1364.83 C 396.611 1395.1 414.921 1424.16 435.268 1451.77 L 434.486 1454.69 C 461.197 1492.6 483.624 1520.1 516.801 1552.6 C 529.556 1565.09 543.155 1576.88 555.458 1588.82 C 540.97 1602.07 524.741 1617.39 510.873 1631.33 C 507.184 1628.42 503.814 1625.55 500.262 1622.49 C 494.972 1629.85 475.944 1650.8 468.835 1656.97 C 460.089 1650.69 442.391 1633.64 434.419 1626.03 C 375.009 1569.87 324.233 1505.24 283.739 1434.22 C 277.779 1423.54 268.916 1408.06 264.24 1396.97 C 261.111 1392.6 249.139 1366.97 246.675 1361.64 C 212.712 1287.81 190.104 1209.27 179.616 1128.68 C 179.327 1131.87 179.19 1135 178.372 1138.09 C 175.282 1116.75 173.537 1094.22 171.917 1072.73 C 169.637 1064.11 170.072 1019.05 170.132 1008.85 C 170.746 903.738 193.704 798.157 233.87 701.188 C 239.734 687.031 248.803 665.827 256.23 652.903 C 266.422 644.128 269.639 623.706 278.782 614.833 C 294.372 621.983 307.729 617.263 320.294 607.131 C 334.586 595.606 349.673 585.122 365.378 575.62 z" fill="rgb(204,120,43)" transform="translate(0,0)"></path>
<path d="M 275.114 1294 C 278.402 1293.41 281.609 1290.64 284.264 1288.64 C 293.271 1281.84 324.67 1253.63 324.394 1243.17 C 324.222 1236.67 318.555 1229.54 320.084 1222.93 C 320.182 1222.51 320.393 1222.12 320.548 1221.72 C 328.835 1249.55 338.482 1275.5 350.45 1301.96 C 352.381 1306.23 354.802 1311.59 356.322 1315.95 C 358.141 1319.83 360.956 1325.36 362.437 1329.22 C 365.542 1334.67 378.287 1359.11 380.482 1364.83 C 396.611 1395.1 414.921 1424.16 435.268 1451.77 L 434.486 1454.69 C 461.197 1492.6 483.624 1520.1 516.801 1552.6 C 529.556 1565.09 543.155 1576.88 555.458 1588.82 C 540.97 1602.07 524.741 1617.39 510.873 1631.33 C 507.184 1628.42 503.814 1625.55 500.262 1622.49 C 487.594 1610.4 474.398 1599.78 461.574 1587.02 C 422.969 1548.12 387.973 1505.79 357.016 1460.56 C 344.913 1442.79 335.919 1423.38 325.448 1407.94 L 324.973 1407.25 C 324.117 1402.52 321.28 1398.25 319.114 1393.95 C 302.886 1361.69 287.128 1328.09 275.114 1294 z" fill="rgb(222,150,53)" transform="translate(0,0)"></path>
<path d="M 434.486 1454.69 C 421.053 1437.11 387.582 1385.8 379.801 1366.28 L 380.482 1364.83 C 396.611 1395.1 414.921 1424.16 435.268 1451.77 L 434.486 1454.69 z" fill="rgb(148,81,38)" transform="translate(0,0)"></path>
<path d="M 362.437 1329.22 C 359.357 1326.91 355.104 1319.66 356.322 1315.95 C 358.141 1319.83 360.956 1325.36 362.437 1329.22 z" fill="rgb(204,120,43)" transform="translate(0,0)"></path>
<path d="M 228.518 976.5 C 228.561 979.632 228.204 982.957 229.463 985.58 C 231.164 976.199 244.858 965.858 252.174 958.911 C 266.833 945.081 281.385 931.137 295.827 917.08 C 283.404 994.236 291.236 1081.46 303.881 1158.13 C 307.218 1178.36 318.28 1203.58 320.548 1221.72 C 320.393 1222.12 320.182 1222.51 320.084 1222.93 C 318.555 1229.54 324.222 1236.67 324.394 1243.17 C 324.67 1253.63 293.271 1281.84 284.264 1288.64 C 281.609 1290.64 278.402 1293.41 275.114 1294 C 274.1 1288.89 267.149 1269.72 265.169 1263.88 C 260.043 1248.86 255.46 1233.66 251.429 1218.3 C 234.158 1152.63 221.93 1044.55 228.518 976.5 z" fill="rgb(238,176,53)" transform="translate(0,0)"></path>
<path d="M 264.24 1396.97 C 264.594 1397.29 264.948 1397.6 265.303 1397.92 C 273.614 1408.95 285.091 1433.31 291.318 1444.38 C 302.667 1464.58 365.971 1556.53 380.563 1564.89 C 386.141 1564.51 400.726 1557.62 409.477 1558.43 C 413.791 1558.83 413.949 1550.64 426.366 1552.12 C 392.089 1512.82 358.274 1469.06 332.656 1423.48 C 330.629 1419.87 325.21 1411.02 324.973 1407.25 L 325.448 1407.94 C 335.919 1423.38 344.913 1442.79 357.016 1460.56 C 387.973 1505.79 422.969 1548.12 461.574 1587.02 C 474.398 1599.78 487.594 1610.4 500.262 1622.49 C 494.972 1629.85 475.944 1650.8 468.835 1656.97 C 460.089 1650.69 442.391 1633.64 434.419 1626.03 C 375.009 1569.87 324.233 1505.24 283.739 1434.22 C 277.779 1423.54 268.916 1408.06 264.24 1396.97 z" fill="rgb(148,81,38)" transform="translate(0,0)"></path>
<path d="M 171.917 1072.73 C 175.036 1079.88 178.189 1118.01 179.616 1128.68 C 179.327 1131.87 179.19 1135 178.372 1138.09 C 175.282 1116.75 173.537 1094.22 171.917 1072.73 z" fill="rgb(88,13,6)" transform="translate(0,0)"></path>
<path d="M 1820.39 997.497 C 1821.7 1007.71 1820.65 1023.23 1820.38 1033.77 C 1819.61 1064.05 1817.18 1092.89 1812.51 1122.79 C 1805.26 1169.17 1795.82 1216.56 1781.03 1261.24 C 1750.52 1353.41 1700.15 1444.2 1640.31 1520.6 C 1517.45 1677.48 1326.62 1784.82 1129.09 1810.05 C 1080.02 1816.32 1043.08 1816.95 995.008 1817.21 L 988.619 1816.17 L 989.606 1816.19 C 990.659 1816.2 994.203 1816.25 994.859 1815.74 C 1011 1803.29 1028.37 1780.09 1042.69 1766.13 C 1044.64 1764.03 1044.69 1763.96 1047.08 1762.4 C 1052.12 1759.67 1056.42 1754.64 1060.54 1750.45 C 1060.84 1750.45 1061.14 1750.45 1061.45 1750.44 L 1062.96 1750.4 C 1068.71 1750.25 1069.06 1750.3 1074.47 1748.04 C 1216.51 1740.18 1365.02 1682.91 1477.1 1595.62 C 1630.24 1477.87 1729.11 1303.07 1751.12 1111.15 L 1753.34 1110.98 C 1755.06 1093.7 1755.29 1076.17 1756.93 1058.69 C 1764.86 1054.03 1817.95 1005.01 1820.39 997.497 z" fill="rgb(148,81,38)" transform="translate(0,0)"></path>
<path d="M 1751.12 1111.15 L 1753.34 1110.98 C 1752.79 1134.65 1746.48 1168.93 1742.16 1192.23 C 1717.27 1334.32 1647.03 1464.52 1541.95 1563.35 C 1421.94 1676.32 1267.31 1745.47 1103.1 1759.62 C 1087.34 1760.84 1067.04 1762.89 1051.63 1762.54 C 1050.11 1762.51 1048.6 1762.46 1047.08 1762.4 C 1052.12 1759.67 1056.42 1754.64 1060.54 1750.45 C 1060.84 1750.45 1061.14 1750.45 1061.45 1750.44 L 1062.96 1750.4 C 1068.71 1750.25 1069.06 1750.3 1074.47 1748.04 C 1216.51 1740.18 1365.02 1682.91 1477.1 1595.62 C 1630.24 1477.87 1729.11 1303.07 1751.12 1111.15 z" fill="rgb(99,44,44)" transform="translate(0,0)"></path>
<path d="M 435.268 1451.77 C 521.996 1567.91 641.171 1655.78 777.766 1704.29 C 798.152 1711.7 841.872 1727.71 862.913 1729.78 C 912.64 1744.61 988.057 1749.41 1039.98 1749.49 C 1043.47 1749.5 1057.77 1748.99 1060.9 1748.42 C 1065.38 1748.21 1070 1747.89 1074.47 1748.04 C 1069.06 1750.3 1068.71 1750.25 1062.96 1750.4 L 1061.45 1750.44 C 1061.14 1750.45 1060.84 1750.45 1060.54 1750.45 C 1056.42 1754.64 1052.12 1759.67 1047.08 1762.4 C 1044.69 1763.96 1044.64 1764.03 1042.69 1766.13 C 1028.37 1780.09 1011 1803.29 994.859 1815.74 C 994.203 1816.25 990.659 1816.2 989.606 1816.19 L 988.619 1816.17 C 969.055 1815.4 942.912 1812.24 923.581 1809.64 C 797.758 1793 677.498 1747.45 572.218 1676.56 C 553.259 1663.84 527.729 1647.08 510.873 1631.33 C 524.741 1617.39 540.97 1602.07 555.458 1588.82 C 543.155 1576.88 529.556 1565.09 516.801 1552.6 C 483.624 1520.1 461.197 1492.6 434.486 1454.69 L 435.268 1451.77 z" fill="url(#Gradient2)" transform="translate(0,0)"></path>
<path d="M 435.268 1451.77 C 521.996 1567.91 641.171 1655.78 777.766 1704.29 C 798.152 1711.7 841.872 1727.71 862.913 1729.78 C 912.64 1744.61 988.057 1749.41 1039.98 1749.49 C 1043.47 1749.5 1057.77 1748.99 1060.9 1748.42 C 1065.38 1748.21 1070 1747.89 1074.47 1748.04 C 1069.06 1750.3 1068.71 1750.25 1062.96 1750.4 L 1061.45 1750.44 C 1061.14 1750.45 1060.84 1750.45 1060.54 1750.45 C 1056.42 1754.64 1052.12 1759.67 1047.08 1762.4 C 1044.69 1763.96 1044.64 1764.03 1042.69 1766.13 C 1038.91 1763.66 994.487 1764.35 985.456 1763.77 C 967.355 1762.58 949.308 1760.66 931.361 1758.02 C 813.283 1740.53 701.069 1695.17 604.005 1625.7 C 587.421 1613.95 570.616 1602.37 555.458 1588.82 C 543.155 1576.88 529.556 1565.09 516.801 1552.6 C 483.624 1520.1 461.197 1492.6 434.486 1454.69 L 435.268 1451.77 z" fill="rgb(148,81,38)" transform="translate(0,0)"></path>
<path d="M 1633.09 514.594 C 1641.68 504.339 1667.32 479.605 1672.45 471.737 L 1674.58 474.857 C 1663.66 483.467 1643.05 506.043 1633.98 516.929 C 1655.03 541.355 1669.34 562.476 1687.28 588.319 C 1750.83 679.851 1793.49 781.751 1811.02 891.965 C 1816.88 928.884 1817.96 960.443 1820.39 997.497 C 1817.95 1005.01 1764.86 1054.03 1756.93 1058.69 C 1757.04 1045.43 1757.75 1003.26 1754.19 991.507 C 1749.98 953.107 1747.7 921.751 1739.51 883.031 C 1718.1 785.194 1678.08 692.385 1621.63 609.656 C 1612.09 595.885 1600.19 579.149 1589.05 566.628 C 1600.39 555.741 1624.72 530.702 1633.72 518.324 C 1625.8 509.619 1617.98 500.823 1610.27 491.936 L 1611.42 491.309 C 1616 494.383 1627.87 509.2 1633.09 514.594 z" fill="rgb(171,113,51)" transform="translate(0,0)"></path>
<path d="M 500.262 1622.49 C 503.814 1625.55 507.184 1628.42 510.873 1631.33 C 527.729 1647.08 553.259 1663.84 572.218 1676.56 C 677.498 1747.45 797.758 1793 923.581 1809.64 C 942.912 1812.24 969.055 1815.4 988.619 1816.17 L 995.008 1817.21 C 986.054 1829.16 961.346 1852.53 950.095 1863.66 C 949.694 1863.66 949.294 1863.66 948.893 1863.66 C 801.946 1851.41 654.337 1794.66 534.434 1709.35 C 510.898 1692.61 487.887 1676.21 468.835 1656.97 C 475.944 1650.8 494.972 1629.85 500.262 1622.49 z" fill="url(#Gradient1)" transform="translate(0,0)"></path>
<path d="M 1865.05 1176.95 C 1875.58 1194.98 1853.45 1334.19 1844.78 1361.9 C 1839 1380.37 1827.35 1423.11 1820.42 1441.77 C 1818.66 1437.38 1854.13 1336.88 1850.82 1319.79 L 1847.28 1321.62 C 1845.18 1320.83 1845.99 1321.5 1844.83 1319.63 C 1844.58 1321.22 1842.16 1332.48 1841.68 1334.18 L 1840 1332.69 C 1837.4 1327.68 1842.05 1318.84 1840.71 1313.04 C 1839.85 1314.21 1837.81 1320.73 1836.63 1323.19 C 1835.07 1324.93 1834.07 1326.02 1832.35 1327.59 L 1830.84 1327.31 C 1830.07 1323.15 1836.76 1305.47 1836.23 1292.92 C 1836.85 1288.18 1845.43 1262.07 1847.21 1256.42 C 1848.16 1249.38 1855.42 1224.58 1857.59 1214.35 C 1860.61 1202.8 1862.39 1189.01 1865.05 1176.95 z" fill="rgb(236,237,227)" transform="translate(0,0)"></path>
<path d="M 1847.21 1256.42 C 1848.16 1249.38 1855.42 1224.58 1857.59 1214.35 C 1862.19 1224.46 1847.56 1302.43 1844.83 1319.63 C 1844.58 1321.22 1842.16 1332.48 1841.68 1334.18 L 1840 1332.69 C 1837.4 1327.68 1842.05 1318.84 1840.71 1313.04 C 1839.85 1314.21 1837.81 1320.73 1836.63 1323.19 C 1835.07 1324.93 1834.07 1326.02 1832.35 1327.59 L 1830.84 1327.31 C 1830.07 1323.15 1836.76 1305.47 1836.23 1292.92 C 1836.85 1288.18 1845.43 1262.07 1847.21 1256.42 z" fill="rgb(215,214,209)" transform="translate(0,0)"></path>
<metadata><recraft-signature>{"signed_by": "recraft", "signature_b64": "VHflH2sLnmpMZehvKQbV2rfNxEjKYvoY/80aP2fZBPxcfJiFtkZ5WHo8dMGqN5mEHxMh7PDQm1MBaH6/ZSzBAg==", "signing_algo": "Ed25519", "generation_timestamp": 1783513099, "identifier": "e09f98d2-a2d3-435e-b449-d15dafdf1211"}</recraft-signature></metadata></svg>