<svg xmlns="http://www.w3.org/2000/svg" height="1024" preserveAspectRatio="none" style="display: block;" version="1.1" viewBox="0 0 2048 2048" width="1024">
<defs>
	<linearGradient gradientUnits="userSpaceOnUse" id="Gradient1" x1="585.955" x2="572.423" y1="712.015" y2="705.164">
		<stop class="stop0" offset="0" stop-color="rgb(123,113,153)" stop-opacity="1"></stop>
		<stop class="stop1" offset="1" stop-color="rgb(149,132,165)" stop-opacity="1"></stop>
	</linearGradient>
	<linearGradient gradientUnits="userSpaceOnUse" id="Gradient2" x1="1224.62" x2="1206.45" y1="1001.27" y2="981.508">
		<stop class="stop0" offset="0" stop-color="rgb(35,96,159)" stop-opacity="1"></stop>
		<stop class="stop1" offset="1" stop-color="rgb(49,118,182)" stop-opacity="1"></stop>
	</linearGradient>
	<linearGradient gradientUnits="userSpaceOnUse" id="Gradient3" x1="1165.95" x2="1135.04" y1="1000.62" y2="970.419">
		<stop class="stop0" offset="0" stop-color="rgb(225,227,238)" stop-opacity="1"></stop>
		<stop class="stop1" offset="1" stop-color="rgb(255,255,245)" stop-opacity="1"></stop>
	</linearGradient>
	<linearGradient gradientUnits="userSpaceOnUse" id="Gradient4" x1="985.232" x2="982.567" y1="1486.66" y2="1451.49">
		<stop class="stop0" offset="0" stop-color="rgb(142,137,177)" stop-opacity="1"></stop>
		<stop class="stop1" offset="1" stop-color="rgb(184,175,201)" stop-opacity="1"></stop>
	</linearGradient>
	<linearGradient gradientUnits="userSpaceOnUse" id="Gradient5" x1="1489.03" x2="1310.53" y1="1041.37" y2="768.594">
		<stop class="stop0" offset="0" stop-color="rgb(100,103,155)" stop-opacity="1"></stop>
		<stop class="stop1" offset="1" stop-color="rgb(159,159,209)" stop-opacity="1"></stop>
	</linearGradient>
	<linearGradient gradientUnits="userSpaceOnUse" id="Gradient6" x1="950.09" x2="814.222" y1="1070.73" y2="1025.37">
		<stop class="stop0" offset="0" stop-color="rgb(22,71,133)" stop-opacity="1"></stop>
		<stop class="stop1" offset="1" stop-color="rgb(33,125,187)" stop-opacity="1"></stop>
	</linearGradient>
</defs>
<path d="M 0 0 L 2048 0 L 2048 2048 L 0 2048 L 0 0 z" fill="rgb(255,255,255)" transform="translate(0,0)"></path>
<path d="M 629.539 1770.66 C 600.092 1757.65 569.69 1739.17 542.687 1721.6 C 423.149 1642.41 326.359 1533.38 261.898 1405.3 C 248.324 1378.33 238.439 1354.15 227.626 1326.2 C 147.319 1114.79 153.723 880.223 245.444 673.508 C 340.272 466.318 512.105 304.236 724.475 221.658 C 898.889 155.826 1090.15 149.387 1268.6 203.342 C 1347.13 227.06 1421.26 262.818 1489.35 308.395 C 1641.08 409.411 1757.25 555.536 1821.46 726.138 C 1899.21 932.202 1896.01 1169.44 1804.65 1370.66 C 1740.24 1511.21 1639.03 1631.72 1511.74 1719.46 C 1485.04 1738.06 1447.16 1762.02 1417.49 1776.12 C 1425.31 1783.16 1442 1798.42 1446.84 1807.08 C 1447.05 1819.69 1449.11 1849.42 1443.9 1859.82 C 1454.45 1860.64 1472.48 1860.07 1483.52 1860.08 L 1561 1860.16 C 1572.49 1860.17 1584.56 1859.41 1595.87 1861.12 C 1608.67 1862.98 1606.65 1883.07 1596.24 1883.83 C 1573.37 1885.49 1546.58 1884.64 1523.71 1884.6 L 1336.68 1884.19 L 701.805 1884.47 L 535.729 1884.51 C 508.348 1884.54 480.936 1884.9 453.561 1884.61 C 451.399 1884.59 446.85 1884.11 445.122 1882.62 C 432.611 1871.83 441.36 1861.64 455.031 1860.37 C 465.826 1859.47 476.862 1859.85 487.704 1859.84 L 560.568 1860.04 C 572.353 1860.12 584.572 1860.38 596.357 1860.18 C 599.678 1860.13 599.165 1859.98 600.842 1858.06 C 601.546 1839.77 601.064 1817.7 601.126 1799.08 C 611.985 1789.36 619.651 1781.28 629.539 1770.66 z" fill="rgb(13,22,88)" transform="translate(0,0)"></path>
<path d="M 629.539 1770.66 C 600.092 1757.65 569.69 1739.17 542.687 1721.6 C 423.149 1642.41 326.359 1533.38 261.898 1405.3 C 248.324 1378.33 238.439 1354.15 227.626 1326.2 C 147.319 1114.79 153.723 880.223 245.444 673.508 C 340.272 466.318 512.105 304.236 724.475 221.658 C 898.889 155.826 1090.15 149.387 1268.6 203.342 C 1347.13 227.06 1421.26 262.818 1489.35 308.395 C 1641.08 409.411 1757.25 555.536 1821.46 726.138 C 1899.21 932.202 1896.01 1169.44 1804.65 1370.66 C 1740.24 1511.21 1639.03 1631.72 1511.74 1719.46 C 1485.04 1738.06 1447.16 1762.02 1417.49 1776.12 C 1408.91 1768.79 1400.43 1761.33 1392.07 1753.75 C 1383.09 1747.62 1378.89 1744.79 1368.06 1742.52 L 1368.12 1619.32 C 1367.59 1577.73 1376.98 1548.59 1338.82 1521.35 C 1347.22 1514.88 1365.3 1505.88 1375.38 1498.88 C 1412.29 1473.27 1447.56 1447.48 1479.41 1415.73 C 1526.35 1443.07 1569.69 1434.63 1596.31 1385.96 C 1651.36 1285.34 1631.32 1115.7 1604.85 1009.86 C 1601.5 995.552 1598.03 981.277 1594.44 967.031 C 1595.97 963.713 1595.86 954.584 1596.17 950.311 C 1599.34 911.607 1594.83 874.626 1586.21 836.941 C 1564.18 740.657 1509.61 667.271 1442.8 596.639 C 1397.99 549.265 1352.66 514.497 1297.1 479.784 C 1315.51 444.835 1315.76 420.83 1318.08 382.391 L 1318.75 368.369 C 1319.56 350.136 1320.93 331.006 1319.62 312.867 C 1317.83 288.035 1290.96 291.904 1273.46 292.015 L 1225.9 292.353 C 1226.15 276.521 1227.57 257.479 1206.59 255.817 C 1192.03 254.664 1177.55 255.126 1162.95 255.121 L 1086 255.101 L 854.538 255.061 C 821.006 255.318 820.749 260.741 820.986 292.855 C 800.59 292.856 779.344 292.709 759.03 292.144 C 731.374 291.376 726.846 306.916 727.021 330.968 C 727.146 348.141 727.069 365.873 727.121 383.11 C 729.671 421.177 732.145 444.203 751.049 477.994 C 665.867 527.513 596.302 592.685 541.23 674.478 C 531.064 690.67 521.414 707.787 512.575 724.755 C 503.742 741.712 494.862 758.629 486.092 775.585 C 484.801 778.082 485.907 780.069 487.392 782.037 C 482.566 790.243 475.275 800.4 471.334 808.489 C 453.412 845.277 448.456 880.273 452.6 920.388 L 450.728 921.044 C 442.565 939.369 440.037 989.619 440.83 1009.01 L 448.975 1010.06 C 441.253 1043.19 433.302 1076.13 428.618 1109.86 C 417.923 1186.86 414.564 1326.75 456.838 1394.15 C 467.343 1410.9 482.14 1424.56 501.945 1428.8 C 525.863 1433.92 548.308 1424.53 568.898 1413.18 C 591.748 1436.65 612.404 1457 638.523 1476.89 C 661.088 1494.07 683.417 1508.07 707.023 1523.66 C 680.223 1542.79 680.585 1561.3 680.946 1591.63 C 681.067 1601.77 680.982 1612.5 680.989 1622.71 C 680.735 1663.11 680.991 1703.5 681.754 1743.89 C 673.052 1743.79 661.935 1742.73 654.315 1746.26 C 647.064 1753.22 636.438 1764.56 629.539 1770.66 z" fill="rgb(114,215,240)" transform="translate(0,0)"></path>
<path d="M 358.503 1008.23 C 385.948 1008.11 413.392 1008.37 440.83 1009.01 L 448.975 1010.06 C 441.253 1043.19 433.302 1076.13 428.618 1109.86 C 417.923 1186.86 414.564 1326.75 456.838 1394.15 C 467.343 1410.9 482.14 1424.56 501.945 1428.8 C 525.863 1433.92 548.308 1424.53 568.898 1413.18 C 591.748 1436.65 612.404 1457 638.523 1476.89 C 661.088 1494.07 683.417 1508.07 707.023 1523.66 C 680.223 1542.79 680.585 1561.3 680.946 1591.63 C 681.067 1601.77 680.982 1612.5 680.989 1622.71 C 680.735 1663.11 680.991 1703.5 681.754 1743.89 C 673.052 1743.79 661.935 1742.73 654.315 1746.26 L 653.511 1745.96 C 637.791 1740.2 619.877 1729.51 605.253 1721.09 C 345.086 1571.36 206.882 1307.87 204.88 1009.89 L 330.381 1008.46 C 340.117 1008.6 348.732 1008.67 358.503 1008.23 z" fill="rgb(39,138,179)" transform="translate(0,0)"></path>
<path d="M 358.503 1008.23 C 385.948 1008.11 413.392 1008.37 440.83 1009.01 L 448.975 1010.06 C 441.253 1043.19 433.302 1076.13 428.618 1109.86 C 417.923 1186.86 414.564 1326.75 456.838 1394.15 C 467.343 1410.9 482.14 1424.56 501.945 1428.8 C 525.863 1433.92 548.308 1424.53 568.898 1413.18 C 591.748 1436.65 612.404 1457 638.523 1476.89 C 661.088 1494.07 683.417 1508.07 707.023 1523.66 C 680.223 1542.79 680.585 1561.3 680.946 1591.63 C 681.067 1601.77 680.982 1612.5 680.989 1622.71 C 665.566 1612.71 649.759 1604.29 633.82 1593.58 C 528.994 1523.14 454.196 1438.71 400.656 1324.13 C 390.215 1302.34 380.676 1280.13 372.065 1257.55 C 368.872 1249.11 357.946 1213.8 354.807 1209.27 L 353.071 1211.03 C 348.132 1210.76 342.608 1190.31 339.101 1186.8 C 332.124 1179.82 316.33 1172.58 307.467 1167.59 C 319.991 1162.16 332.539 1157.01 340.509 1145.56 C 339.165 1142.77 338.093 1129.87 337.644 1125.98 C 333.206 1087.57 329.77 1047.21 330.381 1008.46 C 340.117 1008.6 348.732 1008.67 358.503 1008.23 z" fill="rgb(62,169,197)" transform="translate(0,0)"></path>
<path d="M 353.21 1123.4 C 367.276 1153.78 368.432 1155.56 399.947 1167.4 C 380.743 1177.29 360.034 1185.28 354.807 1209.27 L 353.071 1211.03 C 348.132 1210.76 342.608 1190.31 339.101 1186.8 C 332.124 1179.82 316.33 1172.58 307.467 1167.59 C 319.991 1162.16 332.539 1157.01 340.509 1145.56 L 353.21 1123.4 z" fill="rgb(255,255,255)" transform="translate(0,0)"></path>
<path d="M 1842.91 1009.04 C 1843.05 1054.4 1841.4 1105.39 1834.87 1150.21 C 1809.36 1316.95 1731.59 1471.29 1612.74 1590.99 C 1569.73 1634.28 1522.56 1675.43 1470.58 1707.55 C 1445.1 1723.3 1418.84 1740.35 1392.07 1753.75 C 1383.09 1747.62 1378.89 1744.79 1368.06 1742.52 L 1368.12 1619.32 C 1367.59 1577.73 1376.98 1548.59 1338.82 1521.35 C 1347.22 1514.88 1365.3 1505.88 1375.38 1498.88 C 1412.29 1473.27 1447.56 1447.48 1479.41 1415.73 C 1526.35 1443.07 1569.69 1434.63 1596.31 1385.96 C 1651.36 1285.34 1631.32 1115.7 1604.85 1009.86 L 1715.32 1008.98 L 1715.93 1009.15 C 1756.39 1007.45 1802.57 1011.14 1842.91 1009.04 z" fill="rgb(39,138,179)" transform="translate(0,0)"></path>
<path d="M 1715.32 1008.98 L 1715.93 1009.15 C 1714.86 1016.02 1714.87 1024.47 1714.77 1031.51 C 1714.18 1072.55 1708.26 1113.31 1701.87 1153.8 C 1700.02 1165.53 1698.08 1184.19 1694.36 1195.15 C 1704.2 1213.68 1709.25 1212.04 1724.52 1223.26 C 1698.78 1234.63 1697.29 1238.15 1686.11 1263.41 C 1684.08 1258.45 1682.21 1253.96 1680.51 1248.86 C 1680.18 1249.43 1679.86 1250.01 1679.53 1250.59 C 1667.09 1281.16 1653.79 1311.64 1639.16 1341.25 C 1590.23 1440.28 1514.34 1527.35 1421.85 1587.95 C 1413.43 1593.47 1376.28 1618.53 1368.12 1619.32 C 1367.59 1577.73 1376.98 1548.59 1338.82 1521.35 C 1347.22 1514.88 1365.3 1505.88 1375.38 1498.88 C 1412.29 1473.27 1447.56 1447.48 1479.41 1415.73 C 1526.35 1443.07 1569.69 1434.63 1596.31 1385.96 C 1651.36 1285.34 1631.32 1115.7 1604.85 1009.86 L 1715.32 1008.98 z" fill="rgb(62,169,197)" transform="translate(0,0)"></path>
<path d="M 1648.13 1221.7 C 1675.35 1209.88 1676.07 1206.18 1686.94 1179.67 C 1689.45 1185.59 1691.3 1189.48 1694.36 1195.15 C 1704.2 1213.68 1709.25 1212.04 1724.52 1223.26 C 1698.78 1234.63 1697.29 1238.15 1686.11 1263.41 C 1684.08 1258.45 1682.21 1253.96 1680.51 1248.86 C 1677.02 1233.29 1661.3 1228.39 1648.13 1221.7 z" fill="rgb(255,255,255)" transform="translate(0,0)"></path>
<path d="M 629.539 1770.66 C 600.092 1757.65 569.69 1739.17 542.687 1721.6 C 423.149 1642.41 326.359 1533.38 261.898 1405.3 C 248.324 1378.33 238.439 1354.15 227.626 1326.2 C 147.319 1114.79 153.723 880.223 245.444 673.508 C 340.272 466.318 512.105 304.236 724.475 221.658 C 898.889 155.826 1090.15 149.387 1268.6 203.342 C 1347.13 227.06 1421.26 262.818 1489.35 308.395 C 1641.08 409.411 1757.25 555.536 1821.46 726.138 C 1899.21 932.202 1896.01 1169.44 1804.65 1370.66 C 1740.24 1511.21 1639.03 1631.72 1511.74 1719.46 C 1485.04 1738.06 1447.16 1762.02 1417.49 1776.12 C 1408.91 1768.79 1400.43 1761.33 1392.07 1753.75 C 1418.84 1740.35 1445.1 1723.3 1470.58 1707.55 C 1522.56 1675.43 1569.73 1634.28 1612.74 1590.99 C 1731.59 1471.29 1809.36 1316.95 1834.87 1150.21 C 1841.4 1105.39 1843.05 1054.4 1842.91 1009.04 C 1836.69 898.815 1819.06 803.71 1775.21 702.022 C 1727.83 590.141 1656.28 490.131 1565.68 409.166 C 1404.37 263.45 1191.15 188.871 974.185 202.269 C 751.958 214.835 557.674 315.923 410.591 481.099 C 296.885 609.058 226.522 769.675 209.552 940.011 C 207.439 961.433 204.834 988.402 204.88 1009.89 C 206.882 1307.87 345.086 1571.36 605.253 1721.09 C 619.877 1729.51 637.791 1740.2 653.511 1745.96 L 654.315 1746.26 C 647.064 1753.22 636.438 1764.56 629.539 1770.66 z" fill="rgb(34,81,149)" transform="translate(0,0)"></path>
<path d="M 1318.08 382.391 C 1342.83 398.291 1370.86 410.341 1395.13 427.287 C 1407.17 435.694 1419.55 443.882 1431.31 452.665 C 1567.32 553.878 1662.7 700.345 1700.26 865.666 C 1708.6 904.002 1712.76 945.355 1715.1 984.519 C 1715.43 989.903 1716.28 1004.33 1715.32 1008.98 L 1604.85 1009.86 C 1601.5 995.552 1598.03 981.277 1594.44 967.031 C 1595.97 963.713 1595.86 954.584 1596.17 950.311 C 1599.34 911.607 1594.83 874.626 1586.21 836.941 C 1564.18 740.657 1509.61 667.271 1442.8 596.639 C 1397.99 549.265 1352.66 514.497 1297.1 479.784 C 1315.51 444.835 1315.76 420.83 1318.08 382.391 z" fill="rgb(188,220,224)" transform="translate(0,0)"></path>
<path d="M 1454.17 495.357 C 1466.18 497.199 1464.37 512.979 1474.84 520.499 C 1482.61 526.085 1492.25 528.355 1497.68 535.472 C 1499.36 545.951 1475.31 544.451 1469.72 553.082 C 1464.99 560.392 1462 567.57 1458.07 575.273 L 1456.62 576.618 C 1451.05 576.536 1448.19 559.595 1444.11 553.658 C 1437.85 544.558 1417.68 545.659 1415.25 536.215 C 1418.85 528.881 1433.06 523.777 1440.35 521.045 C 1445.17 514.013 1448.88 503.605 1454.17 495.357 z" fill="rgb(255,255,255)" transform="translate(0,0)"></path>
<path d="M 330.179 1007.97 C 333.955 957.756 339.316 904.595 352.239 855.881 C 399.923 676.131 515.437 515.17 672.966 415.692 C 685.7 407.651 714.175 386.301 727.121 383.11 C 729.671 421.177 732.145 444.203 751.049 477.994 C 665.867 527.513 596.302 592.685 541.23 674.478 C 531.064 690.67 521.414 707.787 512.575 724.755 C 503.742 741.712 494.862 758.629 486.092 775.585 C 484.801 778.082 485.907 780.069 487.392 782.037 C 482.566 790.243 475.275 800.4 471.334 808.489 C 453.412 845.277 448.456 880.273 452.6 920.388 L 450.728 921.044 C 442.565 939.369 440.037 989.619 440.83 1009.01 C 413.392 1008.37 385.948 1008.11 358.503 1008.23 C 350.546 1007.61 338.443 1007.97 330.179 1007.97 z" fill="rgb(188,220,224)" transform="translate(0,0)"></path>
<path d="M 1297.1 479.784 C 1352.66 514.497 1397.99 549.265 1442.8 596.639 C 1509.61 667.271 1564.18 740.657 1586.21 836.941 C 1594.83 874.626 1599.34 911.607 1596.17 950.311 C 1595.86 954.584 1595.97 963.713 1594.44 967.031 C 1592.14 960.722 1584.47 937.216 1584.8 931.785 C 1586.28 907.02 1588.25 889.503 1583.04 864.314 C 1571.6 810.513 1539.44 763.379 1493.52 733.109 C 1492.79 723.438 1489.77 714.078 1484.71 705.806 C 1474.65 688.859 1458.17 676.685 1439.02 672.038 C 1425.05 668.711 1371.38 668.396 1356.96 671.107 C 1349.21 672.517 1341.79 675.348 1335.07 679.458 C 1316.8 690.793 1312.82 705.367 1308.28 724.478 C 1302.47 728.691 1296.61 732.833 1290.69 736.905 L 1157.24 738.013 C 1157.35 722.971 1154.67 707.659 1144.58 695.825 C 1126.72 674.858 1103.91 681.01 1080.38 678.999 C 1077.88 667.472 1078.57 642.047 1078.61 629.642 C 1121.45 611.331 1145.65 583.725 1172.38 547.326 C 1180.47 546.103 1188.52 544.654 1196.52 542.981 C 1241.52 533.402 1271.49 519.127 1297.1 479.784 z" fill="rgb(245,233,192)" transform="translate(0,0)"></path>
<path d="M 751.049 477.994 C 776.127 515.976 806.164 534.984 851.336 544.083 C 861.29 546.12 871.419 547.177 881.58 547.238 C 902.06 581.556 935.516 616.405 973.995 629.854 C 972.605 646.225 973.684 662.604 972.458 677.784 C 948.487 678.597 928.363 676.353 910.046 696.244 C 898.302 708.997 897.476 721.79 898.23 738.027 C 849.827 737.916 792.914 736.483 745.061 738.273 C 738.055 733.696 731.01 728.864 723.573 725.06 C 724.961 690.777 707.978 672.983 673.127 672.591 C 659.377 672.436 645.495 673.039 631.731 672.965 C 618.563 673.221 593.299 671.304 581.52 674.002 C 574.474 675.563 567.971 678.975 562.683 683.886 C 549.893 695.873 548.993 710.643 548.029 726.751 C 523.167 740.826 503.599 758.311 487.392 782.037 C 485.907 780.069 484.801 778.082 486.092 775.585 C 494.862 758.629 503.742 741.712 512.575 724.755 C 521.414 707.787 531.064 690.67 541.23 674.478 C 596.302 592.685 665.867 527.513 751.049 477.994 z" fill="rgb(245,233,192)" transform="translate(0,0)"></path>
<path d="M 1339.75 1221.33 C 1365.41 1282.88 1421.95 1379.82 1479.41 1415.73 C 1447.56 1447.48 1412.29 1473.27 1375.38 1498.88 C 1365.3 1505.88 1347.22 1514.88 1338.82 1521.35 C 1327.09 1515 1321.04 1513.67 1308.11 1512.71 C 1308.05 1494.72 1311.93 1475.25 1297.43 1461.95 C 1292.11 1457.07 1282.26 1449.98 1274.88 1449.35 C 1257.06 1447.83 1238.49 1448.35 1220.56 1448.32 L 1105.64 1448.28 L 1105.87 1357.76 C 1175.69 1338.1 1235.09 1314.63 1290.83 1266.68 C 1306.21 1253.44 1324.68 1232.71 1339.75 1221.33 z" fill="rgb(149,195,132)" transform="translate(0,0)"></path>
<path d="M 568.898 1413.18 C 631.275 1375.16 675.784 1293.5 707.049 1229.71 C 718.982 1238.96 730.309 1254.02 742.931 1264.12 C 790.781 1302.44 845.148 1333.37 904.538 1349.59 C 910.699 1351.28 938.08 1358.55 942.398 1356.93 C 942.989 1353.91 943.406 1351.51 943.823 1348.46 L 944.033 1448.23 L 830.201 1448.14 C 804.791 1448.14 770.651 1443.14 752.236 1462.47 C 739.249 1476.1 743.064 1497.73 743.061 1515.16 C 725.408 1514.9 722.796 1515.33 707.023 1523.66 C 683.417 1508.07 661.088 1494.07 638.523 1476.89 C 612.404 1457 591.748 1436.65 568.898 1413.18 z" fill="rgb(149,195,132)" transform="translate(0,0)"></path>
<path d="M 600.842 1858.06 L 601.135 1862.43 C 601.652 1862.85 602.169 1863.28 602.685 1863.7 C 636.612 1864.41 695.937 1863.92 727.275 1863.92 L 1214.01 1863.94 L 1359.57 1863.88 C 1383.91 1863.89 1409.69 1864.36 1434.03 1863.23 C 1437.96 1863.05 1440.59 1861.83 1443.9 1859.82 C 1454.45 1860.64 1472.48 1860.07 1483.52 1860.08 L 1561 1860.16 C 1572.49 1860.17 1584.56 1859.41 1595.87 1861.12 C 1608.67 1862.98 1606.65 1883.07 1596.24 1883.83 C 1573.37 1885.49 1546.58 1884.64 1523.71 1884.6 L 1336.68 1884.19 L 701.805 1884.47 L 535.729 1884.51 C 508.348 1884.54 480.936 1884.9 453.561 1884.61 C 451.399 1884.59 446.85 1884.11 445.122 1882.62 C 432.611 1871.83 441.36 1861.64 455.031 1860.37 C 465.826 1859.47 476.862 1859.85 487.704 1859.84 L 560.568 1860.04 C 572.353 1860.12 584.572 1860.38 596.357 1860.18 C 599.678 1860.13 599.165 1859.98 600.842 1858.06 z" fill="rgb(164,196,225)" transform="translate(0,0)"></path>
<path d="M 728.124 1177.13 C 738.539 1188.87 750.135 1202.7 761.624 1213.09 C 816.901 1263.09 872.39 1290.68 943.967 1307.58 C 943.968 1320.16 944.417 1336.17 943.823 1348.46 C 943.406 1351.51 942.989 1353.91 942.398 1356.93 C 938.08 1358.55 910.699 1351.28 904.538 1349.59 C 845.148 1333.37 790.781 1302.44 742.931 1264.12 C 730.309 1254.02 718.982 1238.96 707.049 1229.71 C 714.665 1212.43 721.694 1194.89 728.124 1177.13 z" fill="rgb(190,209,155)" transform="translate(0,0)"></path>
<path d="M 1320.67 1175.65 C 1327.34 1190.75 1333.7 1205.98 1339.75 1221.33 C 1324.68 1232.71 1306.21 1253.44 1290.83 1266.68 C 1235.09 1314.63 1175.69 1338.1 1105.87 1357.76 C 1106.05 1340.7 1105.94 1323.63 1105.54 1306.58 C 1178.94 1289.84 1239.34 1257.47 1294.39 1205.27 C 1303.03 1197.09 1312.87 1184.85 1320.67 1175.65 z" fill="rgb(190,209,155)" transform="translate(0,0)"></path>
<path d="M 440.83 1009.01 C 440.037 989.619 442.565 939.369 450.728 921.044 L 452.6 920.388 C 454.341 937.189 457.304 947.371 461.7 963.477 C 457.119 978.909 452.876 994.44 448.975 1010.06 L 440.83 1009.01 z" fill="rgb(245,233,192)" transform="translate(0,0)"></path>
<path d="M 700.309 1743.51 L 700.28 1742.65 C 699.411 1702.36 698.964 1662.07 698.939 1621.77 C 698.847 1601.32 694.719 1558.15 708.712 1544.14 C 715.518 1537.41 724.361 1533.13 733.858 1531.97 C 746.062 1530.38 770.596 1531.04 783.894 1531.06 L 872.362 1531.13 L 1208.67 1531.77 L 1223.57 1531.82 L 1278.57 1531.64 C 1295.97 1531.6 1314.86 1529.46 1330.29 1538.51 C 1341.2 1544.54 1348.96 1558.67 1348.82 1570.92 C 1348.18 1627.66 1351.44 1686.25 1349.09 1742.84 L 1222.06 1742.18 L 974.497 1742.71 C 947.195 1742.61 908.266 1743.94 882.209 1742.64 C 856.044 1742.97 829.877 1743.09 803.71 1743 C 769.242 1742.98 734.775 1743.15 700.309 1743.51 z" fill="rgb(187,177,190)" transform="translate(0,0)"></path>
<path d="M 700.309 1743.51 L 700.28 1742.65 C 699.411 1702.36 698.964 1662.07 698.939 1621.77 C 698.847 1601.32 694.719 1558.15 708.712 1544.14 C 715.518 1537.41 724.361 1533.13 733.858 1531.97 C 746.062 1530.38 770.596 1531.04 783.894 1531.06 L 872.362 1531.13 L 1208.67 1531.77 C 1208.01 1534.8 1207.76 1537.22 1206.12 1539.84 L 1205.21 1540.02 C 1138.07 1539.23 1070.4 1540.8 1003.24 1539.98 C 1000.69 1540.66 999.65 1541.01 997.7 1542.95 C 974.937 1565.62 952.236 1589.4 930.107 1612.65 C 897.933 1646.82 865.011 1680.28 831.363 1713.01 C 827.902 1716.41 808.906 1736.97 806.562 1738.35 L 803.71 1743 C 769.242 1742.98 734.775 1743.15 700.309 1743.51 z" fill="rgb(219,215,214)" transform="translate(0,0)"></path>
<path d="M 700.309 1743.51 L 700.28 1742.65 C 699.411 1702.36 698.964 1662.07 698.939 1621.77 C 698.847 1601.32 694.719 1558.15 708.712 1544.14 C 715.518 1537.41 724.361 1533.13 733.858 1531.97 C 746.062 1530.38 770.596 1531.04 783.894 1531.06 L 872.362 1531.13 L 1208.67 1531.77 C 1208.01 1534.8 1207.76 1537.22 1206.12 1539.84 L 1205.21 1540.02 C 1138.07 1539.23 1070.4 1540.8 1003.24 1539.98 C 965.905 1541.4 919.252 1539.96 881.054 1540.14 C 872.135 1549.65 860.714 1560.3 851.258 1569.83 L 761.977 1658.94 C 749.318 1671.65 727.86 1692.08 717.177 1704.97 L 716.13 1704.36 C 716 1702.09 715.895 1700.06 715.863 1697.78 C 714.097 1708.41 713.277 1723.97 712.346 1735.09 C 724.381 1735.13 798.541 1735.91 806.562 1738.35 L 803.71 1743 C 769.242 1742.98 734.775 1743.15 700.309 1743.51 z" fill="rgb(187,177,190)" transform="translate(0,0)"></path>
<path d="M 700.309 1743.51 L 700.28 1742.65 C 699.411 1702.36 698.964 1662.07 698.939 1621.77 C 698.847 1601.32 694.719 1558.15 708.712 1544.14 C 715.518 1537.41 724.361 1533.13 733.858 1531.97 C 746.062 1530.38 770.596 1531.04 783.894 1531.06 L 872.362 1531.13 L 1208.67 1531.77 C 1208.01 1534.8 1207.76 1537.22 1206.12 1539.84 L 1205.21 1540.02 C 1138.07 1539.23 1070.4 1540.8 1003.24 1539.98 C 965.905 1541.4 919.252 1539.96 881.054 1540.14 L 792.149 1540.16 C 775.662 1540.15 743.872 1536.48 732.145 1549.07 C 720.106 1562 721.964 1593.65 721.064 1611.59 C 719.621 1640.34 717.887 1669.07 715.863 1697.78 C 714.097 1708.41 713.277 1723.97 712.346 1735.09 C 724.381 1735.13 798.541 1735.91 806.562 1738.35 L 803.71 1743 C 769.242 1742.98 734.775 1743.15 700.309 1743.51 z" fill="rgb(255,255,255)" transform="translate(0,0)"></path>
<path d="M 1223.57 1531.82 L 1278.57 1531.64 C 1295.97 1531.6 1314.86 1529.46 1330.29 1538.51 C 1341.2 1544.54 1348.96 1558.67 1348.82 1570.92 C 1348.18 1627.66 1351.44 1686.25 1349.09 1742.84 L 1222.06 1742.18 L 1222.93 1539.32 L 1223.57 1531.82 z" fill="rgb(144,92,101)" transform="translate(0,0)"></path>
<path d="M 1223.57 1531.82 L 1278.57 1531.64 C 1295.97 1531.6 1314.86 1529.46 1330.29 1538.51 C 1322.32 1539.37 1302.25 1538.36 1293.31 1538.32 C 1269.85 1538.18 1246.38 1538.52 1222.93 1539.32 L 1223.57 1531.82 z" fill="rgb(192,138,135)" transform="translate(0,0)"></path>
<path d="M 1208.67 1531.77 L 1223.57 1531.82 L 1222.93 1539.32 L 1222.06 1742.18 L 974.497 1742.71 C 947.195 1742.61 908.266 1743.94 882.209 1742.64 C 886.332 1740.92 986.586 1741.94 998.896 1741.95 C 1014.9 1723.01 1044.37 1698.36 1063.21 1680.21 C 1111.2 1634.15 1158.54 1587.42 1205.21 1540.02 L 1206.12 1539.84 C 1207.76 1537.22 1208.01 1534.8 1208.67 1531.77 z" fill="rgb(192,138,135)" transform="translate(0,0)"></path>
<path d="M 1208.67 1531.77 L 1223.57 1531.82 L 1222.93 1539.32 C 1216.83 1539.75 1212.24 1540.12 1206.12 1539.84 C 1207.76 1537.22 1208.01 1534.8 1208.67 1531.77 z" fill="rgb(219,215,214)" transform="translate(0,0)"></path>
<path d="M 838.691 272.996 C 852.917 272.922 867.143 272.927 881.368 273.011 L 928.038 273.008 L 1148.02 272.996 C 1167.67 273.017 1187.75 272.843 1207.36 273.063 C 1207.79 282.496 1207.91 291.94 1207.71 301.38 C 1207.75 315.69 1208.52 338.525 1207.27 352.056 C 1206.67 388.489 1201.26 448.244 1186.31 481.835 C 1157.56 546.424 1101.55 623.806 1023.03 622.979 C 985.45 622.582 941.033 596.143 919.305 566.117 C 906.274 552.154 896.977 539.569 887.097 523.17 C 882.337 515.121 879.129 509.137 875.078 500.711 C 841.891 431.861 837.159 348.24 838.691 272.996 z" fill="rgb(250,189,79)" transform="translate(0,0)"></path>
<path d="M 1207.71 301.38 C 1207.75 315.69 1208.52 338.525 1207.27 352.056 C 1206.67 388.489 1201.26 448.244 1186.31 481.835 C 1157.56 546.424 1101.55 623.806 1023.03 622.979 C 985.45 622.582 941.033 596.143 919.305 566.117 C 921.217 566.337 922.137 566.158 923.559 567.817 C 934.994 581.158 957.207 601.896 973.984 607.913 L 975.255 606.23 C 970.018 601.139 968.541 593.688 966.791 586.681 C 955.876 583.086 942.497 577.691 932.95 571.357 L 932.824 570.274 C 950.403 579.091 973.858 590.302 993.992 590.018 C 1025.69 589.571 1052.28 574.242 1074.2 552.251 C 1114 512.33 1136.47 454.735 1144.34 399.512 C 1148.24 372.131 1148.32 339.458 1148.18 311.91 L 1148.02 300.898 C 1167.91 300.867 1187.81 301.027 1207.71 301.38 z" fill="rgb(227,139,57)" transform="translate(0,0)"></path>
<path d="M 1207.71 301.38 C 1207.75 315.69 1208.52 338.525 1207.27 352.056 C 1206.83 339.622 1207.29 324.523 1207.35 311.886 L 1148.18 311.91 L 1148.02 300.898 C 1167.91 300.867 1187.81 301.027 1207.71 301.38 z" fill="rgb(173,61,56)" transform="translate(0,0)"></path>
<path d="M 881.368 273.011 L 928.038 273.008 C 927.875 278.562 927.509 296.77 926.422 300.996 L 927.101 301.128 L 927.212 310.802 L 926.442 311.091 C 924.602 378.79 929.677 421.368 951.432 486.923 C 957.758 505.988 965.701 526.51 971.485 545.434 C 959.503 541.216 940.552 527.365 931.896 518.097 C 881.107 463.712 879.886 379.917 879.816 311.287 C 879.555 308.189 879.883 304.156 880.017 300.974 C 880.063 292.436 880.922 281.698 881.368 273.011 z" fill="rgb(255,255,255)" transform="translate(0,0)"></path>
<path d="M 881.368 273.011 L 928.038 273.008 C 927.875 278.562 927.509 296.77 926.422 300.996 L 927.101 301.128 L 927.212 310.802 L 926.442 311.091 L 921.175 311.156 C 907.604 310.981 893.437 311.241 879.816 311.287 C 879.555 308.189 879.883 304.156 880.017 300.974 C 880.063 292.436 880.922 281.698 881.368 273.011 z" fill="rgb(255,255,255)" transform="translate(0,0)"></path>
<path d="M 880.017 300.974 L 906.302 300.996 C 911.075 302.482 916.188 303.683 920.278 306.402 C 920.824 308.474 920.986 309.037 921.175 311.156 C 907.604 310.981 893.437 311.241 879.816 311.287 C 879.555 308.189 879.883 304.156 880.017 300.974 z" fill="rgb(227,139,57)" transform="translate(0,0)"></path>
<path d="M 906.302 300.996 L 926.422 300.996 L 927.101 301.128 L 927.212 310.802 L 926.442 311.091 L 921.175 311.156 C 920.986 309.037 920.824 308.474 920.278 306.402 C 916.188 303.683 911.075 302.482 906.302 300.996 z" fill="rgb(218,163,78)" transform="translate(0,0)"></path>
<path d="M 928.038 273.008 L 1148.02 272.996 C 1167.67 273.017 1187.75 272.843 1207.36 273.063 C 1207.79 282.496 1207.91 291.94 1207.71 301.38 C 1187.81 301.027 1167.91 300.867 1148.02 300.898 L 1148.18 311.91 L 1007.87 311.154 C 981.602 311.089 953.3 311.598 927.212 310.802 L 927.101 301.128 L 926.422 300.996 C 927.509 296.77 927.875 278.562 928.038 273.008 z" fill="rgb(250,189,79)" transform="translate(0,0)"></path>
<path d="M 927.101 301.128 C 932.137 298.876 1088.25 300.174 1106.68 300.172 C 1119.9 300.956 1134.65 300.797 1148.02 300.898 L 1148.18 311.91 L 1007.87 311.154 C 981.602 311.089 953.3 311.598 927.212 310.802 L 927.101 301.128 z" fill="rgb(202,81,46)" transform="translate(0,0)"></path>
<path d="M 1148.02 272.996 C 1167.67 273.017 1187.75 272.843 1207.36 273.063 C 1207.79 282.496 1207.91 291.94 1207.71 301.38 C 1187.81 301.027 1167.91 300.867 1148.02 300.898 C 1134.65 300.797 1119.9 300.956 1106.68 300.172 C 1118.6 299.189 1135.83 299.871 1148.11 300.016 L 1148.02 272.996 z" fill="rgb(227,139,57)" transform="translate(0,0)"></path>
<path d="M 875.078 500.711 C 877.764 499.478 877.262 499 879.316 499.781 C 884.708 501.832 889.808 510.399 892.567 515.357 L 887.097 523.17 C 882.337 515.121 879.129 509.137 875.078 500.711 z" fill="rgb(218,163,78)" transform="translate(0,0)"></path>
<path d="M 806.585 990.472 C 827.335 962.201 862.268 948.066 896.839 953.953 C 931.411 959.84 959.697 984.739 969.922 1018.29 C 978.378 1026.86 981.674 1039.19 984.432 1050.49 L 985.722 1056.57 C 1006.1 1063.69 1055.83 1061.25 1078.55 1060.92 C 1081.97 1079.76 1087.83 1091.99 1098.66 1107.77 C 1101.01 1108.81 1104.99 1112.26 1106.97 1114.01 C 1127.6 1132.11 1152.13 1139.79 1179.31 1137.3 C 1217.89 1134.07 1246.76 1107.95 1258.03 1071.51 C 1262.64 1056.62 1262.11 1045.01 1260.43 1029.67 C 1270.2 1039.65 1275.94 1044.92 1287.5 1052.65 C 1288.9 1074.49 1296.72 1108.81 1303.2 1129.97 C 1272.83 1175.45 1238.21 1206.83 1190.73 1233.61 C 1110.65 1278.77 1010.4 1288.79 921.996 1261.59 C 843.602 1238.11 777.984 1184.02 739.978 1111.54 C 745.198 1090.7 753.43 1062.8 760.744 1042.47 C 762.434 1037.77 779.062 1020.97 783.124 1015.37 C 789.345 1006.8 794.662 996.197 800.659 987.912 L 802.157 988.545 L 804.814 985.78 L 806.415 986.643 L 805.825 989.361 L 806.585 990.472 z" fill="rgb(82,83,134)" transform="translate(0,0)"></path>
<path d="M 984.432 1050.49 L 985.722 1056.57 C 1006.1 1063.69 1055.83 1061.25 1078.55 1060.92 C 1081.97 1079.76 1087.83 1091.99 1098.66 1107.77 C 1117.44 1150.07 1167.71 1172.31 1210.7 1152.11 C 1193.21 1167.84 1183.59 1176.13 1162.5 1187.59 C 1094.74 1224.43 1014.42 1232.15 940.637 1210.82 C 889.883 1196.15 822.931 1153.1 797.501 1105.68 C 806.566 1112.36 814.354 1121.36 822.766 1128.89 C 892.768 1191.51 982.813 1137.67 984.432 1050.49 z" fill="rgb(124,126,171)" transform="translate(0,0)"></path>
<path d="M 806.585 990.472 C 827.335 962.201 862.268 948.066 896.839 953.953 C 931.411 959.84 959.697 984.739 969.922 1018.29 C 982.632 1059.99 964.554 1104.91 926.502 1126.18 C 888.45 1147.45 840.715 1139.33 811.848 1106.66 C 782.981 1073.99 780.79 1025.62 806.585 990.472 z" fill="rgb(13,22,88)" transform="translate(0,0)"></path>
<path d="M 876.944 966.176 C 882.759 965.857 888.592 966.204 894.328 967.211 C 913.697 970.61 931.006 981.354 942.649 997.202 C 962.497 1024.22 962.395 1061.02 942.397 1087.93 C 922.4 1114.84 887.188 1125.55 855.596 1114.33 C 824.003 1103.12 803.425 1072.6 804.867 1039.11 C 805.537 1023.56 810.944 1008.59 820.364 996.197 C 831.348 981.749 847.12 971.688 864.852 967.817 C 868.832 966.948 872.876 966.4 876.944 966.176 z" fill="rgb(13,22,88)" transform="translate(0,0)"></path>
<path d="M 900.736 983.436 C 912.668 983.914 920.318 990.091 931.755 992.9 L 931.477 992.38 C 931.884 992.445 936.805 993.233 936.805 993.233 C 939.227 994.847 939.977 998.289 942.537 997.501 L 942.649 997.202 C 962.497 1024.22 962.395 1061.02 942.397 1087.93 C 922.4 1114.84 887.188 1125.55 855.596 1114.33 C 824.003 1103.12 803.425 1072.6 804.867 1039.11 C 805.411 1042.35 805.811 1044.73 806.047 1047.99 C 808.57 1049.85 812.524 1048.84 816.676 1048.93 C 817.523 1046.19 817.394 1042.78 818.406 1040.83 C 817.485 1072.92 841.049 1100.48 872.893 1104.55 C 904.737 1108.63 934.483 1087.89 941.675 1056.61 C 948.868 1025.32 931.163 993.675 900.736 983.436 z" fill="url(#Gradient6)" transform="translate(0,0)"></path>
<path d="M 876.944 966.176 C 882.759 965.857 888.592 966.204 894.328 967.211 C 913.697 970.61 931.006 981.354 942.649 997.202 L 942.537 997.501 C 939.977 998.289 939.227 994.847 936.805 993.233 C 936.805 993.233 931.884 992.445 931.477 992.38 L 931.755 992.9 C 920.318 990.091 912.668 983.914 900.736 983.436 C 893.36 980.953 885.585 979.872 877.811 980.247 C 873.487 980.456 869.197 981.114 865.01 982.21 C 865.42 976.257 865.446 973.798 864.852 967.817 C 868.832 966.948 872.876 966.4 876.944 966.176 z" fill="rgb(39,138,179)" transform="translate(0,0)"></path>
<path d="M 864.852 967.817 C 868.832 966.948 872.876 966.4 876.944 966.176 C 877.718 969.263 877.921 971.746 880.125 973.916 L 880.181 974.581 C 881.723 976.262 883.283 977.27 883.432 979.046 L 877.811 980.247 C 873.487 980.456 869.197 981.114 865.01 982.21 C 865.42 976.257 865.446 973.798 864.852 967.817 z" fill="rgb(114,215,240)" transform="translate(0,0)"></path>
<path d="M 876.944 966.176 C 882.759 965.857 888.592 966.204 894.328 967.211 C 896.196 975.403 901.131 971.846 900.465 975.646 C 891.241 976.938 888.76 976.444 880.181 974.581 L 880.125 973.916 C 877.921 971.746 877.718 969.263 876.944 966.176 z" fill="rgb(164,196,225)" transform="translate(0,0)"></path>
<path d="M 820.364 996.197 C 823.93 998.867 827.801 1001.9 831.451 1004.39 C 823.353 1014.84 818.785 1027.6 818.406 1040.83 C 817.394 1042.78 817.523 1046.19 816.676 1048.93 C 812.524 1048.84 808.57 1049.85 806.047 1047.99 C 805.811 1044.73 805.411 1042.35 804.867 1039.11 C 805.537 1023.56 810.944 1008.59 820.364 996.197 z" fill="rgb(39,138,179)" transform="translate(0,0)"></path>
<path d="M 820.364 996.197 C 831.348 981.749 847.12 971.688 864.852 967.817 C 865.446 973.798 865.42 976.257 865.01 982.21 C 851.684 985.698 839.885 993.495 831.451 1004.39 C 827.801 1001.9 823.93 998.867 820.364 996.197 z" fill="rgb(255,255,255)" transform="translate(0,0)"></path>
<path d="M 836.77 1017.68 C 846.286 1001.28 864.125 991.537 883.062 992.384 C 899.862 993.136 915.206 1002.14 924.059 1016.44 C 937.451 1038.07 932.814 1066.26 913.2 1082.47 C 893.587 1098.67 865.022 1097.9 846.309 1080.67 C 828.757 1064.5 824.791 1038.31 836.77 1017.68 z" fill="rgb(62,169,197)" transform="translate(0,0)"></path>
<path d="M 924.059 1016.44 C 937.451 1038.07 932.814 1066.26 913.2 1082.47 C 893.587 1098.67 865.022 1097.9 846.309 1080.67 C 851.524 1081.38 854.028 1084.29 860.328 1083.76 C 897.11 1080.65 926.09 1054.21 924.059 1016.44 z" fill="rgb(26,111,177)" transform="translate(0,0)"></path>
<path d="M 836.77 1017.68 C 846.286 1001.28 864.125 991.537 883.062 992.384 C 879.84 1009.91 853.266 1021.97 836.77 1017.68 z" fill="rgb(188,220,224)" transform="translate(0,0)"></path>
<path d="M 1247.66 992.803 C 1207.74 931.649 1210.01 852.128 1253.37 793.355 C 1296.72 734.582 1372.02 708.931 1442.24 729.019 C 1516.86 750.368 1568.49 818.341 1569.04 895.957 C 1569.58 973.572 1518.91 1042.26 1444.6 1064.66 C 1370.28 1087.05 1290.09 1057.8 1247.66 992.803 z" fill="url(#Gradient5)" transform="translate(0,0)"></path>
<path d="M 1247.66 992.803 C 1207.74 931.649 1210.01 852.128 1253.37 793.355 C 1296.72 734.582 1372.02 708.931 1442.24 729.019 C 1437.06 732.202 1409.64 727.795 1404.06 731.726 C 1389.88 737.876 1355.34 737.972 1342.93 748.822 L 1343.14 750.028 C 1350.4 752.666 1373.7 754.057 1378.29 759.143 L 1376.67 761.361 C 1355.65 768.896 1341.02 788.073 1339.3 810.336 C 1337.58 832.599 1349.1 853.796 1368.71 864.468 C 1367.42 864.7 1366.19 864.848 1364.88 864.952 C 1361.06 868.149 1359.78 870.255 1358.59 875.269 C 1347.06 854.783 1324.23 843.37 1300.93 846.442 C 1277.62 849.514 1258.53 866.453 1252.7 889.227 L 1250.94 888.535 C 1250.36 878.388 1259.25 849.945 1261.99 839.003 C 1263.95 831.143 1266.75 826.511 1262.72 819.397 C 1255.26 822.646 1255.29 837.808 1246.88 842.917 C 1230.89 876.679 1222.93 927.754 1235.91 963.788 C 1238.17 970.059 1247.65 988.498 1247.66 992.803 z" fill="rgb(144,145,184)" transform="translate(0,0)"></path>
<path d="M 1247.66 992.803 C 1207.74 931.649 1210.01 852.128 1253.37 793.355 C 1296.72 734.582 1372.02 708.931 1442.24 729.019 C 1437.06 732.202 1409.64 727.795 1404.06 731.726 C 1337.33 735.232 1271.51 780.398 1246.88 842.917 C 1230.89 876.679 1222.93 927.754 1235.91 963.788 C 1238.17 970.059 1247.65 988.498 1247.66 992.803 z" fill="rgb(255,255,255)" transform="translate(0,0)"></path>
<path d="M 1252.7 889.227 C 1258.53 866.453 1277.62 849.514 1300.93 846.442 C 1324.23 843.37 1347.06 854.783 1358.59 875.269 C 1371.29 897.827 1367.36 926.086 1348.99 944.325 C 1330.62 962.564 1302.33 966.293 1279.87 953.437 C 1257.4 940.58 1246.28 914.305 1252.7 889.227 z" fill="rgb(13,22,88)" transform="translate(0,0)"></path>
<path d="M 1295.58 858.692 C 1304.67 857.701 1311.66 857.709 1320.68 860.615 C 1322.9 861.426 1325.13 862.071 1327.13 863.265 C 1337.64 868.018 1345.4 875.391 1349.49 886.331 C 1353.76 898.036 1353.02 910.988 1347.43 922.127 C 1341.73 933.559 1332.64 940.496 1320.7 944.79 C 1315.19 946.772 1301.24 947.697 1296.24 945.279 C 1286.44 942.607 1283.19 940.949 1275.62 934.553 C 1266.24 924.733 1264.2 918.048 1262.19 905.21 C 1262.2 902.692 1262.57 898.643 1262.74 896.014 C 1265.15 880.941 1272.17 871.011 1284.69 862.669 C 1288.76 860.638 1291.18 860.024 1295.58 858.692 z" fill="rgb(218,163,78)" transform="translate(0,0)"></path>
<path d="M 1320.68 860.615 C 1322.9 861.426 1325.13 862.071 1327.13 863.265 C 1337.64 868.018 1345.4 875.391 1349.49 886.331 C 1353.76 898.036 1353.02 910.988 1347.43 922.127 C 1341.73 933.559 1332.64 940.496 1320.7 944.79 C 1315.19 946.772 1301.24 947.697 1296.24 945.279 C 1286.44 942.607 1283.19 940.949 1275.62 934.553 C 1266.24 924.733 1264.2 918.048 1262.19 905.21 C 1266.6 906.103 1270.78 906.63 1274.14 909.804 L 1275.5 912.003 C 1281.1 915.48 1284.89 920.281 1291.67 922.571 C 1307.03 927.757 1318.82 918.461 1323.8 904.196 C 1327.43 893.924 1326.91 882.641 1322.34 872.752 C 1321.69 871.347 1321.11 870.012 1320.5 868.593 C 1322.6 868.371 1324.7 868.131 1326.79 867.873 C 1326.15 865.709 1322.57 864.39 1320.04 862.955 L 1320.68 860.615 z" fill="rgb(219,123,74)" transform="translate(0,0)"></path>
<path d="M 1327.13 863.265 C 1337.64 868.018 1345.4 875.391 1349.49 886.331 C 1353.76 898.036 1353.02 910.988 1347.43 922.127 C 1341.73 933.559 1332.64 940.496 1320.7 944.79 C 1315.19 946.772 1301.24 947.697 1296.24 945.279 C 1294.67 942.201 1285.86 936.084 1282.12 932.573 C 1283.8 931.145 1295.91 933.976 1300.95 933.996 C 1334.94 934.125 1349.01 904.013 1335.35 875.487 C 1333.28 871.162 1329.41 868.551 1327.13 863.265 z" fill="rgb(173,61,56)" transform="translate(0,0)"></path>
<path d="M 1262.19 905.21 C 1266.6 906.103 1270.78 906.63 1274.14 909.804 L 1275.5 912.003 C 1276.37 918.562 1280.48 929.433 1280.35 931.907 L 1279.9 932.442 L 1275.62 934.553 C 1266.24 924.733 1264.2 918.048 1262.19 905.21 z" fill="rgb(250,189,79)" transform="translate(0,0)"></path>
<path d="M 1295.58 858.692 C 1304.67 857.701 1311.66 857.709 1320.68 860.615 L 1320.04 862.955 L 1318.23 863.002 C 1313.28 868.169 1305.76 870.031 1300.39 874.113 C 1289.03 882.761 1281.04 897.572 1274.14 909.804 C 1270.78 906.63 1266.6 906.103 1262.19 905.21 C 1262.2 902.692 1262.57 898.643 1262.74 896.014 C 1265.15 880.941 1272.17 871.011 1284.69 862.669 C 1288.76 860.638 1291.18 860.024 1295.58 858.692 z" fill="rgb(226,202,116)" transform="translate(0,0)"></path>
<path d="M 1284.69 862.669 L 1291.24 865.557 C 1291.66 869.279 1286.06 873.642 1283.63 876.697 C 1277.38 884.564 1272.61 893.176 1266.18 900.942 C 1263.83 898.775 1264.29 898.971 1262.74 896.014 C 1265.15 880.941 1272.17 871.011 1284.69 862.669 z" fill="rgb(255,255,255)" transform="translate(0,0)"></path>
<path d="M 1295.58 858.692 C 1304.67 857.701 1311.66 857.709 1320.68 860.615 L 1320.04 862.955 L 1318.23 863.002 C 1312.9 862.933 1299.35 864.257 1295.83 861.499 L 1295.58 858.692 z" fill="rgb(218,163,78)" transform="translate(0,0)"></path>
<path d="M 1376.67 761.361 C 1401.19 752.572 1428.55 761.632 1442.97 783.319 C 1457.4 805.006 1455.18 833.735 1437.59 852.95 C 1420.01 872.165 1391.59 876.918 1368.71 864.468 C 1349.1 853.796 1337.58 832.599 1339.3 810.336 C 1341.02 788.073 1355.65 768.896 1376.67 761.361 z" fill="rgb(13,22,88)" transform="translate(0,0)"></path>
<path d="M 1379.06 773.091 C 1386.06 770.322 1393.65 769.423 1401.1 770.48 C 1404.91 771.021 1408.63 772.068 1412.17 773.592 C 1427.01 779.995 1437.06 794.131 1438.22 810.256 C 1439.38 826.381 1431.47 841.812 1417.7 850.279 C 1403.92 858.745 1386.58 858.838 1372.72 850.52 C 1374.08 845.812 1370.8 841.876 1368.27 838.24 C 1363.27 835.462 1356.16 826.474 1358.18 820.156 L 1358.04 818.867 C 1354.98 813.598 1357.05 811.21 1352.31 806.062 C 1352.38 805.645 1352.46 805.23 1352.54 804.815 C 1355.44 790.431 1365.42 778.491 1379.06 773.091 z" fill="rgb(218,163,78)" transform="translate(0,0)"></path>
<path d="M 1401.1 770.48 C 1404.91 771.021 1408.63 772.068 1412.17 773.592 C 1427.01 779.995 1437.06 794.131 1438.22 810.256 C 1439.38 826.381 1431.47 841.812 1417.7 850.279 C 1403.92 858.745 1386.58 858.838 1372.72 850.52 C 1374.08 845.812 1370.8 841.876 1368.27 838.24 C 1363.27 835.462 1356.16 826.474 1358.18 820.156 C 1362.56 829.006 1374.09 833.153 1383.48 834.398 C 1397.38 829.115 1408.38 819.983 1411.48 804.775 C 1413.32 795.746 1411.18 787.128 1410.77 778.048 C 1410.4 777.496 1403.38 772.959 1401.1 770.48 z" fill="rgb(173,61,56)" transform="translate(0,0)"></path>
<path d="M 1401.1 770.48 C 1404.91 771.021 1408.63 772.068 1412.17 773.592 C 1412.5 785.969 1437.44 804.071 1416.94 824.03 C 1407.51 830.876 1395.61 838.837 1383.48 834.398 C 1397.38 829.115 1408.38 819.983 1411.48 804.775 C 1413.32 795.746 1411.18 787.128 1410.77 778.048 C 1410.4 777.496 1403.38 772.959 1401.1 770.48 z" fill="rgb(219,123,74)" transform="translate(0,0)"></path>
<path d="M 1368.27 838.24 C 1363.27 835.462 1356.16 826.474 1358.18 820.156 C 1362.56 829.006 1374.09 833.153 1383.48 834.398 C 1395.61 838.837 1407.51 830.876 1416.94 824.03 C 1417.76 847.699 1384.11 850.124 1368.27 838.24 z" fill="rgb(202,81,46)" transform="translate(0,0)"></path>
<path d="M 1352.54 804.815 C 1355.44 790.431 1365.42 778.491 1379.06 773.091 C 1379.74 775.272 1379.59 775.816 1379.06 778.03 C 1382.04 777.972 1387.33 777.436 1389.47 778.769 L 1387.84 780.197 L 1387.78 780.178 C 1374.92 785.912 1360.12 806.179 1354.02 805.891 L 1352.54 804.815 z" fill="rgb(245,233,192)" transform="translate(0,0)"></path>
<path d="M 1352.54 804.815 L 1354.02 805.891 C 1360.12 806.179 1374.92 785.912 1387.78 780.178 C 1388.64 784.91 1388.67 783.01 1387.09 787.629 C 1374.58 802.234 1374.34 807.029 1358.04 818.867 C 1354.98 813.598 1357.05 811.21 1352.31 806.062 C 1352.38 805.645 1352.46 805.23 1352.54 804.815 z" fill="rgb(226,202,116)" transform="translate(0,0)"></path>
<path d="M 1379.06 773.091 C 1386.06 770.322 1393.65 769.423 1401.1 770.48 C 1403.38 772.959 1410.4 777.496 1410.77 778.048 C 1407.99 780.629 1397.36 778.022 1387.09 787.629 C 1388.67 783.01 1388.64 784.91 1387.78 780.178 L 1387.84 780.197 L 1389.47 778.769 C 1387.33 777.436 1382.04 777.972 1379.06 778.03 C 1379.59 775.816 1379.74 775.272 1379.06 773.091 z" fill="rgb(226,202,116)" transform="translate(0,0)"></path>
<path d="M 1352.31 806.062 C 1357.05 811.21 1354.98 813.598 1358.04 818.867 L 1358.18 820.156 C 1356.16 826.474 1363.27 835.462 1368.27 838.24 C 1370.8 841.876 1374.08 845.812 1372.72 850.52 C 1357.4 841.327 1349.29 823.672 1352.31 806.062 z" fill="rgb(227,139,57)" transform="translate(0,0)"></path>
<path d="M 1483.59 848.838 C 1514.88 847.427 1541.34 871.725 1542.6 903.014 C 1543.86 934.303 1519.43 960.648 1488.13 961.752 C 1457.05 962.848 1430.93 938.626 1429.68 907.553 C 1428.43 876.481 1452.53 850.24 1483.59 848.838 z" fill="rgb(13,22,88)" transform="translate(0,0)"></path>
<path d="M 1475.84 862.083 C 1485.28 859.747 1495.23 860.683 1504.07 864.737 C 1504.79 865.07 1505.51 865.423 1506.22 865.796 C 1507.34 868.945 1508.03 870.753 1509.49 873.749 C 1513.65 877.586 1514.77 880.049 1516.4 885.554 C 1520.28 885.415 1522.69 884.804 1525.73 887.051 C 1533.26 904.86 1527.97 925.508 1512.8 937.497 C 1497.62 949.487 1476.31 949.863 1460.73 938.417 C 1459.37 937.421 1458.07 936.346 1456.84 935.198 C 1458.25 932.726 1456.93 923.267 1458.04 916.753 C 1457.55 912.743 1457.41 912.806 1458.31 908.963 C 1456.87 906.075 1455.02 902.898 1453.45 900.038 C 1451.78 902.139 1444 914.318 1444.42 913.978 C 1438.8 890.977 1452.86 867.769 1475.84 862.083 z" fill="rgb(219,123,74)" transform="translate(0,0)"></path>
<path d="M 1509.49 873.749 C 1513.65 877.586 1514.77 880.049 1516.4 885.554 C 1520.28 885.415 1522.69 884.804 1525.73 887.051 C 1533.26 904.86 1527.97 925.508 1512.8 937.497 C 1497.62 949.487 1476.31 949.863 1460.73 938.417 C 1459.37 937.421 1458.07 936.346 1456.84 935.198 C 1458.25 932.726 1456.93 923.267 1458.04 916.753 L 1459.09 917.7 C 1480.05 936.244 1505.03 921.494 1509.34 896.542 C 1510.89 887.553 1510.41 882.639 1509.49 873.749 z" fill="rgb(173,61,56)" transform="translate(0,0)"></path>
<path d="M 1509.49 873.749 C 1513.65 877.586 1514.77 880.049 1516.4 885.554 C 1516.3 894.151 1516.51 898.602 1513.81 906.822 C 1507.97 924.642 1493.4 936.334 1474.39 936.014 C 1470.88 935.955 1464.28 932.748 1460.86 931.177 C 1460.73 934.206 1460.74 934.325 1461.3 937.306 L 1460.73 938.417 C 1459.37 937.421 1458.07 936.346 1456.84 935.198 C 1458.25 932.726 1456.93 923.267 1458.04 916.753 L 1459.09 917.7 C 1480.05 936.244 1505.03 921.494 1509.34 896.542 C 1510.89 887.553 1510.41 882.639 1509.49 873.749 z" fill="rgb(202,81,46)" transform="translate(0,0)"></path>
<path d="M 1444.42 913.978 C 1438.8 890.977 1452.86 867.769 1475.84 862.083 C 1478.24 864.516 1478 864.417 1478.55 867.846 C 1476.7 872.833 1458.72 892.895 1453.45 900.038 C 1451.78 902.139 1444 914.318 1444.42 913.978 z" fill="rgb(226,202,116)" transform="translate(0,0)"></path>
<path d="M 1475.84 862.083 C 1485.28 859.747 1495.23 860.683 1504.07 864.737 C 1501.94 868.567 1493.94 870.698 1489.13 873.947 C 1476.76 882.284 1463.7 894.833 1458.31 908.963 C 1456.87 906.075 1455.02 902.898 1453.45 900.038 C 1458.72 892.895 1476.7 872.833 1478.55 867.846 C 1478 864.417 1478.24 864.516 1475.84 862.083 z" fill="rgb(218,163,78)" transform="translate(0,0)"></path>
<path d="M 1453.45 900.038 C 1455.02 902.898 1456.87 906.075 1458.31 908.963 C 1457.41 912.806 1457.55 912.743 1458.04 916.753 C 1456.93 923.267 1458.25 932.726 1456.84 935.198 C 1450.72 929.486 1446.4 922.111 1444.42 913.978 C 1444 914.318 1451.78 902.139 1453.45 900.038 z" fill="rgb(227,139,57)" transform="translate(0,0)"></path>
<path d="M 1506.22 865.796 C 1514.98 870.421 1521.87 877.929 1525.73 887.051 C 1522.69 884.804 1520.28 885.415 1516.4 885.554 C 1514.77 880.049 1513.65 877.586 1509.49 873.749 C 1508.03 870.753 1507.34 868.945 1506.22 865.796 z" fill="rgb(145,36,43)" transform="translate(0,0)"></path>
<path d="M 1386.43 936.586 C 1416.96 930.944 1446.24 951.252 1451.65 981.824 C 1457.07 1012.39 1436.54 1041.52 1405.93 1046.7 C 1375.64 1051.83 1346.89 1031.57 1341.53 1001.32 C 1336.18 971.072 1356.23 942.169 1386.43 936.586 z" fill="rgb(13,22,88)" transform="translate(0,0)"></path>
<path d="M 1385.93 949.44 C 1395.13 947.238 1404.8 948.163 1413.42 952.068 C 1428.69 958.992 1438.48 974.236 1438.41 991.004 C 1438.35 1007.77 1428.44 1022.94 1413.12 1029.74 C 1397.79 1036.55 1379.9 1033.72 1367.42 1022.53 C 1369.02 1019.83 1369.15 1020.02 1369.01 1016.94 C 1366.11 1011.68 1365.83 1008.58 1366.08 1002.68 L 1365.84 1002.24 C 1363.77 999.831 1358.93 989.56 1357.3 986.264 C 1356.48 983.155 1356.26 979.284 1355.94 976.011 C 1359.45 966.575 1366.19 958.687 1374.96 953.747 C 1378.4 951.81 1382.09 950.36 1385.93 949.44 z" fill="rgb(219,123,74)" transform="translate(0,0)"></path>
<path d="M 1413.42 952.068 C 1428.69 958.992 1438.48 974.236 1438.41 991.004 C 1438.35 1007.77 1428.44 1022.94 1413.12 1029.74 C 1397.79 1036.55 1379.9 1033.72 1367.42 1022.53 C 1369.02 1019.83 1369.15 1020.02 1369.01 1016.94 C 1366.11 1011.68 1365.83 1008.58 1366.08 1002.68 L 1368.43 1002.11 C 1390.51 1023.56 1417.15 1011.66 1420.45 981.421 C 1421.11 975.323 1419.42 968.847 1418.02 962.822 L 1411.7 955.279 L 1413.42 952.068 z" fill="rgb(173,61,56)" transform="translate(0,0)"></path>
<path d="M 1418.02 962.822 C 1422.72 965.623 1426.97 969.464 1427.43 975.024 C 1430.77 1015.19 1405.88 1021.04 1376.27 1019.75 C 1373.67 1017.49 1372.44 1015.74 1369.41 1015.05 L 1369.01 1016.94 C 1366.11 1011.68 1365.83 1008.58 1366.08 1002.68 L 1368.43 1002.11 C 1390.51 1023.56 1417.15 1011.66 1420.45 981.421 C 1421.11 975.323 1419.42 968.847 1418.02 962.822 z" fill="rgb(202,81,46)" transform="translate(0,0)"></path>
<path d="M 1385.93 949.44 C 1395.13 947.238 1404.8 948.163 1413.42 952.068 L 1411.7 955.279 L 1411.45 956.041 C 1403.58 962.393 1392.61 964.76 1384.71 969.796 C 1374.76 976.132 1368.85 991.164 1365.84 1002.24 C 1363.77 999.831 1358.93 989.56 1357.3 986.264 C 1356.48 983.155 1356.26 979.284 1355.94 976.011 C 1359.45 966.575 1366.19 958.687 1374.96 953.747 C 1378.4 951.81 1382.09 950.36 1385.93 949.44 z" fill="rgb(226,202,116)" transform="translate(0,0)"></path>
<path d="M 1374.96 953.747 C 1379.86 954.759 1384.89 954.068 1389.95 953.727 C 1379.21 960.224 1371.49 968.085 1363.2 977.604 C 1360.98 980.16 1359.43 983.688 1357.3 986.264 C 1356.48 983.155 1356.26 979.284 1355.94 976.011 C 1359.45 966.575 1366.19 958.687 1374.96 953.747 z" fill="rgb(255,255,255)" transform="translate(0,0)"></path>
<path d="M 1385.93 949.44 C 1395.13 947.238 1404.8 948.163 1413.42 952.068 L 1411.7 955.279 L 1411.45 956.041 C 1411.03 955.247 1390.35 952.031 1387.64 951.56 C 1387.07 950.854 1386.5 950.147 1385.93 949.44 z" fill="rgb(227,139,57)" transform="translate(0,0)"></path>
<path d="M 1367.42 1022.53 C 1354.4 1010.85 1349.85 992.401 1355.94 976.011 C 1356.26 979.284 1356.48 983.155 1357.3 986.264 C 1358.93 989.56 1363.77 999.831 1365.84 1002.24 L 1366.08 1002.68 C 1365.83 1008.58 1366.11 1011.68 1369.01 1016.94 C 1369.15 1020.02 1369.02 1019.83 1367.42 1022.53 z" fill="rgb(218,163,78)" transform="translate(0,0)"></path>
<path d="M 766.211 756.469 L 1261.39 755.941 C 1256.61 761.324 1249.3 770.113 1244.42 774.934 C 1211.77 815.848 1196.06 861.5 1201.18 914.525 C 1202.92 932.55 1208.97 948.948 1215.43 965.708 C 1189.59 953.792 1165.75 951.09 1138.38 961.378 C 1114.89 970.092 1095.83 987.788 1085.4 1010.57 C 1077.87 1027.29 1076.14 1042.92 1078.55 1060.92 C 1055.83 1061.25 1006.1 1063.69 985.722 1056.57 L 984.432 1050.49 C 981.674 1039.19 978.378 1026.86 969.922 1018.29 C 959.697 984.739 931.411 959.84 896.839 953.953 C 862.268 948.066 827.335 962.201 806.585 990.472 L 805.825 989.361 L 806.415 986.643 L 804.814 985.78 L 802.157 988.545 L 800.659 987.912 C 839.789 915.711 832.158 839.622 783.34 774.669 C 777.69 768.694 771.912 762.303 766.211 756.469 z" fill="rgb(144,145,184)" transform="translate(0,0)"></path>
<path d="M 766.211 756.469 L 1261.39 755.941 C 1256.61 761.324 1249.3 770.113 1244.42 774.934 L 939.149 774.888 C 887.965 774.892 834.353 775.801 783.34 774.669 C 777.69 768.694 771.912 762.303 766.211 756.469 z" fill="rgb(255,255,255)" transform="translate(0,0)"></path>
<path d="M 1179.33 804.463 C 1183.67 804.572 1186.01 804.4 1190.05 806.091 C 1201.39 811.204 1199.04 842.55 1193.07 849.557 C 1188.04 855.452 1150.92 853.047 1142.75 852.961 C 1137.53 852.849 1135.27 852.804 1130.69 850.055 C 1121.88 844.775 1122.71 812.686 1129.9 808.121 C 1137.83 803.084 1168.13 804.729 1179.33 804.463 z" fill="rgb(13,22,88)" transform="translate(0,0)"></path>
<path d="M 1134.72 811.073 C 1149.65 810.967 1164.64 810.815 1179.57 810.841 C 1184.05 810.849 1185.9 810.669 1188.6 813.441 C 1191.22 821.697 1188.47 833.85 1185.45 841.833 C 1177.75 846.783 1145.44 845.799 1136.59 844.098 C 1133.32 840.169 1134.62 817.852 1134.72 811.073 z" fill="rgb(57,62,112)" transform="translate(0,0)"></path>
<path d="M 1136.59 844.098 C 1138.14 841.409 1138.13 841.448 1140.34 839.262 C 1148.66 839.39 1179.59 839.888 1185.45 841.833 C 1177.75 846.783 1145.44 845.799 1136.59 844.098 z" fill="rgb(82,83,134)" transform="translate(0,0)"></path>
<path d="M 848.656 806.165 C 862.181 805.418 876.841 805.885 890.137 805.762 C 907.409 805.602 912.384 810.056 910.97 826.858 C 909.886 839.744 913.967 844.142 901.241 851.723 C 896.616 852.201 888.287 852.772 884.231 852.54 C 864.669 851.423 835.006 861.635 839.727 830.337 C 841.355 819.545 836.127 812.439 848.656 806.165 z" fill="rgb(13,22,88)" transform="translate(0,0)"></path>
<path d="M 848.979 812.308 C 858.574 811.844 891.136 811.079 898.76 812.634 C 900.342 815.22 899.885 816.992 899.723 820.059 L 898.035 821.102 C 888.801 821.206 850.576 823.508 846.1 817.767 C 846.647 813.659 845.839 815.475 848.979 812.308 z" fill="rgb(57,62,112)" transform="translate(0,0)"></path>
<path d="M 563.534 737.963 C 641.266 701.035 734.324 727.028 781.668 798.893 C 830.939 873.684 814.798 973.738 744.507 1029.24 C 674.217 1084.74 573.147 1077.24 511.822 1011.97 C 458.467 955.178 449.793 869.677 490.657 803.33 C 508.129 774.962 533.44 752.259 563.534 737.963 z" fill="rgb(144,145,184)" transform="translate(0,0)"></path>
<path d="M 781.668 798.893 C 830.939 873.684 814.798 973.738 744.507 1029.24 C 674.217 1084.74 573.147 1077.24 511.822 1011.97 L 517.673 1010.7 C 518.728 1011.71 518.55 1011.63 519.72 1012.42 C 557.341 1037.93 621.795 1045.8 665.35 1038.88 C 708.662 1031.99 743.415 996.388 767.982 962.37 C 794.266 927.201 799.329 882.943 791.918 840.628 C 789.445 826.51 783.84 812.499 781.668 798.893 z" fill="rgb(98,100,151)" transform="translate(0,0)"></path>
<path d="M 584.527 736.314 C 626.036 723.312 663.463 720.881 703.113 740.968 C 690.674 738.455 672.502 733.983 660.333 733.372 C 578.449 729.263 504.746 802.303 489.963 879.504 C 481.854 921.851 492.021 971.058 515.227 1006.92 C 516.066 1008.18 517.025 1009.37 517.673 1010.7 L 511.822 1011.97 C 458.467 955.178 449.793 869.677 490.657 803.33 C 496.006 802.751 502.17 795.187 505.389 790.899 C 525.823 763.682 553.412 749.786 584.527 736.314 z" fill="rgb(255,255,255)" transform="translate(0,0)"></path>
<path d="M 563.534 737.963 L 563.955 739.01 C 551.432 745.789 527.512 761.073 519.563 772.805 C 523.074 773.023 526.099 769.003 529.878 766.077 C 542.209 756.639 555.421 748.412 569.331 741.51 C 572.654 739.848 581.371 735.257 584.527 736.314 C 553.412 749.786 525.823 763.682 505.389 790.899 C 502.17 795.187 496.006 802.751 490.657 803.33 C 508.129 774.962 533.44 752.259 563.534 737.963 z" fill="rgb(219,215,214)" transform="translate(0,0)"></path>
<path d="M 582.294 848.987 C 582.416 826.769 575.413 794.108 607.846 794.913 C 628.856 795.434 650.782 793.075 671.646 795.549 C 674.193 795.851 679.078 799.537 680.836 801.333 C 691.258 811.214 687.343 835.402 687.236 849.067 C 740.543 848.475 751.174 841.479 748.232 904.736 C 747.385 922.948 753.145 941.534 733.577 951.144 C 719.106 959.978 704.725 963.644 687.997 965.284 C 688.27 981.95 692.501 996.769 677.033 1006.74 C 656.046 1009.31 617.777 1008.11 595.693 1008.03 C 590.147 1003.88 587.624 1002.1 584.682 995.856 C 579.54 990.155 574.615 984.674 569.704 978.776 C 564.459 973.696 559.247 968.581 554.07 963.432 C 549.448 959.355 548.676 958.013 545.341 952.994 C 517.625 947.725 528.123 914.245 526.053 892.939 C 521.045 841.39 542.568 848.594 582.294 848.987 z" fill="rgb(13,22,88)" transform="translate(0,0)"></path>
<path d="M 545.341 952.994 C 557.427 952.633 570.782 951.667 582.605 951.545 C 584.053 967.601 584.682 979.549 584.682 995.856 C 579.54 990.155 574.615 984.674 569.704 978.776 C 564.459 973.696 559.247 968.581 554.07 963.432 C 549.448 959.355 548.676 958.013 545.341 952.994 z" fill="rgb(124,126,171)" transform="translate(0,0)"></path>
<path d="M 554.07 963.432 C 562.021 963.714 570.614 967.447 571.028 976.417 L 569.704 978.776 C 564.459 973.696 559.247 968.581 554.07 963.432 z" fill="rgb(98,100,151)" transform="translate(0,0)"></path>
<path d="M 687.952 951.014 L 733.577 951.144 C 719.106 959.978 704.725 963.644 687.997 965.284 L 687.952 951.014 z" fill="rgb(98,100,151)" transform="translate(0,0)"></path>
<path d="M 601.805 807.428 C 611.624 807.801 664.804 804.546 667.557 810.883 C 667.02 824.39 666.932 837.911 667.294 851.423 C 668.909 856.162 669.89 857.068 673.376 860.868 C 685.426 861.221 708.769 860.543 719.128 861.88 C 722.052 861.999 725.257 862.061 728.142 862.324 C 728.478 883.653 729.433 908.523 728.504 929.6 C 711.525 929.435 686.01 928.56 669.871 930.107 C 664.222 947.088 668.206 966.676 666.518 984.902 C 646.135 985.328 619.643 985.871 599.325 985.038 L 598.883 978.174 C 596.736 966.17 600.259 940.353 596.135 932.147 C 591.084 922.098 558.551 932.269 541.889 928.414 C 539.896 925.336 540.643 924.653 540.582 920.234 C 540.81 911.047 540.573 901.801 540.834 892.468 C 539.963 885.495 539.899 871.203 539.631 863.672 C 549.843 863.118 560.343 863.159 570.668 862.601 C 578.313 862.188 588.444 860.866 595.793 861.412 C 604.112 853.985 593.384 812.128 601.805 807.428 z" fill="rgb(62,169,197)" transform="translate(0,0)"></path>
<path d="M 728.142 862.324 C 728.478 883.653 729.433 908.523 728.504 929.6 C 711.525 929.435 686.01 928.56 669.871 930.107 C 664.222 947.088 668.206 966.676 666.518 984.902 C 646.135 985.328 619.643 985.871 599.325 985.038 L 606.826 975.636 L 607.933 974.46 C 628.455 962.114 648.164 939.219 666.73 924.253 C 687.915 907.175 712.323 898.743 722.619 870.893 C 724.592 868.572 726.53 865.032 728.142 862.324 z" fill="rgb(26,111,177)" transform="translate(0,0)"></path>
<path d="M 541.226 870.188 C 554.924 869.983 568.626 870.038 582.322 870.352 C 590.712 870.351 601.577 870.025 609.766 870.446 C 592.204 881.878 575.368 878.118 553.945 878.084 C 554.186 889.094 554.861 903.102 554.559 913.872 C 553.366 915.846 552.634 917.061 551.658 919.143 L 551.947 920.035 L 540.582 920.234 C 540.81 911.047 540.573 901.801 540.834 892.468 C 541.639 886.07 541.285 876.884 541.226 870.188 z" fill="rgb(149,240,252)" transform="translate(0,0)"></path>
<path d="M 541.226 870.188 C 554.924 869.983 568.626 870.038 582.322 870.352 C 569.804 870.657 557.283 870.841 544.761 870.903 L 545.038 919.593 C 547.762 917.885 551.781 915.167 554.559 913.872 C 553.366 915.846 552.634 917.061 551.658 919.143 L 551.947 920.035 L 540.582 920.234 C 540.81 911.047 540.573 901.801 540.834 892.468 C 541.639 886.07 541.285 876.884 541.226 870.188 z" fill="rgb(114,215,240)" transform="translate(0,0)"></path>
<path d="M 667.294 851.423 C 668.909 856.162 669.89 857.068 673.376 860.868 C 685.426 861.221 708.769 860.543 719.128 861.88 C 722.052 861.999 725.257 862.061 728.142 862.324 C 726.53 865.032 724.592 868.572 722.619 870.893 C 720.992 870.691 721.729 870.77 719.798 871.852 C 704.013 871.781 686.662 871.345 671.056 872.478 L 668.261 873.557 C 665.352 873.888 662.619 874.237 659.686 874.357 C 659.986 869.711 659.585 861.931 661.388 858.443 C 666.505 856.407 666.528 856.837 667.294 851.423 z" fill="rgb(39,138,179)" transform="translate(0,0)"></path>
<path d="M 667.294 851.423 C 668.909 856.162 669.89 857.068 673.376 860.868 C 685.426 861.221 708.769 860.543 719.128 861.88 C 706.484 862.879 694.178 861.694 682.258 862.404 L 671.056 872.478 L 668.261 873.557 C 665.352 873.888 662.619 874.237 659.686 874.357 C 659.986 869.711 659.585 861.931 661.388 858.443 C 666.505 856.407 666.528 856.837 667.294 851.423 z" fill="rgb(26,111,177)" transform="translate(0,0)"></path>
<path d="M 551.947 920.035 C 569.355 920.401 586.472 919.644 603.816 920.417 C 604.992 924.715 606.889 929.626 606.098 933.786 C 604.615 936.288 602.841 936.785 600.205 938.091 C 598.749 940.693 598.838 940.544 598.377 943.506 C 599.781 950.546 599.091 970.408 598.883 978.174 C 596.736 966.17 600.259 940.353 596.135 932.147 C 591.084 922.098 558.551 932.269 541.889 928.414 C 539.896 925.336 540.643 924.653 540.582 920.234 L 551.947 920.035 z" fill="rgb(39,138,179)" transform="translate(0,0)"></path>
<path d="M 595.793 861.412 C 604.112 853.985 593.384 812.128 601.805 807.428 L 602.727 810.895 C 607.7 812.436 609.838 813.319 612.317 818.016 C 611.916 827.683 613.988 852.346 607.984 857.905 L 604.093 858.45 C 601.49 860.029 599.321 861.867 596.437 861.737 L 595.793 861.412 z" fill="rgb(149,240,252)" transform="translate(0,0)"></path>
<path d="M 595.793 861.412 C 604.112 853.985 593.384 812.128 601.805 807.428 L 602.727 810.895 C 604.05 827.219 602.944 843.354 604.093 858.45 C 601.49 860.029 599.321 861.867 596.437 861.737 L 595.793 861.412 z" fill="rgb(62,169,197)" transform="translate(0,0)"></path>
<path d="M 601.805 807.428 C 611.624 807.801 664.804 804.546 667.557 810.883 C 663.878 814.821 663.112 816.178 658.3 818.204 C 645.105 817.779 624.06 818.97 612.317 818.016 C 609.838 813.319 607.7 812.436 602.727 810.895 L 601.805 807.428 z" fill="rgb(149,240,252)" transform="translate(0,0)"></path>
<path d="M 658.3 818.204 C 663.112 816.178 663.878 814.821 667.557 810.883 C 667.02 824.39 666.932 837.911 667.294 851.423 C 666.528 856.837 666.505 856.407 661.388 858.443 C 659.585 861.931 659.986 869.711 659.686 874.357 C 658.623 869.877 657.972 823.712 658.3 818.204 z" fill="rgb(39,138,179)" transform="translate(0,0)"></path>
<path d="M 606.393 939.054 C 605.044 945.184 604.802 970.259 606.826 975.636 L 599.325 985.038 L 598.883 978.174 C 599.091 970.408 599.781 950.546 598.377 943.506 C 602.776 942.395 602.9 942.148 606.393 939.054 z" fill="rgb(114,215,240)" transform="translate(0,0)"></path>
<path d="M 671.056 872.478 C 686.662 871.345 704.013 871.781 719.798 871.852 C 718.872 872.62 717.947 873.388 717.022 874.155 C 702.814 876.143 686.445 875.048 672.037 874.678 C 669.95 874.624 669.621 874.249 668.261 873.557 L 671.056 872.478 z" fill="rgb(149,240,252)" transform="translate(0,0)"></path>
<path d="M 606.393 939.054 L 607.793 938.919 C 609.69 945.464 608.491 966.73 607.933 974.46 L 606.826 975.636 C 604.802 970.259 605.044 945.184 606.393 939.054 z" fill="rgb(149,240,252)" transform="translate(0,0)"></path>
<path d="M 446.914 1294.76 C 443.3 1280.74 441.759 1261.6 440.835 1246.92 C 435.357 1159.86 453.033 1075.87 473.639 991.921 C 477.458 998.511 480.901 1003.67 485.217 1009.97 L 485.873 1010.62 C 495.022 1019.87 500.727 1028.14 511.026 1037.45 C 545.517 1068.41 589.968 1085.99 636.311 1086.97 C 663.036 1087.3 688.187 1080.48 713.03 1071.2 C 723.479 1066.14 735.718 1058.82 745.372 1052.37 C 735.824 1092.67 724.571 1134.8 708.131 1172.9 C 697.862 1196.7 687.064 1223.08 674.551 1245.64 C 674.587 1251.42 669.415 1263.12 666.76 1268.52 C 648.28 1306.15 624.27 1339.38 595.186 1369.48 C 568.027 1397.59 517.772 1433.71 481.921 1398.04 C 477.145 1393.29 470.69 1384.1 469.189 1377.3 C 458.501 1360.97 444.848 1313.17 446.914 1294.76 z" fill="rgb(144,145,184)" transform="translate(0,0)"></path>
<path d="M 713.03 1071.2 C 723.479 1066.14 735.718 1058.82 745.372 1052.37 C 735.824 1092.67 724.571 1134.8 708.131 1172.9 C 697.862 1196.7 687.064 1223.08 674.551 1245.64 C 674.587 1251.42 669.415 1263.12 666.76 1268.52 C 648.28 1306.15 624.27 1339.38 595.186 1369.48 C 568.027 1397.59 517.772 1433.71 481.921 1398.04 C 477.145 1393.29 470.69 1384.1 469.189 1377.3 C 458.501 1360.97 444.848 1313.17 446.914 1294.76 C 450.946 1305.99 456.044 1320.15 462.976 1329.9 C 465.909 1334.89 472.137 1341.86 476.589 1345.57 C 525.536 1387.12 581.003 1329.7 608.419 1290.67 C 642.844 1241.66 678.967 1176.43 696.331 1119.21 C 699.045 1113.27 712.954 1075.36 713.03 1071.2 z" fill="rgb(82,83,134)" transform="translate(0,0)"></path>
<path d="M 469.189 1377.3 C 472.125 1379.95 475.171 1382.47 478.32 1384.86 C 533.307 1426.92 614.513 1330.82 645.116 1290.26 C 655.326 1276.72 663.641 1260.12 673.912 1246.48 L 674.551 1245.64 C 674.587 1251.42 669.415 1263.12 666.76 1268.52 C 648.28 1306.15 624.27 1339.38 595.186 1369.48 C 568.027 1397.59 517.772 1433.71 481.921 1398.04 C 477.145 1393.29 470.69 1384.1 469.189 1377.3 z" fill="rgb(57,62,112)" transform="translate(0,0)"></path>
<path d="M 446.914 1294.76 C 443.3 1280.74 441.759 1261.6 440.835 1246.92 C 435.357 1159.86 453.033 1075.87 473.639 991.921 C 477.458 998.511 480.901 1003.67 485.217 1009.97 C 485.457 1019.92 502.538 1029.75 502.066 1038.97 C 469.994 1131.53 449.006 1231.73 462.976 1329.9 C 456.044 1320.15 450.946 1305.99 446.914 1294.76 z" fill="rgb(219,215,214)" transform="translate(0,0)"></path>
<path d="M 485.217 1009.97 L 485.873 1010.62 C 495.022 1019.87 500.727 1028.14 511.026 1037.45 C 545.517 1068.41 589.968 1085.99 636.311 1086.97 C 663.036 1087.3 688.187 1080.48 713.03 1071.2 C 712.954 1075.36 699.045 1113.27 696.331 1119.21 C 691.544 1119.9 684.142 1122.01 679.149 1123.2 C 640.518 1132.41 601.546 1121.26 567.523 1102.11 C 540.508 1086.91 520.732 1063.7 502.066 1038.97 C 502.538 1029.75 485.457 1019.92 485.217 1009.97 z" fill="rgb(98,100,151)" transform="translate(0,0)"></path>
<path d="M 1308.1 1066.14 C 1317.04 1070.16 1325.91 1073.91 1335.19 1077.12 C 1406.86 1101.89 1497.16 1078.12 1543.49 1016.85 C 1549.87 1008.29 1555.69 999.326 1560.93 990.022 C 1563.06 986.198 1568.89 972.953 1571.65 971.593 L 1572.59 974.684 C 1583.93 1012.71 1598.44 1073.9 1601.3 1113.22 C 1609.18 1164.94 1613.52 1264.32 1598.39 1314.73 C 1597.64 1329.78 1587.17 1353.38 1580.46 1366.65 C 1561.9 1403.36 1526.93 1416.75 1490.78 1392.61 C 1424.74 1348.52 1375 1256.63 1345.77 1185.14 C 1332.1 1151.09 1320.6 1116.2 1311.36 1080.69 C 1310 1076.52 1308.99 1070.57 1308.1 1066.14 z" fill="rgb(144,145,184)" transform="translate(0,0)"></path>
<path d="M 1308.1 1066.14 C 1317.04 1070.16 1325.91 1073.91 1335.19 1077.12 C 1406.86 1101.89 1497.16 1078.12 1543.49 1016.85 C 1549.87 1008.29 1555.69 999.326 1560.93 990.022 C 1563.06 986.198 1568.89 972.953 1571.65 971.593 L 1572.59 974.684 C 1583.93 1012.71 1598.44 1073.9 1601.3 1113.22 C 1595.87 1107.39 1579.62 1066.66 1574.58 1055.72 C 1562.44 1067.3 1551.44 1078.12 1538.05 1088.27 C 1481.38 1131.18 1415.42 1143.12 1349.55 1116.33 C 1358.24 1140.78 1371.55 1178.18 1381.32 1201.15 C 1398.82 1242.27 1450.16 1338.01 1490.35 1357.16 C 1507.96 1365.73 1528.28 1366.85 1546.73 1360.28 C 1572.27 1351.19 1582.56 1333.32 1598.39 1314.73 C 1597.64 1329.78 1587.17 1353.38 1580.46 1366.65 C 1561.9 1403.36 1526.93 1416.75 1490.78 1392.61 C 1424.74 1348.52 1375 1256.63 1345.77 1185.14 C 1332.1 1151.09 1320.6 1116.2 1311.36 1080.69 C 1310 1076.52 1308.99 1070.57 1308.1 1066.14 z" fill="rgb(98,100,151)" transform="translate(0,0)"></path>
<path d="M 1308.1 1066.14 C 1317.04 1070.16 1325.91 1073.91 1335.19 1077.12 C 1406.86 1101.89 1497.16 1078.12 1543.49 1016.85 C 1549.87 1008.29 1555.69 999.326 1560.93 990.022 C 1563.06 986.198 1568.89 972.953 1571.65 971.593 L 1572.59 974.684 C 1570.31 986.678 1561.64 1002.18 1555.64 1012.98 C 1544.49 1033.01 1525.89 1051.64 1506.96 1064.51 C 1465.32 1093.04 1414.05 1103.83 1364.44 1094.5 C 1349.66 1091.6 1327.25 1085.62 1313.86 1079.01 L 1312.21 1079.21 L 1311.36 1080.69 C 1310 1076.52 1308.99 1070.57 1308.1 1066.14 z" fill="rgb(82,83,134)" transform="translate(0,0)"></path>
<path d="M 698.698 1808.16 C 730.117 1807.07 769.839 1808.15 802.064 1808.08 L 1037.73 1808.04 L 1209.76 1807.59 C 1233.78 1807.61 1266.89 1806.75 1290.09 1808.02 C 1336.39 1809.13 1383.4 1806.88 1428.4 1808.1 C 1429.13 1821.01 1429.67 1833.94 1430.04 1846.87 L 1251.86 1848.02 C 1228.61 1848.06 1196.54 1849.03 1173.89 1847.75 L 619.227 1847.01 C 619.273 1837.14 618.546 1817.12 619.594 1808.31 L 698.698 1808.16 z" fill="rgb(82,83,134)" transform="translate(0,0)"></path>
<path d="M 1290.09 1808.02 C 1336.39 1809.13 1383.4 1806.88 1428.4 1808.1 C 1429.13 1821.01 1429.67 1833.94 1430.04 1846.87 L 1251.86 1848.02 C 1228.61 1848.06 1196.54 1849.03 1173.89 1847.75 C 1185.55 1846.9 1202.69 1847.33 1214.64 1847.31 L 1289.93 1847.19 L 1290.09 1808.02 z" fill="rgb(45,41,82)" transform="translate(0,0)"></path>
<path d="M 619.594 1808.31 L 698.698 1808.16 C 703.523 1808.53 707.406 1808.87 712.275 1808.77 C 708.686 1814.18 703.088 1823.18 699.211 1828.01 C 673.192 1828.04 645.895 1827.7 619.987 1828.39 C 619.975 1823.31 620.207 1812.89 619.594 1808.31 z" fill="rgb(144,145,184)" transform="translate(0,0)"></path>
<path d="M 761.916 1481.47 C 764.654 1471.9 773.577 1466.04 783.299 1465.6 C 799.74 1464.85 816.279 1465.4 832.749 1465.57 C 857.563 1465.66 882.378 1465.61 907.192 1465.42 L 1205.39 1466.05 C 1206.75 1469.02 1206.73 1468.79 1206.7 1472.06 C 1215.92 1472.37 1240.02 1471.45 1247.04 1472.85 C 1257.26 1473.05 1274.37 1475.64 1281.91 1475.43 C 1292.99 1482.69 1290.35 1501.9 1289.62 1513.8 C 1269.11 1515.88 1227.95 1514.92 1206.13 1514.96 C 1072.27 1514.02 938.417 1514.02 804.565 1514.95 L 762.015 1514.96 C 762.173 1503.8 762.14 1492.63 761.916 1481.47 z" fill="rgb(57,62,112)" transform="translate(0,0)"></path>
<path d="M 761.916 1481.47 C 764.654 1471.9 773.577 1466.04 783.299 1465.6 C 799.74 1464.85 816.279 1465.4 832.749 1465.57 C 857.563 1465.66 882.378 1465.61 907.192 1465.42 L 1205.39 1466.05 C 1206.75 1469.02 1206.73 1468.79 1206.7 1472.06 C 1173.25 1471.15 1137.75 1471.77 1104.13 1471.89 C 1054.47 1471.87 1004.8 1472.18 955.148 1472.83 C 912.571 1473.43 868.003 1472.16 825.613 1477.45 C 818.874 1478.29 810.113 1484.13 805.233 1488.83 C 804.914 1497.54 804.691 1506.24 804.565 1514.95 L 762.015 1514.96 C 762.173 1503.8 762.14 1492.63 761.916 1481.47 z" fill="url(#Gradient4)" transform="translate(0,0)"></path>
<path d="M 761.916 1481.47 C 763.001 1485.52 762.403 1486.35 765.026 1488.19 C 774.611 1489.59 794.607 1488.96 805.233 1488.83 C 804.914 1497.54 804.691 1506.24 804.565 1514.95 L 762.015 1514.96 C 762.173 1503.8 762.14 1492.63 761.916 1481.47 z" fill="rgb(124,126,171)" transform="translate(0,0)"></path>
<path d="M 1247.04 1472.85 C 1257.26 1473.05 1274.37 1475.64 1281.91 1475.43 C 1292.99 1482.69 1290.35 1501.9 1289.62 1513.8 C 1269.11 1515.88 1227.95 1514.92 1206.13 1514.96 L 1205.7 1473.03 C 1219.48 1473.07 1233.26 1473.01 1247.04 1472.85 z" fill="rgb(45,41,82)" transform="translate(0,0)"></path>
<path d="M 686.874 1760.85 C 703.076 1759.33 731.034 1760.01 748.158 1759.99 L 858.368 1759.98 L 1119.06 1759.95 C 1164.6 1759.91 1212.55 1760.69 1257.89 1759.66 C 1270.72 1770.27 1278.91 1783.74 1289 1797.1 C 1260.87 1798.63 1222.63 1797.57 1193.53 1797.59 L 1004.11 1797.23 L 820.741 1797.24 C 787.922 1797.34 749.171 1798.49 716.993 1797.2 C 688.415 1796.17 657.277 1796.88 628.199 1796.35 C 639.811 1784.24 652.736 1773.08 664.782 1760.51 C 671.705 1760.96 679.836 1760.81 686.874 1760.85 z" fill="rgb(82,83,134)" transform="translate(0,0)"></path>
<path d="M 664.782 1760.51 C 671.705 1760.96 679.836 1760.81 686.874 1760.85 C 704.931 1761.56 724.996 1761.03 743.204 1760.91 C 732.975 1771.83 724.798 1784.45 716.993 1797.2 C 688.415 1796.17 657.277 1796.88 628.199 1796.35 C 639.811 1784.24 652.736 1773.08 664.782 1760.51 z" fill="rgb(144,145,184)" transform="translate(0,0)"></path>
<path d="M 1108.35 995.554 C 1130.46 968.615 1168 960.054 1199.61 974.743 C 1211.83 980.42 1222.32 989.225 1230.04 1000.27 C 1247.73 1025.58 1248.44 1059.05 1231.85 1085.09 C 1215.26 1111.13 1184.63 1124.63 1154.21 1119.3 C 1123.8 1113.97 1099.58 1090.85 1092.84 1060.72 L 1093.54 1057.1 C 1096.41 1055 1101.18 1054.65 1104.85 1054.02 C 1104.8 1047.92 1104.41 1040.84 1105.75 1034.98 C 1108.25 1020.12 1111.11 1014.66 1118.96 1002.1 C 1115.95 999.882 1111.64 997.504 1108.35 995.554 z" fill="rgb(13,22,88)" transform="translate(0,0)"></path>
<path d="M 1230.04 1000.27 C 1247.73 1025.58 1248.44 1059.05 1231.85 1085.09 C 1215.26 1111.13 1184.63 1124.63 1154.21 1119.3 C 1123.8 1113.97 1099.58 1090.85 1092.84 1060.72 L 1093.54 1057.1 C 1096.41 1055 1101.18 1054.65 1104.85 1054.02 C 1104.8 1047.92 1104.41 1040.84 1105.75 1034.98 C 1105.9 1050.63 1105.32 1060.65 1113.67 1075.14 C 1121.91 1089.27 1135.53 1099.46 1151.41 1103.38 C 1206.6 1116.8 1251.33 1057.67 1217.49 1004.52 C 1219.53 1002.94 1219.91 1002.83 1222.2 1001.58 C 1226.46 1001.97 1226.42 1002.23 1230.04 1000.27 z" fill="rgb(34,81,149)" transform="translate(0,0)"></path>
<path d="M 1108.35 995.554 C 1130.46 968.615 1168 960.054 1199.61 974.743 L 1200.76 983.692 C 1195.12 981.299 1189.44 979.44 1183.3 979.014 C 1180.93 982.128 1182.38 981.401 1179.31 982.487 C 1173.51 982.006 1153.75 983.682 1151.05 982.29 C 1138.6 986.376 1128.03 992.466 1118.96 1002.1 C 1115.95 999.882 1111.64 997.504 1108.35 995.554 z" fill="url(#Gradient3)" transform="translate(0,0)"></path>
<path d="M 1151.05 982.29 C 1160.28 977.899 1173.29 976.854 1183.3 979.014 C 1180.93 982.128 1182.38 981.401 1179.31 982.487 C 1173.51 982.006 1153.75 983.682 1151.05 982.29 z" fill="rgb(34,81,149)" transform="translate(0,0)"></path>
<path d="M 1199.61 974.743 C 1211.83 980.42 1222.32 989.225 1230.04 1000.27 C 1226.42 1002.23 1226.46 1001.97 1222.2 1001.58 C 1218.61 997.612 1210.43 991.631 1205.88 988.096 L 1200.76 983.692 L 1199.61 974.743 z" fill="url(#Gradient2)" transform="translate(0,0)"></path>
<path d="M 1183.3 979.014 C 1189.44 979.44 1195.12 981.299 1200.76 983.692 L 1205.88 988.096 C 1210.43 991.631 1218.61 997.612 1222.2 1001.58 C 1219.91 1002.83 1219.53 1002.94 1217.49 1004.52 C 1214.26 1000.35 1209.79 996.813 1205.77 993.304 C 1196.07 987.846 1190.14 984.916 1179.31 982.487 C 1182.38 981.401 1180.93 982.128 1183.3 979.014 z" fill="rgb(34,81,149)" transform="translate(0,0)"></path>
<path d="M 1162.19 992.421 C 1173.02 990.656 1182.95 993.339 1192.16 999.107 C 1216.98 1010.99 1224.27 1041.64 1212.14 1065.34 C 1205.67 1078.05 1194.39 1087.65 1180.82 1092.02 C 1167.72 1096.23 1153.46 1094.87 1141.39 1088.25 C 1138.67 1086.73 1136.14 1084.76 1133.71 1082.81 C 1114.94 1068.96 1111.17 1037.49 1122.38 1017.8 C 1124.06 1015.02 1125.9 1012.35 1127.92 1009.8 C 1137 998.137 1148.11 994.092 1162.19 992.421 z" fill="rgb(62,169,197)" transform="translate(0,0)"></path>
<path d="M 1192.16 999.107 C 1216.98 1010.99 1224.27 1041.64 1212.14 1065.34 C 1205.67 1078.05 1194.39 1087.65 1180.82 1092.02 C 1167.72 1096.23 1153.46 1094.87 1141.39 1088.25 C 1138.67 1086.73 1136.14 1084.76 1133.71 1082.81 C 1169.32 1080.78 1203.83 1060.03 1200.45 1018.55 C 1199.79 1010.37 1195.81 1006.21 1192.16 999.107 z" fill="rgb(26,111,177)" transform="translate(0,0)"></path>
<path d="M 1162.19 992.421 C 1162.54 996.7 1155.8 1005.36 1152.98 1009.14 C 1145.46 1019.19 1133.28 1018.74 1122.38 1017.8 C 1124.06 1015.02 1125.9 1012.35 1127.92 1009.8 C 1137 998.137 1148.11 994.092 1162.19 992.421 z" fill="rgb(255,255,255)" transform="translate(0,0)"></path>
<path d="M 961.874 1313.19 C 1005.68 1321.42 1044.53 1319.91 1087.97 1311.25 C 1087.98 1356.14 1086.8 1402.66 1087.1 1447.1 C 1068.85 1447.55 1050.6 1447.8 1032.35 1447.87 C 1026.63 1447.88 1011.46 1448.15 1006.21 1447.34 C 991.382 1446.94 977.221 1447.37 962.386 1447.77 C 961.488 1431.06 962.111 1409.15 962.125 1392.1 L 961.874 1313.19 z" fill="rgb(45,41,82)" transform="translate(0,0)"></path>
<path d="M 962.588 1332.51 C 977.957 1334.85 992.345 1336.79 1007.93 1337.57 C 1007.13 1360.97 1006.82 1384.39 1007 1407.8 C 1007 1414.39 1007.31 1442.82 1006.21 1447.34 C 991.382 1446.94 977.221 1447.37 962.386 1447.77 C 963.55 1433.93 963.01 1412.55 962.936 1398.08 C 962.826 1376.71 963.33 1353.7 962.588 1332.51 z" fill="rgb(57,62,112)" transform="translate(0,0)"></path>
<path d="M 1053.94 695.909 C 1069.03 695.826 1084.13 695.82 1099.23 695.89 C 1126.55 695.9 1137.79 711.922 1138.13 738.008 C 1105.01 737.869 1058.19 739.209 1026.56 737.233 C 1010.57 737.949 987.102 737.32 970.992 737.006 C 962.026 737.611 923.863 738.845 916.115 737.468 C 915.086 734.481 915.824 733.889 916.518 730.283 C 919.489 711.531 926.452 701.899 944.744 696.348 C 981.141 696.016 1017.54 695.87 1053.94 695.909 z" fill="rgb(250,189,79)" transform="translate(0,0)"></path>
<path d="M 1099.23 695.89 C 1126.55 695.9 1137.79 711.922 1138.13 738.008 C 1105.01 737.869 1058.19 739.209 1026.56 737.233 C 1031.11 733.618 1050.13 725.035 1056.28 721.366 C 1070.54 712.859 1084.8 704.084 1099.23 695.89 z" fill="rgb(219,123,74)" transform="translate(0,0)"></path>
<path d="M 1053.94 695.909 C 1069.03 695.826 1084.13 695.82 1099.23 695.89 C 1084.8 704.084 1070.54 712.859 1056.28 721.366 C 1050.13 725.035 1031.11 733.618 1026.56 737.233 C 1010.57 737.949 987.102 737.32 970.992 737.006 C 975.759 733.765 986.877 733.83 992.167 731.753 C 1010.76 724.456 1040.16 709.611 1053.94 695.909 z" fill="rgb(227,139,57)" transform="translate(0,0)"></path>
<path d="M 944.744 696.348 L 949.695 697.121 L 950.035 697.804 C 924.859 711.956 931.032 718.124 916.518 730.283 C 919.489 711.531 926.452 701.899 944.744 696.348 z" fill="rgb(255,255,255)" transform="translate(0,0)"></path>
<path d="M 750.482 310.166 C 771.168 309.181 798.962 309.897 820.245 309.829 C 820.826 317.696 820.689 326.798 820.756 334.772 C 804.044 334.939 786.941 334.695 770.197 334.64 C 771.011 399.119 769.215 489.704 853.663 499.114 C 859.29 510.239 864.374 518.978 870.93 529.501 C 832.167 522.601 801.136 512.899 774.644 481.041 C 746.433 446.078 746.064 399.865 745.244 357.148 C 745 344.495 744.278 331.222 745.174 318.602 C 745.494 314.089 747.063 312.87 750.482 310.166 z" fill="rgb(219,123,74)" transform="translate(0,0)"></path>
<path d="M 1226.11 310.167 C 1251.5 310.765 1276.89 310.994 1302.28 310.854 C 1303.07 324.746 1301.55 346.038 1300.88 360.534 C 1299.81 383.624 1299.57 411.681 1295 433.93 C 1292.67 445.333 1288.71 456.341 1283.24 466.615 C 1266.08 498.734 1242.35 512.335 1208.75 522.312 C 1200.07 524.549 1192.19 525.796 1183.38 527.27 C 1187.62 518.699 1194.2 507.475 1198.93 498.933 C 1218.25 494.811 1231.45 490.935 1246.38 476.837 C 1277.62 447.322 1275.04 377.045 1275.16 335.699 C 1259.03 335.752 1242.9 335.668 1226.77 335.447 L 1226.11 310.167 z" fill="rgb(219,123,74)" transform="translate(0,0)"></path>
<path d="M 1257.89 1759.66 C 1269.05 1758.72 1285.85 1759.22 1297.36 1759.28 L 1375.4 1760.2 C 1388.11 1771.19 1403.41 1784.13 1415.35 1795.83 C 1372.53 1797.65 1330.99 1795.89 1289 1797.1 C 1278.91 1783.74 1270.72 1770.27 1257.89 1759.66 z" fill="rgb(45,41,82)" transform="translate(0,0)"></path>
<path d="M 789.119 351.466 L 821.925 351.699 C 821.77 381.948 828.013 415.796 835.504 445.107 C 838.453 456.646 843.767 469.552 845.841 480.997 C 830.329 477.282 811.301 462.262 804.14 448.211 C 790.135 420.733 788.47 381.538 789.119 351.466 z" fill="rgb(188,220,224)" transform="translate(0,0)"></path>
<path d="M 1226.82 353.628 C 1236.71 353.572 1247.51 353.295 1257.32 353.652 C 1257.29 359.015 1257.39 384.838 1256.5 388.768 C 1253.41 429.724 1250.4 465.066 1206.64 480.273 C 1219.38 442.604 1222.03 415.025 1225.84 376.172 L 1226.82 353.628 z" fill="rgb(187,177,190)" transform="translate(0,0)"></path>
<path d="M 1226.82 353.628 C 1236.71 353.572 1247.51 353.295 1257.32 353.652 C 1257.29 359.015 1257.39 384.838 1256.5 388.768 L 1256.18 386.505 C 1254.55 384.692 1230.52 377.896 1225.84 376.172 L 1226.82 353.628 z" fill="rgb(114,215,240)" transform="translate(0,0)"></path>
<path d="M 991.28 635.254 C 1011.59 641.109 1024.91 642.071 1045.81 639.75 C 1050.28 638.931 1055.01 638.159 1059.41 637.147 L 1060.04 679.211 L 1048.27 679.414 L 1021.31 679.314 C 1014.09 679.184 995.861 681.555 991.265 677.047 L 991.241 672.535 C 991.073 660.108 991.086 647.68 991.28 635.254 z" fill="rgb(219,123,74)" transform="translate(0,0)"></path>
<path d="M 992.067 645.599 C 1004.3 652.034 1013.36 667.706 1021.31 679.314 C 1014.09 679.184 995.861 681.555 991.265 677.047 L 991.241 672.535 C 992.418 664.942 992.064 653.559 992.067 645.599 z" fill="rgb(250,189,79)" transform="translate(0,0)"></path>
<path d="M 1045.81 639.75 C 1050.28 638.931 1055.01 638.159 1059.41 637.147 L 1060.04 679.211 L 1048.27 679.414 C 1046.57 667.208 1045.89 652.04 1045.81 639.75 z" fill="rgb(202,81,46)" transform="translate(0,0)"></path>
<path d="M 664.215 684.889 C 689.961 686.687 696.528 692.418 705.774 716.156 C 672.733 705.339 639.494 699.979 604.767 705.787 C 590.792 708.432 581.803 711.163 568.548 715.664 C 569.559 709.844 570.291 705.264 573.118 700.051 C 581.294 686.405 594.813 684.582 609.289 684.673 C 627.567 684.786 645.949 685.223 664.215 684.889 z" fill="rgb(187,177,190)" transform="translate(0,0)"></path>
<path d="M 664.215 684.889 C 689.961 686.687 696.528 692.418 705.774 716.156 C 672.733 705.339 639.494 699.979 604.767 705.787 L 604.662 704.996 C 601.876 703.055 599.225 707.076 592.83 705.81 C 597.68 704.768 604.794 703.997 608.393 700.737 C 614.343 697.49 659.818 693.254 665.572 686.437 L 664.215 684.889 z" fill="rgb(98,100,151)" transform="translate(0,0)"></path>
<path d="M 573.118 700.051 C 578.963 710.261 598.564 701.341 608.393 700.737 C 604.794 703.997 597.68 704.768 592.83 705.81 C 599.225 707.076 601.876 703.055 604.662 704.996 L 604.767 705.787 C 590.792 708.432 581.803 711.163 568.548 715.664 C 569.559 709.844 570.291 705.264 573.118 700.051 z" fill="url(#Gradient1)" transform="translate(0,0)"></path>
<path d="M 1369.28 687.788 C 1393.27 687.793 1433.98 684.46 1453.58 697.241 C 1450.54 707.217 1445.82 700.963 1440.28 707.626 C 1439.74 709.673 1439.52 710.447 1439.19 712.548 C 1411.81 705.851 1372.13 707.106 1344.79 714.674 C 1342.42 716.358 1338.39 716.847 1335.59 716.141 C 1331.34 710.764 1333.91 704.478 1338 699.658 C 1346.04 690.212 1357.64 688.711 1369.28 687.788 z" fill="rgb(144,145,184)" transform="translate(0,0)"></path>
<path d="M 1344.79 714.674 C 1342.42 716.358 1338.39 716.847 1335.59 716.141 C 1331.34 710.764 1333.91 704.478 1338 699.658 C 1346.04 690.212 1357.64 688.711 1369.28 687.788 C 1360.69 694.395 1349.41 704.775 1344.79 714.674 z" fill="rgb(255,255,255)" transform="translate(0,0)"></path>
<path d="M 1108.35 995.554 C 1111.64 997.504 1115.95 999.882 1118.96 1002.1 C 1111.11 1014.66 1108.25 1020.12 1105.75 1034.98 C 1104.41 1040.84 1104.8 1047.92 1104.85 1054.02 C 1101.18 1054.65 1096.41 1055 1093.54 1057.1 L 1092.84 1060.72 C 1087.71 1037.77 1093.43 1013.73 1108.35 995.554 z" fill="rgb(39,138,179)" transform="translate(0,0)"></path>
<path d="M 1453.58 697.241 C 1463.55 705.084 1470.24 712.079 1474.54 724.445 C 1464.47 720.697 1449.37 714.632 1439.19 712.548 C 1439.52 710.447 1439.74 709.673 1440.28 707.626 C 1445.82 700.963 1450.54 707.217 1453.58 697.241 z" fill="rgb(124,126,171)" transform="translate(0,0)"></path>
<path d="M 1205.39 1466.05 C 1225.9 1466.23 1266.5 1464.21 1281.91 1475.43 C 1274.37 1475.64 1257.26 1473.05 1247.04 1472.85 C 1240.02 1471.45 1215.92 1472.37 1206.7 1472.06 C 1206.73 1468.79 1206.75 1469.02 1205.39 1466.05 z" fill="rgb(82,83,134)" transform="translate(0,0)"></path>
<path d="M 296.866 1860.5 C 310.995 1860.51 381.614 1857.43 388.512 1863.28 C 391.077 1865.45 392.594 1868.79 392.736 1872.14 C 392.858 1875.01 391.938 1877.73 389.897 1879.78 C 383.445 1886.27 369.063 1884.21 360.5 1884.07 C 343.568 1884.12 284.119 1886.79 272.259 1881.69 C 268.433 1880.04 266.5 1878.13 264.99 1874.3 C 265.068 1857.53 285.379 1860.35 296.866 1860.5 z" fill="rgb(164,196,225)" transform="translate(0,0)"></path>
<path d="M 1644.71 1861.06 C 1672.41 1859.99 1704 1860.39 1731.92 1860.95 C 1745.86 1861.23 1746.88 1875.38 1734.93 1883.81 C 1706.13 1885.39 1673.44 1884.05 1644.6 1883.17 C 1637.43 1882.95 1631.45 1868.74 1644.71 1861.06 z" fill="rgb(164,196,225)" transform="translate(0,0)"></path>
<metadata><recraft-signature>{"signed_by": "recraft", "signature_b64": "vs2Zaubcv3XIFyge+v0wMLl6XL/ZEm5eOsoPqf4AwwYqre6XLo2pl8G4LZEuA9Iw2Pn5tjIJxndeEfTJmn4YDg==", "signing_algo": "Ed25519", "generation_timestamp": 1783513107, "identifier": "731ae143-19fc-42db-b872-01fdbd5f88f1"}</recraft-signature></metadata></svg>