<svg xmlns="http://www.w3.org/2000/svg" height="1024" preserveAspectRatio="none" style="display: block;" version="1.1" viewBox="0 0 2048 2048" width="1024">
<defs>
	<linearGradient gradientUnits="userSpaceOnUse" id="Gradient1" x1="728.588" x2="808.119" y1="415.866" y2="509.266">
		<stop class="stop0" offset="0" stop-color="rgb(250,174,72)" stop-opacity="1"></stop>
		<stop class="stop1" offset="1" stop-color="rgb(255,247,151)" stop-opacity="1"></stop>
	</linearGradient>
	<linearGradient gradientUnits="userSpaceOnUse" id="Gradient2" x1="1358.45" x2="1268.09" y1="426.438" y2="527.85">
		<stop class="stop0" offset="0" stop-color="rgb(236,139,51)" stop-opacity="1"></stop>
		<stop class="stop1" offset="1" stop-color="rgb(255,253,147)" stop-opacity="1"></stop>
	</linearGradient>
	<linearGradient gradientUnits="userSpaceOnUse" id="Gradient3" x1="975.516" x2="906.114" y1="628.452" y2="569.208">
		<stop class="stop0" offset="0" stop-color="rgb(165,70,28)" stop-opacity="1"></stop>
		<stop class="stop1" offset="1" stop-color="rgb(186,95,33)" stop-opacity="1"></stop>
	</linearGradient>
	<linearGradient gradientUnits="userSpaceOnUse" id="Gradient4" x1="896.099" x2="851.159" y1="566.981" y2="503.612">
		<stop class="stop0" offset="0" stop-color="rgb(253,170,58)" stop-opacity="1"></stop>
		<stop class="stop1" offset="1" stop-color="rgb(253,210,97)" stop-opacity="1"></stop>
	</linearGradient>
	<linearGradient gradientUnits="userSpaceOnUse" id="Gradient5" x1="821.679" x2="799.403" y1="654.514" y2="726.221">
		<stop class="stop0" offset="0" stop-color="rgb(145,44,28)" stop-opacity="1"></stop>
		<stop class="stop1" offset="1" stop-color="rgb(198,83,51)" stop-opacity="1"></stop>
	</linearGradient>
	<linearGradient gradientUnits="userSpaceOnUse" id="Gradient6" x1="689.776" x2="836.136" y1="1544.93" y2="1073.35">
		<stop class="stop0" offset="0" stop-color="rgb(232,139,65)" stop-opacity="1"></stop>
		<stop class="stop1" offset="1" stop-color="rgb(243,220,128)" stop-opacity="1"></stop>
	</linearGradient>
	<linearGradient gradientUnits="userSpaceOnUse" id="Gradient7" x1="1390.52" x2="1370.37" y1="484.246" y2="547.232">
		<stop class="stop0" offset="0" stop-color="rgb(139,25,21)" stop-opacity="1"></stop>
		<stop class="stop1" offset="1" stop-color="rgb(186,79,38)" stop-opacity="1"></stop>
	</linearGradient>
	<linearGradient gradientUnits="userSpaceOnUse" id="Gradient8" x1="1146.43" x2="1199.17" y1="570.578" y2="509.473">
		<stop class="stop0" offset="0" stop-color="rgb(251,202,98)" stop-opacity="1"></stop>
		<stop class="stop1" offset="1" stop-color="rgb(255,236,145)" stop-opacity="1"></stop>
	</linearGradient>
	<linearGradient gradientUnits="userSpaceOnUse" id="Gradient9" x1="1207.46" x2="1539.6" y1="679.616" y2="701.453">
		<stop class="stop0" offset="0" stop-color="rgb(203,84,59)" stop-opacity="1"></stop>
		<stop class="stop1" offset="1" stop-color="rgb(175,74,66)" stop-opacity="1"></stop>
	</linearGradient>
	<linearGradient gradientUnits="userSpaceOnUse" id="Gradient10" x1="725.198" x2="791.957" y1="1000.25" y2="844.393">
		<stop class="stop0" offset="0" stop-color="rgb(242,187,88)" stop-opacity="1"></stop>
		<stop class="stop1" offset="1" stop-color="rgb(255,234,140)" stop-opacity="1"></stop>
	</linearGradient>
	<linearGradient gradientUnits="userSpaceOnUse" id="Gradient11" x1="1260.94" x2="1205.07" y1="1320.97" y2="1315.94">
		<stop class="stop0" offset="0" stop-color="rgb(24,30,40)" stop-opacity="1"></stop>
		<stop class="stop1" offset="1" stop-color="rgb(21,25,50)" stop-opacity="1"></stop>
	</linearGradient>
	<linearGradient gradientUnits="userSpaceOnUse" id="Gradient12" x1="1582.92" x2="1077.77" y1="1679.09" y2="1035.33">
		<stop class="stop0" offset="0" stop-color="rgb(72,56,80)" stop-opacity="1"></stop>
		<stop class="stop1" offset="1" stop-color="rgb(119,101,104)" stop-opacity="1"></stop>
	</linearGradient>
	<linearGradient gradientUnits="userSpaceOnUse" id="Gradient13" x1="1292.62" x2="558.359" y1="1447.61" y2="298.853">
		<stop class="stop0" offset="0" stop-color="rgb(185,140,118)" stop-opacity="1"></stop>
		<stop class="stop1" offset="1" stop-color="rgb(255,225,155)" stop-opacity="1"></stop>
	</linearGradient>
</defs>
<path d="M 0 0 L 2048 0 L 2048 2048 L 0 2048 L 0 0 z" fill="rgb(255,255,255)" transform="translate(0,0)"></path>
<path d="M 582.378 1764.05 C 227.658 1552.8 72.6695 1119.61 212.879 731.286 C 353.089 342.966 749.074 108.706 1156.93 172.8 C 1564.78 236.894 1869.82 581.322 1884.17 993.929 C 1892.42 1231.31 1802.3 1461.56 1635.1 1630.28 C 1467.91 1798.99 1238.48 1891.19 1001.04 1885.08 C 853.417 1881.28 709.251 1839.61 582.378 1764.05 z" fill="url(#Gradient13)" transform="translate(0,0)"></path>
<path d="M 1548.23 667.077 C 1549.74 664.222 1550.71 663.882 1553.37 662.113 C 1624.18 730.133 1695.24 803.684 1764.91 873.379 C 1794.28 902.42 1823.47 931.634 1852.49 961.019 C 1861.23 970.03 1876.69 984.823 1884.17 993.929 C 1892.42 1231.31 1802.3 1461.56 1635.1 1630.28 C 1467.91 1798.99 1238.48 1891.19 1001.04 1885.08 C 991.44 1872.65 958.843 1841.63 946.289 1828.84 C 925.005 1806.85 903.515 1785.07 881.821 1763.49 C 872.286 1753.96 860.301 1741.36 850.49 1732.63 C 831.272 1711.78 809.02 1691.67 789.043 1671.45 C 739.423 1620.54 689.262 1570.15 638.569 1520.3 L 584.581 1466.41 C 575.689 1457.62 562.762 1446.1 554.908 1437.21 C 568.249 1441.17 587.848 1456.72 597.101 1460.19 C 612.966 1466.13 707.471 1527.62 715.953 1528.25 C 716.033 1532.2 715.376 1533.44 717.141 1536.3 C 745.141 1547.45 782.479 1570.8 809.943 1585.93 L 810.051 1587.09 C 816.04 1590.48 821.986 1593.94 827.889 1597.47 C 837.122 1602.2 846.459 1608 855.277 1613.55 C 906.677 1645.87 959.493 1675.72 1010.41 1708.84 C 1015.23 1711.98 1020.37 1715.08 1024.65 1718.95 C 1028.8 1718.74 1062.67 1696.27 1068.46 1692.63 C 1105.33 1669.95 1142.34 1647.5 1179.5 1625.3 C 1194.16 1616.46 1215.67 1604.39 1229.28 1594.97 C 1232.71 1593.08 1235.54 1591.66 1239.09 1590.01 C 1269.62 1571.81 1299.69 1550.8 1330.64 1532.92 C 1334.08 1530.94 1334.7 1529.82 1335.36 1526.18 C 1334.42 1494.06 1336.56 1459.82 1335.15 1427.66 C 1336.07 1417.71 1335.43 1393.3 1335.43 1382.8 L 1335.4 1290.48 C 1335.34 1210.5 1336.76 1125.22 1334.89 1045.66 L 1335 1045.13 C 1334.5 1025.62 1334.89 1003.72 1334.85 984.059 L 1335.21 982.507 C 1349.53 971.423 1373.11 958.371 1389.18 948.554 L 1503.95 879.168 C 1519.43 868.73 1536.03 858.78 1551.96 848.95 C 1550.54 792.919 1551.11 729.395 1551.2 673.022 L 1548.23 667.077 z" fill="url(#Gradient12)" transform="translate(0,0)"></path>
<path d="M 1503.95 879.168 L 1503.75 887.449 C 1504.38 909.987 1503.81 933.611 1503.8 956.26 L 1503.89 1079.33 L 1503.05 1427.16 C 1488.02 1436.98 1337.93 1528.13 1336.3 1528.33 L 1335.36 1526.18 C 1334.42 1494.06 1336.56 1459.82 1335.15 1427.66 C 1336.07 1417.71 1335.43 1393.3 1335.43 1382.8 L 1335.4 1290.48 C 1335.34 1210.5 1336.76 1125.22 1334.89 1045.66 L 1335 1045.13 C 1334.5 1025.62 1334.89 1003.72 1334.85 984.059 L 1335.21 982.507 C 1349.53 971.423 1373.11 958.371 1389.18 948.554 L 1503.95 879.168 z" fill="rgb(39,50,68)" transform="translate(0,0)"></path>
<path d="M 1503.95 879.168 L 1503.75 887.449 C 1501.95 897.986 1502.96 932.459 1502.84 944.262 C 1492.89 950.774 1482.18 956.331 1471.9 962.359 C 1425.94 989.317 1381.01 1018.28 1335 1045.13 C 1334.5 1025.62 1334.89 1003.72 1334.85 984.059 L 1335.21 982.507 C 1349.53 971.423 1373.11 958.371 1389.18 948.554 L 1503.95 879.168 z" fill="rgb(32,32,45)" transform="translate(0,0)"></path>
<path d="M 1221.54 864.619 C 1226.05 867.733 1226.82 868.178 1229.71 872.781 L 1230.91 874.825 C 1234.37 881.187 1233.3 925.383 1233.31 935.739 L 1233.33 1045.26 L 1239.05 1042.26 C 1261.99 1027.5 1285.89 1013.71 1308.99 999.163 C 1316.88 994.193 1326.53 988.072 1334.85 984.059 C 1334.89 1003.72 1334.5 1025.62 1335 1045.13 L 1334.89 1045.66 C 1336.76 1125.22 1335.34 1210.5 1335.4 1290.48 L 1335.43 1382.8 C 1335.43 1393.3 1336.07 1417.71 1335.15 1427.66 C 1336.56 1459.82 1334.42 1494.06 1335.36 1526.18 C 1334.7 1529.82 1334.08 1530.94 1330.64 1532.92 C 1299.69 1550.8 1269.62 1571.81 1239.09 1590.01 C 1235.54 1591.66 1232.71 1593.08 1229.28 1594.97 C 1215.67 1604.39 1194.16 1616.46 1179.5 1625.3 C 1142.34 1647.5 1105.33 1669.95 1068.46 1692.63 C 1062.67 1696.27 1028.8 1718.74 1024.65 1718.95 C 1020.37 1715.08 1015.23 1711.98 1010.41 1708.84 C 959.493 1675.72 906.677 1645.87 855.277 1613.55 C 846.459 1608 837.122 1602.2 827.889 1597.47 L 828.107 1118.02 C 827.862 1096.22 828.218 1074.41 829.175 1052.63 L 973.188 1138.25 C 982.643 1143.8 1018.7 1166.13 1026.82 1169.18 C 1028.47 1143.08 1026.55 1103.8 1027.19 1076.14 C 1027.57 1059.47 1028.27 1011.62 1026.6 996.584 C 1025.88 993.402 1026.09 990.354 1026.09 987.081 C 1036.95 982.302 1063.53 962.865 1075.01 955.551 C 1118.96 927.547 1168.27 901.843 1210.31 871.495 C 1213.91 869.735 1218.09 866.834 1221.54 864.619 z" fill="rgb(39,50,68)" transform="translate(0,0)"></path>
<path d="M 829.175 1052.63 L 973.188 1138.25 C 982.643 1143.8 1018.7 1166.13 1026.82 1169.18 C 1026.83 1189.62 1027.37 1214.3 1026.18 1234.32 L 1025.81 1234.78 C 1023.95 1251.94 1024.85 1288.61 1024.81 1307.07 L 1024.69 1445.64 L 1024.89 1635.9 C 1024.94 1660.64 1023.39 1695.71 1024.65 1718.95 C 1020.37 1715.08 1015.23 1711.98 1010.41 1708.84 C 959.493 1675.72 906.677 1645.87 855.277 1613.55 C 846.459 1608 837.122 1602.2 827.889 1597.47 L 828.107 1118.02 C 827.862 1096.22 828.218 1074.41 829.175 1052.63 z" fill="rgb(65,82,105)" transform="translate(0,0)"></path>
<path d="M 829.175 1052.63 L 973.188 1138.25 C 982.643 1143.8 1018.7 1166.13 1026.82 1169.18 C 1026.83 1189.62 1027.37 1214.3 1026.18 1234.32 L 1025.81 1234.78 C 976.286 1206.92 927.424 1175.92 878.117 1147.55 C 870.593 1143.22 833.853 1119.97 828.107 1118.02 C 827.862 1096.22 828.218 1074.41 829.175 1052.63 z" fill="rgb(39,50,68)" transform="translate(0,0)"></path>
<path d="M 1239.05 1042.26 C 1261.99 1027.5 1285.89 1013.71 1308.99 999.163 C 1316.88 994.193 1326.53 988.072 1334.85 984.059 C 1334.89 1003.72 1334.5 1025.62 1335 1045.13 L 1334.89 1045.66 C 1336.76 1125.22 1335.34 1210.5 1335.4 1290.48 L 1335.43 1382.8 C 1335.43 1393.3 1336.07 1417.71 1335.15 1427.66 C 1336.56 1459.82 1334.42 1494.06 1335.36 1526.18 C 1334.7 1529.82 1334.08 1530.94 1330.64 1532.92 C 1299.69 1550.8 1269.62 1571.81 1239.09 1590.01 C 1235.54 1591.66 1232.71 1593.08 1229.28 1594.97 C 1228.08 1584.73 1228.82 1558.11 1228.82 1546.59 L 1228.72 1452.39 L 1228.99 1113.05 C 1227.57 1091.7 1228.45 1070.31 1226.8 1049.44 L 1233.33 1045.26 L 1239.05 1042.26 z" fill="rgb(190,110,51)" transform="translate(0,0)"></path>
<path d="M 1239.05 1042.26 C 1261.99 1027.5 1285.89 1013.71 1308.99 999.163 C 1316.88 994.193 1326.53 988.072 1334.85 984.059 C 1334.89 1003.72 1334.5 1025.62 1335 1045.13 L 1334.89 1045.66 C 1314.64 1054.65 1280.75 1080.31 1259.79 1092.11 C 1253.56 1095.61 1245.33 1101.74 1238.88 1104.75 L 1239.05 1042.26 z" fill="rgb(149,84,30)" transform="translate(0,0)"></path>
<path d="M 1239.05 1042.26 L 1238.88 1104.75 L 1238.79 1320.06 C 1238.84 1356.6 1237.64 1402.51 1239.08 1438.31 C 1238.55 1448.41 1238.69 1459.13 1238.81 1469.28 C 1239.25 1509.47 1238.49 1549.83 1239.09 1590.01 C 1235.54 1591.66 1232.71 1593.08 1229.28 1594.97 C 1228.08 1584.73 1228.82 1558.11 1228.82 1546.59 L 1228.72 1452.39 L 1228.99 1113.05 C 1227.57 1091.7 1228.45 1070.31 1226.8 1049.44 L 1233.33 1045.26 L 1239.05 1042.26 z" fill="url(#Gradient11)" transform="translate(0,0)"></path>
<path d="M 1335.15 1427.66 C 1336.56 1459.82 1334.42 1494.06 1335.36 1526.18 C 1334.7 1529.82 1334.08 1530.94 1330.64 1532.92 C 1299.69 1550.8 1269.62 1571.81 1239.09 1590.01 C 1238.49 1549.83 1239.25 1509.47 1238.81 1469.28 C 1238.69 1459.13 1238.55 1448.41 1239.08 1438.31 C 1242.18 1443.15 1238.33 1503.81 1240.86 1514.93 C 1243.72 1515.87 1251.76 1514.27 1255.27 1513.81 C 1266.56 1512.28 1278.72 1516.01 1290.07 1515.88 C 1297.69 1515.79 1300.93 1513.16 1308.31 1516.74 C 1309.67 1517.4 1318.03 1513.96 1320.33 1513.82 C 1324.19 1513.58 1327.8 1513.96 1331.75 1513.3 C 1337.05 1507.29 1330.32 1441.47 1335.15 1427.66 z" fill="rgb(162,50,38)" transform="translate(0,0)"></path>
<path d="M 1221.54 864.619 C 1226.05 867.733 1226.82 868.178 1229.71 872.781 L 1230.91 874.825 C 1234.37 881.187 1233.3 925.383 1233.31 935.739 L 1233.33 1045.26 L 1226.8 1049.44 C 1180.35 1076.58 1134.11 1104.07 1088.07 1131.9 C 1078.05 1138.01 1033.36 1166.7 1026.82 1169.18 C 1028.47 1143.08 1026.55 1103.8 1027.19 1076.14 C 1027.57 1059.47 1028.27 1011.62 1026.6 996.584 C 1025.88 993.402 1026.09 990.354 1026.09 987.081 C 1036.95 982.302 1063.53 962.865 1075.01 955.551 C 1118.96 927.547 1168.27 901.843 1210.31 871.495 C 1213.91 869.735 1218.09 866.834 1221.54 864.619 z" fill="rgb(109,31,31)" transform="translate(0,0)"></path>
<path d="M 1221.54 864.619 C 1226.05 867.733 1226.82 868.178 1229.71 872.781 C 1170.46 904.564 1113.39 945.298 1055.1 979.063 C 1046.06 984.298 1035.13 990.794 1026.6 996.584 C 1025.88 993.402 1026.09 990.354 1026.09 987.081 C 1036.95 982.302 1063.53 962.865 1075.01 955.551 C 1118.96 927.547 1168.27 901.843 1210.31 871.495 C 1213.91 869.735 1218.09 866.834 1221.54 864.619 z" fill="rgb(190,110,51)" transform="translate(0,0)"></path>
<path d="M 1026.82 1169.18 C 1033.36 1166.7 1078.05 1138.01 1088.07 1131.9 C 1134.11 1104.07 1180.35 1076.58 1226.8 1049.44 C 1228.45 1070.31 1227.57 1091.7 1228.99 1113.05 C 1201.87 1131.59 1165.64 1151.14 1136.7 1168.82 L 1065.27 1212.42 C 1060.14 1215.52 1030.62 1234.36 1026.18 1234.32 C 1027.37 1214.3 1026.83 1189.62 1026.82 1169.18 z" fill="rgb(32,32,45)" transform="translate(0,0)"></path>
<path d="M 496.815 674.631 C 498.958 672.621 500.504 671.54 502.833 669.787 C 510.136 674.881 520.695 679.685 528.7 684.052 C 588.353 716.592 645.225 754.106 704.206 787.859 C 710.027 791.19 716.757 795.063 721.878 799.236 C 745.266 777.262 803.446 744.262 832.956 726.643 L 832.883 726.269 C 840.62 725.709 848.318 719.71 855.657 717.14 C 861.397 715.129 867.232 713.39 873.053 711.633 C 867.528 714.936 851.054 720.267 841.864 725.176 L 841.982 725.802 C 862.216 727.478 883.125 726.878 903.558 729.633 C 913.007 730.907 926.169 729.104 935.387 730.968 L 966.914 727.119 L 965.393 725.632 C 966.957 724.618 967 724.58 968.364 723.424 C 967.646 716.962 966.647 724.671 965.031 717.953 C 967.042 719.174 972.026 722.222 974.119 722.508 C 991.212 724.84 1011.87 723 1029.26 723.012 C 1040.14 723.079 1058.76 725.307 1066.88 719.652 C 1068.05 723.973 1076.29 732.903 1080.14 735.395 C 1128.66 776.924 1175.82 820.021 1221.54 864.619 C 1218.09 866.834 1213.91 869.735 1210.31 871.495 C 1168.27 901.843 1118.96 927.547 1075.01 955.551 C 1063.53 962.865 1036.95 982.302 1026.09 987.081 C 1026.09 990.354 1025.88 993.402 1026.6 996.584 C 1028.27 1011.62 1027.57 1059.47 1027.19 1076.14 C 1026.55 1103.8 1028.47 1143.08 1026.82 1169.18 C 1018.7 1166.13 982.643 1143.8 973.188 1138.25 L 829.175 1052.63 C 825.009 1049.93 814.375 1042.62 810.35 1041.32 L 806.933 1038.44 C 797.465 1032.01 723.612 984.742 715.785 982.561 C 705.435 980.456 689.718 967.018 679.689 961.545 C 643.337 941.707 607.441 921.252 572.248 899.408 C 563.302 893.855 553.161 887.265 543.794 882.657 C 537.245 880.693 502.951 859.114 496.045 854.678 L 496.193 716.3 C 495.596 705.519 495.739 685.163 496.815 674.631 z" fill="rgb(221,111,77)" transform="translate(0,0)"></path>
<path d="M 496.815 674.631 C 498.958 672.621 500.504 671.54 502.833 669.787 C 510.136 674.881 520.695 679.685 528.7 684.052 C 588.353 716.592 645.225 754.106 704.206 787.859 C 710.027 791.19 716.757 795.063 721.878 799.236 C 719.307 801.815 716.15 804.768 713.906 807.549 C 736.429 823.48 763.457 837.709 786.79 852.68 C 791.409 855.644 809.707 865.869 812.562 868.886 C 805.052 879.951 807.355 964.463 807.102 984.02 L 807.147 1006.09 C 806.894 1016.87 806.823 1027.65 806.933 1038.44 C 797.465 1032.01 723.612 984.742 715.785 982.561 C 705.435 980.456 689.718 967.018 679.689 961.545 C 643.337 941.707 607.441 921.252 572.248 899.408 C 563.302 893.855 553.161 887.265 543.794 882.657 C 537.245 880.693 502.951 859.114 496.045 854.678 L 496.193 716.3 C 495.596 705.519 495.739 685.163 496.815 674.631 z" fill="rgb(201,83,61)" transform="translate(0,0)"></path>
<path d="M 713.906 807.549 C 736.429 823.48 763.457 837.709 786.79 852.68 C 791.409 855.644 809.707 865.869 812.562 868.886 C 805.052 879.951 807.355 964.463 807.102 984.02 L 807.147 1006.09 C 806.894 1016.87 806.823 1027.65 806.933 1038.44 C 797.465 1032.01 723.612 984.742 715.785 982.561 C 714.482 981.758 712.857 980.769 711.666 979.79 C 711.42 979.588 710.543 978.181 710.554 977.667 C 710.872 962.784 711.224 946.803 711.262 932.032 C 711.169 890.88 711.313 849.727 711.695 808.576 L 713.906 807.549 z" fill="url(#Gradient10)" transform="translate(0,0)"></path>
<path d="M 496.815 674.631 C 498.958 672.621 500.504 671.54 502.833 669.787 C 510.136 674.881 520.695 679.685 528.7 684.052 C 588.353 716.592 645.225 754.106 704.206 787.859 C 710.027 791.19 716.757 795.063 721.878 799.236 C 719.307 801.815 716.15 804.768 713.906 807.549 L 711.695 808.576 C 701.5 801.217 685.926 792.532 674.759 785.764 C 652.371 771.948 629.857 758.339 607.217 744.94 C 571.176 723.412 534.076 698.898 497.042 679.439 C 496.938 691.691 497.005 704.084 496.193 716.3 C 495.596 705.519 495.739 685.163 496.815 674.631 z" fill="rgb(229,131,58)" transform="translate(0,0)"></path>
<path d="M 834.993 871.359 C 881.761 898.993 927.483 927.865 974.077 955.687 C 984.903 962.151 1016.84 982.859 1025.76 986.015 L 1026.09 987.081 C 1026.09 990.354 1025.88 993.402 1026.6 996.584 C 1028.27 1011.62 1027.57 1059.47 1027.19 1076.14 C 1026.55 1103.8 1028.47 1143.08 1026.82 1169.18 C 1018.7 1166.13 982.643 1143.8 973.188 1138.25 L 829.175 1052.63 C 825.009 1049.93 814.375 1042.62 810.35 1041.32 L 806.933 1038.44 C 806.823 1027.65 806.894 1016.87 807.147 1006.09 C 809.568 1001.27 810.248 992.059 810.974 986.429 C 811.14 961.236 815.97 901.497 824.375 878.818 C 827.644 875.138 830.721 873.795 834.993 871.359 z" fill="rgb(201,83,61)" transform="translate(0,0)"></path>
<path d="M 834.993 871.359 C 881.761 898.993 927.483 927.865 974.077 955.687 C 984.903 962.151 1016.84 982.859 1025.76 986.015 L 1026.09 987.081 C 1026.09 990.354 1025.88 993.402 1026.6 996.584 C 1023.61 997.023 1019.23 994.417 1016.62 992.887 C 974.027 967.948 931.712 942.523 889.269 917.331 C 876.372 909.627 863.413 902.029 850.392 894.538 C 842.586 890.054 831.224 884.047 824.375 878.818 C 827.644 875.138 830.721 873.795 834.993 871.359 z" fill="rgb(229,131,58)" transform="translate(0,0)"></path>
<path d="M 1029.26 723.012 C 1040.14 723.079 1058.76 725.307 1066.88 719.652 C 1068.05 723.973 1076.29 732.903 1080.14 735.395 C 1128.66 776.924 1175.82 820.021 1221.54 864.619 C 1218.09 866.834 1213.91 869.735 1210.31 871.495 C 1168.27 901.843 1118.96 927.547 1075.01 955.551 C 1063.53 962.865 1036.95 982.302 1026.09 987.081 L 1025.76 986.015 C 1024.48 912.584 1025.62 833.489 1025.98 759.781 C 1025.94 749.774 1025.05 735.318 1026.37 725.376 C 1026.59 723.73 1027.27 723.955 1029.26 723.012 z" fill="rgb(201,83,61)" transform="translate(0,0)"></path>
<path d="M 1029.26 723.012 C 1040.14 723.079 1058.76 725.307 1066.88 719.652 C 1068.05 723.973 1076.29 732.903 1080.14 735.395 C 1128.66 776.924 1175.82 820.021 1221.54 864.619 C 1218.09 866.834 1213.91 869.735 1210.31 871.495 C 1191.48 857.441 1177.45 842.224 1160.21 826.593 C 1141.41 810.422 1121.47 795.393 1101.91 780.187 C 1080.6 763.627 1051.8 761.669 1025.98 759.781 C 1025.94 749.774 1025.05 735.318 1026.37 725.376 C 1026.59 723.73 1027.27 723.955 1029.26 723.012 z" fill="rgb(148,41,34)" transform="translate(0,0)"></path>
<path d="M 832.883 726.269 C 840.62 725.709 848.318 719.71 855.657 717.14 C 861.397 715.129 867.232 713.39 873.053 711.633 C 867.528 714.936 851.054 720.267 841.864 725.176 L 841.982 725.802 C 862.216 727.478 883.125 726.878 903.558 729.633 C 913.007 730.907 926.169 729.104 935.387 730.968 L 966.914 727.119 C 964.071 730.926 960.931 733.573 957.575 736.87 C 936.049 758.019 913.453 777.89 891.21 798.256 L 838.899 845.856 C 833.486 850.761 817.948 865.37 812.562 868.886 C 809.707 865.869 791.409 855.644 786.79 852.68 C 763.457 837.709 736.429 823.48 713.906 807.549 C 716.15 804.768 719.307 801.815 721.878 799.236 C 745.266 777.262 803.446 744.262 832.956 726.643 L 832.883 726.269 z" fill="rgb(251,202,97)" transform="translate(0,0)"></path>
<path d="M 832.883 726.269 C 840.62 725.709 848.318 719.71 855.657 717.14 C 861.397 715.129 867.232 713.39 873.053 711.633 C 867.528 714.936 851.054 720.267 841.864 725.176 L 841.982 725.802 C 862.216 727.478 883.125 726.878 903.558 729.633 C 913.007 730.907 926.169 729.104 935.387 730.968 C 919.625 737.727 886.783 746.524 867.655 753.58 C 842.362 762.895 817.708 773.858 793.851 786.399 C 786.343 790.374 779.054 795.368 772.534 798.809 L 772.446 797.99 C 782.389 788.941 857.682 732.672 867.786 728.177 C 855.314 728.169 845.469 728.099 832.956 726.643 L 832.883 726.269 z" fill="rgb(220,151,61)" transform="translate(0,0)"></path>
<path d="M 965.031 717.953 C 967.042 719.174 972.026 722.222 974.119 722.508 C 991.212 724.84 1011.87 723 1029.26 723.012 C 1027.27 723.955 1026.59 723.73 1026.37 725.376 C 1025.05 735.318 1025.94 749.774 1025.98 759.781 C 1018.43 759.178 993.149 757.658 987.182 760.332 C 971.841 767.209 950.804 785.153 937.037 795.134 C 903.203 819.664 869.479 848.336 834.993 871.359 C 830.721 873.795 827.644 875.138 824.375 878.818 C 815.97 901.497 811.14 961.236 810.974 986.429 C 810.248 992.059 809.568 1001.27 807.147 1006.09 L 807.102 984.02 C 807.355 964.463 805.052 879.951 812.562 868.886 C 817.948 865.37 833.486 850.761 838.899 845.856 L 891.21 798.256 C 913.453 777.89 936.049 758.019 957.575 736.87 C 960.931 733.573 964.071 730.926 966.914 727.119 L 965.393 725.632 C 966.957 724.618 967 724.58 968.364 723.424 C 967.646 716.962 966.647 724.671 965.031 717.953 z" fill="rgb(162,50,38)" transform="translate(0,0)"></path>
<path d="M 1158.13 474.804 C 1167.76 466.75 1177.63 458.997 1187.74 451.555 C 1193.4 452.816 1196.78 454.408 1199.88 459.329 C 1206.9 470.48 1211.41 477.806 1222.07 486.263 C 1231.6 493.821 1241.33 502.147 1251.27 509.297 C 1262.31 517.486 1268.92 516.673 1277.96 528.206 C 1289.55 519.997 1298.48 513.659 1311.42 507.457 C 1316.53 504.427 1320.24 502.493 1325.53 499.907 L 1326.74 498.466 C 1356.8 485.186 1400.45 470.066 1423.44 504.283 C 1425.95 508.024 1428.29 512.194 1430.5 516.14 C 1431.65 524.851 1432.46 530.4 1431.54 539.272 C 1428.12 555.424 1424.16 568.731 1415.99 583.028 C 1446.72 602.849 1478.7 621.036 1509.48 640.736 C 1518.05 646.223 1540.02 659.391 1546.54 665.87 L 1548.23 667.077 L 1551.2 673.022 C 1551.11 729.395 1550.54 792.919 1551.96 848.95 C 1536.03 858.78 1519.43 868.73 1503.95 879.168 L 1389.18 948.554 C 1373.11 958.371 1349.53 971.423 1335.21 982.507 L 1334.85 984.059 C 1326.53 988.072 1316.88 994.193 1308.99 999.163 C 1285.89 1013.71 1261.99 1027.5 1239.05 1042.26 L 1233.33 1045.26 L 1233.31 935.739 C 1233.3 925.383 1234.37 881.187 1230.91 874.825 L 1229.71 872.781 C 1226.82 868.178 1226.05 867.733 1221.54 864.619 C 1175.82 820.021 1128.66 776.924 1080.14 735.395 C 1076.29 732.903 1068.05 723.973 1066.88 719.652 C 1078.68 712.79 1082.85 707.14 1087.91 695.074 C 1088.94 680.443 1089.5 667.697 1088.81 652.916 L 1089.13 613.064 C 1085.44 590.01 1069.75 591.884 1051.36 592.046 C 1055.63 584.225 1069.83 561.621 1076.14 556.61 C 1094.06 531.09 1129.17 498.424 1153.13 478.723 L 1158.13 474.804 z" fill="rgb(229,131,58)" transform="translate(0,0)"></path>
<path d="M 1546.54 665.87 L 1548.23 667.077 L 1551.2 673.022 C 1551.11 729.395 1550.54 792.919 1551.96 848.95 C 1536.03 858.78 1519.43 868.73 1503.95 879.168 L 1389.18 948.554 C 1373.11 958.371 1349.53 971.423 1335.21 982.507 L 1334.85 984.059 C 1326.53 988.072 1316.88 994.193 1308.99 999.163 C 1285.89 1013.71 1261.99 1027.5 1239.05 1042.26 L 1233.33 1045.26 L 1233.31 935.739 C 1233.3 925.383 1234.37 881.187 1230.91 874.825 C 1253.68 859.102 1277.82 844.11 1300.98 828.891 C 1312.08 821.601 1324.2 815.641 1335.22 807.815 C 1334.3 803.683 1332.04 801.413 1329.44 798.006 C 1334.47 794.704 1340.16 791.387 1345.36 788.341 C 1402.57 754.823 1458.88 719.747 1515.08 684.576 C 1525.04 678.35 1536.04 670.941 1546.54 665.87 z" fill="rgb(109,31,31)" transform="translate(0,0)"></path>
<path d="M 1335.22 807.815 L 1336 807.782 C 1337.99 814.674 1336.79 845.116 1336.87 854.287 C 1337.23 896.151 1334.47 940.805 1335.21 982.507 L 1334.85 984.059 C 1326.53 988.072 1316.88 994.193 1308.99 999.163 C 1285.89 1013.71 1261.99 1027.5 1239.05 1042.26 L 1233.33 1045.26 L 1233.31 935.739 C 1233.3 925.383 1234.37 881.187 1230.91 874.825 C 1253.68 859.102 1277.82 844.11 1300.98 828.891 C 1312.08 821.601 1324.2 815.641 1335.22 807.815 z" fill="rgb(190,110,51)" transform="translate(0,0)"></path>
<path d="M 1546.54 665.87 L 1548.23 667.077 L 1551.2 673.022 C 1531.13 687.112 1337.57 803.011 1336 807.782 L 1335.22 807.815 C 1334.3 803.683 1332.04 801.413 1329.44 798.006 C 1334.47 794.704 1340.16 791.387 1345.36 788.341 C 1402.57 754.823 1458.88 719.747 1515.08 684.576 C 1525.04 678.35 1536.04 670.941 1546.54 665.87 z" fill="rgb(190,110,51)" transform="translate(0,0)"></path>
<path d="M 1415.99 583.028 C 1446.72 602.849 1478.7 621.036 1509.48 640.736 C 1518.05 646.223 1540.02 659.391 1546.54 665.87 C 1536.04 670.941 1525.04 678.35 1515.08 684.576 C 1458.88 719.747 1402.57 754.823 1345.36 788.341 C 1340.16 791.387 1334.47 794.704 1329.44 798.006 C 1332.04 801.413 1334.3 803.683 1335.22 807.815 C 1324.2 815.641 1312.08 821.601 1300.98 828.891 C 1277.82 844.11 1253.68 859.102 1230.91 874.825 L 1229.71 872.781 C 1226.82 868.178 1226.05 867.733 1221.54 864.619 C 1175.82 820.021 1128.66 776.924 1080.14 735.395 C 1076.29 732.903 1068.05 723.973 1066.88 719.652 C 1078.68 712.79 1082.85 707.14 1087.91 695.074 C 1090.66 695.497 1089.72 695.239 1092.22 696.534 C 1096.09 704.885 1089.73 715.107 1089.05 720.55 L 1092.34 720.955 C 1098.03 717.172 1093.67 705.286 1096.9 699.134 C 1101.55 690.28 1138.65 698.409 1151.54 693.075 C 1177.92 690.999 1201.78 688.436 1227.88 683.752 C 1275.88 674.529 1355 647.879 1388.2 612.909 C 1397.15 607.304 1409.68 591.478 1415.99 583.028 z" fill="url(#Gradient9)" transform="translate(0,0)"></path>
<path d="M 1102.9 734.109 C 1111.95 729.139 1127.66 732.612 1138.73 729.378 C 1142.16 725.12 1143.44 707.741 1143.34 701.98 C 1139.59 699.931 1127.04 703.2 1121.21 701.417 L 1121.62 701.336 L 1122.27 701.943 L 1122.62 701.163 C 1134.58 699.436 1143.74 700.236 1156.24 696.698 L 1157.64 696.29 C 1161.63 697.817 1170.08 700.834 1173.02 703.5 C 1181.47 707.308 1192.73 713.444 1200.6 716.665 C 1211.11 723.804 1227.37 730.952 1238.52 737.432 C 1262.5 751.368 1310.93 778.947 1329.44 798.006 C 1332.04 801.413 1334.3 803.683 1335.22 807.815 C 1324.2 815.641 1312.08 821.601 1300.98 828.891 C 1277.82 844.11 1253.68 859.102 1230.91 874.825 L 1229.71 872.781 C 1226.82 868.178 1226.05 867.733 1221.54 864.619 C 1175.82 820.021 1128.66 776.924 1080.14 735.395 C 1087.72 734.867 1095.3 734.438 1102.9 734.109 z" fill="rgb(220,151,61)" transform="translate(0,0)"></path>
<path d="M 1102.9 734.109 C 1111.95 729.139 1127.66 732.612 1138.73 729.378 C 1142.16 725.12 1143.44 707.741 1143.34 701.98 C 1139.59 699.931 1127.04 703.2 1121.21 701.417 L 1121.62 701.336 L 1122.27 701.943 L 1122.62 701.163 C 1134.58 699.436 1143.74 700.236 1156.24 696.698 L 1157.64 696.29 C 1161.63 697.817 1170.08 700.834 1173.02 703.5 C 1169.33 704.37 1161.73 699.962 1157.5 698.254 C 1152.64 699.724 1149 699.872 1145.89 702.998 C 1144.22 707.947 1144.17 722.668 1143.77 729.057 L 1144.36 729.999 C 1150.74 729.877 1184.65 742.866 1188.74 746.66 L 1187.89 747.252 C 1168.54 738.597 1152.08 728.882 1131 731.761 C 1124.93 732.591 1108.6 734.163 1102.9 734.109 z" fill="rgb(190,110,51)" transform="translate(0,0)"></path>
<path d="M 1227.88 683.752 L 1229.38 683.803 C 1272.7 685.061 1335.1 675.73 1376.41 660.679 C 1385.77 657.27 1404.59 644.123 1403 666.082 C 1402.52 672.763 1392.07 682.514 1386.72 685.64 C 1345.97 707.785 1291.54 711.59 1245.98 714.39 C 1233.01 715.187 1211.36 714.979 1200.6 716.665 C 1192.73 713.444 1181.47 707.308 1173.02 703.5 C 1170.08 700.834 1161.63 697.817 1157.64 696.29 L 1156.24 696.698 C 1143.74 700.236 1134.58 699.436 1122.62 701.163 L 1122.27 701.943 L 1121.62 701.336 L 1121.21 701.417 C 1127.04 703.2 1139.59 699.931 1143.34 701.98 C 1143.44 707.741 1142.16 725.12 1138.73 729.378 C 1127.66 732.612 1111.95 729.139 1102.9 734.109 C 1095.3 734.438 1087.72 734.867 1080.14 735.395 C 1076.29 732.903 1068.05 723.973 1066.88 719.652 C 1078.68 712.79 1082.85 707.14 1087.91 695.074 C 1090.66 695.497 1089.72 695.239 1092.22 696.534 C 1096.09 704.885 1089.73 715.107 1089.05 720.55 L 1092.34 720.955 C 1098.03 717.172 1093.67 705.286 1096.9 699.134 C 1101.55 690.28 1138.65 698.409 1151.54 693.075 C 1177.92 690.999 1201.78 688.436 1227.88 683.752 z" fill="rgb(162,50,38)" transform="translate(0,0)"></path>
<path d="M 1158.13 474.804 C 1167.76 466.75 1177.63 458.997 1187.74 451.555 C 1193.4 452.816 1196.78 454.408 1199.88 459.329 C 1206.9 470.48 1211.41 477.806 1222.07 486.263 C 1231.6 493.821 1241.33 502.147 1251.27 509.297 C 1262.31 517.486 1268.92 516.673 1277.96 528.206 C 1268.86 534.847 1259.92 541.697 1251.14 548.751 L 1245.92 553.104 C 1240.19 557.86 1232.67 563.746 1227.35 568.745 C 1218.77 575.418 1209.22 584.688 1201.21 592.25 C 1187.36 603.7 1161.4 627.178 1147.45 635.605 C 1147.59 633.188 1178.36 609.46 1183.44 603.627 C 1180.87 599.999 1172.3 585.135 1170.86 583.954 C 1154.79 570.75 1142.11 567.873 1130.49 549.318 C 1127.06 543.843 1111.77 542.156 1105.2 528.572 L 1106.04 527.788 L 1109.24 528.836 L 1109.55 528.07 L 1108.49 526.752 C 1096.69 526.323 1085.11 553.85 1076.14 556.61 C 1094.06 531.09 1129.17 498.424 1153.13 478.723 L 1158.13 474.804 z" fill="url(#Gradient8)" transform="translate(0,0)"></path>
<path d="M 1158.13 474.804 C 1167.76 466.75 1177.63 458.997 1187.74 451.555 C 1193.4 452.816 1196.78 454.408 1199.88 459.329 C 1206.9 470.48 1211.41 477.806 1222.07 486.263 C 1231.6 493.821 1241.33 502.147 1251.27 509.297 C 1262.31 517.486 1268.92 516.673 1277.96 528.206 C 1268.86 534.847 1259.92 541.697 1251.14 548.751 L 1245.92 553.104 C 1242.43 550.558 1239.34 548.931 1235.6 546.837 C 1223.85 526.376 1200.5 510.272 1181.99 495.759 C 1174.37 489.79 1159.87 487.468 1153.13 478.723 L 1158.13 474.804 z" fill="rgb(254,249,193)" transform="translate(0,0)"></path>
<path d="M 1158.13 474.804 C 1167.99 484.207 1202.98 501.159 1213.84 513.052 C 1208.9 511.077 1207.69 510.555 1203.33 507.553 L 1201.58 507.725 L 1201.67 509.043 C 1209.77 515.246 1215.84 516.34 1224.33 522.05 C 1231.25 526.704 1245.78 546.075 1251.14 548.751 L 1245.92 553.104 C 1242.43 550.558 1239.34 548.931 1235.6 546.837 C 1223.85 526.376 1200.5 510.272 1181.99 495.759 C 1174.37 489.79 1159.87 487.468 1153.13 478.723 L 1158.13 474.804 z" fill="rgb(255,239,155)" transform="translate(0,0)"></path>
<path d="M 1311.42 507.457 C 1316.53 504.427 1320.24 502.493 1325.53 499.907 C 1326.89 506.241 1327.8 510.764 1328.56 517.187 C 1331.15 531.308 1322.95 554.401 1315.43 566.583 C 1312.76 571.105 1308.2 578.441 1306.7 583.028 C 1304.62 587.446 1299.95 593.135 1295.32 594.956 C 1243.03 646.302 1186.34 658.159 1115.24 658.04 C 1120.44 654.547 1145.17 638.924 1147.45 635.605 C 1161.4 627.178 1187.36 603.7 1201.21 592.25 C 1209.22 584.688 1218.77 575.418 1227.35 568.745 C 1232.67 563.746 1240.19 557.86 1245.92 553.104 L 1251.14 548.751 C 1259.92 541.697 1268.86 534.847 1277.96 528.206 C 1289.55 519.997 1298.48 513.659 1311.42 507.457 z" fill="rgb(162,50,38)" transform="translate(0,0)"></path>
<path d="M 1311.42 507.457 C 1316.53 504.427 1320.24 502.493 1325.53 499.907 C 1326.89 506.241 1327.8 510.764 1328.56 517.187 C 1331.15 531.308 1322.95 554.401 1315.43 566.583 C 1304.21 567.515 1235.01 571.561 1227.35 568.745 C 1232.67 563.746 1240.19 557.86 1245.92 553.104 L 1251.14 548.751 C 1259.92 541.697 1268.86 534.847 1277.96 528.206 C 1289.55 519.997 1298.48 513.659 1311.42 507.457 z" fill="rgb(144,89,94)" transform="translate(0,0)"></path>
<path d="M 1311.42 507.457 C 1316.53 504.427 1320.24 502.493 1325.53 499.907 C 1326.89 506.241 1327.8 510.764 1328.56 517.187 L 1328.03 519.122 C 1323.17 519.042 1315.41 511.002 1311.42 507.457 z" fill="rgb(209,177,139)" transform="translate(0,0)"></path>
<path d="M 1227.35 568.745 C 1235.01 571.561 1304.21 567.515 1315.43 566.583 C 1312.76 571.105 1308.2 578.441 1306.7 583.028 C 1304.62 587.446 1299.95 593.135 1295.32 594.956 C 1297.5 592.133 1301.16 588.309 1303.63 585.549 C 1259.62 584.426 1242.81 587.408 1201.21 592.25 C 1209.22 584.688 1218.77 575.418 1227.35 568.745 z" fill="rgb(221,111,77)" transform="translate(0,0)"></path>
<path d="M 1326.74 498.466 C 1356.8 485.186 1400.45 470.066 1423.44 504.283 C 1425.95 508.024 1428.29 512.194 1430.5 516.14 C 1431.65 524.851 1432.46 530.4 1431.54 539.272 C 1428.12 555.424 1424.16 568.731 1415.99 583.028 C 1409.68 591.478 1397.15 607.304 1388.2 612.909 C 1389.98 609.908 1394.91 605.252 1397.67 602.412 C 1406.89 592.928 1416.01 582.474 1420.94 569.999 C 1421.06 568.915 1422.95 564.596 1421.74 563.731 C 1401.72 549.498 1350.62 538.385 1328.79 534.835 C 1326.13 552.89 1317.76 568.69 1306.7 583.028 C 1308.2 578.441 1312.76 571.105 1315.43 566.583 C 1322.95 554.401 1331.15 531.308 1328.56 517.187 C 1327.8 510.764 1326.89 506.241 1325.53 499.907 L 1326.74 498.466 z" fill="url(#Gradient7)" transform="translate(0,0)"></path>
<path d="M 1089.13 613.064 C 1095.14 622.806 1100.31 630.161 1101.31 641.904 C 1102.76 658.978 1101.69 676.435 1102.5 693.5 C 1121.24 694.388 1133.62 693.199 1151.54 693.075 C 1138.65 698.409 1101.55 690.28 1096.9 699.134 C 1093.67 705.286 1098.03 717.172 1092.34 720.955 L 1089.05 720.55 C 1089.73 715.107 1096.09 704.885 1092.22 696.534 C 1089.72 695.239 1090.66 695.497 1087.91 695.074 C 1088.94 680.443 1089.5 667.697 1088.81 652.916 L 1089.13 613.064 z" fill="rgb(148,41,34)" transform="translate(0,0)"></path>
<path d="M 543.794 882.657 C 553.161 887.265 563.302 893.855 572.248 899.408 C 607.441 921.252 643.337 941.707 679.689 961.545 C 689.718 967.018 705.435 980.456 715.785 982.561 C 723.612 984.742 797.465 1032.01 806.933 1038.44 L 810.35 1041.32 C 814.375 1042.62 825.009 1049.93 829.175 1052.63 C 828.218 1074.41 827.862 1096.22 828.107 1118.02 L 827.889 1597.47 C 821.986 1593.94 816.04 1590.48 810.051 1587.09 L 809.943 1585.93 C 782.479 1570.8 745.141 1547.45 717.141 1536.3 C 715.376 1533.44 716.033 1532.2 715.953 1528.25 C 707.471 1527.62 612.966 1466.13 597.101 1460.19 C 587.848 1456.72 568.249 1441.17 554.908 1437.21 L 544.075 1429.75 L 544.121 1391.17 L 543.832 949.184 L 543.794 882.657 z" fill="rgb(95,118,136)" transform="translate(0,0)"></path>
<path d="M 715.785 982.561 C 723.612 984.742 797.465 1032.01 806.933 1038.44 L 810.35 1041.32 C 814.375 1042.62 825.009 1049.93 829.175 1052.63 C 828.218 1074.41 827.862 1096.22 828.107 1118.02 L 827.889 1597.47 C 821.986 1593.94 816.04 1590.48 810.051 1587.09 L 809.943 1585.93 C 782.479 1570.8 745.141 1547.45 717.141 1536.3 C 715.376 1533.44 716.033 1532.2 715.953 1528.25 L 715.782 1227.51 C 716.535 1208.56 715.935 1185.15 715.934 1165.86 L 716.008 1051.56 L 716.074 1033.66 C 716.215 1016.63 716.119 999.591 715.785 982.561 z" fill="url(#Gradient6)" transform="translate(0,0)"></path>
<path d="M 810.35 1041.32 C 814.375 1042.62 825.009 1049.93 829.175 1052.63 C 828.218 1074.41 827.862 1096.22 828.107 1118.02 L 827.889 1597.47 C 821.986 1593.94 816.04 1590.48 810.051 1587.09 L 809.943 1585.93 L 810.77 1250.01 C 810.774 1197.94 811.473 1143.86 810.458 1091.92 C 810.534 1075.29 810.865 1057.87 810.35 1041.32 z" fill="rgb(32,32,45)" transform="translate(0,0)"></path>
<path d="M 715.785 982.561 C 723.612 984.742 797.465 1032.01 806.933 1038.44 L 810.35 1041.32 C 810.865 1057.87 810.534 1075.29 810.458 1091.92 C 802.82 1086.11 786.569 1076.26 777.729 1070.78 C 758.322 1058.75 736.129 1044.1 716.074 1033.66 C 716.215 1016.63 716.119 999.591 715.785 982.561 z" fill="rgb(220,151,61)" transform="translate(0,0)"></path>
<path d="M 752.002 1508.44 C 763.789 1507.69 779.663 1518.27 782.178 1529.57 C 780.32 1531.11 780.281 1530.96 779.258 1533.1 C 780.633 1535.05 780.689 1535.11 781.559 1537.32 C 777.584 1539.75 777.081 1535.78 771.466 1537.8 C 771.598 1539.78 771.771 1540.14 772.434 1542 C 770.159 1543.91 770.532 1543.27 766.804 1543.36 C 755.641 1538.13 754.346 1545.64 747.759 1537.77 L 746.71 1536.5 C 725.626 1546.32 729.013 1511.54 752.002 1508.44 z" fill="rgb(229,131,58)" transform="translate(0,0)"></path>
<path d="M 544.121 1391.17 C 545.704 1387.07 550.648 1379.98 553.276 1376.26 C 590.922 1322.97 628.342 1269.09 669.021 1218.07 C 684.639 1198.48 700.749 1179.33 715.65 1159.37 C 714.807 1174.84 714.567 1212.8 715.782 1227.51 L 715.953 1528.25 C 707.471 1527.62 612.966 1466.13 597.101 1460.19 C 587.848 1456.72 568.249 1441.17 554.908 1437.21 L 544.075 1429.75 L 544.121 1391.17 z" fill="rgb(65,82,105)" transform="translate(0,0)"></path>
<path d="M 543.794 882.657 C 553.161 887.265 563.302 893.855 572.248 899.408 C 607.441 921.252 643.337 941.707 679.689 961.545 C 689.718 967.018 705.435 980.456 715.785 982.561 C 716.119 999.591 716.215 1016.63 716.074 1033.66 L 716.008 1051.56 C 686.053 1030.66 637.937 1004.01 604.97 984.501 L 565.634 961.327 C 559.935 957.986 549.526 951.502 543.832 949.184 L 543.794 882.657 z" fill="rgb(65,82,105)" transform="translate(0,0)"></path>
<path d="M 702.668 483.849 C 711.916 486.803 749.563 503.456 753.196 510.222 C 763.89 516.403 772.896 524.464 783.237 531.106 L 792.525 538.789 C 809.593 553.333 827.191 566.773 842.774 582.95 C 849.122 589.54 855.731 596.007 862.153 602.541 L 865.419 606.096 L 868.698 609.336 C 880.146 620.735 892.09 631.188 904.01 642.021 C 908.003 645.65 918.552 654.368 921.615 658.055 C 918.869 659.718 914.249 659.365 910.91 659.363 C 920.517 660.073 943.056 658.937 954.074 658.897 C 954.036 653.867 954.295 650.749 954.823 645.731 C 955.458 624.64 949.396 607.481 968.683 593.266 C 978.826 591.79 987.441 592.024 997.613 592.033 L 1026.8 592.045 L 1051.36 592.046 C 1069.75 591.884 1085.44 590.01 1089.13 613.064 L 1088.81 652.916 C 1089.5 667.697 1088.94 680.443 1087.91 695.074 C 1082.85 707.14 1078.68 712.79 1066.88 719.652 C 1058.76 725.307 1040.14 723.079 1029.26 723.012 C 1011.87 723 991.212 724.84 974.119 722.508 C 972.026 722.222 967.042 719.174 965.031 717.953 C 966.647 724.671 967.646 716.962 968.364 723.424 C 967 724.58 966.957 724.618 965.393 725.632 L 966.914 727.119 L 935.387 730.968 C 926.169 729.104 913.007 730.907 903.558 729.633 C 883.125 726.878 862.216 727.478 841.982 725.802 L 841.864 725.176 C 851.054 720.267 867.528 714.936 873.053 711.633 C 867.232 713.39 861.397 715.129 855.657 717.14 C 848.318 719.71 840.62 725.709 832.883 726.269 L 832.956 726.643 C 803.446 744.262 745.266 777.262 721.878 799.236 C 716.757 795.063 710.027 791.19 704.206 787.859 C 645.225 754.106 588.353 716.592 528.7 684.052 C 520.695 679.685 510.136 674.881 502.833 669.787 C 518.386 658.5 543.424 643.396 559.194 632.426 C 570.812 624.345 616.678 594.139 628.965 589.777 L 631.299 588.436 C 626.388 579.775 622.485 573.302 619.678 563.732 C 622.005 558.168 614.679 550.327 617.77 543.57 C 624.464 540.948 636.561 540.762 643.871 538.968 C 662.599 534.232 679.177 529.01 698.736 528.831 C 715.166 528.681 709.886 527.833 716.427 541.963 L 718.254 542.794 C 711.203 526.18 703.805 501.59 702.668 483.849 z" fill="rgb(190,110,51)" transform="translate(0,0)"></path>
<path d="M 502.833 669.787 C 518.386 658.5 543.424 643.396 559.194 632.426 C 570.812 624.345 616.678 594.139 628.965 589.777 C 641.778 608.537 654.365 623.702 672.086 638.241 C 663.348 643.997 643.437 660.73 655.406 671.67 C 691.056 704.257 751.13 710.199 796.698 720.741 C 807.372 723.098 826.579 724.156 832.883 726.269 L 832.956 726.643 C 803.446 744.262 745.266 777.262 721.878 799.236 C 716.757 795.063 710.027 791.19 704.206 787.859 C 645.225 754.106 588.353 716.592 528.7 684.052 C 520.695 679.685 510.136 674.881 502.833 669.787 z" fill="rgb(221,111,77)" transform="translate(0,0)"></path>
<path d="M 832.883 726.269 C 826.579 724.156 807.372 723.098 796.698 720.741 C 751.13 710.199 691.056 704.257 655.406 671.67 C 643.437 660.73 663.348 643.997 672.086 638.241 C 697.874 658.474 722.777 670.876 754.635 679.42 C 761.86 683.032 778.294 686.519 786.443 688.048 C 843.733 698.794 896.703 696.005 954.139 693.597 C 958.569 705.948 956.298 707.017 965.031 717.953 C 966.647 724.671 967.646 716.962 968.364 723.424 C 967 724.58 966.957 724.618 965.393 725.632 L 966.914 727.119 L 935.387 730.968 C 926.169 729.104 913.007 730.907 903.558 729.633 C 883.125 726.878 862.216 727.478 841.982 725.802 L 841.864 725.176 C 851.054 720.267 867.528 714.936 873.053 711.633 C 867.232 713.39 861.397 715.129 855.657 717.14 C 848.318 719.71 840.62 725.709 832.883 726.269 z" fill="url(#Gradient5)" transform="translate(0,0)"></path>
<path d="M 1051.36 592.046 C 1069.75 591.884 1085.44 590.01 1089.13 613.064 L 1088.81 652.916 L 1087.38 672.405 C 1077.25 670.118 1065.16 670.751 1054.82 670.214 C 1021.68 668.491 987.161 672.437 954.522 672.042 C 955.306 664.845 954.913 653.31 954.823 645.731 C 955.458 624.64 949.396 607.481 968.683 593.266 C 978.826 591.79 987.441 592.024 997.613 592.033 L 1026.8 592.045 L 1051.36 592.046 z" fill="rgb(251,202,97)" transform="translate(0,0)"></path>
<path d="M 702.668 483.849 C 711.916 486.803 749.563 503.456 753.196 510.222 C 763.89 516.403 772.896 524.464 783.237 531.106 L 792.525 538.789 C 809.593 553.333 827.191 566.773 842.774 582.95 C 849.122 589.54 855.731 596.007 862.153 602.541 L 858.002 605.298 C 858.245 605.206 769.745 586.843 750.864 588.853 C 744.046 587.048 722.751 550.367 718.254 542.794 C 711.203 526.18 703.805 501.59 702.668 483.849 z" fill="rgb(221,111,77)" transform="translate(0,0)"></path>
<path d="M 753.196 510.222 C 763.89 516.403 772.896 524.464 783.237 531.106 L 792.525 538.789 C 809.593 553.333 827.191 566.773 842.774 582.95 C 849.122 589.54 855.731 596.007 862.153 602.541 L 858.002 605.298 C 849.884 592.164 790.43 542.847 777.085 531.04 C 770.908 525.574 758.236 516.667 753.196 510.222 z" fill="rgb(162,50,38)" transform="translate(0,0)"></path>
<path d="M 750.864 588.853 C 769.745 586.843 858.245 605.206 858.002 605.298 L 862.153 602.541 L 865.419 606.096 L 868.698 609.336 C 880.146 620.735 892.09 631.188 904.01 642.021 C 908.003 645.65 918.552 654.368 921.615 658.055 C 918.869 659.718 914.249 659.365 910.91 659.363 C 857.428 658.132 805.744 643.48 766.197 605.617 C 762.111 601.704 752.505 593.64 750.864 588.853 z" fill="rgb(162,50,38)" transform="translate(0,0)"></path>
<path d="M 628.965 589.777 L 631.299 588.436 C 646.091 611.743 665.464 631.801 688.242 647.395 C 697.341 653.473 706.961 658.73 716.991 663.105 C 724.39 666.397 752.36 675.613 754.635 679.42 C 722.777 670.876 697.874 658.474 672.086 638.241 C 654.365 623.702 641.778 608.537 628.965 589.777 z" fill="rgb(220,151,61)" transform="translate(0,0)"></path>
<path d="M 1026.33 354.659 C 1035.45 358.667 1051.86 369.088 1061.07 374.737 C 1079.88 386.408 1098.77 397.924 1117.77 409.282 C 1127.4 415.028 1183.08 446.19 1187.99 451.034 L 1187.74 451.555 C 1177.63 458.997 1167.76 466.75 1158.13 474.804 L 1153.13 478.723 C 1129.17 498.424 1094.06 531.09 1076.14 556.61 C 1069.83 561.621 1055.63 584.225 1051.36 592.046 L 1026.8 592.045 L 997.613 592.033 C 987.441 592.024 978.826 591.79 968.683 593.266 C 949.396 607.481 955.458 624.64 954.823 645.731 C 954.295 650.749 954.036 653.867 954.074 658.897 C 943.056 658.937 920.517 660.073 910.91 659.363 C 914.249 659.365 918.869 659.718 921.615 658.055 C 918.552 654.368 908.003 645.65 904.01 642.021 C 892.09 631.188 880.146 620.735 868.698 609.336 L 865.419 606.096 L 862.153 602.541 C 855.731 596.007 849.122 589.54 842.774 582.95 C 827.191 566.773 809.593 553.333 792.525 538.789 L 783.237 531.106 L 783.311 529.885 C 782.075 528.162 781.865 527.742 780.939 525.823 C 824.814 509.493 831.175 484.106 869.12 462.157 C 869.066 462.189 875.709 460.111 877.039 459.523 L 877.971 459.1 C 873.289 455.332 866.854 450.876 861.905 447.228 C 873.841 441.384 885.765 432.7 897.753 426.598 C 941.296 404.436 983.062 377.06 1026.33 354.659 z" fill="rgb(221,111,77)" transform="translate(0,0)"></path>
<path d="M 1026.33 354.659 C 1035.45 358.667 1051.86 369.088 1061.07 374.737 C 1079.88 386.408 1098.77 397.924 1117.77 409.282 C 1127.4 415.028 1183.08 446.19 1187.99 451.034 L 1187.74 451.555 C 1177.63 458.997 1167.76 466.75 1158.13 474.804 L 1153.13 478.723 C 1129.17 498.424 1094.06 531.09 1076.14 556.61 C 1069.83 561.621 1055.63 584.225 1051.36 592.046 L 1026.8 592.045 C 1025.81 512.92 1025.65 433.787 1026.33 354.659 z" fill="rgb(201,83,61)" transform="translate(0,0)"></path>
<path d="M 877.971 459.1 C 887.566 466.531 898.682 475.058 907.09 483.717 C 919.267 494.821 939.666 515.053 949.512 527.766 C 924.117 546.102 881.668 579.242 865.419 606.096 L 862.153 602.541 C 855.731 596.007 849.122 589.54 842.774 582.95 C 827.191 566.773 809.593 553.333 792.525 538.789 L 783.237 531.106 L 783.311 529.885 C 782.075 528.162 781.865 527.742 780.939 525.823 C 824.814 509.493 831.175 484.106 869.12 462.157 C 869.066 462.189 875.709 460.111 877.039 459.523 L 877.971 459.1 z" fill="url(#Gradient4)" transform="translate(0,0)"></path>
<path d="M 877.971 459.1 C 887.566 466.531 898.682 475.058 907.09 483.717 C 890.214 490.371 873.112 495.75 856.577 503.539 C 842.067 510.373 828.916 518.363 815.074 526.356 C 807.497 530.59 799.836 534.067 792.525 538.789 L 783.237 531.106 L 783.311 529.885 C 782.075 528.162 781.865 527.742 780.939 525.823 C 824.814 509.493 831.175 484.106 869.12 462.157 C 869.066 462.189 875.709 460.111 877.039 459.523 L 877.971 459.1 z" fill="rgb(254,249,193)" transform="translate(0,0)"></path>
<path d="M 868.698 609.336 C 873.519 605.139 889.056 586.477 894.408 580.624 C 913.744 559.476 931.053 549.102 955.641 535.267 C 969.358 549.249 985.985 574.963 997.613 592.033 C 987.441 592.024 978.826 591.79 968.683 593.266 C 949.396 607.481 955.458 624.64 954.823 645.731 C 954.295 650.749 954.036 653.867 954.074 658.897 C 943.056 658.937 920.517 660.073 910.91 659.363 C 914.249 659.365 918.869 659.718 921.615 658.055 C 918.552 654.368 908.003 645.65 904.01 642.021 C 892.09 631.188 880.146 620.735 868.698 609.336 z" fill="url(#Gradient3)" transform="translate(0,0)"></path>
<path d="M 850.49 1732.63 C 860.301 1741.36 872.286 1753.96 881.821 1763.49 C 903.515 1785.07 925.005 1806.85 946.289 1828.84 C 958.843 1841.63 991.44 1872.65 1001.04 1885.08 C 853.417 1881.28 709.251 1839.61 582.378 1764.05 C 587.322 1763.98 590.32 1766.15 594.331 1768.94 L 595.425 1769.72 C 596.161 1767.85 595.6 1768.68 597.171 1767.26 C 601.627 1768.65 607.99 1770.81 612.428 1769.52 L 612.467 1767.1 C 615.306 1765.13 622.428 1769.2 626.528 1767.7 C 648.306 1759.74 660.593 1750.2 684.933 1750.51 C 687.292 1748.67 690.505 1746.76 693.502 1746.61 C 710.87 1745.66 728.679 1745.6 745.997 1743.8 C 769.978 1741.31 793.838 1738.83 817.608 1735.04 C 830.093 1733.05 835 1738.73 850.49 1732.63 z" fill="rgb(175,117,98)" transform="translate(0,0)"></path>
<path d="M 1245.52 417.897 C 1273.21 403.998 1315.29 385.276 1341.26 411.269 C 1360.46 430.479 1428.94 492.557 1430.5 516.14 C 1428.29 512.194 1425.95 508.024 1423.44 504.283 C 1400.45 470.066 1356.8 485.186 1326.74 498.466 L 1325.53 499.907 C 1320.24 502.493 1316.53 504.427 1311.42 507.457 C 1298.48 513.659 1289.55 519.997 1277.96 528.206 C 1268.92 516.673 1262.31 517.486 1251.27 509.297 C 1241.33 502.147 1231.6 493.821 1222.07 486.263 C 1211.41 477.806 1206.9 470.48 1199.88 459.329 C 1196.78 454.408 1193.4 452.816 1187.74 451.555 L 1187.99 451.034 C 1191 449.44 1195.63 446.1 1198.59 443.984 C 1213.61 433.225 1228.84 425.592 1245.52 417.897 z" fill="url(#Gradient2)" transform="translate(0,0)"></path>
<path d="M 732.626 406.869 C 771.485 400.23 809.559 414.862 841.911 434.908 C 845.81 437.324 858.982 446.537 861.905 447.228 C 866.854 450.876 873.289 455.332 877.971 459.1 L 877.039 459.523 C 875.709 460.111 869.066 462.189 869.12 462.157 C 831.175 484.106 824.814 509.493 780.939 525.823 C 781.865 527.742 782.075 528.162 783.311 529.885 L 783.237 531.106 C 772.896 524.464 763.89 516.403 753.196 510.222 C 749.563 503.456 711.916 486.803 702.668 483.849 C 693.772 481.605 687.177 480.438 678.076 478.994 C 675.29 477.473 674.887 477.885 673.74 475.558 C 678.456 468.695 686.889 462.002 692.655 455.649 C 707.154 439.672 721.981 424.388 737.094 409.007 L 736.369 407.777 C 734.954 407.69 735.646 407.804 733.959 407.29 L 732.626 406.869 z" fill="url(#Gradient1)" transform="translate(0,0)"></path>
<path d="M 628.871 487.558 C 647.599 478.901 657.493 477.962 678.076 478.994 C 687.177 480.438 693.772 481.605 702.668 483.849 C 703.805 501.59 711.203 526.18 718.254 542.794 L 716.427 541.963 C 709.886 527.833 715.166 528.681 698.736 528.831 C 679.177 529.01 662.599 534.232 643.871 538.968 C 636.561 540.762 624.464 540.948 617.77 543.57 C 614.679 550.327 622.005 558.168 619.678 563.732 C 611.557 537.86 609.067 508.779 628.871 487.558 z" fill="rgb(162,50,38)" transform="translate(0,0)"></path>
<path d="M 1415.99 583.028 C 1424.16 568.731 1428.12 555.424 1431.54 539.272 C 1431.65 539.99 1431.77 540.708 1431.88 541.425 C 1468.99 577.13 1505.31 613.654 1541.84 649.957 C 1544.96 653.053 1550.78 658.721 1553.37 662.113 C 1550.71 663.882 1549.74 664.222 1548.23 667.077 L 1546.54 665.87 C 1540.02 659.391 1518.05 646.223 1509.48 640.736 C 1478.7 621.036 1446.72 602.849 1415.99 583.028 z" fill="rgb(175,117,98)" transform="translate(0,0)"></path>
<path d="M 628.871 487.558 C 642.568 464.352 678.917 431.543 701.741 416.134 C 708.262 411.732 724.813 408.245 732.626 406.869 L 733.959 407.29 C 735.646 407.804 734.954 407.69 736.369 407.777 L 737.094 409.007 C 721.981 424.388 707.154 439.672 692.655 455.649 C 686.889 462.002 678.456 468.695 673.74 475.558 C 674.887 477.885 675.29 477.473 678.076 478.994 C 657.493 477.962 647.599 478.901 628.871 487.558 z" fill="rgb(220,151,61)" transform="translate(0,0)"></path>
<metadata><recraft-signature>{"signed_by": "recraft", "signature_b64": "BFTGrR2fSNzrj1X4RCUNUUX3w9OCt6tiQUq1BUV69IcOAIqSOLhsVqDEK3xzOSOFf+ibMZGa2WcK1P4nSCZ6DQ==", "signing_algo": "Ed25519", "generation_timestamp": 1783513087, "identifier": "8064b260-6cf4-421a-81ef-bf92732979ed"}</recraft-signature></metadata></svg>