<svg xmlns="http://www.w3.org/2000/svg" height="1024" preserveAspectRatio="none" style="display: block;" version="1.1" viewBox="0 0 2048 2048" width="1024">
<defs>
	<linearGradient gradientUnits="userSpaceOnUse" id="Gradient1" x1="550.526" x2="687.994" y1="1577.46" y2="1568.82">
		<stop class="stop0" offset="0" stop-color="rgb(148,120,75)" stop-opacity="1"></stop>
		<stop class="stop1" offset="1" stop-color="rgb(170,143,92)" stop-opacity="1"></stop>
	</linearGradient>
	<linearGradient gradientUnits="userSpaceOnUse" id="Gradient2" x1="426.928" x2="819.691" y1="1449.32" y2="1156.48">
		<stop class="stop0" offset="0" stop-color="rgb(109,53,34)" stop-opacity="1"></stop>
		<stop class="stop1" offset="1" stop-color="rgb(179,91,32)" stop-opacity="1"></stop>
	</linearGradient>
	<linearGradient gradientUnits="userSpaceOnUse" id="Gradient3" x1="354.79" x2="1291.65" y1="546.106" y2="691.614">
		<stop class="stop0" offset="0" stop-color="rgb(203,150,68)" stop-opacity="1"></stop>
		<stop class="stop1" offset="1" stop-color="rgb(255,242,178)" stop-opacity="1"></stop>
	</linearGradient>
	<linearGradient gradientUnits="userSpaceOnUse" id="Gradient4" x1="792.364" x2="1192.29" y1="935.561" y2="1017.74">
		<stop class="stop0" offset="0" stop-color="rgb(229,186,103)" stop-opacity="1"></stop>
		<stop class="stop1" offset="1" stop-color="rgb(255,235,173)" stop-opacity="1"></stop>
	</linearGradient>
	<linearGradient gradientUnits="userSpaceOnUse" id="Gradient5" x1="950.128" x2="1416.28" y1="986.848" y2="1111.46">
		<stop class="stop0" offset="0" stop-color="rgb(74,40,22)" stop-opacity="1"></stop>
		<stop class="stop1" offset="1" stop-color="rgb(169,121,46)" stop-opacity="1"></stop>
	</linearGradient>
	<linearGradient gradientUnits="userSpaceOnUse" id="Gradient6" x1="653.654" x2="1799.11" y1="838.848" y2="697.634">
		<stop class="stop0" offset="0" stop-color="rgb(189,119,47)" stop-opacity="1"></stop>
		<stop class="stop1" offset="1" stop-color="rgb(255,192,62)" stop-opacity="1"></stop>
	</linearGradient>
	<linearGradient gradientUnits="userSpaceOnUse" id="Gradient7" x1="1200.82" x2="1504.18" y1="1371.41" y2="1042.59">
		<stop class="stop0" offset="0" stop-color="rgb(194,102,31)" stop-opacity="1"></stop>
		<stop class="stop1" offset="1" stop-color="rgb(215,129,35)" stop-opacity="1"></stop>
	</linearGradient>
	<linearGradient gradientUnits="userSpaceOnUse" id="Gradient8" x1="922.428" x2="1877.08" y1="915.408" y2="1627.71">
		<stop class="stop0" offset="0" stop-color="rgb(179,163,132)" stop-opacity="1"></stop>
		<stop class="stop1" offset="1" stop-color="rgb(255,255,247)" stop-opacity="1"></stop>
	</linearGradient>
</defs>
<path d="M 0 0 L 2048 0 L 2048 796.472 L 2048 1373.69 L 2048 2048 L 1412.05 2048 L 958.573 2048 L 0 2048 L 0 0 z" fill="rgb(254,254,252)" transform="translate(0,0)"></path>
<path d="M 1445.27 198.176 C 1461.56 214.018 1476.96 230.765 1493.09 246.723 L 1752.46 506.124 L 2048 796.472 L 2048 1373.69 L 2048 2048 L 1412.05 2048 L 958.573 2048 C 945.934 2036.26 933.821 2022.17 921.357 2009.97 C 873.431 1963.05 825.841 1915.78 778.59 1868.18 C 757.35 1846.83 735.945 1825.65 714.377 1804.63 C 703.038 1793.66 685.872 1778.4 676.003 1767.15 C 667.052 1761.92 642.987 1732.27 630.156 1724.65 C 643.702 1718.27 671.896 1698.97 685.736 1690.31 C 729.395 1663.01 771.798 1634.86 816.187 1608.51 C 819.806 1605.56 833.475 1597.27 837.914 1594.43 C 855.944 1582.88 874.087 1571.51 892.342 1560.32 C 944.278 1528.03 999.204 1493.81 1050.19 1460.32 C 1016.91 1439.85 984.04 1418.73 951.579 1397 L 950.887 1397.18 C 944.044 1393.69 906.212 1367.34 901.159 1362.5 C 953.527 1327.43 1008.65 1295.62 1060.97 1261.2 L 1061.81 1261.06 C 1074.58 1271.23 1100.89 1283.4 1113.99 1295.06 L 1115.29 1294.55 C 1214.52 1233.56 1313.18 1171.64 1411.24 1108.78 C 1439.43 1090.99 1467 1072.43 1495.42 1055.04 L 1496.1 1054.98 C 1507.28 1063.11 1520.99 1071.12 1532.73 1079.11 C 1552.43 1092.52 1571.68 1106.45 1591.28 1119.92 C 1630.16 1095.89 1669.78 1069.15 1708.31 1044.42 L 1752.26 1016.29 C 1760.91 1010.76 1772.36 1003.94 1780.18 997.624 C 1790.19 990.254 1806.79 980.243 1817.64 973.225 C 1843.25 956.511 1869.06 940.106 1895.06 924.012 C 1878.54 896.156 1861.36 866.621 1844.16 839.296 C 1835.82 827.633 1823.81 803.302 1813.99 788.376 C 1806.95 779.134 1794.23 755.139 1788.16 744.18 C 1773.32 716.741 1758 689.565 1742.21 662.664 C 1720.94 675.776 1705.14 684.167 1679.93 687.05 C 1642.93 691.308 1605.78 680.424 1576.93 656.873 C 1527.93 617.122 1517.5 544.533 1541.33 488.215 C 1550.06 467.571 1562.18 452.073 1576.14 434.965 C 1572.79 429.23 1569.21 422.324 1566.23 416.377 C 1551.09 386.096 1531.14 355.99 1516.84 325.514 C 1512.13 316.609 1498.84 293.705 1492.91 285.492 C 1491.46 281.139 1486.54 274.118 1484.72 270.05 C 1477.02 252.827 1449.12 212.741 1445.27 198.176 z" fill="url(#Gradient8)" transform="translate(0,0)"></path>
<path d="M 2044.51 1404.5 C 2044.6 1392.15 2043.84 1353.8 2045.26 1343.77 L 2046.15 1343.7 C 2048.3 1351.75 2045.82 1369.01 2048 1373.69 L 2048 2048 L 1412.05 2048 C 1415.43 2036.96 1500.44 1954.01 1515.93 1938.34 L 1725.37 1728.1 L 2044.51 1404.5 z" fill="rgb(254,254,252)" transform="translate(0,0)"></path>
<path d="M 1495.42 1055.04 L 1496.1 1054.98 C 1507.28 1063.11 1520.99 1071.12 1532.73 1079.11 C 1552.43 1092.52 1571.68 1106.45 1591.28 1119.92 L 1407.76 1234.47 L 1299.48 1302.96 C 1269.42 1322.17 1240.92 1341.01 1210.38 1359.52 C 1191.11 1344.92 1170.14 1331.58 1150.09 1318.09 C 1143.48 1313.65 1119.79 1299.17 1115.29 1294.55 C 1214.52 1233.56 1313.18 1171.64 1411.24 1108.78 C 1439.43 1090.99 1467 1072.43 1495.42 1055.04 z" fill="url(#Gradient7)" transform="translate(0,0)"></path>
<path d="M 1060.97 1261.2 L 1061.81 1261.06 C 1074.58 1271.23 1100.89 1283.4 1113.99 1295.06 L 1115.29 1294.55 C 1119.79 1299.17 1143.48 1313.65 1150.09 1318.09 C 1170.14 1331.58 1191.11 1344.92 1210.38 1359.52 L 1100.53 1428.72 C 1089.27 1435.78 1060.35 1455.02 1050.19 1460.32 C 1016.91 1439.85 984.04 1418.73 951.579 1397 L 950.887 1397.18 C 944.044 1393.69 906.212 1367.34 901.159 1362.5 C 953.527 1327.43 1008.65 1295.62 1060.97 1261.2 z" fill="rgb(218,139,41)" transform="translate(0,0)"></path>
<path d="M 1060.97 1261.2 L 1061.81 1261.06 C 1074.58 1271.23 1100.89 1283.4 1113.99 1295.06 C 1074.89 1321.06 1032.32 1345.37 992.976 1371.35 C 981.271 1379.08 961.69 1389.48 951.579 1397 L 950.887 1397.18 C 944.044 1393.69 906.212 1367.34 901.159 1362.5 C 953.527 1327.43 1008.65 1295.62 1060.97 1261.2 z" fill="rgb(246,231,196)" transform="translate(0,0)"></path>
<path d="M 816.187 1608.51 C 813.139 1614.33 769.917 1639.13 761.915 1644.12 L 670.599 1702.15 C 669.084 1703.11 644.731 1718.25 644.905 1719.28 C 645.924 1725.34 647.464 1726.17 645.251 1733.18 C 647.115 1740.75 676.022 1760.58 676.003 1767.15 C 667.052 1761.92 642.987 1732.27 630.156 1724.65 C 643.702 1718.27 671.896 1698.97 685.736 1690.31 C 729.395 1663.01 771.798 1634.86 816.187 1608.51 z" fill="rgb(172,170,164)" transform="translate(0,0)"></path>
<path d="M 1437.44 188.346 L 1445.27 198.176 C 1449.12 212.741 1477.02 252.827 1484.72 270.05 C 1486.54 274.118 1491.46 281.139 1492.91 285.492 C 1498.84 293.705 1512.13 316.609 1516.84 325.514 C 1531.14 355.99 1551.09 386.096 1566.23 416.377 C 1569.21 422.324 1572.79 429.23 1576.14 434.965 C 1562.18 452.073 1550.06 467.571 1541.33 488.215 C 1517.5 544.533 1527.93 617.122 1576.93 656.873 C 1605.78 680.424 1642.93 691.308 1679.93 687.05 C 1705.14 684.167 1720.94 675.776 1742.21 662.664 C 1758 689.565 1773.32 716.741 1788.16 744.18 C 1794.23 755.139 1806.95 779.134 1813.99 788.376 C 1823.81 803.302 1835.82 827.633 1844.16 839.296 C 1861.36 866.621 1878.54 896.156 1895.06 924.012 C 1869.06 940.106 1843.25 956.511 1817.64 973.225 C 1806.79 980.243 1790.19 990.254 1780.18 997.624 C 1772.36 1003.94 1760.91 1010.76 1752.26 1016.29 L 1708.31 1044.42 C 1669.78 1069.15 1630.16 1095.89 1591.28 1119.92 C 1571.68 1106.45 1552.43 1092.52 1532.73 1079.11 C 1520.99 1071.12 1507.28 1063.11 1496.1 1054.98 L 1495.42 1055.04 C 1467 1072.43 1439.43 1090.99 1411.24 1108.78 C 1313.18 1171.64 1214.52 1233.56 1115.29 1294.55 L 1113.99 1295.06 C 1100.89 1283.4 1074.58 1271.23 1061.81 1261.06 L 1060.97 1261.2 C 1008.65 1295.62 953.527 1327.43 901.159 1362.5 L 899.975 1363.28 C 895.321 1359.45 883.853 1352.16 878.206 1348.35 C 861.049 1336.74 843.711 1325.4 826.198 1314.34 C 779.553 1284.43 726.21 1250.63 680.891 1219.39 C 661.753 1208.65 635.533 1190.33 615.909 1177.94 L 430.39 1058.91 L 387.149 1031.64 C 380.125 1027.18 371.361 1020.92 364.272 1017.11 C 356.953 1011.52 346.124 1005.1 338.132 999.612 C 336.041 997.286 320.936 988.902 317.534 986.484 C 303.139 976.255 240.204 938.865 231.737 929.119 C 255.271 914.453 279.036 900.159 303.021 886.242 C 306.073 883.635 321.497 874.742 325.992 872.044 L 373.139 843.557 L 549.16 736.194 L 864.563 540.76 C 892.276 523.951 919.689 506.033 947.286 488.998 C 953.521 485.149 960.301 480.506 966.907 477.491 C 971.315 473.657 991.054 462.25 996.898 458.74 C 1018.22 446.018 1039.46 433.159 1060.61 420.165 C 1118.76 383.096 1177.42 346.836 1236.57 311.397 C 1257.06 298.92 1281.77 281.301 1302.55 270.347 C 1330.98 252.029 1359.71 234.189 1388.73 216.834 C 1401.91 208.813 1423.96 194.558 1437.44 188.346 z" fill="url(#Gradient6)" transform="translate(0,0)"></path>
<path d="M 973.308 878.549 C 987.426 869.138 1003.23 854.647 1016.73 843.933 C 1032.58 831.354 1048.49 818.355 1064.47 805.949 C 1074.48 798.179 1088.56 785.537 1099.36 779.5 L 1101.29 780.326 C 1104.55 781.496 1112.94 788.087 1115.71 790.595 C 1123.6 794.913 1133.78 802.888 1141.41 808.073 C 1160.81 821.26 1179.8 836.261 1198.95 849.604 L 1357.44 957.961 C 1383.73 976.001 1419.73 1002.94 1446.01 1018.84 L 1447.01 1018.36 C 1457.47 1027.35 1488.21 1047.61 1495.42 1055.04 C 1467 1072.43 1439.43 1090.99 1411.24 1108.78 C 1313.18 1171.64 1214.52 1233.56 1115.29 1294.55 L 1113.99 1295.06 C 1100.89 1283.4 1074.58 1271.23 1061.81 1261.06 L 1060.97 1261.2 C 1054.27 1257.63 1035.22 1243.82 1028 1238.96 L 950.188 1186.02 C 944.773 1182.29 915.474 1163.42 912.856 1160.78 C 901.689 1155.31 866.262 1129.42 853.443 1120.79 C 823.916 1100.89 794.649 1082.47 764.789 1063.24 C 764.411 1062.15 764.608 1062.91 764.705 1060.86 C 773.588 1049.51 804.524 1023.69 816.516 1012.44 C 839.305 991.062 862.789 968.107 885.989 947.336 C 868.518 898.456 847.997 845.412 829.222 796.866 C 875.145 820.218 927.784 852.6 973.308 878.549 z" fill="url(#Gradient5)" transform="translate(0,0)"></path>
<path d="M 973.308 878.549 C 987.426 869.138 1003.23 854.647 1016.73 843.933 C 1032.58 831.354 1048.49 818.355 1064.47 805.949 C 1074.48 798.179 1088.56 785.537 1099.36 779.5 L 1101.29 780.326 C 1100.52 788.077 1098.99 795.666 1097.57 803.323 C 1093.69 816.772 1090.09 834.401 1086.81 848.26 L 1066.36 933.664 C 1107.04 960.971 1158.48 996.541 1197.07 1026.01 L 1045.09 1042.34 C 1032.1 1092.63 1018.24 1152.45 1002.01 1201.24 L 965.129 1120.33 C 963.179 1116.02 953.141 1092.83 951.551 1090.9 L 950.793 1092.24 L 952.899 1096.88 C 948.182 1103.85 928.63 1099.26 919.832 1110.76 C 905.758 1129.16 922.326 1147.19 921.369 1162.46 L 919.742 1163.68 C 916.555 1161.79 915.863 1160.58 912.856 1160.78 C 901.689 1155.31 866.262 1129.42 853.443 1120.79 C 823.916 1100.89 794.649 1082.47 764.789 1063.24 C 764.411 1062.15 764.608 1062.91 764.705 1060.86 C 773.588 1049.51 804.524 1023.69 816.516 1012.44 C 839.305 991.062 862.789 968.107 885.989 947.336 C 868.518 898.456 847.997 845.412 829.222 796.866 C 875.145 820.218 927.784 852.6 973.308 878.549 z" fill="url(#Gradient4)" transform="translate(0,0)"></path>
<path d="M 764.789 1063.24 C 820.539 1058.16 876.222 1052.38 931.826 1045.91 C 936.655 1056.95 948.441 1081.02 951.551 1090.9 L 950.793 1092.24 L 952.899 1096.88 C 948.182 1103.85 928.63 1099.26 919.832 1110.76 C 905.758 1129.16 922.326 1147.19 921.369 1162.46 L 919.742 1163.68 C 916.555 1161.79 915.863 1160.58 912.856 1160.78 C 901.689 1155.31 866.262 1129.42 853.443 1120.79 C 823.916 1100.89 794.649 1082.47 764.789 1063.24 z" fill="rgb(68,42,27)" transform="translate(0,0)"></path>
<path d="M 1446.01 1018.84 L 1447.01 1018.36 C 1457.47 1027.35 1488.21 1047.61 1495.42 1055.04 C 1467 1072.43 1439.43 1090.99 1411.24 1108.78 C 1313.18 1171.64 1214.52 1233.56 1115.29 1294.55 L 1113.99 1295.06 C 1100.89 1283.4 1074.58 1271.23 1061.81 1261.06 C 1086.82 1242.95 1115.49 1226.55 1141.8 1209.95 L 1356.76 1075.78 C 1386.23 1057.14 1417.9 1039.05 1446.01 1018.84 z" fill="rgb(240,219,163)" transform="translate(0,0)"></path>
<path d="M 1101.29 780.326 C 1104.55 781.496 1112.94 788.087 1115.71 790.595 C 1112.91 790.2 1111.97 789.769 1109.41 788.562 C 1102.43 790.533 1100.51 797.463 1098.9 804.171 L 1097.57 803.323 C 1098.99 795.666 1100.52 788.077 1101.29 780.326 z" fill="rgb(68,42,27)" transform="translate(0,0)"></path>
<path d="M 966.907 477.491 C 971.315 473.657 991.054 462.25 996.898 458.74 C 1018.22 446.018 1039.46 433.159 1060.61 420.165 C 1118.76 383.096 1177.42 346.836 1236.57 311.397 C 1257.06 298.92 1281.77 281.301 1302.55 270.347 C 1314.36 285.692 1323.22 308.961 1333.38 325.373 C 1366.31 378.573 1315.21 396.252 1279.33 420.138 C 1271.05 425.637 1262.45 430.732 1254.17 435.932 L 1116.38 521.939 L 983.821 605.487 C 965.611 616.992 944.726 631.333 926.216 641.873 C 903.201 657.274 877.249 672.744 853.545 687.442 L 752.891 750.159 C 736.483 760.332 720.154 770.633 703.907 781.06 C 699.32 783.983 685.194 792.588 681.882 795.535 L 680.189 796.35 C 665.116 803.783 626.515 830.497 610.458 840.781 L 474.547 926.935 C 450.862 942.126 424.06 959.973 398.189 971.153 C 389.94 974.718 372.54 973.245 364.211 970.574 C 345.992 964.299 338.936 952.666 330.979 937.126 C 325.842 927.094 309.711 892.322 303.021 886.242 C 306.073 883.635 321.497 874.742 325.992 872.044 L 373.139 843.557 L 549.16 736.194 L 864.563 540.76 C 892.276 523.951 919.689 506.033 947.286 488.998 C 953.521 485.149 960.301 480.506 966.907 477.491 z" fill="url(#Gradient3)" transform="translate(0,0)"></path>
<path d="M 681.882 795.535 C 695.307 792.546 720.985 770.239 735.049 763.906 L 735.596 764.426 L 735.623 765.928 C 737.776 765.04 737.614 765.079 739.067 763.232 L 740.581 764.597 C 740.517 768.915 740.25 769.15 738.296 773.141 C 735.219 770.565 738.219 771.537 733.723 770.255 C 729.168 773.766 729.083 793.241 727.767 794.415 C 710.628 809.707 720.156 835.126 716.147 855.127 C 714.882 861.438 707.279 868.608 707.817 875.367 C 707.352 891.698 706.454 908.014 705.957 924.347 C 705.683 933.333 702.446 944.749 702.734 953.425 C 703.396 973.406 705.157 990.966 702.537 1011.02 C 701.661 1017.72 702.739 1032.02 702.803 1039.47 C 705.956 1041.92 705.483 1040.41 705.972 1044.41 C 709.216 1070.92 711.803 1097.42 710.961 1124.36 C 709.938 1132.92 708.162 1141.1 707.609 1149.74 C 706.06 1173.91 709.283 1198.34 702.27 1221.67 C 701.067 1225.67 701.539 1226.21 703.422 1230.04 C 696.352 1230.89 683.978 1216.92 680.891 1219.39 C 661.753 1208.65 635.533 1190.33 615.909 1177.94 L 430.39 1058.91 L 387.149 1031.64 C 380.125 1027.18 371.361 1020.92 364.272 1017.11 C 356.953 1011.52 346.124 1005.1 338.132 999.612 C 336.041 997.286 320.936 988.902 317.534 986.484 C 303.139 976.255 240.204 938.865 231.737 929.119 C 255.271 914.453 279.036 900.159 303.021 886.242 C 309.711 892.322 325.842 927.094 330.979 937.126 C 338.936 952.666 345.992 964.299 364.211 970.574 C 372.54 973.245 389.94 974.718 398.189 971.153 C 424.06 959.973 450.862 942.126 474.547 926.935 L 610.458 840.781 C 626.515 830.497 665.116 803.783 680.189 796.35 L 681.882 795.535 z" fill="rgb(171,110,47)" transform="translate(0,0)"></path>
<path d="M 1447.01 1018.36 C 1462.26 1008.03 1478.93 998.841 1494.43 988.746 C 1551.93 951.308 1611.79 916.778 1668.71 878.622 C 1677.07 891.819 1690.53 914.477 1700.38 925.817 C 1648 959.731 1595.27 993.105 1542.19 1025.93 C 1526.91 1035.36 1511.39 1045.89 1496.1 1054.98 L 1495.42 1055.04 C 1488.21 1047.61 1457.47 1027.35 1447.01 1018.36 z" fill="rgb(246,231,196)" transform="translate(0,0)"></path>
<path d="M 1844.16 839.296 C 1861.36 866.621 1878.54 896.156 1895.06 924.012 C 1869.06 940.106 1843.25 956.511 1817.64 973.225 C 1806.79 980.243 1790.19 990.254 1780.18 997.624 C 1763.57 968.156 1746.4 939.009 1728.67 910.198 C 1766.3 888.996 1806 861.812 1844.16 839.296 z" fill="rgb(218,139,41)" transform="translate(0,0)"></path>
<path d="M 1813.99 788.376 C 1823.81 803.302 1835.82 827.633 1844.16 839.296 C 1806 861.812 1766.3 888.996 1728.67 910.198 C 1720.38 894.755 1707.11 875.646 1697.25 860.727 L 1762.53 818.989 C 1777.52 809.465 1798.3 796.159 1813.99 788.376 z" fill="rgb(246,231,196)" transform="translate(0,0)"></path>
<path d="M 1492.91 285.492 C 1498.84 293.705 1512.13 316.609 1516.84 325.514 C 1489.92 341.175 1463.71 359.863 1437.28 376.464 C 1428.02 382.281 1417.48 391.378 1406.01 389.716 C 1387.02 386.965 1377.21 364.13 1393.41 351.054 C 1402.26 343.905 1411.57 338.114 1420.99 331.767 C 1444.53 315.68 1468.51 300.249 1492.91 285.492 z" fill="rgb(254,254,252)" transform="translate(0,0)"></path>
<path d="M 338.132 999.612 C 346.124 1005.1 356.953 1011.52 364.272 1017.11 C 371.361 1020.92 380.125 1027.18 387.149 1031.64 L 430.39 1058.91 L 615.909 1177.94 C 635.533 1190.33 661.753 1208.65 680.891 1219.39 C 726.21 1250.63 779.553 1284.43 826.198 1314.34 C 843.711 1325.4 861.049 1336.74 878.206 1348.35 C 883.853 1352.16 895.321 1359.45 899.975 1363.28 L 901.159 1362.5 C 906.212 1367.34 944.044 1393.69 950.887 1397.18 L 951.579 1397 C 984.04 1418.73 1016.91 1439.85 1050.19 1460.32 C 999.204 1493.81 944.278 1528.03 892.342 1560.32 C 874.087 1571.51 855.944 1582.88 837.914 1594.43 C 833.475 1597.27 819.806 1605.56 816.187 1608.51 C 771.798 1634.86 729.395 1663.01 685.736 1690.31 C 671.896 1698.97 643.702 1718.27 630.156 1724.65 C 624.367 1719.06 612.404 1695.97 607.93 1688.31 C 597.189 1669.91 587.066 1650.24 575.562 1632.29 C 567.401 1620.19 555.492 1597.02 548.386 1583.84 C 539.76 1567.03 528.418 1548 519.023 1531.35 L 472.654 1448.34 C 485.371 1434.44 495.889 1422.73 504.077 1405.6 C 553.875 1301.38 460.108 1184.46 347.754 1204.79 C 333.947 1207.29 322.516 1211.53 309.521 1216.13 C 293.193 1184.15 272.858 1148.68 255.587 1116.59 C 246.215 1099.12 236.584 1081.8 226.696 1064.63 C 269.773 1043.51 298.25 1022.19 338.132 999.612 z" fill="url(#Gradient2)" transform="translate(0,0)"></path>
<path d="M 899.975 1363.28 L 901.159 1362.5 C 906.212 1367.34 944.044 1393.69 950.887 1397.18 C 945.133 1401.97 936.44 1406.62 930.019 1410.74 C 867.328 1450.96 803.186 1488.74 740.938 1529.63 C 723.018 1541.41 722.064 1529.69 714.652 1515.05 C 709.874 1505.62 694.064 1487.54 709.171 1480.89 C 750.64 1455.69 792.494 1431.39 833.118 1404.84 C 855.135 1390.45 877.627 1377.08 899.975 1363.28 z" fill="rgb(187,156,97)" transform="translate(0,0)"></path>
<path d="M 338.132 999.612 C 346.124 1005.1 356.953 1011.52 364.272 1017.11 C 368.658 1027.55 370.673 1035.63 374.302 1045.82 L 302.641 1089.32 C 288.09 1098.12 270.521 1109.21 255.587 1116.59 C 246.215 1099.12 236.584 1081.8 226.696 1064.63 C 269.773 1043.51 298.25 1022.19 338.132 999.612 z" fill="rgb(187,156,97)" transform="translate(0,0)"></path>
<path d="M 548.386 1583.84 C 569.083 1576.04 590.738 1559.93 610.218 1549.3 C 629.41 1538.83 648.285 1525.26 667.945 1515.72 C 674.341 1524.75 689.653 1547.94 688.926 1558.5 C 681.778 1569.85 594.044 1617.05 575.562 1632.29 C 567.401 1620.19 555.492 1597.02 548.386 1583.84 z" fill="url(#Gradient1)" transform="translate(0,0)"></path>
<path d="M 231.737 929.119 C 240.204 938.865 303.139 976.255 317.534 986.484 C 320.936 988.902 336.041 997.286 338.132 999.612 C 298.25 1022.19 269.773 1043.51 226.696 1064.63 L 171.423 965.908 C 190.826 953.578 211.969 940.946 231.737 929.119 z" fill="rgb(130,63,35)" transform="translate(0,0)"></path>
<metadata><recraft-signature>{"signed_by": "recraft", "signature_b64": "xq/9pcVUdaLpAc4UC4zT80iJZ9VlcfKsCj7ts8JUDFK7FMeDo/2yQ3LuRJ1ReFAbUcQv+xVYYZrjV5xj/rWkAA==", "signing_algo": "Ed25519", "generation_timestamp": 1783513116, "identifier": "8cd05f0b-434f-4ed1-9908-8e141c978915"}</recraft-signature></metadata></svg>