<svg xmlns="http://www.w3.org/2000/svg" height="1024" preserveAspectRatio="none" style="display: block;" version="1.1" viewBox="0 0 2048 2048" width="1024">
<path d="M 0 0 L 2048 0 L 2048 2048 L 0 2048 L 0 0 z" fill="rgb(243,93,50)" transform="translate(0,0)"></path>
<path d="M 1008.77 35.184 L 1009.69 35.1178 C 1023.47 34.2218 1033.02 37.6068 1043.6 46.6672 C 1059.83 60.3341 1058.21 81.8 1058.99 101.339 C 1061.42 161.931 1065.01 222.783 1067.06 283.395 C 1120.36 264.26 1173.39 239.887 1227.11 221.081 C 1246.93 213.559 1265.21 205.456 1285.36 198.546 C 1323.55 185.451 1352.19 242.228 1320.45 264.803 C 1305.63 275.339 1279.64 286.215 1262.29 294.921 C 1222.78 314.68 1183.15 334.219 1143.41 353.538 C 1122.07 363.916 1094.96 376.075 1074.91 387.357 C 1079.84 446.589 1079.47 507.542 1086.75 566.625 C 1092.34 563.958 1101.77 557.363 1107.34 553.789 L 1140 533.188 C 1192.04 500.434 1244.35 468.092 1296.91 436.164 C 1315.55 424.961 1333.77 412.437 1353.08 402.578 C 1369.94 393.968 1383.69 402.554 1394.35 415.819 C 1419.32 446.896 1394.4 463.665 1371.11 482.691 C 1360.74 491.173 1350.3 500.056 1339.42 508.114 C 1345.43 514.002 1361.77 523.579 1369.87 528.726 C 1393.17 543.52 1409.09 570.89 1413.89 597.953 C 1419.82 630.346 1412.27 663.758 1392.99 690.455 C 1355.95 742.349 1278.62 756.505 1227.47 716.254 C 1195.44 691.05 1183.55 664.105 1177.7 624.668 C 1167.04 634.374 1154.26 641.25 1143.01 649.928 C 1127.3 662.046 1108.1 673.88 1093.9 687.434 C 1093.95 695.613 1094.35 704.445 1094.95 712.601 C 1098.37 759.608 1100.57 807.172 1105.27 854.052 C 1129.11 844.625 1155.01 835.821 1179.25 827.081 C 1220.38 812.35 1261.4 797.317 1302.32 781.982 L 1388.09 749.05 C 1418.08 737.593 1464.46 711.557 1483.42 752.823 C 1487.98 762.716 1488.37 774.027 1484.51 784.214 C 1476.88 804.329 1452.83 810.95 1434.56 819.083 L 1378.1 844.399 C 1333.79 864.748 1289.26 884.616 1244.51 904.001 C 1201.12 922.691 1155.05 941.26 1112.04 960.803 C 1111.75 976.877 1113.27 995.388 1114.31 1011.5 C 1116.07 1037.35 1117.7 1063.21 1119.19 1089.08 C 1145.01 1076.27 1177.53 1055.4 1202.97 1040.24 L 1339.64 959.036 C 1362.58 945.265 1384.4 931.313 1408.32 917.894 C 1436.18 900.189 1471 929.681 1465.81 959.272 C 1461.63 983.108 1416.7 1006.19 1398.93 1020.53 C 1387.18 1030.01 1374.42 1038.94 1362.85 1047.69 C 1363.02 1052.68 1363.55 1058.09 1363.95 1063.11 C 1406.82 1080.81 1433.55 1112.84 1437.41 1160 C 1440.05 1192.1 1429.63 1221.97 1408.58 1246.23 C 1387.88 1269.93 1358.61 1284.42 1327.21 1286.52 C 1269.23 1290.1 1219.34 1249.25 1204.84 1194.36 C 1201.46 1181.61 1200.8 1172.78 1200.03 1159.74 C 1179.39 1171.54 1148.19 1193.27 1127.17 1206.92 C 1129.53 1221.72 1130.32 1243.74 1131.31 1258.9 L 1136.83 1348.4 C 1141.22 1436.4 1146.23 1524.37 1151.88 1612.31 C 1153.38 1639.45 1154.92 1666.67 1156.45 1693.81 C 1157.63 1714.7 1157.87 1713.84 1179.17 1715.17 C 1235.14 1718.9 1290.92 1723.26 1346.21 1734.23 C 1386.92 1742.3 1470.32 1755.77 1473.31 1809.2 C 1473.23 1822.92 1473.76 1837.66 1473.08 1851.33 C 1471.95 1874.16 1477.38 1904.07 1467.32 1924.58 C 1446.6 1954.77 1396.51 1962.17 1362.45 1968.2 C 1317.49 1976.15 1268.5 1982.95 1222.8 1986.27 C 1090.78 1996.62 958.146 1996.64 826.117 1986.35 C 775.282 1982.16 724.125 1977.18 674.04 1966.58 C 645.67 1960.57 605.689 1952.23 582.97 1933.34 C 573.915 1925.81 569.231 1912.84 568.965 1901.45 C 568.513 1882.09 568.692 1860.85 568.824 1841.5 C 568.893 1831.52 568.318 1801.86 570.01 1793.71 C 571.429 1786.73 574.754 1780.28 579.617 1775.08 C 619.073 1732.51 823.301 1716.42 885.411 1714.96 C 885.465 1667.77 889.805 1611.36 891.995 1563.17 C 898.529 1440.89 903.887 1318.56 908.068 1196.18 C 895.572 1193.98 879.315 1189.2 866.471 1186.19 L 765.496 1162.87 C 720.665 1153.24 675.981 1142.93 631.458 1131.96 C 613.899 1127.67 595.96 1123.76 578.601 1118.76 C 572.993 1117.14 568.698 1113.97 565.192 1109.3 C 550.578 1089.47 556.383 1065.19 576.038 1051.48 C 593.203 1039.51 617.254 1047.27 636.911 1050.7 C 655.977 1054.11 675.073 1057.36 694.194 1060.44 C 768.536 1071.84 842.739 1084.11 916.789 1097.27 C 920.253 1054.05 924.535 994.232 925.052 951.602 C 911.381 938.788 888.907 919.63 874.136 908.172 C 872.866 960.145 848.676 1002.92 798.906 1022.72 C 768.971 1034.9 735.4 1034.54 705.728 1021.74 C 676.129 1008.53 652.901 984.227 641.046 954.062 C 617.573 893.411 650.798 824.374 710.782 801.877 C 710.694 793.694 710.008 785.528 708.728 777.445 C 688.03 762.424 665.48 744.764 646.164 727.978 C 616.033 701.794 655.686 647.412 689.896 663.956 C 710.194 673.772 733.52 691.202 752.484 704.069 L 878.246 788.65 C 893.793 799.209 916.9 817.455 931.475 825.972 L 932.959 826.83 C 932.907 805.439 935.135 777.247 936.215 755.537 C 938.362 714.299 940.072 673.039 941.344 631.764 C 887.013 608.951 833.159 584.472 778.435 562.413 C 752.522 551.967 726.004 541.898 700.444 530.608 C 683.003 521.923 661.66 518.721 651.376 500.876 C 637.402 476.628 660.041 439.746 687.144 443.209 C 700.457 444.91 724.218 453.755 737.39 457.982 C 773.182 469.529 808.904 481.294 844.553 493.276 C 878.396 504.556 913.085 513.316 946.599 525.705 L 953.004 402.265 C 944.904 394.882 919.481 376.526 909.756 369.097 L 805.871 290.389 C 788.331 276.912 762.833 263.109 756.108 241.747 C 747.895 215.664 783.395 182.299 807.444 194.391 C 833.623 207.554 859.836 226.111 885.242 241.279 C 909.778 256.353 935.016 271.425 958.918 287.686 C 958.902 255.252 964.066 215.098 965.805 181.951 C 968.551 146.65 970.521 111.245 973.677 75.9819 C 975.692 53.466 987.667 41.5573 1008.77 35.184 z" fill="rgb(247,247,247)" transform="translate(0,0)"></path>
<path d="M 1010.54 68.7899 C 1014.68 68.8965 1016.93 68.4935 1020.28 70.8829 C 1021.58 73.7608 1023.26 102.889 1023.67 107.783 C 1029.62 181.199 1034.64 254.687 1038.73 328.231 C 1105.85 304.271 1170.89 277.073 1237.26 251.28 C 1247.86 247.16 1258.78 243.053 1269.45 239.134 C 1277.94 236.018 1294.45 227.811 1302.2 233.386 C 1302.62 235.337 1303 235.373 1302.46 237.018 C 1301.94 238.604 1300.56 240.052 1299.05 240.782 C 1286.64 246.767 1274.15 253.009 1261.88 259.235 C 1229.39 275.978 1196.63 292.185 1163.61 307.85 C 1125.61 326.087 1077.72 350.568 1039.86 366.55 C 1042.55 389.493 1042.94 412.589 1044.74 435.443 C 1049.59 496.949 1050.23 563.198 1057.34 624.196 C 1097.92 600.432 1136.36 573.765 1176.11 548.897 C 1235.92 511.484 1296.84 474.935 1355.69 436.069 C 1360.18 433.103 1364.39 432.289 1369.61 433.312 C 1378.37 440.493 1359.69 450.034 1355.27 454.203 C 1342.33 466.419 1315.17 482.609 1305.02 495.99 C 1315.8 501.488 1316.88 500.177 1315.95 514.939 C 1315.49 522.204 1315.67 529.39 1316.37 536.631 C 1324.19 539.062 1331.73 542.338 1338.84 546.4 C 1359.4 558.237 1373.94 575.714 1380.02 598.819 C 1385.9 620.876 1382.56 644.377 1370.77 663.922 C 1358.97 683.94 1339.48 698.254 1316.85 703.531 C 1294.15 708.904 1270.23 704.836 1250.58 692.259 C 1200.44 660.636 1198.39 587.288 1246.1 552.588 C 1258.75 543.386 1268.85 540.72 1283.89 537.279 L 1283.84 512.089 C 1266.94 522.335 1250.3 536.701 1233.73 547.924 C 1175.64 587.628 1118.03 628.028 1060.91 669.115 C 1061.01 696.432 1064.13 728.261 1065.6 756.133 C 1068.1 803.563 1070.45 851.073 1075.33 898.304 C 1138.62 876.066 1201.61 852.979 1264.28 829.049 L 1383.06 786.148 C 1401.67 779.391 1427.98 768.21 1447.34 762.632 C 1449.5 762.01 1450.78 763.678 1452.07 764.991 C 1453.37 768.806 1453.23 768.648 1452.63 772.719 C 1448.1 778.981 1388.43 803.95 1376.16 809.545 C 1323.99 833.46 1271.59 856.889 1218.97 879.829 C 1173.23 899.472 1122.07 919.539 1077.29 939.91 C 1079.34 956.359 1080.05 976.352 1081.19 993.178 C 1084.5 1042.48 1085.43 1094.48 1091.23 1143.45 C 1114.98 1131.74 1142.27 1113.04 1165.83 1099.27 C 1220.57 1067.44 1275.06 1035.16 1329.29 1002.45 C 1358.46 984.715 1387.46 966.511 1416.61 948.723 C 1432.29 939.151 1437.46 952.403 1430.74 957.679 C 1396.48 984.609 1360.71 1009.76 1325.68 1035.73 C 1336.9 1045.35 1333.24 1068.73 1332.95 1082.95 C 1338.58 1085.04 1344.14 1087.29 1349.64 1089.7 C 1394.81 1109.96 1417.72 1158.15 1396.44 1205.08 C 1377.59 1246.64 1325.09 1265.67 1283.79 1245.07 C 1239.1 1222.77 1220.92 1172.38 1244.06 1127.24 C 1256.5 1102.86 1276.53 1091.84 1301.75 1083.84 L 1302.04 1050.9 C 1232.44 1096.39 1164.72 1146.06 1093.26 1189.13 L 1113.13 1545.23 C 1116.62 1612.9 1118.91 1681.14 1124.06 1748.71 C 1203.96 1750.02 1307.98 1759.71 1384.51 1778.54 C 1386.83 1779.02 1389.13 1779.59 1391.41 1780.24 C 1408.83 1785.1 1427.4 1790.71 1436.72 1807.26 C 1437.79 1825.89 1437.08 1886.9 1436.13 1903.27 C 1434.57 1930.3 1289.97 1944.81 1271.24 1946.68 C 1133.83 1960.86 995.458 1963.4 857.616 1954.26 C 791.296 1949.82 724.595 1944.2 659.702 1928.48 C 643.168 1924.47 624.048 1919.8 610.314 1909.41 C 605.126 1905.49 604.457 1898.02 603.888 1891.96 C 603.375 1864.27 604.045 1836.55 603.228 1808.88 C 602.522 1793.77 628.303 1786.37 639.91 1783.12 C 728.798 1758.2 827.006 1752.7 918.683 1748.72 L 938.922 1324.94 C 941.163 1273.85 944.48 1223.27 945.31 1172.05 C 920.044 1165.48 894.39 1159.36 868.945 1153.51 C 781.014 1133.28 693.341 1111.86 605.124 1092.93 C 598.888 1091.59 593.626 1089.77 590.016 1084.29 C 589.941 1077.55 601.383 1078.07 606.206 1078.73 C 633.185 1082.42 659.975 1087.64 686.85 1092.04 L 841.329 1117.66 C 875.247 1123.48 913.735 1131.16 947.555 1135.13 C 952.555 1068.24 956.233 1001.27 958.589 934.237 L 834.101 836.296 C 810.81 818.095 786.719 800.522 764.277 781.135 C 764.088 796.031 764.181 810.93 764.556 825.822 C 800.906 831.922 833.269 856.867 840.371 894.319 C 844.765 917.914 839.487 942.286 825.723 961.949 C 812.48 981.155 792.079 994.239 769.099 998.263 C 745.822 1002.28 721.912 996.686 702.834 982.758 C 683.694 968.909 670.855 948.01 667.153 924.677 C 663.872 901.734 670.043 878.442 684.254 860.134 C 698.492 841.407 719.427 830.747 742.472 827.621 C 744.058 810.199 743.318 782.894 743.341 764.514 C 719.045 746.73 695.243 725.347 672.042 706.169 C 668.67 703.381 671.152 697.255 675.507 694.972 C 677.716 694.978 680.242 695.26 682.129 696.52 C 741.822 736.375 801.666 776.028 860.9 816.581 C 893.428 838.852 926.668 864.204 960.719 883.899 C 964.728 863.054 966.11 809.087 967.187 786.376 L 976.044 610.846 C 943.737 596.181 910.733 583.304 877.968 569.783 L 763.457 521.845 C 737.858 511.21 711.177 499.199 685.142 489.505 C 682.053 488.354 681.065 486.414 680.091 483.46 C 681.063 478.129 683.523 474.149 689.742 476.108 C 786.197 506.482 881.341 541.33 977.94 571.287 C 981.334 510.23 985.321 446.054 987.338 385.151 C 962.7 365.22 795.357 245.654 790.218 235.244 C 788.965 232.705 789.522 231.25 790.16 228.706 C 794.694 224.328 798.844 226.414 803.913 229.34 C 819.113 238.116 833.53 248.148 848.547 257.285 L 989.94 345.196 C 991.785 284.098 996.935 212.093 1001.52 150.539 C 1002.72 135.349 1003.81 120.149 1004.76 104.941 C 1005.33 95.5468 1004.6 75.0054 1010.54 68.7899 z" fill="rgb(1,1,1)" transform="translate(0,0)"></path>
<path d="M 1015.04 124.115 L 1053.87 737.116 C 1071.84 984.803 1086.99 1232.69 1099.33 1480.72 C 1104.26 1584.75 1112.63 1692.22 1115.46 1796 L 998.122 1795.86 C 975.132 1795.79 949.43 1796.24 926.659 1795.24 C 928.678 1721.93 933.376 1645.74 937.293 1572.4 L 946.976 1370.31 L 984.01 632.2 L 1002.98 277.361 C 1005.03 242.751 1007.29 208.154 1009.76 173.572 C 1010.59 161.636 1012.84 142.484 1013.03 131.342 L 1015.04 124.115 z" fill="rgb(247,247,247)" transform="translate(0,0)"></path>
<path d="M 613.225 1825.61 C 618.449 1828.39 623.809 1830.9 629.283 1833.14 C 765.058 1887.73 1293.49 1887.89 1427.34 1830.15 C 1427.42 1850.3 1428.51 1884.64 1426.86 1903.81 C 1390.85 1926.73 1260.45 1939.12 1215.4 1942.54 C 1108.48 1951.13 1001.1 1952.47 894.001 1946.55 C 824.65 1943.17 754.477 1938.07 686.366 1924.31 C 668.516 1920.71 629.956 1913.1 617.036 1901.67 C 610.732 1896.09 613.159 1837.98 613.225 1825.61 z" fill="rgb(247,247,247)" transform="translate(0,0)"></path>
<path d="M 1124.86 1758.09 C 1214.88 1763.3 1305.51 1765.99 1392.9 1791.11 C 1403.08 1794.04 1413.96 1797.41 1422.61 1804.08 C 1427.01 1807.47 1428.43 1814.9 1424.29 1819.75 C 1400.81 1834.96 1348.63 1842.61 1323.46 1845.96 C 1174.5 1865.83 1022.03 1867.46 872.249 1860.14 C 840.519 1858.68 622.66 1842.97 613.52 1810.68 C 615.96 1798.43 639.615 1793.11 650.355 1790.14 C 700.792 1776.22 753.287 1769.92 805.317 1765.4 C 842.341 1762.18 880.992 1759.13 918.172 1759.1 C 918.055 1769.06 914.767 1798.37 918.412 1804.51 C 929.282 1805.54 943.067 1805.01 954.277 1804.99 L 1011.98 1805.06 L 1081.64 1805.2 C 1089.4 1805.21 1119.17 1806.08 1123.97 1803.67 C 1127.14 1799.25 1124.99 1766.14 1124.86 1758.09 z" fill="rgb(247,247,247)" transform="translate(0,0)"></path>
<path d="M 746.074 835.381 C 788.584 830.929 826.731 861.588 831.528 904.06 C 836.325 946.533 805.976 984.928 763.544 990.069 C 720.622 995.27 681.686 964.494 676.834 921.532 C 671.982 878.569 703.073 839.884 746.074 835.381 z" fill="rgb(245,177,45)" transform="translate(0,0)"></path>
<path d="M 751.028 871.77 C 755.607 872.314 755.135 871.568 758.305 873.956 C 758.149 877.032 758.068 877.199 758.66 880.181 C 763.829 885.894 775.745 883.023 775.927 892.062 C 774.335 895.485 774.523 895.301 771.65 897.726 C 767.421 897.902 763.213 894.138 759.134 891.491 L 758.963 907.903 C 782.262 919.443 783.38 935.111 760.029 947.75 C 760.076 948.577 760.116 949.404 760.149 950.231 C 760.37 955.796 760.501 955.576 757.317 959.033 C 753.73 959.915 753.712 959.607 750.372 958.247 L 750.061 956.221 C 750.026 952.772 750.074 951.906 749.444 948.426 C 742.207 944.984 728.49 940.364 725.987 932.474 C 726.182 929.351 726.831 929.135 728.891 926.73 C 737.72 923.563 738.803 933.392 747.086 934.566 L 748.817 932.766 C 750.457 927.81 750.05 925.318 749.922 920.134 C 738.491 913.144 715.857 898.378 741.694 884.919 C 753.836 878.594 744.117 880.447 751.028 871.77 z" fill="rgb(1,1,1)" transform="translate(0,0)"></path>
<path d="M 747.593 893.693 C 750.208 896.234 749.495 901.24 748.251 904.276 L 745.998 905.084 C 743.63 902.469 743.638 902.67 742.396 899.414 C 743.862 895.656 743.837 896.576 747.593 893.693 z" fill="rgb(245,177,45)" transform="translate(0,0)"></path>
<path d="M 759.19 922.31 C 762.067 923.475 761.056 922.983 763.446 925.259 C 764.716 928.838 764.129 929.876 763.245 933.553 C 761.254 933.944 761.859 933.846 759.787 933.633 C 757.964 930.704 758.913 925.999 759.19 922.31 z" fill="rgb(245,177,45)" transform="translate(0,0)"></path>
<path d="M 1294.05 544.586 C 1336.1 542.846 1371.61 575.505 1373.39 617.557 C 1375.18 659.61 1342.55 695.156 1300.5 696.981 C 1258.39 698.808 1222.78 666.129 1221 624.016 C 1219.22 581.903 1251.93 546.328 1294.05 544.586 z" fill="rgb(245,177,45)" transform="translate(0,0)"></path>
<path d="M 1293.99 586.641 C 1293.87 580.967 1292.66 572.943 1300.57 572.644 C 1305.92 576.66 1304.85 579.785 1304.66 585.993 C 1314.59 591.2 1328.57 602.073 1324.69 614.877 L 1322.95 616.088 C 1315.05 613.642 1310.62 600.797 1303.42 603.09 C 1300.86 607.422 1301.94 612.057 1302.29 617.303 C 1329.47 624.074 1332.32 647.407 1304.03 653.387 L 1303.88 668.885 C 1300.23 668.987 1296.58 669.559 1293.56 667.757 C 1291.22 664.682 1291.97 657.855 1291.89 653.506 C 1281.49 650.995 1276.63 645.209 1272.65 635.484 L 1284.69 627.888 C 1286.88 629.032 1286.71 628.996 1288.17 631.026 C 1288.4 633.962 1288.19 635.799 1289.97 638.1 C 1294.11 639.802 1292.16 639.784 1295.97 638.92 L 1297.39 636.442 C 1297.93 627.977 1294.14 629.439 1286.66 626.781 C 1266.35 610.798 1271.17 596.005 1293.99 586.641 z" fill="rgb(1,1,1)" transform="translate(0,0)"></path>
<path d="M 1295.76 600.66 C 1299.12 601.476 1297.86 600.598 1299.85 603.088 C 1300.65 608.201 1300.2 610.497 1298.2 615.455 L 1295.86 615.449 C 1291.97 612.79 1289.24 611.636 1288.63 606.793 C 1290.25 603.303 1292.38 602.61 1295.76 600.66 z" fill="rgb(245,177,45)" transform="translate(0,0)"></path>
<path d="M 1304.05 630.358 C 1308.68 633.163 1309.28 633.954 1309.36 639.397 C 1307.84 639.533 1306.53 639.526 1305.01 639.553 C 1302.97 636.706 1303.86 634.564 1304.05 630.358 z" fill="rgb(245,177,45)" transform="translate(0,0)"></path>
<path d="M 1315.69 1092.42 C 1357.52 1090.52 1392.96 1122.9 1394.84 1164.73 C 1396.71 1206.56 1364.31 1241.99 1322.48 1243.85 C 1280.68 1245.7 1245.28 1213.33 1243.41 1171.53 C 1241.53 1129.72 1273.89 1094.31 1315.69 1092.42 z" fill="rgb(245,177,45)" transform="translate(0,0)"></path>
<path d="M 1314.9 1127.87 C 1318.16 1127.82 1318.28 1127.74 1321.41 1128.49 C 1323.38 1131.32 1322.64 1133.81 1322.63 1137.86 C 1323.41 1138.1 1324.19 1138.36 1324.96 1138.62 C 1333.54 1141.53 1342.38 1144.95 1338.55 1155.96 C 1333.25 1159.27 1331.41 1151.81 1324.04 1150.19 L 1322.57 1151.21 C 1320.97 1154.99 1321.48 1158.48 1321.56 1162.66 C 1345.81 1174.55 1351.07 1194.74 1323.09 1206.91 C 1322.84 1207.02 1321.27 1212.79 1319.09 1215.33 C 1308.91 1211.62 1316.51 1208.46 1310.86 1205.19 C 1304.95 1201.77 1284.91 1196.14 1295.94 1185.52 C 1303.01 1184.52 1304.58 1188.91 1312.42 1193.18 L 1313.5 1193.76 L 1313.75 1176.28 C 1307.32 1173.68 1299.27 1170.18 1297.35 1162.53 C 1291.57 1139.62 1308 1144.86 1313.68 1136.48 C 1313.97 1132.75 1314.12 1131.53 1314.9 1127.87 z" fill="rgb(1,1,1)" transform="translate(0,0)"></path>
<path d="M 1321.28 1178.26 C 1328.6 1181.07 1329.91 1184.22 1326.54 1190.91 L 1323.39 1193.17 L 1321.67 1192.83 C 1320.1 1189.09 1321.02 1182.6 1321.28 1178.26 z" fill="rgb(245,177,45)" transform="translate(0,0)"></path>
<path d="M 1312.72 1149.64 C 1315.77 1152.52 1315.08 1157.81 1312.93 1161.06 C 1310.46 1159.03 1309.33 1158.47 1308.24 1155.46 C 1309.26 1151.87 1309.45 1152.63 1312.72 1149.64 z" fill="rgb(245,177,45)" transform="translate(0,0)"></path>
<path d="M 1292.31 511.232 L 1307.1 510.973 C 1307.89 518.146 1308.66 528.524 1307.63 535.6 C 1302.82 535.381 1297.57 535.724 1292.72 535.915 L 1292.31 511.232 z" fill="rgb(166,166,166)" transform="translate(0,0)"></path>
<path d="M 1143.53 1134.19 L 1145.57 1134.98 C 1147.69 1140.85 1147.46 1148.14 1139.61 1148.21 C 1138.7 1144.83 1139.05 1144.44 1136.44 1142.45 C 1135.82 1144.23 1136.44 1148.17 1136.49 1150.38 L 1135.18 1151.34 C 1133.94 1147.78 1134.97 1148.41 1132.74 1147.29 L 1131 1149.64 C 1131.9 1155.14 1132.63 1153.09 1130.91 1157.14 C 1126.96 1157.37 1122.36 1152.25 1122.21 1148.82 C 1131.1 1149.57 1129.05 1142.32 1137.79 1137.66 C 1139.27 1136.87 1141.92 1135.16 1143.53 1134.19 z" fill="rgb(13,15,13)" transform="translate(0,0)"></path>
<path d="M 1320.21 1066.5 L 1322.37 1066.59 C 1324.1 1071.82 1324.01 1074.72 1321.85 1079.51 C 1318.71 1082.21 1319.07 1081.32 1313.89 1081.7 L 1312.29 1080.71 C 1310.68 1075.24 1309.9 1073.44 1312.25 1068.36 C 1315.43 1065.9 1315.25 1066.74 1320.21 1066.5 z" fill="rgb(247,247,247)" transform="translate(0,0)"></path>
<path d="M 1111.75 895.943 L 1112.84 896.698 C 1113.93 899.778 1114.08 899.669 1113.93 902.873 L 1112.7 902.808 L 1110.74 899.584 L 1108.86 899.277 L 1106.42 901.217 C 1105.97 904.524 1106.01 904.759 1106.29 908.107 L 1109.77 907.58 L 1110.46 908.634 L 1108.35 912.032 C 1102.91 912.926 1093.69 912.109 1095.18 904.514 C 1098.84 900.735 1106.45 898.256 1111.75 895.943 z" fill="rgb(38,25,19)" transform="translate(0,0)"></path>
<path d="M 1314.56 1044.69 C 1317.54 1044.62 1317.5 1044.6 1320.38 1045.34 C 1322.95 1047.83 1323.25 1047.73 1323.9 1051.33 C 1322.75 1055.58 1323.67 1054.64 1320.79 1057 C 1317.57 1057.24 1316.31 1057.53 1313.14 1056.66 C 1310.22 1053.77 1311 1055.43 1310.31 1051.73 C 1311.45 1047.51 1311.38 1047.74 1314.56 1044.69 z" fill="rgb(247,247,247)" transform="translate(0,0)"></path>
<path d="M 1172.64 872.314 C 1176.26 872.664 1177.97 873.758 1179.54 877.055 C 1179.73 881.377 1178.4 885.194 1175.67 888.778 C 1174.94 889.749 1173.29 889.132 1171.4 888.953 C 1171.36 886.545 1171.45 886.373 1171.98 883.998 C 1174.1 883.696 1173.36 884.189 1174.45 882.993 C 1169.75 880.025 1169.62 880.926 1167.3 876.702 C 1168.71 873.316 1168.27 874.394 1172.64 872.314 z" fill="rgb(38,25,19)" transform="translate(0,0)"></path>
<path d="M 1271.63 833.502 L 1272.96 834.228 C 1274.09 836.973 1274.34 838.186 1274.62 841.193 C 1275.01 845.491 1265.19 853.053 1261.59 852.993 L 1260.63 851.732 C 1258.53 850.304 1257.88 850.034 1256.24 848.139 C 1259.27 843.667 1265.19 847.491 1270.32 841.563 C 1270.28 838.045 1270.46 837.649 1271.37 834.389 L 1271.63 833.502 z" fill="rgb(38,25,19)" transform="translate(0,0)"></path>
<path d="M 753.015 775.584 C 755.01 780.087 754.934 822.391 752.506 827.187 C 751.774 819.783 751.567 781.675 753.015 775.584 z" fill="rgb(92,92,93)" transform="translate(0,0)"></path>
<path d="M 900.577 858.508 L 904.465 858.683 C 910.947 863.763 908.057 868.296 904.768 874.742 C 903.7 869.437 906.114 869.574 900.77 864.58 C 898.879 862.813 900.019 860.819 900.577 858.508 z" fill="rgb(38,25,19)" transform="translate(0,0)"></path>
<path d="M 1235.9 1068.22 L 1238.56 1068.79 C 1239.31 1071.12 1237.21 1071.15 1235.74 1073.51 C 1235.75 1075.46 1235.75 1077.05 1235.76 1078.3 L 1234.62 1078.74 L 1231.6 1076.88 C 1228.03 1077.12 1228.94 1077.31 1225.56 1080.4 L 1222.41 1080.55 L 1222.04 1079.33 C 1227.83 1075.11 1232.33 1073.73 1235.9 1068.22 z" fill="rgb(38,25,19)" transform="translate(0,0)"></path>
<path d="M 1166.05 1109.31 C 1168.84 1110.11 1168.23 1110.08 1170.78 1111.85 L 1171.02 1113.6 L 1169.22 1115.15 C 1168.37 1114.41 1168.96 1114.74 1167.25 1114.72 L 1165.67 1116.68 L 1160.65 1118.53 L 1159.53 1117.98 C 1162.89 1115.08 1163.21 1115.1 1165.17 1111.12 L 1166.05 1109.31 z" fill="rgb(38,25,19)" transform="translate(0,0)"></path>
<path d="M 1089.6 319.262 C 1092.49 319.119 1091.16 318.858 1093.55 320.384 C 1093.17 323.729 1092.88 323.078 1090.34 326.209 C 1088.05 325.041 1086.29 324.348 1084.43 322.543 C 1086.46 320.644 1087.07 320.535 1089.6 319.262 z" fill="rgb(13,15,13)" transform="translate(0,0)"></path>
<path d="M 1122.24 1139.39 C 1123.02 1139.78 1122.53 1139.44 1123.14 1140.94 C 1120.37 1144.7 1117.51 1142.52 1111.34 1148.05 C 1109.9 1146.45 1110.3 1147.39 1110.17 1145.21 C 1112.76 1142.19 1116.15 1142.57 1120.47 1140.33 L 1122.24 1139.39 z" fill="rgb(92,92,93)" transform="translate(0,0)"></path>
<path d="M 1223.95 851.658 C 1226.17 853.725 1228.18 863.549 1227.26 866.268 L 1224.22 863.21 C 1222.96 859.095 1223.6 855.964 1223.95 851.658 z" fill="rgb(38,25,19)" transform="translate(0,0)"></path>
<path d="M 943.921 1151.52 C 944.971 1151.97 945.525 1152.42 946.489 1153.04 L 946.476 1154.75 C 943.057 1157.28 942.876 1157.51 941.192 1161.41 C 938.726 1160.74 938.531 1160.91 936.626 1159.29 C 940.999 1156.71 941.718 1156.1 943.921 1151.52 z" fill="rgb(38,25,19)" transform="translate(0,0)"></path>
<path d="M 750.909 755.131 L 752.054 754.691 C 756.153 756.017 759.214 757.727 761.352 761.631 L 759.823 762.193 C 757.441 760.258 752.489 756.855 750.909 755.131 z" fill="rgb(38,25,19)" transform="translate(0,0)"></path>
<path d="M 838.485 534.813 L 840.011 535.544 C 839.143 538.273 838.835 539.119 838.527 541.996 L 838.324 544.022 C 837.047 541.529 835.837 540.018 834.23 537.743 L 834.692 536.184 L 838.485 534.813 z" fill="rgb(13,15,13)" transform="translate(0,0)"></path>
<path d="M 1103.55 607.675 C 1105.75 607.908 1112.51 609.786 1113.57 611.67 L 1111.12 613.213 C 1110.41 613.126 1103.28 610.876 1102.8 610.568 L 1103.55 607.675 z" fill="rgb(38,25,19)" transform="translate(0,0)"></path>
<path d="M 941.131 898.108 L 942.214 897.815 C 945.416 900.652 946.525 901.54 945.578 905.577 L 942.386 906.503 L 942.311 907.112 L 941.436 905.723 L 942.352 902.337 L 940.571 900.728 L 941.131 898.108 z" fill="rgb(38,25,19)" transform="translate(0,0)"></path>
<path d="M 1275.93 836.48 C 1280.23 838.403 1280.95 840.715 1279.97 845 C 1278.33 845.195 1279.24 845.238 1277.26 844.603 C 1277.22 841.096 1277.14 840.781 1276.17 837.335 L 1275.93 836.48 z" fill="rgb(38,25,19)" transform="translate(0,0)"></path>
<path d="M 933.636 889.719 C 934.056 891.906 933.883 900.515 932.787 902.256 L 930.084 898.279 C 929.839 894.003 930.785 894.248 933.636 889.719 z" fill="rgb(92,92,93)" transform="translate(0,0)"></path>
<path d="M 1241.21 846.557 C 1243.56 847.824 1243.69 847.611 1244.81 849.96 C 1243.02 851.257 1244.06 850.798 1241.25 850.529 L 1240.71 852.029 C 1238.81 853.938 1239.46 853.402 1237.15 854.741 L 1236.47 853.745 C 1237.98 849.431 1237.84 849.639 1241.21 846.557 z" fill="rgb(38,25,19)" transform="translate(0,0)"></path>
<path d="M 1116.23 907.742 C 1119.34 906.902 1120.29 906.354 1123.38 907.306 L 1123.91 908.56 L 1121.69 908.431 C 1119.51 910.443 1119.47 910.549 1116.89 911.949 L 1115.86 911.111 L 1116.23 907.742 z" fill="rgb(38,25,19)" transform="translate(0,0)"></path>
<path d="M 1147.55 1119.6 L 1148.81 1120.64 C 1148.5 1123.71 1146.78 1125.01 1144.66 1127.96 L 1143.47 1126.02 C 1143.92 1122.85 1145.31 1121.93 1147.55 1119.6 z" fill="rgb(38,25,19)" transform="translate(0,0)"></path>
<path d="M 1211.74 1086.34 L 1212.19 1087.54 C 1210.84 1090.12 1208.68 1090.53 1205.55 1092.24 L 1205.17 1089.97 C 1207.78 1086.94 1207.32 1087.81 1211.74 1086.34 z" fill="rgb(38,25,19)" transform="translate(0,0)"></path>
<path d="M 955.945 891.516 C 960.691 896.041 955.039 895.036 957.23 902.327 L 955.482 902.203 C 954.336 899.015 955.396 895.026 955.945 891.516 z" fill="rgb(92,92,93)" transform="translate(0,0)"></path>
<path d="M 974.598 586.592 L 976.301 588.133 C 977.379 592.069 976.201 595.249 975.309 599.342 C 973.977 595.812 974.502 590.541 974.598 586.592 z" fill="rgb(38,25,19)" transform="translate(0,0)"></path>
<path d="M 904.634 563.448 L 905.596 563.17 L 906.081 564.937 C 907.205 569.14 907.374 569.11 910.702 572.293 C 907.847 571.86 907.771 571.392 905.415 569.547 C 903.693 565.604 903.897 567.571 904.634 563.448 z" fill="rgb(92,92,93)" transform="translate(0,0)"></path>
<path d="M 1213.95 1093.35 C 1216.28 1095.28 1216.18 1095.98 1216.39 1098.71 L 1214.94 1097.6 C 1212.06 1098.04 1213.12 1098.13 1210.3 1097.46 L 1210.4 1095.93 L 1213.95 1093.35 z" fill="rgb(38,25,19)" transform="translate(0,0)"></path>
<path d="M 844.191 1127.39 C 846.769 1130.33 846.041 1134.11 846.333 1138.9 L 844.43 1137.5 C 843.512 1134.62 844.022 1130.56 844.191 1127.39 z" fill="rgb(38,25,19)" transform="translate(0,0)"></path>
<path d="M 1014.53 113.266 C 1014.95 116.899 1014.96 120.466 1015.04 124.115 L 1013.03 131.342 C 1012.93 123.885 1013.42 120.69 1014.53 113.266 z" fill="rgb(92,92,93)" transform="translate(0,0)"></path>
<path d="M 936.661 331.172 C 935.417 330.798 942.908 335.229 943.117 335.337 L 942.454 336.895 C 939.803 336.736 937.662 334.261 936.056 332.424 L 936.661 331.172 z" fill="rgb(38,25,19)" transform="translate(0,0)"></path>
<path d="M 1139.94 589.468 C 1143.51 592.394 1143.08 597.515 1142.68 601.645 L 1140.78 599.282 C 1141.15 594.474 1141.39 593.918 1139.94 589.468 z" fill="rgb(92,92,93)" transform="translate(0,0)"></path>
<path d="M 958.807 339.731 C 961.781 339.873 960.736 339.544 963.335 340.89 L 962.662 341.72 L 960.1 341.087 C 958.873 343.607 958.981 344.071 956.778 345.648 C 956.409 342.774 957.078 342.879 958.807 339.731 z" fill="rgb(38,25,19)" transform="translate(0,0)"></path>
<path d="M 1254.62 517.558 L 1256.27 519.58 L 1255.45 520.949 L 1250.99 522.018 L 1249.8 520.864 L 1250.25 519.27 L 1254.62 517.558 z" fill="rgb(13,15,13)" transform="translate(0,0)"></path>
<path d="M 1150.46 1132.31 L 1151.28 1132.13 C 1152.64 1134.21 1151.83 1137.75 1151.64 1140.77 C 1150.15 1137.98 1148.98 1135.22 1150.46 1132.31 z" fill="rgb(92,92,93)" transform="translate(0,0)"></path>
<path d="M 1094.75 1151.07 C 1099.74 1153.1 1099.29 1154.69 1100.41 1159.33 C 1095.52 1154.58 1096.05 1157 1094.75 1151.07 z" fill="rgb(92,92,93)" transform="translate(0,0)"></path>
<path d="M 937.028 570.183 L 938.173 570.514 L 937.294 574.623 L 935.38 574.852 C 934.002 575.187 933.886 575.089 932.453 575.111 C 936.53 572.622 935.142 574.281 937.028 570.183 z" fill="rgb(38,25,19)" transform="translate(0,0)"></path>
<path d="M 1117.74 896.204 C 1120.56 895.875 1122.35 895.311 1124.81 896.606 L 1125.1 899.068 C 1122.09 898.144 1120.55 897.461 1117.74 896.204 z" fill="rgb(92,92,93)" transform="translate(0,0)"></path>
<path d="M 742.278 746.575 C 745.423 749.586 744.438 748.568 745.585 753.515 L 744.595 753.808 C 742.804 751.935 742.915 749.627 742.278 746.575 z" fill="rgb(38,25,19)" transform="translate(0,0)"></path>
<path d="M 856.915 826.176 L 858.119 827.364 C 856.606 828.185 855.594 828.775 854.119 829.714 L 852.758 830.592 L 852.107 830.154 L 852.278 828.663 L 856.915 826.176 z" fill="rgb(38,25,19)" transform="translate(0,0)"></path>
<path d="M 1164.85 580.185 L 1165.45 580.756 C 1163.95 583.628 1163.15 583.39 1159.95 585.396 L 1159.39 585.024 C 1160.67 582.041 1161.53 582.319 1164.85 580.185 z" fill="rgb(92,92,93)" transform="translate(0,0)"></path>
<path d="M 1180.46 1102.39 C 1182.99 1101.87 1184.32 1101.23 1186.6 1102.23 L 1187 1104.65 L 1181.51 1104.1 L 1180.46 1102.39 z" fill="rgb(38,25,19)" transform="translate(0,0)"></path>
<path d="M 890.309 850.483 C 891.498 850.135 890.841 850.132 892.239 850.887 L 891.347 854.641 L 890.696 854.809 L 889.67 854.103 L 890.309 850.483 z" fill="rgb(38,25,19)" transform="translate(0,0)"></path>
<path d="M 916.642 1141.18 L 917.149 1141.1 C 918.585 1143.37 918.587 1144.81 919.198 1147.53 C 915.284 1145.57 915.883 1144.88 916.642 1141.18 z" fill="rgb(92,92,93)" transform="translate(0,0)"></path>
<path d="M 913.718 1151.22 L 914.804 1151.24 L 916.541 1156.68 C 915.205 1155.9 914.645 1155.35 913.445 1154.37 L 913.718 1151.22 z" fill="rgb(92,92,93)" transform="translate(0,0)"></path>
<path d="M 1055.23 335.719 C 1056.04 337.972 1055.92 338.668 1056.18 341.142 C 1055.12 340.62 1055.83 341.036 1054.36 339.489 L 1055.23 335.719 z" fill="rgb(92,92,93)" transform="translate(0,0)"></path>
<path d="M 1105.21 1170.78 L 1106.28 1171.12 L 1105.67 1172.57 L 1100.92 1174.01 L 1099.99 1173.89 L 1100.21 1172.73 L 1105.21 1170.78 z" fill="rgb(38,25,19)" transform="translate(0,0)"></path>
<path d="M 1088.46 620.534 L 1089.87 620.266 C 1089.9 622.7 1090.06 623.189 1091.14 625.371 L 1089.65 625.776 L 1088.46 620.534 z" fill="rgb(38,25,19)" transform="translate(0,0)"></path>
<path d="M 694.372 1103.19 L 699.533 1103.59 L 700.81 1105.11 C 699.112 1105.6 696.497 1104.04 694.372 1103.19 z" fill="rgb(38,25,19)" transform="translate(0,0)"></path>
<path d="M 1038.21 340.748 C 1040.17 343.969 1039.64 342.203 1039.35 346.352 L 1038.73 346.65 L 1037.88 346.15 L 1038.21 340.748 z" fill="rgb(38,25,19)" transform="translate(0,0)"></path>
<path d="M 1157.54 296.479 L 1161.54 295.917 L 1162.41 297.248 C 1159.8 298.113 1161.08 297.803 1157.54 296.479 z" fill="rgb(13,15,13)" transform="translate(0,0)"></path>
<path d="M 306.58 1172.26 C 341.16 1168.15 365.923 1193.61 372.87 1225.27 C 392.388 1224.28 407.544 1225.74 414.417 1247.13 C 419.758 1263.76 423.11 1281.01 427.558 1297.95 C 439.907 1345.76 451.954 1393.64 463.699 1441.6 C 475.572 1491.17 452.26 1496.45 411.941 1504.93 C 367.235 1514.33 322.75 1525.98 278.013 1535.57 C 263.644 1538.97 248.628 1543.49 234.263 1547.08 C 193.278 1557.31 189.351 1529.88 182.588 1499.05 C 178.546 1480.96 174.608 1462.85 170.772 1444.72 C 164.035 1414.91 157.561 1385.04 151.35 1355.11 C 144.062 1320.34 128.613 1289.23 171.467 1273.52 C 168.404 1254.65 166.661 1236.14 178.195 1219.59 C 196.359 1193.52 230.315 1186.29 256.902 1203.86 C 257.897 1202.26 258.932 1200.69 260.005 1199.15 C 270.753 1183.78 288.517 1175.36 306.58 1172.26 z" fill="rgb(247,247,247)" transform="translate(0,0)"></path>
<path d="M 313.972 1204.26 C 315.343 1204.47 316.706 1204.73 318.06 1205.03 C 329.226 1207.65 340.985 1222.22 336.638 1232.62 C 329.347 1250.07 293.762 1273.34 278.058 1282.87 C 305.645 1276.79 333.301 1269.2 360.64 1262.04 C 367.259 1260.31 373.527 1258.01 380.366 1257.31 C 385.275 1264.84 390.362 1290.77 392.673 1300.87 C 405.037 1354.93 421.612 1409.55 432.288 1463.9 C 421.689 1468.79 377.855 1478.05 363.778 1481.29 L 264.463 1504.83 C 250.95 1507.46 236.256 1511.9 221.87 1514.75 C 216.502 1498.1 208.542 1456.34 204.439 1437.45 L 175.461 1307.71 C 206.34 1299.47 238.354 1293.53 269.97 1285.19 C 250.477 1280.77 195.963 1273.34 202.118 1245.3 C 203.408 1239.27 207.073 1234 212.287 1230.7 C 235.244 1216.21 260.235 1245.93 270.805 1263.32 C 275.839 1237.16 283.448 1209.11 313.972 1204.26 z" fill="rgb(1,1,1)" transform="translate(0,0)"></path>
<path d="M 389.111 1342.21 L 392.494 1341.93 C 395.181 1344.54 402.682 1379.98 404.289 1386.29 C 410.435 1410.43 416.689 1434.68 422.816 1458.83 L 332.217 1480.21 L 329.564 1480.82 C 327.331 1478.89 302.478 1377.9 299.052 1364.41 C 324.797 1356.66 362.346 1348.72 389.111 1342.21 z" fill="rgb(48,162,123)" transform="translate(0,0)"></path>
<path d="M 288.086 1367.24 C 289.426 1367.28 288.595 1367.15 290.463 1368.09 C 300.074 1406.41 310.923 1445 320.884 1483.34 C 294.556 1488.35 263.631 1496.63 237.371 1503.21 C 233.264 1504.27 231.178 1505.35 227.735 1503.92 C 224.89 1496.6 221.066 1475.56 219.278 1466.96 C 214.068 1441.01 208.57 1415.13 202.788 1389.31 C 232.552 1380.86 257.748 1373.98 288.086 1367.24 z" fill="rgb(48,162,123)" transform="translate(0,0)"></path>
<path d="M 370.639 1269.14 L 374.502 1268.73 C 377.708 1272.05 388.77 1323.24 391.323 1332.44 C 362.477 1340.38 330.575 1347.3 301.277 1354.78 C 298.599 1355.16 299.831 1355.47 297.454 1354.19 C 294.322 1347.07 283.387 1301.96 280.693 1291.58 L 370.639 1269.14 z" fill="rgb(57,139,225)" transform="translate(0,0)"></path>
<path d="M 270.158 1294.17 C 271.256 1294.24 270.491 1294.12 272.272 1295.13 C 277.519 1310.57 284.733 1341.57 289.108 1358.33 C 259.844 1364.46 232.134 1371.9 203.294 1379.63 L 201.169 1379.64 C 198.579 1376.93 187.124 1322.29 185.131 1313.51 C 213.664 1307.93 242.02 1301.48 270.158 1294.17 z" fill="rgb(57,139,225)" transform="translate(0,0)"></path>
<path d="M 312.737 1213.1 C 320.915 1214.19 329.068 1220.18 327.612 1228.57 C 325.379 1241.44 299.739 1256.22 289.629 1264.09 L 279.489 1272.59 C 281.482 1249.91 288.242 1220.58 312.737 1213.1 z" fill="rgb(247,247,247)" transform="translate(0,0)"></path>
<path d="M 223.809 1236.24 C 244.419 1238.63 258.307 1257.76 266.526 1275.17 L 254.518 1272.12 C 243.622 1269.1 232.825 1266.44 222.287 1262.29 C 206.136 1255.93 207.096 1240.52 223.809 1236.24 z" fill="rgb(247,247,247)" transform="translate(0,0)"></path>
<path d="M 333.588 141.222 C 367.046 138.978 391.332 159.979 398.205 191.908 C 426.13 183.412 440.708 186.689 449.998 215.98 C 459.84 247.007 468.381 278.62 478.169 309.625 C 486.484 335.706 494.468 361.89 502.118 388.173 C 508.751 411.201 521.973 440.502 492.088 453.731 C 474.067 461.707 454.276 466.741 435.429 472.705 L 327.516 507.208 C 316.79 510.468 304.028 514.929 293.542 518.744 C 250.649 534.347 245.219 518.421 234.885 482.201 C 230.837 468.217 226.63 454.28 222.263 440.392 L 191.544 342.218 C 186.365 325.799 180.048 309.97 176.116 293.174 C 170.552 269.406 187.149 261.423 205.838 254.256 C 198.785 237.741 196.099 224.78 202.32 207.048 C 207.286 192.469 218.029 180.574 232.028 174.153 C 251.247 165.476 266.464 169.7 284.823 176.379 C 285.81 174.885 286.814 173.403 287.836 171.933 C 299.943 154.567 312.757 144.945 333.588 141.222 z" fill="rgb(247,247,247)" transform="translate(0,0)"></path>
<path d="M 336.976 174.121 C 344.168 173.635 350.471 174.48 355.931 179.681 C 359.874 183.416 362.09 188.619 362.051 194.05 C 361.995 207.614 335.485 238.117 325.688 248.208 L 416.161 221.108 C 418.89 234.413 426.689 258.117 430.835 271.863 L 457.556 359.863 C 464 380.716 471.679 403.6 476.619 424.583 C 465.618 430.072 440.264 436.387 427.31 440.577 L 302.734 480.544 C 291.89 484.03 282.212 487.379 270.892 488.895 C 250.893 421.44 230.124 354.216 208.587 287.235 C 237.327 276.172 268.7 268.055 297.222 256.624 C 285.02 255.935 244.821 248.786 235.935 239.93 C 224.524 228.556 234.094 198.952 254.99 201.566 C 276.135 204.211 291.228 219.105 304.999 234.44 C 307.027 210.243 309.366 180.944 336.976 174.121 z" fill="rgb(1,1,1)" transform="translate(0,0)"></path>
<path d="M 330.257 336.016 L 331.709 336.144 C 334.558 338.904 365.118 437.011 369.639 450.104 C 339.779 459.37 310.003 468.902 280.312 478.699 C 277.846 479.189 279.076 479.273 276.627 478.371 C 266.069 440.017 254.416 401.973 241.681 364.286 C 270.471 354.496 301.06 345.544 330.257 336.016 z" fill="rgb(48,162,123)" transform="translate(0,0)"></path>
<path d="M 429.56 306.035 L 431.923 306.219 C 434.532 310.396 435.64 317.725 437.068 322.72 C 446.307 355.033 456.557 387.045 466.619 419.114 L 379.416 446.824 L 377.517 446.163 C 374.542 439.981 368.556 419.004 365.945 410.781 C 357.749 384.965 349.37 358.978 342.206 332.877 C 370.063 322.87 401.14 314.522 429.56 306.035 z" fill="rgb(48,162,123)" transform="translate(0,0)"></path>
<path d="M 406.453 233.026 C 408.177 232.869 407.214 232.768 409.263 233.766 C 415.495 248.976 423.686 279.223 429.419 296.336 C 404.53 305.48 366.882 315.808 340.693 323.969 L 339.29 323.983 C 336.284 321.542 319.722 268.359 317.213 260.701 C 341.071 251.52 381.188 240.482 406.453 233.026 z" fill="rgb(48,162,123)" transform="translate(0,0)"></path>
<path d="M 305.477 263.963 L 306.682 264.227 C 310.84 268.821 326.132 317.15 329.373 326.847 C 301.828 336.28 271.303 346.563 243.214 354.136 L 240.593 354.735 C 235.984 351.528 222.652 301.765 220.041 292.925 C 248.401 282.926 276.882 273.271 305.477 263.963 z" fill="rgb(48,162,123)" transform="translate(0,0)"></path>
<path d="M 249.761 211.022 C 269.972 208.762 293.647 231.17 301.778 247.989 L 301.121 248.662 L 293.663 247.84 C 282.027 245.464 270.366 243.065 258.799 240.427 C 240.411 236.234 229.82 224.019 249.761 211.022 z" fill="rgb(247,247,247)" transform="translate(0,0)"></path>
<path d="M 336.285 183.091 C 376.094 181.516 331.599 226.346 322.488 237.423 C 320.672 239.876 316.631 244.043 314.435 246.456 C 314.032 225.617 314.63 193.024 336.285 183.091 z" fill="rgb(247,247,247)" transform="translate(0,0)"></path>
<path d="M 1790.29 653.211 C 1825.31 650.097 1844.98 670.368 1852.35 702.787 C 1858.85 701.528 1868.06 700.157 1874.57 701.05 C 1920.89 707.404 1945.95 761.073 1904.48 793.58 L 1905.6 794.254 C 1916.83 801.112 1924.94 808.795 1928.35 822.101 C 1931.82 833.928 1925.27 844.941 1918.81 854.857 C 1893.52 893.689 1866.73 931.875 1841 970.444 C 1833.15 982.087 1825.44 993.817 1817.86 1005.63 C 1813.56 1012.4 1809.42 1019.21 1804.98 1025.88 C 1783.44 1058.27 1753.83 1030.96 1731.02 1015.83 C 1726.69 1013.21 1722.05 1009.87 1717.82 1006.99 C 1670.46 974.685 1621.92 943.383 1575.09 910.359 C 1563.2 901.974 1555.4 888.321 1563.37 875.126 C 1572.56 859.929 1584.69 844.263 1594.6 829.296 C 1620.04 790.123 1646.34 751.514 1673.48 713.497 C 1696.79 681.42 1703.7 658.035 1743.62 692.447 C 1756.5 669.343 1763.29 659.411 1790.29 653.211 z" fill="rgb(247,247,247)" transform="translate(0,0)"></path>
<path d="M 1791.35 685.123 C 1829.94 684.315 1822.29 734.563 1817.23 758.88 C 1833.07 745.264 1863.1 727.693 1884.47 740.965 C 1890.96 745.003 1895.41 755.645 1890.91 762.568 C 1878.52 781.611 1843.26 781.153 1822.72 782.952 C 1847.84 800.164 1870.1 813.579 1896.31 828.922 C 1887.33 838.329 1863.32 877.798 1854.27 891.751 L 1778.86 1005.71 C 1768.88 1001.51 1760.43 995.425 1751.53 989.379 C 1727.2 972.613 1701.49 956.533 1676.73 940.231 C 1650.59 923.02 1622.33 901.884 1595.72 886.09 C 1607.3 867.383 1621.56 847.732 1633.95 829.324 C 1661.31 788.331 1689.4 747.834 1718.22 707.852 C 1742.28 725.392 1765.71 739.398 1789.57 758.345 C 1779.21 736.048 1760.58 699.201 1791.35 685.123 z" fill="rgb(1,1,1)" transform="translate(0,0)"></path>
<path d="M 1678.57 779.41 C 1707.38 796.779 1733.39 817.49 1761.63 835.869 C 1737.95 867.177 1712.76 905.921 1691.42 939.228 C 1664.74 918.959 1636.43 901.744 1608.25 883.629 C 1616.01 869.606 1629.17 852.132 1638.59 838.615 C 1652.07 818.985 1665.4 799.25 1678.57 779.41 z" fill="rgb(48,162,123)" transform="translate(0,0)"></path>
<path d="M 1769.1 840.094 C 1793.2 857.468 1820.25 872.994 1843.64 890.974 C 1833.07 908.334 1819.45 927.383 1808.12 944.672 C 1799.35 958.052 1784.84 983.131 1775.43 994.282 L 1699.35 943.613 C 1720.29 910.666 1746.58 871.931 1769.1 840.094 z" fill="rgb(48,162,123)" transform="translate(0,0)"></path>
<path d="M 1720.03 719.944 C 1743.38 737.802 1775.79 759.548 1800.45 776.857 C 1790.92 793.027 1778 813.576 1766.45 828.206 C 1739.01 809.505 1711.73 790.572 1684.62 771.41 C 1696.51 754.315 1708.31 737.16 1720.03 719.944 z" fill="rgb(48,162,123)" transform="translate(0,0)"></path>
<path d="M 1806.34 785.507 C 1818.32 791.139 1828.1 798.074 1839.25 805.159 C 1853.52 814.195 1867.83 823.158 1882.2 832.048 C 1871.39 847.601 1859.58 867.075 1848.98 883.341 C 1846.76 882.429 1829.67 870.304 1826.31 868.024 L 1773.89 833.091 C 1784.93 817.384 1795.75 801.521 1806.34 785.507 z" fill="rgb(48,162,123)" transform="translate(0,0)"></path>
<path d="M 1793.93 693.765 C 1822.33 698.251 1810.93 759.259 1804.05 764.008 L 1803.55 763.231 C 1793.37 747.143 1771.07 707.267 1793.93 693.765 z" fill="rgb(247,247,247)" transform="translate(0,0)"></path>
<path d="M 1863.08 745.156 C 1869.5 744.738 1880.65 745.676 1883.19 752.639 C 1883.43 769.17 1850.98 770.674 1839.24 771.766 C 1831.38 772.505 1824.22 772.88 1816.33 773.217 C 1829.56 758.319 1844.01 750.35 1863.08 745.156 z" fill="rgb(247,247,247)" transform="translate(0,0)"></path>
<path d="M 271.093 653.191 C 298.247 651.459 323.773 665.514 329.703 693.597 C 341.459 686.365 354.276 676.644 368.955 679.449 C 386.39 682.781 392.159 702.306 400.421 716.591 L 442.475 789.678 C 461.175 822.14 480.557 856.361 497.8 889.704 C 502.739 899.255 498.621 915.834 490.295 922.661 C 480.341 930.805 468.376 936.52 457.169 942.818 C 416.726 965.545 377.038 989.313 336.5 1011.9 C 323.594 1018.63 311.358 1026.47 298.966 1034.17 C 281.952 1044.73 263.587 1048.35 251.667 1028.51 C 240.039 1009.16 230.247 988.589 219.215 968.843 L 170.892 881.567 C 162.633 866.634 153.961 851.831 145.945 836.761 C 134.044 814.387 141.315 801.045 162.775 790.649 C 136.876 764.104 142.86 731.517 169.748 708.256 C 185.046 695.022 204.105 693.85 223.578 695.987 C 235.254 671.327 243.15 659.586 271.093 653.191 z" fill="rgb(247,247,247)" transform="translate(0,0)"></path>
<path d="M 274.419 685.087 C 299.525 684.066 303.673 706.593 295.058 725.667 C 288.565 740.044 279.735 752.177 270.433 764.741 L 360.767 712.505 C 367.21 725.961 376.294 740.448 383.753 753.747 C 401.645 785.676 419.878 817.412 438.449 848.95 C 446.531 862.868 460.797 885.995 466.816 899.61 C 458.581 905.307 437.489 916.29 427.803 921.917 L 324.167 981.758 C 314.443 987.18 287.287 1004.92 278.901 1007.32 C 274.558 1003.83 263.438 981.875 259.844 975.451 L 206.473 878.065 C 197.634 861.974 184.816 837.761 174.81 822.99 L 173.737 821.42 C 199.909 805.925 225.307 792.728 251.306 776.264 C 235.793 776.185 192.968 773.244 182.473 762.894 C 168.032 748.652 192.489 725.02 211.12 728.205 C 230.692 731.55 238.039 738.461 250.205 752.005 C 249.284 729.263 248.652 694.388 274.419 685.087 z" fill="rgb(1,1,1)" transform="translate(0,0)"></path>
<path d="M 394.411 792.075 C 397.155 795.092 413.194 823.854 416.157 829.056 L 454.589 895.616 C 426.066 911.543 397.763 927.861 369.688 944.564 C 350.112 914.481 327.677 871.216 309.518 838.947 C 336.078 823.415 367.153 807.335 394.411 792.075 z" fill="rgb(48,162,123)" transform="translate(0,0)"></path>
<path d="M 300.247 843.856 C 303.233 845.285 354.251 936.536 361.362 948.948 C 336.481 963.129 308.332 980.617 283.457 995.406 C 282.463 995.829 283.19 995.571 281.164 995.738 C 277.872 991.431 267.61 971.093 264.001 964.511 L 222.255 888.412 C 247.149 875.898 276.784 858.736 300.247 843.856 z" fill="rgb(48,162,123)" transform="translate(0,0)"></path>
<path d="M 357.136 725.886 C 360.236 727.973 385.607 775.789 389.722 783.14 C 361.47 798.761 333.714 815.379 304.957 831.149 C 294.018 814.465 283.06 792.723 271.877 774.801 C 300.376 759.811 327.705 741.371 357.136 725.886 z" fill="rgb(48,162,123)" transform="translate(0,0)"></path>
<path d="M 262.523 779.878 C 266.777 781.893 292.815 827.948 297.259 835.795 C 274.7 850.454 244.477 865.928 220.296 878.577 L 219.225 878.875 C 215.191 876.904 191.021 832.445 186.819 824.713 C 210.965 809.069 237.591 796.426 262.523 779.878 z" fill="rgb(48,162,123)" transform="translate(0,0)"></path>
<path d="M 272.731 694.85 C 279.903 693.98 289.257 695.847 289.866 704.588 C 291.07 721.877 277.821 739.415 268.473 752.836 L 262.811 761.876 C 257.699 740.197 256.109 712.23 272.731 694.85 z" fill="rgb(247,247,247)" transform="translate(0,0)"></path>
<path d="M 203.274 737.143 C 224.852 736.184 239.556 752.79 253.113 767.047 C 247.632 767.233 241.61 767.05 236.085 766.996 C 223.579 765.365 199.992 763.848 189.866 756.655 C 180.279 749.845 197.361 739.777 203.274 737.143 z" fill="rgb(247,247,247)" transform="translate(0,0)"></path>
<path d="M 1728.21 143.302 C 1734.86 142.66 1741.57 143.148 1748.06 144.744 C 1767.32 149.435 1778.04 161.517 1787.6 177.549 C 1788.73 177.108 1789.86 176.675 1791 176.249 C 1824.26 163.84 1856.56 175.766 1869.83 210.788 C 1876.02 227.128 1871.4 242.148 1863.57 257.118 C 1890.11 265.054 1897.63 283.736 1889.16 308.948 C 1880.6 334.402 1870.43 359.256 1861.85 384.626 L 1837.98 455.147 C 1829.77 480.103 1821.37 525.331 1788.97 523.323 C 1778.95 522.702 1755.71 513.102 1744.81 509.422 L 1627.85 467.623 C 1599.16 457.161 1549.27 447.697 1553.54 408.511 C 1554.18 402.731 1562.58 383.231 1564.93 376.993 L 1588.95 312.288 L 1615.82 238.447 C 1629.29 202.435 1631.46 177.182 1677.69 188.871 C 1687.16 162.241 1698.81 148.002 1728.21 143.302 z" fill="rgb(247,247,247)" transform="translate(0,0)"></path>
<path d="M 1730.2 174.176 C 1760.83 173.044 1766.56 212.162 1769.23 235.327 C 1780.45 220.153 1807.18 196.342 1827.37 206.97 C 1833.32 210.101 1837.72 215.552 1839.51 222.033 C 1847.77 251.602 1799.79 256.939 1779.69 261.852 C 1797.71 268.184 1844.77 282.865 1859.95 290.469 C 1850.9 313.344 1844.06 335.168 1836.12 358.369 L 1810.08 432.828 C 1807.43 440.606 1794.65 483.286 1789.33 487.485 C 1785.25 490.702 1757.61 479.075 1750.28 476.302 C 1705.5 459.414 1659.98 444.854 1615.1 428.24 C 1608.69 425.868 1590.85 420.284 1587.94 414.722 C 1588.51 403.156 1602.01 372.406 1606.38 359.553 C 1622.26 312.935 1643.41 264.72 1658.12 217.947 C 1667.77 220.219 1684 226.632 1693.87 230.261 L 1747.72 249.82 C 1731.23 230.5 1687.29 190.427 1730.2 174.176 z" fill="rgb(1,1,1)" transform="translate(0,0)"></path>
<path d="M 1637.54 300.374 C 1665.44 311.289 1699.36 322.754 1727.98 332.045 C 1714.33 364.949 1698.5 410.594 1686.8 444.466 C 1656.51 434.06 1626.38 423.189 1596.43 411.857 C 1610.69 374.904 1624.39 337.739 1637.54 300.374 z" fill="rgb(48,162,123)" transform="translate(0,0)"></path>
<path d="M 1736.26 335.199 C 1765.36 345.732 1795.31 355.005 1823.95 366.696 C 1819.81 378.634 1787.64 476.2 1783.8 479.264 C 1755.65 467.697 1723.12 457.361 1694.14 446.302 C 1708.92 413.616 1723.32 369.565 1736.26 335.199 z" fill="rgb(48,162,123)" transform="translate(0,0)"></path>
<path d="M 1664.74 229.603 C 1693.09 238.427 1725.88 251.406 1753.92 261.884 C 1749.8 274.452 1735.85 313.515 1730.22 323.82 C 1718.72 320.779 1700.05 313.371 1688.3 309.298 C 1673.47 304.156 1654.84 298.186 1640.95 292.078 C 1649.43 271.493 1656.02 250.012 1664.74 229.603 z" fill="rgb(48,162,123)" transform="translate(0,0)"></path>
<path d="M 1762.61 265.332 C 1769.54 266.716 1784.02 272.538 1791.17 275.111 C 1810.3 281.868 1829.34 288.85 1848.3 296.057 C 1840.25 316.744 1834.03 337.343 1826.25 357.887 C 1797.33 347.042 1768.16 336.87 1738.76 327.38 C 1747.12 306.795 1754.2 285.792 1762.61 265.332 z" fill="rgb(48,162,123)" transform="translate(0,0)"></path>
<path d="M 1733.32 182.866 C 1734.18 182.96 1735.04 183.082 1735.89 183.231 C 1755.12 186.685 1762.24 232.937 1758.71 248.416 L 1757.4 248.71 L 1753.23 243.239 C 1744.15 231.354 1733.33 220.021 1725.19 207.636 C 1717.54 195.997 1722.14 188.337 1733.32 182.866 z" fill="rgb(247,247,247)" transform="translate(0,0)"></path>
<path d="M 1814.99 212.999 C 1825.9 213.409 1835.59 225.245 1829.94 233.672 C 1823.32 243.554 1794.89 247.695 1784.23 250.045 C 1779.21 250.912 1773.65 251.513 1768.56 252.175 C 1779.03 235.581 1795.81 218.888 1814.99 212.999 z" fill="rgb(247,247,247)" transform="translate(0,0)"></path>
<path d="M 1738.11 1177.15 C 1739.47 1177.04 1740.84 1176.96 1742.2 1176.9 C 1768.64 1175.86 1778.89 1187.9 1796.58 1204.47 C 1845.95 1178.6 1899.61 1221.27 1880.23 1275.8 C 1912.81 1285.28 1915.89 1302.44 1909.05 1332.57 C 1895.86 1390.35 1884.26 1448.42 1871.93 1506.38 C 1869.38 1520.64 1865.49 1536.7 1852.08 1544.9 C 1834.57 1555.6 1803.69 1542.85 1784.41 1538.17 L 1676.06 1513.59 C 1656.48 1509.22 1636.93 1505.1 1617.53 1499.97 C 1600.76 1495.53 1587.43 1479.17 1590.39 1461.47 C 1594.77 1435.35 1602.9 1409.59 1609.01 1383.86 L 1628.44 1300.92 C 1637.59 1262.96 1638.72 1224.46 1688.48 1231.76 C 1695.25 1201.16 1706.69 1185.46 1738.11 1177.15 z" fill="rgb(247,247,247)" transform="translate(0,0)"></path>
<path d="M 1745.12 1208.28 C 1773.15 1212.35 1776.67 1246.36 1780.74 1268.92 C 1790.87 1250.47 1813.68 1221.19 1837.97 1232.89 C 1843.53 1235.59 1847.76 1240.43 1849.68 1246.31 C 1851.61 1251.92 1851.03 1258.08 1848.1 1263.24 C 1839.71 1277.68 1805.39 1283.76 1789.23 1287.87 C 1802.05 1290.47 1872.09 1306.39 1879.4 1310.58 C 1879.61 1323.78 1873.71 1344 1870.7 1357.56 L 1857.59 1417.61 C 1851.48 1445.51 1843.63 1489.78 1836.12 1515.69 C 1824.71 1513.42 1812.46 1510.14 1801.09 1507.34 C 1793.65 1505.95 1783.1 1502.92 1775.3 1501.12 L 1700.29 1483.51 C 1681.83 1479.17 1641.51 1471.22 1625.91 1465.69 C 1625.76 1465.36 1625.58 1465.04 1625.48 1464.69 C 1623.91 1459.2 1664.17 1295.63 1668.97 1278.5 C 1670.39 1273.46 1672.07 1268.67 1674.25 1263.91 C 1681.01 1262.08 1756.72 1281.28 1769.19 1284.15 C 1749.69 1269.83 1691.2 1222.08 1745.12 1208.28 z" fill="rgb(1,1,1)" transform="translate(0,0)"></path>
<path d="M 1762.56 1366.57 C 1786.24 1372.19 1833.45 1383.65 1855.56 1386.48 C 1845.63 1424.25 1838.41 1467.26 1829.44 1505.83 C 1799.52 1499.44 1767.94 1489.29 1736.28 1482.33 C 1745.57 1447.94 1755.04 1401.71 1762.56 1366.57 z" fill="rgb(48,162,123)" transform="translate(0,0)"></path>
<path d="M 1662.96 1342.6 C 1693.29 1350.59 1723.77 1358.01 1754.39 1364.84 C 1746.49 1398.6 1737.41 1449.21 1727.69 1480.58 C 1700.72 1472.5 1662.31 1464.61 1634.39 1458.34 C 1644.39 1419.88 1653.91 1381.3 1662.96 1342.6 z" fill="rgb(48,162,123)" transform="translate(0,0)"></path>
<path d="M 1778.99 1293.6 C 1809.62 1302.02 1840.42 1309.81 1871.37 1316.98 C 1866.1 1336.51 1861.14 1358.86 1856.79 1378.55 C 1827.51 1372.67 1794.08 1364.38 1764.86 1357.54 C 1770.24 1336.68 1774.58 1314.74 1778.99 1293.6 z" fill="rgb(57,139,225)" transform="translate(0,0)"></path>
<path d="M 1679.57 1272.61 C 1707.12 1279.43 1741.67 1287.56 1769.32 1292.58 C 1767.65 1302.34 1759.39 1350.2 1755.72 1356.01 C 1725.32 1349.05 1695.01 1341.72 1664.79 1334.02 C 1669.99 1314.39 1674.78 1292.52 1679.57 1272.61 z" fill="rgb(57,139,225)" transform="translate(0,0)"></path>
<path d="M 1824.7 1238.98 C 1837.02 1238.9 1844.98 1247.44 1840.02 1258.41 C 1835.82 1267.69 1807.28 1274.19 1798.23 1276.86 C 1793.88 1278.27 1788.27 1279.6 1783.76 1280.81 C 1792.7 1260.8 1804.15 1247.09 1824.7 1238.98 z" fill="rgb(247,247,247)" transform="translate(0,0)"></path>
<path d="M 1746.54 1218.16 C 1766.52 1221.35 1769.95 1259.44 1771.15 1275.43 L 1762.38 1267.74 C 1750.55 1257.34 1711.03 1226.04 1746.54 1218.16 z" fill="rgb(247,247,247)" transform="translate(0,0)"></path>
<metadata><recraft-signature>{"signed_by": "recraft", "signature_b64": "frNoq9eex0DubsHJQOhmMBrReRIPXLFOcCOmQXX/uPzKFzCV4Kei/rzO2fOfGdeRwOx2MXc+1FhFTeJ/Cu+sCg==", "signing_algo": "Ed25519", "generation_timestamp": 1783498261, "identifier": "dbbf49d5-f949-4b62-846f-a7c71c960471"}</recraft-signature></metadata></svg>