<svg xmlns="http://www.w3.org/2000/svg" height="1024" preserveAspectRatio="none" style="display: block;" version="1.1" viewBox="0 0 2048 2048" width="1024">
<defs>
	<linearGradient gradientUnits="userSpaceOnUse" id="Gradient1" x1="798.351" x2="920.443" y1="968.271" y2="1273.81">
		<stop class="stop0" offset="0" stop-color="rgb(153,198,183)" stop-opacity="1"></stop>
		<stop class="stop1" offset="1" stop-color="rgb(216,218,209)" stop-opacity="1"></stop>
	</linearGradient>
	<linearGradient gradientUnits="userSpaceOnUse" id="Gradient2" x1="978.468" x2="569.704" y1="1037.66" y2="1509.76">
		<stop class="stop0" offset="0" stop-color="rgb(111,79,62)" stop-opacity="1"></stop>
		<stop class="stop1" offset="1" stop-color="rgb(4,66,74)" stop-opacity="1"></stop>
	</linearGradient>
	<linearGradient gradientUnits="userSpaceOnUse" id="Gradient3" x1="757.34" x2="738.104" y1="900.584" y2="577.273">
		<stop class="stop0" offset="0" stop-color="rgb(3,95,74)" stop-opacity="1"></stop>
		<stop class="stop1" offset="1" stop-color="rgb(4,134,93)" stop-opacity="1"></stop>
	</linearGradient>
	<linearGradient gradientUnits="userSpaceOnUse" id="Gradient4" x1="239.757" x2="665.893" y1="664.219" y2="729.399">
		<stop class="stop0" offset="0" stop-color="rgb(3,70,62)" stop-opacity="1"></stop>
		<stop class="stop1" offset="1" stop-color="rgb(5,156,89)" stop-opacity="1"></stop>
	</linearGradient>
	<linearGradient gradientUnits="userSpaceOnUse" id="Gradient5" x1="1229.91" x2="1451.28" y1="440.297" y2="539.104">
		<stop class="stop0" offset="0" stop-color="rgb(38,169,109)" stop-opacity="1"></stop>
		<stop class="stop1" offset="1" stop-color="rgb(110,207,153)" stop-opacity="1"></stop>
	</linearGradient>
	<linearGradient gradientUnits="userSpaceOnUse" id="Gradient6" x1="584.033" x2="835.066" y1="538.524" y2="484.936">
		<stop class="stop0" offset="0" stop-color="rgb(2,100,62)" stop-opacity="1"></stop>
		<stop class="stop1" offset="1" stop-color="rgb(5,181,105)" stop-opacity="1"></stop>
	</linearGradient>
	<linearGradient gradientUnits="userSpaceOnUse" id="Gradient7" x1="852.915" x2="1175.71" y1="594.543" y2="294.199">
		<stop class="stop0" offset="0" stop-color="rgb(2,120,68)" stop-opacity="1"></stop>
		<stop class="stop1" offset="1" stop-color="rgb(8,205,131)" stop-opacity="1"></stop>
	</linearGradient>
	<linearGradient gradientUnits="userSpaceOnUse" id="Gradient8" x1="1182.76" x2="1142.24" y1="1266.96" y2="1167.04">
		<stop class="stop0" offset="0" stop-color="rgb(101,74,69)" stop-opacity="1"></stop>
		<stop class="stop1" offset="1" stop-color="rgb(139,107,88)" stop-opacity="1"></stop>
	</linearGradient>
	<linearGradient gradientUnits="userSpaceOnUse" id="Gradient9" x1="1130.61" x2="1180.58" y1="609.946" y2="714.041">
		<stop class="stop0" offset="0" stop-color="rgb(9,65,67)" stop-opacity="1"></stop>
		<stop class="stop1" offset="1" stop-color="rgb(0,115,94)" stop-opacity="1"></stop>
	</linearGradient>
	<linearGradient gradientUnits="userSpaceOnUse" id="Gradient10" x1="1433.52" x2="1487.55" y1="921.379" y2="950.656">
		<stop class="stop0" offset="0" stop-color="rgb(153,104,86)" stop-opacity="1"></stop>
		<stop class="stop1" offset="1" stop-color="rgb(194,149,109)" stop-opacity="1"></stop>
	</linearGradient>
	<linearGradient gradientUnits="userSpaceOnUse" id="Gradient11" x1="877.563" x2="970.519" y1="878.919" y2="842.776">
		<stop class="stop0" offset="0" stop-color="rgb(131,87,61)" stop-opacity="1"></stop>
		<stop class="stop1" offset="1" stop-color="rgb(154,112,95)" stop-opacity="1"></stop>
	</linearGradient>
	<linearGradient gradientUnits="userSpaceOnUse" id="Gradient12" x1="1425.25" x2="1669.2" y1="579.314" y2="632.793">
		<stop class="stop0" offset="0" stop-color="rgb(4,177,110)" stop-opacity="1"></stop>
		<stop class="stop1" offset="1" stop-color="rgb(15,225,160)" stop-opacity="1"></stop>
	</linearGradient>
	<linearGradient gradientUnits="userSpaceOnUse" id="Gradient13" x1="1314.66" x2="1311.21" y1="755.159" y2="805.81">
		<stop class="stop0" offset="0" stop-color="rgb(187,161,117)" stop-opacity="1"></stop>
		<stop class="stop1" offset="1" stop-color="rgb(229,198,133)" stop-opacity="1"></stop>
	</linearGradient>
	<linearGradient gradientUnits="userSpaceOnUse" id="Gradient14" x1="1177.5" x2="1379.72" y1="1845.62" y2="1664.96">
		<stop class="stop0" offset="0" stop-color="rgb(209,103,19)" stop-opacity="1"></stop>
		<stop class="stop1" offset="1" stop-color="rgb(255,238,101)" stop-opacity="1"></stop>
	</linearGradient>
	<linearGradient gradientUnits="userSpaceOnUse" id="Gradient15" x1="1174.98" x2="1372.28" y1="1801.9" y2="1706.31">
		<stop class="stop0" offset="0" stop-color="rgb(219,124,39)" stop-opacity="1"></stop>
		<stop class="stop1" offset="1" stop-color="rgb(255,219,79)" stop-opacity="1"></stop>
	</linearGradient>
	<linearGradient gradientUnits="userSpaceOnUse" id="Gradient16" x1="1613.63" x2="1817.85" y1="756.334" y2="852.252">
		<stop class="stop0" offset="0" stop-color="rgb(0,158,98)" stop-opacity="1"></stop>
		<stop class="stop1" offset="1" stop-color="rgb(84,204,135)" stop-opacity="1"></stop>
	</linearGradient>
	<linearGradient gradientUnits="userSpaceOnUse" id="Gradient17" x1="1179.93" x2="1773.9" y1="627.732" y2="1676.64">
		<stop class="stop0" offset="0" stop-color="rgb(180,218,207)" stop-opacity="1"></stop>
		<stop class="stop1" offset="1" stop-color="rgb(255,246,227)" stop-opacity="1"></stop>
	</linearGradient>
	<linearGradient gradientUnits="userSpaceOnUse" id="Gradient18" x1="469.158" x2="1353.91" y1="309.584" y2="1466.11">
		<stop class="stop0" offset="0" stop-color="rgb(44,153,131)" stop-opacity="1"></stop>
		<stop class="stop1" offset="1" stop-color="rgb(255,255,239)" stop-opacity="1"></stop>
	</linearGradient>
</defs>
<path d="M 0 0 L 2048 0 L 2048 2048 L 0 2048 L 0 0 z" fill="rgb(255,255,255)" transform="translate(0,0)"></path>
<path d="M 988.668 85.927 C 1006.89 83.0013 1059.72 85.5206 1079.24 86.7382 C 1219.5 95.2121 1355.97 135.677 1478.18 205.035 C 1501.74 218.194 1541.54 241.731 1562.46 257.452 C 1580.72 271.168 1659.1 331.003 1670.11 346.352 C 1687.46 363.068 1713.89 389.409 1728.8 407.576 C 1743.73 421.902 1776.61 465.412 1789.04 482.602 C 1895.65 629.681 1955.2 805.605 1959.85 987.198 C 1960.97 1045.57 1959.56 1097.96 1951.91 1156.07 C 1925.3 1354.93 1835.04 1539.84 1694.63 1683.15 C 1659.71 1719.32 1615.65 1756.6 1575.98 1787.69 C 1571.88 1790.91 1552.14 1805.6 1548.17 1807.52 C 1541.06 1806.58 1515.13 1807.19 1506.89 1807.21 C 1477.23 1807.15 1447.58 1807.37 1417.93 1807.85 C 1405.25 1808.34 1390.49 1808.07 1377.64 1808.15 C 1376.58 1808.52 1182.6 1809.37 1171.09 1808.25 L 1170.27 1808.24 C 1166.16 1808.74 1145.95 1809.23 1142.85 1806.88 C 1137.13 1810.79 1066.07 1807.39 1054.36 1808.52 C 1051.91 1808.75 1042.74 1808.36 1040.24 1807.93 C 1008.28 1806.76 973.39 1810.12 940.981 1809.41 C 933.281 1809.24 914.096 1810.71 908.232 1808.97 C 888.065 1807.5 858.433 1809.13 837.365 1808.74 C 825.685 1808.52 794.92 1807.96 784.214 1808.91 C 728.249 1806.91 665.329 1809.07 608.794 1808.89 L 538.226 1808.47 C 531.852 1808.49 511.415 1808.44 506.07 1809.53 C 502.25 1806.52 497.759 1803.43 493.679 1800.69 C 468.232 1783.61 444.805 1764.6 421.298 1744.93 C 362.114 1694.52 309.366 1637 264.249 1573.69 C 251.605 1556.27 238.231 1538.1 227.907 1519.2 C 208.106 1489.6 189.526 1450.26 174.105 1418.27 C 47.0664 1154.79 55.4687 827.572 202.432 572.76 C 211.937 556.445 221.85 540.371 232.163 524.554 C 237.069 516.877 245.524 503.066 251.214 496.518 C 259.651 482.804 272.608 467.316 282.58 454.597 C 449.071 242.25 714.76 92.7161 988.668 85.927 z" fill="url(#Gradient18)" transform="translate(0,0)"></path>
<path d="M 1670.11 346.352 C 1687.46 363.068 1713.89 389.409 1728.8 407.576 C 1743.73 421.902 1776.61 465.412 1789.04 482.602 C 1895.65 629.681 1955.2 805.605 1959.85 987.198 C 1960.97 1045.57 1959.56 1097.96 1951.91 1156.07 C 1925.3 1354.93 1835.04 1539.84 1694.63 1683.15 C 1659.71 1719.32 1615.65 1756.6 1575.98 1787.69 C 1571.88 1790.91 1552.14 1805.6 1548.17 1807.52 C 1541.06 1806.58 1515.13 1807.19 1506.89 1807.21 C 1477.23 1807.15 1447.58 1807.37 1417.93 1807.85 C 1405.25 1808.34 1390.49 1808.07 1377.64 1808.15 C 1376.58 1808.52 1182.6 1809.37 1171.09 1808.25 L 1170.27 1808.24 C 1166.16 1808.74 1145.95 1809.23 1142.85 1806.88 L 1138.52 1791.22 C 1122.54 1744.53 1110.07 1689.34 1102.69 1640.63 C 1102.94 1637.58 1101.37 1624.83 1100.97 1621.16 C 1099.32 1606.28 1097.33 1591.7 1096.32 1576.71 C 1091.74 1508.79 1095.22 1437.78 1116.53 1372.68 C 1118.04 1369.58 1119.87 1363.64 1121.23 1360.09 C 1158.14 1263.38 1236.23 1172.34 1311.3 1102.78 C 1335.43 1080.43 1362.96 1053.54 1392.95 1039.68 C 1398.33 1036.75 1403.6 1033.68 1408.81 1030.46 C 1440.97 1010.55 1474.35 992.03 1506.09 971.492 C 1512.2 969.389 1538.36 954.454 1545.23 950.665 C 1574.19 934.7 1601.86 918.393 1632.23 904.946 C 1635.77 902.902 1642.2 900.228 1646.1 898.46 C 1636.23 896.987 1630.44 902.735 1618.14 898.776 L 1618.07 897.918 C 1604.75 893.008 1581.81 883.131 1571.63 872.819 C 1570.45 868.377 1566.57 865.754 1563.06 862.594 C 1630 835.589 1702.55 788.946 1693.81 705.809 C 1701.27 692.242 1699.32 671.307 1698.33 656.066 C 1696.22 651.947 1692.51 640.003 1690.75 635.082 C 1686.22 622.396 1681.94 614.034 1674.68 602.789 C 1669.68 592.285 1656.53 576.969 1648.45 568.569 C 1609.22 527.805 1557 501.409 1503.95 483.4 C 1482.23 477.906 1468.98 472.798 1445.94 468.92 C 1432.07 443.755 1424.12 433.032 1403.74 412.403 L 1403.89 411.31 L 1404.53 410.944 C 1407.39 413.82 1413.85 420.602 1416.73 422.711 C 1418.09 421.662 1418.95 420.966 1420.25 419.795 L 1421.39 418.755 C 1426.56 418.547 1435.81 417.152 1439.08 419.689 C 1448.01 416.341 1460.74 412.566 1470.09 410.747 C 1491.1 406.663 1508.55 395.008 1529.9 392.157 C 1534.22 391.578 1539.29 392.595 1543.68 392.765 C 1551.09 393.017 1558.51 392.872 1565.91 392.33 C 1573.53 391.755 1583.86 385.456 1587.89 385.437 C 1607.59 385.347 1625.76 383.553 1645.12 379.222 C 1653.91 377.258 1651.87 372.186 1655.69 370.03 C 1668.09 363.016 1677.23 364.425 1670.11 346.352 z" fill="url(#Gradient17)" transform="translate(0,0)"></path>
<path d="M 1698.33 656.066 C 1767.43 688.04 1825.78 742.593 1836.04 821.464 C 1837.27 848.703 1835.82 866.689 1825.54 893.043 C 1814.42 896.975 1804.72 903.673 1792.83 907.48 C 1737.42 925.225 1687.19 918.577 1632.23 904.946 C 1635.77 902.902 1642.2 900.228 1646.1 898.46 C 1636.23 896.987 1630.44 902.735 1618.14 898.776 L 1618.07 897.918 C 1604.75 893.008 1581.81 883.131 1571.63 872.819 C 1570.45 868.377 1566.57 865.754 1563.06 862.594 C 1630 835.589 1702.55 788.946 1693.81 705.809 C 1701.27 692.242 1699.32 671.307 1698.33 656.066 z" fill="url(#Gradient16)" transform="translate(0,0)"></path>
<path d="M 1836.04 821.464 C 1837.27 848.703 1835.82 866.689 1825.54 893.043 C 1814.42 896.975 1804.72 903.673 1792.83 907.48 C 1737.42 925.225 1687.19 918.577 1632.23 904.946 C 1635.77 902.902 1642.2 900.228 1646.1 898.46 C 1653.96 897.159 1700.53 875.33 1711.87 870.584 C 1725.64 865.69 1741.38 859.525 1755.05 855.096 C 1786.3 844.98 1807.42 838.471 1836.04 821.464 z" fill="rgb(25,189,125)" transform="translate(0,0)"></path>
<path d="M 1618.07 897.918 C 1637.34 896.018 1701.26 867.099 1711.87 870.584 C 1700.53 875.33 1653.96 897.159 1646.1 898.46 C 1636.23 896.987 1630.44 902.735 1618.14 898.776 L 1618.07 897.918 z" fill="rgb(29,147,99)" transform="translate(0,0)"></path>
<path d="M 1632.23 904.946 C 1687.19 918.577 1737.42 925.225 1792.83 907.48 C 1804.72 903.673 1814.42 896.975 1825.54 893.043 C 1779.58 1000.32 1655.6 1051.14 1546.28 1055.39 C 1490.05 1057.57 1447.45 1050.84 1392.95 1039.68 C 1398.33 1036.75 1403.6 1033.68 1408.81 1030.46 C 1440.97 1010.55 1474.35 992.03 1506.09 971.492 C 1512.2 969.389 1538.36 954.454 1545.23 950.665 C 1574.19 934.7 1601.86 918.393 1632.23 904.946 z" fill="rgb(14,108,84)" transform="translate(0,0)"></path>
<path d="M 1231.55 1667.91 C 1265.25 1655.06 1291.29 1651.34 1325.72 1666.64 C 1328.57 1667.93 1331.4 1669.25 1334.22 1670.6 C 1341.35 1674.01 1348.15 1681.19 1353.12 1683.46 C 1359.8 1690.65 1376.15 1707.2 1379.09 1715.63 C 1379.98 1718.3 1384.81 1732.66 1385.09 1734.86 C 1387.63 1754.82 1390.83 1787.44 1382.93 1805.74 C 1380.87 1807.76 1380.56 1807.5 1377.64 1808.15 C 1376.58 1808.52 1182.6 1809.37 1171.09 1808.25 C 1173.87 1807.94 1174.36 1807.93 1174.46 1807.36 C 1175.21 1803.03 1170.12 1785.95 1169.96 1782.32 C 1168.85 1758.62 1174.22 1739.36 1184.44 1718.35 C 1191.53 1710.11 1195.47 1699.98 1202.96 1690.85 C 1210.5 1681.65 1225.88 1674.4 1231.55 1667.91 z" fill="url(#Gradient15)" transform="translate(0,0)"></path>
<path d="M 1346.68 1692.3 C 1363.26 1697.49 1379.68 1742.03 1380.07 1757.95 C 1380.32 1768.13 1381.68 1792.49 1377.37 1801.12 L 1376.5 1799.84 C 1378.8 1793.63 1378.62 1786.32 1379.56 1779.78 C 1381.67 1765.22 1354.13 1727.78 1350.32 1711.32 C 1349.33 1707.05 1347.52 1701.89 1348.39 1697.52 C 1348.53 1696.85 1348.71 1696.2 1348.87 1695.53 L 1346.68 1692.3 z" fill="rgb(255,216,79)" transform="translate(0,0)"></path>
<path d="M 1670.11 346.352 C 1687.46 363.068 1713.89 389.409 1728.8 407.576 L 1725.55 407.082 C 1726.47 416.504 1711.71 428.574 1704.08 431.071 C 1664.05 444.169 1622.36 452.669 1581.96 464.845 C 1577.52 466.185 1570.88 466.091 1566.23 467.059 C 1551.73 471.26 1533.94 467.376 1520.47 468.919 C 1500.76 471.174 1483.55 465.45 1465.53 466.646 L 1464.3 468.677 L 1463.85 468.486 L 1463.5 468.584 C 1472.32 473.692 1502.76 479.054 1503.95 483.4 C 1482.23 477.906 1468.98 472.798 1445.94 468.92 C 1432.07 443.755 1424.12 433.032 1403.74 412.403 L 1403.89 411.31 L 1404.53 410.944 C 1407.39 413.82 1413.85 420.602 1416.73 422.711 C 1418.09 421.662 1418.95 420.966 1420.25 419.795 L 1421.39 418.755 C 1426.56 418.547 1435.81 417.152 1439.08 419.689 C 1448.01 416.341 1460.74 412.566 1470.09 410.747 C 1491.1 406.663 1508.55 395.008 1529.9 392.157 C 1534.22 391.578 1539.29 392.595 1543.68 392.765 C 1551.09 393.017 1558.51 392.872 1565.91 392.33 C 1573.53 391.755 1583.86 385.456 1587.89 385.437 C 1607.59 385.347 1625.76 383.553 1645.12 379.222 C 1653.91 377.258 1651.87 372.186 1655.69 370.03 C 1668.09 363.016 1677.23 364.425 1670.11 346.352 z" fill="rgb(180,214,197)" transform="translate(0,0)"></path>
<path d="M 1225.78 1637.7 C 1245.12 1627.82 1277.8 1624.98 1298.98 1627.45 C 1345.92 1632.91 1386.62 1661.47 1407.5 1703.68 C 1425.93 1740.93 1425.24 1768.32 1417.93 1807.85 C 1405.25 1808.34 1390.49 1808.07 1377.64 1808.15 C 1380.56 1807.5 1380.87 1807.76 1382.93 1805.74 C 1390.83 1787.44 1387.63 1754.82 1385.09 1734.86 C 1384.81 1732.66 1379.98 1718.3 1379.09 1715.63 C 1376.15 1707.2 1359.8 1690.65 1353.12 1683.46 C 1348.15 1681.19 1341.35 1674.01 1334.22 1670.6 C 1331.4 1669.25 1328.57 1667.93 1325.72 1666.64 C 1291.29 1651.34 1265.25 1655.06 1231.55 1667.91 C 1225.88 1674.4 1210.5 1681.65 1202.96 1690.85 C 1195.47 1699.98 1191.53 1710.11 1184.44 1718.35 C 1174.22 1739.36 1168.85 1758.62 1169.96 1782.32 C 1170.12 1785.95 1175.21 1803.03 1174.46 1807.36 C 1174.36 1807.93 1173.87 1807.94 1171.09 1808.25 L 1170.27 1808.24 C 1166.16 1808.74 1145.95 1809.23 1142.85 1806.88 L 1138.52 1791.22 C 1138.82 1786.1 1138.49 1777.41 1138.19 1772 C 1135.14 1715.97 1172.2 1658.06 1225.78 1637.7 z" fill="url(#Gradient14)" transform="translate(0,0)"></path>
<path d="M 1353.12 1683.46 C 1348.93 1675.48 1341.67 1666.52 1341.73 1658.33 C 1343.5 1655.17 1342.24 1656.24 1345.63 1655 C 1361.98 1656.65 1395.47 1691 1395.37 1709.36 C 1395.33 1716.26 1386.38 1719.89 1379.09 1715.63 C 1376.15 1707.2 1359.8 1690.65 1353.12 1683.46 z" fill="rgb(255,255,255)" transform="translate(0,0)"></path>
<path d="M 1170.27 1808.24 C 1161.78 1783.5 1163.69 1753.4 1172.81 1728.75 C 1173.61 1726.58 1175.8 1722.87 1178.03 1721.92 C 1177.12 1724.34 1177.08 1724.17 1177.32 1726.73 C 1181.55 1726.01 1180.35 1720.11 1184.44 1718.35 C 1174.22 1739.36 1168.85 1758.62 1169.96 1782.32 C 1170.12 1785.95 1175.21 1803.03 1174.46 1807.36 C 1174.36 1807.93 1173.87 1807.94 1171.09 1808.25 L 1170.27 1808.24 z" fill="rgb(255,216,79)" transform="translate(0,0)"></path>
<path d="M 1445.94 468.92 C 1468.98 472.798 1482.23 477.906 1503.95 483.4 C 1557 501.409 1609.22 527.805 1648.45 568.569 C 1656.53 576.969 1669.68 592.285 1674.68 602.789 C 1681.94 614.034 1686.22 622.396 1690.75 635.082 C 1692.51 640.003 1696.22 651.947 1698.33 656.066 C 1699.32 671.307 1701.27 692.242 1693.81 705.809 C 1702.55 788.946 1630 835.589 1563.06 862.594 C 1566.57 865.754 1570.45 868.377 1571.63 872.819 C 1581.81 883.131 1604.75 893.008 1618.07 897.918 L 1618.14 898.776 C 1630.44 902.735 1636.23 896.987 1646.1 898.46 C 1642.2 900.228 1635.77 902.902 1632.23 904.946 C 1601.86 918.393 1574.19 934.7 1545.23 950.665 C 1538.36 954.454 1512.2 969.389 1506.09 971.492 C 1474.35 992.03 1440.97 1010.55 1408.81 1030.46 C 1403.6 1033.68 1398.33 1036.75 1392.95 1039.68 C 1362.96 1053.54 1335.43 1080.43 1311.3 1102.78 C 1236.23 1172.34 1158.14 1263.38 1121.23 1360.09 C 1119.87 1363.64 1118.04 1369.58 1116.53 1372.68 L 1115.47 1371.57 C 1112.33 1378.77 1111.55 1386.13 1108.47 1393.61 C 1106.09 1399.38 1106.2 1407.4 1103.83 1414.15 C 1102.57 1411.45 1102.8 1411.4 1100.36 1409.81 C 1088.02 1416.54 1067.3 1387.99 1054.41 1386.26 C 1043.35 1384.77 1036.91 1374.22 1024.49 1375.99 C 1023.9 1376.08 1021.65 1372.81 1016.51 1373.05 L 1014.54 1375.37 C 1010.52 1361.25 1018 1329 1013.34 1313.39 C 1013.38 1263.01 1013.71 1214.47 1004.7 1164.67 C 1001.26 1145.61 996.783 1128.68 995.955 1109.18 C 995.293 1106.46 994.681 1102.23 994.175 1099.37 L 993.463 1100.34 C 990.954 1095.68 986.539 1036 986.033 1026.76 C 990.743 1002.4 968.56 911.588 960.6 885.93 C 949.712 855.219 925.98 805.621 906.576 779.704 C 901.961 770.748 893.551 759.544 887.752 750.972 C 858.117 707.16 823.516 678.149 783.145 645.385 C 795.297 642.048 804.547 639.541 816.243 634.731 C 819.596 632.567 822.963 630.032 826.218 627.687 C 839.645 615.772 844.577 609.719 853.775 594.256 C 856.897 589.753 858.505 585.961 860.797 581.049 C 867.244 584.275 883.428 591.488 888.404 594.853 C 892.47 596.451 896.549 598.015 900.641 599.545 C 932.983 610.855 947.402 614.875 981.472 619.748 C 987.583 620.62 993.715 621.34 999.862 621.908 C 1010.15 621.914 1020.56 623.297 1030.84 623.442 C 1042.5 623.606 1054.85 622.525 1066.48 621.383 L 1078.61 620.006 C 1106.65 614.526 1119.94 610.003 1146.82 602.249 L 1159.04 597.137 C 1171.57 590.664 1183.32 584.62 1195.23 577.016 C 1197.79 584.453 1204.41 601.523 1209.57 607.187 C 1214.92 617.436 1226.7 633.957 1230.1 641.105 L 1235.22 642.718 C 1238.69 638.597 1245.29 634.936 1249.48 631.716 C 1258.48 624.802 1289.08 603.559 1295.34 595.381 C 1306.22 591.271 1321.14 589.233 1332.77 586.763 C 1377.92 577.167 1425.23 571.497 1456.39 534.025 C 1459.51 522.275 1456.43 502.965 1454.51 491.241 C 1451.77 484.984 1448.86 475.964 1445.94 468.92 z" fill="rgb(179,152,120)" transform="translate(0,0)"></path>
<path d="M 1454.51 491.241 C 1457.39 494.013 1463.48 500.938 1465.91 502.799 C 1471.27 512.069 1481.1 521.362 1487.31 530.596 C 1507.7 560.938 1516.77 595.055 1508.05 631.105 C 1502.05 655.63 1489.36 678.007 1471.39 695.74 C 1470.02 697.079 1452.58 713.499 1452.59 713.492 C 1443.17 720.426 1433.55 727.092 1423.75 733.481 C 1416.99 734.353 1399.95 742.692 1391.57 745.338 C 1369.38 752.341 1353.22 753.408 1330.36 754.711 C 1328.64 764.802 1326.87 776.106 1323.51 785.724 L 1314.31 815.775 L 1312.7 817.359 C 1313.32 813.8 1314.81 809.041 1313.8 805.978 C 1314.83 806.564 1298.75 801.064 1298.17 800.865 C 1293.93 806.989 1281.69 829.017 1276.3 830.532 C 1273.11 833.615 1270.94 836.683 1268.25 840.185 L 1267.53 838.693 C 1247.21 809.151 1173.19 782.978 1140.84 761.97 C 1145.83 754.679 1154.78 741.172 1160.36 734.701 C 1173.95 711.302 1221.93 663.25 1242 643.478 L 1235.22 642.718 C 1238.69 638.597 1245.29 634.936 1249.48 631.716 C 1258.48 624.802 1289.08 603.559 1295.34 595.381 C 1306.22 591.271 1321.14 589.233 1332.77 586.763 C 1377.92 577.167 1425.23 571.497 1456.39 534.025 C 1459.51 522.275 1456.43 502.965 1454.51 491.241 z" fill="rgb(14,108,84)" transform="translate(0,0)"></path>
<path d="M 1160.36 734.701 C 1164.57 733.123 1179.79 712.176 1185.78 706.124 C 1218.85 735.582 1273.54 747.979 1316.46 753.945 L 1330.36 754.711 C 1328.64 764.802 1326.87 776.106 1323.51 785.724 L 1314.31 815.775 L 1312.7 817.359 C 1313.32 813.8 1314.81 809.041 1313.8 805.978 C 1314.83 806.564 1298.75 801.064 1298.17 800.865 C 1293.93 806.989 1281.69 829.017 1276.3 830.532 C 1273.11 833.615 1270.94 836.683 1268.25 840.185 L 1267.53 838.693 C 1247.21 809.151 1173.19 782.978 1140.84 761.97 C 1145.83 754.679 1154.78 741.172 1160.36 734.701 z" fill="rgb(29,147,99)" transform="translate(0,0)"></path>
<path d="M 1316.46 753.945 L 1330.36 754.711 C 1328.64 764.802 1326.87 776.106 1323.51 785.724 L 1314.31 815.775 L 1312.7 817.359 C 1313.32 813.8 1314.81 809.041 1313.8 805.978 C 1314.83 806.564 1298.75 801.064 1298.17 800.865 C 1293.93 806.989 1281.69 829.017 1276.3 830.532 C 1292.61 803.729 1308.06 787.78 1316.46 753.945 z" fill="url(#Gradient13)" transform="translate(0,0)"></path>
<path d="M 1295.34 595.381 C 1306.22 591.271 1321.14 589.233 1332.77 586.763 C 1377.92 577.167 1425.23 571.497 1456.39 534.025 C 1452.91 565.729 1434.92 591.765 1410.63 611.565 C 1370.29 644.452 1319.68 650.392 1269.51 645.605 C 1264.44 645.12 1245 642.478 1242 643.478 L 1235.22 642.718 C 1238.69 638.597 1245.29 634.936 1249.48 631.716 C 1258.48 624.802 1289.08 603.559 1295.34 595.381 z" fill="rgb(25,189,125)" transform="translate(0,0)"></path>
<path d="M 1445.94 468.92 C 1468.98 472.798 1482.23 477.906 1503.95 483.4 C 1557 501.409 1609.22 527.805 1648.45 568.569 C 1656.53 576.969 1669.68 592.285 1674.68 602.789 C 1681.94 614.034 1686.22 622.396 1690.75 635.082 C 1692.51 640.003 1696.22 651.947 1698.33 656.066 C 1699.32 671.307 1701.27 692.242 1693.81 705.809 C 1681.54 717.895 1671.78 727.101 1657.56 737.417 C 1595.02 782.803 1514.18 787.517 1439.61 787.963 C 1420.73 788.076 1405.62 784.291 1389.26 784.51 C 1391.95 781.791 1400.9 773.221 1402.17 770.477 L 1401.58 769.213 C 1407.45 760.304 1450.07 721.311 1452.59 713.492 C 1452.58 713.499 1470.02 697.079 1471.39 695.74 C 1489.36 678.007 1502.05 655.63 1508.05 631.105 C 1516.77 595.055 1507.7 560.938 1487.31 530.596 C 1481.1 521.362 1471.27 512.069 1465.91 502.799 C 1463.48 500.938 1457.39 494.013 1454.51 491.241 C 1451.77 484.984 1448.86 475.964 1445.94 468.92 z" fill="rgb(25,189,125)" transform="translate(0,0)"></path>
<path d="M 1445.94 468.92 C 1468.98 472.798 1482.23 477.906 1503.95 483.4 C 1557 501.409 1609.22 527.805 1648.45 568.569 C 1656.53 576.969 1669.68 592.285 1674.68 602.789 C 1674.98 623.602 1671.67 636.183 1656.6 651.317 C 1613.39 694.713 1541.97 708.156 1483.15 709.55 C 1486.44 706.507 1489.67 703.394 1492.84 700.211 C 1545.03 646.65 1541.27 571.527 1492.45 517.895 C 1485.69 510.468 1461.91 478.129 1452.51 478.323 L 1451.67 480.106 C 1454.09 489.916 1461.98 494.204 1465.91 502.799 C 1463.48 500.938 1457.39 494.013 1454.51 491.241 C 1451.77 484.984 1448.86 475.964 1445.94 468.92 z" fill="url(#Gradient12)" transform="translate(0,0)"></path>
<path d="M 1693.81 705.809 C 1702.55 788.946 1630 835.589 1563.06 862.594 C 1566.57 865.754 1570.45 868.377 1571.63 872.819 C 1567.11 870.175 1564.49 866.998 1561.34 862.947 C 1552.15 865.914 1542.92 868.759 1533.66 871.483 C 1528.13 872.908 1522.85 874.033 1517.64 876.338 C 1505.92 878.093 1471.32 883.587 1460.5 886.32 C 1454.16 887.222 1447.78 888.221 1441.41 888.809 C 1409.45 889.099 1381.65 889.554 1349.75 885.491 C 1341.08 881.786 1312.98 879.823 1301.48 871.72 C 1323.19 849.925 1344.66 827.7 1366.44 805.934 C 1378.11 794.27 1389.52 780.308 1401.58 769.213 L 1402.17 770.477 C 1400.9 773.221 1391.95 781.791 1389.26 784.51 C 1405.62 784.291 1420.73 788.076 1439.61 787.963 C 1514.18 787.517 1595.02 782.803 1657.56 737.417 C 1671.78 727.101 1681.54 717.895 1693.81 705.809 z" fill="rgb(29,147,99)" transform="translate(0,0)"></path>
<path d="M 1066.48 621.383 L 1078.61 620.006 C 1081.47 632.124 1099.41 688.06 1105.75 696.987 C 1101.88 706.161 1098.16 715.383 1092.99 723.886 L 1090.84 722.251 C 1092.85 741.603 1075.13 777.214 1067.63 796.39 C 1057.55 822.184 1046.53 849.162 1035.15 874.419 C 1029.26 873.928 1018.97 874.7 1012.71 874.996 C 1011.27 870.609 1008.46 864.425 1006.56 860.133 C 988.322 818.975 976.584 774.257 955.63 734.385 C 969.949 697.457 987.384 658.827 999.862 621.908 C 1010.15 621.914 1020.56 623.297 1030.84 623.442 C 1042.5 623.606 1054.85 622.525 1066.48 621.383 z" fill="rgb(14,108,84)" transform="translate(0,0)"></path>
<path d="M 1066.48 621.383 L 1078.61 620.006 C 1081.47 632.124 1099.41 688.06 1105.75 696.987 C 1101.88 706.161 1098.16 715.383 1092.99 723.886 L 1090.84 722.251 C 1089.35 719.162 1085.25 703.608 1084.16 699.755 C 1076.87 674 1070.24 647.92 1066.48 621.383 z" fill="rgb(146,94,73)" transform="translate(0,0)"></path>
<path d="M 1206.99 985.498 C 1233 975.863 1267.02 971.516 1294.19 977.856 C 1288.62 1038.12 1269.04 1072.05 1231.37 1117.58 C 1225.47 1124.71 1210.18 1141.78 1205.22 1148.58 C 1186.49 1166.48 1165.16 1182.93 1146.37 1201.35 C 1127.32 1220.02 1110.86 1239.02 1093.07 1258.81 C 1092.75 1252.92 1098.27 1233.05 1100.04 1226.27 C 1118.42 1154.8 1146.26 1086.09 1182.82 1021.98 C 1188.07 1012.78 1199.86 992.392 1206.99 985.498 z" fill="rgb(180,214,197)" transform="translate(0,0)"></path>
<path d="M 860.797 581.049 C 867.244 584.275 883.428 591.488 888.404 594.853 C 890.35 605.204 915.241 694.841 919.612 702.086 L 923.043 714.361 C 928.1 727.442 932.793 742.135 937.43 755.494 C 942.565 763.155 949.869 785.638 952.974 794.964 C 980.135 876.543 989.059 957.383 993.479 1042.72 C 994.596 1064.27 996.137 1087.78 995.955 1109.18 C 995.293 1106.46 994.681 1102.23 994.175 1099.37 L 993.463 1100.34 C 990.954 1095.68 986.539 1036 986.033 1026.76 C 990.743 1002.4 968.56 911.588 960.6 885.93 C 949.712 855.219 925.98 805.621 906.576 779.704 C 901.961 770.748 893.551 759.544 887.752 750.972 C 858.117 707.16 823.516 678.149 783.145 645.385 C 795.297 642.048 804.547 639.541 816.243 634.731 C 819.596 632.567 822.963 630.032 826.218 627.687 C 839.645 615.772 844.577 609.719 853.775 594.256 C 856.897 589.753 858.505 585.961 860.797 581.049 z" fill="url(#Gradient11)" transform="translate(0,0)"></path>
<path d="M 860.797 581.049 C 867.244 584.275 883.428 591.488 888.404 594.853 C 890.35 605.204 915.241 694.841 919.612 702.086 L 923.043 714.361 C 916.886 709.41 909.506 697.866 903.308 691.795 C 884.476 673.346 848.66 640.874 826.218 627.687 C 839.645 615.772 844.577 609.719 853.775 594.256 C 856.897 589.753 858.505 585.961 860.797 581.049 z" fill="rgb(10,75,72)" transform="translate(0,0)"></path>
<path d="M 826.218 627.687 C 848.66 640.874 884.476 673.346 903.308 691.795 C 909.506 697.866 916.886 709.41 923.043 714.361 C 928.1 727.442 932.793 742.135 937.43 755.494 C 933.038 754.321 917.542 733.649 912.877 728.863 C 892.192 707.642 871.534 686.937 849.716 666.901 C 842.049 659.86 821.299 641.632 816.243 634.731 C 819.596 632.567 822.963 630.032 826.218 627.687 z" fill="rgb(14,108,84)" transform="translate(0,0)"></path>
<path d="M 1301.48 871.72 C 1312.98 879.823 1341.08 881.786 1349.75 885.491 L 1347.58 886.534 C 1351.52 904.64 1343.74 906.205 1340.13 921.043 C 1335.54 939.887 1321.28 978.609 1321.73 996.524 C 1340.48 1005.7 1343.23 1009.36 1357.59 1023.82 C 1356.43 1025.63 1293.53 1079.59 1293.4 1079.64 C 1287.82 1089.1 1262.1 1111.07 1252.74 1119.22 C 1240.26 1124.04 1210.23 1147.49 1205.22 1148.58 C 1210.18 1141.78 1225.47 1124.71 1231.37 1117.58 C 1269.04 1072.05 1288.62 1038.12 1294.19 977.856 C 1267.02 971.516 1233 975.863 1206.99 985.498 C 1215.48 968.288 1239.58 936.572 1251.6 921.274 C 1267.86 904.391 1284.49 887.869 1301.48 871.72 z" fill="rgb(10,75,72)" transform="translate(0,0)"></path>
<path d="M 1321.73 996.524 C 1340.48 1005.7 1343.23 1009.36 1357.59 1023.82 C 1356.43 1025.63 1293.53 1079.59 1293.4 1079.64 C 1302.45 1061.7 1309.64 1045.39 1314.92 1025.78 C 1317.41 1016.55 1318.53 1005.17 1321.73 996.524 z" fill="rgb(255,255,255)" transform="translate(0,0)"></path>
<path d="M 1140.84 761.97 C 1173.19 782.978 1247.21 809.151 1267.53 838.693 C 1256.93 850.623 1244.74 866.955 1234 878.454 C 1227.59 885.319 1180.19 887.951 1169.71 888.542 C 1141.62 890.126 1111.27 880.1 1084.11 878.857 C 1095.2 841.54 1118.61 793.612 1140.84 761.97 z" fill="rgb(14,108,84)" transform="translate(0,0)"></path>
<path d="M 1267.53 838.693 L 1268.25 840.185 C 1239.3 877.905 1202.07 916.506 1170.26 952.18 C 1158.99 964.821 1126.92 999.586 1113.97 1008.47 C 1091.35 1017.58 1082.48 1020.18 1058.13 1023.93 C 1058.17 999.292 1065.31 958.934 1069.85 934.108 C 1072.01 922.32 1081.63 893.719 1082.32 883.115 L 1084.11 878.857 C 1111.27 880.1 1141.62 890.126 1169.71 888.542 C 1180.19 887.951 1227.59 885.319 1234 878.454 C 1244.74 866.955 1256.93 850.623 1267.53 838.693 z" fill="rgb(14,53,69)" transform="translate(0,0)"></path>
<path d="M 1349.75 885.491 C 1381.65 889.554 1409.45 889.099 1441.41 888.809 C 1447.78 888.221 1454.16 887.222 1460.5 886.32 C 1458.79 896.181 1457.36 903.784 1454.86 913.456 C 1452.99 920.665 1449.28 932.73 1448.4 939.561 C 1436.9 945.497 1424.23 959.159 1419.18 961.233 C 1416.24 967.089 1412.95 972.716 1411.65 979.107 C 1406.92 983.318 1391.16 996.058 1387.8 999.657 C 1382.11 1004.71 1363.72 1021.28 1357.59 1023.82 C 1343.23 1009.36 1340.48 1005.7 1321.73 996.524 C 1321.28 978.609 1335.54 939.887 1340.13 921.043 C 1343.74 906.205 1351.52 904.64 1347.58 886.534 L 1349.75 885.491 z" fill="rgb(14,53,69)" transform="translate(0,0)"></path>
<path d="M 1441.41 888.809 C 1447.78 888.221 1454.16 887.222 1460.5 886.32 C 1458.79 896.181 1457.36 903.784 1454.86 913.456 C 1452.99 920.665 1449.28 932.73 1448.4 939.561 C 1436.9 945.497 1424.23 959.159 1419.18 961.233 C 1427.76 934.811 1434.77 916.067 1441.41 888.809 z" fill="rgb(69,78,84)" transform="translate(0,0)"></path>
<path d="M 1561.34 862.947 C 1564.49 866.998 1567.11 870.175 1571.63 872.819 C 1581.81 883.131 1604.75 893.008 1618.07 897.918 L 1618.14 898.776 C 1600.79 907.186 1583.28 915.241 1565.6 922.937 C 1546.86 930.905 1523.86 939.784 1505.85 948.53 C 1484.93 956.978 1456.44 973.655 1436.63 980.55 C 1431.55 985.547 1404.05 994.573 1395.91 998.538 C 1394.15 999.393 1390.04 999.095 1387.8 999.657 C 1391.16 996.058 1406.92 983.318 1411.65 979.107 C 1412.95 972.716 1416.24 967.089 1419.18 961.233 C 1424.23 959.159 1436.9 945.497 1448.4 939.561 C 1449.28 932.73 1452.99 920.665 1454.86 913.456 C 1457.36 903.784 1458.79 896.181 1460.5 886.32 C 1471.32 883.587 1505.92 878.093 1517.64 876.338 C 1522.85 874.033 1528.13 872.908 1533.66 871.483 C 1542.92 868.759 1552.15 865.914 1561.34 862.947 z" fill="rgb(10,75,72)" transform="translate(0,0)"></path>
<path d="M 1517.64 876.338 C 1522.85 874.033 1528.13 872.908 1533.66 871.483 C 1510.59 909.886 1487.41 943.342 1450.4 969.683 C 1446.72 972.301 1439.71 977.441 1436.63 980.55 C 1431.55 985.547 1404.05 994.573 1395.91 998.538 C 1394.15 999.393 1390.04 999.095 1387.8 999.657 C 1391.16 996.058 1406.92 983.318 1411.65 979.107 C 1412.95 972.716 1416.24 967.089 1419.18 961.233 C 1424.23 959.159 1436.9 945.497 1448.4 939.561 C 1449.28 932.73 1452.99 920.665 1454.86 913.456 C 1457.36 903.784 1458.79 896.181 1460.5 886.32 C 1471.32 883.587 1505.92 878.093 1517.64 876.338 z" fill="url(#Gradient10)" transform="translate(0,0)"></path>
<path d="M 1460.5 886.32 C 1471.32 883.587 1505.92 878.093 1517.64 876.338 C 1501.68 900.237 1475.22 928.425 1448.4 939.561 C 1449.28 932.73 1452.99 920.665 1454.86 913.456 C 1457.36 903.784 1458.79 896.181 1460.5 886.32 z" fill="rgb(14,53,69)" transform="translate(0,0)"></path>
<path d="M 1159.04 597.137 C 1171.57 590.664 1183.32 584.62 1195.23 577.016 C 1197.79 584.453 1204.41 601.523 1209.57 607.187 C 1214.92 617.436 1226.7 633.957 1230.1 641.105 C 1211.77 653.698 1196.94 668.245 1180.14 682.438 C 1154.7 703.939 1133.87 726.319 1111.43 750.803 C 1111.74 735.689 1132.09 684.267 1136.66 666.366 C 1140.23 658.137 1158.34 603.547 1159.04 597.137 z" fill="url(#Gradient9)" transform="translate(0,0)"></path>
<path d="M 900.641 599.545 C 932.983 610.855 947.402 614.875 981.472 619.748 C 987.583 620.62 993.715 621.34 999.862 621.908 C 987.384 658.827 969.949 697.457 955.63 734.385 C 947.11 726.433 930.903 684.283 926.733 672.346 L 928.042 671.416 C 919.47 647.232 909.239 624.378 900.641 599.545 z" fill="rgb(10,75,72)" transform="translate(0,0)"></path>
<path d="M 981.472 619.748 C 987.583 620.62 993.715 621.34 999.862 621.908 C 987.384 658.827 969.949 697.457 955.63 734.385 C 947.11 726.433 930.903 684.283 926.733 672.346 L 928.042 671.416 C 932.48 681.903 936.89 692.781 941.875 702.987 C 953.122 676.711 968.776 645.817 981.472 619.748 z" fill="rgb(146,94,73)" transform="translate(0,0)"></path>
<path d="M 1452.59 713.492 C 1450.07 721.311 1407.45 760.304 1401.58 769.213 C 1389.52 780.308 1378.11 794.27 1366.44 805.934 C 1344.66 827.7 1323.19 849.925 1301.48 871.72 C 1284.49 887.869 1267.86 904.391 1251.6 921.274 C 1250.99 921.194 1251.46 921.308 1249.79 920.557 C 1256.68 914.112 1262.95 906.015 1269.96 899.506 C 1282.82 887.879 1294.47 875.406 1306.99 863.437 C 1320.81 850.231 1330.73 836.336 1336.19 817.675 C 1337.86 811.961 1336.68 809.048 1339.6 803.03 L 1338.14 802.652 C 1329.79 805.69 1321.5 819.658 1312.7 817.359 L 1314.31 815.775 L 1323.51 785.724 C 1326.87 776.106 1328.64 764.802 1330.36 754.711 C 1353.22 753.408 1369.38 752.341 1391.57 745.338 C 1399.95 742.692 1416.99 734.353 1423.75 733.481 C 1433.55 727.092 1443.17 720.426 1452.59 713.492 z" fill="rgb(221,195,143)" transform="translate(0,0)"></path>
<path d="M 1330.36 754.711 C 1353.22 753.408 1369.38 752.341 1391.57 745.338 C 1399.95 742.692 1416.99 734.353 1423.75 733.481 C 1402.68 751.094 1381.94 768.485 1359.84 784.836 C 1347.72 784.907 1335.61 785.203 1323.51 785.724 C 1326.87 776.106 1328.64 764.802 1330.36 754.711 z" fill="rgb(25,189,125)" transform="translate(0,0)"></path>
<path d="M 1323.51 785.724 C 1335.61 785.203 1347.72 784.907 1359.84 784.836 C 1353.9 789.099 1319.26 815.181 1314.31 815.775 L 1323.51 785.724 z" fill="rgb(14,108,84)" transform="translate(0,0)"></path>
<path d="M 1205.22 1148.58 C 1210.23 1147.49 1240.26 1124.04 1252.74 1119.22 C 1244.69 1130.17 1230.31 1143.47 1220.31 1153.3 C 1175.33 1197.5 1133.07 1244.98 1094.6 1294.96 C 1089.55 1301.52 1085.21 1308.76 1080.34 1315.4 C 1081.92 1304.04 1087.52 1267.13 1093.07 1258.81 C 1110.86 1239.02 1127.32 1220.02 1146.37 1201.35 C 1165.16 1182.93 1186.49 1166.48 1205.22 1148.58 z" fill="url(#Gradient8)" transform="translate(0,0)"></path>
<path d="M 1078.61 620.006 C 1106.65 614.526 1119.94 610.003 1146.82 602.249 C 1143.26 608.963 1121.75 657.112 1121.44 662.71 C 1117.32 671.976 1110.52 688.795 1105.75 696.987 C 1099.41 688.06 1081.47 632.124 1078.61 620.006 z" fill="rgb(10,75,72)" transform="translate(0,0)"></path>
<path d="M 1230.1 641.105 L 1235.22 642.718 L 1242 643.478 C 1221.93 663.25 1173.95 711.302 1160.36 734.701 C 1154.78 741.172 1145.83 754.679 1140.84 761.97 C 1118.61 793.612 1095.2 841.54 1084.11 878.857 L 1082.32 883.115 C 1081.18 876.75 1088.74 860.003 1091.28 853.203 C 1113.54 793.794 1149.79 740.443 1191.43 692.971 C 1199.98 683.217 1206.58 678.596 1206.41 664.054 C 1205.92 663.829 1205.44 663.604 1204.95 663.379 C 1186.4 678.918 1161.58 701.237 1144.94 717.517 C 1136.36 725.914 1114.54 751.851 1110.21 752.727 L 1111.43 750.803 C 1133.87 726.319 1154.7 703.939 1180.14 682.438 C 1196.94 668.245 1211.77 653.698 1230.1 641.105 z" fill="rgb(221,195,143)" transform="translate(0,0)"></path>
<path d="M 1618.14 898.776 C 1630.44 902.735 1636.23 896.987 1646.1 898.46 C 1642.2 900.228 1635.77 902.902 1632.23 904.946 C 1601.86 918.393 1574.19 934.7 1545.23 950.665 C 1538.36 954.454 1512.2 969.389 1506.09 971.492 C 1507.87 966.612 1558.06 943.455 1566.77 936.294 L 1564.89 932.458 C 1563.29 932.82 1564.08 932.8 1562.53 932.56 C 1563.16 930.436 1562.85 931.227 1563.72 929.264 L 1564.33 927.928 L 1562.92 926.557 C 1555.09 927.455 1518.96 946.158 1507.42 949.178 L 1505.85 948.53 C 1523.86 939.784 1546.86 930.905 1565.6 922.937 C 1583.28 915.241 1600.79 907.186 1618.14 898.776 z" fill="rgb(221,195,143)" transform="translate(0,0)"></path>
<path d="M 1113.97 1008.47 C 1112.57 1014.05 1091.35 1032.36 1085.51 1038.15 C 1076.62 1046.97 1067.67 1056.34 1059 1065.46 C 1058.95 1053.71 1059.34 1035.29 1058.13 1023.93 C 1082.48 1020.18 1091.35 1017.58 1113.97 1008.47 z" fill="rgb(180,214,197)" transform="translate(0,0)"></path>
<path d="M 888.404 594.853 C 892.47 596.451 896.549 598.015 900.641 599.545 C 909.239 624.378 919.47 647.232 928.042 671.416 L 926.733 672.346 C 924.24 666.454 914.107 637.915 910.532 636.261 L 909.618 636.536 C 905.922 637.616 905.653 637.702 901.888 637.688 C 903.692 647.342 921.786 697.993 919.612 702.086 C 915.241 694.841 890.35 605.204 888.404 594.853 z" fill="rgb(146,94,73)" transform="translate(0,0)"></path>
<path d="M 1159.04 597.137 C 1158.34 603.547 1140.23 658.137 1136.66 666.366 C 1135.55 656.406 1145.87 640.852 1146.87 630.653 C 1147.25 626.752 1148.99 625.482 1149.09 622.389 C 1145.91 621.491 1143.72 620.551 1140.46 620.976 C 1137.11 625.093 1127.66 653.791 1123.21 662.158 L 1121.44 662.71 C 1121.75 657.112 1143.26 608.963 1146.82 602.249 L 1159.04 597.137 z" fill="rgb(146,94,73)" transform="translate(0,0)"></path>
<path d="M 1012.71 874.996 C 1018.97 874.7 1029.26 873.928 1035.15 874.419 C 1031.11 884.136 1028.28 892.23 1024.94 902.149 C 1020.66 893.468 1016.64 883.892 1012.71 874.996 z" fill="rgb(14,53,69)" transform="translate(0,0)"></path>
<path d="M 751.988 354.803 C 757.249 352.969 764.416 339.61 768.02 334.399 C 775.915 323.065 784.789 312.445 794.54 302.661 C 876.925 220.96 1033.73 206.777 1139.06 245.711 C 1175.56 258.777 1208.56 280.061 1235.51 307.916 C 1246.41 319.206 1256.54 331.922 1267.18 342.885 C 1314.62 355.351 1355.24 370.607 1392.93 403.328 C 1395.97 405.965 1400.55 410.076 1403.74 412.403 C 1424.12 433.032 1432.07 443.755 1445.94 468.92 C 1448.86 475.964 1451.77 484.984 1454.51 491.241 C 1456.43 502.965 1459.51 522.275 1456.39 534.025 C 1425.23 571.497 1377.92 577.167 1332.77 586.763 C 1321.14 589.233 1306.22 591.271 1295.34 595.381 C 1289.08 603.559 1258.48 624.802 1249.48 631.716 C 1245.29 634.936 1238.69 638.597 1235.22 642.718 L 1230.1 641.105 C 1226.7 633.957 1214.92 617.436 1209.57 607.187 C 1204.41 601.523 1197.79 584.453 1195.23 577.016 C 1183.32 584.62 1171.57 590.664 1159.04 597.137 L 1146.82 602.249 C 1119.94 610.003 1106.65 614.526 1078.61 620.006 L 1066.48 621.383 C 1054.85 622.525 1042.5 623.606 1030.84 623.442 C 1020.56 623.297 1010.15 621.914 999.862 621.908 C 993.715 621.34 987.583 620.62 981.472 619.748 C 947.402 614.875 932.983 610.855 900.641 599.545 C 896.549 598.015 892.47 596.451 888.404 594.853 C 883.428 591.488 867.244 584.275 860.797 581.049 C 858.505 585.961 856.897 589.753 853.775 594.256 C 844.577 609.719 839.645 615.772 826.218 627.687 C 822.963 630.032 819.596 632.567 816.243 634.731 C 804.547 639.541 795.297 642.048 783.145 645.385 C 773.61 646.882 763.985 647.749 754.335 647.979 C 692.516 648.953 622.615 617.307 592.311 561.54 C 581.041 540.802 579.544 521.73 579.238 498.791 C 582.475 488.551 585.078 479.087 589.553 469.293 C 594.037 464.346 600.316 450.163 608.683 440.717 C 648.264 396.032 696.28 372.475 751.988 354.803 z" fill="url(#Gradient7)" transform="translate(0,0)"></path>
<path d="M 589.553 469.293 C 594.037 464.346 600.316 450.163 608.683 440.717 C 648.264 396.032 696.28 372.475 751.988 354.803 L 752.261 356.561 L 751.749 357.66 C 748.322 365.209 737.351 395.677 737.16 402.775 C 735.442 466.934 775.572 523.749 824.571 561.574 C 835.1 569.702 845.269 575.63 854.972 583.463 L 854.024 582.492 L 853.005 583.473 C 838.944 580.01 835.708 579.795 823.045 573.158 C 825.81 575.323 853.999 594.587 853.775 594.256 C 844.577 609.719 839.645 615.772 826.218 627.687 C 822.963 630.032 819.596 632.567 816.243 634.731 C 804.547 639.541 795.297 642.048 783.145 645.385 C 773.61 646.882 763.985 647.749 754.335 647.979 C 692.516 648.953 622.615 617.307 592.311 561.54 C 581.041 540.802 579.544 521.73 579.238 498.791 C 582.475 488.551 585.078 479.087 589.553 469.293 z" fill="url(#Gradient6)" transform="translate(0,0)"></path>
<path d="M 1267.18 342.885 C 1314.62 355.351 1355.24 370.607 1392.93 403.328 C 1395.97 405.965 1400.55 410.076 1403.74 412.403 C 1424.12 433.032 1432.07 443.755 1445.94 468.92 C 1448.86 475.964 1451.77 484.984 1454.51 491.241 C 1456.43 502.965 1459.51 522.275 1456.39 534.025 C 1425.23 571.497 1377.92 577.167 1332.77 586.763 C 1321.14 589.233 1306.22 591.271 1295.34 595.381 C 1289.08 603.559 1258.48 624.802 1249.48 631.716 C 1245.29 634.936 1238.69 638.597 1235.22 642.718 L 1230.1 641.105 C 1226.7 633.957 1214.92 617.436 1209.57 607.187 C 1220.15 604.28 1248.53 564.373 1251.28 553.264 C 1249.54 553.366 1247.96 553.394 1246.23 553.428 L 1245.21 552.124 C 1257.01 533.104 1265.47 515.495 1276.15 496.251 C 1289.61 471.984 1297.8 427.069 1290.96 400.678 C 1288.7 382.398 1275.62 358.897 1267.18 342.885 z" fill="url(#Gradient5)" transform="translate(0,0)"></path>
<path d="M 1251.28 553.264 C 1266.07 547.797 1274.13 527.305 1281.89 514.483 C 1283.41 511.981 1290.36 497.646 1295.15 496.08 C 1333.43 505.857 1328.29 532.789 1315.56 560.392 C 1310.02 572.395 1296.01 591.451 1295.34 595.381 C 1289.08 603.559 1258.48 624.802 1249.48 631.716 C 1245.29 634.936 1238.69 638.597 1235.22 642.718 L 1230.1 641.105 C 1226.7 633.957 1214.92 617.436 1209.57 607.187 C 1220.15 604.28 1248.53 564.373 1251.28 553.264 z" fill="rgb(25,189,125)" transform="translate(0,0)"></path>
<path d="M 1231.04 451.807 C 1214.11 441.185 1209.04 443.569 1191.49 436.935 C 1184.68 434.308 1178.24 430.824 1172.32 426.568 C 1164.35 420.957 1136.47 396.414 1130.63 387.362 C 1130.52 387.192 1129.09 381.48 1127.88 379.807 C 1126.02 377.24 1120.53 372.171 1119.86 369.581 C 1113.16 343.085 1109.77 313.448 1112.88 286.167 C 1113.78 278.266 1123.08 248.105 1131.2 245.167 C 1134.77 246.078 1135.47 246.312 1139.06 245.711 C 1175.56 258.777 1208.56 280.061 1235.51 307.916 C 1246.41 319.206 1256.54 331.922 1267.18 342.885 C 1275.62 358.897 1288.7 382.398 1290.96 400.678 C 1289.7 409.092 1293.65 425.794 1289.99 433.882 C 1280.5 454.822 1255.7 473.393 1235.46 483.182 C 1233.37 484.193 1229.52 485.623 1227.4 484.817 L 1232.59 482.726 C 1230.14 480.567 1230.51 480.641 1230.72 477.67 C 1236.37 471.473 1240.24 464.592 1246.1 458.956 C 1265.96 460.094 1270.47 452.513 1272.55 433.547 C 1269.09 433.758 1267.02 436.347 1264.3 436.762 C 1258.38 437.662 1256.02 443.884 1252.39 448.387 C 1249.68 447.597 1248.53 446.473 1246.12 444.863 C 1242.02 444.727 1235.42 449.374 1231.04 451.807 z" fill="rgb(25,189,125)" transform="translate(0,0)"></path>
<path d="M 589.553 469.293 C 585.078 479.087 582.475 488.551 579.238 498.791 C 579.544 521.73 581.041 540.802 592.311 561.54 C 622.615 617.307 692.516 648.953 754.335 647.979 C 763.985 647.749 773.61 646.882 783.145 645.385 C 823.516 678.149 858.117 707.16 887.752 750.972 C 893.551 759.544 901.961 770.748 906.576 779.704 C 925.98 805.621 949.712 855.219 960.6 885.93 C 968.56 911.588 990.743 1002.4 986.033 1026.76 C 975.681 1021.82 963.745 1018.06 953.083 1013.36 C 942.231 1008.58 932.448 1003.14 922.094 997.435 C 909.826 983.419 892.985 961.037 880.39 948.76 L 882.258 954.941 C 879.42 956.327 857.859 949.926 853.148 950.058 C 845.689 950.267 835.6 952.513 828.2 953.806 C 825.791 952.849 824.537 952.13 822.277 950.904 C 802.604 926.454 785.633 906.333 763.513 883.987 C 749.49 887.47 738.027 888.047 723.733 889.23 C 719.932 889.545 710.779 890.043 707.782 890.734 C 677.505 892.182 648.311 892.983 618.13 893.996 L 614.388 893.153 C 604.65 894.11 554.842 887.28 542.829 885.785 C 534.188 884.693 522.472 881.217 513.318 879.266 C 504.942 874.157 484.953 872.023 474.923 867.633 C 472.624 866.627 462.874 862.904 460.928 862.486 C 449.159 879.292 442.612 884.955 425.015 895.93 L 411.38 903.094 C 371.458 922.859 313.301 928.584 270.747 912.807 C 257.462 907.881 238.41 896.647 225.749 893.808 C 206.069 850.927 214.048 797.564 233.73 756.251 C 239.288 744.428 246.154 733.264 254.199 722.969 C 271.673 700.668 318.412 656.868 344.719 647.543 C 349.137 637.533 353.9 626.874 359.06 617.172 C 391.741 555.728 460.212 514.048 523.56 489.354 C 543.836 481.451 568.519 475.519 589.553 469.293 z" fill="url(#Gradient4)" transform="translate(0,0)"></path>
<path d="M 541.841 587.742 C 540.455 557.906 561.354 521.653 579.238 498.791 C 579.544 521.73 581.041 540.802 592.311 561.54 C 622.615 617.307 692.516 648.953 754.335 647.979 C 763.985 647.749 773.61 646.882 783.145 645.385 C 823.516 678.149 858.117 707.16 887.752 750.972 C 893.551 759.544 901.961 770.748 906.576 779.704 C 925.98 805.621 949.712 855.219 960.6 885.93 C 968.56 911.588 990.743 1002.4 986.033 1026.76 C 975.681 1021.82 963.745 1018.06 953.083 1013.36 C 942.231 1008.58 932.448 1003.14 922.094 997.435 C 909.826 983.419 892.985 961.037 880.39 948.76 L 882.258 954.941 C 879.42 956.327 857.859 949.926 853.148 950.058 C 845.689 950.267 835.6 952.513 828.2 953.806 C 825.791 952.849 824.537 952.13 822.277 950.904 C 802.604 926.454 785.633 906.333 763.513 883.987 C 733.063 849.897 697.643 816.285 664.861 784.449 C 658.679 778.588 645.516 766.806 640.848 760.587 C 580.631 725.789 529.51 660.75 541.841 587.742 z" fill="url(#Gradient3)" transform="translate(0,0)"></path>
<path d="M 541.841 587.742 C 540.455 557.906 561.354 521.653 579.238 498.791 C 579.544 521.73 581.041 540.802 592.311 561.54 C 622.615 617.307 692.516 648.953 754.335 647.979 C 763.985 647.749 773.61 646.882 783.145 645.385 C 823.516 678.149 858.117 707.16 887.752 750.972 C 893.551 759.544 901.961 770.748 906.576 779.704 L 905.738 780.103 C 905.708 780.088 868.408 728.566 862.032 720.733 C 840.809 729.228 815.655 738.813 793.434 743.205 C 689.069 763.828 562.819 694.853 541.841 587.742 z" fill="rgb(8,92,77)" transform="translate(0,0)"></path>
<path d="M 960.6 885.93 C 968.56 911.588 990.743 1002.4 986.033 1026.76 C 975.681 1021.82 963.745 1018.06 953.083 1013.36 C 942.231 1008.58 932.448 1003.14 922.094 997.435 C 909.826 983.419 892.985 961.037 880.39 948.76 C 864.711 930.781 849.54 912.246 833.841 894.232 C 843.093 893.792 856.928 897.131 870.001 895.978 C 900.792 893.263 929.675 887.804 960.6 885.93 z" fill="rgb(14,53,69)" transform="translate(0,0)"></path>
<path d="M 640.848 760.587 C 651.492 765.221 662.325 769.407 673.319 773.134 C 678.976 775.077 693.832 779.508 698.126 781.948 C 709.868 788.621 720.799 799.067 732.511 806.623 C 733.361 799.884 734.203 784.603 738.625 780.437 C 742.743 779.928 742.717 779.921 746.815 780.537 C 748.117 782.668 750.771 810.745 752.334 817.456 C 766.996 830.179 780.216 839.648 794.529 853.289 C 807.175 865.341 821.613 883.274 833.841 894.232 C 849.54 912.246 864.711 930.781 880.39 948.76 L 882.258 954.941 C 879.42 956.327 857.859 949.926 853.148 950.058 C 845.689 950.267 835.6 952.513 828.2 953.806 C 825.791 952.849 824.537 952.13 822.277 950.904 C 802.604 926.454 785.633 906.333 763.513 883.987 C 733.063 849.897 697.643 816.285 664.861 784.449 C 658.679 778.588 645.516 766.806 640.848 760.587 z" fill="rgb(179,152,120)" transform="translate(0,0)"></path>
<path d="M 460.928 862.486 C 409.964 841.366 369.2 801.27 347.24 750.662 C 346.577 749.113 337.34 714.909 337.352 714.68 C 400.611 778.793 577.979 785.685 664.861 784.449 C 697.643 816.285 733.063 849.897 763.513 883.987 C 749.49 887.47 738.027 888.047 723.733 889.23 C 719.932 889.545 710.779 890.043 707.782 890.734 C 677.505 892.182 648.311 892.983 618.13 893.996 L 614.388 893.153 C 604.65 894.11 554.842 887.28 542.829 885.785 C 534.188 884.693 522.472 881.217 513.318 879.266 C 504.942 874.157 484.953 872.023 474.923 867.633 C 472.624 866.627 462.874 862.904 460.928 862.486 z" fill="rgb(14,108,84)" transform="translate(0,0)"></path>
<path d="M 460.928 862.486 C 462.874 862.904 472.624 866.627 474.923 867.633 C 484.953 872.023 504.942 874.157 513.318 879.266 C 522.472 881.217 534.188 884.693 542.829 885.785 C 554.842 887.28 604.65 894.11 614.388 893.153 L 618.13 893.996 C 648.311 892.983 677.505 892.182 707.782 890.734 C 710.779 890.043 719.932 889.545 723.733 889.23 C 738.027 888.047 749.49 887.47 763.513 883.987 C 785.633 906.333 802.604 926.454 822.277 950.904 C 824.537 952.13 825.791 952.849 828.2 953.806 C 835.6 952.513 845.689 950.267 853.148 950.058 C 857.859 949.926 879.42 956.327 882.258 954.941 L 880.39 948.76 C 892.985 961.037 909.826 983.419 922.094 997.435 C 932.448 1003.14 942.231 1008.58 953.083 1013.36 C 963.745 1018.06 975.681 1021.82 986.033 1026.76 C 986.539 1036 990.954 1095.68 993.463 1100.34 L 994.175 1099.37 C 994.681 1102.23 995.293 1106.46 995.955 1109.18 C 996.783 1128.68 1001.26 1145.61 1004.7 1164.67 C 1013.71 1214.47 1013.38 1263.01 1013.34 1313.39 C 1018 1329 1010.52 1361.25 1014.54 1375.37 L 1016.51 1373.05 C 1021.65 1372.81 1023.9 1376.08 1024.49 1375.99 C 1036.91 1374.22 1043.35 1384.77 1054.41 1386.26 C 1067.3 1387.99 1088.02 1416.54 1100.36 1409.81 C 1102.8 1411.4 1102.57 1411.45 1103.83 1414.15 C 1106.2 1407.4 1106.09 1399.38 1108.47 1393.61 C 1111.55 1386.13 1112.33 1378.77 1115.47 1371.57 L 1116.53 1372.68 C 1095.22 1437.78 1091.74 1508.79 1096.32 1576.71 C 1097.33 1591.7 1099.32 1606.28 1100.97 1621.16 C 1101.37 1624.83 1102.94 1637.58 1102.69 1640.63 C 1110.07 1689.34 1122.54 1744.53 1138.52 1791.22 L 1142.85 1806.88 C 1137.13 1810.79 1066.07 1807.39 1054.36 1808.52 C 1051.91 1808.75 1042.74 1808.36 1040.24 1807.93 C 1008.28 1806.76 973.39 1810.12 940.981 1809.41 C 933.281 1809.24 914.096 1810.71 908.232 1808.97 C 920.153 1766.23 926.726 1735.32 936.072 1692.93 C 936.385 1678.92 941.257 1659.8 943.046 1645 C 947.419 1608.8 950.246 1571.95 950.283 1535.47 C 950.474 1344.04 891.652 1244.67 749.648 1121.1 C 728.593 1102.78 706.474 1085.11 684.714 1067.63 C 673.087 1058.29 660.25 1049.23 649.783 1038.6 C 649.519 1038.34 649.262 1038.06 649.001 1037.79 C 643.071 1030.82 620.294 1015.58 611.149 1009.37 C 595.021 998.427 576.98 984.9 560.44 975.063 C 532.076 957.904 502.157 944.188 472.49 929.643 C 453.328 920.248 429.452 913.189 411.38 903.094 L 425.015 895.93 C 442.612 884.955 449.159 879.292 460.928 862.486 z" fill="url(#Gradient2)" transform="translate(0,0)"></path>
<path d="M 746.017 990.609 C 776.373 970.171 809.957 973.958 845.195 980.177 C 854.731 991.791 863.89 1007.81 872.412 1020.57 C 921.74 1094.46 947.396 1176.19 964.004 1263.29 C 937.407 1228.69 916.719 1205.68 884.248 1176.85 C 868.461 1163 852.501 1149.35 836.37 1135.9 C 822.361 1124.19 799.47 1107.09 789.873 1092.37 C 776.284 1071.52 764.416 1048.08 756.471 1024.49 C 754.201 1017.75 748.258 994.929 746.017 990.609 z" fill="url(#Gradient1)" transform="translate(0,0)"></path>
<path d="M 1013.34 1313.39 C 1018 1329 1010.52 1361.25 1014.54 1375.37 L 1016.51 1373.05 C 1021.65 1372.81 1023.9 1376.08 1024.49 1375.99 C 1036.91 1374.22 1043.35 1384.77 1054.41 1386.26 C 1067.3 1387.99 1088.02 1416.54 1100.36 1409.81 C 1102.8 1411.4 1102.57 1411.45 1103.83 1414.15 C 1106.2 1407.4 1106.09 1399.38 1108.47 1393.61 C 1111.55 1386.13 1112.33 1378.77 1115.47 1371.57 L 1116.53 1372.68 C 1095.22 1437.78 1091.74 1508.79 1096.32 1576.71 C 1097.33 1591.7 1099.32 1606.28 1100.97 1621.16 C 1101.37 1624.83 1102.94 1637.58 1102.69 1640.63 C 1100.86 1646.47 1101.22 1648.74 1102.64 1654.64 C 1100.38 1656.95 1091.47 1659.3 1091.29 1659.66 C 1086.74 1668.95 1079.22 1665.96 1070.11 1664.54 C 1058.45 1662.71 1051.4 1656.66 1041.58 1650.21 L 1039.41 1651.31 C 1037.29 1649.59 1012.11 1617.51 1011.99 1616.44 C 1009.16 1592.95 1011.32 1567.4 1010.8 1543.47 C 1012.45 1467.36 1012.27 1389.67 1013.34 1313.39 z" fill="rgb(29,147,99)" transform="translate(0,0)"></path>
<path d="M 1003.88 1710.58 C 1006.75 1676.57 1007.03 1638.37 1008.87 1604.05 C 1009.83 1586.21 1008.58 1560.68 1010.8 1543.47 C 1011.32 1567.4 1009.16 1592.95 1011.99 1616.44 C 1012.11 1617.51 1037.29 1649.59 1039.41 1651.31 L 1041.58 1650.21 C 1051.4 1656.66 1058.45 1662.71 1070.11 1664.54 C 1079.22 1665.96 1086.74 1668.95 1091.29 1659.66 C 1091.47 1659.3 1100.38 1656.95 1102.64 1654.64 C 1101.22 1648.74 1100.86 1646.47 1102.69 1640.63 C 1110.07 1689.34 1122.54 1744.53 1138.52 1791.22 L 1142.85 1806.88 C 1137.13 1810.79 1066.07 1807.39 1054.36 1808.52 C 1051.91 1808.75 1042.74 1808.36 1040.24 1807.93 C 1034.77 1806.22 1005.34 1806.95 998.387 1807 C 998.362 1779.38 1002.66 1739.86 1003.88 1710.58 z" fill="rgb(8,92,77)" transform="translate(0,0)"></path>
<path d="M 763.513 883.987 C 785.633 906.333 802.604 926.454 822.277 950.904 C 828.665 959.993 840.416 972.598 845.195 980.177 C 809.957 973.958 776.373 970.171 746.017 990.609 C 742.654 987.146 721.903 936.361 719.596 928.53 C 717.677 922.016 711.353 895.506 708.061 891.513 L 705.929 892.944 C 704.535 901.662 716.111 953.421 718.17 965.518 C 719.175 971.417 727.747 994.917 726.933 1000.23 C 714.412 1009.01 702.39 1018.49 690.925 1028.62 C 687.73 1028.77 680.674 1021.92 678.36 1019.26 C 656.072 993.612 633.209 963.286 621.945 931.114 C 618.058 920.01 617.936 905.145 618.13 893.996 C 648.311 892.983 677.505 892.182 707.782 890.734 C 710.779 890.043 719.932 889.545 723.733 889.23 C 738.027 888.047 749.49 887.47 763.513 883.987 z" fill="rgb(14,53,69)" transform="translate(0,0)"></path>
<path d="M 460.928 862.486 C 462.874 862.904 472.624 866.627 474.923 867.633 C 484.953 872.023 504.942 874.157 513.318 879.266 C 517.432 892.966 581.08 959.85 594.173 975.419 C 534.46 939.999 490.299 918.708 425.015 895.93 C 442.612 884.955 449.159 879.292 460.928 862.486 z" fill="rgb(14,53,69)" transform="translate(0,0)"></path>
<path d="M 922.094 997.435 C 932.448 1003.14 942.231 1008.58 953.083 1013.36 C 963.745 1018.06 975.681 1021.82 986.033 1026.76 C 986.539 1036 990.954 1095.68 993.463 1100.34 C 993.048 1102.57 993.022 1102.56 992.305 1104.67 C 990.171 1103.16 974.208 1074.97 972.189 1071 C 958.493 1044.07 938.181 1022.27 922.094 997.435 z" fill="rgb(180,214,197)" transform="translate(0,0)"></path>
<path d="M 936.072 1692.93 C 937.991 1707.4 928.079 1734.06 929.622 1746.14 L 930.415 1746.33 L 932.335 1742.75 C 936.053 1744.74 943.748 1769.93 942.667 1775.41 C 938.042 1782.81 927.905 1787.39 925.784 1793.32 C 931.242 1794.18 931.043 1789.21 935.631 1789.5 L 936.787 1791.6 C 932.67 1799 915.218 1798.9 913.043 1800.58 C 912.193 1803.56 912.827 1804.65 913.704 1807.62 C 931.421 1808.14 948.423 1808.95 965.956 1806.82 C 974.644 1805.77 984.564 1808.49 993.862 1806.57 C 999.241 1801.3 998.294 1720.56 1003.88 1710.58 C 1002.66 1739.86 998.362 1779.38 998.387 1807 C 1005.34 1806.95 1034.77 1806.22 1040.24 1807.93 C 1008.28 1806.76 973.39 1810.12 940.981 1809.41 C 933.281 1809.24 914.096 1810.71 908.232 1808.97 C 920.153 1766.23 926.726 1735.32 936.072 1692.93 z" fill="rgb(10,75,72)" transform="translate(0,0)"></path>
<path d="M 726.933 1000.23 C 728.897 1015.9 740.367 1052.38 745.543 1068.26 C 731.144 1057.63 705.614 1037.75 690.925 1028.62 C 702.39 1018.49 714.412 1009.01 726.933 1000.23 z" fill="rgb(255,255,255)" transform="translate(0,0)"></path>
<path d="M 542.829 885.785 C 554.842 887.28 604.65 894.11 614.388 893.153 C 613.389 893.318 611.753 893.828 610.723 894.112 C 606.972 900.126 607.062 913.345 606.689 920.867 C 605.205 920.938 603.719 920.996 602.234 921.041 C 577.661 921.749 559.877 901.783 542.829 885.785 z" fill="rgb(14,53,69)" transform="translate(0,0)"></path>
<path d="M 225.749 893.808 C 238.41 896.647 257.462 907.881 270.747 912.807 C 313.301 928.584 371.458 922.859 411.38 903.094 C 429.452 913.189 453.328 920.248 472.49 929.643 C 502.157 944.188 532.076 957.904 560.44 975.063 C 576.98 984.9 595.021 998.427 611.149 1009.37 C 620.294 1015.58 643.071 1030.82 649.001 1037.79 C 616.23 1046.57 593.475 1051.44 559.835 1055.27 C 545.061 1055.3 530.704 1056.99 514.93 1056.8 C 466.405 1055.82 418.478 1045.88 373.562 1027.49 C 309.242 1001.17 253.248 959.468 225.749 893.808 z" fill="rgb(10,75,72)" transform="translate(0,0)"></path>
<path d="M 251.214 496.518 C 259.651 482.804 272.608 467.316 282.58 454.597 C 449.071 242.25 714.76 92.7161 988.668 85.927 C 995.14 86.4263 1000.96 86.5982 1007.45 86.7406 C 982.962 87.3137 958.536 89.6526 934.228 91.7581 C 879.824 96.4703 826.59 107.613 776.395 129.488 C 770.31 132.14 761.35 132.897 754.975 135.497 C 726.43 150.751 697.178 164.578 668.943 180.484 C 659.99 185.527 647.533 190.838 639.513 196.49 C 587.544 233.114 533.667 266.677 481.151 302.553 C 464.373 314.015 448.702 328.5 432.938 341.324 C 395.986 367.272 364.681 398.405 331.36 428.68 C 309.079 448.924 282.945 465.935 262.449 488.272 C 258.804 492.27 256.298 496.062 251.214 496.518 z" fill="rgb(33,136,129)" transform="translate(0,0)"></path>
<path d="M 1142.85 1806.88 C 1145.95 1809.23 1166.16 1808.74 1170.27 1808.24 L 1171.09 1808.25 C 1182.6 1809.37 1376.58 1808.52 1377.64 1808.15 C 1390.49 1808.07 1405.25 1808.34 1417.93 1807.85 C 1447.58 1807.37 1477.23 1807.15 1506.89 1807.21 C 1515.13 1807.19 1541.06 1806.58 1548.17 1807.52 C 1324.35 1948.25 1069.06 1996.69 809.752 1939.03 C 798.369 1936.5 747.06 1923.53 737.888 1918.44 C 728.675 1916.2 712.767 1910.11 703.566 1906.79 C 649.948 1887.67 598.134 1863.82 548.738 1835.53 C 536.093 1828.34 517.699 1818 506.07 1809.53 C 511.415 1808.44 531.852 1808.49 538.226 1808.47 L 608.794 1808.89 C 665.329 1809.07 728.249 1806.91 784.214 1808.91 C 794.92 1807.96 825.685 1808.52 837.365 1808.74 C 858.433 1809.13 888.065 1807.5 908.232 1808.97 C 914.096 1810.71 933.281 1809.24 940.981 1809.41 C 973.39 1810.12 1008.28 1806.76 1040.24 1807.93 C 1042.74 1808.36 1051.91 1808.75 1054.36 1808.52 C 1066.07 1807.39 1137.13 1810.79 1142.85 1806.88 z" fill="rgb(14,108,84)" transform="translate(0,0)"></path>
<path d="M 506.07 1809.53 C 511.415 1808.44 531.852 1808.49 538.226 1808.47 L 608.794 1808.89 C 665.329 1809.07 728.249 1806.91 784.214 1808.91 L 782.966 1809.11 C 753.598 1813.54 529.096 1807.49 523.966 1810.92 C 522.387 1811.98 520.816 1814.18 519.652 1815.71 C 526.845 1821.19 548.107 1832.62 556.738 1837.5 C 594.155 1858.64 632.966 1877.21 672.9 1893.09 C 687.639 1898.85 702.429 1904.47 717.269 1909.96 C 725.248 1912.83 727.068 1912.29 737.826 1916.84 C 737.991 1918.36 738.068 1917.97 737.888 1918.44 C 728.675 1916.2 712.767 1910.11 703.566 1906.79 C 649.948 1887.67 598.134 1863.82 548.738 1835.53 C 536.093 1828.34 517.699 1818 506.07 1809.53 z" fill="rgb(14,53,69)" transform="translate(0,0)"></path>
<metadata><recraft-signature>{"signed_by": "recraft", "signature_b64": "PrhXMLVIKw0ZRJWFvqSI3LETThvxfZKtfnZliMcQo2js2C6H61bhBi1kM+ueQMCSvV0x8w+4P5YGgPuzTgM3Ag==", "signing_algo": "Ed25519", "generation_timestamp": 1783498271, "identifier": "5a242542-789f-4c1e-a91d-9d1abdd13162"}</recraft-signature></metadata></svg>