<svg xmlns="http://www.w3.org/2000/svg" height="1024" preserveAspectRatio="none" style="display: block;" version="1.1" viewBox="0 0 2048 2048" width="1024">
<path d="M 0 0 L 2048 0 L 2048 2048 L 0 2048 L 0 0 z" fill="rgb(254,254,254)" transform="translate(0,0)"></path>
<path d="M 1011.57 169.687 C 1007.91 164.058 1006.21 161.274 1005.98 154.482 C 1004.92 123.407 1025.77 100.798 1050.39 84.9855 C 1052.9 83.3739 1053.42 82.7553 1056.46 82.3366 L 1058.56 83.5075 C 1060.06 88.8078 1059.35 92.7339 1059.58 98.0553 C 1060.92 129.542 1048.93 151.433 1023.64 170.794 C 1015.94 202.496 1009.23 226.02 1011.01 259.489 C 1021.79 219.522 1027.47 200.809 1066.08 177.857 C 1068.64 176.339 1070.04 175.5 1073.1 175.377 C 1076.48 179.211 1075.21 190.312 1074.88 195.505 C 1072.56 231.766 1043.45 255.24 1011.11 265.482 C 1011.28 273.256 1011.5 300.418 1013.4 306.819 C 1018.61 324.373 1027.75 340.126 1032.35 359.297 L 1066.52 506.928 C 1070.76 524.925 1075.34 548.694 1080.35 565.898 C 1085.1 552.338 1090.16 535.971 1092.04 521.852 C 1095.08 497.685 1096.54 474.054 1103.82 450.588 C 1105.78 444.257 1108.82 433.029 1109.07 426.652 C 1109.72 410.378 1093.68 396.29 1082.06 388.393 C 1051.86 367.864 1055.3 342.326 1064.59 312.199 C 1071.81 316.784 1074.82 320.939 1080.45 326.997 C 1101.53 349.656 1107.82 363.379 1105.82 394.262 C 1110.34 400.941 1113.48 405.727 1117.31 412.777 C 1127.76 377.766 1153.92 352.427 1177.68 326.196 C 1180.46 323.124 1193.37 307.82 1194.02 305.63 C 1199.35 287.802 1201.42 272.153 1214.72 257.232 C 1224.78 245.941 1240.76 235.163 1254.19 227.726 L 1256.62 227.839 C 1260.1 232.239 1259.02 238.118 1258.46 243.506 C 1255.14 275.572 1238.17 304.807 1204.39 312.014 C 1196.27 326.169 1190.31 335.22 1180.3 348.311 C 1161.87 372.421 1133.11 400.058 1130.24 431.547 C 1138.11 429.859 1145.97 428.129 1153.83 426.358 C 1169.3 402.187 1178.97 400.553 1202.25 384.982 C 1207.22 381.662 1220.12 372.493 1224.78 370.487 C 1228.34 373.521 1228.72 378.667 1229.07 383.117 C 1231.28 411.286 1197.85 447.004 1169.9 449.457 C 1161.49 450.195 1151.97 445.36 1144.92 441.489 C 1138.53 442.757 1132.16 444.101 1125.81 445.519 C 1121.71 466.9 1118.59 488.455 1116.45 510.118 C 1114.41 529.792 1112.94 556.209 1107.92 574.457 C 1105.54 583.114 1095.58 603.123 1091.6 612.461 C 1099.22 638.405 1109.79 661.908 1118.91 687.196 C 1134.49 653.666 1150.46 620.988 1167.81 588.354 C 1181.09 563.373 1193.23 536.056 1207.72 511.905 C 1205.41 481.484 1211.94 457.748 1235.25 436.414 C 1239.16 432.838 1249.28 422.605 1254.51 423.431 C 1258.91 431.307 1257.76 471.564 1254.36 481.802 C 1247.04 503.881 1240.15 502.691 1223.88 514.41 C 1221.4 516.197 1216.05 527.263 1214.38 530.672 L 1156.64 648.034 C 1152.28 657.028 1148.12 666.218 1144.03 675.348 C 1127.84 711.482 1106.86 745.217 1089.6 780.853 C 1083.95 792.512 1076.5 804.797 1073.53 817.538 C 1070.91 831.493 1070.67 850.912 1070.62 865.402 C 1070.49 900.511 1071.12 936.087 1072.18 971.153 C 1115.95 897.233 1140.87 816.038 1164.93 734.201 C 1171.33 712.451 1179.92 690.23 1187.06 669.003 C 1206.35 611.651 1229.34 556.455 1262.4 505.579 C 1273.09 489.13 1285.01 472.121 1294.11 454.837 C 1296.87 449.132 1299.34 426.385 1303.51 416.168 C 1311.33 397.017 1320.47 379.552 1328.86 360.753 C 1331.94 354.165 1330.88 347.214 1331.93 340.37 C 1335.09 319.603 1348.08 301.731 1365.36 290.183 C 1370.76 286.575 1383.53 274.85 1389.76 279.107 C 1394.08 289.058 1392.43 309.408 1388.15 319.509 C 1380.56 337.417 1369.38 346.366 1352.15 353.669 C 1351.44 353.965 1350.74 354.256 1350.03 354.543 C 1337.27 373.576 1320.76 416.781 1313.81 439.449 C 1340.38 409.021 1363.72 385.899 1406.86 380.882 C 1409.53 380.571 1411.69 380.526 1414.12 381.638 C 1415.67 387.13 1410.24 404.094 1408.18 409.595 C 1398.98 434.14 1381.26 451.344 1355.67 457.905 C 1341.77 461.468 1326.87 462.967 1313.58 457.015 C 1296.99 483.056 1254.21 549.153 1245.56 575.297 L 1245.13 576.546 L 1244.89 577.299 C 1276.64 562.13 1300.79 554.275 1335.86 548.379 C 1345.32 546.788 1368.3 543.617 1376.05 541.577 C 1389.03 528.115 1405.09 512.509 1414.83 496.834 C 1395.27 462.441 1436.98 432.816 1464.33 421.002 C 1482.47 454.948 1464 489.884 1428.42 498.506 C 1419.56 513.85 1413.83 522.892 1401.94 536.492 C 1425.45 536.309 1459.94 517.633 1480.55 506.534 C 1488.97 487.47 1507.03 461.139 1527.36 453.598 C 1537.96 449.665 1554.23 447.85 1565.13 451.057 C 1574.38 461.438 1544.04 500.539 1532.94 507.032 C 1517.92 515.819 1506.66 516.922 1489.92 517.718 C 1468.39 536.354 1442.58 545.573 1415.71 553.687 C 1437.67 575.161 1457.41 586.403 1440.54 620.181 C 1454.43 608.462 1483.3 585.268 1498.64 577.12 C 1514.85 547.834 1524.04 527.391 1557.59 515.732 C 1566.1 512.775 1573.12 505.951 1583.27 505.99 C 1589.3 509.654 1584.49 516.259 1583.7 522.067 C 1581.65 537.052 1579.69 551.379 1570.41 563.88 C 1551.33 591.013 1522.62 592.717 1493.49 600.545 C 1489.49 601.621 1478.05 611.126 1473.84 614.51 C 1481.51 628.672 1481.57 642.504 1479.79 657.865 C 1481.67 661.553 1482.87 662.193 1482.35 665.47 C 1475.5 669.033 1462.72 658.96 1457.31 654.326 C 1452.31 650.043 1450.03 645.958 1446.92 640.326 C 1411.57 665.333 1365.8 681.944 1327.73 702.709 C 1322.78 705.41 1308.4 711.45 1305.91 713.548 L 1306.7 714.525 C 1311.53 714.828 1318.42 713.734 1323.19 712.705 C 1363.33 704.041 1372.4 726.633 1390.56 753.869 C 1373.31 761.652 1355.46 765.145 1337.12 757.908 C 1330.13 755.187 1323.9 750.838 1318.93 745.224 C 1312.59 737.959 1304.33 717.837 1294.12 722.36 C 1288.47 724.865 1276.48 734.109 1271.23 737.976 C 1274.67 748.548 1284.64 804.89 1286.11 817.427 C 1290.78 816.835 1294.29 815.889 1298.67 817.372 C 1303.67 822.276 1318.92 885.786 1322.33 897.455 C 1325.3 907.623 1334.59 937.294 1335.7 946.56 C 1318.8 955.908 1274.28 974.341 1255.57 979.864 C 1246.21 958.554 1240.25 929.827 1233.21 907.147 C 1228.58 892.204 1216.62 861.854 1216.08 848.084 C 1219.46 841.126 1242.95 833.879 1251.68 828.788 C 1244.16 797.095 1247.33 779.948 1258.67 748.737 C 1241.66 762.718 1163.64 829.021 1156.74 848.68 C 1135.65 908.775 1105.63 951.046 1075.99 1005.56 C 1083.79 1039.31 1078.66 1042.84 1079.02 1073.88 C 1079.37 1104.58 1079.2 1161.83 1085.72 1190.8 C 1095.58 1180.88 1106.01 1168.56 1116.3 1159.52 C 1176.28 1106.83 1233.32 1052.3 1290.04 996.095 C 1319.6 966.796 1362.21 944.595 1384.96 908.321 C 1395.48 887.851 1407.85 868.539 1416.55 847.085 C 1429.22 815.875 1436.06 787.153 1448.55 755.167 C 1469.95 700.36 1507.48 613.623 1575.85 609.06 C 1582.1 608.644 1616.04 614.862 1622.93 617.183 C 1616.4 624.385 1603.73 642.077 1597.31 646.872 C 1577.14 661.958 1552.57 667.274 1530.59 681.945 C 1539.44 708.119 1533.53 723.096 1516.08 743.536 C 1512.31 747.95 1508.78 752.978 1504.73 757.223 C 1499.81 742.166 1496.25 732.88 1495.81 716.834 C 1483.61 741.492 1472.95 766.881 1463.89 792.856 C 1453.54 823.137 1446.75 849.114 1434.81 879.387 C 1474.04 855.838 1516.16 834.242 1556.3 812.15 C 1570.39 804.397 1587.75 798.726 1602.44 791.907 C 1606.29 783.971 1608.94 776.91 1610.88 768.239 C 1597.37 729.44 1617.18 712.252 1647.5 692.605 C 1648.7 691.83 1650.5 692.064 1651.81 692.27 C 1653.62 694.974 1653.18 712.271 1653.52 717.141 C 1654.75 735.228 1646.82 754.431 1631.59 764.616 C 1629.12 766.25 1626.59 767.789 1624.01 769.228 C 1620.35 776.721 1617.43 783.012 1614.27 790.715 C 1637.5 785.227 1653.7 772.26 1670.11 754.858 C 1666.46 711.447 1696.55 691.678 1733.6 678.732 C 1738.61 676.984 1746.47 673.693 1751.63 675.032 C 1753.54 677.853 1753.31 680.796 1752.62 684.054 C 1745.14 719.49 1722.88 757.985 1682.43 759.123 C 1673.46 767.407 1663.22 777.4 1654.08 785.088 C 1675.38 784.671 1677.88 787.62 1698.06 794.946 C 1700.66 795.892 1710.64 794.641 1714.2 794.895 C 1732.34 796.19 1746.69 802.237 1759.52 815.152 C 1766.61 822.276 1772.89 830.114 1779.24 837.693 C 1768.12 843.524 1758.74 845.359 1746.25 845.5 C 1713.15 845.874 1694.29 833.551 1688.5 800.144 C 1675.72 796.881 1659.22 792.471 1646.16 794.395 C 1641.7 797.52 1632.72 805.19 1629.03 807.213 C 1612.05 816.538 1591.47 823.948 1574.88 833.527 C 1592.94 833.08 1618.47 836.098 1632.33 849.053 C 1640.19 856.4 1653.63 880.512 1652.52 890.883 C 1649.28 893.344 1645.88 893.469 1641.9 892.817 C 1620.78 889.361 1597.91 880.793 1588.64 859.748 C 1586.52 854.941 1586.35 849.657 1585.9 844.392 C 1579.4 843.85 1565.88 842.337 1560.31 844.222 C 1542.38 850.286 1522.36 862.34 1505.29 871.108 C 1488.06 879.777 1470.6 887.988 1452.94 895.734 C 1467 901.353 1476.98 901.694 1491.55 904.235 C 1502.56 906.155 1553.71 929.918 1550.38 942.685 C 1545.45 946.493 1537.32 943.402 1531.73 942.147 C 1497.09 934.373 1481.07 929.978 1455.18 905.935 C 1451.66 905.52 1448.15 905.069 1444.64 904.582 C 1428.59 914.599 1415.41 923.697 1402.27 937.648 C 1387.9 952.907 1375.51 970.491 1359.92 984.461 C 1327.85 1013.2 1291.01 1036.57 1260.61 1067.34 C 1250.09 1077.99 1240.67 1090.57 1231.66 1102.59 C 1263.16 1094.58 1294.87 1087.44 1326.76 1081.18 C 1361.5 1074.45 1395.52 1069.58 1428.76 1057.53 C 1430.04 1057.08 1434.9 1054.5 1436.38 1053.75 C 1446.54 1050.65 1456.22 1045 1466.78 1043.18 C 1472.17 1042.25 1481.6 1045.35 1486.51 1044.81 C 1513.75 1041.82 1547.62 1038.67 1570.62 1023.65 C 1572.17 1007.94 1572.25 993.656 1583 980.664 C 1595.55 965.501 1620.78 960.994 1639.4 958.987 C 1635.86 976.892 1621.75 1006.84 1602.42 1012.42 C 1580.55 1018.74 1583.32 1013.68 1573.33 1036.52 C 1600.22 1027.82 1614.2 1014.08 1641.85 1017.65 C 1653.37 1012.03 1663.16 1007.38 1676.23 1006.75 C 1686.15 1006.27 1729.37 1014.75 1727.8 1025.49 C 1721.72 1034.51 1705.65 1044.8 1695.1 1048.21 C 1679.46 1053.26 1661.62 1052.23 1649.29 1040.33 C 1644.96 1036.15 1639.75 1030.09 1634.5 1027.53 C 1631.9 1026.27 1628.43 1026.51 1625.79 1027.5 C 1611.27 1032.94 1597.34 1039.27 1582.77 1044.94 C 1569.58 1050.08 1552.61 1053.62 1540.8 1058.59 C 1527.69 1064.1 1516.48 1071.07 1502.13 1076.68 C 1516.79 1086.23 1519.88 1098.98 1521.93 1115.75 C 1522.61 1121.27 1524.81 1136.76 1521.54 1140.92 C 1518.04 1141.7 1517.95 1141.08 1514.73 1140.64 C 1482.27 1136.23 1456.18 1082.13 1495.41 1068.57 C 1501.41 1066.5 1507.58 1063.25 1513.45 1060.21 C 1468.8 1065.86 1450.57 1073.11 1407.88 1087.12 C 1427.32 1127.91 1418.06 1158.55 1420.83 1202.9 C 1457.83 1233.23 1444.99 1286.72 1398.64 1290.89 C 1386.03 1292.05 1373.49 1288.09 1363.84 1279.91 C 1347.67 1265.94 1343.73 1241.58 1353.34 1222.86 C 1357.28 1215.19 1361.33 1210.9 1367.04 1204.51 C 1367.2 1168.69 1363.69 1125.04 1377.91 1092.73 C 1346.13 1099.31 1314.72 1108.33 1282.6 1115.42 C 1254.08 1121.71 1221.74 1125.98 1194.23 1135.69 C 1185.53 1140.11 1175.3 1149.24 1168.82 1155.92 C 1146.67 1178.62 1126.15 1202.97 1106.22 1227.59 C 1090.73 1246.74 1093.26 1260.02 1092.98 1283.13 C 1092.21 1345.14 1099.97 1406.79 1103.12 1468.63 C 1104.35 1492.69 1104.05 1517 1105.29 1541.09 C 1111.32 1637.91 1114.71 1734.35 1129.19 1830.46 C 1137.27 1884.06 1206.54 1916.95 1251.56 1935.4 C 1260.8 1939.19 1286.01 1945.62 1291.98 1951.64 C 1291.71 1954.87 1292.27 1953.4 1289.88 1956.03 C 1282 1958.89 1269.48 1957.23 1260.85 1956.33 C 1218.42 1951.95 1169.44 1943.57 1130.22 1926.74 C 1133.33 1933.32 1145.67 1952.63 1145.68 1956.48 C 1135.44 1966.05 1085.5 1934.32 1075.06 1926.31 C 1066.67 1938.1 1050.02 1959.98 1035.59 1964 C 1032.35 1963.3 1033.6 1964.13 1031.71 1961.39 C 1030.36 1952.88 1037.02 1933.71 1039.29 1923.36 C 1015.65 1934.32 993.328 1954.52 964.779 1960.43 C 958.303 1961.78 942.695 1967.24 936.899 1963.95 C 938.317 1957.66 961.818 1935.76 967.987 1929.54 C 933.117 1942.86 902.193 1954.06 863.304 1951.81 C 875.32 1945.93 888.876 1940.97 901.141 1935.07 C 933.249 1919.62 967.521 1895.9 987.922 1866.35 C 995.977 1854.64 1002.02 1841.66 1005.8 1827.96 C 1018.35 1783.01 1020.34 1679.13 1017.74 1631.63 C 1015.08 1588.84 1010.18 1546.27 1007.82 1503.44 C 1004.12 1436.26 1003.73 1369.9 991.319 1303.46 C 972.129 1285.73 950.346 1272.75 927.705 1257.79 C 873.61 1222.05 806.017 1187.25 740.134 1185.16 C 702.347 1183.96 654.694 1227.91 629.036 1253.43 C 628.643 1272.75 632.938 1288.97 633.61 1307.9 C 634.058 1320.5 629.376 1335.32 631.521 1348.35 C 633.14 1358 646.978 1359.1 654.601 1365.05 C 688.913 1391.82 674.356 1447.08 629.702 1452.57 C 616.878 1454.08 603.976 1450.46 593.814 1442.49 C 583.692 1434.45 577.69 1422.57 576.471 1409.77 C 575.248 1396.19 579.651 1382.7 588.651 1372.46 C 597.272 1362.42 609.686 1356.43 622.908 1355.92 L 624.383 1355.87 C 624.587 1341.72 629.259 1326.54 628.923 1314.43 C 628.378 1294.84 624.979 1277.72 624.435 1257.31 C 604.227 1269.96 589.909 1272.05 570.515 1255.75 C 579.376 1255.37 591.698 1255.09 599.629 1251.27 C 615.831 1243.46 628.903 1226.4 642.382 1214.4 C 660.759 1198.04 675.618 1187.42 697.845 1177.85 C 671.938 1175.35 645.234 1174.96 619.82 1171.64 C 610.228 1170.39 591.471 1164.68 580.503 1162.34 C 573.145 1165.31 570.266 1166.58 563.516 1170.65 C 565.243 1193.79 553.734 1208.83 535.805 1221.88 C 526.757 1228.47 502.237 1237.96 491.576 1235.86 C 489.384 1231.05 493.063 1221.93 494.533 1217.39 C 503.998 1188.19 528.625 1168.68 559.154 1165.62 C 562.765 1165.26 570.882 1161.1 574.499 1159.34 C 549.701 1150.61 536.141 1144.67 512.297 1134.22 C 480.719 1120.37 467.028 1115.96 437.617 1096.73 C 433.053 1116.76 426.659 1129.43 409.785 1142.02 C 395.912 1151.89 379.546 1158.4 362.458 1159.37 C 357.141 1159.67 352.877 1161.98 349.565 1157.07 C 349.604 1148.24 361.347 1127.01 367.703 1119.61 C 386.621 1097.58 407.295 1094.65 434.218 1092.49 C 421.243 1084.48 398.646 1069.65 384.783 1061.49 C 380.684 1062.63 369.278 1067.44 365.737 1067.71 C 332.741 1070.25 305.888 1038.07 301.085 1007.82 C 300.679 1005.25 302.282 1004.17 303.811 1002.75 C 313.009 999.838 329.54 1004.71 338.624 1007.78 C 355.683 1013.54 373.553 1029.23 381.135 1045.68 L 381.723 1046.99 C 412.746 1068.1 441.985 1089.1 477.279 1102.27 C 464.611 1081.7 460.517 1081.13 442.064 1065.98 C 430.189 1056.23 423.37 1038.52 422.977 1023.31 C 422.847 1018.26 422.87 1005.17 426.24 1001.44 C 428.727 1000.73 431.08 1000.96 433.418 1002.27 C 453.021 1011.78 481.413 1036.18 478.485 1060.93 C 475.775 1083.85 475.445 1080.58 482.309 1103.89 C 517.012 1114.2 541.239 1128.26 577.088 1138.49 C 564.7 1107.05 558.89 1099.4 556.871 1063.39 C 548.277 1053.25 542.219 1045.95 538.081 1033 C 531.529 1011.76 533.539 988.807 543.683 969.034 C 568.577 984.786 583.838 1010.91 576.991 1040.69 C 575.289 1048.09 567.807 1059.78 570.192 1067.89 C 577.893 1094.05 589.135 1126.38 609.845 1145.13 C 619.753 1151.65 662.678 1153.66 676.497 1154.93 C 705.283 1157.58 733.251 1161.51 761.701 1166.5 C 798.584 1172.97 838.097 1175.77 872.348 1191.24 C 904.785 1205.88 931.598 1226.76 960.403 1247.12 C 949.582 1232.11 939.127 1211.4 929.789 1195.07 C 907.325 1155.78 886.225 1115.04 864.862 1075.26 C 856.066 1058.88 834.515 1019 821.995 1007.27 C 791.556 978.761 725.96 968.181 687.611 954.029 C 654.847 941.919 622.986 927.493 592.27 910.861 C 562.921 894.632 532.157 873.944 508.804 849.868 C 494.343 834.959 479.73 820.089 465.575 804.899 L 464.856 806.329 C 478.599 823.529 493.749 836.765 506.22 854.227 C 490.97 844.524 461.732 843.646 443.134 840.252 C 440.305 856.179 438.595 867.508 424.611 877.972 C 416.826 883.798 392.818 888.556 383.523 886.023 C 381.679 881.652 385.969 871.852 387.83 867.301 C 394.143 851.864 403.411 844.079 417.675 836.934 C 405.083 833.642 392.085 830.123 379.234 828.101 C 374.272 836.835 371.923 842.772 365.563 850.923 C 348.765 872.454 326.717 873.118 301.422 871.21 C 309.984 850.281 321.74 829.314 343.894 820.526 C 349.906 818.082 356.347 816.869 362.836 816.961 C 387.239 817.413 421.704 832.888 447.482 834.525 C 460.565 835.356 474.427 836.973 487.54 838.189 C 466.412 816.87 446.405 794.466 427.603 771.07 C 421.021 799.402 375.434 802.047 356.064 783.157 L 355.491 782.605 C 368.098 766.791 379.717 752.952 401.281 750.528 C 402.104 750.438 402.929 750.357 403.754 750.286 C 393.045 739.165 382.031 728.342 370.725 717.829 C 368.025 715.268 360.263 707.554 357.696 705.811 C 356.134 710.492 356.952 710.467 352.007 712.839 C 322.961 726.772 287.536 708.065 275.958 679.691 C 273.985 674.856 270.865 669.498 272.33 664.34 C 276.252 660.719 283.311 659.604 288.45 658.454 C 322.18 650.906 339.318 669.907 355.085 695 C 381.048 709.223 398.56 725.844 418.885 746.837 C 445.173 773.989 473.266 798.581 499.836 825.712 C 494.745 779.848 508.443 780.112 532.94 745.226 C 532.66 755.566 532.505 765.908 532.473 776.252 C 532.62 802.147 533.685 816.37 514.056 836.609 C 523.436 845.046 536.966 856.218 546.859 863.346 C 560.95 873.499 626.344 912.797 639.661 913.19 L 641.007 911.88 C 640.548 909.182 640.131 907.026 637.461 905.755 C 608.095 891.774 604.668 842.818 621.855 817.255 C 622.765 815.916 623.71 814.601 624.689 813.312 C 660.21 845.651 654.913 873.987 647.007 916.646 C 695.737 933.631 742.305 944.982 791.479 963.3 C 777.244 949.021 762.289 927.656 748.443 912.131 C 730.881 892.439 712.033 873.493 696.3 852.42 C 668.048 814.578 646.773 756.46 608.959 727.879 C 614.565 728.662 619.138 729.379 624.841 729.511 C 662.875 763.854 672.325 805.083 702.436 844.764 C 715.875 862.476 731.077 878.018 745.925 894.518 C 762.735 913.488 778.858 933.056 794.261 953.184 C 799.702 960.414 809.145 972.502 813.362 980.134 C 756.57 960.209 699.231 945.653 643.413 925.477 L 642.808 927.278 C 665.158 936.73 684.623 944.443 707.933 951.246 C 742.107 961.22 779.424 970.684 810.969 987.619 C 844.877 1005.82 865.751 1053.16 882.953 1086.26 C 897.149 1114.02 911.792 1141.56 926.878 1168.85 C 937.263 1187.95 947.954 1206.89 958.949 1225.64 C 965.751 1237.05 972.888 1248.25 979.441 1259.79 C 981.109 1262.73 979.199 1265.29 976.782 1266.95 C 969.143 1266.46 950.756 1252.04 944.24 1246.88 C 923.905 1230.78 904.037 1219.08 881.3 1206.82 C 852.138 1191.1 820.806 1190.55 790.438 1181.49 L 791.988 1184.03 C 810.298 1188.04 828.226 1193.62 845.572 1200.72 C 889.62 1219.03 966.394 1265.59 999.524 1298.38 C 1002.72 1310.5 1004.93 1328.29 1006.91 1340.93 C 1016.03 1399.07 1014.54 1457.46 1017.86 1516.08 C 1019.21 1548.02 1024.29 1579.91 1026.32 1611.75 C 1030.18 1672.37 1030.02 1732.35 1022.09 1792.68 C 1015.72 1841.16 1001.81 1876.18 961.986 1906.99 C 949.124 1916.95 932.733 1927.1 920.98 1937 L 919.952 1937.87 C 936.484 1934.79 951.321 1926.17 965.649 1917.95 C 971.081 1914.84 986.665 1904.05 991.096 1910.75 C 990.171 1921.68 965.893 1945.93 958.039 1953.17 C 979.927 1948 1000.35 1936.12 1019.19 1924.14 C 1025.7 1919.99 1038.7 1911.05 1045.65 1908.75 C 1055.13 1913.43 1045.11 1939.39 1042.55 1947.15 C 1056.35 1934.2 1060.24 1917.68 1073.27 1907.77 C 1075.58 1906.01 1080.51 1910.38 1082.34 1912.66 C 1096.47 1930.27 1107.91 1937.56 1128.76 1945.96 C 1125.65 1939.22 1118.57 1925.3 1117.28 1918.43 C 1122.6 1907.07 1142.82 1921.78 1151.03 1924.68 C 1166.53 1930.16 1181.02 1933.17 1197.04 1936.36 C 1181.75 1923.55 1170.18 1919 1154.57 1909.07 C 1118.52 1886.13 1106.04 1825.43 1098.91 1784.85 C 1082.19 1689.62 1083.32 1589.95 1079.19 1493.01 L 1074.18 1387.74 C 1072.64 1356.56 1066.32 1266.43 1084.98 1240.18 C 1110.55 1204.22 1149.36 1160.25 1183.71 1131.61 C 1198.18 1119.54 1264.07 1115.08 1284.37 1107.57 C 1330.01 1095.71 1377.72 1087.95 1423.03 1073.7 C 1441.73 1067.82 1461 1059.42 1480.09 1056.07 C 1503.73 1053.24 1540.92 1050 1561.52 1039.17 C 1533.89 1046.27 1510.06 1049.47 1481.92 1053.53 C 1455.77 1055.94 1427.6 1069.43 1402.16 1075.6 C 1370.8 1083.21 1338.24 1088.48 1306.53 1095.33 L 1253.89 1107.07 C 1244.48 1109.21 1231.3 1112.74 1222.04 1113.71 L 1219.89 1111.89 C 1219.39 1110.28 1218.55 1107.62 1219.46 1106 C 1248.42 1054.91 1299.35 1021.92 1343.94 985.808 C 1362.57 970.72 1373.83 955.994 1389.13 938.069 C 1407.7 916.309 1437.55 893.107 1463.72 880.634 C 1503.18 862.452 1540.61 838.436 1580.94 822.419 C 1601.02 814.448 1617.24 806.102 1636.26 796.12 C 1621.95 798.673 1612.13 802.838 1598.75 807.57 C 1538.16 829.003 1484.8 865.881 1426.97 892.96 C 1424.81 893.973 1422.55 892.968 1420.58 891.942 L 1420.39 890.057 C 1425.3 881.076 1431.96 859.273 1435.75 848.894 C 1454.88 796.5 1473.93 713.67 1518.38 677.401 C 1512.06 672.86 1509.6 671.572 1502.55 668.155 C 1483.86 690.307 1460.13 747.494 1450.41 776.544 C 1433.68 830.519 1415.39 883.897 1381.4 929.74 C 1377.27 935.306 1370 941.069 1364.92 945.962 C 1343.31 966.75 1316.42 983.593 1294.59 1003.7 L 1125.63 1161.73 C 1118.21 1168.75 1080.64 1208.73 1075.53 1210.94 C 1073.73 1209.6 1073.62 1209.74 1073.08 1206.58 C 1071.27 1196.04 1070.2 1184.61 1068.61 1174.05 C 1064.62 1149.12 1062.14 1123.48 1062.9 1098.31 C 1063.98 1062.42 1069.02 1032.34 1059.44 997.048 C 1058.09 992.066 1059.1 954.414 1059.01 946.238 C 1058.45 916.29 1058.36 886.335 1058.74 856.384 C 1059.25 831.325 1058.18 818.119 1069.58 795.297 C 1085.02 764.362 1099.67 732.932 1117.14 703.015 C 1109.58 692.345 1076.39 616.104 1080.46 604.872 C 1086.82 587.349 1095.76 561.258 1099.45 536.372 L 1097.39 535.534 C 1095.71 544.404 1086.43 586.207 1076.35 586.208 C 1071.77 581.601 1067.39 565.109 1065.3 558.269 C 1055.67 527.962 1047.71 497.152 1041.45 465.977 C 1035.36 435.405 1031.69 403.957 1025.32 373.4 C 1024.25 368.311 1017.04 335.608 1015.46 333.378 C 1015.11 334.883 1018.33 364.162 1018.81 367.483 C 1023.35 398.821 1030.88 430.514 1030.36 462.269 C 1030.32 464.931 1025.43 466.855 1023.29 467.468 C 1024.88 473.114 1039.54 486.531 1040.51 493.96 C 1050.56 570.812 1085.54 636.018 1089.8 714.099 C 1081.36 726.331 1071.7 739.714 1065.36 753.068 C 1036.07 814.803 1031.18 885.694 1018.05 951.161 C 1008.42 942.42 995.81 922.197 988.378 910.747 C 972.675 886.557 955.167 861.28 941.324 836.052 C 927.615 811.068 915.316 784.216 903.016 758.499 C 895.25 742.26 884.048 723.713 879.664 706.389 C 864.508 646.499 859.789 582.522 855.755 521.144 C 852.439 526.115 854.065 542.994 853.152 550.018 C 852.083 612.829 866.918 656.654 877.553 716.668 C 843.661 657.381 791.521 605.502 738.614 563.045 C 735.879 560.78 732.518 557.344 729.218 556.829 C 730.218 560.391 733.984 562.766 737.01 565.122 C 753.738 579.201 770.231 593.118 786.129 608.452 C 827.401 648.259 860.34 696.961 890.144 745.689 C 905.405 770.637 916.197 799.887 929.434 825.905 C 957.918 882.176 987.469 937.717 1022.37 990.323 C 1033.04 1006.41 1038.28 1031.47 1040.15 1050.46 C 1042.5 1102.69 1037.52 1157.03 1035.59 1209.22 C 1035.01 1222.15 1034.96 1235.1 1035.43 1248.03 C 1035.79 1258.54 1038.08 1279.56 1034.02 1288.48 C 1032.17 1289.66 1030.64 1290.12 1028.39 1289.58 C 1019.08 1287.33 983.78 1225.76 976.566 1214.26 C 932.091 1143.43 886.386 1073.39 839.471 1004.15 C 824.916 983.061 810.147 962.119 795.166 941.329 C 784.503 926.466 766.17 901.77 758.718 885.941 C 746.201 859.35 733.161 816.73 727.514 787.57 L 725.496 789.395 C 733.999 824.45 739.931 851.953 751.278 887.14 C 730.572 871.67 694.327 827.912 682.069 805.591 C 669.201 782.161 658.067 758.443 643.798 734.891 C 644.821 722.627 649.287 685.952 648.521 675.827 C 642.945 686.972 645.823 716.396 639.864 730.93 C 627.669 720.823 613.027 704.436 600.272 692.754 C 584.983 677.444 565.336 661.787 551.19 646.164 C 545.546 639.93 534.711 618.941 529.929 610.619 L 528.782 612.139 C 532.343 620.069 545.309 644.589 551.154 649.999 C 566.963 664.628 583.422 678.537 598.723 694.233 C 605.925 701.642 616.457 714.056 621.638 722.776 C 597.605 726.922 569.284 729.81 544.857 732.468 C 546.777 737.376 549.012 740.675 546.415 745.46 C 537.942 749.994 510.693 745.589 502.697 739.171 C 495.439 733.345 469.317 707.613 476.159 699.164 C 485.504 694.866 507.107 695.959 516.011 701.347 C 521.147 704.454 528.287 712.889 535.137 713.326 C 559.683 714.891 582.508 714.892 606.895 713.507 C 588.733 694.592 562.763 668.972 543.674 651.303 C 534.212 642.544 488.916 614.699 476.574 608.386 C 464.319 632.36 468.016 658.703 443.89 676.646 C 434.348 683.742 425.71 691.541 414.613 696.519 C 411.887 655.253 422.659 609.873 470.76 604.43 C 457.709 596.927 444.195 591.01 431.028 583.851 C 427.091 581.71 427.532 576.276 421.525 575.348 C 422.196 578.285 422.274 577.193 421.741 579.997 C 407.652 584.557 386.503 580.469 373.107 575.044 C 361.411 570.307 334.327 541.278 340.197 529.353 C 348.368 524.687 367.651 522.931 376.803 525.622 C 397.714 531.769 409.734 548.394 420.384 565.655 C 453.143 579.741 497.073 604.834 527.027 623.807 C 522.16 610.861 518.585 602.196 514.508 588.762 C 508.782 583.452 501.112 577.932 494.953 572.45 C 479.026 558.274 467.603 539.933 463.309 518.949 C 460.936 507.353 462.032 485.353 468.622 475.234 C 469.749 474.707 471.016 473.724 472.072 474.33 C 499.678 490.173 521.64 521.257 521.031 554.045 C 521.653 560.055 520.829 574.413 523.345 579.486 C 530.977 594.877 543.57 613.101 552.371 627.612 C 563.413 627.181 574.448 626.597 585.474 625.86 C 571.974 606.828 558.744 589.922 557.725 565.605 C 557.051 549.542 560.042 528.689 571.154 516.41 C 587.391 532.416 601.739 556.874 600.334 580.476 C 599.508 594.345 594.268 607.802 594.697 621.523 C 594.755 623.396 596.405 625.215 598.031 625.973 C 615.894 634.303 632.045 643.583 648.776 653.993 C 650.982 646.189 654.093 637.716 656.748 629.979 C 655.081 622.132 653.932 610.281 651.736 603.196 C 647.523 589.599 666.172 548.102 678.623 546.768 C 680.002 547.368 681.893 548.312 682.421 549.79 C 693.597 581.081 692.954 625.275 662.915 644.756 L 662.513 641.38 C 661.197 643.604 658.009 655.743 657.08 659.017 C 666.249 667.729 676.568 675.709 686.033 684.681 C 685.329 652.379 687.084 622.826 696.373 591.623 C 700.429 577.997 705.987 564.953 709.793 551.7 C 697.141 543.982 675.328 526.05 666.024 521.59 C 646.983 515.339 629.656 514.908 615.429 498.653 C 606.658 488.632 592.544 447.622 605.249 438.81 C 607.01 438.664 608.319 438.666 609.95 439.628 C 643.652 459.501 656.574 472.152 670.53 508.055 C 685.951 517.056 704.143 527.769 718.885 537.522 C 720.107 503.289 718.48 469.014 714.022 435.051 C 710.291 408.256 705.777 382.388 699.998 355.989 C 697.775 345.837 696.514 334.006 694.138 323.998 C 690.977 311.965 684.613 301.215 682.843 288.712 C 679.2 262.976 693.808 237.524 712.387 220.973 C 713.934 219.595 716.893 219.163 718.931 219.652 C 721.636 223.054 723.273 235.227 724.559 239.989 C 733.849 274.4 718.653 293.752 702.537 322.453 C 703.062 341.034 716.988 394.41 722.321 414.405 C 723.807 410.331 725.046 405.784 725.449 401.524 C 728.675 367.409 746.858 331.972 779.329 317.55 C 783.831 315.55 788.757 312.873 793.898 312.697 C 801.568 317.569 789.969 349.27 786.985 357.242 C 777.581 382.365 752.137 389.35 734.273 406.247 C 729.997 410.292 726.025 416.532 722.602 421.544 C 722.963 426.439 723.749 432.281 724.562 437.144 C 730.632 473.442 730.996 508.208 730.865 544.87 C 740.76 555.431 759.439 568.002 771.196 577.926 C 800.542 602.698 833.787 636.655 855.244 668.325 C 847.615 633.727 847.364 587.344 834.927 557.607 C 818.92 550.184 802.929 543.358 792.224 528.635 C 778.544 509.822 776.921 485.123 780.429 462.849 C 782.15 463.492 783.834 464.228 785.474 465.055 C 814.051 479.812 826.591 506.839 833.184 535.473 C 834.027 539.135 838.9 545.27 840.8 551.487 C 842.941 536.491 843.38 519.775 843.313 504.317 C 843.085 451.576 845.783 399.651 851.936 347.275 C 852.7 340.77 851.988 335.098 853.969 328.647 L 855.019 328.857 C 858.869 338.678 858.739 363.733 859.405 375.79 C 861.271 405.091 862.703 434.418 863.701 463.761 C 864.376 479.948 864.56 499.11 865.953 515.017 C 868.151 489.708 878.262 473.559 898.614 458.336 C 909.665 450.069 918.573 444.36 932.576 442.891 C 928.254 485.768 907.487 507.591 873.079 529.871 C 866.533 573.822 874.73 634.771 883.053 678.911 C 887.622 663.539 888.581 647.238 894.164 631.296 C 903.327 605.13 916.514 588.28 941.216 575.898 C 937.235 597.1 941.077 611.49 931.875 632.556 C 921.04 657.357 902.083 666.187 885.492 685.945 C 892.091 717.822 911.08 750.391 924.502 779.911 C 948.049 831.697 981.031 876.961 1011.65 924.491 C 1018.23 863.263 1032.82 801.669 1060.45 746.352 C 1066.46 734.307 1075.31 723.751 1081.17 711.57 C 1080.31 693.742 1077.83 676.028 1073.76 658.649 C 1066.45 627.114 1055.86 596.558 1046.98 565.138 C 1040.99 543.965 1036.16 517.667 1029.08 497.019 C 1026 488.012 1008.24 475.435 1000.09 470.354 L 1000.75 474.411 C 1007.57 517.317 990.895 535.886 961.614 564.448 C 957.944 568.027 953.908 578.009 948.781 578.643 L 948.049 577.003 C 949.41 565.634 952.176 559.458 954.507 549.427 C 962.313 515.829 971.017 502.521 990.255 474.774 C 978.008 468.909 947.322 449.25 936.846 439.286 C 930.784 432.582 925.925 421.734 919.362 415.647 C 890.041 388.451 882.492 353.729 898.342 315.562 L 900.406 315.146 C 906.513 317.125 909.287 322.257 913.05 326.95 C 929.458 347.412 937.061 379.28 931.975 405.114 C 945.261 421.85 970.069 438.483 988.545 449.165 C 983.379 415.61 976.367 371.582 984.357 339.106 C 995.609 353.879 996.745 363.733 998.262 381.775 L 1001.06 381.341 C 1001.57 352.842 1000.18 324.34 996.907 296.026 C 964.368 300.951 939.642 231.454 953.77 205.264 C 954.942 203.091 957.178 203.383 959.216 203.446 C 968.655 208.323 972.64 219.588 979.045 227.334 C 994.104 245.547 991.22 265.693 995.778 287.753 C 998.115 235.885 993.881 224.017 1011.57 169.687 z" fill="rgb(4,4,2)" transform="translate(0,0)"></path>
<path d="M 691.571 701.526 C 693.746 704.087 694.098 705.389 696.807 706.377 C 698.619 701.577 694.862 673.825 695.02 665.65 C 695.608 635.149 699.711 606.635 711.732 578.355 C 712.858 575.706 717.932 563.952 719.955 563.021 C 719.112 566.689 714.826 574.699 713.166 578.967 C 708.909 590.214 705.423 601.736 702.731 613.456 C 696.176 642.132 694.537 681.171 701.61 710.53 C 703.271 717.426 711.62 734.185 714.664 742.266 C 720.719 758.346 723.774 771.053 727.514 787.57 L 725.496 789.395 C 720.256 761.792 708.765 725.24 690.688 703.261 L 691.571 701.526 z" fill="rgb(206,207,210)" transform="translate(0,0)"></path>
<path d="M 546.85 1138.02 C 574.586 1145.44 607.458 1158.03 635.779 1160.92 C 657.686 1163.15 682.396 1165.85 704.323 1167.11 L 699.376 1168.09 C 686.936 1167.76 673.798 1165.87 661.897 1165.48 C 618.529 1164.04 586.087 1158.82 546.85 1138.02 z" fill="rgb(254,254,254)" transform="translate(0,0)"></path>
<path d="M 852.833 470.028 C 852.944 467.236 852.703 461.59 853.933 459.674 L 855.104 462.549 C 855.119 482.083 855.336 501.615 855.755 521.144 C 852.439 526.115 854.065 542.994 853.152 550.018 C 852.202 524.149 853.424 496.451 852.833 470.028 z" fill="rgb(206,207,210)" transform="translate(0,0)"></path>
<path d="M 722.667 1169.87 C 735.715 1169.83 775.834 1178.36 790.438 1181.49 L 791.988 1184.03 C 769.494 1178.81 745.736 1174.96 722.879 1171.3 L 722.667 1169.87 z" fill="rgb(177,176,180)" transform="translate(0,0)"></path>
<path d="M 1106.23 472.192 L 1107.12 476.438 C 1104.86 496.453 1102.3 516.434 1099.45 536.372 L 1097.39 535.534 C 1100.66 514.753 1103.09 493.186 1106.23 472.192 z" fill="rgb(177,176,180)" transform="translate(0,0)"></path>
<path d="M 581.993 893.765 C 605.353 906.61 619.582 914.064 643.413 925.477 L 642.808 927.278 C 620.183 917.72 602.886 907.603 581.941 895.022 L 581.993 893.765 z" fill="rgb(177,176,180)" transform="translate(0,0)"></path>
<path d="M 852.833 470.028 C 851.418 461.746 852.501 425.467 852.856 415.64 C 854.838 425.746 855.173 451.634 855.104 462.549 L 853.933 459.674 C 852.703 461.59 852.944 467.236 852.833 470.028 z" fill="rgb(74,70,65)" transform="translate(0,0)"></path>
<path d="M 690.688 703.261 C 688.751 701.328 684.973 696.162 682.493 693.516 C 676.812 687.453 669.768 681.486 664.717 675.101 C 672.525 679.59 686.393 693.873 691.571 701.526 L 690.688 703.261 z" fill="rgb(74,70,65)" transform="translate(0,0)"></path>
<path d="M 998.262 381.775 L 1001.06 381.341 C 1000.67 387.005 997.776 402.581 994.472 405.673 C 991.327 394.989 999.06 396.763 998.317 382.664 L 998.262 381.775 z" fill="rgb(177,176,180)" transform="translate(0,0)"></path>
<path d="M 704.323 1167.11 C 707.439 1166.95 720.023 1168.88 722.667 1169.87 L 722.879 1171.3 C 715.373 1170.36 706.595 1169.71 699.376 1168.09 L 704.323 1167.11 z" fill="rgb(74,70,65)" transform="translate(0,0)"></path>
<path d="M 464.856 806.329 C 460.826 802.134 457.386 798.543 453.647 794.069 L 454.005 792.5 L 452.821 792.881 L 453.078 791.731 L 452.329 792.04 L 452.121 791.471 L 453.35 791.767 L 453.014 792.876 L 454.449 792.639 C 458.265 795.897 462.253 800.986 465.575 804.899 L 464.856 806.329 z" fill="rgb(74,70,65)" transform="translate(0,0)"></path>
<path d="M 581.941 895.022 C 578.814 893.846 574.032 891.392 572.457 888.328 L 574.007 888.01 C 578.033 889.849 578.644 890.696 581.993 893.765 L 581.941 895.022 z" fill="rgb(33,27,21)" transform="translate(0,0)"></path>
<path d="M 1106.23 472.192 C 1106.71 468.43 1106.98 463.1 1108.72 459.927 C 1109.46 464.575 1108.25 471.828 1107.12 476.438 L 1106.23 472.192 z" fill="rgb(74,70,65)" transform="translate(0,0)"></path>
<path d="M 528.782 612.139 C 526.954 608.326 526.439 607.608 525.76 603.53 C 528.189 605.377 528.551 607.5 529.929 610.619 L 528.782 612.139 z" fill="rgb(120,121,124)" transform="translate(0,0)"></path>
<path d="M 726.458 568.481 C 741.213 577.642 785.926 620.059 798.112 634.067 C 842.747 685.378 890.136 755.989 914.686 819.445 C 909.702 814.025 905.288 809.506 899.321 805.216 C 878.909 790.544 871.504 766.515 845.193 759.262 C 836.046 756.741 802.612 752.975 799.698 763.892 C 800.832 769.275 806.625 780.347 809.624 785.26 C 817.567 798.517 830.621 807.916 845.713 811.243 C 863.415 815.168 874.022 811.648 888.569 802.506 C 892.207 805.496 895.777 808.569 899.276 811.722 C 925.7 835.962 942.722 876.913 960.114 908.916 C 969.762 926.711 979.933 944.217 990.615 961.411 C 994.733 967.98 1011.11 992.756 1012.99 998.257 C 1031.51 1052.49 1022.01 1125.84 1019.61 1182.11 C 1018.16 1209.97 1018.03 1237.89 1019.23 1265.76 L 951.445 1157.66 C 933.806 1129.64 911.811 1097.17 895.85 1068.93 C 935.717 1050.18 964.987 1026.34 955.452 975.344 C 953.755 966.266 930.6 987.567 927.874 990.012 C 905.992 1009.64 903.012 1027.89 901.896 1055.68 C 899.102 1060.51 897.657 1062.1 894.073 1066.26 C 878.762 1046.06 865.47 1022.01 850.631 1001.22 C 842.538 989.882 833.809 978.886 826.765 966.911 C 824.738 963.465 824.981 959.468 825.053 955.637 C 824.314 920.172 854.007 930.66 875.964 907.501 C 893.33 889.184 895.485 871.771 897.158 846.633 C 897.428 842.576 896.892 840.14 894.237 837.57 C 888.457 836.637 881.92 840.865 877.452 844.089 C 847.615 865.62 836.417 886.023 827.558 920.897 C 824.515 932.877 819.991 941.083 817.394 955.791 C 799.936 928.439 774.25 898.736 761.509 869.199 C 753.415 846.668 743.34 819.945 738.588 796.613 C 732.145 764.984 726.631 744.956 712.809 715.557 C 692.788 672.971 709.57 610.972 726.458 568.481 z" fill="rgb(254,254,254)" transform="translate(0,0)"></path>
<path d="M 1389.54 557.402 L 1402.99 556.512 C 1394.5 589.92 1401.93 606.043 1416.53 635.439 C 1386.6 652.362 1353.41 663.792 1325.34 679.624 C 1278.65 705.961 1221.77 758.353 1182.91 796.547 C 1176.81 802.54 1171.37 809.133 1165.81 815.633 C 1174.28 777.391 1215.22 628.876 1237.24 603.307 C 1257.97 579.222 1358.46 560.006 1389.54 557.402 z" fill="rgb(254,254,254)" transform="translate(0,0)"></path>
<path d="M 616.883 1365.17 C 638.636 1360.76 659.821 1374.89 664.109 1396.67 C 668.397 1418.45 654.151 1439.55 632.352 1443.72 C 610.719 1447.86 589.807 1433.75 585.552 1412.14 C 581.297 1390.53 595.297 1369.54 616.883 1365.17 z" fill="rgb(254,254,254)" transform="translate(0,0)"></path>
<path d="M 618.219 1373.83 C 629.173 1371.52 640.527 1375.26 647.952 1383.64 C 655.377 1392.02 657.73 1403.74 654.113 1414.34 C 650.497 1424.94 641.468 1432.77 630.469 1434.86 C 613.703 1438.05 597.496 1427.14 594.137 1410.41 C 590.779 1393.68 601.521 1377.36 618.219 1373.83 z" fill="rgb(4,4,2)" transform="translate(0,0)"></path>
<path d="M 624.197 1380.73 C 637.226 1380.42 648.121 1390.56 648.742 1403.58 C 649.362 1416.6 639.481 1427.73 626.482 1428.66 C 617.793 1429.29 609.449 1425.15 604.681 1417.86 C 599.913 1410.57 599.469 1401.27 603.522 1393.56 C 607.575 1385.85 615.488 1380.94 624.197 1380.73 z" fill="rgb(254,254,254)" transform="translate(0,0)"></path>
<path d="M 1390.66 1206.06 C 1411.57 1203.49 1430.64 1218.28 1433.35 1239.18 C 1436.06 1260.08 1421.4 1279.25 1400.52 1282.1 C 1379.44 1284.98 1360.05 1270.14 1357.31 1249.04 C 1354.57 1227.95 1369.54 1208.65 1390.66 1206.06 z" fill="rgb(254,254,254)" transform="translate(0,0)"></path>
<path d="M 1390.88 1213.52 C 1401.99 1211.66 1413.24 1215.92 1420.33 1224.66 C 1427.43 1233.4 1429.27 1245.29 1425.17 1255.77 C 1421.06 1266.26 1411.63 1273.72 1400.48 1275.32 C 1383.53 1277.74 1367.78 1266.08 1365.15 1249.16 C 1362.53 1232.24 1374 1216.35 1390.88 1213.52 z" fill="rgb(4,4,2)" transform="translate(0,0)"></path>
<path d="M 1390.72 1222.32 C 1403.16 1219.5 1415.51 1227.35 1418.23 1239.81 C 1420.96 1252.26 1413.01 1264.55 1400.53 1267.17 C 1388.2 1269.77 1376.07 1261.93 1373.38 1249.61 C 1370.68 1237.3 1378.43 1225.11 1390.72 1222.32 z" fill="rgb(254,254,254)" transform="translate(0,0)"></path>
<path d="M 657.163 682.771 C 703.866 718.421 713.715 773.662 723.605 827.34 C 724.663 833.085 731.087 848.941 730.404 853.193 C 727.194 850.031 724.096 846.757 721.115 843.376 C 712.245 833.327 704.116 822.647 696.792 811.42 C 684.963 793.4 662.539 751.271 655.955 730.017 C 653.333 721.554 656.561 693.597 657.163 682.771 z" fill="rgb(254,254,254)" transform="translate(0,0)"></path>
<path d="M 1398.97 1089.32 L 1401.47 1088.92 C 1417.67 1101.2 1413.68 1178.65 1414.78 1200.62 C 1404.18 1197.41 1401.04 1196.46 1389.91 1197.2 C 1385.51 1198.11 1377.58 1200.66 1373.07 1202 C 1372.59 1191.58 1372.94 1176.82 1373.28 1166.26 C 1374.14 1139.72 1371.98 1115.3 1385.93 1091.83 L 1398.97 1089.32 z" fill="rgb(254,254,254)" transform="translate(0,0)"></path>
<path d="M 560.475 640.885 C 598.394 648.508 608.69 653.029 641.859 671.332 C 639.074 685.938 637.09 696.611 636.655 711.45 C 636.394 714.22 636.723 713.257 635.406 715.69 C 618.444 695.118 580.547 659.431 560.475 640.885 z" fill="rgb(254,254,254)" transform="translate(0,0)"></path>
<path d="M 1266.27 747.587 C 1270.43 751.306 1280.79 809.388 1282.31 818.675 L 1263.79 823.864 L 1254.78 826.779 C 1249.13 794.317 1253.91 778.477 1266.27 747.587 z" fill="rgb(254,254,254)" transform="translate(0,0)"></path>
<path d="M 886.886 854.978 C 885.354 890.048 869.635 909.07 836.458 919.135 C 840.401 892.057 855.98 874.276 876.858 858.511 C 871.616 868.667 866.546 876.599 859.401 885.508 C 855.703 890.12 851.178 893.666 849.151 898.993 C 847.048 901.924 844.152 905.199 843.751 908.594 C 847.814 908.037 849.196 903.433 851.532 900.774 C 855.038 897.883 854.787 894.403 858.101 893.608 L 859.445 896.7 C 861.255 896.514 862.89 888.95 864.327 886.152 C 868.377 878.265 866.065 886.92 870.982 881.112 L 868.747 878.744 C 873.769 873.914 882.091 861.276 886.886 854.978 z" fill="rgb(254,254,254)" transform="translate(0,0)"></path>
<path d="M 1010.92 384.617 C 1013.13 390.904 1020.87 457.395 1021.16 466.817 L 1013.3 461.197 L 1000.33 453.812 C 993.862 412.109 1002.44 421.671 1010.92 384.617 z" fill="rgb(254,254,254)" transform="translate(0,0)"></path>
<path d="M 616.013 455.859 C 624.86 460.169 638.881 473.697 644.795 481.589 C 648.591 486.654 662.567 506.361 661.922 512.021 C 653.133 518.646 627.286 497.551 621.408 489.702 C 613.628 477.625 612.447 470.207 610.541 456.233 C 615.953 464.204 631.874 487.088 638.644 492.14 L 640.955 491.761 L 641.203 490.655 C 637.001 483.76 633.622 486.833 630.895 475.064 C 630.824 474.758 617.524 457.898 616.013 455.859 z" fill="rgb(254,254,254)" transform="translate(0,0)"></path>
<path d="M 819.632 766.322 C 846.519 765.021 857.755 771.541 873.271 793.294 C 866.318 790.561 846.201 783.918 843.497 778.389 L 845.089 774.592 L 844.033 774.008 C 842.238 776.072 842.219 776.415 841.006 778.914 L 839.081 779.196 C 831.013 774.432 821.482 770.112 812.29 768.226 C 817.612 771.877 820.434 773.425 826.098 776.362 L 828.118 778.604 C 830.377 779.052 831.148 779.328 833.329 780.107 L 834.324 783.557 L 835.308 783.613 L 836.947 783.726 C 842.03 784.039 845.37 783.534 848.554 788.072 L 847.216 790.917 C 850.485 794.137 854.017 790.822 855.455 791.773 C 860.235 794.932 866.362 795.918 870.7 799.232 C 859.031 811.556 813.902 787.74 813.92 769.316 C 815.843 766.613 815.496 767.44 819.632 766.322 z" fill="rgb(254,254,254)" transform="translate(0,0)"></path>
<path d="M 784.665 326.104 C 784.917 326.526 785.169 326.949 785.42 327.371 C 783.896 332.674 783.784 333.678 779.362 336.551 C 768.995 343.289 755.493 361.276 746.636 371.405 L 747.471 372.602 C 753.103 370.024 777.53 341.061 784.338 334.362 L 785.087 333.634 C 782.583 342.537 781.639 345.087 777.65 353.294 C 766.558 372.86 752.162 380.795 734.821 394.512 C 741.872 366.76 758.019 338.899 784.665 326.104 z" fill="rgb(254,254,254)" transform="translate(0,0)"></path>
<path d="M 930.434 593.905 C 931.135 597.283 929.839 612.469 928.878 615.998 C 922.902 637.938 912.99 650.071 894.632 662.164 C 894.491 661.319 894.288 660.429 894.465 659.6 C 900.12 633.136 910.773 611.312 930.434 593.905 z" fill="rgb(254,254,254)" transform="translate(0,0)"></path>
<path d="M 923.935 608.44 L 925.415 609.226 C 925.524 609.927 925.632 610.628 925.741 611.329 C 919.229 622.283 911.228 637.572 905.118 648.125 L 904.084 648.505 L 903.761 647.154 C 907.58 636.351 916.262 616.82 923.935 608.44 z" fill="rgb(4,4,2)" transform="translate(0,0)"></path>
<path d="M 1533.97 635.848 C 1534.03 635.892 1534.09 635.936 1534.16 635.979 C 1545.28 647.102 1553.16 650.466 1568.46 651.389 C 1556 656.489 1547.16 660.156 1535.32 666.585 L 1526.07 671.784 C 1518.53 666.18 1515.39 664.59 1506.67 662.213 C 1515.84 652.062 1522.99 644.312 1533.97 635.848 z" fill="rgb(254,254,254)" transform="translate(0,0)"></path>
<path d="M 473.583 495.719 C 473.639 495.77 489.054 525.59 489.918 527.556 L 488.339 529.36 C 494.391 537.769 500.307 547.096 505.064 556.278 C 508.958 563.794 511.579 562.783 512.403 570.753 L 511.387 571.56 C 503.364 570.043 491.215 555.671 486.75 548.853 C 475.592 531.814 469.864 515.888 473.583 495.719 z" fill="rgb(254,254,254)" transform="translate(0,0)"></path>
<path d="M 284.254 672.605 C 289.833 675.326 290.876 676.587 293.86 681.98 C 297.844 681.129 298.815 681.533 301.722 683.849 L 301.635 687.095 L 302.529 687.765 L 305.475 685.908 C 309.338 686.045 340.709 701.123 345.641 703.619 C 333.304 724.268 288.791 697.423 284.254 672.605 z" fill="rgb(254,254,254)" transform="translate(0,0)"></path>
<path d="M 424.758 1105.88 L 425.585 1106.7 C 425.577 1110.82 421.483 1117.44 419.196 1121.01 C 408.267 1138.06 387.68 1147.27 368.396 1151.32 L 367.578 1149.83 C 384.932 1132.33 404.442 1119.58 424.758 1105.88 z" fill="rgb(254,254,254)" transform="translate(0,0)"></path>
<path d="M 676.312 564.509 C 685.756 572.947 680.221 625.629 669.181 627.951 L 667.379 625.645 C 667.57 618.97 661.489 609.551 661.698 601.546 C 661.969 591.151 662.83 586.675 666.989 577.441 C 668.431 574.603 670.032 570.82 672.779 569.651 C 674.831 573.044 668.329 609.033 667.448 617.503 C 670.738 612.277 672.633 614.32 675.386 610.539 C 674.82 609.908 672.581 607.344 672.643 606.95 C 674.102 597.673 675.569 572.536 676.312 564.509 z" fill="rgb(254,254,254)" transform="translate(0,0)"></path>
<path d="M 330.67 1027.92 C 333.415 1029.68 337.155 1033.3 340.88 1035.78 C 352.019 1043.21 364.245 1050.02 374.741 1058.19 C 370.567 1058.86 365.949 1059.3 361.715 1059.79 C 360.746 1059.71 359.778 1059.6 358.812 1059.49 C 349.497 1058.32 337.938 1053.44 331.992 1045.86 C 332.199 1044.3 332.467 1042.77 332.831 1041.24 L 331.043 1042.48 C 326.142 1042.33 323.508 1038.82 322.98 1034.25 C 324.441 1030.84 327.306 1029.85 330.67 1027.92 z" fill="rgb(254,254,254)" transform="translate(0,0)"></path>
<path d="M 463.684 613.835 C 464.304 614.891 464.522 615.618 464.197 616.956 C 457.132 645.969 451.081 660.761 426.047 677.859 L 425.554 677.129 C 426.758 669.332 456.246 618.28 463.684 613.835 z" fill="rgb(254,254,254)" transform="translate(0,0)"></path>
<path d="M 712.488 234.889 C 719.233 242.694 703.197 269.167 701.375 278.859 C 699.645 288.063 698.611 297.134 697.503 306.42 L 696.434 306.42 C 687.388 278.822 691.651 255.983 712.488 234.889 z" fill="rgb(254,254,254)" transform="translate(0,0)"></path>
<path d="M 1183.12 710.972 L 1184.15 712.332 C 1178.4 721.919 1161.61 789.064 1156.74 804.311 C 1137.1 865.838 1117.68 914.287 1084.89 969.91 L 1083.8 969.294 C 1122.59 899.211 1148.83 829.994 1168.92 752.491 C 1172.48 738.761 1178.91 724.69 1183.12 710.972 z" fill="rgb(254,254,254)" transform="translate(0,0)"></path>
<path d="M 430.937 1015.66 C 438.528 1023.36 449.459 1041.62 454.231 1051.55 C 453.691 1053.43 453.621 1053.65 453.307 1055.63 L 456.334 1055.01 C 459.08 1056.99 461.705 1066.59 463 1070.39 L 462.558 1071.56 C 458.243 1071.06 449.737 1063.91 446.662 1060.41 C 434.495 1046.56 430.247 1033.76 430.937 1015.66 z" fill="rgb(254,254,254)" transform="translate(0,0)"></path>
<path d="M 479.014 490.856 C 481.571 492.054 486.716 496.648 488.86 498.835 C 507.816 518.173 511.781 535.059 512.212 560.647 C 511.638 560.681 510.351 560.402 509.716 560.293 C 501.096 533.113 487.449 514.082 479.014 490.856 z" fill="rgb(254,254,254)" transform="translate(0,0)"></path>
<path d="M 1732.34 686.997 L 1733.36 687.502 C 1731.31 689.505 1725.18 694.363 1722.45 696.771 C 1703.79 713.265 1693.56 723.138 1679.52 743.386 C 1679.05 743.279 1678.58 743.173 1678.11 743.067 C 1675.38 715.021 1711.19 695.997 1732.34 686.997 z" fill="rgb(254,254,254)" transform="translate(0,0)"></path>
<path d="M 544.867 1186.68 C 546.779 1187.3 547.325 1188.1 549.027 1189.5 C 554.074 1203.48 520.316 1221.16 509.258 1225.01 C 506.687 1225.32 506.743 1225.51 504.436 1224.46 C 504.669 1222.6 540.894 1189.84 544.867 1186.68 z" fill="rgb(254,254,254)" transform="translate(0,0)"></path>
<path d="M 367.057 832.372 L 367.425 833.428 C 365.931 835.597 362.959 840.067 361.201 841.741 C 341.277 860.716 342.981 862.039 317.601 863.596 C 317.293 857.251 334.399 847.815 341.208 847.204 L 340.926 843.89 C 343.485 840.542 361.491 833.269 367.057 832.372 z" fill="rgb(254,254,254)" transform="translate(0,0)"></path>
<path d="M 576.713 537.687 C 594.04 552.773 593.912 589.475 585.874 609.354 L 585.118 609.367 C 584.539 608.529 581.733 560.909 579.379 554.29 C 579.602 554.916 580.318 550.292 580.356 550.058 C 577.879 544.656 577.206 543.54 576.713 537.687 z" fill="rgb(254,254,254)" transform="translate(0,0)"></path>
<path d="M 512.814 722.163 L 512.219 724.288 C 506.673 722.676 504.746 720.135 505.704 714.649 C 508.062 711.506 508.234 711.647 511.55 709.818 L 512.793 711.096 C 519.584 718.02 530.216 725.664 531.857 736.74 C 531.359 738.207 531.307 739.745 529.944 739.989 C 511.677 743.261 495.381 724.605 488.724 712.86 C 497.37 720.402 513.14 733.481 524.515 736.564 L 525.336 735.183 L 522.61 731.407 L 524.664 726.327 L 524.262 725.433 C 518.375 728.442 522.878 730.44 518.805 729.26 C 517.444 726.915 516.101 724.56 514.778 722.193 C 514.123 722.183 513.469 722.173 512.814 722.163 z" fill="rgb(254,254,254)" transform="translate(0,0)"></path>
<path d="M 569.285 540.683 C 574.207 551.536 576.88 570.429 580.097 582.734 C 580.499 584.268 579.144 585.24 577.802 586.649 L 577.074 587.401 L 580.285 588.228 C 582.255 591.245 581.274 597.689 581.072 601.611 L 581.677 603.456 L 580.691 603.961 C 565.567 587.1 565.584 561.729 569.285 540.683 z" fill="rgb(254,254,254)" transform="translate(0,0)"></path>
<path d="M 415.955 766.185 C 422.095 773.998 412.287 782.767 405.148 781.999 C 404.681 779.474 404.753 779.252 403.631 776.988 C 403.142 780.269 403.348 780.598 401.339 783.311 C 390.749 787.869 384.083 787.403 373.153 785.611 C 370.521 784.985 370.628 785.097 368.414 783.583 C 371.635 782.137 400.04 771.746 402.886 772.44 L 403.535 775.794 C 403.671 773.862 403.814 773.002 404.124 771.104 C 407.678 768.818 411.924 767.607 415.955 766.185 z" fill="rgb(254,254,254)" transform="translate(0,0)"></path>
<path d="M 1343.35 720.989 C 1358.58 720.068 1368.31 734.453 1375.76 745.698 C 1371.26 744.579 1365.92 744.34 1365.5 738.915 L 1364.3 738.181 L 1360.19 740.123 C 1354.77 739.904 1352.25 738.683 1347.31 736.691 L 1357.27 728.538 C 1343.61 735.71 1344.37 736.213 1331.45 728.012 C 1336.1 724.61 1338.34 723.508 1343.35 720.989 z" fill="rgb(254,254,254)" transform="translate(0,0)"></path>
<path d="M 548.643 981.845 C 552.497 985.876 556.424 990.513 560.139 994.725 C 569.12 1006.72 571.034 1018.34 570.372 1033.17 C 570.117 1038.87 569.819 1043.2 564.828 1046.66 L 563.777 1046.05 C 563.747 1038.13 565.735 1036 566.281 1029.45 L 563.31 1029.74 C 561.66 1027.03 561.683 1025.98 562.433 1022.7 C 562.686 1021.62 562.966 1020.55 563.273 1019.48 L 562.536 1018.42 L 560.137 1018.5 C 559.403 1017.27 557.365 1006.4 556.344 1002.94 L 557.039 1001.45 L 554.81 999.991 C 552.194 993.921 550.563 988.155 548.643 981.845 z" fill="rgb(254,254,254)" transform="translate(0,0)"></path>
<path d="M 1729.4 824.336 L 1727.09 824.477 C 1719.05 821.108 1717.3 818.717 1711.71 812.329 C 1707.86 812.312 1705.41 812.722 1702.11 810.8 C 1700.05 807.806 1700.3 807.133 1700.3 803.546 L 1701.2 802.649 C 1707.65 801.706 1719.06 804.117 1726.1 804.817 C 1728.87 805.092 1729.74 807.5 1730.62 809.39 L 1731.74 809.49 C 1731.84 814.07 1732.11 819.113 1731.63 823.624 L 1729.4 824.336 z" fill="rgb(254,254,254)" transform="translate(0,0)"></path>
<path d="M 1730.62 809.39 L 1731.74 809.49 C 1731.84 814.07 1732.11 819.113 1731.63 823.624 L 1729.4 824.336 C 1729.98 820.556 1730.22 813.648 1730.62 809.39 z" fill="rgb(120,121,124)" transform="translate(0,0)"></path>
<path d="M 321.473 682.397 L 319.802 682.562 C 312.01 678.835 296.028 675.63 292.405 670.402 L 292.924 668.622 C 303.661 662.253 322.864 669.289 329.907 679.367 C 335.703 684.293 336.501 684.909 341.046 691.208 C 332.363 688.184 328.633 685.259 321.473 682.397 z" fill="rgb(254,254,254)" transform="translate(0,0)"></path>
<path d="M 352.016 542.6 C 359.254 545.835 374.057 556.603 379.646 562.423 L 379.723 559.47 C 387.358 558.099 391.514 569.891 399.206 569.378 C 401.684 569.213 403.343 569.889 405.661 570.628 C 405.971 572.406 405.84 571.865 405.372 573.777 C 400.659 575.733 389.378 572.746 384.275 571.143 C 367.892 565.995 359.627 557.298 352.016 542.6 z" fill="rgb(254,254,254)" transform="translate(0,0)"></path>
<path d="M 937.081 995.882 L 937.795 997.451 C 933.696 1009.76 917.419 1041.24 909.052 1050.98 C 902.52 1037.48 926.644 1005.19 937.081 995.882 z" fill="rgb(254,254,254)" transform="translate(0,0)"></path>
<path d="M 947.655 991.868 C 949.902 995.625 948.574 1005.74 947.019 1009.87 C 946.598 1010.99 943.227 1011.2 941.904 1011.45 C 944.233 1012.04 944.19 1011.88 945.95 1013.47 C 945.23 1027.53 930.298 1040 919.398 1047.24 C 917.879 1047.7 918.71 1047.61 916.891 1047.36 C 921.055 1041.6 924.988 1036.06 928.375 1029.81 C 929.416 1027.88 933.321 1025.97 934.392 1023.61 C 939.037 1013.38 941.173 1001.03 947.655 991.868 z" fill="rgb(254,254,254)" transform="translate(0,0)"></path>
<path d="M 1731.74 809.49 C 1740.01 804.744 1759.05 825.27 1763.49 831.778 C 1755.89 830.79 1736.8 829.022 1731.63 823.624 C 1732.11 819.113 1731.84 814.07 1731.74 809.49 z" fill="rgb(254,254,254)" transform="translate(0,0)"></path>
<path d="M 1677.58 1015.05 C 1681.14 1015.21 1682.86 1015.03 1686.13 1016.52 L 1686.45 1019.25 L 1687.78 1019.76 C 1690.43 1017.56 1690.46 1017.22 1693.91 1016.49 C 1697.33 1016.85 1700.38 1020.03 1702.92 1022.28 C 1705.48 1021.21 1705.43 1021.08 1708.16 1020.96 C 1711.15 1022.64 1711.49 1022.34 1713.26 1025.01 C 1710.64 1026.99 1707.37 1027.04 1703.99 1027.55 C 1698.73 1028.12 1693.89 1030.47 1689.22 1029.66 L 1687.87 1024.01 L 1686.61 1023.41 C 1685.36 1027.85 1684.92 1029.6 1681.54 1032.03 C 1678.76 1032.12 1678.85 1031.83 1676.45 1030.25 C 1673.82 1026.05 1674.36 1018.7 1677.58 1015.05 z" fill="rgb(254,254,254)" transform="translate(0,0)"></path>
<path d="M 1424.26 600.235 C 1418.61 589.404 1421.18 592.794 1421.49 582.173 L 1418.33 583.175 C 1413.36 579.315 1412.9 570.115 1417.22 566.328 C 1420.75 566.906 1421.73 569.037 1424.67 571.868 C 1429.65 576.645 1423.84 575.689 1423.43 580.736 C 1426.38 578.251 1427.97 575.744 1431.2 578.496 C 1433.51 584.973 1433.53 585.772 1430.81 591.966 L 1432.16 593.052 C 1430.6 595.886 1428.82 599.439 1426.86 601.9 L 1424.26 600.235 z" fill="rgb(254,254,254)" transform="translate(0,0)"></path>
<path d="M 1430.81 591.966 L 1432.16 593.052 C 1430.6 595.886 1428.82 599.439 1426.86 601.9 L 1424.26 600.235 C 1426.38 598.097 1428.92 594.483 1430.81 591.966 z" fill="rgb(19,15,10)" transform="translate(0,0)"></path>
<path d="M 356.542 535.431 C 366.834 534.65 377.931 534.348 386.355 541.376 L 386.05 541.917 L 383.064 542.242 L 382.251 543.387 L 389.602 548.553 L 391.319 546.351 C 394.564 548.453 396.75 550.813 397.296 554.584 L 395.594 556.104 C 391.73 556.919 379.439 550.663 375.676 548.426 C 372.067 546.281 376.728 546.582 375.769 542.268 C 374.257 543.324 371.26 545.95 370.067 545.533 C 367.054 544.481 357.238 538.987 355.555 536.768 L 356.542 535.431 z" fill="rgb(254,254,254)" transform="translate(0,0)"></path>
<path d="M 623.349 832.734 C 624.46 836.898 627.323 851.367 626.834 855.179 L 624.562 856.797 L 624.46 858.007 C 626.288 859.633 627.143 860.483 628.779 862.303 C 628.616 866.383 629.288 864.577 626.414 867.799 C 625.579 872.175 628.888 867.166 630.601 871.845 C 632.216 876.26 629.185 878.365 630.036 882.585 C 632.762 885.549 632.952 886.313 634.049 890.21 C 633.459 891.746 633.934 890.948 632.319 892.395 C 626.24 889.018 622.105 870.956 620.692 864.296 C 618.241 852.749 619.235 843.691 623.349 832.734 z" fill="rgb(254,254,254)" transform="translate(0,0)"></path>
<path d="M 994.439 490.697 C 999.521 513.565 980.326 533.734 965.501 547.905 C 966.648 531.854 969.078 539.277 973.22 536.097 C 973.032 528.768 979.611 522.165 983.045 515.453 C 987.277 507.184 990.817 499.23 994.439 490.697 z" fill="rgb(254,254,254)" transform="translate(0,0)"></path>
<path d="M 428.527 851.729 C 429.907 851.639 429.142 851.519 430.71 852.521 C 430.433 868.421 413.849 877.158 399.788 878.612 L 398.191 877.947 L 398.379 876.565 C 407.655 867.257 416.91 858.015 428.527 851.729 z" fill="rgb(254,254,254)" transform="translate(0,0)"></path>
<path d="M 1733.18 711.008 L 1734.02 711.188 L 1734.36 712.462 C 1731.28 719.98 1727.91 724.522 1722.21 730.119 C 1714.61 730.974 1709.33 731.146 1701.46 732.467 L 1700.82 732.547 L 1700.38 731.669 C 1712.99 716.972 1715.16 717.002 1733.18 711.008 z" fill="rgb(254,254,254)" transform="translate(0,0)"></path>
<path d="M 1244.04 438.797 C 1246.12 442.814 1236.55 454.235 1234.12 459.109 C 1228.39 470.562 1223.32 482.723 1221.04 495.383 C 1220.31 499.375 1219.94 500.596 1218.17 504.252 L 1217.12 503.537 C 1217.11 502.709 1217.1 501.882 1217.1 501.054 C 1217.15 475.729 1226.34 456.581 1244.04 438.797 z" fill="rgb(254,254,254)" transform="translate(0,0)"></path>
<path d="M 789.168 489.782 C 793.121 493.543 805.741 516.397 809.633 522.35 C 815.018 530.585 816.724 532.78 823.8 540.365 C 802.002 535.802 792.907 508.851 789.168 489.782 z" fill="rgb(254,254,254)" transform="translate(0,0)"></path>
<path d="M 1638.72 706.928 L 1639.58 708.383 C 1635.35 713.878 1633.71 718.12 1630.5 724.246 L 1629.11 724.542 L 1626.34 720.44 L 1625.31 720.469 C 1627 729.007 1625.35 736.338 1619.56 743.204 C 1617.46 741.816 1617.26 741.083 1615.52 741.174 L 1617.01 746.844 L 1617.64 747.67 C 1616.98 751.174 1616.86 751.184 1615.33 754.218 L 1613.88 754.552 C 1612.05 750.962 1612.24 745.086 1613.06 741.24 C 1616.53 725.045 1625.95 715.666 1638.72 706.928 z" fill="rgb(254,254,254)" transform="translate(0,0)"></path>
<path d="M 320.253 1011.88 C 338.187 1014.67 360.455 1028.37 369.471 1044.38 L 368.112 1045.25 C 362.311 1039.81 343.69 1029.13 335.177 1022.61 C 334.237 1020.26 333.911 1019.55 332.642 1017.37 C 330.825 1019.59 331.961 1018.96 329.525 1019.91 C 325.717 1017.98 323.278 1014.97 320.253 1011.88 z" fill="rgb(254,254,254)" transform="translate(0,0)"></path>
<path d="M 449.987 620.075 L 450.621 620.879 C 448.839 625.181 444.451 631.128 442.157 635.517 C 436.894 645.59 427.963 661.032 425.122 671.811 L 424.555 672.418 C 423.293 668.926 424.664 663.393 425.226 659.422 C 427.745 641.634 435.852 630.305 449.987 620.075 z" fill="rgb(254,254,254)" transform="translate(0,0)"></path>
<path d="M 919.906 456.086 C 920.665 456.888 920.275 456.301 920.336 458.159 C 916.909 464.68 898.241 483.005 891.778 487.812 C 885.146 487.986 891.687 488.971 885.773 494.532 C 884.978 493.603 884.052 492.306 883.297 491.308 C 883.838 484.322 888.336 481.2 894.092 478.216 L 897.883 476.208 L 896.863 474.248 C 898.569 469.197 914.673 459.587 919.906 456.086 z" fill="rgb(254,254,254)" transform="translate(0,0)"></path>
<path d="M 1559.59 523.953 L 1560.49 525.118 C 1554.56 537.533 1555.03 534.582 1545.48 543.96 C 1542.6 546.798 1544.75 550.063 1536.86 555.497 C 1529.26 544.82 1536.49 540.273 1544.82 533.498 C 1549.35 529.817 1554.5 526.799 1559.59 523.953 z" fill="rgb(254,254,254)" transform="translate(0,0)"></path>
<path d="M 717.195 251.644 C 722.611 268.762 711.992 292.02 701.248 305.188 C 701.36 297.247 714.014 260.921 717.195 251.644 z" fill="rgb(254,254,254)" transform="translate(0,0)"></path>
<path d="M 544.935 1001.32 L 547.668 1002.36 C 549.955 1005.65 556.548 1042.77 558.979 1050.21 L 558.745 1051.07 L 557.67 1051.04 C 549.028 1041.36 541.878 1013.03 544.935 1001.32 z" fill="rgb(254,254,254)" transform="translate(0,0)"></path>
<path d="M 1609.17 971.827 C 1611.7 972.084 1610.55 971.688 1612.63 972.954 C 1611.41 975.793 1601.44 986.487 1598.54 989.935 L 1598.62 991.301 C 1595.59 993.609 1595.15 990.258 1591.4 992.166 L 1593.32 995.332 L 1592.63 997.3 C 1591.53 998.095 1590.49 998.71 1589.34 999.427 L 1586.19 998.626 C 1582.16 986.031 1599.96 976.319 1609.17 971.827 z" fill="rgb(254,254,254)" transform="translate(0,0)"></path>
<path d="M 1546.64 565.24 C 1550.66 565.071 1552.18 564.181 1554.46 566.104 C 1551.87 573.223 1530.15 581.687 1522.77 583.803 C 1519.55 584.682 1518.58 584.887 1515.27 585.31 L 1515.3 584.295 C 1521.08 578.901 1539.03 567.195 1546.64 565.24 z" fill="rgb(254,254,254)" transform="translate(0,0)"></path>
<path d="M 914.866 472.976 C 914.555 477.003 908.67 485.032 906.186 488.488 C 897.926 499.984 883.852 506.245 874.677 516.404 C 877.019 507.334 906.892 478.638 914.866 472.976 z" fill="rgb(254,254,254)" transform="translate(0,0)"></path>
<path d="M 1432.16 593.052 L 1434.48 589.992 L 1436.31 589.963 C 1440.85 596.132 1436.09 609.616 1432.49 615.566 L 1431.33 617.228 C 1429.26 618.704 1428.86 618.985 1426.58 620.064 L 1425.09 618.629 C 1424.06 614.788 1424.92 605.191 1426.86 601.9 C 1428.82 599.439 1430.6 595.886 1432.16 593.052 z" fill="rgb(254,254,254)" transform="translate(0,0)"></path>
<path d="M 1478.07 911.934 C 1493.19 912.749 1516.89 924.744 1529.95 932.129 C 1514.84 930.87 1489.76 922.284 1478.07 911.934 z" fill="rgb(254,254,254)" transform="translate(0,0)"></path>
<path d="M 790.217 482.56 C 803.203 488.794 821.561 523.625 824.408 537.325 C 821.838 535.839 794.852 489.554 790.217 482.56 z" fill="rgb(254,254,254)" transform="translate(0,0)"></path>
<path d="M 440.98 1018.53 C 449.974 1023.14 473.667 1050.75 468.865 1059.83 C 464.12 1055.89 456.488 1044.14 453.816 1038.37 C 454.766 1036.6 454.849 1036.45 455.597 1034.52 C 454.38 1033.85 448.305 1031.44 448.434 1031.67 C 446.477 1028.1 443.017 1022.08 440.98 1018.53 z" fill="rgb(254,254,254)" transform="translate(0,0)"></path>
<path d="M 1719.55 732.321 L 1719.52 733.367 C 1710.3 744.524 1701.99 747.686 1688.49 749.073 L 1688.37 747.777 C 1690.52 743.36 1691.74 742.584 1695.36 739.053 C 1703.38 737.145 1711.6 734.626 1719.55 732.321 z" fill="rgb(254,254,254)" transform="translate(0,0)"></path>
<path d="M 533.39 1182.81 C 536.449 1184.18 535.683 1183.11 536.615 1185.49 C 528.999 1192.51 513.995 1206.44 508.621 1214.43 C 508.128 1215.16 507.353 1215.67 506.623 1216.28 C 506.059 1204.36 524.285 1189.06 533.39 1182.81 z" fill="rgb(254,254,254)" transform="translate(0,0)"></path>
<path d="M 1596.57 630.335 L 1600.4 628.833 L 1601.18 629.591 C 1598.13 637.575 1585.4 645.227 1577.02 646.724 L 1574.17 645.499 C 1571.88 643.579 1569.87 642.451 1569.19 639.663 C 1575.5 636.293 1575.57 645.125 1584.52 636.087 C 1590.55 636.04 1588.39 639.187 1591.75 637.482 L 1588.75 634.995 C 1591.15 632.634 1593.53 631.789 1596.57 630.335 z" fill="rgb(254,254,254)" transform="translate(0,0)"></path>
<path d="M 630.644 832.449 C 637.6 835.551 644.559 856.663 644.834 864.084 C 644.896 865.765 643.63 865.988 642.305 866.917 C 641.491 866.563 640.048 865.982 639.365 865.466 C 636.615 863.386 631.793 837.793 630.644 832.449 z" fill="rgb(254,254,254)" transform="translate(0,0)"></path>
<path d="M 1645.12 710.677 C 1646.72 717.93 1646.03 744.051 1634.99 743.155 C 1632.1 740.571 1631.3 740.308 1629.66 736.81 C 1634.35 735.597 1635.26 738.575 1639.8 736.529 C 1638.88 732.767 1637.14 732.341 1633.88 731.371 L 1634.26 729.615 C 1642.88 722.7 1639.02 720.448 1645.12 710.677 z" fill="rgb(254,254,254)" transform="translate(0,0)"></path>
<path d="M 1742.88 687.905 C 1743.17 691.615 1739.36 700.829 1737.93 704.726 C 1730.88 708.473 1727.72 709.392 1720.08 711.729 C 1721.18 705.499 1737.49 691.905 1742.88 687.905 z" fill="rgb(254,254,254)" transform="translate(0,0)"></path>
<path d="M 1554.75 549.918 C 1559.03 550.542 1564.99 550.142 1569.45 550.021 C 1565.65 555.408 1564.04 558.146 1558.99 562.388 L 1543.19 561.993 C 1547.04 558.436 1551.12 553.803 1554.75 549.918 z" fill="rgb(254,254,254)" transform="translate(0,0)"></path>
<path d="M 571.126 632.355 C 600.271 632.524 632.78 651.869 656.38 668.21 C 645.767 665.455 623.505 649.592 611.577 644.236 C 597.565 637.945 583.83 637.521 571.126 632.355 z" fill="rgb(206,207,210)" transform="translate(0,0)"></path>
<path d="M 1325.32 735.48 C 1331.2 737.669 1339.85 740.855 1344.8 744.827 C 1347.5 746.995 1346.68 748.991 1346.55 752.468 C 1336.73 749.894 1325.95 747.17 1325.32 735.48 z" fill="rgb(254,254,254)" transform="translate(0,0)"></path>
<path d="M 410.554 1104.02 L 411.872 1104.46 C 410.155 1105.89 381.768 1123.79 379.618 1124.7 L 379.263 1128.32 C 378.207 1129.4 378.078 1129.2 376.529 1129.84 L 374.816 1128.8 C 373.737 1119.04 402.617 1106.82 410.554 1104.02 z" fill="rgb(254,254,254)" transform="translate(0,0)"></path>
<path d="M 562.494 1069.88 C 564.882 1072.42 567.421 1081.64 568.255 1085.11 C 573.492 1106.9 582.589 1124.16 593.608 1143.41 C 581.7 1138.84 564.688 1084.39 562.494 1069.88 z" fill="rgb(254,254,254)" transform="translate(0,0)"></path>
<path d="M 518.184 780.467 L 519.844 779.572 C 521.144 788.197 517.123 788.316 517.4 794.915 C 517.527 797.958 518.576 801.918 513.713 802.966 L 512.289 801.61 C 510.563 802.625 510.454 802.844 508.483 803.184 L 507.397 802.009 C 507.73 795.96 514.433 785.391 518.184 780.467 z" fill="rgb(254,254,254)" transform="translate(0,0)"></path>
<path d="M 1246.49 459.729 C 1248.67 471.504 1242.04 487.718 1232.62 495.23 C 1231.62 490.385 1243.57 466.376 1246.49 459.729 z" fill="rgb(254,254,254)" transform="translate(0,0)"></path>
<path d="M 1666.57 1015.62 C 1670.61 1015.96 1669.08 1015.21 1671.92 1017.09 C 1673.77 1022.55 1674.28 1029.33 1669.22 1032.99 C 1666.9 1032.15 1666.55 1031.85 1664.43 1030.51 C 1660.54 1024.51 1662.04 1020.65 1666.57 1015.62 z" fill="rgb(254,254,254)" transform="translate(0,0)"></path>
<path d="M 394.505 759.199 L 395.53 759.247 C 399.101 767.198 390.989 768.568 384.807 768.773 C 380.804 768.906 384.365 770.712 382.324 771.663 C 380.052 772.723 377.724 773.798 375.462 774.848 L 372.704 775.265 L 373.001 773.521 C 379.582 766.139 386.135 763.504 394.505 759.199 z" fill="rgb(254,254,254)" transform="translate(0,0)"></path>
<path d="M 1569.72 533.641 C 1571.3 533.931 1571.52 534.122 1573.03 534.717 C 1574.29 539.309 1573.61 541.747 1570.31 545.154 C 1568.03 547.5 1565.17 546.071 1562.23 545.51 L 1558.18 544.502 C 1558.01 539.022 1565.26 535.506 1569.72 533.641 z" fill="rgb(254,254,254)" transform="translate(0,0)"></path>
<path d="M 1501.04 1093.56 C 1511.93 1094.14 1514 1109.44 1513.53 1118.02 L 1512.05 1118.54 C 1506.39 1109.35 1508.09 1113.03 1507.54 1103.65 L 1502.88 1100.64 C 1500.89 1097.56 1501.18 1097.19 1501.04 1093.56 z" fill="rgb(254,254,254)" transform="translate(0,0)"></path>
<path d="M 1531.29 546.681 C 1531.84 548.308 1533.08 555.258 1534.08 558.621 L 1523.67 566.599 C 1518.42 558.309 1525.64 553.253 1531.29 546.681 z" fill="rgb(254,254,254)" transform="translate(0,0)"></path>
<path d="M 662.292 1211.28 C 646.149 1222.43 629.588 1245.29 613.633 1253.26 C 629.129 1239.15 645.436 1221.41 662.018 1209.65 L 662.292 1211.28 z" fill="rgb(177,176,180)" transform="translate(0,0)"></path>
<path d="M 1259.57 872.28 C 1262.93 875.466 1263.53 875.502 1268.12 876.161 L 1269.37 877.935 C 1267.07 879.457 1264.73 880.926 1262.36 882.339 L 1262.95 883.046 C 1266.51 883.212 1267.94 881.942 1271.05 880.161 C 1273.28 881.321 1272.49 880.485 1273.55 882.534 C 1270.94 886.912 1268.31 883.532 1263.62 890.576 C 1260.96 889.307 1259.49 878.327 1258.55 874.807 L 1259.57 872.28 z" fill="rgb(254,254,254)" transform="translate(0,0)"></path>
<path d="M 1581.95 618.715 C 1586.75 618.72 1592.73 618.307 1596.41 621.316 C 1595.19 624.341 1596 622.925 1592.26 625.035 C 1587.9 626.894 1583.25 628.158 1578.7 629.537 C 1579.48 626.033 1580.84 622.17 1581.95 618.715 z" fill="rgb(254,254,254)" transform="translate(0,0)"></path>
<path d="M 642.713 883.302 L 640.85 882.281 C 641.208 881.07 641.489 879.889 641.752 878.657 C 638.792 874.918 639.071 876.336 638.638 872.178 C 640.939 869.127 639.5 870.171 643.104 868.924 C 648.258 871.141 646.426 879.124 645.308 883.943 C 644.981 887.329 645.072 889.345 643.442 892.349 L 642.285 892.128 C 641.441 887.813 641.539 887.642 642.713 883.302 z" fill="rgb(254,254,254)" transform="translate(0,0)"></path>
<path d="M 1470.87 619.955 L 1471.58 620.864 C 1470.41 625.989 1459.27 638.016 1453.92 639.11 L 1452.02 637.459 C 1452.34 633.829 1466.6 623.67 1470.87 619.955 z" fill="rgb(254,254,254)" transform="translate(0,0)"></path>
<path d="M 522.013 798.091 L 524.337 796.603 C 521.635 811.85 516.659 821.8 505.835 833.096 C 510.347 821.615 519.517 808.805 522.013 798.091 z" fill="rgb(254,254,254)" transform="translate(0,0)"></path>
<path d="M 312.9 1014.85 C 317.178 1018.06 323.822 1022.48 326.799 1026.6 L 326.076 1029.3 C 322.985 1030.92 323.46 1031.32 320.562 1030.98 C 315.317 1026.69 314.867 1021.6 312.9 1014.85 z" fill="rgb(254,254,254)" transform="translate(0,0)"></path>
<path d="M 1530.29 464.642 L 1531.96 465.271 C 1531.97 465.414 1518.22 485.424 1516.97 487.123 C 1513.86 474.175 1521.29 473.227 1530.29 464.642 z" fill="rgb(254,254,254)" transform="translate(0,0)"></path>
<path d="M 1330.61 719.305 C 1332.91 718.891 1340.41 718.917 1343.14 718.861 C 1338.48 721.325 1334.81 723.784 1330.42 726.647 L 1328.94 727.412 C 1325.05 726.192 1325.08 726.348 1321.94 723.886 L 1321.71 722.025 C 1324 719.67 1327.14 719.79 1330.61 719.305 z" fill="rgb(254,254,254)" transform="translate(0,0)"></path>
<path d="M 1612 986.792 C 1614.98 986.469 1615.19 986.151 1617.9 987.238 L 1618.47 988.965 C 1616.97 993.057 1614.72 994.97 1611.78 998.183 C 1608.75 997.604 1606.99 996.35 1605.54 993.788 C 1607.48 989.296 1607.59 990.254 1612 986.792 z" fill="rgb(254,254,254)" transform="translate(0,0)"></path>
<path d="M 1571.64 618.685 C 1569.95 621.509 1567.38 625.282 1566.65 628.318 C 1564.17 632.173 1565.77 630.906 1562.12 632.766 L 1560.24 632.105 L 1559.09 629.579 C 1559.57 620.648 1564.07 620.006 1571.64 618.685 z" fill="rgb(254,254,254)" transform="translate(0,0)"></path>
<path d="M 1573.16 519.547 C 1575.17 520.362 1574.22 519.811 1575.65 522.121 C 1576.42 530.011 1573.4 530.918 1567.14 532.658 L 1566.11 532.099 C 1562.69 526.288 1568.7 522.3 1573.16 519.547 z" fill="rgb(254,254,254)" transform="translate(0,0)"></path>
<path d="M 491.137 704.58 C 497.439 706.881 496.052 705.86 499.532 712.923 C 500.172 709.386 499.623 708.395 501.743 706.826 C 504.541 708.645 504.383 708.464 505.752 711.509 C 504.28 715.526 505.154 715.186 502.296 716.812 C 495.593 715.997 491.604 711.205 491.137 704.58 z" fill="rgb(254,254,254)" transform="translate(0,0)"></path>
<path d="M 423.546 843.875 C 426.032 843.726 426.402 843.786 428.886 844.121 C 428.045 846.293 422.386 847.949 419.718 848.913 C 412.831 851.4 406.943 858.608 401.671 864.019 C 401.42 864.275 399.766 865.387 399.412 865.633 C 400.631 857.065 416.254 847.609 423.546 843.875 z" fill="rgb(254,254,254)" transform="translate(0,0)"></path>
<path d="M 1635.31 863.874 C 1639.92 868.239 1641 874.047 1642.45 880.066 L 1641.29 880.7 C 1637.58 877.144 1634.04 875.201 1631.66 870.794 C 1631.84 866.707 1631.99 867.811 1635.31 863.874 z" fill="rgb(254,254,254)" transform="translate(0,0)"></path>
<path d="M 350.241 827.835 L 352.481 828.084 L 352.649 829.085 C 343.745 834.546 338.181 837.728 329.829 844.115 C 329.352 844.665 329.783 844.295 327.854 845.232 L 327.463 844.085 C 330.417 836.614 343.125 831.043 350.241 827.835 z" fill="rgb(254,254,254)" transform="translate(0,0)"></path>
<path d="M 507.863 820.692 L 506.861 821.196 L 506.038 820.106 C 505.887 815.538 505.223 810.084 506.769 805.989 C 509.957 802.92 508.708 803.872 513.713 802.966 C 514.076 806.498 509.889 817.643 507.863 820.692 z" fill="rgb(254,254,254)" transform="translate(0,0)"></path>
<path d="M 662.018 1209.65 C 667.437 1203.93 689.276 1190.22 697.051 1187.94 L 698.155 1188.15 C 686.44 1196.7 673.789 1201.98 662.292 1211.28 L 662.018 1209.65 z" fill="rgb(74,70,65)" transform="translate(0,0)"></path>
<path d="M 1623.84 971.313 C 1625.63 972.117 1624.78 971.527 1626.27 973.25 C 1625.04 978.263 1622.01 982.169 1617.53 984.689 C 1614.82 983.342 1615.37 984.213 1614.01 982.163 C 1615.28 976.52 1618.65 973.518 1623.84 971.313 z" fill="rgb(254,254,254)" transform="translate(0,0)"></path>
<path d="M 1348.02 745.54 L 1349.77 745.997 C 1356.96 747.896 1358.72 747.616 1362.42 754.009 C 1358.17 754.048 1353.32 754.601 1349.65 752.797 C 1347.2 749.597 1347.98 750.573 1348.02 745.54 z" fill="rgb(254,254,254)" transform="translate(0,0)"></path>
<path d="M 575.739 718.648 C 577.149 718.298 576.34 718.341 578.16 718.861 C 574.196 720.277 551.483 723.967 546.207 724.891 C 544.565 725.054 544.381 724.886 542.716 724.642 L 542.974 723.555 C 551.826 721.236 566.759 719.135 575.739 718.648 z" fill="rgb(120,121,124)" transform="translate(0,0)"></path>
<path d="M 1214.38 387.69 C 1219.16 391.347 1212.11 402.453 1209.67 406.029 C 1209.46 396.611 1207.3 393.978 1214.38 387.69 z" fill="rgb(254,254,254)" transform="translate(0,0)"></path>
<path d="M 1493.85 1107.33 C 1497.8 1109.65 1499.84 1111 1499.84 1115.64 L 1496.82 1118.52 L 1494.51 1118.67 C 1488.91 1115.16 1490.59 1111.79 1493.85 1107.33 z" fill="rgb(254,254,254)" transform="translate(0,0)"></path>
<path d="M 1602.67 843.995 C 1607.95 844.389 1613.86 844.159 1617.72 847.668 L 1617.66 850.273 C 1614.9 851.833 1615.1 851.922 1611.98 852.041 C 1607.95 850.722 1605.63 847.286 1602.67 843.995 z" fill="rgb(254,254,254)" transform="translate(0,0)"></path>
<path d="M 1610.11 861.494 C 1613.26 861.999 1612 861.32 1614.18 863.285 C 1614.74 867.115 1612.86 871.263 1611.59 875.066 C 1608.84 872.607 1608.48 872.516 1606.52 869.273 C 1606.87 865.063 1607.43 865.561 1610.11 861.494 z" fill="rgb(254,254,254)" transform="translate(0,0)"></path>
<path d="M 913.055 347.746 C 917.071 351.429 919.491 366.336 917.388 371.731 L 915.204 372.523 C 914.398 370.668 913.729 352.877 913.055 347.746 z" fill="rgb(254,254,254)" transform="translate(0,0)"></path>
<path d="M 1602.71 994.453 C 1605.34 996.188 1605.48 996.015 1607.09 998.638 C 1605.4 1002 1602.67 1003.02 1599.19 1005.39 C 1597.62 1005.48 1596.72 1005.4 1595.15 1005.33 C 1595.43 1002.28 1600.41 997.264 1602.71 994.453 z" fill="rgb(254,254,254)" transform="translate(0,0)"></path>
<path d="M 1656.78 1018.41 L 1659.22 1018.93 C 1660.72 1022.62 1660.21 1025.72 1659.39 1029.49 L 1657.95 1029.18 C 1655.12 1027.55 1653.48 1026.94 1651.62 1024.24 C 1652.7 1020.68 1653.19 1021.28 1656.78 1018.41 z" fill="rgb(254,254,254)" transform="translate(0,0)"></path>
<path d="M 1559.05 644.896 C 1559.59 642.136 1559.39 642.088 1561.06 639.905 L 1562.98 640.039 C 1567.51 643.467 1568.67 644.086 1574.17 645.499 L 1574.05 647.934 C 1570.39 649.114 1562.91 646.209 1559.05 644.896 z" fill="rgb(254,254,254)" transform="translate(0,0)"></path>
<path d="M 1573.05 619.182 L 1576.21 618.067 L 1577.71 619.14 C 1578.12 626.043 1574.42 629.755 1568.33 632.023 C 1569.95 627.951 1571.52 623.341 1573.05 619.182 z" fill="rgb(254,254,254)" transform="translate(0,0)"></path>
<path d="M 371.772 1128.62 C 372.99 1129.44 373.068 1129.83 374.025 1131.04 C 373.228 1136.58 367.664 1137.83 364.234 1144.3 L 362.611 1143.17 C 363.057 1138.02 368.336 1132.66 371.772 1128.62 z" fill="rgb(254,254,254)" transform="translate(0,0)"></path>
<path d="M 1356.34 309.644 C 1359.53 318.891 1360.59 318.017 1357.9 327.176 C 1353.53 319.773 1351.84 317.614 1356.34 309.644 z" fill="rgb(254,254,254)" transform="translate(0,0)"></path>
<path d="M 1620.05 850.385 C 1623.46 850.677 1624.9 850.992 1626.93 853.37 C 1625.75 856.531 1625.43 855.824 1621.63 858.044 C 1619.93 858.998 1620.81 858.615 1618.21 858.202 C 1616.3 855.642 1617.03 857.067 1616.83 853.414 L 1620.05 850.385 z" fill="rgb(254,254,254)" transform="translate(0,0)"></path>
<path d="M 1398.47 395.771 L 1399.43 397.11 C 1398.14 404.897 1396.06 410.375 1392.04 417.093 L 1391.2 416.566 C 1392.98 406.695 1393.61 404.091 1398.47 395.771 z" fill="rgb(254,254,254)" transform="translate(0,0)"></path>
<path d="M 1408.32 585.398 C 1413.66 588.101 1411.49 595.529 1416.48 605.512 C 1413.65 605.778 1414.9 606.12 1412.61 604.507 C 1409.93 598.648 1408.75 591.79 1408.32 585.398 z" fill="rgb(254,254,254)" transform="translate(0,0)"></path>
<path d="M 1497.05 1119.09 C 1500.31 1118.75 1500.2 1118.6 1503.28 1119.51 C 1506.09 1121.9 1506.43 1125.54 1507.33 1129.25 C 1502.07 1127.32 1497.43 1124.98 1497.05 1119.09 z" fill="rgb(254,254,254)" transform="translate(0,0)"></path>
<path d="M 1618.63 867.578 C 1620.98 869.33 1620.95 869.403 1622.77 871.742 C 1622.53 875.682 1621.95 875.232 1619.34 879.081 C 1616.89 877.793 1617.02 877.906 1615.22 875.825 C 1615.23 871.59 1616.01 871.877 1618.63 867.578 z" fill="rgb(254,254,254)" transform="translate(0,0)"></path>
<path d="M 1517.44 563.69 C 1519.58 566.119 1519.75 565.951 1520.53 569.021 C 1519.4 572.276 1516.05 574.067 1513.12 576.178 L 1512.26 576.711 L 1511.18 576.093 C 1512.18 572.239 1515.37 567.295 1517.44 563.69 z" fill="rgb(254,254,254)" transform="translate(0,0)"></path>
<path d="M 1490.5 1097.72 C 1492.49 1100.15 1492.39 1100.18 1493.61 1103.12 C 1492.44 1107.07 1492.43 1106.1 1488.85 1109.35 C 1486.59 1108.31 1486.48 1106.93 1485.84 1104.89 C 1486.62 1101.19 1487.86 1100.43 1490.5 1097.72 z" fill="rgb(254,254,254)" transform="translate(0,0)"></path>
<path d="M 1553.48 624.739 C 1555.05 631.156 1552.81 634.79 1548.01 638.691 C 1545.03 631.28 1548.2 629.001 1553.48 624.739 z" fill="rgb(254,254,254)" transform="translate(0,0)"></path>
<path d="M 1625.93 874.495 C 1629.58 876.616 1631.9 879.539 1634.34 882.869 L 1633.55 883.737 C 1629.13 882.774 1624.34 882.942 1623.35 878.3 L 1625.93 874.495 z" fill="rgb(254,254,254)" transform="translate(0,0)"></path>
<path d="M 988.602 492.99 C 988.12 496.882 980.831 510.112 978.332 518.681 C 974.495 510.716 984.013 499.837 988.602 492.99 z" fill="rgb(254,254,254)" transform="translate(0,0)"></path>
<path d="M 1470.52 633.714 C 1471.24 634.413 1471.33 634.966 1471.79 635.971 C 1471.19 640.843 1468.85 643.923 1466.35 648.226 C 1464.97 645.986 1465.01 645.967 1464.27 643.423 C 1464.96 639.523 1467.9 636.826 1470.52 633.714 z" fill="rgb(254,254,254)" transform="translate(0,0)"></path>
<path d="M 1192.47 403.681 C 1194.46 411.13 1193.34 413.855 1188.83 419.692 C 1186.79 412.577 1188.08 409.266 1192.47 403.681 z" fill="rgb(254,254,254)" transform="translate(0,0)"></path>
<path d="M 1182.33 410.691 L 1183.2 411.856 C 1183.55 417.081 1183.79 422.462 1180.73 426.767 C 1178.65 418.543 1176.69 417.317 1182.33 410.691 z" fill="rgb(254,254,254)" transform="translate(0,0)"></path>
<path d="M 1628.53 741.708 C 1633.27 742.827 1633.96 742.156 1636.87 745.022 L 1636.66 747.956 C 1633.42 748.271 1631.23 748.748 1628.08 747.91 C 1626.8 745.186 1627.45 745.494 1628.53 741.708 z" fill="rgb(254,254,254)" transform="translate(0,0)"></path>
<path d="M 1632.49 751.271 L 1634.1 751.217 C 1633.07 753.762 1626.04 758.112 1623.21 760.172 L 1622.2 760.44 L 1621.78 759.111 C 1624.88 752.328 1625.56 752.405 1632.49 751.271 z" fill="rgb(254,254,254)" transform="translate(0,0)"></path>
<path d="M 1069.8 335.483 C 1070.94 336.142 1073.43 338.104 1074.61 338.976 C 1076.47 342.193 1076.06 343.017 1075.6 346.697 C 1072.51 346.79 1073.94 347.141 1071.19 345.428 C 1069.34 342.174 1069.8 339.31 1069.8 335.483 z" fill="rgb(254,254,254)" transform="translate(0,0)"></path>
<path d="M 920.224 370.651 C 922.407 376.961 921.729 383.581 919.902 389.885 C 915.94 382.385 917.966 379.351 920.224 370.651 z" fill="rgb(254,254,254)" transform="translate(0,0)"></path>
<path d="M 1274.83 910.287 C 1277.48 911.16 1276.66 910.862 1279.02 912.556 C 1281.21 916.144 1281.01 920.259 1281.35 924.606 C 1276.55 921.413 1276.07 915.799 1274.83 910.287 z" fill="rgb(254,254,254)" transform="translate(0,0)"></path>
<path d="M 554.257 1179.75 L 555.672 1181.14 C 555.363 1185.68 553.533 1188.05 551.299 1192.02 C 549.878 1189.23 549.905 1189 549.184 1185.9 C 550.643 1181.93 550.573 1182.91 554.257 1179.75 z" fill="rgb(254,254,254)" transform="translate(0,0)"></path>
<path d="M 1286.06 903.694 C 1289.69 911.979 1293.28 910.852 1292.59 919.614 L 1290.79 919.559 C 1288.71 913.132 1284.91 909.889 1286.06 903.694 z" fill="rgb(254,254,254)" transform="translate(0,0)"></path>
<path d="M 1699.72 1035.78 L 1700.46 1035.92 L 1700.15 1037.08 C 1696.02 1039.77 1695.56 1039.78 1690.68 1041.04 L 1689.44 1037.41 C 1691.54 1035.23 1695.83 1035.92 1699.72 1035.78 z" fill="rgb(254,254,254)" transform="translate(0,0)"></path>
<path d="M 1374.47 423.677 C 1375.22 424.397 1375.19 424.836 1375.63 425.968 C 1373.64 431.117 1373.19 432.023 1373.21 437.487 C 1370.36 435.21 1371.45 436.6 1370.07 432.998 C 1370.41 429.17 1372.35 426.965 1374.47 423.677 z" fill="rgb(254,254,254)" transform="translate(0,0)"></path>
<path d="M 1201.64 397.461 L 1203.07 398.838 C 1204.06 403.7 1203.07 405.612 1200.63 409.577 C 1197.95 402.412 1197.37 403.136 1201.64 397.461 z" fill="rgb(254,254,254)" transform="translate(0,0)"></path>
<path d="M 1512.74 478.875 C 1513.55 479.769 1513.28 479.846 1513.62 481.371 C 1512.24 486.211 1511.43 486.991 1508.55 491.286 C 1507.25 489.776 1507.72 490.312 1507.29 488.037 C 1508.41 483.633 1509.78 482.537 1512.74 478.875 z" fill="rgb(254,254,254)" transform="translate(0,0)"></path>
<path d="M 974.532 515.633 C 976.201 520.523 970.941 528.217 968.289 534.25 L 967.918 533.47 C 968.314 527.966 972.002 520.54 974.532 515.633 z" fill="rgb(254,254,254)" transform="translate(0,0)"></path>
<path d="M 1543.28 476.456 L 1545.01 476.688 C 1542.4 479.087 1537.82 479.842 1534.07 480.937 L 1532.44 479.582 L 1532.46 477.952 C 1535.85 476.273 1539.45 476.557 1543.28 476.456 z" fill="rgb(254,254,254)" transform="translate(0,0)"></path>
<path d="M 908.549 347.972 L 911.333 345.746 C 910.991 350.769 911.257 354.611 909.617 359.26 C 907.789 355.542 908.907 352.169 908.549 347.972 z" fill="rgb(177,176,180)" transform="translate(0,0)"></path>
<path d="M 943.874 432.721 C 949.141 434.151 958.393 442.455 963.208 446.303 C 957.931 445.711 948.161 436.543 943.874 432.721 z" fill="rgb(74,70,65)" transform="translate(0,0)"></path>
<path d="M 1702.05 816.705 C 1707.29 819.796 1709.41 824.503 1711.04 830.06 C 1705.51 825.817 1704.38 823.34 1702.05 816.705 z" fill="rgb(254,254,254)" transform="translate(0,0)"></path>
<path d="M 1374.62 294.738 C 1375.11 299.271 1375.49 300.513 1374.59 304.865 L 1372.71 306.028 L 1370.7 301.406 C 1371.36 297.353 1371.42 298.38 1374.62 294.738 z" fill="rgb(254,254,254)" transform="translate(0,0)"></path>
<path d="M 1263.23 899.679 L 1264.38 900.636 C 1267.13 906.273 1266.07 912.651 1265.5 918.841 L 1264.99 918.486 C 1263.59 916.117 1264.06 904.759 1263.23 899.679 z" fill="rgb(177,176,180)" transform="translate(0,0)"></path>
<path d="M 1183.12 710.972 C 1183.99 707.178 1186.07 699.302 1188.72 696.597 L 1188.89 696.739 C 1188.89 701.164 1186.05 708.285 1184.15 712.332 L 1183.12 710.972 z" fill="rgb(33,27,21)" transform="translate(0,0)"></path>
<path d="M 1545.55 460.972 C 1548.56 461.503 1548.43 461.537 1551.14 463.016 L 1551.61 464.827 C 1550.17 467.572 1548.16 468.205 1545.37 469.703 C 1544.02 468.874 1544.7 469.465 1543.59 467.671 C 1546.21 466.495 1546.28 466.675 1548.11 464.543 L 1545.55 460.972 z" fill="rgb(206,207,210)" transform="translate(0,0)"></path>
<path d="M 1363.32 301.697 C 1366.39 304.386 1366.42 311.041 1366.75 315.162 L 1365.28 314.479 C 1362.32 310.39 1362.99 306.599 1363.32 301.697 z" fill="rgb(254,254,254)" transform="translate(0,0)"></path>
<path d="M 1521.48 694.581 C 1522.21 696.383 1522.21 697.125 1522.58 699.058 C 1521.65 702.543 1520.5 702.983 1517.64 705.208 L 1516.68 704.24 C 1517.17 700.844 1519.6 697.602 1521.48 694.581 z" fill="rgb(254,254,254)" transform="translate(0,0)"></path>
<path d="M 522.013 798.091 C 522.848 793.243 522.999 784.931 524.629 781.089 C 525.091 787.874 525.22 789.754 524.337 796.603 L 522.013 798.091 z" fill="rgb(74,70,65)" transform="translate(0,0)"></path>
<path d="M 1083.8 969.294 L 1084.89 969.91 C 1083.82 972.829 1079.02 982.628 1076.32 983.956 C 1076.72 979.914 1081.44 973.083 1083.8 969.294 z" fill="rgb(74,70,65)" transform="translate(0,0)"></path>
<path d="M 1382.04 417.601 L 1383.27 418.857 C 1383.6 423.174 1382.12 426.153 1380.68 430.296 L 1379.95 429.343 C 1378.87 424.617 1379.61 421.603 1382.04 417.601 z" fill="rgb(254,254,254)" transform="translate(0,0)"></path>
<path d="M 1351.47 420.594 C 1355.2 423.768 1352.25 428.925 1350.51 432.405 L 1349.14 430.871 C 1348.99 426.747 1350.1 424.591 1351.47 420.594 z" fill="rgb(254,254,254)" transform="translate(0,0)"></path>
<path d="M 1257.54 838.994 L 1260.02 840.649 L 1259.96 841.934 C 1257.07 844.245 1256.68 844.65 1254.32 847.574 L 1253.73 848.309 L 1252.84 849.492 L 1252.19 848.751 C 1253.78 844.278 1254.85 843.024 1257.54 838.994 z" fill="rgb(254,254,254)" transform="translate(0,0)"></path>
<path d="M 1431.33 617.228 L 1432.49 615.566 C 1434.21 622.073 1432.5 625.183 1426.07 627.826 C 1429.1 621.073 1429.7 627.258 1431.33 617.228 z" fill="rgb(74,70,65)" transform="translate(0,0)"></path>
<path d="M 1128.47 683.802 C 1128.95 687.955 1123.24 695.487 1120.77 699.29 C 1119.74 695.466 1126.1 687.349 1128.47 683.802 z" fill="rgb(74,70,65)" transform="translate(0,0)"></path>
<path d="M 908.549 347.972 C 907.53 343.936 906.288 340.402 907.856 336.652 C 910.151 339.02 910.502 342.393 911.333 345.746 L 908.549 347.972 z" fill="rgb(254,254,254)" transform="translate(0,0)"></path>
<path d="M 1046.94 202.557 L 1048.25 203.935 C 1048.7 207.527 1047.26 210.741 1046.13 214.236 L 1045.09 213.961 C 1043.78 210.03 1045.25 206.078 1046.94 202.557 z" fill="rgb(254,254,254)" transform="translate(0,0)"></path>
<path d="M 717.274 1177.82 L 717.931 1178.08 L 718.284 1179.07 C 714.471 1181.92 709.019 1183.85 704.521 1185.73 L 704.132 1185.68 L 703.841 1185.03 C 708.413 1181.83 712.271 1180.19 717.274 1177.82 z" fill="rgb(206,207,210)" transform="translate(0,0)"></path>
<path d="M 1229.44 257.754 C 1232.72 260.58 1231.41 266.769 1230.64 270.422 L 1229.12 270.265 C 1228.26 266.389 1229.05 261.793 1229.44 257.754 z" fill="rgb(254,254,254)" transform="translate(0,0)"></path>
<path d="M 544.74 1177 L 545.562 1177.75 C 544.009 1180.77 541.4 1182.12 538.508 1184.27 L 537.266 1181.41 C 539.362 1178.23 540.344 1178.75 544.74 1177 z" fill="rgb(254,254,254)" transform="translate(0,0)"></path>
<path d="M 1236.27 248.676 L 1237.47 249.854 C 1238.17 253.599 1237.07 257.585 1236.36 261.404 L 1234.76 260.474 C 1234.42 255.958 1235.33 253.053 1236.27 248.676 z" fill="rgb(206,207,210)" transform="translate(0,0)"></path>
<path d="M 1058.89 193.785 L 1059.69 194.672 C 1059.26 198.142 1056.57 201.188 1054.47 204.159 C 1053.58 203.251 1053.93 203.268 1053.65 201.514 C 1055.18 197.473 1055.87 197.059 1058.89 193.785 z" fill="rgb(254,254,254)" transform="translate(0,0)"></path>
<path d="M 1665.45 1037.2 C 1672.04 1037.22 1673.25 1037.31 1677.6 1042.31 C 1673.37 1041.51 1668.41 1040.32 1665.45 1037.2 z" fill="rgb(254,254,254)" transform="translate(0,0)"></path>
<path d="M 1411.45 561.478 L 1412.97 562.842 C 1413.77 566.455 1412.76 568.745 1411.81 572.351 L 1410.52 571.051 C 1409.32 567.538 1410.46 565.153 1411.45 561.478 z" fill="rgb(254,254,254)" transform="translate(0,0)"></path>
<path d="M 1363.85 430.379 C 1367.72 432.642 1367.36 437.022 1367.96 441.303 C 1363.84 438.433 1364.32 435.118 1363.85 430.379 z" fill="rgb(254,254,254)" transform="translate(0,0)"></path>
<path d="M 1244.29 244.624 L 1245.46 245.851 C 1245.13 251.628 1244.14 254.292 1242.57 259.796 C 1241.56 255.405 1243.23 248.922 1244.29 244.624 z" fill="rgb(120,121,124)" transform="translate(0,0)"></path>
<path d="M 1250 851.502 C 1251.49 854.663 1249.63 861.577 1248.97 865.414 C 1246.73 860.369 1248.41 856.553 1250 851.502 z" fill="rgb(19,15,10)" transform="translate(0,0)"></path>
<path d="M 1258.55 874.807 C 1257.76 870.567 1256.98 868.702 1258.73 864.882 C 1260.48 867.078 1259.69 868.588 1259.57 872.28 L 1258.55 874.807 z" fill="rgb(177,176,180)" transform="translate(0,0)"></path>
<path d="M 987.049 357.603 L 988.463 358.857 C 989.609 362.487 988.486 365.008 987.538 368.779 C 986.646 366.502 987.031 360.441 987.049 357.603 z" fill="rgb(74,70,65)" transform="translate(0,0)"></path>
<path d="M 683.464 959.251 C 688.493 960.558 692.476 961.396 692.695 967.185 C 693.117 978.314 691.963 987.456 693.319 998.742 C 706.121 999.216 731.228 995.867 740.489 1000.39 C 741.288 1001.4 742.387 1002.97 742.544 1004.29 C 746.38 1036.37 748.43 1069.49 748.884 1101.84 C 748.894 1105.41 747.369 1117.87 745.008 1119.84 C 735.218 1128.02 711.978 1127.16 699.93 1127.77 C 687.186 1128.11 651.143 1131.84 641.767 1123.49 C 636.98 1119.22 635.404 1109.57 634.689 1103.49 C 632.769 1087.15 627.675 1011.5 637.781 1002.37 C 643.15 997.524 674.076 999.293 682.528 999.295 C 683.197 986.446 683.096 972.293 683.464 959.251 z" fill="rgb(4,4,2)" transform="translate(0,0)"></path>
<path d="M 690.864 1021.84 C 705.438 1020.66 721.092 1021.13 735.725 1021.94 C 739.522 1040.92 741.897 1094.06 738.293 1113.42 C 736.887 1120.98 656.829 1124.49 647.719 1117.91 C 639.311 1104.68 640.038 1038.29 640.184 1023.45 C 645.395 1023.21 654.826 1022.53 659.713 1022.87 C 668.491 1021.72 681.727 1021.92 690.864 1021.84 z" fill="rgb(254,254,254)" transform="translate(0,0)"></path>
<path d="M 682.415 1023.69 C 684.637 1024.29 687.311 1023.89 689.751 1023.77 C 693.143 1028.08 701.146 1029.83 704.181 1035.6 C 695.873 1035.92 697.385 1026.56 689.007 1038.18 L 689.887 1037.11 C 691.727 1043.29 694.476 1038.01 692.98 1050.04 L 691.571 1052.17 L 689.229 1052.57 L 687.627 1051.32 C 689.084 1049.24 688.466 1049.8 690.51 1048.52 L 690.72 1046.65 C 688.973 1045.6 689.93 1045.99 687.828 1045.53 L 686.759 1043.47 L 689.803 1044.32 L 690.756 1043.06 C 689.486 1039.22 682.969 1039.49 681.071 1033.03 C 683.48 1030.62 682.095 1031.3 685.244 1030.71 C 684.934 1032.33 684.735 1033.84 684.653 1035.5 C 688.92 1033.82 689.544 1033.74 692.974 1030.86 L 692.512 1029.41 L 686.779 1030.5 C 685.21 1028.79 685.833 1029.78 685.503 1027.12 C 678.767 1028.15 684.591 1046.72 679.143 1052.16 L 677.381 1051.96 C 677.599 1050.82 677.875 1049.24 678.227 1048.18 C 682.187 1036.34 671.834 1031.7 682.415 1023.69 z" fill="rgb(4,4,2)" transform="translate(0,0)"></path>
<path d="M 711.984 1049.37 L 713.799 1050.39 L 713.54 1052.21 C 709.288 1056.72 703.993 1059.64 698.729 1063.01 C 681.953 1062.36 672.619 1068.14 657.029 1054.85 L 656.59 1053.81 L 657.427 1053.14 C 672.348 1062.55 684.685 1064.9 702.007 1058.19 C 705.11 1056.99 709.583 1051.87 711.984 1049.37 z" fill="rgb(19,15,10)" transform="translate(0,0)"></path>
<path d="M 674.88 1032.04 C 676.008 1036.2 669.41 1036.99 667.025 1046.2 C 664.683 1043.57 665.054 1044.94 664.571 1042.06 C 666.67 1037.84 671.043 1035.08 674.88 1032.04 z" fill="rgb(33,27,21)" transform="translate(0,0)"></path>
<path d="M 666.386 1007.43 C 675.47 1007.03 731.622 1005.25 735.811 1008.05 C 736.257 1011.2 736.555 1009.74 734.642 1012.53 C 730.672 1014.69 714.326 1014.17 708.752 1014.24 C 685.988 1013.88 661.728 1017.14 640.769 1016.68 L 639.812 1015.15 C 642.263 1005.81 658.308 1007.68 666.386 1007.43 z" fill="rgb(254,254,254)" transform="translate(0,0)"></path>
<path d="M 506.854 863.019 C 523.429 888.183 519.686 918.413 494.792 936.718 C 487.137 942.347 480.71 944.718 471.832 948.11 C 467.638 949.489 466.916 950.487 463.188 949.79 C 460.694 946.844 461.447 934.419 461.623 930.322 C 462.465 910.158 471.046 889.319 487.145 876.613 C 493.499 871.598 500.633 868.879 506.854 863.019 z" fill="rgb(4,4,2)" transform="translate(0,0)"></path>
<path d="M 505.712 876.805 C 507.019 878.074 508.608 880.677 508.915 882.467 C 512.904 905.715 494.871 930.689 473.708 937.541 C 475.823 930.856 480.609 918.382 485.097 912.762 C 487.651 909.562 487.51 913.54 490.955 913.605 C 489.825 911.318 489.603 910.62 488.842 908.17 C 490.822 903.575 491.974 900.819 494.559 896.491 L 498.3 895.633 C 498.392 894.671 498.484 893.709 498.576 892.746 L 498.734 891.538 C 499.421 885.899 502.665 881.697 505.712 876.805 z" fill="rgb(254,254,254)" transform="translate(0,0)"></path>
<path d="M 495.655 880.076 C 495.666 885.123 489.826 890.891 486.262 894.02 C 486.399 894.714 487.176 898.929 486.888 899.393 C 482.382 906.659 477.908 913.899 473.713 921.351 L 473.179 921.428 L 472.595 920.635 C 476.595 904.07 482.477 891.53 495.655 880.076 z" fill="rgb(254,254,254)" transform="translate(0,0)"></path>
<path d="M 615.527 308.895 C 641.765 312.663 669.433 334.084 682.328 357.395 C 686.064 364.15 695.457 381.48 694.66 388.547 C 691.351 387.882 688.052 387.169 684.763 386.409 C 654.338 379.268 632.466 368.204 620.373 337.736 C 616.446 327.841 612.808 319.849 615.527 308.895 z" fill="rgb(4,4,2)" transform="translate(0,0)"></path>
<path d="M 627.748 322.511 C 657.886 332.532 670.182 355.465 685.415 380.229 C 677.006 376.858 664.202 370.327 656.513 365.954 C 644.073 357.369 635.483 346.867 629.44 333.118 C 634.147 336.964 648.933 354.705 652.933 353.47 C 652.329 349.384 633.003 329.865 627.748 322.511 z" fill="rgb(254,254,254)" transform="translate(0,0)"></path>
<path d="M 655.62 352.903 C 661.418 357.463 670.801 363.359 673.411 369.84 C 667.212 367.183 655.637 360.12 655.62 352.903 z" fill="rgb(4,4,2)" transform="translate(0,0)"></path>
<path d="M 1547.64 1056.42 C 1551.06 1056.62 1553.32 1057.06 1556.61 1058.47 C 1574.15 1064.2 1582.85 1061.36 1599.77 1071.23 C 1610.4 1077.43 1626.51 1113.16 1619.74 1122.18 C 1605.63 1122.21 1581.86 1118.01 1570.59 1109.27 C 1557.5 1099.12 1556.18 1087.59 1554.02 1072.83 L 1551.13 1070.7 C 1547.66 1068.18 1547.25 1068.31 1545.43 1064.51 C 1545.21 1060.5 1545.67 1060.14 1547.64 1056.42 z" fill="rgb(4,4,2)" transform="translate(0,0)"></path>
<path d="M 1582.12 1075.1 C 1588.87 1074.85 1598.44 1077.12 1600.76 1084.26 L 1599.95 1085.59 C 1592.87 1084.76 1583.02 1085.27 1580.64 1077.63 L 1582.12 1075.1 z" fill="rgb(254,254,254)" transform="translate(0,0)"></path>
<path d="M 1589.15 1088.15 C 1600.89 1088.94 1607.04 1087.38 1609.47 1100.95 C 1599.49 1097.1 1597.26 1094.89 1589.15 1088.15 z" fill="rgb(254,254,254)" transform="translate(0,0)"></path>
<path d="M 1580.15 1092.64 C 1582.56 1094.28 1584.04 1095.66 1586.19 1097.57 C 1588.11 1101.3 1587.24 1103.65 1586.69 1108.08 C 1583.12 1106.71 1580.22 1105.3 1578.43 1101.93 C 1577.71 1098.11 1578.81 1096.3 1580.15 1092.64 z" fill="rgb(254,254,254)" transform="translate(0,0)"></path>
<path d="M 1570.99 1084.48 C 1573.96 1086.73 1574.46 1086.95 1576.55 1090.18 C 1577.43 1094.3 1575.87 1096.86 1574.32 1100.9 C 1571.1 1097.5 1569.89 1096.68 1568.18 1092.48 C 1567.9 1088.57 1568.86 1087.78 1570.99 1084.48 z" fill="rgb(254,254,254)" transform="translate(0,0)"></path>
<path d="M 1590.68 1101.67 C 1596.96 1103.85 1599.31 1104.48 1598.53 1111.32 C 1595.02 1110.6 1594.62 1110.78 1591.7 1108.59 C 1590.02 1105.72 1590.44 1105.02 1590.68 1101.67 z" fill="rgb(254,254,254)" transform="translate(0,0)"></path>
<path d="M 1157.02 252.547 C 1158.51 252.711 1159.22 253.016 1160.66 253.437 C 1168.87 261.719 1177.48 284.626 1177.01 296.717 C 1176.15 318.713 1164.93 331.039 1150.29 345.067 L 1147.15 347.223 L 1144.94 346.796 C 1122.95 318.276 1138.32 278.269 1157.02 252.547 z" fill="rgb(4,4,2)" transform="translate(0,0)"></path>
<path d="M 1163.6 311.849 L 1164.45 313.465 C 1163.67 317.992 1162.33 319.404 1159.78 323.396 L 1158.38 319.695 C 1159.42 315.098 1159.85 315.885 1163.6 311.849 z" fill="rgb(254,254,254)" transform="translate(0,0)"></path>
<path d="M 1372.8 1036.35 C 1391.83 1012.54 1405.33 1015.44 1432.34 1009.94 C 1436.08 1009.17 1441.01 1005.9 1444.76 1006.85 C 1453.81 1015.98 1441.26 1042.15 1434.9 1050.89 C 1431.33 1054.28 1430.32 1054.84 1425.19 1055.52 C 1420.32 1054.67 1414.32 1056.45 1409.35 1055.95 C 1397.03 1054.72 1383 1043.33 1372.8 1036.35 z" fill="rgb(4,4,2)" transform="translate(0,0)"></path>
<path d="M 1413.67 1020.75 L 1414.88 1023.21 L 1411.39 1034.56 L 1409.45 1033.22 L 1406.88 1035.75 C 1402.23 1037.02 1402.46 1036.16 1396.99 1034.68 C 1395.71 1037.1 1395.71 1037.22 1393.89 1039.23 L 1392.7 1038.37 C 1392.62 1035.85 1392.82 1034.42 1391.76 1032.17 L 1390.13 1032.18 C 1393.83 1026.49 1407.2 1022.04 1413.67 1020.75 z" fill="rgb(254,254,254)" transform="translate(0,0)"></path>
<path d="M 1413.67 1020.75 L 1414.88 1023.21 L 1411.39 1034.56 L 1409.45 1033.22 L 1413.67 1020.75 z" fill="rgb(33,27,21)" transform="translate(0,0)"></path>
<path d="M 1414.88 1023.21 C 1417.81 1020.09 1417.6 1019.97 1421.62 1019.01 C 1425.46 1019.78 1423.94 1018.88 1426.48 1021.56 C 1427.64 1031.05 1418.58 1032.46 1411.39 1034.56 L 1414.88 1023.21 z" fill="rgb(254,254,254)" transform="translate(0,0)"></path>
<path d="M 1437.57 1017.06 L 1438.34 1017.91 C 1439.31 1022.35 1439.55 1020.34 1438.28 1024.19 C 1434.89 1027.67 1434.18 1027.56 1429.26 1028.86 L 1428.32 1028.09 C 1427.23 1021.27 1431.87 1018.82 1437.57 1017.06 z" fill="rgb(254,254,254)" transform="translate(0,0)"></path>
<path d="M 1430.4 1034.94 C 1432.37 1034.95 1431.37 1034.75 1433.39 1035.66 C 1432.56 1038.99 1428.81 1041.8 1426.16 1044.3 C 1423.56 1042.42 1423.01 1041.43 1422.68 1038.61 C 1424.76 1035.89 1426.99 1035.8 1430.4 1034.94 z" fill="rgb(254,254,254)" transform="translate(0,0)"></path>
<path d="M 1413.64 1039.36 C 1417.3 1040.09 1419.35 1042.14 1422.28 1044.45 L 1421.75 1046.01 C 1418.52 1046.52 1415.79 1047.38 1412.83 1046.27 C 1411.63 1043.08 1412.27 1043.55 1413.64 1039.36 z" fill="rgb(254,254,254)" transform="translate(0,0)"></path>
<path d="M 1280.97 319.591 C 1283.14 320.048 1285.47 320.697 1287.04 322.355 C 1313.12 349.804 1313.27 374.618 1290.16 402.45 C 1288.11 404.677 1288.21 404.829 1285.56 406.15 C 1274.99 404.36 1270.13 383.724 1268.25 374.633 C 1264.12 354.643 1269.53 336.154 1280.97 319.591 z" fill="rgb(4,4,2)" transform="translate(0,0)"></path>
<path d="M 1282.43 338.666 C 1283.79 344.412 1284.15 344.702 1280.2 349.141 C 1278.53 344.424 1280.17 342.901 1282.43 338.666 z" fill="rgb(254,254,254)" transform="translate(0,0)"></path>
<path d="M 726.631 1192.86 C 741.61 1192.26 736.267 1213.73 733.681 1222.29 C 727.727 1241.97 713.139 1251.88 695.752 1260.7 C 692.976 1262.14 693.064 1262.1 689.985 1262.67 C 686.432 1256.47 689.013 1232.71 691.958 1225.62 C 699.025 1208.62 710.706 1200.23 726.631 1192.86 z" fill="rgb(4,4,2)" transform="translate(0,0)"></path>
<path d="M 713.281 1227.82 C 711.752 1225.72 712.117 1226.55 711.628 1224.06 C 716.758 1214.26 716.898 1216.73 722.549 1208.83 C 721.877 1207.85 721.206 1206.86 720.534 1205.88 C 722.796 1204.1 724.351 1204.36 727.543 1203.88 L 728.931 1205.03 C 728.548 1213.13 725.548 1209.91 721.968 1214.74 C 723.608 1216.5 724.943 1217.64 726.88 1219.08 L 721.931 1219.71 C 720.859 1221.85 720.937 1221.95 720.571 1224.31 L 716.351 1226.7 L 713.281 1227.82 z" fill="rgb(254,254,254)" transform="translate(0,0)"></path>
<path d="M 703.186 1238.31 C 706.704 1238.99 705.299 1238.21 707.754 1240.33 C 706.604 1243.11 705.383 1243.23 702.499 1245.33 L 700.837 1246.9 L 699.964 1246.48 C 700.295 1242.86 701.417 1241.46 703.186 1238.31 z" fill="rgb(254,254,254)" transform="translate(0,0)"></path>
<path d="M 1136.81 521.611 C 1147.47 528.641 1165.4 567.626 1159.66 580.925 C 1156.4 588.483 1153.11 598.398 1151.28 606.419 L 1150.97 607.781 L 1149.6 608.776 C 1142.61 603.948 1132.67 579.744 1130.71 570.519 C 1126.66 551.463 1126.48 538.654 1136.81 521.611 z" fill="rgb(4,4,2)" transform="translate(0,0)"></path>
<path d="M 1141.76 548.614 C 1148.65 558.082 1152.67 567.795 1149.79 579.577 L 1148.77 579.782 C 1146.43 576.153 1142.05 553.806 1141.76 548.614 z" fill="rgb(254,254,254)" transform="translate(0,0)"></path>
<path d="M 1136.07 554.602 C 1140.05 557.455 1142.86 579.763 1148.02 589.366 C 1141.63 585.669 1136.95 562.134 1136.07 554.602 z" fill="rgb(177,176,180)" transform="translate(0,0)"></path>
<metadata><recraft-signature>{"signed_by": "recraft", "signature_b64": "lWLwNq/OKL4FWCBBVREG1bHvfx3xoIeOPVUNG23Gaeu1W9AI1XZ4OZtZp6vqXxW30i8MAee5SnjvFWe8N+fuCA==", "signing_algo": "Ed25519", "generation_timestamp": 1783498282, "identifier": "82d29f3d-6648-4b09-accf-299d03b37759"}</recraft-signature></metadata></svg>