<svg xmlns="http://www.w3.org/2000/svg" height="1024" preserveAspectRatio="none" style="display: block;" version="1.1" viewBox="0 0 2048 2048" width="1024">
<defs>
	<linearGradient gradientUnits="userSpaceOnUse" id="Gradient1" x1="1594.83" x2="1547.58" y1="426.116" y2="388.625">
		<stop class="stop0" offset="0" stop-color="rgb(242,147,151)" stop-opacity="1"></stop>
		<stop class="stop1" offset="1" stop-color="rgb(248,204,184)" stop-opacity="1"></stop>
	</linearGradient>
	<linearGradient gradientUnits="userSpaceOnUse" id="Gradient2" x1="448.052" x2="398.652" y1="717.414" y2="653.496">
		<stop class="stop0" offset="0" stop-color="rgb(224,121,130)" stop-opacity="1"></stop>
		<stop class="stop1" offset="1" stop-color="rgb(247,208,161)" stop-opacity="1"></stop>
	</linearGradient>
	<linearGradient gradientUnits="userSpaceOnUse" id="Gradient3" x1="1698.08" x2="1682.04" y1="690.911" y2="571.939">
		<stop class="stop0" offset="0" stop-color="rgb(20,102,167)" stop-opacity="1"></stop>
		<stop class="stop1" offset="1" stop-color="rgb(105,181,219)" stop-opacity="1"></stop>
	</linearGradient>
	<linearGradient gradientUnits="userSpaceOnUse" id="Gradient4" x1="513.214" x2="506.636" y1="493.008" y2="462.998">
		<stop class="stop0" offset="0" stop-color="rgb(0,163,225)" stop-opacity="1"></stop>
		<stop class="stop1" offset="1" stop-color="rgb(36,221,251)" stop-opacity="1"></stop>
	</linearGradient>
	<linearGradient gradientUnits="userSpaceOnUse" id="Gradient5" x1="519.701" x2="461.814" y1="452.032" y2="377.806">
		<stop class="stop0" offset="0" stop-color="rgb(72,209,244)" stop-opacity="1"></stop>
		<stop class="stop1" offset="1" stop-color="rgb(169,247,254)" stop-opacity="1"></stop>
	</linearGradient>
	<linearGradient gradientUnits="userSpaceOnUse" id="Gradient6" x1="919.791" x2="830.303" y1="1213.15" y2="1263.71">
		<stop class="stop0" offset="0" stop-color="rgb(194,77,71)" stop-opacity="1"></stop>
		<stop class="stop1" offset="1" stop-color="rgb(229,167,117)" stop-opacity="1"></stop>
	</linearGradient>
	<linearGradient gradientUnits="userSpaceOnUse" id="Gradient7" x1="608.277" x2="470.333" y1="1618.1" y2="1506.29">
		<stop class="stop0" offset="0" stop-color="rgb(223,115,80)" stop-opacity="1"></stop>
		<stop class="stop1" offset="1" stop-color="rgb(255,208,134)" stop-opacity="1"></stop>
	</linearGradient>
	<linearGradient gradientUnits="userSpaceOnUse" id="Gradient8" x1="1016.86" x2="971.728" y1="474.279" y2="517.341">
		<stop class="stop0" offset="0" stop-color="rgb(72,113,115)" stop-opacity="1"></stop>
		<stop class="stop1" offset="1" stop-color="rgb(110,145,144)" stop-opacity="1"></stop>
	</linearGradient>
	<linearGradient gradientUnits="userSpaceOnUse" id="Gradient9" x1="973.259" x2="806.266" y1="767.982" y2="452.565">
		<stop class="stop0" offset="0" stop-color="rgb(59,191,132)" stop-opacity="1"></stop>
		<stop class="stop1" offset="1" stop-color="rgb(149,218,170)" stop-opacity="1"></stop>
	</linearGradient>
	<linearGradient gradientUnits="userSpaceOnUse" id="Gradient10" x1="1213.8" x2="1211.33" y1="640.454" y2="666.545">
		<stop class="stop0" offset="0" stop-color="rgb(39,83,70)" stop-opacity="1"></stop>
		<stop class="stop1" offset="1" stop-color="rgb(23,123,99)" stop-opacity="1"></stop>
	</linearGradient>
	<linearGradient gradientUnits="userSpaceOnUse" id="Gradient11" x1="1067.08" x2="1304.01" y1="757.908" y2="367.724">
		<stop class="stop0" offset="0" stop-color="rgb(44,169,115)" stop-opacity="1"></stop>
		<stop class="stop1" offset="1" stop-color="rgb(115,197,137)" stop-opacity="1"></stop>
	</linearGradient>
	<linearGradient gradientUnits="userSpaceOnUse" id="Gradient12" x1="1427.92" x2="1352.45" y1="956.371" y2="756.639">
		<stop class="stop0" offset="0" stop-color="rgb(116,209,158)" stop-opacity="1"></stop>
		<stop class="stop1" offset="1" stop-color="rgb(180,228,192)" stop-opacity="1"></stop>
	</linearGradient>
	<linearGradient gradientUnits="userSpaceOnUse" id="Gradient13" x1="1444.41" x2="1422.74" y1="1157.56" y2="842.805">
		<stop class="stop0" offset="0" stop-color="rgb(14,147,99)" stop-opacity="1"></stop>
		<stop class="stop1" offset="1" stop-color="rgb(126,230,162)" stop-opacity="1"></stop>
	</linearGradient>
	<linearGradient gradientUnits="userSpaceOnUse" id="Gradient14" x1="628.532" x2="604.786" y1="1050.68" y2="1011.28">
		<stop class="stop0" offset="0" stop-color="rgb(242,202,53)" stop-opacity="1"></stop>
		<stop class="stop1" offset="1" stop-color="rgb(255,252,129)" stop-opacity="1"></stop>
	</linearGradient>
	<linearGradient gradientUnits="userSpaceOnUse" id="Gradient15" x1="748.952" x2="589.192" y1="1112.13" y2="889.943">
		<stop class="stop0" offset="0" stop-color="rgb(15,134,89)" stop-opacity="1"></stop>
		<stop class="stop1" offset="1" stop-color="rgb(85,210,150)" stop-opacity="1"></stop>
	</linearGradient>
	<linearGradient gradientUnits="userSpaceOnUse" id="Gradient16" x1="1028.12" x2="1118.88" y1="1337.21" y2="1336.05">
		<stop class="stop0" offset="0" stop-color="rgb(209,123,102)" stop-opacity="1"></stop>
		<stop class="stop1" offset="1" stop-color="rgb(220,156,120)" stop-opacity="1"></stop>
	</linearGradient>
	<linearGradient gradientUnits="userSpaceOnUse" id="Gradient17" x1="1268.99" x2="1256.8" y1="1072.89" y2="1096.52">
		<stop class="stop0" offset="0" stop-color="rgb(11,85,70)" stop-opacity="1"></stop>
		<stop class="stop1" offset="1" stop-color="rgb(5,107,76)" stop-opacity="1"></stop>
	</linearGradient>
	<linearGradient gradientUnits="userSpaceOnUse" id="Gradient18" x1="1765.1" x2="1678.83" y1="1376.79" y2="1293.38">
		<stop class="stop0" offset="0" stop-color="rgb(239,134,70)" stop-opacity="1"></stop>
		<stop class="stop1" offset="1" stop-color="rgb(248,184,100)" stop-opacity="1"></stop>
	</linearGradient>
	<linearGradient gradientUnits="userSpaceOnUse" id="Gradient19" x1="1487.7" x2="1390.22" y1="1576.15" y2="1531.38">
		<stop class="stop0" offset="0" stop-color="rgb(50,194,108)" stop-opacity="1"></stop>
		<stop class="stop1" offset="1" stop-color="rgb(102,215,168)" stop-opacity="1"></stop>
	</linearGradient>
	<linearGradient gradientUnits="userSpaceOnUse" id="Gradient20" x1="1136.01" x2="1109.41" y1="1932.28" y2="1760.52">
		<stop class="stop0" offset="0" stop-color="rgb(28,106,161)" stop-opacity="1"></stop>
		<stop class="stop1" offset="1" stop-color="rgb(85,167,205)" stop-opacity="1"></stop>
	</linearGradient>
	<linearGradient gradientUnits="userSpaceOnUse" id="Gradient21" x1="1573.63" x2="1431.06" y1="1758.34" y2="1189.39">
		<stop class="stop0" offset="0" stop-color="rgb(209,235,240)" stop-opacity="1"></stop>
		<stop class="stop1" offset="1" stop-color="rgb(244,250,252)" stop-opacity="1"></stop>
	</linearGradient>
	<linearGradient gradientUnits="userSpaceOnUse" id="Gradient22" x1="841.727" x2="555.839" y1="745.899" y2="689.02">
		<stop class="stop0" offset="0" stop-color="rgb(13,177,118)" stop-opacity="1"></stop>
		<stop class="stop1" offset="1" stop-color="rgb(43,211,154)" stop-opacity="1"></stop>
	</linearGradient>
	<linearGradient gradientUnits="userSpaceOnUse" id="Gradient23" x1="918.582" x2="1099.29" y1="112.541" y2="1747.49">
		<stop class="stop0" offset="0" stop-color="rgb(254,232,205)" stop-opacity="1"></stop>
		<stop class="stop1" offset="1" stop-color="rgb(242,255,255)" stop-opacity="1"></stop>
	</linearGradient>
</defs>
<path d="M 0 0 L 2048 0 L 2048 2048 L 0 2048 L 0 0 z" fill="rgb(255,255,255)" transform="translate(0,0)"></path>
<path d="M 465.918 291.259 C 700.793 113.484 1006.73 59.272 1288.39 145.517 C 1727.93 280.106 2000.07 719.155 1925.06 1172.68 C 1886.29 1407.08 1758.12 1617.3 1567.52 1759.13 C 1308.5 1951.87 967.241 1994.3 668.902 1870.87 C 599.776 1842.27 534.406 1805.32 474.248 1760.85 C 241.655 1588.92 103.74 1317.38 102.101 1028.14 C 100.461 738.903 235.289 465.821 465.918 291.259 z" fill="url(#Gradient23)" transform="translate(0,0)"></path>
<path d="M 578.374 598.734 C 595.82 606.992 616.618 625.686 633.378 636.604 C 650.086 647.488 669.377 648.376 688.455 651.488 C 696.375 652.67 708.499 656.265 714.858 657.069 C 716 659.445 717.682 663.733 719.468 665.199 C 731.779 693.34 743.484 719.615 759.214 746.174 C 772.212 768.121 822.35 815.873 825.39 836.793 C 819.238 828.767 803.447 806.084 796.276 802.397 C 794.631 801.334 781.992 788.984 779.658 786.766 C 771.378 778.894 764.775 773.68 755.798 766.793 C 722.516 745.2 692.945 730.902 652.479 726.984 C 645.146 726.274 634.698 725.548 627.505 726.862 C 613.286 727.678 576.413 732.908 564.601 740.168 C 551.224 695.672 560.89 640.92 578.374 598.734 z" fill="url(#Gradient22)" transform="translate(0,0)"></path>
<path d="M 1076.91 1631.26 C 1086.42 1626.63 1117.91 1624 1131.71 1620.44 C 1177.26 1608.71 1216.75 1592.92 1256.87 1569.15 C 1323.55 1529.66 1359 1488.51 1406.6 1428.65 C 1429.79 1399.95 1451.69 1370.24 1472.24 1339.6 L 1522.11 1265.05 C 1550.25 1223.59 1578.8 1181.72 1621.81 1153.24 C 1677.05 1117.65 1744.4 1109.31 1807.85 1122.2 C 1829.28 1126.56 1914 1156.01 1925.06 1172.68 C 1886.29 1407.08 1758.12 1617.3 1567.52 1759.13 C 1308.5 1951.87 967.241 1994.3 668.902 1870.87 C 674.341 1865.69 709.16 1854.52 718.331 1851.26 C 789.141 1825.56 861.73 1805.07 935.52 1789.94 C 962.807 1784.34 990.207 1779.32 1017.7 1774.86 C 1031.08 1772.59 1060.18 1768.25 1072.06 1763.92 C 1074.86 1763.88 1078.2 1764.08 1081.05 1764.18 C 1081.08 1726 1082.1 1682.31 1080.83 1644.66 L 1077.85 1643.43 C 1075.44 1639.83 1076.53 1636.04 1076.91 1631.26 z" fill="url(#Gradient21)" transform="translate(0,0)"></path>
<path d="M 1462.18 1762.78 L 1531.75 1760.84 C 1540.42 1760.6 1560.36 1760.5 1567.52 1759.13 C 1308.5 1951.87 967.241 1994.3 668.902 1870.87 C 674.341 1865.69 709.16 1854.52 718.331 1851.26 C 789.141 1825.56 861.73 1805.07 935.52 1789.94 C 962.807 1784.34 990.207 1779.32 1017.7 1774.86 C 1031.08 1772.59 1060.18 1768.25 1072.06 1763.92 C 1074.86 1763.88 1078.2 1764.08 1081.05 1764.18 C 1087.69 1765.96 1163.13 1762.97 1174.44 1762.87 L 1432.3 1762.57 C 1441.69 1762.77 1451.09 1762.81 1460.48 1762.68 L 1462.18 1762.78 z" fill="url(#Gradient20)" transform="translate(0,0)"></path>
<path d="M 1294.19 1795.22 C 1300.37 1806.28 1302.3 1808.95 1314.14 1814.63 C 1301.58 1818.88 1300.61 1819.73 1295.36 1832.17 C 1290.87 1821.68 1288.03 1816.32 1276.08 1813.9 L 1274.71 1811.89 C 1286.95 1808.66 1289.31 1807.8 1294.19 1795.22 z" fill="rgb(255,255,255)" transform="translate(0,0)"></path>
<path d="M 1276.08 1813.9 C 1270.51 1815.99 1189.52 1817.32 1181.97 1816.32 C 1193.09 1816.19 1252.28 1815.9 1258.18 1814.14 L 1258.14 1812.83 C 1250.17 1809.85 1232.58 1812 1226.53 1809.26 C 1232.55 1808.65 1268.73 1810.95 1274.71 1811.89 L 1276.08 1813.9 z" fill="rgb(72,178,209)" transform="translate(0,0)"></path>
<path d="M 1447.39 1403.17 C 1475.63 1462.54 1499.51 1524.24 1525.71 1584.53 C 1528.65 1591.28 1531.79 1597.95 1533.21 1605.23 C 1538.93 1634.51 1514.37 1661.67 1489.42 1673.04 C 1479.98 1677.35 1471.74 1679.67 1461.87 1681.57 C 1456.12 1682.28 1450.42 1683.08 1444.64 1683.42 L 1442.22 1683.01 C 1443.22 1673.16 1442.57 1647.04 1442.67 1635.89 C 1443.09 1600.74 1443.24 1565.58 1443.12 1530.42 C 1443.09 1494.17 1446.1 1448.18 1443.36 1413.85 L 1447.39 1403.17 z" fill="rgb(20,138,96)" transform="translate(0,0)"></path>
<path d="M 1443.36 1413.85 C 1446.1 1448.18 1443.09 1494.17 1443.12 1530.42 C 1443.24 1565.58 1443.09 1600.74 1442.67 1635.89 C 1442.57 1647.04 1443.22 1673.16 1442.22 1683.01 C 1439.17 1682.97 1435.12 1682.4 1431.99 1682.05 C 1404.29 1673.14 1379.55 1662.71 1369.41 1632.61 C 1362.2 1611.19 1370.4 1595.83 1377.95 1576.22 C 1385.53 1556.7 1393.26 1537.24 1401.15 1517.85 L 1424.78 1457.3 C 1430.18 1443.45 1436.36 1426.82 1443.36 1413.85 z" fill="url(#Gradient19)" transform="translate(0,0)"></path>
<path d="M 1444.64 1683.42 C 1450.42 1683.08 1456.12 1682.28 1461.87 1681.57 C 1461.94 1708.51 1461.77 1735.87 1462.18 1762.78 L 1460.48 1762.68 C 1451.09 1762.81 1441.69 1762.77 1432.3 1762.57 L 1431.99 1682.05 C 1435.12 1682.4 1439.17 1682.97 1442.22 1683.01 L 1444.64 1683.42 z" fill="rgb(129,49,69)" transform="translate(0,0)"></path>
<path d="M 1431.99 1682.05 C 1435.12 1682.4 1439.17 1682.97 1442.22 1683.01 L 1444.64 1683.42 C 1450.08 1691.58 1446.73 1748.58 1446.91 1762.09 C 1450.87 1762.14 1456.75 1762.01 1460.48 1762.68 C 1451.09 1762.81 1441.69 1762.77 1432.3 1762.57 L 1431.99 1682.05 z" fill="rgb(159,62,66)" transform="translate(0,0)"></path>
<path d="M 1607.58 1284.7 C 1633.13 1285.46 1658.69 1285.81 1684.25 1285.74 C 1702.51 1285.73 1720.78 1285.81 1739.05 1285.99 C 1743.45 1286.04 1764.51 1286.6 1767.39 1285.95 C 1771.97 1305.52 1767.05 1345.65 1768.63 1367.43 C 1770.7 1396.03 1729.65 1392.52 1712.44 1392.52 L 1653.72 1392.13 C 1644.63 1394.98 1620.07 1393.24 1613.56 1384.6 C 1606.18 1374.82 1606.52 1363.88 1606.91 1352.41 C 1607.67 1329.89 1606.32 1307.07 1607.58 1284.7 z" fill="url(#Gradient18)" transform="translate(0,0)"></path>
<path d="M 1607.58 1284.7 C 1633.13 1285.46 1658.69 1285.81 1684.25 1285.74 C 1684 1309.8 1683.72 1333.93 1683.53 1358 C 1683.44 1368.3 1681.24 1381.72 1681.51 1390.89 C 1674.32 1390.58 1660.1 1389.35 1653.72 1392.13 C 1644.63 1394.98 1620.07 1393.24 1613.56 1384.6 C 1606.18 1374.82 1606.52 1363.88 1606.91 1352.41 C 1607.67 1329.89 1606.32 1307.07 1607.58 1284.7 z" fill="rgb(250,195,110)" transform="translate(0,0)"></path>
<path d="M 1601.15 1280.01 C 1589.5 1263.66 1594.93 1247.03 1613.87 1244.22 C 1633.7 1241.28 1662.52 1242.85 1682.89 1242.91 L 1728.59 1242.86 C 1744.31 1242.77 1767.22 1239.18 1774.02 1257.11 C 1779.92 1269.51 1776.9 1274.49 1767.93 1283.48 L 1767.39 1285.95 C 1764.51 1286.6 1743.45 1286.04 1739.05 1285.99 C 1720.78 1285.81 1702.51 1285.73 1684.25 1285.74 C 1658.69 1285.81 1633.13 1285.46 1607.58 1284.7 C 1605.35 1283.52 1603.18 1281.6 1601.15 1280.01 z" fill="rgb(250,216,85)" transform="translate(0,0)"></path>
<path d="M 1682.89 1242.91 L 1728.59 1242.86 C 1744.31 1242.77 1767.22 1239.18 1774.02 1257.11 C 1771.87 1261.52 1776.55 1268.12 1773.17 1276.52 C 1767.2 1280.13 1718.62 1279.79 1709.72 1278.88 C 1723.8 1276.38 1741.4 1280.6 1753.49 1271.25 C 1755.94 1269.36 1759.06 1262.16 1756.63 1260.52 C 1752.5 1257.74 1741.09 1258.87 1735.91 1259 L 1731.07 1258.79 C 1727.64 1258.84 1722.63 1258.57 1719.58 1259.53 L 1716.31 1259.49 L 1712.86 1258.41 C 1702.31 1258.94 1696.82 1256.84 1682.92 1258.04 L 1682.89 1242.91 z" fill="rgb(233,172,126)" transform="translate(0,0)"></path>
<path d="M 1774.02 1257.11 C 1779.92 1269.51 1776.9 1274.49 1767.93 1283.48 L 1767.39 1285.95 C 1764.51 1286.6 1743.45 1286.04 1739.05 1285.99 C 1720.78 1285.81 1702.51 1285.73 1684.25 1285.74 C 1658.69 1285.81 1633.13 1285.46 1607.58 1284.7 C 1605.35 1283.52 1603.18 1281.6 1601.15 1280.01 L 1601.4 1277.01 L 1602.17 1277.28 C 1602.6 1277.43 1603.03 1277.56 1603.46 1277.72 C 1618.79 1283.35 1689.12 1278.56 1709.72 1278.88 C 1718.62 1279.79 1767.2 1280.13 1773.17 1276.52 C 1776.55 1268.12 1771.87 1261.52 1774.02 1257.11 z" fill="rgb(244,159,109)" transform="translate(0,0)"></path>
<path d="M 1731.07 1258.79 L 1735.91 1259 C 1735.47 1262.81 1735.6 1264.37 1733.55 1267.65 C 1730.6 1269.51 1732.15 1269.2 1728.72 1268.63 C 1726.12 1265.94 1727.01 1267.52 1726.27 1263.57 C 1728.04 1259.4 1726.64 1261.06 1731.07 1258.79 z" fill="rgb(250,195,110)" transform="translate(0,0)"></path>
<path d="M 1716.31 1259.49 L 1719.58 1259.53 C 1720.01 1264.55 1720.98 1266.59 1716.13 1268.84 L 1713.6 1267.91 C 1711.25 1265.02 1711.84 1266.61 1711.59 1263.03 C 1713.65 1259.5 1712.18 1260.71 1716.31 1259.49 z" fill="rgb(254,236,122)" transform="translate(0,0)"></path>
<path d="M 1684.53 1265 C 1682.91 1267.88 1681.99 1269.3 1678.72 1269.79 C 1675.96 1267.79 1676.58 1267.48 1675.12 1263.61 L 1673.69 1263.25 L 1673.03 1267.78 L 1672 1268.11 L 1669.36 1265.56 L 1669.34 1263.46 C 1672.96 1260.53 1678.23 1260.78 1682.62 1261.11 L 1684.53 1265 z" fill="rgb(253,248,196)" transform="translate(0,0)"></path>
<path d="M 1640.43 1261 C 1644.13 1260.85 1645.75 1260.64 1649.45 1261.35 C 1651.91 1264.39 1651.11 1263.96 1651.46 1268.74 C 1647.8 1268.97 1645.75 1269.31 1642.12 1268.54 C 1639.87 1265.58 1640.64 1265.59 1640.43 1261 z" fill="rgb(253,248,196)" transform="translate(0,0)"></path>
<path d="M 1655.32 1260.86 C 1658.91 1260.76 1659.77 1260.62 1663.37 1261.46 C 1665.5 1264.44 1664.76 1264.51 1664.94 1268.96 C 1661.28 1269.18 1660.26 1269.38 1656.57 1268.64 C 1654.47 1265.55 1655.26 1265.5 1655.32 1260.86 z" fill="rgb(253,244,211)" transform="translate(0,0)"></path>
<path d="M 844.473 865.142 L 846.092 866.289 C 851.72 870.329 856.904 875.542 862.437 879.813 C 900.768 909.396 955.242 933.646 1002.98 940.702 L 1008.81 941.088 C 1018.17 940.853 1030.59 941.051 1040.03 941.885 L 1040.23 942.783 C 1043.37 942.034 1049.24 941.854 1052.67 941.524 C 1102.26 936.767 1150.89 919.571 1192.91 892.83 C 1199.97 888.331 1216.24 876.144 1223.42 874.394 C 1213.14 905.611 1207.93 935.101 1212.45 967.941 C 1213.66 977.977 1215.29 985.673 1217.39 995.495 C 1220.19 1004.5 1223.42 1012.98 1226.71 1021.8 L 1227.89 1024.22 C 1228.47 1025.73 1230.49 1030.76 1230.71 1032.03 C 1243.04 1056.31 1256.05 1076.35 1276.53 1094.71 C 1279.41 1097.28 1284.06 1101.76 1287.4 1103.32 L 1287.56 1104.4 C 1291.28 1105.57 1303.49 1115.08 1306.73 1117.74 C 1292.57 1141.07 1278.97 1165.05 1261.07 1185.69 C 1256.35 1190.57 1252.99 1194 1248.83 1199.39 C 1214.14 1239.39 1170.01 1272.18 1126.12 1301.41 C 1112.06 1310.77 1089.76 1322.11 1077.86 1330.8 C 1077.38 1386.24 1077.33 1441.68 1077.72 1497.11 L 1076.91 1631.26 C 1076.53 1636.04 1075.44 1639.83 1077.85 1643.43 L 1080.83 1644.66 C 1073.56 1642.9 1055.73 1643.56 1047.22 1643.64 L 1029.56 1643.88 C 1020.99 1644.14 1012.41 1644.14 1003.83 1643.88 L 988.041 1643.72 L 988.132 1643.18 C 982.611 1643.06 976.806 1643.16 971.258 1643.16 C 975.818 1632.71 973.594 1568.36 973.481 1553.17 L 973.112 1412.29 C 973.104 1386.04 973.03 1359.81 972.674 1333.57 C 972.156 1332.99 971.639 1332.4 971.121 1331.81 L 972.165 1330.86 C 973.282 1327.43 972.829 1322.7 972.741 1318.97 C 972.704 1309.8 972.863 1300.62 973.218 1291.46 C 973.766 1245.4 973.992 1190.1 972.842 1144.54 L 972.809 1122.38 C 953.281 1093 898.274 1062.39 866.818 1046.77 C 859.107 1041.74 830.999 1027.65 822.294 1025.97 C 826.125 1016.81 828.529 1010.32 831.5 1000.85 C 844.467 1006.49 858.28 1014.4 870.645 1019.36 C 871.985 1013.73 874.557 1001.39 877.403 996.776 L 879.431 996.356 L 880.327 995.542 C 875.84 983.537 867.701 965.104 867.943 953.042 C 866.843 924.088 856.245 891.36 844.473 865.142 z" fill="rgb(233,172,126)" transform="translate(0,0)"></path>
<path d="M 1195.69 944.153 C 1193.91 961.124 1189.44 970.219 1183.32 986.162 C 1194.09 978.064 1199.9 973.119 1212.45 967.941 C 1213.66 977.977 1215.29 985.673 1217.39 995.495 C 1220.19 1004.5 1223.42 1012.98 1226.71 1021.8 L 1227.89 1024.22 C 1228.47 1025.73 1230.49 1030.76 1230.71 1032.03 C 1243.04 1056.31 1256.05 1076.35 1276.53 1094.71 C 1279.41 1097.28 1284.06 1101.76 1287.4 1103.32 L 1287.56 1104.4 C 1291.28 1105.57 1303.49 1115.08 1306.73 1117.74 C 1292.57 1141.07 1278.97 1165.05 1261.07 1185.69 C 1256.35 1190.57 1252.99 1194 1248.83 1199.39 C 1214.14 1239.39 1170.01 1272.18 1126.12 1301.41 C 1112.06 1310.77 1089.76 1322.11 1077.86 1330.8 C 1077.38 1386.24 1077.33 1441.68 1077.72 1497.11 L 1076.91 1631.26 C 1076.53 1636.04 1075.44 1639.83 1077.85 1643.43 L 1080.83 1644.66 C 1073.56 1642.9 1055.73 1643.56 1047.22 1643.64 C 1049.63 1642.45 1054.07 1642.8 1057.06 1642.76 C 1058.08 1524.18 1058.36 1405.59 1057.9 1287 C 1057.61 1253.33 1057.49 1219.67 1057.55 1186 C 1057.3 1135.79 1053.96 1111.18 1087.68 1069.26 C 1094.11 1061.26 1113.76 1040.85 1115.16 1032.76 L 1113.8 1031.08 C 1119.11 1023.87 1144.53 1012.63 1149.22 1005.76 C 1165.9 981.306 1171.1 963.59 1195.69 944.153 z" fill="rgb(211,113,87)" transform="translate(0,0)"></path>
<path d="M 1226.71 1021.8 L 1227.89 1024.22 C 1228.47 1025.73 1230.49 1030.76 1230.71 1032.03 C 1243.04 1056.31 1256.05 1076.35 1276.53 1094.71 C 1279.41 1097.28 1284.06 1101.76 1287.4 1103.32 L 1287.56 1104.4 C 1285.86 1107.19 1284.04 1110.36 1282.27 1113.06 C 1277.54 1120.83 1271.01 1130.75 1265.7 1137.74 C 1256.67 1149.63 1220.29 1191.02 1208.07 1194.6 C 1185.18 1190.37 1094.66 1163.38 1080.09 1147.44 C 1080.88 1145.73 1080.73 1146.45 1080.87 1144.62 C 1081.48 1136.99 1082.86 1128.9 1087.01 1122.28 C 1095.51 1108.71 1110.26 1095.11 1122.72 1085.17 C 1129.08 1080.1 1218.66 1022.97 1222.63 1022.34 C 1223.98 1022.13 1225.34 1022.05 1226.71 1021.8 z" fill="rgb(20,138,96)" transform="translate(0,0)"></path>
<path d="M 1230.71 1032.03 C 1243.04 1056.31 1256.05 1076.35 1276.53 1094.71 C 1279.41 1097.28 1284.06 1101.76 1287.4 1103.32 L 1287.56 1104.4 C 1285.86 1107.19 1284.04 1110.36 1282.27 1113.06 C 1281.94 1112.74 1281.6 1112.43 1281.26 1112.11 C 1262.71 1090.11 1244.83 1072.27 1234.3 1044.74 C 1232.6 1040.29 1230.37 1036.63 1230.71 1032.03 z" fill="url(#Gradient17)" transform="translate(0,0)"></path>
<path d="M 1076.33 1146.78 L 1080.09 1147.44 C 1094.66 1163.38 1185.18 1190.37 1208.07 1194.6 C 1200.37 1213.4 1098.02 1277.08 1076.32 1289.84 L 1076 1191.48 C 1075.97 1182.24 1075.21 1154.08 1076.33 1146.78 z" fill="rgb(255,255,255)" transform="translate(0,0)"></path>
<path d="M 1217.39 995.495 C 1220.19 1004.5 1223.42 1012.98 1226.71 1021.8 C 1225.34 1022.05 1223.98 1022.13 1222.63 1022.34 C 1218.66 1022.97 1129.08 1080.1 1122.72 1085.17 C 1110.26 1095.11 1095.51 1108.71 1087.01 1122.28 C 1082.86 1128.9 1081.48 1136.99 1080.87 1144.62 C 1080.73 1146.45 1080.88 1145.73 1080.09 1147.44 L 1076.33 1146.78 C 1075.91 1139.25 1075.34 1127.75 1076.91 1120.54 C 1091.27 1054.92 1170.6 1028.84 1217.39 995.495 z" fill="rgb(12,115,83)" transform="translate(0,0)"></path>
<path d="M 1040.23 942.783 C 1043.37 942.034 1049.24 941.854 1052.67 941.524 C 1102.26 936.767 1150.89 919.571 1192.91 892.83 C 1199.97 888.331 1216.24 876.144 1223.42 874.394 C 1213.14 905.611 1207.93 935.101 1212.45 967.941 C 1199.9 973.119 1194.09 978.064 1183.32 986.162 C 1189.44 970.219 1193.91 961.124 1195.69 944.153 C 1171.1 963.59 1165.9 981.306 1149.22 1005.76 C 1144.53 1012.63 1119.11 1023.87 1113.8 1031.08 C 1084.57 1050.17 1055.61 1084.24 1041.02 1116.2 L 1040.23 942.783 z" fill="rgb(20,138,96)" transform="translate(0,0)"></path>
<path d="M 844.473 865.142 L 846.092 866.289 C 851.72 870.329 856.904 875.542 862.437 879.813 C 900.768 909.396 955.242 933.646 1002.98 940.702 C 1002.27 997.238 1002.25 1053.78 1002.94 1110.32 C 980.143 1075.43 967.077 1056.61 932.337 1030.29 C 920.432 1021.28 906.007 1012.94 894.592 1003.98 C 889.945 1002.19 883.426 999.195 879.431 996.356 L 880.327 995.542 C 875.84 983.537 867.701 965.104 867.943 953.042 C 866.843 924.088 856.245 891.36 844.473 865.142 z" fill="rgb(32,174,117)" transform="translate(0,0)"></path>
<path d="M 867.943 953.042 C 879.642 965.989 891.718 986.803 894.592 1003.98 C 889.945 1002.19 883.426 999.195 879.431 996.356 L 880.327 995.542 C 875.84 983.537 867.701 965.104 867.943 953.042 z" fill="rgb(211,113,87)" transform="translate(0,0)"></path>
<path d="M 1008.81 941.088 C 1018.17 940.853 1030.59 941.051 1040.03 941.885 L 1040.23 942.783 L 1041.02 1116.2 C 1055.61 1084.24 1084.57 1050.17 1113.8 1031.08 L 1115.16 1032.76 C 1113.76 1040.85 1094.11 1061.26 1087.68 1069.26 C 1053.96 1111.18 1057.3 1135.79 1057.55 1186 C 1057.49 1219.67 1057.61 1253.33 1057.9 1287 C 1058.36 1405.59 1058.08 1524.18 1057.06 1642.76 C 1054.07 1642.8 1049.63 1642.45 1047.22 1643.64 L 1029.56 1643.88 C 1020.99 1644.14 1012.41 1644.14 1003.83 1643.88 L 1003.65 1643.29 L 1030.62 1643.18 C 1031.54 1626.33 1031.15 1607.2 1031.23 1590.17 L 1031.65 1511.48 L 1031.72 1280.88 L 1031.9 1202.61 C 1031.94 1186.43 1031.44 1168.85 1033.03 1152.87 C 1033.98 1143.42 1038.22 1133.64 1039.46 1123.53 C 1038.29 1122.37 1034.54 1119.16 1034.53 1117.8 C 1034.25 1097.18 1035.13 1077.13 1034.22 1056.4 L 1034.95 1055.85 C 1040.34 1065.88 1034.62 1105.34 1036.16 1118.55 L 1037.86 1119.75 C 1039.08 1116.16 1038.58 1089.68 1038.58 1083.33 L 1038.55 993.746 C 1038.54 980.246 1037.81 956.188 1038.97 943.397 C 1028.32 943.604 1018.96 944.286 1008.81 941.088 z" fill="url(#Gradient16)" transform="translate(0,0)"></path>
<path d="M 831.5 1000.85 C 844.467 1006.49 858.28 1014.4 870.645 1019.36 C 904.836 1035.49 956.382 1073.41 971.762 1108.89 C 973.239 1112.29 972.832 1118.52 972.809 1122.38 C 953.281 1093 898.274 1062.39 866.818 1046.77 C 859.107 1041.74 830.999 1027.65 822.294 1025.97 C 826.125 1016.81 828.529 1010.32 831.5 1000.85 z" fill="rgb(12,115,83)" transform="translate(0,0)"></path>
<path d="M 988.132 1643.18 C 992.472 1643.19 994.409 1643.95 997.611 1641.9 C 998.719 1630.96 997.566 1596.47 997.472 1584.2 C 997.174 1546.99 997.078 1509.77 997.183 1472.56 L 997.008 1251.37 C 996.969 1215.75 996.844 1179.93 996.992 1144.3 C 997.012 1139.53 996.021 1136.23 994.542 1131.83 L 992.254 1124.9 L 993.124 1123.62 C 1006.06 1130.19 1002.44 1202.03 1002.51 1217.57 C 1002.81 1249.38 1002.94 1281.18 1002.87 1312.98 L 1002.85 1559.69 C 1002.8 1570.87 1001.36 1636.59 1003.65 1643.29 L 1003.83 1643.88 L 988.041 1643.72 L 988.132 1643.18 z" fill="rgb(211,113,87)" transform="translate(0,0)"></path>
<path d="M 627.505 726.862 C 634.698 725.548 645.146 726.274 652.479 726.984 C 692.945 730.902 722.516 745.2 755.798 766.793 C 764.775 773.68 771.378 778.894 779.658 786.766 C 781.992 788.984 794.631 801.334 796.276 802.397 C 803.447 806.084 819.238 828.767 825.39 836.793 C 830.854 845.995 837.591 851.906 844.473 865.142 C 856.245 891.36 866.843 924.088 867.943 953.042 C 867.701 965.104 875.84 983.537 880.327 995.542 L 879.431 996.356 L 877.403 996.776 C 874.557 1001.39 871.985 1013.73 870.645 1019.36 C 858.28 1014.4 844.467 1006.49 831.5 1000.85 C 828.529 1010.32 826.125 1016.81 822.294 1025.97 C 808.771 1053.11 797.579 1070.4 775.042 1091.74 C 769.113 1097.36 755.996 1107.12 751.488 1112.08 C 748.238 1113.63 746.778 1114.35 744.878 1117.69 C 742.617 1120.97 728.134 1128.3 723.699 1130.58 C 657.627 1163.5 568.548 1164.21 506.102 1122.65 C 496.061 1115.96 468.489 1088.41 460.173 1087.13 C 445.306 1068.47 433.816 1028.44 428.255 1005.2 C 421.204 959.765 421.271 931.532 435.274 887.809 C 448.798 824.375 506.184 765.556 564.601 740.168 C 576.413 732.908 613.286 727.678 627.505 726.862 z" fill="url(#Gradient15)" transform="translate(0,0)"></path>
<path d="M 627.505 726.862 C 634.698 725.548 645.146 726.274 652.479 726.984 C 692.945 730.902 722.516 745.2 755.798 766.793 C 751.738 773.496 741.597 784.388 736.162 790.508 C 723.212 804.97 710.16 819.34 697.007 833.618 L 631.539 905.029 C 579.561 961.343 590.746 954.212 515.741 974.852 C 496.562 980.321 477.483 986.134 458.514 992.288 C 450.055 995.01 434.478 1004.43 428.255 1005.2 C 421.204 959.765 421.271 931.532 435.274 887.809 C 448.798 824.375 506.184 765.556 564.601 740.168 C 576.413 732.908 613.286 727.678 627.505 726.862 z" fill="rgb(120,214,164)" transform="translate(0,0)"></path>
<path d="M 564.601 740.168 C 576.413 732.908 613.286 727.678 627.505 726.862 C 632.452 726.98 632.956 726.157 636.374 728.43 C 638.52 733.912 633.669 743.908 632.456 750.185 C 623.679 795.608 615.936 847.497 567.772 867.847 C 537.761 880.527 499.163 866.347 467.928 869.985 C 455.87 871.164 444.039 879.472 435.274 887.809 C 448.798 824.375 506.184 765.556 564.601 740.168 z" fill="rgb(171,226,193)" transform="translate(0,0)"></path>
<path d="M 796.276 802.397 C 803.447 806.084 819.238 828.767 825.39 836.793 C 830.854 845.995 837.591 851.906 844.473 865.142 C 856.245 891.36 866.843 924.088 867.943 953.042 C 867.701 965.104 875.84 983.537 880.327 995.542 L 879.431 996.356 L 877.403 996.776 C 874.557 1001.39 871.985 1013.73 870.645 1019.36 C 858.28 1014.4 844.467 1006.49 831.5 1000.85 C 834.166 991.172 836.232 981.309 838.399 971.5 C 824.028 978.651 808.371 979.147 794.413 983 C 763.928 991.418 696.791 1010.76 672.702 1028.85 C 670.449 1028.05 666.571 1025.1 664.391 1023.59 L 664.95 1021.79 C 665.689 1020.03 665.773 1018.79 666.14 1016.86 C 660.067 1012.76 655.906 1012.55 648.761 1011.38 C 644.815 1010.44 641.613 1010.23 637.592 1009.84 L 632.839 997.87 L 630.775 991.16 C 628.465 988.171 626.422 987.696 622.948 986.188 C 635.493 975.304 662.083 964.511 677.669 954.289 C 718.031 927.816 749.17 892.335 777.468 853.663 C 785.837 842.226 798.205 825.047 803.891 812.258 C 801.49 808.413 799.172 805.837 796.276 802.397 z" fill="rgb(32,174,117)" transform="translate(0,0)"></path>
<path d="M 796.276 802.397 C 803.447 806.084 819.238 828.767 825.39 836.793 C 830.854 845.995 837.591 851.906 844.473 865.142 C 856.245 891.36 866.843 924.088 867.943 953.042 C 867.701 965.104 875.84 983.537 880.327 995.542 L 879.431 996.356 L 877.403 996.776 C 874.557 1001.39 871.985 1013.73 870.645 1019.36 C 858.28 1014.4 844.467 1006.49 831.5 1000.85 C 834.166 991.172 836.232 981.309 838.399 971.5 L 838.665 969.622 C 839.24 963.353 841.202 953.773 842.012 946.998 C 848.29 894.482 835.806 853.416 803.891 812.258 C 801.49 808.413 799.172 805.837 796.276 802.397 z" fill="rgb(12,115,83)" transform="translate(0,0)"></path>
<path d="M 838.665 969.622 C 848.911 974.886 873.333 993.825 880.327 995.542 L 879.431 996.356 L 877.403 996.776 C 874.557 1001.39 871.985 1013.73 870.645 1019.36 C 858.28 1014.4 844.467 1006.49 831.5 1000.85 C 834.166 991.172 836.232 981.309 838.399 971.5 L 838.665 969.622 z" fill="rgb(168,78,65)" transform="translate(0,0)"></path>
<path d="M 630.775 991.16 C 640.206 993.044 645.497 1003.02 648.761 1011.38 C 644.815 1010.44 641.613 1010.23 637.592 1009.84 L 632.839 997.87 L 630.775 991.16 z" fill="rgb(48,96,85)" transform="translate(0,0)"></path>
<path d="M 622.948 986.188 C 626.422 987.696 628.465 988.171 630.775 991.16 L 632.839 997.87 L 637.592 1009.84 C 641.613 1010.23 644.815 1010.44 648.761 1011.38 C 655.906 1012.55 660.067 1012.76 666.14 1016.86 C 665.773 1018.79 665.689 1020.03 664.95 1021.79 C 656.666 1022.73 650.954 1022.73 644.769 1029.02 L 646.31 1029.34 C 646.282 1032.62 644.607 1036.65 643.665 1040.03 C 638.596 1044.69 632.489 1049.93 628.16 1055.1 C 625.817 1055.29 618.982 1055.67 617.059 1056.14 C 611.745 1057.63 611.312 1057.6 606.991 1060.65 L 605.351 1061.79 C 603.435 1058.7 598.413 1054.4 595.607 1050.73 L 595.749 1050.15 C 596.229 1041.42 592.596 1040.41 586.271 1035.05 C 582.474 1030.09 579.301 1024.77 575.991 1019.48 C 580.856 1015.99 590.955 1013.83 596.909 1012.31 L 606.611 1011.6 C 611.054 1000.51 611.236 991.163 622.948 986.188 z" fill="url(#Gradient14)" transform="translate(0,0)"></path>
<path d="M 622.948 986.188 C 626.422 987.696 628.465 988.171 630.775 991.16 L 632.839 997.87 L 637.592 1009.84 C 641.613 1010.23 644.815 1010.44 648.761 1011.38 C 655.906 1012.55 660.067 1012.76 666.14 1016.86 C 665.773 1018.79 665.689 1020.03 664.95 1021.79 C 656.666 1022.73 650.954 1022.73 644.769 1029.02 C 639.84 1031.19 641.704 1031.18 636.996 1030.23 C 634.207 1028 633.948 1028.09 632.457 1024.72 C 629.845 1033.6 610.663 1030.03 605.136 1026.25 C 606.416 1024.55 609.722 1026.93 614.666 1025.91 L 613.598 1024.17 C 609.157 1022.83 609.039 1022.63 605.524 1019.44 C 603.633 1019.94 602.481 1020.18 600.658 1020.89 C 602.059 1018.55 602.064 1017.99 602.816 1015.32 C 600.904 1012.5 601.33 1013.39 596.909 1012.31 L 606.611 1011.6 C 611.054 1000.51 611.236 991.163 622.948 986.188 z" fill="rgb(254,236,122)" transform="translate(0,0)"></path>
<path d="M 622.948 986.188 C 626.422 987.696 628.465 988.171 630.775 991.16 L 632.839 997.87 C 632.299 1006.42 634.425 1008.19 629.403 1015.8 C 624.003 1018.31 611.674 1019.36 605.524 1019.44 C 603.633 1019.94 602.481 1020.18 600.658 1020.89 C 602.059 1018.55 602.064 1017.99 602.816 1015.32 C 600.904 1012.5 601.33 1013.39 596.909 1012.31 L 606.611 1011.6 C 611.054 1000.51 611.236 991.163 622.948 986.188 z" fill="rgb(253,248,196)" transform="translate(0,0)"></path>
<path d="M 666.14 1016.86 C 665.773 1018.79 665.689 1020.03 664.95 1021.79 C 656.666 1022.73 650.954 1022.73 644.769 1029.02 C 639.84 1031.19 641.704 1031.18 636.996 1030.23 C 634.207 1028 633.948 1028.09 632.457 1024.72 L 631.61 1021.73 C 640.507 1018.89 655.788 1018.39 666.14 1016.86 z" fill="rgb(250,216,85)" transform="translate(0,0)"></path>
<path d="M 575.991 1019.48 C 580.856 1015.99 590.955 1013.83 596.909 1012.31 C 601.33 1013.39 600.904 1012.5 602.816 1015.32 C 602.064 1017.99 602.059 1018.55 600.658 1020.89 C 593.768 1023.3 583.775 1020.68 575.991 1019.48 z" fill="rgb(253,244,211)" transform="translate(0,0)"></path>
<path d="M 644.769 1029.02 C 650.954 1022.73 656.666 1022.73 664.95 1021.79 L 664.391 1023.59 C 666.571 1025.1 670.449 1028.05 672.702 1028.85 C 674.382 1031.13 677.073 1034.3 676.422 1037 C 674.731 1044 667.425 1051.07 663.232 1057.73 C 676.782 1092.18 656.747 1083.78 635.074 1080.43 C 630.607 1079.74 612.061 1083.12 606.753 1083.7 C 602.957 1081.29 603.642 1078.47 600.689 1074.55 L 601.085 1073.79 L 599.699 1073.22 C 601.705 1067.89 602.285 1066.55 605.351 1061.79 L 606.991 1060.65 C 611.312 1057.6 611.745 1057.63 617.059 1056.14 C 618.982 1055.67 625.817 1055.29 628.16 1055.1 C 632.489 1049.93 638.596 1044.69 643.665 1040.03 C 644.607 1036.65 646.282 1032.62 646.31 1029.34 L 644.769 1029.02 z" fill="rgb(12,115,83)" transform="translate(0,0)"></path>
<path d="M 644.769 1029.02 C 650.954 1022.73 656.666 1022.73 664.95 1021.79 L 664.391 1023.59 C 659.813 1028.45 652.425 1035.58 649.173 1040.98 L 648.66 1042.16 C 646.305 1046.16 643.572 1050.53 641.584 1054.68 C 635.762 1056.19 630.672 1057.7 624.938 1059.5 L 621.209 1058.55 C 617.553 1063.37 606.476 1071.44 601.085 1073.79 L 599.699 1073.22 C 601.705 1067.89 602.285 1066.55 605.351 1061.79 L 606.991 1060.65 C 611.312 1057.6 611.745 1057.63 617.059 1056.14 C 618.982 1055.67 625.817 1055.29 628.16 1055.1 C 632.489 1049.93 638.596 1044.69 643.665 1040.03 C 644.607 1036.65 646.282 1032.62 646.31 1029.34 L 644.769 1029.02 z" fill="rgb(250,181,63)" transform="translate(0,0)"></path>
<path d="M 641.584 1054.68 C 643.572 1050.53 646.305 1046.16 648.66 1042.16 L 650.672 1047.63 C 645.266 1054.37 650.834 1059.02 642.382 1065.39 L 638.255 1068.53 C 634.479 1066.25 628.733 1062.08 624.938 1059.5 C 630.672 1057.7 635.762 1056.19 641.584 1054.68 z" fill="rgb(233,172,126)" transform="translate(0,0)"></path>
<path d="M 650.672 1047.63 C 654.331 1054.81 658.448 1065.37 650.952 1071.63 C 645.269 1073.48 643.012 1071.48 638.255 1068.53 L 642.382 1065.39 C 650.834 1059.02 645.266 1054.37 650.672 1047.63 z" fill="rgb(250,181,63)" transform="translate(0,0)"></path>
<path d="M 599.699 1073.22 C 589.841 1068.89 593.286 1058.84 595.607 1050.73 C 598.413 1054.4 603.435 1058.7 605.351 1061.79 C 602.285 1066.55 601.705 1067.89 599.699 1073.22 z" fill="rgb(254,236,122)" transform="translate(0,0)"></path>
<path d="M 586.271 1035.05 C 592.596 1040.41 596.229 1041.42 595.749 1050.15 C 590.05 1048.67 584.373 1043.39 584.143 1037.23 L 586.271 1035.05 z" fill="rgb(20,138,96)" transform="translate(0,0)"></path>
<path d="M 495.095 1052.31 C 471.754 1035.45 497.208 988.855 527.245 1014.06 C 533.407 1020.04 537.406 1026.2 537.588 1035.1 C 537.765 1042.09 534.97 1048.82 529.898 1053.62 C 525.352 1057.92 519.27 1060.21 513.018 1059.98 C 505.644 1059.68 500.621 1056.81 495.095 1052.31 z" fill="rgb(20,138,96)" transform="translate(0,0)"></path>
<path d="M 495.095 1052.31 C 498.021 1050.33 511.755 1050.89 519.031 1046.56 C 533.386 1038 523.816 1020.51 527.245 1014.06 C 533.407 1020.04 537.406 1026.2 537.588 1035.1 C 537.765 1042.09 534.97 1048.82 529.898 1053.62 C 525.352 1057.92 519.27 1060.21 513.018 1059.98 C 505.644 1059.68 500.621 1056.81 495.095 1052.31 z" fill="rgb(12,115,83)" transform="translate(0,0)"></path>
<path d="M 1412.16 731.028 C 1428.79 731.131 1470.06 732.567 1484.64 739.738 C 1503.55 746.743 1542.79 765.774 1556.19 780.121 C 1561.13 787.268 1571.22 795.966 1577.44 802.758 C 1590.24 816.732 1600.31 829.838 1610.45 845.646 L 1609.38 845.985 L 1603.28 842.055 C 1603.64 847.072 1607.27 844.425 1605.47 848.903 C 1601.85 851.328 1591.29 857.713 1590.21 861.268 L 1591.95 860.253 C 1597.2 857.137 1601.96 852.178 1607.25 850.639 C 1611.64 854.674 1627.99 900.578 1636.42 909.284 C 1644.13 954.242 1642.5 1007.18 1620.6 1048.24 C 1613.35 1063.87 1600.39 1086.12 1588.65 1099.26 C 1585.21 1099.97 1580.09 1105.86 1577.05 1108.41 C 1548.16 1132.54 1502.37 1154.51 1464.29 1156.84 C 1455.95 1156.73 1443.51 1158.22 1433.67 1158.15 C 1400.65 1157.92 1374.15 1151.55 1343.91 1139.42 C 1330.55 1133.99 1318.04 1126.69 1306.73 1117.74 C 1303.49 1115.08 1291.28 1105.57 1287.56 1104.4 L 1287.4 1103.32 C 1284.06 1101.76 1279.41 1097.28 1276.53 1094.71 C 1256.05 1076.35 1243.04 1056.31 1230.71 1032.03 C 1230.49 1030.76 1228.47 1025.73 1227.89 1024.22 L 1226.71 1021.8 C 1223.42 1012.98 1220.19 1004.5 1217.39 995.495 C 1215.29 985.673 1213.66 977.977 1212.45 967.941 C 1207.93 935.101 1213.14 905.611 1223.42 874.394 L 1227.21 863.974 C 1243.42 819.779 1274.85 786.589 1313.9 761.695 C 1316.98 760.286 1321.17 758.049 1324.17 756.365 C 1352.48 740.495 1379.98 734.002 1412.16 731.028 z" fill="url(#Gradient13)" transform="translate(0,0)"></path>
<path d="M 1412.16 731.028 C 1428.79 731.131 1470.06 732.567 1484.64 739.738 C 1503.55 746.743 1542.79 765.774 1556.19 780.121 C 1561.13 787.268 1571.22 795.966 1577.44 802.758 C 1590.24 816.732 1600.31 829.838 1610.45 845.646 L 1609.38 845.985 L 1603.28 842.055 C 1603.64 847.072 1607.27 844.425 1605.47 848.903 C 1601.85 851.328 1591.29 857.713 1590.21 861.268 C 1581.68 871.227 1557.05 886.967 1546.15 896.499 C 1542.59 898.943 1538.98 901.302 1535.62 904.021 C 1530.03 907.843 1506.27 926.449 1503.1 927.675 C 1484.28 921.302 1462.27 906.113 1442.48 899.717 C 1440.05 898.93 1431.3 892.715 1430.01 890.215 C 1430.68 883.794 1469.08 855.523 1478.6 840.016 C 1475.47 841.903 1465.57 853.173 1462.15 856.612 C 1455.95 862.729 1449.53 868.613 1442.9 874.254 C 1378.26 930.079 1310.86 993.344 1223.29 1005.07 C 1225.41 1012.09 1226.88 1016.46 1229.7 1023.2 L 1227.89 1024.22 L 1226.71 1021.8 C 1223.42 1012.98 1220.19 1004.5 1217.39 995.495 C 1215.29 985.673 1213.66 977.977 1212.45 967.941 C 1207.93 935.101 1213.14 905.611 1223.42 874.394 L 1227.21 863.974 C 1243.42 819.779 1274.85 786.589 1313.9 761.695 C 1316.98 760.286 1321.17 758.049 1324.17 756.365 C 1352.48 740.495 1379.98 734.002 1412.16 731.028 z" fill="url(#Gradient12)" transform="translate(0,0)"></path>
<path d="M 1313.9 761.695 C 1316.98 760.286 1321.17 758.049 1324.17 756.365 C 1352.48 740.495 1379.98 734.002 1412.16 731.028 C 1415.2 742.557 1410.75 762.591 1407.63 774.103 C 1396.28 815.979 1364.89 847.881 1322.51 858.574 C 1315.39 860.35 1308.14 861.536 1300.83 862.118 C 1296.49 862.485 1227.58 864.086 1227.21 863.974 C 1243.42 819.779 1274.85 786.589 1313.9 761.695 z" fill="rgb(171,226,193)" transform="translate(0,0)"></path>
<path d="M 1328.11 763.41 C 1343.27 759.943 1358.36 769.44 1361.79 784.605 C 1365.22 799.769 1355.69 814.84 1340.52 818.238 C 1325.4 821.625 1310.38 812.131 1306.96 797.015 C 1303.54 781.899 1313 766.866 1328.11 763.41 z" fill="rgb(120,214,164)" transform="translate(0,0)"></path>
<path d="M 1546.15 896.499 C 1544.25 899.516 1543.39 900.39 1540.79 902.874 C 1544.02 913.645 1571.25 937.665 1580.55 952.479 C 1591.7 970.257 1587.68 968.854 1593.9 982.849 C 1588.61 984.871 1579.83 991.414 1575.51 992.613 C 1589.49 980.828 1595.41 983.323 1581.82 962.703 C 1578.13 957.095 1538.15 905.289 1535.62 904.021 C 1538.98 901.302 1542.59 898.943 1546.15 896.499 z" fill="rgb(68,189,118)" transform="translate(0,0)"></path>
<path d="M 1343.91 1139.42 C 1344.71 1139.12 1345.52 1138.82 1346.32 1138.51 C 1370.95 1147.68 1394.36 1153.39 1420.58 1155.75 C 1427.41 1156.37 1461.79 1155.58 1464.29 1156.84 C 1455.95 1156.73 1443.51 1158.22 1433.67 1158.15 C 1400.65 1157.92 1374.15 1151.55 1343.91 1139.42 z" fill="rgb(32,174,117)" transform="translate(0,0)"></path>
<path d="M 1229.7 1023.2 L 1230.17 1024.06 C 1240.98 1044.02 1246.28 1059.33 1262.61 1077.87 C 1268.04 1084.04 1284.26 1097.86 1287.4 1103.32 C 1284.06 1101.76 1279.41 1097.28 1276.53 1094.71 C 1256.05 1076.35 1243.04 1056.31 1230.71 1032.03 C 1230.49 1030.76 1228.47 1025.73 1227.89 1024.22 L 1229.7 1023.2 z" fill="rgb(68,189,118)" transform="translate(0,0)"></path>
<path d="M 1425.79 992.17 C 1429.54 989.506 1428.14 989.711 1432.13 989.578 C 1435.45 991.535 1435.78 992.292 1438.06 995.278 L 1443.87 1007.4 L 1444.38 1009.59 C 1448.09 1015.04 1448.72 1014.24 1455.29 1014.49 C 1461.52 1016.27 1470.71 1018.06 1474.47 1023.25 L 1475.4 1023.95 C 1484.96 1022.84 1489.7 1036.2 1482.77 1042.6 C 1478.93 1046.35 1467.39 1055.98 1465.42 1058.86 C 1479.81 1103.6 1460.14 1103.53 1426.63 1085.91 C 1417.41 1091.22 1400.67 1100.51 1392.73 1087.3 C 1390.13 1082.96 1390.33 1074.76 1393.87 1070.92 C 1395.45 1072.52 1394.89 1072.55 1396.55 1072.92 C 1394.58 1065.93 1395.09 1064.49 1397.44 1057.48 C 1390.21 1052.64 1386.41 1052.04 1382.22 1044.33 C 1382.36 1037.23 1389.02 1036.98 1394.8 1036.64 L 1392.71 1034.39 L 1386.51 1027.64 L 1383.87 1023.79 C 1386.6 1016.24 1389.42 1016.63 1396.91 1015.4 L 1396.62 1013.31 C 1400.72 1005.07 1409.57 996.507 1417.49 991.829 C 1420.49 990.062 1422.63 991.299 1425.79 992.17 z" fill="rgb(12,115,83)" transform="translate(0,0)"></path>
<path d="M 1425.79 992.17 C 1429.54 989.506 1428.14 989.711 1432.13 989.578 C 1435.45 991.535 1435.78 992.292 1438.06 995.278 L 1443.87 1007.4 L 1444.38 1009.59 C 1448.09 1015.04 1448.72 1014.24 1455.29 1014.49 C 1461.52 1016.27 1470.71 1018.06 1474.47 1023.25 L 1475.4 1023.95 C 1473.6 1027.91 1473.71 1027.86 1470.82 1031.05 L 1470.38 1031 L 1469.11 1032.37 C 1450.93 1035.05 1437.16 1043.31 1419.27 1044.83 C 1416.28 1045.08 1410.58 1044.15 1407.05 1043.98 C 1403.71 1042.68 1403.9 1042.73 1401.18 1040.35 L 1399.84 1041.12 L 1394.8 1036.64 L 1392.71 1034.39 L 1386.51 1027.64 L 1383.87 1023.79 C 1386.6 1016.24 1389.42 1016.63 1396.91 1015.4 L 1396.62 1013.31 C 1400.72 1005.07 1409.57 996.507 1417.49 991.829 C 1420.49 990.062 1422.63 991.299 1425.79 992.17 z" fill="rgb(250,216,85)" transform="translate(0,0)"></path>
<path d="M 1425.79 992.17 C 1429.54 989.506 1428.14 989.711 1432.13 989.578 C 1435.45 991.535 1435.78 992.292 1438.06 995.278 L 1443.87 1007.4 L 1444.38 1009.59 C 1442.37 1011.09 1443.21 1011.05 1441.22 1011.17 C 1422.38 1012.3 1402.62 1026.6 1383.87 1023.79 C 1386.6 1016.24 1389.42 1016.63 1396.91 1015.4 L 1396.62 1013.31 C 1400.72 1005.07 1409.57 996.507 1417.49 991.829 C 1420.49 990.062 1422.63 991.299 1425.79 992.17 z" fill="rgb(253,248,196)" transform="translate(0,0)"></path>
<path d="M 1425.79 992.17 C 1429.54 989.506 1428.14 989.711 1432.13 989.578 C 1435.45 991.535 1435.78 992.292 1438.06 995.278 L 1443.87 1007.4 L 1441.96 1007.49 C 1432.52 1007.99 1421.46 1012.91 1417.54 1011.01 L 1417.46 1006.66 C 1419.16 1001.9 1422.99 996.544 1425.79 992.17 z" fill="rgb(253,244,211)" transform="translate(0,0)"></path>
<path d="M 1396.91 1015.4 L 1396.62 1013.31 C 1400.72 1005.07 1409.57 996.507 1417.49 991.829 C 1420.49 990.062 1422.63 991.299 1425.79 992.17 C 1422.99 996.544 1419.16 1001.9 1417.46 1006.66 C 1412.64 1015.87 1406.55 1014.67 1396.91 1015.4 z" fill="rgb(32,174,117)" transform="translate(0,0)"></path>
<path d="M 1401.18 1040.35 L 1401.4 1039.65 L 1399.25 1037.74 L 1400.37 1036.81 C 1414.33 1039.86 1413.55 1035.3 1426.04 1032.99 C 1434.53 1031.41 1464.54 1025.97 1470.38 1031 L 1469.11 1032.37 C 1450.93 1035.05 1437.16 1043.31 1419.27 1044.83 C 1416.28 1045.08 1410.58 1044.15 1407.05 1043.98 C 1403.71 1042.68 1403.9 1042.73 1401.18 1040.35 z" fill="rgb(250,216,85)" transform="translate(0,0)"></path>
<path d="M 1458.15 1020.41 C 1463.03 1022.66 1469.66 1026.92 1474.47 1023.25 L 1475.4 1023.95 C 1473.6 1027.91 1473.71 1027.86 1470.82 1031.05 L 1470.38 1031 C 1464.54 1025.97 1434.53 1031.41 1426.04 1032.99 C 1413.55 1035.3 1414.33 1039.86 1400.37 1036.81 L 1399.25 1037.74 L 1401.4 1039.65 L 1401.18 1040.35 L 1399.84 1041.12 L 1394.8 1036.64 L 1392.71 1034.39 C 1420.94 1029.66 1430.64 1030.88 1458.15 1020.41 z" fill="rgb(250,195,110)" transform="translate(0,0)"></path>
<path d="M 1444.38 1009.59 C 1448.09 1015.04 1448.72 1014.24 1455.29 1014.49 C 1461.52 1016.27 1470.71 1018.06 1474.47 1023.25 C 1469.66 1026.92 1463.03 1022.66 1458.15 1020.41 C 1454.82 1019.5 1451.28 1018.71 1448.15 1017.35 L 1449.37 1015.57 C 1430.88 1011.6 1419.51 1021.45 1402.16 1025.86 C 1396.79 1027.23 1392 1027.4 1386.51 1027.64 L 1383.87 1023.79 C 1402.62 1026.6 1422.38 1012.3 1441.22 1011.17 C 1443.21 1011.05 1442.37 1011.09 1444.38 1009.59 z" fill="rgb(252,232,150)" transform="translate(0,0)"></path>
<path d="M 1407.05 1043.98 C 1410.58 1044.15 1416.28 1045.08 1419.27 1044.83 C 1437.16 1043.31 1450.93 1035.05 1469.11 1032.37 C 1464.86 1036.65 1460.55 1041.21 1455.99 1045.12 C 1457.08 1052.98 1460.07 1066.36 1455.89 1072.82 C 1447.56 1076.71 1436.08 1065.52 1428.49 1061.68 C 1421.87 1065.48 1415.35 1069.46 1408.94 1073.6 C 1402.81 1075.97 1402.55 1075.84 1396.55 1072.92 C 1394.58 1065.93 1395.09 1064.49 1397.44 1057.48 C 1390.21 1052.64 1386.41 1052.04 1382.22 1044.33 C 1382.36 1037.23 1389.02 1036.98 1394.8 1036.64 L 1399.84 1041.12 L 1401.18 1040.35 C 1403.9 1042.73 1403.71 1042.68 1407.05 1043.98 z" fill="rgb(250,181,63)" transform="translate(0,0)"></path>
<path d="M 1397.44 1057.48 C 1390.21 1052.64 1386.41 1052.04 1382.22 1044.33 C 1382.36 1037.23 1389.02 1036.98 1394.8 1036.64 L 1399.84 1041.12 L 1401.18 1040.35 C 1403.9 1042.73 1403.71 1042.68 1407.05 1043.98 C 1411.02 1051.31 1409.08 1064.43 1408.94 1073.6 C 1402.81 1075.97 1402.55 1075.84 1396.55 1072.92 C 1394.58 1065.93 1395.09 1064.49 1397.44 1057.48 z" fill="rgb(250,195,110)" transform="translate(0,0)"></path>
<path d="M 1397.44 1057.48 C 1390.21 1052.64 1386.41 1052.04 1382.22 1044.33 C 1382.36 1037.23 1389.02 1036.98 1394.8 1036.64 L 1399.84 1041.12 C 1400.05 1048.08 1399.92 1050.88 1397.44 1057.48 z" fill="rgb(20,138,96)" transform="translate(0,0)"></path>
<path d="M 1475.4 1023.95 C 1484.96 1022.84 1489.7 1036.2 1482.77 1042.6 C 1478.84 1036.88 1476.78 1034.57 1470.82 1031.05 C 1473.71 1027.86 1473.6 1027.91 1475.4 1023.95 z" fill="rgb(32,174,117)" transform="translate(0,0)"></path>
<path d="M 1438.06 995.278 C 1449.88 989.922 1457.02 1003.63 1456.48 1013.39 L 1455.29 1014.49 C 1448.72 1014.24 1448.09 1015.04 1444.38 1009.59 L 1443.87 1007.4 L 1438.06 995.278 z" fill="rgb(20,138,96)" transform="translate(0,0)"></path>
<path d="M 1118.3 481.001 C 1146.17 466.345 1204.72 407.459 1226.74 382.094 C 1235.05 372.52 1252.13 348.405 1260.2 341.158 C 1270.53 352.778 1261.52 354.884 1263.69 361.591 C 1272.9 390.074 1288.46 417.778 1302.32 444.353 C 1306.89 453.021 1316.04 463.041 1319.65 470.856 C 1320.99 473.758 1324.54 492.112 1325.52 496.365 L 1326.39 495.271 C 1328.24 500.319 1329.84 516.512 1330.46 522.225 C 1333.97 554.825 1331.41 586.564 1325.25 618.614 C 1323.18 629.382 1319.54 643.152 1317.88 653.37 C 1321.72 648.756 1323.72 633.901 1326.41 627.01 L 1325.7 629.117 L 1327.69 629.215 L 1328.1 630.411 C 1334.29 647.995 1349.82 648.441 1351.15 652.862 C 1352.03 655.767 1351.04 660.566 1350.78 663.55 C 1341.27 701.308 1331.54 727.348 1313.9 761.695 C 1274.85 786.589 1243.42 819.779 1227.21 863.974 L 1223.42 874.394 C 1216.24 876.144 1199.97 888.331 1192.91 892.83 C 1150.89 919.571 1102.26 936.767 1052.67 941.524 C 1049.24 941.854 1043.37 942.034 1040.23 942.783 L 1040.03 941.885 C 1040.31 923.021 1040.39 904.154 1040.27 885.287 L 1038.47 884.772 C 1030.07 885.378 1018.77 885.219 1010.48 884.779 C 1000.16 882.702 986.148 881.912 975.107 880.252 C 956.957 877.523 943.832 874.167 926.65 868.893 C 929.887 861.151 939.277 848.48 944.434 841.306 C 969.422 806.195 997.245 773.192 1027.62 742.627 L 1031.48 739.29 C 1031.64 702.702 1029.7 666.393 1030.21 629.845 C 1030.76 589.785 1031.42 549.777 1030.89 509.698 C 1030.83 505.647 1031.33 505.759 1029.37 503.446 C 1031.38 502.113 1031.13 489.259 1031.34 486.176 C 1042.9 491.919 1061.02 500.768 1073.68 500.528 C 1091.31 500.194 1091.31 485.516 1090.53 472.873 C 1092.53 469.77 1094.59 466.7 1096.69 463.664 C 1099.14 473.454 1109.52 477.007 1118.3 481.001 z" fill="url(#Gradient11)" transform="translate(0,0)"></path>
<path d="M 1317.88 653.37 C 1321.72 648.756 1323.72 633.901 1326.41 627.01 L 1325.7 629.117 L 1327.69 629.215 L 1328.1 630.411 C 1334.29 647.995 1349.82 648.441 1351.15 652.862 C 1352.03 655.767 1351.04 660.566 1350.78 663.55 C 1341.27 701.308 1331.54 727.348 1313.9 761.695 C 1274.85 786.589 1243.42 819.779 1227.21 863.974 L 1223.42 874.394 C 1216.24 876.144 1199.97 888.331 1192.91 892.83 C 1150.89 919.571 1102.26 936.767 1052.67 941.524 C 1049.24 941.854 1043.37 942.034 1040.23 942.783 L 1040.03 941.885 C 1040.31 923.021 1040.39 904.154 1040.27 885.287 L 1038.47 884.772 C 1030.07 885.378 1018.77 885.219 1010.48 884.779 C 1000.16 882.702 986.148 881.912 975.107 880.252 C 956.957 877.523 943.832 874.167 926.65 868.893 C 929.887 861.151 939.277 848.48 944.434 841.306 C 969.422 806.195 997.245 773.192 1027.62 742.627 L 1031.48 739.29 C 1044.89 729.423 1060.57 721.614 1074.91 711.876 C 1099.32 695.31 1137.14 666.807 1168.94 674.487 C 1185.19 678.412 1213.29 698.787 1229.74 707.917 C 1247.05 717.478 1264.97 725.878 1283.4 733.059 C 1286.57 724.219 1297.01 707.053 1301.21 697.092 C 1307.39 682.44 1312.71 668.432 1317.88 653.37 z" fill="rgb(20,138,96)" transform="translate(0,0)"></path>
<path d="M 1317.88 653.37 C 1321.72 648.756 1323.72 633.901 1326.41 627.01 L 1325.7 629.117 L 1327.69 629.215 L 1328.1 630.411 C 1334.29 647.995 1349.82 648.441 1351.15 652.862 C 1352.03 655.767 1351.04 660.566 1350.78 663.55 C 1341.27 701.308 1331.54 727.348 1313.9 761.695 C 1274.85 786.589 1243.42 819.779 1227.21 863.974 L 1223.42 874.394 C 1216.24 876.144 1199.97 888.331 1192.91 892.83 C 1150.89 919.571 1102.26 936.767 1052.67 941.524 C 1049.24 941.854 1043.37 942.034 1040.23 942.783 L 1040.03 941.885 C 1040.31 923.021 1040.39 904.154 1040.27 885.287 C 1074.85 884.644 1110.05 873.06 1141.97 860.496 C 1183.32 850.941 1268.52 773.209 1283.4 733.059 C 1286.57 724.219 1297.01 707.053 1301.21 697.092 C 1307.39 682.44 1312.71 668.432 1317.88 653.37 z" fill="rgb(12,115,83)" transform="translate(0,0)"></path>
<path d="M 1038.47 884.772 C 1048.18 881.338 1076.07 880.083 1091.13 875.654 C 1100.35 872.944 1137.24 860.429 1141.97 860.496 C 1110.05 873.06 1074.85 884.644 1040.27 885.287 L 1038.47 884.772 z" fill="rgb(32,174,117)" transform="translate(0,0)"></path>
<path d="M 1198.15 572.186 C 1201.22 567.346 1206.98 556.069 1214.2 563.379 C 1218.98 568.21 1222.9 578.653 1225.78 585.121 C 1231.47 590.45 1247.12 583.758 1255.68 596.963 L 1253.68 601.426 C 1268.37 613.762 1256.31 621.847 1245.55 631.728 C 1248.25 642.632 1253.34 667.258 1236.64 668.379 C 1227.84 668.969 1208.67 668.591 1199.88 667.162 C 1194.44 667.515 1190.98 667.305 1187.9 662.479 C 1187.11 651.703 1189.35 655.545 1191.6 648.403 L 1185.84 646.209 C 1183.4 642.704 1183.68 641.374 1183.65 637.056 L 1185.02 627.319 C 1174.16 620.941 1162.33 614.591 1167.02 600.17 C 1166.62 597.158 1166.75 597.267 1167.53 594.276 C 1173.17 586.96 1183.99 586.827 1193.06 585.551 C 1194.68 579.885 1195.78 577.41 1198.15 572.186 z" fill="rgb(254,236,122)" transform="translate(0,0)"></path>
<path d="M 1232.41 626.989 C 1232.78 629.631 1232.87 630.72 1232.46 633.347 L 1229.76 636.059 C 1230.44 644.379 1231.81 640.976 1235.05 645.878 L 1236.67 646.334 C 1239.39 643.555 1239.26 643.724 1240.48 640.019 C 1241.12 634.235 1241.31 634.565 1245.55 631.728 C 1248.25 642.632 1253.34 667.258 1236.64 668.379 C 1227.84 668.969 1208.67 668.591 1199.88 667.162 C 1194.44 667.515 1190.98 667.305 1187.9 662.479 C 1187.11 651.703 1189.35 655.545 1191.6 648.403 L 1185.84 646.209 L 1190.93 642.236 C 1201.07 639.953 1201.29 629.214 1210.22 630.062 C 1210.91 629.146 1211.51 628.87 1212.48 628.152 C 1216.53 627.239 1217.94 627.941 1222.13 628.925 L 1227.22 627.43 L 1232.41 626.989 z" fill="url(#Gradient10)" transform="translate(0,0)"></path>
<path d="M 1240.48 640.019 C 1241.12 634.235 1241.31 634.565 1245.55 631.728 C 1248.25 642.632 1253.34 667.258 1236.64 668.379 C 1227.84 668.969 1208.67 668.591 1199.88 667.162 C 1209.87 666.396 1226.75 666.977 1237.3 667.053 C 1237.08 660.826 1235.16 651.375 1236.67 646.334 C 1239.39 643.555 1239.26 643.724 1240.48 640.019 z" fill="rgb(20,138,96)" transform="translate(0,0)"></path>
<path d="M 1232.41 626.989 C 1232.78 629.631 1232.87 630.72 1232.46 633.347 L 1229.76 636.059 C 1230.44 644.379 1231.81 640.976 1235.05 645.878 C 1228.11 644.035 1224.81 641.721 1218.59 638.049 L 1213.34 633.276 L 1210.22 630.062 C 1210.91 629.146 1211.51 628.87 1212.48 628.152 C 1216.53 627.239 1217.94 627.941 1222.13 628.925 L 1227.22 627.43 L 1232.41 626.989 z" fill="rgb(250,216,85)" transform="translate(0,0)"></path>
<path d="M 1227.22 627.43 C 1229.53 631.521 1227.83 633.987 1225.17 637.349 C 1222.82 638.211 1223.66 638.06 1221 637.893 L 1218.54 633.228 C 1219.22 629.95 1218.49 631.54 1222.13 628.925 L 1227.22 627.43 z" fill="rgb(250,195,110)" transform="translate(0,0)"></path>
<path d="M 1190.93 642.236 C 1201.07 639.953 1201.29 629.214 1210.22 630.062 L 1213.34 633.276 C 1207.9 637.288 1195.36 645.192 1191.6 648.403 L 1185.84 646.209 L 1190.93 642.236 z" fill="rgb(233,172,126)" transform="translate(0,0)"></path>
<path d="M 1198.15 572.186 C 1201.22 567.346 1206.98 556.069 1214.2 563.379 C 1218.98 568.21 1222.9 578.653 1225.78 585.121 C 1221.51 590.16 1215.74 593.939 1211.61 600.086 C 1207.14 606.731 1191.05 611.971 1183.22 611.081 C 1182.2 611.027 1176.42 608.742 1175.25 608.268 C 1174.61 607.867 1171.07 604.679 1170.27 603.987 L 1167.02 600.17 C 1166.62 597.158 1166.75 597.267 1167.53 594.276 C 1173.17 586.96 1183.99 586.827 1193.06 585.551 C 1194.68 579.885 1195.78 577.41 1198.15 572.186 z" fill="rgb(252,232,150)" transform="translate(0,0)"></path>
<path d="M 1198.15 572.186 C 1204.29 577.062 1206.86 580.645 1212.09 585.186 C 1209.1 590.72 1207 594.314 1203.51 599.557 C 1191.62 599.025 1184.75 599.17 1173.11 603.387 C 1171.84 603.847 1171.9 603.739 1170.27 603.987 L 1167.02 600.17 C 1166.62 597.158 1166.75 597.267 1167.53 594.276 C 1173.17 586.96 1183.99 586.827 1193.06 585.551 C 1194.68 579.885 1195.78 577.41 1198.15 572.186 z" fill="rgb(253,244,211)" transform="translate(0,0)"></path>
<path d="M 1243.32 601.752 C 1248.36 598.227 1249.61 596.913 1255.68 596.963 L 1253.68 601.426 C 1268.37 613.762 1256.31 621.847 1245.55 631.728 C 1241.31 634.565 1241.12 634.235 1240.48 640.019 C 1239.26 643.724 1239.39 643.555 1236.67 646.334 L 1235.05 645.878 C 1231.81 640.976 1230.44 644.379 1229.76 636.059 L 1232.46 633.347 C 1232.87 630.72 1232.78 629.631 1232.41 626.989 C 1231.97 622.167 1231.24 620.313 1233.83 616.765 C 1234.46 613.317 1235.12 610.854 1236.06 607.467 C 1238.62 605.596 1240.87 603.757 1243.32 601.752 z" fill="rgb(48,96,85)" transform="translate(0,0)"></path>
<path d="M 1232.41 626.989 C 1231.97 622.167 1231.24 620.313 1233.83 616.765 L 1234.93 616.772 C 1239.13 624.973 1239.79 631.021 1240.48 640.019 C 1239.26 643.724 1239.39 643.555 1236.67 646.334 L 1235.05 645.878 C 1231.81 640.976 1230.44 644.379 1229.76 636.059 L 1232.46 633.347 C 1232.87 630.72 1232.78 629.631 1232.41 626.989 z" fill="rgb(250,195,110)" transform="translate(0,0)"></path>
<path d="M 1243.32 601.752 C 1248.36 598.227 1249.61 596.913 1255.68 596.963 L 1253.68 601.426 C 1246.61 607.964 1242.75 611.191 1234.93 616.772 L 1233.83 616.765 C 1234.46 613.317 1235.12 610.854 1236.06 607.467 C 1238.62 605.596 1240.87 603.757 1243.32 601.752 z" fill="rgb(233,172,126)" transform="translate(0,0)"></path>
<path d="M 1197.77 622.45 C 1212.36 622.848 1223.59 614.827 1236.06 607.467 C 1235.12 610.854 1234.46 613.317 1233.83 616.765 C 1231.24 620.313 1231.97 622.167 1232.41 626.989 L 1227.22 627.43 L 1222.13 628.925 C 1217.94 627.941 1216.53 627.239 1212.48 628.152 C 1211.51 628.87 1210.91 629.146 1210.22 630.062 C 1201.29 629.214 1201.07 639.953 1190.93 642.236 L 1191.35 641.024 C 1200.74 633.666 1194.04 629.725 1197.77 622.45 z" fill="rgb(250,181,63)" transform="translate(0,0)"></path>
<path d="M 1197.77 622.45 C 1200.47 618.745 1222.5 604.01 1228.27 602.408 C 1234.28 600.738 1237.48 599.072 1243.32 601.752 C 1240.87 603.757 1238.62 605.596 1236.06 607.467 C 1223.59 614.827 1212.36 622.848 1197.77 622.45 z" fill="rgb(250,195,110)" transform="translate(0,0)"></path>
<path d="M 1185.02 627.319 C 1174.16 620.941 1162.33 614.591 1167.02 600.17 L 1170.27 603.987 C 1171.07 604.679 1174.61 607.867 1175.25 608.268 C 1179.81 612.394 1181.98 614.029 1186.98 617.532 C 1186.31 620.711 1185.51 624.139 1185.02 627.319 z" fill="rgb(48,96,85)" transform="translate(0,0)"></path>
<path d="M 1183.65 637.056 C 1186.52 637.233 1186.72 637.075 1189.33 638.142 L 1191.35 641.024 L 1190.93 642.236 L 1185.84 646.209 C 1183.4 642.704 1183.68 641.374 1183.65 637.056 z" fill="rgb(250,216,85)" transform="translate(0,0)"></path>
<path d="M 802.781 454.152 C 835.33 463.656 882.955 467.672 916.929 473.42 C 926.065 474.966 937.985 477.462 946.613 477.956 C 947.711 473.21 947.757 443.027 944.707 437.969 C 938.17 427.131 929.677 415.587 921.889 405.465 L 922.749 403.615 C 929.14 411.857 940.968 424.184 945.048 432.813 C 953.973 451.687 942.497 472.743 953.642 492.153 C 978.921 503.752 996.21 490.065 1023.05 483.05 C 1027.16 484.084 1027.68 484.177 1031.34 486.176 C 1031.13 489.259 1031.38 502.113 1029.37 503.446 C 1031.33 505.759 1030.83 505.647 1030.89 509.698 C 1031.42 549.777 1030.76 589.785 1030.21 629.845 C 1029.7 666.393 1031.64 702.702 1031.48 739.29 L 1027.62 742.627 C 997.245 773.192 969.422 806.195 944.434 841.306 C 939.277 848.48 929.887 861.151 926.65 868.893 C 943.832 874.167 956.957 877.523 975.107 880.252 C 986.148 881.912 1000.16 882.702 1010.48 884.779 C 1018.77 885.219 1030.07 885.378 1038.47 884.772 L 1040.27 885.287 C 1040.39 904.154 1040.31 923.021 1040.03 941.885 C 1030.59 941.051 1018.17 940.853 1008.81 941.088 L 1002.98 940.702 C 955.242 933.646 900.768 909.396 862.437 879.813 C 856.904 875.542 851.72 870.329 846.092 866.289 L 844.473 865.142 C 837.591 851.906 830.854 845.995 825.39 836.793 C 822.35 815.873 772.212 768.121 759.214 746.174 C 743.484 719.615 731.779 693.34 719.468 665.199 C 717.682 663.733 716 659.445 714.858 657.069 C 708.499 656.265 696.375 652.67 688.455 651.488 C 669.377 648.376 650.086 647.488 633.378 636.604 C 616.618 625.686 595.82 606.992 578.374 598.734 C 578.904 597.492 579.458 596.259 580.034 595.037 C 608.211 536.263 658.62 491.119 720.134 469.57 C 722.924 460.659 725.555 449.621 728.002 440.457 C 729.239 439.887 730.583 439.266 731.993 439.561 C 755.557 444.484 778.995 450.269 802.781 454.152 z" fill="url(#Gradient9)" transform="translate(0,0)"></path>
<path d="M 719.468 665.199 L 720.744 663.76 C 730.1 664.694 729.803 673.964 734.398 678.318 C 739.058 689.317 761.288 740.829 768.213 747.216 C 769.291 747.07 770.286 746.817 771.289 746.963 C 774.885 745.803 789.666 732.625 794.027 729.919 C 801.037 725.57 810.596 716.382 817.628 712.318 C 834.68 700.99 851.619 690.058 869.825 680.64 C 904.16 662.878 937.637 694.051 965.593 710.821 C 985.212 722.59 1005.92 734.544 1027.62 742.627 C 997.245 773.192 969.422 806.195 944.434 841.306 C 939.277 848.48 929.887 861.151 926.65 868.893 C 943.832 874.167 956.957 877.523 975.107 880.252 C 986.148 881.912 1000.16 882.702 1010.48 884.779 C 1018.77 885.219 1030.07 885.378 1038.47 884.772 L 1040.27 885.287 C 1040.39 904.154 1040.31 923.021 1040.03 941.885 C 1030.59 941.051 1018.17 940.853 1008.81 941.088 L 1002.98 940.702 C 955.242 933.646 900.768 909.396 862.437 879.813 C 856.904 875.542 851.72 870.329 846.092 866.289 L 844.473 865.142 C 837.591 851.906 830.854 845.995 825.39 836.793 C 822.35 815.873 772.212 768.121 759.214 746.174 C 743.484 719.615 731.779 693.34 719.468 665.199 z" fill="rgb(32,174,117)" transform="translate(0,0)"></path>
<path d="M 719.468 665.199 L 720.744 663.76 C 730.1 664.694 729.803 673.964 734.398 678.318 C 739.058 689.317 761.288 740.829 768.213 747.216 C 769.291 747.07 770.286 746.817 771.289 746.963 C 775.27 757.439 784.812 766.552 791.713 775.047 C 823.701 814.421 864.622 841.609 910.841 862.577 C 915.993 864.965 921.271 867.074 926.65 868.893 C 943.832 874.167 956.957 877.523 975.107 880.252 C 986.148 881.912 1000.16 882.702 1010.48 884.779 C 1018.77 885.219 1030.07 885.378 1038.47 884.772 L 1040.27 885.287 C 1040.39 904.154 1040.31 923.021 1040.03 941.885 C 1030.59 941.051 1018.17 940.853 1008.81 941.088 L 1002.98 940.702 C 955.242 933.646 900.768 909.396 862.437 879.813 C 856.904 875.542 851.72 870.329 846.092 866.289 L 844.473 865.142 C 837.591 851.906 830.854 845.995 825.39 836.793 C 822.35 815.873 772.212 768.121 759.214 746.174 C 743.484 719.615 731.779 693.34 719.468 665.199 z" fill="rgb(20,138,96)" transform="translate(0,0)"></path>
<path d="M 1003.57 884.875 L 1010.48 884.779 C 1018.77 885.219 1030.07 885.378 1038.47 884.772 L 1040.27 885.287 C 1040.39 904.154 1040.31 923.021 1040.03 941.885 C 1030.59 941.051 1018.17 940.853 1008.81 941.088 L 1002.98 940.702 C 1002.99 922.478 1002.66 902.973 1003.57 884.875 z" fill="rgb(168,78,65)" transform="translate(0,0)"></path>
<path d="M 768.213 747.216 C 769.291 747.07 770.286 746.817 771.289 746.963 C 775.27 757.439 784.812 766.552 791.713 775.047 C 823.701 814.421 864.622 841.609 910.841 862.577 C 915.993 864.965 921.271 867.074 926.65 868.893 C 943.832 874.167 956.957 877.523 975.107 880.252 C 986.148 881.912 1000.16 882.702 1010.48 884.779 L 1003.57 884.875 C 988.861 885.84 954.696 879.477 940.243 875.252 C 899.655 863.034 857.025 839.412 824.438 812.182 C 807.477 798.009 778.512 765.458 768.213 747.216 z" fill="rgb(68,189,118)" transform="translate(0,0)"></path>
<path d="M 578.374 598.734 C 578.904 597.492 579.458 596.259 580.034 595.037 C 608.211 536.263 658.62 491.119 720.134 469.57 L 719.304 471.382 C 716.795 484.326 712.703 503.131 711.884 515.872 C 705.427 556.86 711.575 602.387 723.218 641.921 C 726.663 653.617 731.381 667.101 734.398 678.318 C 729.803 673.964 730.1 664.694 720.744 663.76 L 719.468 665.199 C 717.682 663.733 716 659.445 714.858 657.069 C 708.499 656.265 696.375 652.67 688.455 651.488 C 669.377 648.376 650.086 647.488 633.378 636.604 C 616.618 625.686 595.82 606.992 578.374 598.734 z" fill="rgb(120,214,164)" transform="translate(0,0)"></path>
<path d="M 714.858 657.069 C 699.11 614.542 694.779 568.631 702.297 523.91 C 703.889 514.725 712.489 476.211 719.304 471.382 C 716.795 484.326 712.703 503.131 711.884 515.872 C 705.427 556.86 711.575 602.387 723.218 641.921 C 726.663 653.617 731.381 667.101 734.398 678.318 C 729.803 673.964 730.1 664.694 720.744 663.76 L 719.468 665.199 C 717.682 663.733 716 659.445 714.858 657.069 z" fill="rgb(32,174,117)" transform="translate(0,0)"></path>
<path d="M 728.002 440.457 C 729.239 439.887 730.583 439.266 731.993 439.561 C 755.557 444.484 778.995 450.269 802.781 454.152 C 800.008 455.594 800.756 455.673 798.425 457.982 C 790.63 465.704 786.16 476.903 777.625 484.119 C 747.244 508.867 731.434 496.901 712.817 536.344 C 712.456 530.656 713.197 519.589 711.884 515.872 C 712.703 503.131 716.795 484.326 719.304 471.382 L 720.134 469.57 C 722.924 460.659 725.555 449.621 728.002 440.457 z" fill="rgb(120,214,164)" transform="translate(0,0)"></path>
<path d="M 1023.05 483.05 C 1027.16 484.084 1027.68 484.177 1031.34 486.176 C 1031.13 489.259 1031.38 502.113 1029.37 503.446 C 1011.77 505.28 999.022 508.914 981.856 513.169 C 964.933 517.364 956.054 507.517 953.642 492.153 C 978.921 503.752 996.21 490.065 1023.05 483.05 z" fill="url(#Gradient8)" transform="translate(0,0)"></path>
<path d="M 833.837 563.283 C 837.88 563.99 838.358 564.488 841.466 568.003 C 849.985 571.328 855.592 581.13 856.935 589.861 C 860.695 590.396 864.652 591.032 868.401 591.478 C 870.87 593.014 872.271 593.759 874.515 595.646 C 875.991 597.551 878.139 600.135 879.396 602.091 C 895.604 619.058 882.045 626.872 866.741 637.277 C 867.563 645.36 869.876 658.422 865.155 665.027 C 858.666 668.438 850.675 664.277 843.998 665.204 C 821.958 668.264 802.567 678.745 804.946 646.486 C 799.598 626.34 777.269 627.755 787.302 604.122 C 788.401 601.501 789.494 600.279 791.124 597.944 C 807.793 587.11 817.718 595.325 824.591 570.473 C 825.565 566.954 830.201 564.274 833.837 563.283 z" fill="rgb(254,236,122)" transform="translate(0,0)"></path>
<path d="M 874.515 595.646 C 875.991 597.551 878.139 600.135 879.396 602.091 C 895.604 619.058 882.045 626.872 866.741 637.277 C 867.563 645.36 869.876 658.422 865.155 665.027 C 858.666 668.438 850.675 664.277 843.998 665.204 C 821.958 668.264 802.567 678.745 804.946 646.486 L 806.044 645.804 L 808.869 648.76 C 812.716 644.846 819.284 641.918 824.377 638.94 C 833.665 633.178 848.99 616.831 853.78 615.097 L 855.402 613.511 L 855.975 615.649 L 859.319 611.387 L 864.55 607.785 C 870.13 603.614 871.53 601.941 874.515 595.646 z" fill="rgb(20,138,96)" transform="translate(0,0)"></path>
<path d="M 853.78 615.097 L 855.402 613.511 L 855.975 615.649 C 856.053 627.825 855.587 631.56 852.587 643.312 L 851.867 645.589 C 847.347 643.463 838.911 639.25 834.569 637.832 C 827.47 641.486 820.5 645.387 813.673 649.526 C 810.539 650.235 812.107 650.32 808.869 648.76 C 812.716 644.846 819.284 641.918 824.377 638.94 C 833.665 633.178 848.99 616.831 853.78 615.097 z" fill="rgb(250,181,63)" transform="translate(0,0)"></path>
<path d="M 853.78 615.097 L 855.402 613.511 L 855.975 615.649 C 856.053 627.825 855.587 631.56 852.587 643.312 C 850.468 642.587 850.717 642.492 848.811 641.138 C 846.811 636.427 852.111 620.514 853.78 615.097 z" fill="rgb(250,216,85)" transform="translate(0,0)"></path>
<path d="M 874.515 595.646 C 875.991 597.551 878.139 600.135 879.396 602.091 L 878.582 602.859 C 875.979 605.28 871.079 609.362 868.075 611.191 C 851.039 621.558 869.622 636.836 858.139 648.795 L 851.867 645.589 L 852.587 643.312 C 855.587 631.56 856.053 627.825 855.975 615.649 L 859.319 611.387 L 864.55 607.785 C 870.13 603.614 871.53 601.941 874.515 595.646 z" fill="rgb(250,181,63)" transform="translate(0,0)"></path>
<path d="M 834.569 637.832 C 838.911 639.25 847.347 643.463 851.867 645.589 L 858.139 648.795 C 853.565 651.218 817.744 653.154 813.673 649.526 C 820.5 645.387 827.47 641.486 834.569 637.832 z" fill="rgb(48,96,85)" transform="translate(0,0)"></path>
<path d="M 833.837 563.283 L 833.851 565.459 C 837.696 568.993 838.613 569.744 841.576 573.925 C 842.188 578.232 842.711 582.657 843.675 586.887 C 829.084 595.544 816.078 606.365 799.863 609.815 C 795.288 605.791 792.277 604.042 791.124 597.944 C 807.793 587.11 817.718 595.325 824.591 570.473 C 825.565 566.954 830.201 564.274 833.837 563.283 z" fill="rgb(253,244,211)" transform="translate(0,0)"></path>
<path d="M 787.302 604.122 C 793.101 609.123 803.431 616.861 808.154 621.457 C 807.45 628.003 804.89 640.605 806.044 645.804 L 804.946 646.486 C 799.598 626.34 777.269 627.755 787.302 604.122 z" fill="rgb(20,138,96)" transform="translate(0,0)"></path>
<path d="M 868.401 591.478 C 870.87 593.014 872.271 593.759 874.515 595.646 C 871.53 601.941 870.13 603.614 864.55 607.785 C 859.344 607.519 855.553 607.964 851.726 604.658 C 850.257 601.691 849.774 601.447 850.277 598.176 C 853.729 592.859 860.067 594.416 867.405 591.839 L 868.401 591.478 z" fill="rgb(250,216,85)" transform="translate(0,0)"></path>
<path d="M 824.377 638.94 C 826.866 631.526 832.842 633.762 832.503 624.601 L 828.926 624.893 L 828.937 623.789 C 837.396 620.784 838.986 615.072 846.018 610.386 C 850.164 607.624 853.679 610.374 857.727 611.109 L 859.319 611.387 L 855.975 615.649 L 855.402 613.511 L 853.78 615.097 C 848.99 616.831 833.665 633.178 824.377 638.94 z" fill="rgb(250,216,85)" transform="translate(0,0)"></path>
<path d="M 841.466 568.003 C 849.985 571.328 855.592 581.13 856.935 589.861 C 851.888 590.033 852.16 590.805 848.371 588.756 C 844.141 582.796 843.31 575.437 841.466 568.003 z" fill="rgb(20,138,96)" transform="translate(0,0)"></path>
<path d="M 1030.76 224.575 C 1154.49 235.121 1262.19 300.895 1307.27 420.133 C 1309.73 426.647 1321.19 467.194 1322.02 468.298 C 1321.88 474.289 1325.21 488.014 1326.39 495.271 L 1325.52 496.365 C 1324.54 492.112 1320.99 473.758 1319.65 470.856 C 1316.04 463.041 1306.89 453.021 1302.32 444.353 C 1288.46 417.778 1272.9 390.074 1263.69 361.591 C 1261.52 354.884 1270.53 352.778 1260.2 341.158 C 1252.13 348.405 1235.05 372.52 1226.74 382.094 C 1204.72 407.459 1146.17 466.345 1118.3 481.001 C 1109.52 477.007 1099.14 473.454 1096.69 463.664 C 1094.59 466.7 1092.53 469.77 1090.53 472.873 C 1091.31 485.516 1091.31 500.194 1073.68 500.528 C 1061.02 500.768 1042.9 491.919 1031.34 486.176 C 1027.68 484.177 1027.16 484.084 1023.05 483.05 C 996.21 490.065 978.921 503.752 953.642 492.153 C 942.497 472.743 953.973 451.687 945.048 432.813 C 940.968 424.184 929.14 411.857 922.749 403.615 C 897.741 363.961 942.001 364.422 968.626 355.694 C 994.75 347.131 987.652 316.494 1012.4 308.93 C 1014.19 308.381 1015.99 307.855 1017.8 307.352 C 1016.33 303.969 1018.92 293.747 1019.76 289.754 C 1024.25 268.534 1026.83 247.966 1028.58 226.343 L 1030.76 224.575 z" fill="rgb(120,214,164)" transform="translate(0,0)"></path>
<path d="M 1017.8 307.352 C 1039.45 306.691 1049.71 339.658 1060.14 355.087 C 1076.99 360.149 1107.69 365.206 1121.12 372.156 L 1126.45 380.87 C 1135.89 392.747 1135.07 404.526 1126.88 416.706 C 1116.08 432.777 1105.7 446.293 1096.69 463.664 C 1094.59 466.7 1092.53 469.77 1090.53 472.873 C 1091.31 485.516 1091.31 500.194 1073.68 500.528 C 1061.02 500.768 1042.9 491.919 1031.34 486.176 C 1027.68 484.177 1027.16 484.084 1023.05 483.05 C 996.21 490.065 978.921 503.752 953.642 492.153 C 942.497 472.743 953.973 451.687 945.048 432.813 C 940.968 424.184 929.14 411.857 922.749 403.615 C 897.741 363.961 942.001 364.422 968.626 355.694 C 994.75 347.131 987.652 316.494 1012.4 308.93 C 1014.19 308.381 1015.99 307.855 1017.8 307.352 z" fill="rgb(211,113,87)" transform="translate(0,0)"></path>
<path d="M 1126.45 380.87 C 1135.89 392.747 1135.07 404.526 1126.88 416.706 C 1116.08 432.777 1105.7 446.293 1096.69 463.664 C 1094.59 466.7 1092.53 469.77 1090.53 472.873 C 1080.86 415.08 1121.8 414.413 1126.45 380.87 z" fill="rgb(83,134,126)" transform="translate(0,0)"></path>
<path d="M 969.226 489.298 L 968.55 492.956 L 965.667 493.825 C 943.009 490.47 960.136 438.643 951.846 427.722 C 909.671 372.162 920 381.087 979.218 363.092 C 996.094 357.964 1004.17 297.171 1029.26 322.504 C 1040.51 333.349 1046.36 352.303 1055.08 365.083 C 1126.04 380.465 1131.21 374.602 1079.08 434.165 C 1078.99 434.258 1078.9 434.35 1078.81 434.443 C 1078.78 447.086 1081.93 481.906 1075.46 489.38 C 1071.33 491.46 1068.7 490.509 1064.39 488.999 C 1050.02 483.965 1034.9 476.197 1019.89 473.505 C 999.184 481.097 990.369 484.306 969.226 489.298 z" fill="rgb(244,159,109)" transform="translate(0,0)"></path>
<path d="M 969.226 489.298 L 968.55 492.956 L 965.667 493.825 C 943.009 490.47 960.136 438.643 951.846 427.722 C 909.671 372.162 920 381.087 979.218 363.092 C 996.094 357.964 1004.17 297.171 1029.26 322.504 C 1021.2 334.564 1017.58 352.465 1011.41 365.206 C 995.872 397.337 980.068 427.849 973.431 463.425 C 971.96 471.311 969.143 481.189 969.226 489.298 z" fill="rgb(245,217,200)" transform="translate(0,0)"></path>
<path d="M 728.002 440.457 C 745.798 376.261 785.098 320.122 839.329 281.432 C 855.979 269.348 876.078 257.628 894.277 248.908 C 923.46 234.925 998.187 219.424 1030.76 224.575 L 1028.58 226.343 C 1026.83 247.966 1024.25 268.534 1019.76 289.754 C 1018.92 293.747 1016.33 303.969 1017.8 307.352 C 1015.99 307.855 1014.19 308.381 1012.4 308.93 C 987.652 316.494 994.75 347.131 968.626 355.694 C 942.001 364.422 897.741 363.961 922.749 403.615 L 921.889 405.465 C 929.677 415.587 938.17 427.131 944.707 437.969 C 947.757 443.027 947.711 473.21 946.613 477.956 C 937.985 477.462 926.065 474.966 916.929 473.42 C 882.955 467.672 835.33 463.656 802.781 454.152 C 778.995 450.269 755.557 444.484 731.993 439.561 C 730.583 439.266 729.239 439.887 728.002 440.457 z" fill="rgb(171,226,193)" transform="translate(0,0)"></path>
<path d="M 534.29 1665.49 C 507.979 1661.62 484.362 1648.47 468.264 1627.12 C 452.652 1606.02 446.146 1579.55 450.202 1553.62 C 463.572 1462.82 569.443 1437.99 624.581 1509.6 C 636.076 1524.52 646.337 1551.72 643.247 1570.84 L 641.459 1570.4 L 641.155 1571.35 C 636.161 1586.48 625.789 1598.97 615.307 1610.66 C 602.946 1624.45 571.451 1644.45 569.27 1663.58 L 555.058 1666.24 C 555.485 1698.81 555.741 1731.38 555.824 1763.96 L 533.656 1764 C 533.85 1748.16 533.88 1732.32 533.744 1716.48 L 534.211 1685.53 C 533.899 1679.62 534.216 1671.57 534.29 1665.49 z" fill="url(#Gradient7)" transform="translate(0,0)"></path>
<path d="M 535.122 1657.65 C 539.854 1643.29 536.273 1621.09 537.388 1605.76 C 538.735 1587.25 540.962 1568.99 541.178 1550.36 C 541.237 1545.23 541.441 1534.41 544.882 1530.83 L 547.69 1530.94 C 553.537 1536.89 548.434 1580.93 552.71 1595.62 L 552.671 1609.5 C 559.462 1602.64 604.155 1560.39 610.32 1557.05 C 613.508 1557.41 612.012 1556.78 614.54 1559.86 C 614.385 1566.41 562.546 1607.33 553.882 1618.78 L 555.058 1666.24 C 555.485 1698.81 555.741 1731.38 555.824 1763.96 L 533.656 1764 C 533.85 1748.16 533.88 1732.32 533.744 1716.48 L 534.211 1685.53 C 535.364 1678.62 535.011 1665.35 535.122 1657.65 z" fill="rgb(159,62,66)" transform="translate(0,0)"></path>
<path d="M 537.994 1585.4 C 538.406 1575.18 537.772 1534.1 545.179 1528.41 C 548.932 1529.13 547.409 1528.3 550.055 1530.72 C 553.217 1541.77 552.575 1582.12 552.71 1595.62 C 548.434 1580.93 553.537 1536.89 547.69 1530.94 L 544.882 1530.83 C 541.441 1534.41 541.237 1545.23 541.178 1550.36 C 540.962 1568.99 538.735 1587.25 537.388 1605.76 C 536.273 1621.09 539.854 1643.29 535.122 1657.65 C 534.477 1637.37 535.743 1615.74 536 1595.23 C 525.624 1583.71 502.515 1564.32 490.057 1552.49 C 489.996 1551.83 489.934 1551.18 489.872 1550.52 L 492.71 1548.36 C 496.835 1548.57 532.878 1580.44 537.994 1585.4 z" fill="rgb(168,78,65)" transform="translate(0,0)"></path>
<path d="M 532.855 1763.18 C 532.885 1750.84 532.353 1727.96 533.744 1716.48 C 533.88 1732.32 533.85 1748.16 533.656 1764 L 555.824 1763.96 L 970.892 1763.9 L 981.711 1764 L 1028.83 1764.02 L 1072.06 1763.92 C 1060.18 1768.25 1031.08 1772.59 1017.7 1774.86 C 990.207 1779.32 962.807 1784.34 935.52 1789.94 C 861.73 1805.07 789.141 1825.56 718.331 1851.26 C 709.16 1854.52 674.341 1865.69 668.902 1870.87 C 599.776 1842.27 534.406 1805.32 474.248 1760.85 C 487.051 1763.64 518.388 1763.12 532.855 1763.18 z" fill="rgb(125,209,214)" transform="translate(0,0)"></path>
<path d="M 711.732 1799.61 C 717.725 1805.49 715.432 1805.28 723.659 1810.89 C 718.395 1815.69 716.859 1817.25 713.435 1823.45 C 708.652 1817.4 707.07 1815.29 701.234 1810.36 C 706.729 1805.17 706.735 1806.48 711.732 1799.61 z" fill="rgb(255,255,255)" transform="translate(0,0)"></path>
<path d="M 1322.02 468.298 C 1330.3 471.807 1335.45 474.381 1343.33 478.743 C 1408.62 516.371 1456.15 573.687 1476.68 646.713 C 1483.2 669.9 1489.44 716.897 1484.64 739.738 C 1470.06 732.567 1428.79 731.131 1412.16 731.028 C 1379.98 734.002 1352.48 740.495 1324.17 756.365 C 1321.17 758.049 1316.98 760.286 1313.9 761.695 C 1331.54 727.348 1341.27 701.308 1350.78 663.55 C 1351.04 660.566 1352.03 655.767 1351.15 652.862 C 1349.82 648.441 1334.29 647.995 1328.1 630.411 L 1327.69 629.215 L 1325.7 629.117 L 1326.41 627.01 C 1323.72 633.901 1321.72 648.756 1317.88 653.37 C 1319.54 643.152 1323.18 629.382 1325.25 618.614 C 1331.41 586.564 1333.97 554.825 1330.46 522.225 C 1329.84 516.512 1328.24 500.319 1326.39 495.271 C 1325.21 488.014 1321.88 474.289 1322.02 468.298 z" fill="rgb(68,189,118)" transform="translate(0,0)"></path>
<path d="M 1322.02 468.298 C 1330.3 471.807 1335.45 474.381 1343.33 478.743 C 1360.17 533.708 1367.59 576.496 1356.84 634.392 C 1354.92 644.713 1354.96 653.739 1350.78 663.55 C 1351.04 660.566 1352.03 655.767 1351.15 652.862 C 1349.82 648.441 1334.29 647.995 1328.1 630.411 L 1327.69 629.215 L 1325.7 629.117 L 1326.41 627.01 C 1323.72 633.901 1321.72 648.756 1317.88 653.37 C 1319.54 643.152 1323.18 629.382 1325.25 618.614 C 1331.41 586.564 1333.97 554.825 1330.46 522.225 C 1329.84 516.512 1328.24 500.319 1326.39 495.271 C 1325.21 488.014 1321.88 474.289 1322.02 468.298 z" fill="rgb(32,174,117)" transform="translate(0,0)"></path>
<path d="M 822.294 1025.97 C 830.999 1027.65 859.107 1041.74 866.818 1046.77 C 898.274 1062.39 953.281 1093 972.809 1122.38 L 972.842 1144.54 C 957.697 1151.32 943.216 1159.8 928.278 1166.23 C 897.36 1179.52 861.909 1190.28 829.104 1197.8 C 811.017 1186.66 791.198 1165.47 777.75 1148.98 L 777.456 1149 C 774.399 1150.45 769.404 1152.64 766.628 1154.26 C 761.802 1149.6 748.712 1124.76 744.878 1117.69 C 746.778 1114.35 748.238 1113.63 751.488 1112.08 C 755.996 1107.12 769.113 1097.36 775.042 1091.74 C 797.579 1070.4 808.771 1053.11 822.294 1025.97 z" fill="rgb(32,174,117)" transform="translate(0,0)"></path>
<path d="M 822.294 1025.97 C 830.999 1027.65 859.107 1041.74 866.818 1046.77 C 852.887 1083.38 811.07 1127.89 777.75 1148.98 L 777.456 1149 C 774.399 1150.45 769.404 1152.64 766.628 1154.26 C 761.802 1149.6 748.712 1124.76 744.878 1117.69 C 746.778 1114.35 748.238 1113.63 751.488 1112.08 C 755.996 1107.12 769.113 1097.36 775.042 1091.74 C 797.579 1070.4 808.771 1053.11 822.294 1025.97 z" fill="rgb(12,115,83)" transform="translate(0,0)"></path>
<path d="M 744.878 1117.69 C 746.778 1114.35 748.238 1113.63 751.488 1112.08 C 759.019 1127.15 769.193 1136.07 777.456 1149 C 774.399 1150.45 769.404 1152.64 766.628 1154.26 C 761.802 1149.6 748.712 1124.76 744.878 1117.69 z" fill="rgb(244,159,109)" transform="translate(0,0)"></path>
<path d="M 1464.29 1156.84 C 1502.37 1154.51 1548.16 1132.54 1577.05 1108.41 C 1580.09 1105.86 1585.21 1099.97 1588.65 1099.26 C 1551.84 1146.38 1510.3 1174.53 1454.3 1193.85 C 1379.03 1215.83 1325.07 1213.39 1248.83 1199.39 C 1252.99 1194 1256.35 1190.57 1261.07 1185.69 C 1278.97 1165.05 1292.57 1141.07 1306.73 1117.74 C 1318.04 1126.69 1330.55 1133.99 1343.91 1139.42 C 1374.15 1151.55 1400.65 1157.92 1433.67 1158.15 C 1443.51 1158.22 1455.95 1156.73 1464.29 1156.84 z" fill="rgb(12,115,83)" transform="translate(0,0)"></path>
<path d="M 1323.27 1147.82 C 1356.77 1168.26 1395.32 1183.64 1434.47 1189.33 C 1440.46 1190.21 1449.55 1190.27 1454.3 1193.85 C 1379.03 1215.83 1325.07 1213.39 1248.83 1199.39 C 1252.99 1194 1256.35 1190.57 1261.07 1185.69 C 1272.35 1186.28 1312.25 1155.38 1323.27 1147.82 z" fill="rgb(20,138,96)" transform="translate(0,0)"></path>
<path d="M 971.258 1643.16 C 976.806 1643.16 982.611 1643.06 988.132 1643.18 L 988.041 1643.72 L 1003.83 1643.88 C 1012.41 1644.14 1020.99 1644.14 1029.56 1643.88 L 1047.22 1643.64 C 1055.73 1643.56 1073.56 1642.9 1080.83 1644.66 C 1082.1 1682.31 1081.08 1726 1081.05 1764.18 C 1078.2 1764.08 1074.86 1763.88 1072.06 1763.92 L 1028.83 1764.02 L 981.711 1764 L 970.892 1763.9 L 970.763 1686.4 C 970.734 1673.18 970.243 1656.07 971.258 1643.16 z" fill="rgb(129,49,69)" transform="translate(0,0)"></path>
<path d="M 1047.22 1643.64 C 1055.73 1643.56 1073.56 1642.9 1080.83 1644.66 C 1082.1 1682.31 1081.08 1726 1081.05 1764.18 C 1078.2 1764.08 1074.86 1763.88 1072.06 1763.92 L 1028.83 1764.02 L 1028.91 1690 C 1028.92 1675.5 1028.5 1658.05 1029.56 1643.88 L 1047.22 1643.64 z" fill="rgb(103,35,60)" transform="translate(0,0)"></path>
<path d="M 971.258 1643.16 C 976.806 1643.16 982.611 1643.06 988.132 1643.18 L 988.041 1643.72 L 982.993 1644.38 C 980.709 1647.76 981.737 1750.65 981.711 1764 L 970.892 1763.9 L 970.763 1686.4 C 970.734 1673.18 970.243 1656.07 971.258 1643.16 z" fill="rgb(159,62,66)" transform="translate(0,0)"></path>
<path d="M 972.842 1144.54 C 973.992 1190.1 973.766 1245.4 973.218 1291.46 C 965.431 1287.38 957.622 1283.35 949.793 1279.35 C 948.386 1278.07 937.38 1271.51 935.194 1270.16 C 923.608 1263.14 912.124 1255.96 900.746 1248.6 C 873.699 1230.87 854.544 1215.85 829.104 1197.8 C 861.909 1190.28 897.36 1179.52 928.278 1166.23 C 943.216 1159.8 957.697 1151.32 972.842 1144.54 z" fill="rgb(255,255,255)" transform="translate(0,0)"></path>
<path d="M 460.173 1087.13 C 468.489 1088.41 496.061 1115.96 506.102 1122.65 C 568.548 1164.21 657.627 1163.5 723.699 1130.58 C 728.134 1128.3 742.617 1120.97 744.878 1117.69 C 748.712 1124.76 761.802 1149.6 766.628 1154.26 L 768.238 1157.58 C 703.391 1200.44 630.712 1189.53 560.947 1167.21 C 552.671 1164.56 538.304 1157.78 530.718 1156.56 C 532.362 1158.34 533.688 1159.57 535.448 1161.21 L 534.852 1162.49 C 506.807 1144.89 476.287 1115.72 460.173 1087.13 z" fill="rgb(12,115,83)" transform="translate(0,0)"></path>
<path d="M 777.456 1149 L 777.75 1148.98 C 791.198 1165.47 811.017 1186.66 829.104 1197.8 C 854.544 1215.85 873.699 1230.87 900.746 1248.6 C 912.124 1255.96 923.608 1263.14 935.194 1270.16 C 937.38 1271.51 948.386 1278.07 949.793 1279.35 C 957.622 1283.35 965.431 1287.38 973.218 1291.46 C 972.863 1300.62 972.704 1309.8 972.741 1318.97 C 972.829 1322.7 973.282 1327.43 972.165 1330.86 L 971.121 1331.81 C 958.688 1324.98 944.239 1315.15 931.902 1307.57 C 884.291 1278.32 838.661 1244.88 800.796 1203.45 C 788.427 1187.74 779.209 1174.33 768.238 1157.58 L 766.628 1154.26 C 769.404 1152.64 774.399 1150.45 777.456 1149 z" fill="url(#Gradient6)" transform="translate(0,0)"></path>
<path d="M 949.793 1279.35 C 957.622 1283.35 965.431 1287.38 973.218 1291.46 C 972.863 1300.62 972.704 1309.8 972.741 1318.97 C 969.775 1313.22 970.904 1309.08 970.396 1302.31 C 958.631 1297.55 956.893 1287.56 949.793 1279.35 z" fill="rgb(168,78,65)" transform="translate(0,0)"></path>
<path d="M 465.918 291.259 C 700.793 113.484 1006.73 59.272 1288.39 145.517 C 1285.91 146.495 1248.33 134.636 1241.87 133.038 C 1186.85 119.432 1127.87 109.334 1071.38 107.088 C 1054.69 106.425 1033.12 102.124 1018.09 103.634 L 1021.04 104.338 L 1020.79 105.488 C 1014.8 108.781 1013.86 104.73 1006.82 106.266 C 1007.26 108.783 1007.9 109.028 1009.55 111.246 C 1009.6 112.508 1009.98 113.83 1009.01 114.343 C 996.406 121.046 976.083 132.459 962.611 135.309 C 955.243 136.867 950.848 138.843 945.926 138.917 C 945.504 137.077 945.379 136.101 945.17 134.22 C 940.924 132.644 935.481 136.846 933.434 136.134 C 916.02 130.052 899.486 134.189 881.483 132.324 C 882.07 132.385 866.525 136.435 862.221 136.314 C 849.873 135.97 850.129 140.661 839.795 130.239 C 837.203 130.277 837.242 130.356 834.749 131.179 L 833.047 129.48 L 833.508 127.559 C 837.091 125.471 837.04 125.67 841.289 125.302 L 842.059 124.553 C 835.547 120.27 827.744 122.854 821.289 126.588 L 820.204 128.533 L 821.619 131.101 L 822.937 131.366 L 824.851 129.476 L 826.544 129.576 L 827.593 130.962 L 826.993 133.025 C 825.091 133.267 826.016 133.459 824.277 132.214 C 823.044 134.313 821.309 138.994 818.758 138.889 C 791.328 137.769 771.228 159.465 743.166 147.43 C 741.21 146.591 702.82 161.792 699.35 165.664 C 689.361 176.253 693.266 179.394 674.079 180.968 C 671.822 181.154 672.057 180.544 670.278 178.47 C 662.36 185.302 660.316 192.937 652.363 193.292 C 648.713 193.455 644.996 197.43 640.292 199.009 C 631.673 201.904 620.076 202.153 610.862 202.435 L 610.668 205.35 C 610.353 205.405 610.038 205.454 609.724 205.514 C 583.326 210.542 495.549 270.46 470.631 289.806 C 469.319 290.824 467.484 292.116 465.918 291.259 z" fill="rgb(246,217,181)" transform="translate(0,0)"></path>
<path d="M 534.852 1162.49 L 535.448 1161.21 C 533.688 1159.57 532.362 1158.34 530.718 1156.56 C 538.304 1157.78 552.671 1164.56 560.947 1167.21 C 630.712 1189.53 703.391 1200.44 768.238 1157.58 C 779.209 1174.33 788.427 1187.74 800.796 1203.45 C 788.012 1205.56 775.143 1207.12 762.225 1208.12 C 695.79 1213.08 625.009 1208.52 563.748 1179.99 C 554.055 1175.47 542.986 1169.51 534.852 1162.49 z" fill="rgb(32,174,117)" transform="translate(0,0)"></path>
<path d="M 569.27 1663.58 C 571.451 1644.45 602.946 1624.45 615.307 1610.66 C 625.789 1598.97 636.161 1586.48 641.155 1571.35 L 641.459 1570.4 L 643.247 1570.84 C 641.928 1612.07 610.263 1654.71 569.27 1663.58 z" fill="rgb(211,113,87)" transform="translate(0,0)"></path>
<path d="M 1556.19 780.121 C 1564.07 785.295 1574.3 796.002 1580.55 803.114 C 1605.8 831.87 1631.09 870.661 1636.42 909.284 C 1627.99 900.578 1611.64 854.674 1607.25 850.639 C 1601.96 852.178 1597.2 857.137 1591.95 860.253 L 1590.21 861.268 C 1591.29 857.713 1601.85 851.328 1605.47 848.903 C 1607.27 844.425 1603.64 847.072 1603.28 842.055 L 1609.38 845.985 L 1610.45 845.646 C 1600.31 829.838 1590.24 816.732 1577.44 802.758 C 1571.22 795.966 1561.13 787.268 1556.19 780.121 z" fill="rgb(171,226,193)" transform="translate(0,0)"></path>
<path d="M 453.444 458.292 C 442.918 448.012 439.04 427.257 440.383 412.885 C 444.732 366.362 511.384 348.968 539.436 386.123 C 554.045 403.8 556.887 437.176 540.474 454.225 C 531.581 469.27 509.118 489.713 495.314 500.689 C 488.925 494.96 477.39 485.143 471.992 479.318 C 464.101 472.242 459.702 466.816 453.444 458.292 z" fill="url(#Gradient5)" transform="translate(0,0)"></path>
<path d="M 539.436 386.123 C 554.045 403.8 556.887 437.176 540.474 454.225 C 531.581 469.27 509.118 489.713 495.314 500.689 C 488.925 494.96 477.39 485.143 471.992 479.318 C 464.101 472.242 459.702 466.816 453.444 458.292 C 457.258 456.457 488.355 452.335 494.087 452.622 C 497.628 452.799 494.561 453.817 498.152 451.527 C 507.262 451.209 515.61 446.358 520.398 438.602 C 520.487 444.992 512.808 449.292 508.044 452.807 C 515.505 451.185 523.816 449.824 529.69 444.635 C 546.359 429.91 537.595 404.169 539.436 386.123 z" fill="rgb(125,209,214)" transform="translate(0,0)"></path>
<path d="M 471.992 479.318 C 476.605 472.475 499.709 471.642 508.611 467.848 C 517.435 464.087 526.546 457.991 535.239 454.777 L 537.003 456.253 L 538.561 453.693 L 540.474 454.225 C 531.581 469.27 509.118 489.713 495.314 500.689 C 488.925 494.96 477.39 485.143 471.992 479.318 z" fill="url(#Gradient4)" transform="translate(0,0)"></path>
<path d="M 498.152 451.527 C 485.657 451.964 474.467 443.846 471.004 431.832 C 467.541 419.819 472.694 406.99 483.504 400.709 C 494.314 394.428 508.011 396.305 516.733 405.263 C 525.455 414.221 526.966 427.963 520.398 438.602 C 515.61 446.358 507.262 451.209 498.152 451.527 z" fill="rgb(255,255,255)" transform="translate(0,0)"></path>
<path d="M 455.974 1234.65 C 476.462 1231.06 497.298 1238.76 510.527 1254.81 C 523.756 1270.86 527.334 1292.79 519.895 1312.21 C 512.456 1331.63 495.148 1345.56 474.582 1348.67 C 443.3 1353.39 414.036 1332.08 408.94 1300.85 C 403.844 1269.63 424.813 1240.12 455.974 1234.65 z" fill="rgb(99,149,196)" transform="translate(0,0)"></path>
<path d="M 457.343 1266.43 C 470.436 1263.75 483.241 1272.12 486.035 1285.19 C 488.83 1298.26 480.57 1311.14 467.527 1314.05 C 454.319 1317 441.24 1308.61 438.41 1295.38 C 435.58 1282.14 444.084 1269.14 457.343 1266.43 z" fill="rgb(255,255,255)" transform="translate(0,0)"></path>
<path d="M 1653.52 607.74 C 1665 595.309 1679.46 582.881 1689.69 570.333 C 1696.6 577.131 1708.34 588.163 1714.36 595.354 C 1727.27 606.962 1738 621.254 1751.64 631.648 C 1736.8 650.044 1707.41 675.466 1690.17 693.744 C 1670.35 673.109 1649.39 652.228 1629.93 631.478 L 1653.52 607.74 z" fill="url(#Gradient3)" transform="translate(0,0)"></path>
<path d="M 416.065 645.186 C 433.828 643.427 450.887 648.8 460.379 664.915 C 466.017 674.676 467.39 686.327 464.175 697.131 C 458.84 715.131 445.491 722.764 430.504 731.118 C 413.118 738.402 387.956 712.615 383.571 696.713 C 380.578 685.593 382.215 673.736 388.108 663.843 C 394.99 652.448 403.985 648.399 416.065 645.186 z" fill="url(#Gradient2)" transform="translate(0,0)"></path>
<path d="M 420.498 667.246 C 444.84 666.72 445.093 692.142 424.293 702.868 C 402.921 700.283 395.467 672.793 420.498 667.246 z" fill="rgb(255,255,255)" transform="translate(0,0)"></path>
<path d="M 1314.28 1302.71 C 1332.12 1298.36 1350.12 1309.25 1354.56 1327.06 C 1359 1344.88 1348.21 1362.93 1330.42 1367.46 C 1312.49 1372.03 1294.28 1361.14 1289.8 1343.2 C 1285.33 1325.25 1296.31 1307.09 1314.28 1302.71 z" fill="rgb(125,209,214)" transform="translate(0,0)"></path>
<path d="M 1321.84 1317.65 C 1331.59 1317.55 1339.6 1325.33 1339.78 1335.08 C 1339.97 1344.82 1332.25 1352.9 1322.51 1353.16 C 1317.03 1353.31 1311.8 1350.92 1308.32 1346.69 C 1303.97 1341.41 1303.04 1334.11 1305.93 1327.91 C 1308.82 1321.71 1315.01 1317.72 1321.84 1317.65 z" fill="rgb(255,255,255)" transform="translate(0,0)"></path>
<path d="M 1572.41 365.442 C 1575.29 367.374 1581.94 378.111 1584.52 381.551 C 1593.71 393.826 1601.36 399.904 1614.41 407.401 C 1591.05 418.289 1584.1 431.615 1571.69 452.879 C 1557.65 425.435 1555.82 423.489 1529.39 407.814 C 1554.08 391.524 1556.63 390.144 1572.41 365.442 z" fill="url(#Gradient1)" transform="translate(0,0)"></path>
<path d="M 275.568 1009.75 C 277.905 1012.02 279.978 1020.02 280.695 1023.5 C 286.793 1053.09 302.982 1052.28 328.692 1058.83 C 315.571 1063.86 302.162 1065.56 289.67 1071.77 C 285.172 1081.6 281.13 1096.6 276.66 1107.76 C 267.971 1093.08 268.157 1072.54 249.169 1065.87 C 239.812 1062.59 230.688 1060.9 221.018 1058.91 C 235.437 1055.58 248.863 1053.48 262.113 1046.81 C 268.165 1037.79 272.39 1020.7 275.568 1009.75 z" fill="rgb(252,232,150)" transform="translate(0,0)"></path>
<path d="M 239.06 820.555 C 253.502 839.221 251.855 841.403 273.452 852.662 C 256.443 866.872 253.412 860.956 240.532 885.322 C 238.236 885.26 231.139 870.725 228.173 868.026 C 222.093 862.494 215.18 858.394 208.32 853.949 C 226.286 838.283 225.253 843.08 239.06 820.555 z" fill="rgb(255,255,255)" transform="translate(0,0)"></path>
<path d="M 682.372 245.313 C 686.836 249.836 690.722 255.338 694.714 260.278 C 696.936 263.028 699.02 262.032 703.003 261.835 L 704.692 262.84 C 690.599 275.597 687.065 279.43 678.115 296.226 C 671.021 285.086 664.485 274.562 653.013 267.368 L 651.506 266.773 L 651.478 265.13 C 660.545 261.249 666.823 251.648 682.372 245.313 z" fill="rgb(245,217,200)" transform="translate(0,0)"></path>
<path d="M 682.372 245.313 C 686.836 249.836 690.722 255.338 694.714 260.278 C 696.936 263.028 699.02 262.032 703.003 261.835 L 704.692 262.84 C 697.493 262.979 656.545 264.093 653.048 266.262 L 653.013 267.368 L 651.506 266.773 L 651.478 265.13 C 660.545 261.249 666.823 251.648 682.372 245.313 z" fill="rgb(246,217,181)" transform="translate(0,0)"></path>
<path d="M 847.403 1497.86 L 848.243 1492.14 L 849.214 1491.94 C 853.185 1497.73 851.853 1497.09 853.597 1502.66 C 855.377 1508.34 868.979 1512.32 874.334 1514.47 C 855.178 1520.39 854.603 1520.71 849.572 1540 C 848.676 1537.41 845.628 1529.2 845.182 1526.98 C 839.588 1519.89 834.039 1517.4 826.23 1512.8 C 836.763 1509.01 842.532 1508.14 847.403 1497.86 z" fill="rgb(233,172,126)" transform="translate(0,0)"></path>
<path d="M 847.403 1497.86 C 847.088 1500.19 846.079 1503.79 847.119 1505.6 C 852.595 1515.13 846.311 1517.57 845.182 1526.98 C 839.588 1519.89 834.039 1517.4 826.23 1512.8 C 836.763 1509.01 842.532 1508.14 847.403 1497.86 z" fill="rgb(246,217,181)" transform="translate(0,0)"></path>
<path d="M 320.48 596.8 C 325.493 594.774 331.209 597.092 333.394 602.038 C 335.578 606.984 333.442 612.771 328.568 615.111 C 325.275 616.693 321.382 616.355 318.409 614.231 C 315.437 612.106 313.858 608.531 314.289 604.903 C 314.72 601.275 317.093 598.17 320.48 596.8 z" fill="rgb(54,106,161)" transform="translate(0,0)"></path>
<path d="M 1731.44 835.426 C 1736.61 834.582 1741.53 837.961 1742.6 843.092 C 1743.67 848.223 1740.5 853.284 1735.42 854.572 C 1731.93 855.456 1728.24 854.355 1725.81 851.706 C 1723.38 849.057 1722.59 845.286 1723.77 841.886 C 1724.94 838.486 1727.89 836.006 1731.44 835.426 z" fill="rgb(125,209,214)" transform="translate(0,0)"></path>
<path d="M 1202.35 1481.13 C 1207.42 1480.11 1212.38 1483.32 1213.51 1488.37 C 1214.65 1493.42 1211.54 1498.45 1206.52 1499.7 C 1203.17 1500.52 1199.64 1499.48 1197.28 1496.96 C 1194.92 1494.44 1194.11 1490.84 1195.17 1487.56 C 1196.22 1484.27 1198.96 1481.81 1202.35 1481.13 z" fill="rgb(45,145,166)" transform="translate(0,0)"></path>
<path d="M 202.894 1132.82 C 207.641 1130.68 213.219 1132.83 215.309 1137.6 C 217.399 1142.37 215.199 1147.92 210.412 1149.97 C 205.688 1151.99 200.221 1149.82 198.159 1145.12 C 196.096 1140.41 198.209 1134.93 202.894 1132.82 z" fill="rgb(72,178,209)" transform="translate(0,0)"></path>
<path d="M 742.737 1293.53 C 745.861 1292.28 749.417 1292.8 752.047 1294.9 C 754.676 1297.01 755.972 1300.36 755.441 1303.68 C 754.909 1307.01 752.632 1309.79 749.478 1310.96 C 744.682 1312.75 739.338 1310.35 737.492 1305.58 C 735.646 1300.8 737.984 1295.43 742.737 1293.53 z" fill="rgb(45,145,166)" transform="translate(0,0)"></path>
<path d="M 1371.14 305.88 C 1368.01 304.481 1365.94 301.441 1365.77 298.018 C 1365.61 294.595 1367.39 291.372 1370.37 289.682 C 1373.35 287.993 1377.03 288.124 1379.88 290.022 C 1383.81 292.639 1385.08 297.835 1382.8 301.972 C 1380.52 306.11 1375.45 307.809 1371.14 305.88 z" fill="rgb(45,145,166)" transform="translate(0,0)"></path>
<path d="M 1379.88 290.022 C 1383.81 292.639 1385.08 297.835 1382.8 301.972 C 1380.52 306.11 1375.45 307.809 1371.14 305.88 C 1372.86 301.688 1377.48 294.189 1379.88 290.022 z" fill="rgb(54,106,161)" transform="translate(0,0)"></path>
<path d="M 1848.88 952.864 C 1853.14 950.712 1858.33 952.444 1860.44 956.718 C 1862.56 960.993 1860.77 966.169 1856.48 968.24 C 1852.24 970.284 1847.15 968.532 1845.07 964.315 C 1842.98 960.097 1844.69 954.988 1848.88 952.864 z" fill="rgb(72,178,209)" transform="translate(0,0)"></path>
<path d="M 1444.35 1254.43 C 1447.9 1252.71 1452.17 1254.09 1454.05 1257.55 C 1455.94 1261.02 1454.77 1265.35 1451.4 1267.4 C 1449.07 1268.81 1446.15 1268.83 1443.81 1267.45 C 1441.46 1266.06 1440.07 1263.5 1440.18 1260.78 C 1440.29 1258.06 1441.89 1255.62 1444.35 1254.43 z" fill="rgb(72,178,209)" transform="translate(0,0)"></path>
<path d="M 1011.89 107.334 L 1016.33 107.428 L 1016.72 109.391 C 1014.88 110.542 1015.64 110.229 1013.45 110.486 L 1011.89 107.334 z" fill="rgb(246,217,181)" transform="translate(0,0)"></path>
<metadata><recraft-signature>{"signed_by": "recraft", "signature_b64": "TRU0VlX7BGs//82x6/Lu47TGZn8CqxLYd3jp5hBaYGiMEBOZ5ctjKhSO6HT3f1Qe/uWUJSMe63zpevbk92BNCQ==", "signing_algo": "Ed25519", "generation_timestamp": 1783498302, "identifier": "abb7dda5-b402-4c5a-9303-fff6956783a3"}</recraft-signature></metadata></svg>