<svg xmlns="http://www.w3.org/2000/svg" height="1024" preserveAspectRatio="none" style="display: block;" version="1.1" viewBox="0 0 2048 2048" width="1024">
<path d="M 0 0 L 2048 0 L 2048 2048 L 0 2048 L 0 0 z" fill="rgb(243,93,50)" transform="translate(0,0)"></path>
<path d="M 1587.96 39.357 C 1632.77 36.1294 1659.25 78.3502 1670.65 115.808 C 1691.39 122 1696.38 129.937 1710.06 145.917 C 1736.27 141.903 1757.54 164.054 1769.67 184.719 C 1783.24 184.815 1797.76 195.662 1805.08 206.464 C 1824.63 235.476 1819.06 271.234 1808.71 302.724 C 1793.62 348.628 1761.48 390.865 1722.18 418.983 C 1711.45 426.666 1695.82 432.929 1683.79 438.84 C 1670.8 473.948 1650.87 492.039 1611.26 486.588 C 1598.88 512.349 1584.3 535.65 1571.73 560.464 C 1551.15 601.097 1531.58 642.897 1510.55 683.326 C 1513.45 685.703 1516.29 688.163 1519.05 690.704 C 1533.64 704.089 1548.84 721.611 1562.5 736.307 C 1584.9 759.937 1607.1 783.745 1629.11 807.727 L 1675.51 856.817 C 1688.15 870.422 1703.76 883.727 1703.89 903.743 C 1704.06 929.315 1674.91 951.432 1657.49 968.98 L 1583.91 1042.92 L 1391.68 1236.87 C 1358.53 1270.07 1322.69 1304.53 1290.17 1338.03 C 1329.17 1374.56 1368.6 1410.64 1408.44 1446.25 C 1423.75 1460.02 1441.61 1478.94 1458 1490.1 C 1481.79 1477.3 1495.44 1473.92 1521.52 1485.34 C 1550.67 1447.77 1600.72 1420.83 1648.43 1419.82 C 1687.83 1418.99 1721.92 1432.11 1750.56 1459.01 C 1778.05 1484.82 1788.98 1519.66 1767.6 1553.11 C 1761.52 1562.69 1754.22 1571.11 1747.52 1580.23 C 1730.75 1603.05 1712.31 1624.66 1695.19 1647.17 C 1656.79 1698.33 1617.51 1748.82 1577.36 1798.62 C 1562.54 1817.26 1544.83 1844.38 1528.37 1859.79 C 1495.56 1890.51 1450.4 1881.33 1422.09 1850.92 C 1383.9 1809.9 1372.69 1769.33 1372.98 1715.04 C 1342.94 1694.85 1326.58 1664.06 1342.07 1628.91 C 1288.64 1572.58 1225.29 1513.78 1169.32 1459.07 C 1139.85 1490.54 1106.46 1520.02 1076.51 1551.13 C 1061.87 1566.33 1047.46 1580.73 1031.55 1594.66 C 1026.94 1634.56 1024.35 1675.68 1019.64 1716.48 C 1051.46 1731.74 1056.83 1755.48 1054.84 1787.89 C 1094.6 1816.31 1122.9 1864.54 1125.3 1913.69 C 1127.61 1960.96 1094.2 2003.54 1044.95 2002.39 C 1017.95 2001.76 991.658 1997.09 964.92 1993.36 L 860.531 1979.78 L 726.129 1963.44 C 712.773 1961.69 684.154 1958.69 671.918 1955.84 C 658.767 1952.83 646.733 1946.17 637.2 1936.62 C 593.593 1892.68 620.504 1816.41 660.526 1779.49 C 699.223 1743.8 737.808 1734.38 788.919 1735.16 C 800.19 1708.41 810.809 1698.17 840.075 1692.22 C 842.726 1667.76 844.6 1644.43 846.78 1619.98 C 849.646 1578.74 855.424 1536.34 858.398 1494.35 C 839.033 1476.47 819.842 1455.02 801.626 1435.74 C 772.249 1405.2 743.259 1374.29 714.662 1343.01 C 684.304 1310.15 652.097 1278.98 621.353 1246.56 L 565.349 1187.77 C 555.518 1177.61 543.038 1163.94 532.361 1155.18 L 465.882 1309.46 C 485.577 1329.36 490.207 1356.77 480.769 1382.67 C 541.583 1425.2 548.16 1522.68 469.22 1543.84 C 468.466 1550.74 468.022 1558.69 466.659 1565.39 C 451.666 1639.12 375.733 1677.09 313.684 1628.65 C 278.426 1638.72 247.795 1630.17 224.135 1602.15 C 216.384 1601.64 208.727 1600.16 201.339 1597.76 C 179.015 1590.44 160.507 1571.91 150.041 1551.34 C 130.553 1513.04 134.786 1455.15 148.254 1415.61 C 165.395 1365.28 196.653 1322.54 244.674 1298.4 C 260.046 1262.72 280.881 1246.41 320.906 1251.17 C 337.035 1213.62 356.038 1174.68 372.704 1136.94 C 386.887 1104.83 402.846 1063.33 418.167 1033.16 C 411.818 1027.66 405.664 1021.94 399.715 1016.02 C 370.718 986.862 340.762 952.519 311.405 922.232 C 291.846 902.252 272.419 882.144 253.124 861.91 C 232.333 840.022 212.27 823.852 216.592 790.659 C 220.418 761.265 253.187 735.855 273.662 716.081 C 257.965 696.106 246.404 677.065 245.85 650.919 C 244.386 581.78 319.488 535.357 381.612 562.996 C 394.923 568.918 404.619 579.331 414.891 589.283 C 427.094 579.34 439.618 565.881 450.943 554.57 L 498.396 507.813 C 485.38 490.321 479.745 478.639 477.371 456.979 C 469.263 382.992 552.583 328.361 617.745 362.879 C 626.224 367.37 631.295 371.602 638.527 377.825 C 668.467 351.283 697.961 320.025 728.196 292.285 L 727.016 290.991 C 707.307 269.288 697.273 247.827 698.923 217.776 C 700.094 192.957 711.253 169.666 729.861 153.201 C 768.297 118.996 826.865 117.341 861.413 157.502 C 887.701 136.899 905.424 104.515 943.509 105.35 C 980.498 106.161 999.391 136.42 1023.24 161.072 L 1109.24 249.663 L 1404.52 555.67 C 1413.46 538.373 1422.02 521.043 1431.09 503.743 C 1445.74 475.79 1461.67 448.649 1476.38 420.828 C 1453.98 398.359 1456.92 372.949 1471.04 347.321 C 1462.05 327.229 1453.85 308.315 1455.63 285.776 C 1459.05 242.5 1485.8 216.402 1515.85 189.77 C 1514.31 138.198 1524.3 47.9589 1587.96 39.357 z" fill="rgb(247,247,247)" transform="translate(0,0)"></path>
<path d="M 1587.51 70.1104 C 1625.06 64.9814 1642.83 116.289 1648.39 144.782 C 1672.99 145.805 1688.31 156.158 1693.44 181.091 C 1726.52 169.693 1739.54 182.777 1747.57 214.495 C 1767.14 207.819 1786.32 224.867 1787.01 244.461 C 1788.28 280.494 1769.71 322.671 1747.65 350.52 C 1722.16 382.689 1695.95 405.07 1654.4 409.464 C 1656.75 418.219 1657.51 424.002 1654.51 432.979 C 1651.53 441.925 1645.01 449.257 1636.47 453.269 C 1622.33 460.048 1609.35 456.639 1595.6 451.849 C 1579.22 478.143 1566.97 505.169 1552.66 532.476 C 1537.99 560.7 1523.53 589.028 1509.28 617.459 C 1497.4 640.805 1484.83 664.635 1473.85 688.357 C 1482.93 696.148 1501.7 716.067 1510.31 725.02 L 1574.95 793.375 L 1637.02 860.323 C 1647.13 871.375 1657.47 882.525 1667.2 893.93 C 1672.46 900.846 1677.83 905.875 1670.36 913.612 C 1635.06 950.189 1598.14 985.01 1562.71 1021.44 C 1549.67 1034.85 1536.44 1048.01 1523.23 1061.25 L 1248.79 1338.45 C 1290.48 1378.02 1331.05 1415.85 1373.82 1454.25 C 1403.07 1480.52 1429.17 1506.76 1459.6 1532.56 C 1482.31 1506.37 1497.66 1498.37 1525.24 1525.77 C 1540.41 1509.08 1553.54 1494.11 1571.07 1479.48 C 1618.67 1439.95 1695.7 1434.92 1736.18 1487.29 C 1764.75 1524.24 1738.03 1543.16 1715.27 1572.68 L 1667.29 1635.61 C 1627.87 1686.84 1589.17 1738.74 1548.09 1788.68 C 1534.29 1805.46 1520.38 1828.11 1503.59 1841.42 C 1476.74 1862.7 1445.45 1840.04 1430.2 1816.56 C 1404.7 1777.82 1397.53 1740.52 1406.34 1695.7 C 1387.81 1692.43 1368.34 1681.1 1366.41 1660.32 C 1365.1 1646.19 1373.79 1636.93 1382.36 1627 L 1256.68 1504.26 C 1227.86 1475.92 1198.28 1445.86 1168.8 1418.38 C 1157.48 1427.98 1139.13 1447.45 1128.14 1458.35 L 1050.8 1534.93 C 1037.93 1547.71 1018.02 1568.23 1004.26 1578.46 C 1000.39 1600.21 998.191 1632.47 995.791 1654.99 C 992.823 1682.84 988.353 1715.27 986.729 1742.84 C 1022.98 1745.6 1039.84 1768.49 1018.71 1800.88 C 1036.49 1809.77 1046.27 1817.92 1059.59 1832.58 C 1085.88 1861.51 1114.63 1931.82 1076.69 1962.37 C 1068.83 1968.79 1059.1 1972.5 1048.96 1972.97 C 1040.82 1973.35 1019.99 1970.2 1011.18 1969.04 C 993.782 1966.74 976.367 1964.57 958.937 1962.51 C 875.526 1952.32 792.01 1940.27 708.471 1931.32 C 691.07 1929.16 665.66 1928.25 654.868 1911.98 C 627.852 1871.26 661.11 1813.87 695.139 1789.01 C 733.888 1760.71 770.441 1763.7 814.577 1769.77 C 813.605 1747.68 817.468 1726.25 844.75 1723.58 C 851.913 1722.88 858.763 1725.12 865.749 1726.79 C 867.572 1716.84 868.858 1700.76 869.961 1690.22 L 876.877 1621.98 C 880.974 1581.68 888.741 1522.34 889.157 1483.38 C 767.882 1354.53 645.347 1226.88 521.567 1100.44 C 489.757 1175.32 459.66 1247.5 426.465 1322.1 C 458.451 1337.84 467.772 1357.8 439.497 1384.31 C 442.898 1390.8 445.929 1395.05 448.955 1402.05 C 476.348 1413.07 495.737 1438.29 496.961 1468.17 C 497.557 1480.75 492.842 1493.01 483.964 1501.95 C 469.453 1516.7 450.688 1518.96 431.288 1519.1 C 436.354 1537.67 438.769 1553.25 433.452 1572.31 C 428.902 1589.12 417.809 1603.4 402.651 1611.98 C 368.637 1631.1 340.171 1619.34 321.599 1586.04 C 300.484 1603.99 278.64 1609.45 254.151 1590.88 C 246.667 1585.2 241.91 1576.51 236.951 1568.61 C 236.195 1568.91 235.433 1569.21 234.666 1569.48 C 224.621 1573.06 213.224 1571.02 203.971 1566.24 C 178.125 1552.86 167.309 1521.7 166.31 1494 C 164.133 1433.65 194.603 1363.77 247.664 1332.18 C 255.723 1327.38 267.458 1323.67 276.434 1320.64 C 274.774 1305.22 276.183 1291.26 292.109 1283.71 C 306.913 1276.68 323.011 1283.23 337.341 1288.37 C 351.472 1260.16 363.72 1231.02 376.523 1202.12 C 401.757 1145.17 429.535 1085.76 451.508 1027.64 L 313.2 882.712 C 293.655 862.146 271.375 840.188 252.839 818.952 C 231.061 794.002 262.479 769.339 279.846 752.348 L 315.409 717.212 C 297.97 693.324 275.525 684.732 276.205 647.299 C 276.455 630.56 283.485 614.639 295.685 603.177 C 308.953 590.677 326.723 583.84 345.032 584.306 C 376.322 585.1 392.186 610.815 412.466 632.134 C 430.228 616.961 448.613 598.209 465.476 581.717 L 540.972 508.241 C 535.447 502.633 527.819 495.418 522.779 489.714 C 511.701 477.398 506.193 461.058 507.554 444.548 C 508.838 426.552 517.303 409.827 531.047 398.138 C 544.498 386.755 561.932 381.202 579.489 382.711 C 607.495 385.13 619.455 401.362 636.301 421.238 C 663.991 397.506 691.219 369.132 717.667 343.564 C 730.313 331.339 759.433 304.616 768.704 292.622 L 753.782 275.743 C 737.863 257.651 727.106 245.08 728.825 218.943 C 730.012 200.893 738.219 185.454 752.074 173.82 C 765.398 162.608 782.694 157.268 800.02 159.018 C 830.159 161.877 842.339 180.298 860.125 201.906 C 881.926 183.343 903.211 157.518 926.142 140.689 C 930.518 137.477 939.818 135.257 945.276 135.602 C 952.357 136.051 959.893 138.205 965.193 143.28 C 978.849 156.352 991.534 171.01 1004.7 184.625 C 1034.08 215.016 1062.91 246.542 1092.48 276.667 L 1284.81 475.855 C 1325.9 518.375 1372.43 564.491 1412.11 607.633 C 1435.13 565.178 1455.31 520.955 1478.61 478.6 C 1490.61 456.768 1502.92 435.242 1514.56 413.203 C 1486.75 396.04 1480.68 372.546 1511.18 353.928 C 1508.12 349.832 1505.27 345.589 1502.63 341.213 C 1467.5 283.923 1491.07 241.352 1545.28 209.395 C 1545.15 173.236 1548.71 121.785 1564.7 89.2864 C 1570.04 78.4493 1576.38 73.6734 1587.51 70.1104 z" fill="rgb(1,1,1)" transform="translate(0,0)"></path>
<path d="M 1090.53 291.794 C 1094.38 294.362 1109.61 310.488 1113.47 314.509 C 1131.36 333.136 1148.83 352.349 1166.8 370.929 L 1406.66 618.791 C 1394.91 645.257 1381.56 671.197 1368.95 697.334 C 1351.91 732.536 1335.51 768.04 1319.74 803.828 C 1312.95 787.158 1284.39 687.09 1275.63 681.055 C 1266.49 681.147 1234.98 696.737 1221.97 701.137 C 1216.99 695.384 1212.14 688.567 1207.56 682.408 L 1211.39 674.408 C 1195.41 659.988 1180.39 643.36 1164.92 628.354 C 1157.33 620.993 1146.73 609.934 1138.08 604.083 L 1117.34 626.674 C 1096.24 623.587 1087.5 623.784 1066.83 628.078 C 1080.85 612.877 1099.69 595.895 1114.71 580.449 C 1097.21 561.171 1075.85 541.335 1057.13 522.989 C 1046 512.074 1030.09 495.706 1018.53 486.488 C 999.055 505.503 979.721 524.66 960.527 543.955 C 948.264 556.058 931.57 571.404 920.57 584.143 C 949.059 612.881 979.878 641.104 1006.63 671.075 C 1000.52 680.64 997.097 687.348 992.128 697.628 C 983.129 690.051 972.25 678.259 963.593 669.783 C 942.208 648.848 921.642 627.27 899.399 607.187 C 883.853 620.313 862.293 643.404 847.268 658.224 C 835.853 669.484 812.221 692.121 802.756 703.719 C 806.153 707.671 809.779 711.462 813.447 715.164 C 838.02 739.965 863.238 764.151 886.557 790.161 C 870.703 781.307 845.031 772.784 827.042 773.115 C 810.757 757.357 795.1 740.99 778.695 725.353 C 759.804 743.78 741.128 762.428 722.672 781.291 C 711.172 792.832 699.108 804.151 688.152 816.147 C 694.867 825.689 708.766 837.869 717.606 846.062 C 713.021 860.023 711.429 870.333 709.1 884.725 C 694.795 870.232 679.639 854.322 664.807 840.542 C 652.668 850.405 636.548 867.251 625.191 878.596 L 569.728 933.524 C 603.178 968.999 639.244 1004.69 673.671 1039.33 L 727.464 984.892 C 733.132 995.965 738.955 1005.58 745.361 1016.24 C 730.033 1032.26 713.694 1044.51 699.039 1062.4 C 707.108 1072.58 733.723 1097.73 744.219 1108.05 C 759.414 1122.99 783.416 1150.77 798.797 1163.52 C 819.576 1141.4 841.082 1119.98 863.28 1099.29 C 883.857 1100.8 897.957 1098.59 917.547 1093.88 C 901.819 1109.23 886.485 1125.03 870.858 1140.51 C 855.157 1156.07 838.386 1171.67 823.418 1187.85 L 877.912 1241.43 C 890.683 1254.21 905.509 1269.91 919.087 1281.52 C 928.167 1271.33 941.699 1258.35 951.462 1248.43 C 971.497 1227.95 991.672 1207.6 1011.99 1187.39 L 958.942 1134.31 C 947.47 1122.86 929.321 1105.89 920.638 1093.2 C 926.233 1089.76 933.205 1086.48 939.162 1083.5 C 944.648 1086.38 957.18 1090.61 960.829 1093.51 C 968.657 1099.75 978.386 1110.61 985.796 1118.11 L 1034.73 1167.23 C 1052.85 1146.9 1074.86 1124.58 1094.25 1105.14 C 1102.98 1096.4 1118.73 1091.11 1128.17 1080.14 C 1138.06 1068.65 1143.8 1057.83 1152.24 1045.51 C 1166.53 1028.55 1185.81 1009.8 1201.67 993.797 C 1215.14 980.22 1240.23 951.374 1254.64 941.173 C 1270.04 941.794 1277.47 937.772 1285.98 950.449 C 1291.24 958.296 1307.62 942.575 1312.52 938.1 C 1369.98 935.663 1368.06 914.806 1389.55 868.585 C 1415.48 812.793 1440.41 755.087 1468.25 700.282 C 1483.29 713.227 1506.16 738.235 1519.8 752.586 C 1551.41 785.384 1582.44 818.735 1612.87 852.623 C 1623.06 863.817 1653.18 894.449 1659.55 905.774 L 1001.91 1566.92 C 991.499 1559.32 972.401 1548.6 963.746 1540.81 C 947.406 1526.1 929.353 1507.05 914.153 1491.09 L 830.961 1403.17 L 634.683 1197.78 L 471.188 1028.99 C 448.783 1005.46 427.346 986.144 406.375 960.599 C 426.187 942.817 446.08 921.657 465.332 902.817 C 508.057 861.444 550.481 819.76 592.601 777.769 L 949.563 428.363 L 1036.76 343.734 C 1052.5 328.251 1074.09 305.608 1090.53 291.794 z" fill="rgb(247,247,247)" transform="translate(0,0)"></path>
<path d="M 1275.18 967.742 C 1281.31 970.554 1364.61 1051.78 1373.67 1062.16 C 1352.55 1085.5 1328.02 1107.45 1306.46 1130.67 C 1297.2 1140.63 1286.57 1151.81 1276.65 1160.86 C 1273.5 1160.48 1188.36 1075.72 1178.01 1065.73 C 1210.28 1033.12 1243.53 1001.04 1275.18 967.742 z" fill="rgb(1,1,1)" transform="translate(0,0)"></path>
<path d="M 1275.85 984.643 C 1284.28 987.545 1347.17 1052.34 1356.45 1062.21 C 1331.43 1088.04 1302.05 1120.67 1275.95 1144.82 C 1269.99 1142.13 1206.53 1076.34 1195.38 1066.45 C 1222.15 1038.06 1247.45 1011.48 1275.85 984.643 z" fill="rgb(254,199,107)" transform="translate(0,0)"></path>
<path d="M 1156.93 1088.79 C 1160.62 1091.58 1164.7 1095.43 1168.14 1098.64 C 1197.49 1125.93 1224.53 1154.95 1254.45 1181.7 C 1227.05 1213.54 1185.9 1250.61 1155.8 1282.22 L 1154.48 1283 C 1152.31 1281.95 1065.47 1194.77 1059.59 1187.67 C 1068.72 1179.43 1081.44 1165.42 1090.65 1156.15 C 1112.98 1133.94 1135.07 1111.48 1156.93 1088.79 z" fill="rgb(1,1,1)" transform="translate(0,0)"></path>
<path d="M 1157.34 1104.87 C 1166.51 1112.45 1178.91 1125.1 1187.67 1133.65 L 1237.09 1182.1 C 1231.49 1188.87 1221.92 1198.35 1215.73 1204.91 C 1196.12 1225.57 1176.1 1245.84 1155.67 1265.69 C 1154.95 1265.63 1154.22 1265.56 1153.5 1265.5 C 1136.51 1249.16 1089.36 1202.32 1076.09 1188.57 C 1095.15 1164.7 1134.47 1128.66 1157.34 1104.87 z" fill="rgb(254,199,107)" transform="translate(0,0)"></path>
<path d="M 1038.13 1210.75 C 1040.98 1212.32 1128.36 1297.96 1133.98 1304.56 C 1125.95 1315.34 1107.71 1332.88 1098.02 1342.73 L 1038.36 1403.29 C 1030.75 1397.26 1010.64 1375.59 1003.18 1367.98 C 983.184 1347.38 962.571 1327.39 941.372 1308.03 C 950.028 1298.7 963.037 1287.2 972.598 1277.58 L 1038.13 1210.75 z" fill="rgb(1,1,1)" transform="translate(0,0)"></path>
<path d="M 1038.8 1226.73 C 1060.44 1247.13 1080.84 1269.52 1102.76 1289.72 C 1108.04 1294.58 1113.34 1299.98 1117.93 1305.5 C 1094.45 1331.52 1063.97 1360.96 1039.1 1386.97 C 1014.07 1364.64 983.172 1332.19 958.705 1308.06 C 982.794 1281.9 1013.28 1251.9 1038.8 1226.73 z" fill="rgb(254,199,107)" transform="translate(0,0)"></path>
<path d="M 938.182 148.209 C 943.551 147.527 948.436 146.642 952.858 150.374 C 969.363 164.304 984.292 181.34 999.094 197.05 C 1026.08 225.768 1053.32 254.255 1080.79 282.508 C 1040.32 323.173 999.255 363.254 957.624 402.737 C 891.43 466.58 823.128 532.357 758.035 597.047 L 528.375 823.118 L 453.175 897.18 C 433.877 916.41 417.724 933.469 397.302 951.806 L 307.995 859.553 C 292.896 844.051 277.143 828.87 263.091 812.459 C 258.508 808.357 257.094 794.495 260.685 789.753 C 269.975 777.484 284.65 764.794 295.631 753.884 C 304.943 744.471 313.311 736.182 323.116 727.305 C 332.064 736.298 340.775 745.281 349.227 754.744 C 367.236 775.237 381.071 794.172 410.593 795.929 C 445.552 798.104 478.016 767.573 480.237 733.059 C 482.59 696.496 444.66 667.664 421.296 641.706 C 464.006 602.072 505.774 557.461 548.503 518.099 C 558.141 527.761 567.62 537.58 576.936 547.552 C 594.424 566.377 606.847 584.015 634.359 585.756 C 652.42 586.898 669.332 582.088 683.115 570.191 C 696.234 559.028 704.236 542.999 705.271 525.805 C 707.408 495.079 689.401 478.431 670.284 458.067 C 662.04 449.336 654.035 440.383 646.277 431.219 C 664.645 411.319 689.487 387.963 709.256 368.771 C 731.709 346.575 754.354 324.574 777.189 302.77 C 790.182 316.658 803.076 331.478 816.013 345.552 C 829.156 359.851 843.372 367.712 863.093 368.293 C 881.089 368.67 898.481 361.798 911.357 349.221 C 930.379 330.81 938.1 297.402 925.268 274.799 C 914.308 255.493 884.356 226.302 868.287 210.046 C 884.523 196.309 923.063 153.571 938.182 148.209 z" fill="rgb(15,90,184)" transform="translate(0,0)"></path>
<path d="M 1648.7 1463.41 C 1682.44 1461.16 1726.74 1478.62 1734.78 1516.52 C 1736.19 1523.17 1730.02 1531.35 1725.93 1536.72 C 1678.23 1599.36 1630.26 1661.72 1581.93 1723.88 L 1531.92 1787.51 C 1492.82 1836.84 1473.06 1865.71 1429.92 1789.42 C 1422.47 1776.24 1419.27 1759.12 1417.18 1744.25 C 1415.14 1714.22 1418.41 1687.49 1434.01 1661.67 C 1436.38 1657.74 1434.54 1651.76 1429.8 1651.04 C 1416.71 1649.06 1414.81 1678.07 1405.39 1682.3 C 1390.58 1682.48 1371.8 1660.89 1381.49 1649.31 C 1415.01 1609.28 1447.19 1567.7 1480.43 1527.5 C 1492.54 1512.85 1508.84 1526.93 1518.65 1537.32 C 1511.77 1545.79 1485.52 1573.49 1489.52 1583.35 L 1491.24 1584.03 C 1493.94 1583.74 1497.81 1583.15 1499.73 1580.97 C 1543.39 1531.22 1575.38 1468.84 1648.7 1463.41 z" fill="rgb(48,162,123)" transform="translate(0,0)"></path>
<path d="M 837.814 1737.26 C 839.144 1737.09 840.479 1736.96 841.817 1736.87 C 847.962 1736.44 853.871 1737.22 859.966 1737.92 C 905.716 1743.2 951.059 1751.66 996.756 1757.38 C 1019.4 1760.21 1018.73 1780.02 1005.25 1794.04 C 994.557 1793.6 966.45 1785.94 962.053 1796.21 L 962.26 1797.76 C 962.886 1802.44 967.834 1803.31 971.858 1803.87 C 1005.71 1808.16 1030.06 1817 1052.69 1844.58 C 1072.45 1868.65 1097.07 1926.55 1067.84 1952.97 C 1063.46 1956.55 1053.35 1960.12 1047.84 1959.61 C 1002.88 1955.43 954.709 1950.03 910.236 1942.99 C 864.052 1938.29 816.451 1930.85 770.225 1925.45 L 712.143 1918.87 C 698.863 1917.36 676.711 1917.13 667.634 1906.62 C 643.091 1877.58 670.955 1826.91 694.663 1805.7 C 744.094 1761.47 811.964 1783.5 870.183 1790.91 C 873.67 1791.35 877.009 1789.16 879.284 1786.85 C 879.853 1775.99 837.743 1773.4 829.23 1772.18 C 826.974 1758.67 825.708 1746.07 837.814 1737.26 z" fill="rgb(48,162,123)" transform="translate(0,0)"></path>
<path d="M 300.826 1294.12 C 302.029 1293.98 303.236 1293.88 304.445 1293.82 C 313.455 1293.4 328.914 1299.06 338.81 1303.17 C 370.753 1316.43 410.12 1325.63 438.732 1345.14 C 445.524 1349.77 443.136 1364.44 437.15 1369.73 C 427.919 1377.9 414.965 1361.4 408.274 1367.15 C 405.8 1380.74 421.258 1379.51 428.752 1389.84 C 434.239 1397.41 436.082 1406.11 438.469 1414.99 C 446.686 1415.86 454.677 1417.28 460.776 1422.5 C 492.482 1449.63 496.759 1499.87 444.76 1506.46 C 424.708 1509 427.12 1499.57 418.442 1499.5 C 413.948 1502.18 407.871 1519.46 402.81 1524.97 C 396.748 1531.57 388.803 1534.22 393.216 1543.66 C 400.917 1548.09 415.074 1529.76 420.267 1524.06 C 428.405 1558.74 423.428 1589.65 387.415 1605.42 C 355.937 1614.62 341.087 1598.89 329.638 1572.15 C 331.927 1566.67 334.888 1560.06 328.451 1556.24 C 317.114 1557.39 317.004 1575.57 304.748 1583.43 C 279.133 1599.85 240.316 1578.61 252.299 1547.11 C 253.141 1544.9 251.661 1542.75 250.501 1541.2 C 239.169 1537.15 239.904 1554.49 221.799 1559.63 C 157.791 1540.3 178.108 1439.63 203.274 1397.84 C 219.613 1370.71 242.872 1342.34 275.509 1334.89 C 283.819 1333 301.538 1336.46 305.49 1328.69 C 302.614 1318.36 283.998 1319.25 288.377 1306.4 C 290.657 1299.71 294.595 1296.91 300.826 1294.12 z" fill="rgb(247,247,247)" transform="translate(0,0)"></path>
<path d="M 816.505 785.367 C 930.664 778.111 1028.64 954.078 957.228 1047.8 C 938.306 1072.63 918.38 1082.11 888.547 1087.18 C 800.25 1089.54 731.949 1001.47 722.26 919.799 C 714.536 854.699 746.78 792.814 816.505 785.367 z" fill="rgb(247,247,247)" transform="translate(0,0)"></path>
<path d="M 820.87 853.165 C 898.625 848.517 945.096 996.111 878.679 1014.97 C 805.066 1019.89 751.503 869.194 820.87 853.165 z" fill="rgb(1,1,1)" transform="translate(0,0)"></path>
<path d="M 1086.89 637.364 C 1112.24 634.314 1144.21 644.682 1164.68 659.353 C 1204.05 688.057 1232.51 734.831 1240.33 782.87 C 1251.37 850.616 1230.27 928.941 1153.74 941.957 C 1066.74 947.51 1006.31 857.103 996.584 779.534 C 988.67 716.435 1017.44 646.419 1086.89 637.364 z" fill="rgb(247,247,247)" transform="translate(0,0)"></path>
<path d="M 1089.73 709.149 C 1164.72 704.858 1215.66 855.387 1146.04 873.899 C 1069.37 879.288 1020.09 731.945 1089.73 709.149 z" fill="rgb(1,1,1)" transform="translate(0,0)"></path>
<path d="M 1526.28 419.438 C 1545.04 428.895 1563.96 438.034 1583.03 446.85 C 1577.06 458.671 1569.97 470.919 1563.79 482.848 C 1533.5 540.318 1503.87 598.139 1474.92 656.297 C 1452.32 702.303 1430.14 748.514 1408.38 794.923 L 1377.53 862.313 C 1371.62 875.381 1361.49 901.594 1353.17 911.852 C 1339.76 928.382 1297.24 927.125 1276.4 927.94 C 1257.03 928.212 1236.47 927.884 1217.21 925.801 C 1237.8 901.007 1241.32 892.477 1250.93 862.501 C 1272 859.677 1295.09 859.256 1314.96 852.112 C 1316.74 846.354 1318.85 840.767 1321.05 835.165 C 1345.49 772.932 1376.29 713.825 1404.96 653.543 C 1409.55 643.897 1413.77 634.06 1418.52 624.479 C 1452.66 555.21 1488.59 486.84 1526.28 419.438 z" fill="rgb(57,139,225)" transform="translate(0,0)"></path>
<path d="M 1239.54 1347.71 C 1244.67 1350.55 1286.69 1391.66 1293.95 1398.36 C 1345.64 1446.14 1400.5 1494.26 1450.84 1543.2 C 1436.53 1563.91 1407.91 1596.99 1391.15 1617.34 C 1380.78 1609.73 1349.67 1576.73 1337.95 1565.49 L 1240.87 1470.46 C 1220.47 1450.39 1198.76 1430.2 1179.46 1409.24 C 1197.53 1389.46 1220.17 1366.01 1239.54 1347.71 z" fill="rgb(57,139,225)" transform="translate(0,0)"></path>
<path d="M 1586.52 209.263 C 1590.65 208.901 1595.17 209.369 1599.02 210.86 C 1652.15 231.449 1578.78 274.731 1567.27 299.266 C 1566.19 301.574 1567.52 303.528 1568.45 305.223 C 1576.18 309.948 1580.3 303.557 1585.3 298.324 C 1598.7 316.565 1609.73 319.054 1631.44 316.098 C 1642.21 339.724 1659.77 353.796 1684.52 337.169 C 1691.61 354.958 1697.33 361.329 1715.61 366.722 C 1698.09 386.775 1664.01 401.792 1637.25 393.185 C 1630.46 391.001 1629.73 388.925 1622.57 392.191 C 1618.34 398.696 1629.57 404.814 1634.35 406.914 C 1636.49 408.144 1638.23 409.471 1639.86 411.314 C 1642.91 414.749 1644.16 418.995 1643.83 423.536 C 1643.39 429.621 1640.15 435.277 1635.58 439.229 C 1630.34 443.754 1625.55 445.221 1618.73 444.678 C 1612.75 444.203 1607.02 442.486 1601.43 440.393 C 1585.27 434.338 1516.38 402.49 1507.43 390.97 C 1505.09 387.965 1504.43 383.622 1504.97 379.932 C 1505.76 374.674 1508.76 370.005 1513.22 367.096 C 1521.74 361.53 1525.92 370.804 1532.12 365.441 C 1533.29 358.239 1524.53 350.031 1520.58 343.97 C 1512.53 331.597 1501.89 315.385 1499.56 300.515 C 1492.04 252.49 1545.8 216.015 1586.52 209.263 z" fill="rgb(247,247,247)" transform="translate(0,0)"></path>
<path d="M 784.762 171.22 C 801.505 169.216 816.716 172.597 828.697 184.985 C 851.319 208.375 873.186 232.714 895.68 256.245 C 909.919 271.142 921.01 284.778 918.372 306.896 C 915.202 333.476 899.221 348.418 874.057 354.834 C 861.158 356.449 849.018 355.081 837.808 348 C 827.203 341.302 761.117 268.49 751.893 255.62 C 747.464 249.44 743.948 242.628 742.224 235.182 C 738.933 220.972 742.378 205.156 750.437 193.057 C 758.63 180.756 770.704 174.345 784.762 171.22 z" fill="rgb(150,190,230)" transform="translate(0,0)"></path>
<path d="M 332.963 597.121 C 349.747 595.226 364.303 598.025 376.035 610.901 C 401.926 640.906 431.754 669.362 456.806 699.857 C 483.243 732.039 460.25 771.637 424.476 781.969 C 413.346 784.229 401.786 782.909 391.453 778.198 C 380.235 772.979 353.324 741.11 343.93 729.957 C 317.968 699.133 270.127 669.523 295.262 623.598 C 303.713 608.156 316.883 601.576 332.963 597.121 z" fill="rgb(150,190,230)" transform="translate(0,0)"></path>
<path d="M 563.996 395.139 C 602.862 391.213 614.3 416.851 637.833 441.463 C 648.061 452.158 660.014 467.424 670.932 476.923 C 705.657 507.131 699.395 560.473 649.755 572.839 C 637.391 574.383 624.878 573.299 613.956 566.73 C 603.908 560.687 539.8 491.978 531.561 480.751 C 526.99 474.523 523.331 467.679 521.431 460.146 C 518.058 446.777 520.5 431.57 527.748 419.815 C 535.839 406.694 549.429 398.866 563.996 395.139 z" fill="rgb(150,190,230)" transform="translate(0,0)"></path>
<path d="M 901.648 1498.43 C 910.943 1504.72 918.352 1513.83 926.223 1521.42 C 944.023 1538.59 970.387 1569.43 990.231 1583.4 C 987.052 1630.73 979.483 1678.54 975.693 1725.91 C 975.378 1729.85 975.341 1738.1 972.568 1740.23 L 968.86 1739.59 C 939.098 1736.06 908.644 1730.97 878.634 1727.13 C 885.621 1679.86 888.085 1630.87 893.6 1583.36 C 896.857 1555.3 899.523 1526.61 901.648 1498.43 z" fill="rgb(57,139,225)" transform="translate(0,0)"></path>
<path d="M 461.21 1039.34 C 467.999 1043.84 503.673 1082.96 511.069 1090.89 C 483.347 1165.84 446.056 1244.67 414.033 1318.09 L 405.747 1315.38 C 387.375 1308.45 368.285 1300.43 349.991 1293.08 C 388.786 1209.26 425.867 1124.67 461.21 1039.34 z" fill="rgb(57,139,225)" transform="translate(0,0)"></path>
<path d="M 899.162 623.656 C 908.665 628.188 969.176 691.614 979.864 702.757 C 952.258 729.046 927.4 756.381 898.695 783.43 C 892.482 780.943 829.232 714.524 818.644 704.084 C 833.02 689.756 847.136 675.108 861.59 660.865 C 874.265 648.376 887.118 636.818 899.162 623.656 z" fill="rgb(254,199,107)" transform="translate(0,0)"></path>
<path d="M 1018.86 502.61 C 1023.13 504.102 1089.53 571.591 1097.32 579.168 C 1082.87 597.856 1059.53 618.711 1043.06 636.418 C 1034.13 646.016 1025.73 646.536 1015.47 660.367 L 1014.16 660.432 C 1006.12 654.19 993.504 640.925 985.957 633.383 L 937.24 584.427 L 1018.86 502.61 z" fill="rgb(254,199,107)" transform="translate(0,0)"></path>
<path d="M 1588.11 82.0441 C 1620.79 78.7164 1640.11 139.216 1632.31 164.15 C 1629.79 172.201 1622.68 183.742 1621.83 191.264 C 1623.99 194.098 1623.86 194.315 1627.25 195.717 C 1639.02 194.327 1645.15 167.768 1647.31 158.017 C 1715.48 156.012 1656.44 258.959 1638.87 286.023 C 1635.18 291.941 1632.87 301.688 1626.09 304.366 C 1611.57 310.099 1600.64 299.116 1594.99 287.305 C 1614.8 260.936 1660.89 229.34 1608.28 200.579 C 1593.33 192.403 1573.96 198.362 1558.84 203.668 C 1558.46 173.324 1560.83 98.2014 1588.11 82.0441 z" fill="rgb(247,247,247)" transform="translate(0,0)"></path>
<path d="M 665.838 856.007 C 680.026 870.799 692.626 884.334 707.286 899.019 C 709.871 928.248 712.879 945.904 722.43 973.405 C 708.616 989.189 688.022 1008.23 672.711 1022.64 L 658.5 1008.1 C 634.738 984.094 609.626 958.792 586.41 934.38 C 595.805 923.888 608.118 912.655 618.35 902.77 C 634.311 887.316 650.141 871.728 665.838 856.007 z" fill="rgb(254,199,107)" transform="translate(0,0)"></path>
<path d="M 918.05 1110.65 C 923.077 1113.01 986.542 1178.33 995.699 1187.77 C 986.759 1197.61 973.464 1210.04 963.805 1219.68 C 948.753 1234.78 933.825 1250 919.023 1265.35 C 913.435 1261.77 898.015 1246.01 892.764 1240.72 C 875.069 1222.99 857.637 1205 840.473 1186.76 C 845.617 1180.54 856.231 1171.09 862.234 1164.87 C 880.378 1146.08 898.566 1128.09 918.05 1110.65 z" fill="rgb(243,93,50)" transform="translate(0,0)"></path>
<path d="M 952.947 848.821 C 979.891 872.694 1003.46 899.447 1029.16 923.361 C 1035.13 918.375 1038.49 913.189 1042.83 906.884 C 1056.21 920.257 1067.37 928.655 1082.56 939.212 C 1075.19 946.895 1068.36 953.089 1062.33 961.907 L 1069.13 967.992 C 1073.81 964.571 1079.55 959.58 1084.13 955.806 C 1086.94 952.788 1090.24 948.305 1092.84 944.968 C 1100.65 948.099 1105.74 949.586 1113.91 951.825 C 1123.31 953.427 1132.73 954.915 1142.17 956.29 C 1136.49 959.833 1112.83 978.88 1110.6 979.35 C 1109.16 977.778 1108.87 977.586 1107.73 975.816 C 1103.53 977.559 1095.67 982.243 1091.39 984.636 C 1093.94 990.873 1096.64 994.544 1092.21 1000.93 C 1084.95 1011.39 1074.47 1009.46 1065.09 1002.96 C 1054.54 995.654 1047.08 984.6 1036.59 977.304 C 1017.54 994.933 999.787 1016.97 979.916 1035.2 C 991.085 1007.43 996.84 986.268 994.071 955.996 C 990.302 914.786 975.845 882.564 952.947 848.821 z" fill="rgb(247,247,247)" transform="translate(0,0)"></path>
<path d="M 1113.91 951.825 C 1123.31 953.427 1132.73 954.915 1142.17 956.29 C 1136.49 959.833 1112.83 978.88 1110.6 979.35 C 1109.16 977.778 1108.87 977.586 1107.73 975.816 C 1108.63 969.595 1109.61 959.981 1103.9 956.388 C 1107.33 955.979 1111.51 954.385 1113.91 951.825 z" fill="rgb(250,143,113)" transform="translate(0,0)"></path>
<path d="M 1092.84 944.968 C 1100.65 948.099 1105.74 949.586 1113.91 951.825 C 1111.51 954.385 1107.33 955.979 1103.9 956.388 C 1095.72 955.574 1092.31 955.399 1084.13 955.806 C 1086.94 952.788 1090.24 948.305 1092.84 944.968 z" fill="rgb(243,93,50)" transform="translate(0,0)"></path>
<path d="M 1266.72 694.944 L 1268.81 695.641 C 1272.89 703.498 1277 719.41 1280.4 728.305 C 1291.04 756.153 1300.51 793.478 1312.08 820.216 C 1309.87 827.282 1305.77 836.441 1302.87 843.461 C 1293.37 844.849 1282.81 845.73 1273.19 846.731 L 1253.54 849.023 C 1259.77 799.695 1252.45 754.971 1228.59 710.986 C 1241.51 705.469 1253.62 700.82 1266.72 694.944 z" fill="rgb(57,139,225)" transform="translate(0,0)"></path>
<path d="M 751.938 1025.81 C 756.473 1029.85 765.458 1042.5 770.95 1047.95 C 795.436 1072.26 817.947 1085.37 849.852 1096.14 C 834.986 1110.39 820.199 1124.72 805.492 1139.14 L 797.537 1147.17 C 770.675 1120.19 741.181 1090.21 715.403 1062.26 C 726.319 1050.51 740.378 1037.27 751.938 1025.81 z" fill="rgb(254,199,107)" transform="translate(0,0)"></path>
<path d="M 1706.55 189.042 C 1732.59 187.835 1738.87 212.411 1728.06 232.146 C 1718.82 249.03 1710.37 267.518 1700.64 284.137 C 1692.18 298.577 1685.29 319.812 1672.73 330.522 C 1653.21 333.569 1640.35 320.192 1646.48 300.695 C 1649.72 290.383 1659.1 278.403 1664.02 268.372 C 1675.66 244.687 1686.86 222.668 1692.25 196.631 C 1697.55 192.527 1700.29 191.172 1706.55 189.042 z" fill="rgb(247,247,247)" transform="translate(0,0)"></path>
<path d="M 1747 225.099 C 1809.3 222.441 1748.65 343.311 1723.98 355.456 C 1709.01 354.647 1698.49 344.213 1697.05 329.278 C 1696.51 323.68 1698.07 319.909 1700.23 314.853 C 1710.5 290.837 1724.47 268.426 1736.46 245.239 C 1739.25 239.873 1743.84 228.958 1747 225.099 z" fill="rgb(247,247,247)" transform="translate(0,0)"></path>
<path d="M 986.739 712.796 C 987.502 715.981 986.445 718.696 985.795 722.006 C 982.708 737.751 981.904 751.605 982.42 767.542 L 932.397 824.368 L 917.864 810.638 C 912.414 805.846 908.267 802.582 902.427 798.251 C 908.966 792.836 920.063 779.814 926.606 773.164 L 986.739 712.796 z" fill="rgb(247,247,247)" transform="translate(0,0)"></path>
<path d="M 982.764 784.786 C 984.449 786.839 989.597 812.002 990.952 816.627 C 1000.17 848.101 1016.66 873.876 1035.62 899.939 C 1033.61 902.28 1031.3 904.558 1029.13 906.782 L 1014.21 891.593 C 992.657 869.876 969.258 848.096 947.1 826.814 C 959.415 813.514 970.142 798.424 982.764 784.786 z" fill="rgb(254,199,107)" transform="translate(0,0)"></path>
<path d="M 1204 938.164 C 1215.59 939.198 1225.55 939.992 1237.21 940.317 C 1215.24 962.717 1193.66 983.948 1172.01 1006.75 C 1167.07 1012.52 1160.78 1018.82 1155.47 1024.39 C 1160.58 998.274 1162.37 980.418 1159.58 954.025 C 1178.75 950.431 1186.76 947.365 1204 938.164 z" fill="rgb(254,199,107)" transform="translate(0,0)"></path>
<path d="M 778.376 742.754 C 785.628 747.387 803.59 765.897 810.057 772.395 C 769.982 780.916 751.464 792.865 728.048 826.254 L 722.826 834.399 C 716.69 829.033 709.841 822.68 704.708 816.386 C 710.23 809.712 722.344 798.321 728.814 791.863 L 778.376 742.754 z" fill="rgb(254,199,107)" transform="translate(0,0)"></path>
<path d="M 1036.98 993.834 C 1048.03 1002.73 1052.37 1009.35 1066.54 1019.28 C 1035.43 1041.51 1007.46 1053.77 973.191 1069.82 L 957.985 1076.64 L 949.06 1074.18 C 952.745 1071.49 956.395 1068.2 960.107 1065.66 C 989.942 1045.32 1012.44 1019.99 1036.98 993.834 z" fill="rgb(250,143,113)" transform="translate(0,0)"></path>
<path d="M 1135.09 1019.01 L 1135.88 1019.88 C 1134.66 1031.41 1122.7 1051.25 1113.25 1059.01 C 1104.08 1066.53 1097.53 1070.65 1087.8 1076.52 C 1060.75 1092.84 1052.5 1095.99 1021.78 1094.04 L 1020.52 1093.8 L 1020.01 1092.68 C 1027.96 1086.3 1045.03 1076.62 1054.1 1070.54 C 1080.63 1052.74 1108.34 1036.42 1135.09 1019.01 z" fill="rgb(247,247,247)" transform="translate(0,0)"></path>
<path d="M 989.606 1106.19 C 1019.9 1111.32 1042.8 1114.25 1073.65 1109.4 C 1067.3 1117.03 1061.04 1123.4 1054.15 1130.49 C 1047.63 1137.35 1041.06 1144.15 1034.44 1150.91 C 1019.6 1135.73 1004.32 1121.24 989.606 1106.19 z" fill="rgb(254,199,107)" transform="translate(0,0)"></path>
<path d="M 1138.89 620.714 C 1142.5 623.047 1163.12 641.264 1163.84 644.394 L 1161.52 643.276 C 1150.77 636.114 1142.64 632.609 1130.46 628.872 L 1138.89 620.714 z" fill="rgb(254,199,107)" transform="translate(0,0)"></path>
<metadata><recraft-signature>{"signed_by": "recraft", "signature_b64": "qsH2aWZGSbCFXsaivZS8H3rbTb1IGNQAeRwg/0vPE9EXcj8JHiD7kcLCpRLhITnvzlYIB1iYzjVC1k26RrluAA==", "signing_algo": "Ed25519", "generation_timestamp": 1783497179, "identifier": "49ea86d1-e3e7-4dab-8a3b-986a6f8035ad"}</recraft-signature></metadata></svg>