<svg xmlns="http://www.w3.org/2000/svg" height="1024" preserveAspectRatio="none" style="display: block;" version="1.1" viewBox="0 0 2048 2048" width="1024">
<path d="M 0 0 L 2048 0 L 2048 2048 L 0 2048 L 0 0 z" fill="rgb(243,93,50)" transform="translate(0,0)"></path>
<path d="M 1034.94 476.44 C 1037.02 476.335 1039.09 476.25 1041.17 476.184 C 1080.48 474.961 1154.17 479.484 1187.15 502.472 C 1195.09 508.003 1189.88 571.584 1189.54 584.651 C 1188.91 622.266 1188.09 659.877 1187.06 697.482 C 1185.85 732.058 1183.3 769.185 1183.87 803.636 C 1231.19 817.398 1323.25 834.3 1343.37 888.496 C 1347.25 898.962 1346.83 947.604 1344.77 960.119 C 1343.74 966.713 1341.51 973.062 1338.19 978.849 C 1327.94 996.506 1307.92 1008.63 1288.57 1013.81 C 1298.46 1023.95 1310.24 1041.07 1317.95 1053.25 C 1357.68 1116.02 1368.42 1170.32 1369.6 1242.99 L 1462.09 1340.56 C 1473.1 1351.98 1484.71 1365.18 1496.05 1375.88 C 1536.39 1363.89 1552.8 1372.39 1579.99 1402.32 L 1600.53 1406.81 C 1649.39 1417.71 1724.56 1445.45 1754.19 1488.89 C 1766.39 1506.77 1765.47 1527.9 1760.87 1548.2 C 1784.2 1582.72 1799.02 1627.69 1759.9 1657.58 C 1759.57 1660.25 1759.11 1662.9 1758.53 1665.52 C 1747.44 1715.07 1696.68 1714.66 1657.31 1705.78 C 1637.4 1739.36 1601.95 1753.39 1567.86 1731.49 C 1512.8 1696.1 1459.27 1623.62 1442.56 1560.54 C 1399.39 1550.64 1380.39 1506.66 1404.57 1469.09 C 1378.99 1444.1 1356.42 1415.66 1329.21 1391.32 C 1307.76 1434.24 1267.24 1481.69 1226.97 1507.58 C 1235.02 1535.63 1240.7 1574.89 1247.5 1604.72 C 1281.24 1614.23 1290.43 1628.99 1298.73 1661.56 C 1374.51 1675.77 1449.16 1708.25 1503.61 1764.42 C 1520.5 1781.85 1532 1799.39 1540.53 1822.25 C 1543.37 1828.02 1545.74 1843.56 1548.65 1848.26 C 1571.57 1885.3 1573.91 1921.32 1539.42 1953.58 C 1503.91 1986.07 1445.88 1996.45 1399.09 1993.8 C 1298.7 1988.12 1198.69 1945.46 1110.06 1900.2 C 1083.35 1886.56 1038.75 1868.07 1041.67 1832.83 C 1043.32 1813.02 1054.95 1795.23 1069.42 1782.21 C 1058.35 1719.17 1064.36 1679.02 1111.08 1633.45 C 1107.1 1609.65 1102.68 1585.93 1097.84 1562.29 C 1061.79 1571.72 1026.98 1571.6 990.508 1566.67 C 972.972 1564.31 960.428 1561.29 943.493 1556.91 C 939.872 1576.43 931.718 1611.7 926.252 1630.31 C 974.42 1667.6 974.053 1728.02 965.134 1783.09 C 974.773 1791.56 983.098 1805.34 986.214 1817.78 C 996.736 1859.8 951.331 1876.27 922.5 1891.69 C 861.552 1924.31 796.695 1950.96 729.382 1966.76 C 673.352 1979.82 616.71 1989.6 559.583 1976.35 C 530.31 1970.36 500.719 1957.7 481.367 1934.86 C 452.289 1900.56 460.82 1860.38 486.581 1827.63 C 487.058 1827.03 490.076 1814.77 490.64 1812.75 C 493.622 1801.74 498.28 1791.25 504.453 1781.65 C 551.242 1710.49 657.942 1668.97 738.538 1652.16 C 745.672 1623.19 766.103 1604.22 794.363 1596.07 C 802.264 1560.38 808.949 1522.92 817.779 1487.68 C 807.691 1480.69 800.713 1472.44 792.326 1464.01 C 765.231 1436.78 748.652 1411.11 730.031 1378.05 C 724.731 1382.73 718.986 1388.43 714.089 1393.52 C 687.175 1421.53 658.849 1448.5 631.928 1476.43 C 638.344 1496.94 642.141 1511.99 631.766 1532.92 C 622.334 1551.94 608.476 1558.25 589.832 1564.4 C 569.478 1615.51 539.651 1654.54 498.109 1690.93 C 473.498 1712.5 442.232 1737.38 406.123 1727.46 C 390.04 1723.04 379.064 1709.75 371.367 1695.51 C 368.424 1696.11 365.468 1696.63 362.501 1697.09 C 321.331 1703.25 270.513 1699.32 259.703 1649.23 C 259.065 1646.27 259.541 1643.79 258.911 1640.98 C 247.581 1631.52 240.243 1618.13 238.366 1603.49 C 234.716 1574.39 249.41 1557.87 265.618 1537.38 C 255.285 1511.72 261.854 1487.52 281.082 1468.76 C 323.341 1427.51 397.404 1400.36 455.9 1399.79 C 478.024 1364.64 513.417 1366.31 546.457 1383.44 C 561.012 1366.8 577.036 1351.72 592.393 1335.86 C 621.788 1305.47 650.929 1274.89 681.224 1245.38 C 687.416 1239.35 695.482 1231.25 700.614 1224.42 C 700.597 1223.6 700.586 1222.79 700.583 1221.97 C 700.448 1133.61 732.299 1060.39 794.652 998.092 C 746.742 979.862 730.043 954.761 738.756 903.683 C 740.873 891.269 739.497 876.587 742.698 863.675 C 744.056 858.04 746.672 852.786 750.349 848.306 C 776.623 816.714 869.447 796.271 910.275 791.873 L 916.992 600.77 C 917.546 586.569 917.988 505.244 925.114 499.412 C 947.92 480.744 1004.69 477.796 1034.94 476.44 z" fill="rgb(247,247,247)" transform="translate(0,0)"></path>
<path d="M 1016.92 503.42 C 1060.52 499.359 1123.16 505.216 1165.03 519.131 C 1162.24 621.029 1157.32 724.215 1155.14 825.755 C 1199.99 834.451 1234.95 842.638 1277.55 861.885 C 1330.33 885.73 1316.4 907.322 1316.81 957.112 C 1317.02 982.844 1259.75 995.92 1239.91 1001.06 C 1311.54 1072.12 1347.99 1153.17 1341.96 1255.51 C 1356.67 1268.51 1366.72 1280.43 1380.19 1294.73 L 1445.86 1364.39 C 1459.41 1378.82 1475.73 1397.11 1490.09 1410.07 C 1498.6 1404.99 1506.55 1400.44 1516.41 1398.61 C 1538.53 1394.5 1556.34 1408.64 1560.38 1430.08 C 1597.98 1432.94 1639.19 1445.01 1673.02 1461.45 C 1695.43 1473.4 1727.01 1488.86 1735.37 1515.07 C 1740.89 1532.38 1737.01 1543.37 1719.75 1548.72 C 1748.3 1571.62 1782.82 1621.03 1731.69 1641.62 C 1733.68 1648.8 1733.3 1656.44 1730.61 1663.39 C 1716.98 1697.67 1661.39 1680.03 1637.21 1670.74 C 1638.25 1693.96 1622.08 1718.36 1600.23 1714.03 C 1550.66 1704.2 1501.37 1629.95 1480.38 1587.75 C 1470.78 1568.43 1468.22 1551.94 1469.12 1533.69 C 1449.92 1536.73 1428.55 1535.11 1422.32 1512.49 C 1417.56 1495.19 1426.89 1479.3 1435.6 1465.01 C 1426.44 1453.43 1407.19 1434.16 1396.64 1422.62 C 1372.25 1395.45 1347.71 1368.41 1323.03 1341.5 C 1320.19 1350.18 1314.85 1360.64 1310.83 1369.06 C 1283.6 1426.17 1249.21 1460.59 1198.62 1496.6 C 1202.31 1510.48 1205.92 1531.71 1208.71 1546.19 C 1213.72 1572.68 1219.02 1599.12 1224.61 1625.5 C 1231.53 1626.25 1238.32 1627.9 1244.82 1630.41 C 1271.09 1640.83 1274.39 1659.16 1264.16 1682.99 C 1339.61 1691.9 1412.4 1717.45 1470.08 1768.28 C 1499.6 1794.31 1517.48 1819.55 1520.07 1858.97 C 1547.91 1884.43 1545.54 1916.31 1515.35 1938.58 C 1473.23 1969.67 1418.85 1970.82 1368.99 1964.16 C 1279.49 1952.17 1193.7 1913.26 1113.77 1872.98 C 1097.99 1865.02 1063.75 1850.03 1068.45 1829.36 C 1072.13 1813.21 1083.11 1804.01 1095.84 1795.32 C 1092.5 1770.13 1088.57 1728.88 1094.29 1704.37 C 1100.43 1678.03 1118.21 1659.98 1140.85 1646.48 C 1136.56 1620.29 1129.9 1594.12 1125.63 1567.86 C 1123.7 1556 1121.47 1543.67 1118.83 1531.98 C 1077.86 1540.81 1045.41 1546.31 1002.75 1541.46 C 977.519 1539.04 949.155 1531.47 925.034 1523.94 C 915.049 1559.95 906.744 1604.08 897.5 1641.61 C 928.746 1664.26 943.627 1688.05 943.593 1727.69 C 943.572 1751.63 940.959 1772.68 936.868 1796.22 C 954.296 1809.24 965.041 1817.29 958.255 1840.28 C 950.083 1847.37 915.797 1865.44 905.09 1871.04 C 815.478 1917.39 716.049 1954.7 613.758 1954.53 C 571.029 1954.46 489.3 1943.02 489.081 1883.92 C 489.029 1869.88 499.082 1856.01 509.521 1846.93 C 510.539 1820.28 523.329 1795.88 541.906 1777.24 C 599.089 1719.85 690.371 1680.37 770.85 1678.07 C 755.554 1654.5 772.972 1630.08 797.001 1623.15 C 803.609 1621.25 809.515 1621.04 816.335 1620.58 C 820.942 1601.07 824.866 1578.31 829.132 1558.23 C 834.143 1534.64 842.714 1501.39 845.685 1477.87 C 797.297 1439.01 759.363 1389.71 739.924 1330.31 C 723.302 1344.97 701.689 1368.27 685.699 1384.47 C 656.416 1413.82 627.291 1443.34 598.326 1473 C 618.474 1506.52 619.414 1535.98 571.925 1538 C 561.233 1564.98 551.311 1590.91 533.231 1614.16 C 514.364 1638.67 493.868 1660.41 469.899 1680.16 C 453.698 1693.51 425.549 1713.2 404.621 1696.94 C 393.222 1688.08 391.403 1672.18 390.174 1658.67 C 362.058 1669.25 306.968 1689.33 287.127 1650.12 C 283.154 1642.26 285.548 1634.12 288.465 1626.29 C 235.949 1596.22 276.906 1563.83 306.604 1539.47 C 268.892 1521.07 289.533 1491.76 314.36 1474.53 C 357.266 1444.76 423.67 1420.68 476.07 1428.76 C 476.933 1422.23 477.276 1414.95 481.401 1409.72 C 499.584 1386.68 531.395 1404.4 548.671 1416.89 C 580.688 1385.8 611.388 1353.66 643.021 1322.33 C 661.877 1303.9 680.388 1285.12 698.543 1266 C 706.222 1257.98 719.321 1245.1 725.071 1236.24 C 725.922 1219.84 726.531 1202.9 728.889 1186.64 C 738.632 1119.49 768.808 1057.26 818.403 1010.51 C 826.387 1002.99 834.557 995.693 842.587 988.211 C 822.085 978.766 790.684 972.589 774.05 955.724 C 758.203 939.657 768.184 890.031 767.552 866.566 C 802.645 835.678 889.418 820.792 935.137 815.87 C 936.632 800.849 936.957 779.357 937.509 763.937 L 940.386 690.391 C 942.428 633.286 945.712 573.659 946.766 516.923 C 972.159 509.569 990.491 505.788 1016.92 503.42 z" fill="rgb(1,1,1)" transform="translate(0,0)"></path>
<path d="M 1043.18 934.103 C 1207.99 939.288 1337.48 1076.93 1332.61 1241.74 C 1327.74 1406.56 1190.35 1536.31 1025.53 1531.76 C 860.256 1527.2 730.067 1389.36 734.949 1224.09 C 739.83 1058.83 877.927 928.902 1043.18 934.103 z" fill="rgb(245,177,45)" transform="translate(0,0)"></path>
<path d="M 1013.39 1008.57 C 1136.87 997.331 1246.1 1088.28 1257.42 1211.76 C 1268.74 1335.23 1177.86 1444.53 1054.39 1455.93 C 930.808 1467.34 821.389 1376.36 810.059 1252.76 C 798.73 1129.17 889.784 1019.81 1013.39 1008.57 z" fill="rgb(1,1,1)" transform="translate(0,0)"></path>
<path d="M 1014.68 1019.35 C 1132.51 1008.78 1236.5 1095.95 1246.66 1213.81 C 1256.82 1331.67 1169.29 1435.35 1051.4 1445.11 C 934.085 1454.82 831.015 1367.81 820.9 1250.53 C 810.786 1133.24 897.437 1029.87 1014.68 1019.35 z" fill="rgb(245,177,45)" transform="translate(0,0)"></path>
<path d="M 956.47 1089.32 C 999.648 1088.82 1021.37 1142.33 1025.53 1178.49 C 1030.58 1222.36 1011.02 1302.82 957.215 1307.63 C 858.666 1302.69 868.009 1101.88 956.47 1089.32 z" fill="rgb(1,1,1)" transform="translate(0,0)"></path>
<path d="M 954.846 1101.17 C 992.451 1097.77 1014.82 1157.36 1014.86 1187.5 C 1014.92 1224.59 1007.39 1268.03 973.622 1290.02 C 964.956 1295.66 957.796 1295.82 948.155 1296.23 C 967.327 1285.01 973.408 1279.06 979.83 1257.34 C 983.835 1239.27 981.667 1220.39 973.673 1203.7 C 957.367 1169.91 924.146 1164.27 906.5 1201.03 C 903.224 1207.85 901.444 1214.81 899.342 1222.05 C 894.56 1189.96 901.18 1157.21 918.051 1129.5 C 927.239 1114.7 937.488 1105.28 954.846 1101.17 z" fill="rgb(247,247,247)" transform="translate(0,0)"></path>
<path d="M 1123.65 1092.42 C 1132.1 1092.32 1144.05 1095.84 1150.54 1101.07 C 1200.04 1141.01 1204.78 1225.26 1168.76 1275.38 C 1156.43 1292.55 1142.54 1303.36 1121.89 1306.73 C 1077.74 1308.87 1055.07 1263.55 1052.05 1225.53 C 1049.11 1188.72 1057.27 1144.19 1080.77 1114.53 C 1092.31 1099.96 1105.49 1094.1 1123.65 1092.42 z" fill="rgb(1,1,1)" transform="translate(0,0)"></path>
<path d="M 1121.86 1103.32 C 1134.21 1103.89 1144.85 1110.06 1153.25 1119.19 C 1191.82 1161.08 1190.43 1240.26 1149.52 1280.2 C 1137.78 1291.67 1125.3 1296.18 1109.04 1295.66 C 1125.63 1287.25 1131.48 1279.23 1138.39 1262.81 C 1157.65 1188.19 1079.27 1132.56 1063.09 1224.11 C 1062.16 1189.23 1065.31 1156.94 1085.99 1127.13 C 1094.67 1114.63 1106.51 1105.74 1121.86 1103.32 z" fill="rgb(247,247,247)" transform="translate(0,0)"></path>
<path d="M 962.453 1331.64 C 963.178 1331.76 968.412 1332.89 968.5 1332.97 C 973.624 1337.38 977.7 1348.23 982.283 1353.74 C 994.963 1368.97 1014.44 1379.47 1034.01 1382.03 C 1060.43 1385.49 1083.92 1377.93 1098.98 1354.93 C 1101.61 1350.91 1104.47 1343.29 1108.3 1340.84 C 1110.37 1339.52 1111.63 1340.3 1113.5 1340.92 C 1119.78 1347.13 1118.38 1350.24 1115.21 1357.97 C 1089.01 1410.22 1015.42 1408.45 977.093 1371.56 C 967.937 1362.74 950.176 1343.75 962.453 1331.64 z" fill="rgb(1,1,1)" transform="translate(0,0)"></path>
<path d="M 969.701 1053.34 C 972.927 1052.59 976.098 1052.48 979.09 1053.91 C 981.039 1056.45 980.732 1056.58 981.029 1059.87 C 980.413 1061.48 979.851 1063.83 977.814 1064.11 C 956.539 1066.97 943.243 1070.53 925.867 1083.99 C 921.786 1085.89 917.258 1086.82 915.399 1081.91 C 916.824 1064.63 955.774 1055.36 969.701 1053.34 z" fill="rgb(1,1,1)" transform="translate(0,0)"></path>
<path d="M 1105.08 1056 C 1117.69 1057.17 1153.36 1070.02 1155.68 1083.95 C 1154.98 1087.86 1154.32 1088.2 1151.65 1091.05 C 1144.57 1087.68 1137.77 1081.2 1131.33 1077.91 C 1123.73 1074.04 1112.25 1071.6 1104.48 1067.52 C 1101.53 1065.96 1101.74 1065.14 1101.08 1062.52 C 1102.18 1058.67 1102.19 1058.89 1105.08 1056 z" fill="rgb(1,1,1)" transform="translate(0,0)"></path>
<path d="M 1028.27 514.473 C 1072.95 512.808 1109.84 515.888 1153.05 526.792 C 1148.18 624.656 1148.52 724.443 1143.58 822.563 C 1122.01 819.597 1101.01 816.593 1079.25 815.112 C 1028.81 811.592 995.805 812.742 946.928 815.149 C 947.337 781.815 950.334 742.792 951.721 708.996 L 957.955 524.697 C 981.821 518.245 1003.76 515.985 1028.27 514.473 z" fill="rgb(48,162,123)" transform="translate(0,0)"></path>
<path d="M 447.592 1438.41 C 458.678 1437.44 464.213 1437.87 475.252 1439.25 C 476.231 1443.61 477.554 1447.89 479.21 1452.05 C 493.41 1487.59 523.353 1521.25 558.843 1536.53 C 554.215 1554.95 541.798 1581.93 530.435 1598.68 C 515.577 1620.58 418.113 1739.81 402.405 1670.98 C 397.278 1648.51 426.044 1635.59 440.239 1618.46 C 429.24 1622.58 419.981 1629.15 409.991 1635.16 C 381.854 1652.07 330.834 1676.89 300.777 1652.49 C 298.584 1649.46 296.685 1645.46 294.934 1642.1 C 297.508 1634.05 299.58 1629.49 305.989 1623.83 C 327.142 1605.17 351.576 1590.89 372.192 1571.44 L 371.3 1571.78 C 350.086 1580.06 316.296 1602.26 297.374 1616.05 C 291.041 1614.81 283.549 1612.02 278.802 1607.43 C 275.709 1604.45 274.312 1600.32 274.473 1596.09 C 275.61 1566.24 344.316 1527.2 364.991 1507.63 L 366.142 1506.53 C 347.431 1512.47 335.981 1520.72 319.113 1530.33 C 314.441 1529.05 306.919 1527.62 303.448 1524.71 C 278.736 1504.02 336.024 1473.61 347.683 1467.48 C 378.236 1451.4 413.705 1440.91 447.592 1438.41 z" fill="rgb(247,247,247)" transform="translate(0,0)"></path>
<path d="M 1560.84 1441.5 C 1604.24 1443.41 1655.64 1462.83 1693.2 1484.69 C 1706.11 1493.14 1722.66 1505.12 1725.48 1521.33 C 1728.34 1537.73 1721.69 1537.33 1708.78 1538.7 C 1698 1534.57 1669.42 1519.7 1659.89 1520.59 L 1659.02 1522.08 L 1659.98 1523.58 C 1662.3 1524.38 1664.58 1525.29 1666.83 1526.28 C 1693.09 1538.1 1732.98 1567.67 1743.85 1595.71 C 1750.71 1613.42 1745.72 1625.31 1727.72 1631.23 C 1708.3 1607.28 1684.57 1590.07 1654.31 1582.36 C 1659.58 1586.84 1669.28 1592.69 1675.41 1596.64 C 1695.96 1609.88 1713.08 1624.04 1722.04 1647.4 C 1722.67 1656.95 1720.42 1665.87 1710.54 1669.47 C 1681.65 1680.02 1645.98 1664.44 1621.33 1649.79 C 1608.26 1642.02 1597.49 1632.01 1583.51 1626.18 C 1597.9 1643.86 1627.38 1656.45 1625.48 1682.18 C 1624.45 1696.08 1608.86 1706.87 1595.73 1702.58 C 1562.38 1691.69 1529.88 1647.11 1510.25 1619.37 C 1490.86 1591.97 1475.24 1559.64 1481.77 1527.04 C 1506.17 1509.19 1549.12 1470.27 1560.84 1441.5 z" fill="rgb(247,247,247)" transform="translate(0,0)"></path>
<path d="M 1348.47 1712.68 C 1348.75 1712.69 1349.02 1712.7 1349.3 1712.71 C 1406.73 1734.52 1469.17 1766.22 1499.44 1822.33 C 1525.27 1870.22 1490.62 1908.46 1443.48 1915.68 C 1412.12 1920.49 1389.55 1918.64 1358.66 1913.5 C 1299.95 1903.54 1246.29 1881.25 1192.3 1857.21 C 1247.14 1810.73 1294.6 1759.33 1348.47 1712.68 z" fill="rgb(57,139,225)" transform="translate(0,0)"></path>
<path d="M 682.957 1707.14 C 687.819 1710.12 716.311 1737.96 722.36 1743.77 L 831.908 1850.09 C 795.707 1871.38 711.15 1893.76 668.843 1900.89 C 634.978 1907.23 584.514 1908.74 553.105 1893.45 C 523.694 1879.13 513.946 1839.97 530.385 1812.2 C 559.718 1762.66 628.948 1723.64 682.957 1707.14 z" fill="rgb(57,139,225)" transform="translate(0,0)"></path>
<path d="M 811.837 1632.38 C 826.779 1630.87 840.366 1633.28 854.118 1636.44 C 914.008 1650.19 940.634 1694.23 931.138 1753.87 C 928.566 1770.02 927.669 1786.19 923.272 1802.69 C 910.547 1814.15 861.678 1838.51 844.093 1846.03 C 836.844 1838.67 829.488 1831.42 822.027 1824.27 L 743.957 1747.8 C 730.063 1734.17 709.346 1715.27 697.542 1700.9 C 721.26 1694.48 745.144 1689.19 769.779 1690.15 C 776.147 1690.4 788.577 1693.92 793.864 1691.48 C 795.872 1683.95 775.579 1672.31 776.072 1661.06 C 776.997 1639.96 794.917 1634.2 811.837 1632.38 z" fill="rgb(57,139,225)" transform="translate(0,0)"></path>
<path d="M 1205.37 1638.4 C 1216.85 1637.3 1236.95 1637.75 1246.85 1644 C 1255.68 1649.57 1257.17 1653.91 1259.67 1663.05 C 1254.45 1677.16 1251.89 1677.82 1240.04 1687.08 C 1239.22 1690.33 1239.07 1688.78 1240.65 1691.87 C 1246.81 1696.41 1251.61 1695.04 1259.37 1694.89 C 1286.8 1694.38 1310.28 1701.06 1336.31 1708.22 C 1297.1 1741.93 1257.85 1781.53 1219.93 1817.35 C 1206.7 1829.54 1194.72 1840.44 1180.8 1851.93 C 1156.41 1840.26 1135 1829.5 1111.47 1816.39 C 1108.45 1802.01 1106.17 1787.49 1104.65 1772.88 C 1101.49 1741.54 1098.41 1702.28 1120.09 1677.43 C 1142.63 1651.59 1172.35 1641.28 1205.37 1638.4 z" fill="rgb(57,139,225)" transform="translate(0,0)"></path>
<path d="M 992.216 883.452 C 1078.74 881.001 1185.22 895.153 1266.39 928.274 C 1273.34 931.329 1304.24 945.823 1304.71 954.336 C 1305.95 976.918 1242.71 988.32 1229.54 991.019 C 1186.11 957.279 1149.85 941.027 1096.23 928.822 C 1094 928.351 1091.77 927.905 1089.53 927.484 C 1006.39 911.895 924.223 932.262 854.922 979.432 C 833 972.468 786.601 962.684 776.436 939.57 C 776.139 919.317 843.089 902.308 859.72 898.345 C 903.486 887.917 947.413 884.859 992.216 883.452 z" fill="rgb(57,139,225)" transform="translate(0,0)"></path>
<path d="M 987.873 824.575 C 993.394 824.184 998.924 823.921 1004.46 823.787 C 1078.64 822.42 1175.45 835.905 1245.22 861.115 C 1263.55 867.737 1282.61 875.417 1297.28 888.841 C 1308.82 899.39 1305.35 919.186 1305.04 935.505 C 1251.97 902.909 1168.55 884.254 1106.78 878.012 C 1093.54 875.709 1068.21 874.056 1054.51 873.303 C 970.265 868.672 850.928 874.563 776.605 917.616 C 776.899 902.78 778.329 886.528 779.136 871.519 C 786.48 865.8 800.894 859.325 809.564 855.874 C 866.669 833.146 927.159 827.392 987.873 824.575 z" fill="rgb(57,139,225)" transform="translate(0,0)"></path>
<path d="M 933.639 1808.86 C 940.3 1812.35 950.712 1820.54 950.543 1828.82 C 946.145 1839.88 899.583 1862.1 887.151 1867.97 C 790.195 1913.72 675.317 1957.67 566.415 1938.55 C 542.449 1934.35 518.521 1923.7 504.874 1903.03 C 496.261 1886.19 501.122 1874.28 511.604 1860.19 C 516.273 1871.65 522.547 1885.94 531.972 1894.11 C 555.388 1914.42 600.475 1919.64 630.043 1917.49 C 718.422 1911.07 809.008 1878.05 887.372 1837.71 C 901.716 1830.33 923.347 1820.25 933.639 1808.86 z" fill="rgb(247,247,247)" transform="translate(0,0)"></path>
<path d="M 1097.56 1808.81 L 1099.38 1809.73 C 1100.82 1816.18 1102.75 1823.03 1108.31 1827.18 C 1116.56 1833.33 1135.29 1842.29 1144.69 1847 C 1223.7 1886.6 1317.15 1926.7 1406.42 1929.98 C 1440.85 1931.25 1482.83 1922.93 1505.54 1895.56 C 1510.18 1889.97 1514.83 1877.55 1517.74 1874.68 C 1530.12 1884.44 1530.57 1900.99 1523.7 1914.12 C 1472.15 1980.82 1344.17 1953.93 1275.25 1930.68 C 1216.85 1910.98 1157.82 1884.84 1103.73 1854.88 C 1094.24 1849.63 1076.29 1842.24 1079.61 1828.93 C 1082.07 1819.12 1089.66 1814.11 1097.56 1808.81 z" fill="rgb(247,247,247)" transform="translate(0,0)"></path>
<path d="M 724.489 1253.67 C 725.505 1256.05 726.033 1264.37 726.206 1267.34 C 727.264 1285.52 730.71 1301.81 735.964 1319.2 C 723.721 1328.87 694.623 1359.35 682.899 1371.32 L 592.745 1462.95 C 589.159 1457.79 586.369 1454.38 582.359 1449.59 C 574.39 1440.06 566.605 1431.98 557.893 1423.18 C 584.252 1398.54 608.227 1372.5 633.605 1347.17 C 664.854 1315.98 694.305 1285.81 724.489 1253.67 z" fill="rgb(48,162,123)" transform="translate(0,0)"></path>
<path d="M 1341.11 1270.49 C 1349.22 1276.11 1368.01 1298.41 1376.06 1307.07 L 1436.65 1370.98 C 1449.69 1384.71 1467.96 1404.78 1482.03 1416.57 C 1471.97 1425.26 1463.5 1434.02 1454.14 1443.46 C 1450.4 1447.49 1446.39 1452.33 1442.76 1456.55 C 1415.57 1424.92 1385.34 1395.35 1357.75 1364.03 C 1348.26 1353.26 1338 1340.76 1327.19 1331.38 C 1334.74 1308.4 1336.8 1294.05 1341.11 1270.49 z" fill="rgb(48,162,123)" transform="translate(0,0)"></path>
<path d="M 856.309 1487.6 C 871.87 1499.54 896.899 1512.88 914.697 1520.93 C 911.744 1535.01 907.044 1550.15 903.744 1564.46 C 898.302 1588.04 893.314 1612.3 887.292 1635.7 C 864.439 1625.97 852.959 1622.71 828.478 1620.23 C 836.35 1578.97 845.843 1527.7 856.309 1487.6 z" fill="rgb(48,162,123)" transform="translate(0,0)"></path>
<path d="M 499.108 1410.06 C 534.692 1408.39 574.235 1453.96 590.933 1481.39 C 600.418 1496.97 607.499 1515.22 587.409 1525.47 C 549.062 1533.98 512.839 1492.6 496.589 1462.37 C 488.234 1446.83 477.982 1419.76 499.108 1410.06 z" fill="rgb(247,247,247)" transform="translate(0,0)"></path>
<path d="M 1518.99 1409.12 C 1551.34 1406.51 1558.3 1437.48 1537.65 1459.01 C 1515.51 1482.1 1493.81 1510.47 1463.76 1523.55 C 1386.55 1535.02 1467.41 1423.54 1518.99 1409.12 z" fill="rgb(247,247,247)" transform="translate(0,0)"></path>
<path d="M 1186.61 1502.89 C 1187.6 1502.89 1186.88 1502.84 1188.64 1503.59 C 1197.14 1544.03 1205.14 1584.57 1212.63 1625.21 C 1190.05 1626.68 1174.33 1628.86 1153.43 1637.98 L 1151.26 1638.45 C 1149.86 1636.93 1131.24 1539.64 1129.03 1528.63 C 1154.57 1521.28 1163.33 1515.76 1186.61 1502.89 z" fill="rgb(48,162,123)" transform="translate(0,0)"></path>
<path d="M 391.923 82.2722 C 565.787 82.7129 706.388 223.99 705.995 397.854 C 705.601 571.718 564.362 712.357 390.498 712.011 C 216.567 711.664 75.8624 570.36 76.2561 396.429 C 76.6497 222.498 217.993 81.8313 391.923 82.2722 z" fill="rgb(247,247,247)" transform="translate(0,0)"></path>
<path d="M 386.393 109.923 C 544.922 107.324 675.52 233.773 678.039 392.303 C 680.558 550.833 554.042 681.367 395.51 683.805 C 237.093 686.241 106.674 559.836 104.157 401.42 C 101.64 243.004 227.978 112.521 386.393 109.923 z" fill="rgb(1,1,1)" transform="translate(0,0)"></path>
<path d="M 389.701 121.137 C 542.575 120.408 666.953 244.017 667.174 396.893 C 667.395 549.768 543.375 673.736 390.499 673.45 C 238.339 673.165 115.078 549.851 114.858 397.691 C 114.638 245.531 237.542 121.861 389.701 121.137 z" fill="rgb(247,247,247)" transform="translate(0,0)"></path>
<path d="M 240.036 270.313 C 356.153 259.343 435.267 498.548 315.755 527.647 C 315.071 527.782 314.386 527.906 313.698 528.017 C 246.148 538.78 187.059 449.661 180.993 391.918 C 177.354 357.28 176.729 324.634 198.814 295.011 C 210.253 279.668 221.78 273.162 240.036 270.313 z" fill="rgb(1,1,1)" transform="translate(0,0)"></path>
<path d="M 242.244 281.225 C 299.235 276.235 339.734 340.934 354.806 387.873 C 281.235 293.926 226.168 406.778 283.71 483.987 L 284.864 485.39 C 297.594 500.597 310.573 509.798 330.587 511.712 C 304.12 522.153 281.694 517.657 258.119 501.783 C 201.566 463.708 167.912 364.942 206.291 304.436 C 214.655 291.249 227.116 284.034 242.244 281.225 z" fill="rgb(247,247,247)" transform="translate(0,0)"></path>
<path d="M 432.65 188.398 C 518.16 187.624 591.964 328.743 551.695 402.379 C 539.026 425.546 524.864 433.504 499.287 436.799 C 473.252 437.236 450.089 426.15 430.247 409.837 C 395.052 380.364 372.783 338.291 368.202 292.614 C 363.831 247.881 380.418 192.669 432.65 188.398 z" fill="rgb(1,1,1)" transform="translate(0,0)"></path>
<path d="M 428.601 200.352 C 483.773 198.882 522.76 251.527 541.151 297.971 C 525.477 277.977 497.172 252.676 469.786 271.866 C 445.933 288.58 446.452 326.874 451.885 352.181 C 455.565 369.322 463.468 383.357 474.208 397.551 C 487.276 412.934 498.332 417.925 517.703 421.575 C 493.784 430.565 468.859 423.254 448.436 409.371 C 392.867 371.6 356.51 281.994 395.858 221.217 C 403.701 209.102 414.736 202.92 428.601 200.352 z" fill="rgb(247,247,247)" transform="translate(0,0)"></path>
<path d="M 542.319 476.949 C 556.25 476.556 558.571 486.035 554.256 497.57 C 542.25 529.66 517.451 559.253 486.953 575.27 C 454.882 592.426 417.203 595.761 382.618 584.506 C 375.52 581.505 366.234 576.637 369.624 567.329 C 376.406 561.314 382.357 563.955 390.116 566.636 C 408.087 572.843 422.387 573.908 441.417 570.672 C 479.605 563.845 512.433 539.616 530.211 505.136 C 534.317 497.23 537.43 483.136 542.319 476.949 z" fill="rgb(1,1,1)" transform="translate(0,0)"></path>
<path d="M 411.586 155.383 C 419.397 154.609 430.663 154.684 437.411 159.026 C 449.292 176.392 413.808 169.296 406.835 170.26 C 398.593 171.4 395.159 172.871 387.81 176.283 C 381.378 180.128 370.815 187.994 364.335 180.569 C 362.381 163.224 399.421 156.829 411.586 155.383 z" fill="rgb(1,1,1)" transform="translate(0,0)"></path>
<path d="M 239.258 227.136 C 242.121 227.2 247.065 228.212 248.419 230.989 C 246.621 243.648 215.924 247.653 209.13 259.54 C 207.071 263.143 202.466 267.973 198.398 269.804 C 179.504 268.315 193.006 252.718 200.693 246.437 C 212.395 236.876 224.816 231.178 239.258 227.136 z" fill="rgb(1,1,1)" transform="translate(0,0)"></path>
<path d="M 1624.23 68.8907 C 1796.28 49.8792 1951.1 174.135 1969.77 346.226 C 1988.44 518.317 1863.88 672.884 1691.75 691.215 C 1520.1 709.494 1366.06 585.356 1347.44 413.746 C 1328.82 242.136 1452.66 87.849 1624.23 68.8907 z" fill="rgb(247,247,247)" transform="translate(0,0)"></path>
<path d="M 1631.93 94.6337 C 1788.77 79.9038 1927.93 194.908 1943.02 351.712 C 1958.1 508.517 1843.42 647.943 1686.65 663.383 C 1529.37 678.873 1389.4 563.737 1374.27 406.429 C 1359.13 249.121 1474.59 109.411 1631.93 94.6337 z" fill="rgb(1,1,1)" transform="translate(0,0)"></path>
<path d="M 1627.46 106.209 C 1778.02 89.0366 1914.05 197.029 1931.47 347.561 C 1948.89 498.093 1841.12 634.299 1690.61 651.967 C 1539.76 669.677 1403.17 561.602 1385.71 410.719 C 1368.25 259.836 1476.55 123.421 1627.46 106.209 z" fill="rgb(247,247,247)" transform="translate(0,0)"></path>
<path d="M 1791.49 257.205 C 1914 249.609 1888.18 487.698 1756.24 512.776 C 1741.31 514.091 1723.77 513.209 1711.4 504.248 C 1654.25 462.818 1677.44 367.593 1709.92 318.417 C 1730.68 286.999 1755.76 264.794 1791.49 257.205 z" fill="rgb(1,1,1)" transform="translate(0,0)"></path>
<path d="M 1791.24 269.127 C 1819.59 266.928 1840.55 280.515 1851.56 306.577 C 1866 341.842 1860.7 378.269 1848.11 412.646 C 1831.58 457.758 1778.92 519.476 1724.43 497.306 C 1744.19 493.687 1752.15 486.401 1765.12 472.256 C 1787.13 443.795 1796 408.758 1785.05 374.191 C 1773.03 336.273 1737.8 328.547 1712.03 358.379 C 1703.23 368.571 1699.71 375.728 1694.04 387.938 C 1703.14 338.344 1739.56 281.59 1791.24 269.127 z" fill="rgb(247,247,247)" transform="translate(0,0)"></path>
<path d="M 1609.87 174.383 C 1654.15 170.845 1675.65 207.865 1681.2 247.118 C 1691.21 317.942 1635.12 414.836 1559.73 423.631 C 1517.34 427.605 1494.68 396.403 1489.41 357.81 C 1479.83 287.608 1534.16 183.811 1609.87 174.383 z" fill="rgb(1,1,1)" transform="translate(0,0)"></path>
<path d="M 1609.74 186.375 C 1664.11 182.13 1676.92 247.486 1668.83 288.499 C 1658.85 339.149 1624.58 393.78 1572.83 409.669 C 1561.93 413.015 1551.33 411.884 1540.45 410.092 L 1541.41 409.804 L 1543.01 409.305 C 1558.42 404.647 1566.43 397.126 1576.21 384.957 C 1578.08 382.514 1579.86 380.001 1581.55 377.422 C 1598.52 351.599 1604.33 325.991 1598.13 295.816 C 1589.35 253.119 1553.52 237.306 1522.46 271.914 C 1517.03 277.971 1514.17 281.903 1509.79 288.896 C 1524.44 245.638 1560.1 191.485 1609.74 186.375 z" fill="rgb(247,247,247)" transform="translate(0,0)"></path>
<path d="M 1501.97 460.82 C 1514.61 459.925 1514.46 470.377 1518.37 480.766 C 1538.59 534.562 1598.86 565.916 1654.73 553.348 C 1662.21 551.663 1681.62 543.149 1687.06 549.141 C 1691.95 554.527 1689.33 560.663 1683.92 564.912 C 1663.52 571.614 1642.98 575.167 1621.46 573.703 C 1584.2 571.368 1549.4 554.304 1524.74 526.277 C 1514.07 513.933 1495.4 487.291 1495.92 468.986 C 1496.03 465.061 1499.04 462.978 1501.97 460.82 z" fill="rgb(1,1,1)" transform="translate(0,0)"></path>
<path d="M 1630.61 139.304 C 1646.84 137.264 1685.43 142.879 1686.17 163.908 C 1681.94 173.369 1672.08 165.414 1666.54 161.618 C 1637.12 143.16 1630.14 159.841 1608.94 157.694 C 1607.63 156.67 1606.87 156.628 1606.78 155.008 C 1606.05 141.8 1622.39 140.716 1630.61 139.304 z" fill="rgb(1,1,1)" transform="translate(0,0)"></path>
<path d="M 1804.36 212.074 C 1821.96 213.808 1856.75 231.319 1858.31 250.448 C 1856.64 254.911 1857.01 253.625 1852.93 257.132 C 1842.47 256.481 1837.3 241.694 1827.82 235.694 C 1819.92 230.696 1798.45 227.516 1799 217.039 C 1801.05 213.661 1801.06 213.858 1804.36 212.074 z" fill="rgb(1,1,1)" transform="translate(0,0)"></path>
<metadata><recraft-signature>{"signed_by": "recraft", "signature_b64": "OT5y2oFgXfGL7b7wzQV+J0mcD3qSwEkzc2ZwOdWHNLAOzvlnW4ALfuJgeqfgtMF1KwBdqxc5VPbeYX6rDv8vCg==", "signing_algo": "Ed25519", "generation_timestamp": 1783497145, "identifier": "5bb684bc-df5b-4b80-a482-235659f07c4e"}</recraft-signature></metadata></svg>