<svg xmlns="http://www.w3.org/2000/svg" height="1024" preserveAspectRatio="none" style="display: block;" version="1.1" viewBox="0 0 2048 2048" width="1024">
<path d="M 0 0 L 2048 0 L 2048 1378.84 L 2048 1484.11 L 2048 2048 L 0 2048 L 0 1485.36 L 0 1450.72 L 0 1411.28 L 0 0 z" fill="rgb(243,93,50)" transform="translate(0,0)"></path>
<path d="M 389.699 944.722 C 443.423 963.431 504.137 986.788 541.626 1031.79 C 558.375 1051.89 570.718 1083.02 579.327 1107.58 C 590.056 1098.26 597.792 1088.28 613.029 1089.42 C 620.171 1089.96 628.913 1094.76 632.43 1100.47 C 649.983 1128.93 654.178 1184.54 658.424 1216.45 C 672.987 1204.22 696.004 1181.12 713.141 1202.65 C 729.129 1222.74 729.154 1260.25 734.869 1284.84 C 738.237 1299.49 743.146 1313.74 749.513 1327.35 C 753.526 1336.04 759.024 1346.32 762.204 1355.11 C 759.307 1322.25 765.203 1297.71 786.148 1271.51 C 808.279 1243.83 847.685 1228.1 875.766 1258.74 C 896.327 1245.09 917.083 1230.63 942.919 1236.08 C 966.569 1240.87 983.533 1255.35 996.576 1275.05 C 1014 1301.38 1020.35 1329.46 1013.62 1360.58 C 1003.69 1406.48 959.388 1445.46 916.511 1460.44 C 916.541 1475.18 912.853 1487.83 902.241 1498.68 C 887.068 1514.19 854.991 1523.03 836.737 1508.8 C 821.677 1531.62 802.721 1548.41 785.65 1569.06 C 775.49 1581.34 765.067 1599.1 755.202 1612.48 C 732.85 1642.81 691.263 1678.55 658.18 1697.45 C 663.093 1715.92 671.162 1738.52 679.448 1755.75 C 703.486 1757.95 715.566 1762.37 728.993 1783.66 C 780.433 1789.5 829.925 1802.72 864.353 1845.09 C 893.031 1880.39 884.867 1927.86 849.002 1954.98 C 798.646 1991.59 728.766 1995.02 668.853 1987.55 C 636.449 1983.51 599.066 1971.92 577.374 1946.03 C 559.019 1924.12 568.023 1887.77 579.799 1864.14 C 560.458 1834.29 557.846 1813.56 577.958 1782.64 C 568.79 1764.28 561.761 1747.89 553.996 1728.89 C 542.613 1731.02 530.379 1733.17 518.792 1733.37 C 515.89 1758.03 513.433 1778.61 505.653 1802.46 C 521.828 1828.52 522.426 1847.15 511.668 1875.64 C 537.075 1914.93 542.971 1956.07 496.368 1981.92 C 442.295 2011.91 372.939 2027.91 311.499 2014.08 C 196.435 1988.19 205.575 1881.67 294.703 1827.63 C 314.844 1815.41 340.997 1806.61 364.978 1806.92 C 373.424 1787.21 383.81 1777.12 404.003 1769.03 C 405.285 1768.51 406.573 1768.02 407.867 1767.54 C 407.395 1750.25 407.518 1734.1 409.094 1716.86 C 380.049 1705.04 358.162 1694.6 333.93 1673.5 C 328.681 1668.93 314.961 1653.49 310.768 1651.37 C 297.575 1644.72 282.287 1640.69 268.244 1633.78 C 249.842 1624.71 235.347 1613.6 218.13 1603.6 C 209.029 1607.48 202.077 1610.32 191.93 1610.84 C 166.876 1612.13 144.171 1593.44 132.826 1572.42 C 97.8415 1566.24 61.9375 1559.05 34.9587 1534.12 C 19.0029 1519.38 6.77275 1506.62 4.1389 1483.94 C 4.76869 1476.15 6.06483 1470.73 7.75585 1463.05 C 4.9493 1459.41 2.37493 1454.72 0 1450.72 L 0 1411.28 C 28.4195 1365.67 59.7622 1356.1 111.265 1367.95 C 121.482 1337.06 153.825 1319.42 185.002 1329.69 C 213.528 1339.08 224.488 1366.05 241.492 1387.12 C 249.605 1348.66 270.932 1322.11 284.841 1285.34 C 297.757 1251.2 300.443 1226.02 305.74 1190.82 C 308.512 1172.39 313.665 1152.24 316.732 1133.11 C 332.998 1144.32 348.487 1153.12 365.421 1163.2 C 372.655 1147.73 394.563 1097.66 397.071 1082.98 C 403.585 1044.85 393.591 985.034 389.699 944.722 z" fill="rgb(247,247,247)" transform="translate(0,0)"></path>
<path d="M 416.335 982.438 C 430.664 985.575 456.622 998.972 470.012 1006.04 C 507.44 1025.54 535.719 1054.49 548.921 1095.1 C 551.864 1104.16 558.604 1151.97 567.562 1152.09 C 579.394 1152.25 599.488 1117.14 611.606 1116.87 C 616.561 1120.36 618.413 1130.22 620.442 1135.82 C 634.6 1174.91 628.033 1214.77 632.486 1254.52 C 632.734 1256.74 635.24 1257.97 637.02 1258.82 C 648.244 1259.04 681.476 1230.48 695.503 1222.55 L 696.949 1221.75 C 703.987 1251.16 702.533 1279.83 709.112 1308.48 C 712.814 1324.6 726.022 1347.99 734.344 1362.59 C 756.401 1401.28 763.613 1436.37 764.179 1480.38 C 775.794 1470.94 783.23 1463.02 793.245 1452.13 C 780.832 1430.97 781.644 1418.58 803.933 1405.32 C 778.444 1362.92 777.454 1310.57 816.747 1275.63 C 827.576 1266 846.213 1259.02 856.754 1272.81 C 863.733 1281.94 861.344 1296.04 859.757 1306.66 C 878.22 1290.79 892.798 1272.97 915.905 1262.6 C 949.888 1247.37 974.889 1277.2 985.49 1306.19 C 992.856 1326.31 991.983 1348.53 983.059 1368.01 C 963.346 1410.17 923.138 1430 881.88 1444.81 C 888.333 1455.3 891.356 1465.28 884.882 1476.81 C 881.402 1483.1 875.517 1487.7 868.576 1489.56 C 852.727 1493.93 839.049 1484.74 825.615 1477.43 C 812.622 1494.73 771.465 1541.2 753.342 1549.62 C 725.952 1616.22 687.68 1649.43 622.587 1679.58 C 630.685 1708.42 648.523 1753.23 661.246 1781.15 C 692.534 1779.82 699.726 1780.67 710.695 1811.34 C 742.015 1812.99 766.92 1816.61 796.226 1830.73 C 823.91 1843.56 868.904 1880 848.109 1915.16 C 820.638 1957.79 757.742 1962.27 710.69 1962.29 C 680.905 1962.3 608.446 1954.71 594.408 1921.43 C 588.87 1908.3 603.15 1878.05 610.482 1865.37 C 588.216 1837.41 573.916 1819.43 611.91 1797.33 C 606.817 1784.04 597.772 1765.66 591.691 1752.3 C 583.956 1734.41 576.829 1714.65 569.236 1696.36 C 535.491 1702.15 527.989 1704.57 491.839 1705.94 C 488.753 1746.94 484.844 1769.97 477.148 1809.99 C 510.184 1832.22 500.08 1851.68 481.653 1879.46 C 493.706 1897.01 516.705 1926.22 497.019 1945.41 C 463.352 1976.14 411.854 1985.21 368.209 1989.96 C 290.743 1998.4 207.362 1951.36 280.479 1872.58 C 307.821 1843.11 346.275 1831.33 386.587 1831.13 C 394.228 1798.45 402.095 1794.72 434.965 1795.22 C 435.163 1762.36 436.503 1730.63 437.1 1697.95 C 386.806 1683.94 357.784 1663.54 325.231 1623.73 C 287.504 1618.06 244.932 1591.28 216.348 1565.95 C 199.911 1582.59 184.075 1594.46 162.82 1570.74 C 156.528 1563.72 156.812 1556.82 158.172 1548.01 C 134.484 1544.99 106.593 1541.25 84.6088 1532.38 C 61.246 1522.96 27.6759 1501.29 31.8269 1472.04 C 32.4235 1467.84 34.8181 1462.66 36.5536 1458.68 C 12.0682 1434.6 27.7578 1402.31 55.3666 1390.06 C 81.1042 1378.63 112.57 1390.83 136.863 1400.61 C 134.455 1391.08 133.328 1383.95 135.728 1374.16 C 139.673 1358.06 159.629 1344.15 175.99 1350.87 C 197.262 1359.61 212.612 1386.41 222.641 1405.7 C 237.411 1434.11 238.294 1452.54 228.295 1482.29 C 246.452 1496.85 254.752 1499.91 250.912 1524.68 C 248.182 1527.86 245.441 1531.39 242.798 1534.67 C 255.797 1543.13 274.461 1552.13 288.732 1557.42 C 269.032 1495.58 249.602 1417.7 279.619 1356.53 C 297.649 1319.79 316.069 1293.1 325.028 1251.45 C 330.321 1226.85 329.322 1197.07 336.073 1174.89 C 356.221 1188.52 363.632 1202.12 379.996 1214.79 C 385.808 1197.31 388.697 1178.74 395.148 1160.24 C 408.833 1120.99 434.568 1090.48 432.175 1047.91 C 430.701 1021.66 420.635 1005.24 416.335 982.438 z" fill="rgb(1,1,1)" transform="translate(0,0)"></path>
<path d="M 431.335 997.933 C 480.871 1015.47 533.464 1054.71 543.203 1109.01 C 545.802 1123.5 553.645 1179.04 578.912 1158.38 C 587.246 1151.57 600.007 1136.26 608.639 1127.78 C 614.569 1144.43 618.467 1161.73 620.25 1179.3 C 621.944 1196.44 621.633 1215.54 621.191 1232.76 C 619.427 1301.41 663.096 1253.83 690.404 1237.41 C 697.263 1265.6 693.058 1289.42 700.679 1314.38 C 709.73 1345.23 731.339 1369.53 741.31 1400.2 C 783.42 1529.7 724.836 1632.98 602.076 1677.41 C 435.841 1730.66 315.68 1666.02 281.461 1495.45 C 269.982 1438.24 267.078 1389.09 300.528 1337.4 C 310.465 1322.04 319.098 1300.19 325.35 1283.06 C 336.688 1253.04 336.813 1222.04 342.487 1190.94 C 356.142 1203.96 384.538 1247.42 392.554 1203.31 C 397.264 1180.33 406.821 1150.21 417.983 1129.47 C 447.938 1073.79 444.338 1057.42 431.335 997.933 z" fill="rgb(247,247,247)" transform="translate(0,0)"></path>
<path d="M 514.964 1193.54 C 515.625 1193.58 517.585 1193.65 518.021 1193.94 C 551.911 1216.33 589.097 1272.08 607.053 1304.55 C 616.156 1308.06 624.542 1311.67 632.309 1317.64 C 695.699 1366.44 713.155 1485.59 652.692 1541.72 C 627.992 1561.15 599.393 1562.24 573.333 1544.17 C 536.212 1518.43 518.517 1471.19 514.92 1427.67 C 513.775 1413.8 515.457 1400.13 514.353 1386.34 C 509.626 1360.95 502.384 1348.76 505.358 1321.29 C 507.996 1294.92 521.558 1269.66 522.752 1243.15 C 523.413 1228.46 515.337 1213.66 511.588 1199.95 C 510.752 1196.89 513.097 1195.44 514.964 1193.54 z" fill="rgb(1,1,1)" transform="translate(0,0)"></path>
<path d="M 580.93 1313.14 C 628.48 1309.32 656.214 1348.54 670.754 1388.74 C 689.798 1441.41 685.042 1524.38 623.864 1546.39 C 572.548 1554.75 541.511 1504.18 529.241 1461.49 C 515.483 1413.62 522.734 1328.54 580.93 1313.14 z" fill="rgb(247,247,247)" transform="translate(0,0)"></path>
<path d="M 572.538 1383 C 628.683 1379.93 643.458 1495.06 591.134 1514.75 C 537.753 1524.77 516.249 1405.17 572.538 1383 z" fill="rgb(1,1,1)" transform="translate(0,0)"></path>
<path d="M 527.991 1215.48 C 544.506 1223.37 585.021 1283.91 595.042 1302.85 C 591.28 1302.81 587.52 1303.03 583.788 1303.51 C 563.23 1306.11 549.437 1316.64 537.191 1332.48 C 529.37 1344.2 523.528 1357.12 519.899 1370.74 C 509.937 1342.81 513.358 1312.43 523.081 1285.05 C 532.582 1258.3 532.951 1242.85 527.991 1215.48 z" fill="rgb(247,247,247)" transform="translate(0,0)"></path>
<path d="M 418.782 1222.6 C 424.37 1222.86 427.126 1224.72 430.792 1229.11 C 443.065 1243.62 455.459 1261.26 464.899 1277.31 C 485.256 1311.93 489.525 1350.1 490.041 1389.3 C 490.084 1392.61 495.214 1408.14 496.468 1412.9 C 500.931 1429.6 502.939 1446.86 502.428 1464.13 C 501.248 1503.83 483.665 1553.31 447.902 1574.95 C 434.864 1582.84 422.924 1584.13 408.076 1583.58 C 362.749 1579.87 337.025 1526.43 329.928 1486.99 C 320.03 1431.99 339.006 1341.44 404.839 1330.63 C 414.296 1312.53 421.564 1279.56 421.761 1258.91 C 421.881 1246.4 413.365 1234.05 418.782 1222.6 z" fill="rgb(1,1,1)" transform="translate(0,0)"></path>
<path d="M 410.577 1339.31 C 421.732 1338.34 437.074 1343.41 446.376 1349.52 C 515.286 1394.75 508.976 1558.3 419.621 1574.99 C 369.667 1575.94 342.931 1519.88 337.696 1477.51 C 333.058 1439.98 340.043 1397.59 363.181 1366.71 C 375.223 1350.64 390.872 1341.91 410.577 1339.31 z" fill="rgb(247,247,247)" transform="translate(0,0)"></path>
<path d="M 432.147 1400.14 C 481.768 1397.93 503.699 1511.85 442.225 1531.16 C 388.2 1537.41 373.932 1412.51 432.147 1400.14 z" fill="rgb(1,1,1)" transform="translate(0,0)"></path>
<path d="M 430.125 1246.5 C 436.174 1250.01 440.385 1257.95 444.594 1263.46 C 471.082 1298.13 477.98 1329.95 480.405 1372.74 L 472.99 1362.63 C 455.978 1341.86 442.244 1332.58 415.239 1329.49 C 425.987 1299.74 433.365 1277.96 430.125 1246.5 z" fill="rgb(247,247,247)" transform="translate(0,0)"></path>
<path d="M 577.937 1552.09 C 578.509 1553.02 578.935 1554.37 578.932 1555.42 C 578.836 1586.67 551.395 1614.16 520.96 1617.81 C 505.178 1619.7 495.09 1615.1 483.188 1606.15 C 474.815 1598.05 471.77 1592.74 468.935 1581.76 C 510.258 1580.93 541.587 1572.44 577.937 1552.09 z" fill="rgb(1,1,1)" transform="translate(0,0)"></path>
<path d="M 365.942 1841.37 C 373.381 1840.57 382.787 1840.26 390.256 1840.72 C 431.439 1843.26 471.049 1872 488.927 1908.76 C 493.476 1918.11 499.354 1925.94 492.064 1935.82 C 483.204 1947.83 468.912 1954.34 455.587 1960.1 C 435.034 1968.74 413.728 1973.72 391.885 1977.72 C 359.551 1982.36 310.126 1984.38 282.067 1964.05 C 234.893 1929.86 280.955 1873.37 318.366 1855.49 C 335.747 1847.17 346.506 1843.96 365.942 1841.37 z" fill="rgb(245,177,45)" transform="translate(0,0)"></path>
<path d="M 706.024 1822.4 C 740.363 1818.43 789.736 1832.34 816.401 1854.51 C 827.233 1862.84 842.557 1879.1 843.115 1893.75 C 844.853 1939.38 769.546 1950.06 739.754 1952.3 C 705.128 1955.46 623.119 1951.19 602.716 1919.56 C 602.928 1889.14 619.721 1862.47 643.635 1844.33 C 662.085 1830.34 683.268 1824.63 706.024 1822.4 z" fill="rgb(245,177,45)" transform="translate(0,0)"></path>
<path d="M 161.374 1359.07 C 198.454 1356.95 239.491 1442.9 221.05 1474.22 C 209.421 1493.96 180.09 1521.79 163.3 1539.17 C 151.33 1539.28 135.95 1536.05 123.95 1534.01 C 95.1287 1529.1 49.103 1513.43 40.6244 1481.28 C 40.6016 1454.2 58.7139 1449.47 79.8162 1460.58 C 83.3489 1462.44 89.2066 1465.36 93.0954 1464.76 C 98.8715 1454.29 63.2587 1442.21 55.5932 1445.23 C 51.4159 1446.87 46.9445 1448.78 42.5639 1449.5 C 17.6979 1437.55 46.1136 1395.79 70.9694 1394.76 C 93.0641 1393.84 107.96 1398.18 128.581 1407.07 C 139.105 1411.61 149.038 1418.84 159.996 1420.68 C 162.754 1419.61 161.733 1420.51 163.144 1417.88 C 162.056 1413.6 148.517 1405.86 145.375 1396.43 C 139.372 1378.43 144.116 1366.76 161.374 1359.07 z" fill="rgb(247,247,247)" transform="translate(0,0)"></path>
<path d="M 927.424 1268.26 C 929.732 1267.98 932.058 1267.85 934.383 1267.89 C 945.134 1268.16 952.652 1273.9 959.715 1281.14 C 959.689 1282.67 959.644 1284.2 959.581 1285.72 C 958.031 1321.68 922.469 1341.67 922.279 1348.68 C 925.427 1349.3 925.322 1349.01 928.967 1347.16 C 950.006 1336.51 961.335 1315.43 968.575 1294.03 C 1010.43 1362.16 941.165 1417.46 880.483 1435.24 L 872.026 1437.55 C 864.14 1432.43 822.735 1408.19 814.763 1404.97 C 803.464 1386.51 795.505 1368.79 795.052 1346.66 C 794.648 1324.46 802.601 1303.01 818.061 1286.95 C 824.239 1280.27 841.144 1268.1 849.182 1278.02 C 857.426 1288.2 842.821 1317.43 849.788 1326.01 C 852.336 1326.56 854.107 1326.78 856.256 1324.73 C 877.642 1304.4 897.872 1277.76 927.424 1268.26 z" fill="rgb(247,247,247)" transform="translate(0,0)"></path>
<path d="M 611.818 1684.07 C 613.123 1684.02 612.238 1684.01 614.443 1684.46 C 622.946 1713.1 639.36 1754.74 651.325 1782.51 C 638.541 1785.47 631.815 1787.39 619.92 1792.81 C 616.596 1787.77 611.132 1775.02 608.493 1769.29 C 597.23 1744.84 588.575 1719.71 579.668 1694.34 C 590.447 1691.12 601.166 1687.7 611.818 1684.07 z" fill="rgb(243,93,50)" transform="translate(0,0)"></path>
<path d="M 418.118 1805.15 C 442.085 1803.57 476.468 1812.43 488.608 1835.48 C 492.562 1842.99 480.227 1869.5 474.659 1871.41 L 472.368 1869.7 C 449.782 1847.2 425.675 1837.81 395.267 1831.7 C 399.91 1813.9 399.749 1809.32 418.118 1805.15 z" fill="rgb(245,177,45)" transform="translate(0,0)"></path>
<path d="M 672.789 1790.43 C 691.691 1790.93 696.345 1794.74 700.566 1812.81 C 666.283 1818.76 644.897 1826.6 620.585 1852.78 C 618.14 1855.6 619.496 1855.05 616.541 1856.03 C 611.107 1852.96 597.637 1833.53 597.561 1827.78 C 597.21 1801.18 655.649 1791.52 672.789 1790.43 z" fill="rgb(245,177,45)" transform="translate(0,0)"></path>
<path d="M 445.121 1699.72 C 457.736 1702.47 470.515 1704.41 483.378 1705.53 C 482.289 1735.34 476.686 1767.43 470.183 1796.51 L 468.544 1805.03 C 459.455 1801.03 452.32 1798.98 442.737 1796.67 C 443.03 1764.34 443.824 1732.02 445.121 1699.72 z" fill="rgb(243,93,50)" transform="translate(0,0)"></path>
<path d="M 220.931 1490.05 C 228.875 1493.48 244.767 1505.01 242.953 1513.83 C 239.439 1530.92 203.18 1570.8 188.621 1575.29 C 175.45 1572.8 159.086 1561.95 169.584 1547.32 C 175.395 1539.23 182.578 1532.08 189.368 1524.78 C 200.126 1513.42 210.649 1501.84 220.931 1490.05 z" fill="rgb(247,247,247)" transform="translate(0,0)"></path>
<path d="M 806.205 1414.85 C 822.024 1415.64 841.836 1431.55 855.876 1438.56 C 875.297 1448.25 892.734 1463.46 867.3 1480.31 C 848.687 1485.93 828.23 1466.79 813.972 1456.72 C 798.461 1445.78 784.393 1428.37 806.205 1414.85 z" fill="rgb(247,247,247)" transform="translate(0,0)"></path>
<path d="M 238.323 1542.54 C 239.869 1542.93 247.416 1547.27 249.35 1548.3 C 260.763 1554.4 278.45 1564.6 291.196 1566.27 C 299.704 1584.07 307.362 1597.24 317.647 1614.13 L 306.746 1610.48 C 272.142 1598.41 251.065 1581.6 221.117 1561.22 L 238.323 1542.54 z" fill="rgb(243,93,50)" transform="translate(0,0)"></path>
<path d="M 799.583 1458.66 C 804.009 1461.35 812.921 1468.49 817.411 1471.88 C 807.281 1488.31 781.579 1515.1 767.491 1528.72 C 763.878 1531.89 759.921 1534.81 756.096 1537.74 C 760.106 1523.87 762.438 1510.36 764.618 1497.81 C 765.84 1490.77 791.774 1467.13 799.583 1458.66 z" fill="rgb(243,93,50)" transform="translate(0,0)"></path>
<path d="M 1595.14 929.953 C 1625.02 953.585 1656.49 984.661 1683.34 1011.76 C 1719.79 1048.54 1722.2 1089.19 1718.97 1138.88 C 1733.65 1133.32 1749.04 1126.36 1763.54 1120.08 C 1793.67 1174.17 1772.79 1210.3 1767.94 1268.19 C 1781.62 1260.01 1795.85 1251.79 1808.81 1242.59 C 1824.78 1272.41 1831.26 1293.8 1818.04 1326.24 C 1805.2 1357.74 1803.43 1377.43 1808.83 1411.03 C 1813.86 1394.8 1818.45 1379.87 1826.73 1364.82 C 1845.76 1330.22 1887.09 1299.22 1926.52 1322.77 C 1936.23 1328.56 1941.97 1335.94 1948.25 1345.06 C 1989.08 1336.79 2021.63 1346.51 2048 1378.84 L 2048 1484.11 C 2018.95 1531.19 1971.16 1551.73 1918.37 1560.61 C 1896.41 1599.09 1877.68 1605.67 1836.68 1590.67 C 1817.2 1599.51 1793.47 1612.05 1776.51 1624.72 C 1750.32 1644.29 1728.25 1669.52 1700.59 1687.51 C 1683.36 1698.72 1665.57 1706.21 1646.48 1713.39 C 1649.86 1729.17 1652.62 1748.73 1655.48 1765.01 C 1677.24 1774.2 1683.42 1781.39 1692.02 1803.36 C 1747.24 1815.16 1801.96 1846.27 1820.85 1903.55 C 1835.49 1947.96 1801.61 1990.06 1758.77 2001.1 C 1696.58 2017.12 1625.1 2007.23 1568.34 1977.04 C 1546.92 1965.51 1514.22 1943.56 1506.07 1919.34 C 1501.43 1902.97 1522.99 1869.99 1531.79 1855.02 L 1531.08 1854.04 C 1510.63 1825.55 1521.94 1799.48 1548.29 1781.16 C 1545.11 1762.48 1542.44 1742.99 1539.76 1724.22 C 1525.1 1723.48 1510.18 1720.91 1495.74 1718.32 C 1488.7 1738.2 1482.23 1760.81 1475.95 1781.11 C 1481.66 1806.69 1487.81 1826.93 1463.77 1846.68 C 1469.14 1870.39 1486.11 1913.4 1464.36 1933.25 C 1435.98 1959.15 1387.03 1967.05 1350.03 1967.68 C 1296.3 1968.6 1234.64 1960.63 1193.35 1923.1 C 1157.12 1890.09 1158 1833.09 1192.86 1799.45 C 1226.44 1767.04 1273.79 1756.64 1319.25 1756.67 C 1335.68 1733.21 1345.93 1724.32 1375.79 1724.71 C 1381.38 1708.71 1386.68 1692.62 1391.67 1676.42 C 1361.17 1653.7 1338.75 1632.78 1318.41 1599.89 C 1312.58 1592.5 1306 1571.25 1299.95 1565.4 C 1275.09 1541.37 1251.99 1517.42 1229.1 1491.5 C 1217.72 1494.5 1206.78 1494.4 1196.22 1488.78 C 1174.6 1477.27 1168.34 1462.68 1160.97 1441.27 C 1109.78 1416.35 1065.62 1375.83 1064.76 1314.9 C 1064.41 1284.64 1076.14 1255.48 1097.36 1233.89 C 1134.32 1196.51 1182.14 1208.35 1216.21 1242.78 C 1239.17 1210.53 1273.56 1206.44 1301.01 1236.78 C 1314.67 1251.88 1319.63 1271.13 1325.49 1290.2 C 1338.17 1260.42 1371.75 1230.38 1391.51 1203.11 C 1421.25 1162.08 1438.85 1126.04 1457.54 1079.43 C 1468.99 1096.89 1475.35 1111.08 1485.52 1128.41 C 1505.96 1103.82 1521.59 1094.7 1542.3 1076 C 1573.17 1048.15 1587.32 970.909 1595.14 929.953 z" fill="rgb(247,247,247)" transform="translate(0,0)"></path>
<path d="M 1485.57 1188.91 C 1501.69 1160.99 1523.68 1138.28 1546.57 1117.1 C 1575.17 1090.65 1604.17 1071.79 1610.41 1030.59 C 1612 1020.14 1608.32 989.832 1612.67 984.825 C 1621.56 983.109 1636.93 1001.44 1643.94 1007.55 C 1685.46 1043.9 1693.83 1100.88 1692.97 1153.21 C 1692.85 1160.51 1692 1178.64 1694.72 1184.49 C 1697.83 1184.6 1709.26 1175.9 1712.56 1173.53 C 1725.13 1164.49 1737.14 1156.82 1751.02 1149.76 C 1753.42 1160.33 1755.9 1171.09 1755.56 1182.22 C 1754.39 1220.32 1736.85 1258.92 1743.12 1297.5 C 1743.9 1302.3 1746.89 1311.09 1751.21 1313.74 L 1752.67 1313.27 C 1758.11 1305.86 1794.42 1271.84 1801.38 1278.46 C 1806.39 1292.84 1793.82 1321.65 1788.83 1335.87 C 1776.23 1371.77 1782.02 1397.86 1785.86 1434.51 C 1789.28 1467.13 1789.49 1504.3 1783.55 1536.88 C 1793.38 1529.17 1801.03 1522.84 1811.91 1516.61 C 1810.18 1513.54 1807.71 1509.37 1806.79 1506.05 C 1805 1499.46 1805.93 1492.43 1809.4 1486.54 C 1814.91 1477.3 1822.44 1474.39 1831.98 1471.76 C 1825.63 1429.53 1835.78 1378.45 1869.01 1349.01 C 1882.33 1337.22 1906.61 1330.81 1918.75 1347.59 C 1926.74 1358.63 1925.44 1372.1 1923.65 1384.75 C 1939.7 1378.19 1958.92 1365.82 1975.57 1366.05 C 2050.06 1367.05 2047.07 1454.88 2004.89 1493.88 C 1972.01 1524.3 1939.86 1531.97 1898.09 1532.11 C 1902.46 1559.53 1880.24 1581.39 1853.81 1565.65 C 1850.49 1563.68 1846.04 1557.92 1843.41 1554.78 C 1812.37 1572.5 1787.93 1589.98 1754.35 1606.61 C 1753.2 1607.19 1751.2 1608.3 1750.08 1608.68 C 1744.9 1612.78 1731.25 1628.33 1724.62 1634.28 C 1687.73 1667.41 1663.16 1679.62 1616.6 1691.63 C 1619.95 1725.03 1626.07 1758.7 1629.09 1791.34 C 1657.34 1785.55 1666.77 1795.13 1666.05 1823.52 C 1700.06 1827.08 1732.79 1842.58 1759.08 1865.35 C 1785.32 1888.08 1807.14 1927.81 1779.11 1958.95 C 1764.49 1975.19 1735.78 1980.11 1714.53 1980.12 C 1652.95 1980.15 1575.97 1958.12 1531.21 1914.66 C 1539.24 1893.49 1557.74 1865.78 1574.73 1850.57 C 1562.84 1849.2 1550.49 1843.05 1548.44 1830.59 C 1544.95 1809.36 1560.33 1802.19 1576.94 1799.33 C 1571.29 1770.2 1567.04 1727.67 1563.15 1697.32 C 1527.9 1695.99 1512.42 1693.52 1478.61 1684.91 C 1465.12 1716.21 1456.47 1752.04 1441.67 1786.07 C 1450.68 1791.31 1456.56 1797.73 1456.25 1808.82 C 1456.06 1815.7 1453 1822.18 1447.8 1826.69 C 1439.96 1833.46 1433.17 1833.32 1423.78 1832.64 C 1438.77 1856.19 1444.21 1884.66 1449.41 1911.75 C 1441.45 1920.04 1430.47 1923.93 1419.61 1927.19 C 1381.8 1938.52 1341.56 1941.19 1302.42 1935.88 C 1259.75 1930.1 1188.76 1909.23 1194.8 1853.43 C 1196.68 1836.98 1212.52 1819.61 1226.27 1810.59 C 1263.31 1786.31 1306.48 1781.87 1349.41 1789.79 C 1345.46 1781.9 1343.62 1773.83 1347.8 1765.73 C 1358.71 1744.57 1377.45 1753.74 1392.16 1761 C 1406.2 1732.82 1415.93 1695.7 1429.86 1665.02 C 1390.09 1641.88 1363.85 1621.74 1339.76 1580.64 C 1335.34 1574.41 1329.95 1552.22 1324.88 1547.89 C 1293.95 1521.44 1267.07 1492.18 1239.9 1461.95 C 1229.59 1466.41 1219.79 1470.17 1208.53 1466.01 C 1200.34 1462.95 1193.7 1456.76 1190.09 1448.79 C 1185.54 1438.52 1186.85 1432.28 1190.55 1422.78 C 1160.34 1412.56 1141.51 1403.16 1118.4 1379.35 C 1100.21 1360.85 1089.13 1334.99 1090.26 1308.88 C 1091.65 1277.01 1117.03 1230.6 1153.95 1233.92 C 1179.39 1236.2 1207.05 1263.85 1222.48 1282.08 C 1224.52 1276.76 1226.8 1271.54 1229.31 1266.42 C 1236.82 1251.29 1244.5 1243.69 1260.46 1238.28 C 1267.64 1239.93 1276.52 1243.11 1281.36 1248.87 C 1312.68 1286.2 1303.47 1353.27 1275.06 1388.91 C 1296.16 1402.07 1297.29 1422.55 1279.26 1438.99 C 1288.38 1449.01 1299.02 1458.25 1309.2 1467.19 C 1302.3 1393.26 1316.47 1334.76 1365.25 1277.88 C 1392.67 1245.9 1421.97 1217.2 1439.85 1178.64 C 1444.25 1169.15 1451.05 1151.65 1457.02 1143.93 C 1471.91 1140.84 1483.53 1177.77 1485.57 1188.91 z" fill="rgb(1,1,1)" transform="translate(0,0)"></path>
<path d="M 1817.49 1522.39 C 1825.65 1530.64 1832.16 1538.09 1838.08 1548.19 C 1818.43 1560.78 1798.68 1573.2 1778.83 1585.46 C 1774.43 1586.49 1773.76 1587.94 1769.67 1587.87 C 1770.36 1584.89 1770.88 1582.2 1771.42 1579.19 C 1776.94 1566.84 1778.78 1560.34 1781.58 1547.06 C 1793.61 1538.93 1805.58 1530.7 1817.49 1522.39 z" fill="rgb(243,93,50)" transform="translate(0,0)"></path>
<path d="M 1771.42 1579.19 C 1770.88 1582.2 1770.36 1584.89 1769.67 1587.87 C 1773.76 1587.94 1774.43 1586.49 1778.83 1585.46 C 1774.4 1588.99 1755.89 1602.8 1754.35 1606.61 C 1753.2 1607.19 1751.2 1608.3 1750.08 1608.68 C 1755.73 1599.95 1764.87 1588.88 1771.42 1579.19 z" fill="rgb(186,132,52)" transform="translate(0,0)"></path>
<path d="M 1621 1001.37 C 1627.57 1004.59 1634.73 1013.02 1640.23 1017.79 C 1675.16 1048.06 1682.5 1097.2 1683.01 1140.94 C 1684 1155.06 1681.22 1173.95 1684.72 1187.47 C 1688.94 1203.77 1708.68 1187.86 1714.62 1183.56 C 1724.17 1176.65 1734.23 1168.76 1744.43 1163.97 C 1752.49 1214.41 1718.58 1264.17 1737.66 1313.49 C 1739.59 1317.84 1742.68 1321.38 1747.27 1322.8 C 1756.5 1325.65 1762.03 1315.92 1768.71 1309.4 C 1776.28 1301.96 1784.74 1295.5 1793.89 1290.15 C 1787.54 1317.64 1775.06 1338.89 1772.45 1368.75 C 1770.17 1394.87 1774.95 1414.32 1777 1439.88 C 1779.25 1468.71 1778.7 1497.68 1775.36 1526.4 C 1773.3 1545.39 1770.74 1563.42 1759.5 1579.34 C 1743.82 1601.55 1727.06 1620.92 1706.03 1638.24 C 1655.29 1680.06 1592.66 1693.34 1528.21 1686.08 C 1500.41 1683.19 1471.43 1674.2 1446.15 1662.49 C 1391.68 1637.25 1355.23 1601.64 1334.68 1544.6 C 1322.82 1511.69 1319.1 1483.96 1317.39 1449.46 C 1314.25 1385.87 1328.73 1335.01 1370.83 1286.27 C 1389.41 1264.76 1409.06 1243.62 1425.95 1220.83 C 1441.81 1199.41 1449.69 1180.03 1460.5 1156.51 C 1460.72 1156.74 1460.94 1156.98 1461.15 1157.22 L 1462.23 1158.41 C 1473.42 1170.64 1474.96 1186.67 1479.96 1202.53 L 1482.28 1203.53 C 1486.9 1201.4 1511.04 1167.45 1517.36 1159.46 C 1549.56 1118.72 1604.48 1094.19 1618.18 1041.55 C 1621.63 1028.29 1621.07 1014.71 1621 1001.37 z" fill="rgb(57,139,225)" transform="translate(0,0)"></path>
<path d="M 1637.77 1194.29 C 1643.61 1195.4 1646.57 1201.09 1649.39 1206.12 C 1672.85 1247.98 1688.62 1290.29 1676.6 1338.38 C 1752.42 1400.69 1726.04 1567.57 1620.33 1577.7 C 1574.72 1576.82 1547.9 1543.28 1540.98 1499.97 C 1534.84 1461.5 1546.84 1417.31 1565.31 1383.73 C 1567.98 1378.88 1571.01 1374.13 1573.3 1369.03 C 1569.72 1346.62 1606.18 1300.36 1618.46 1280.71 C 1635.24 1253.87 1637.18 1231.51 1634.2 1200.5 C 1633.86 1196.92 1635.44 1196.51 1637.77 1194.29 z" fill="rgb(1,1,1)" transform="translate(0,0)"></path>
<path d="M 1636.3 1337.24 C 1729.93 1327.32 1744.92 1544.52 1626.66 1568.22 C 1599.69 1569.89 1583.42 1561.99 1567.04 1540.76 C 1522.63 1483.22 1564.06 1349.59 1636.3 1337.24 z" fill="rgb(247,247,247)" transform="translate(0,0)"></path>
<path d="M 1608.72 1401.13 C 1649.88 1404.11 1646.31 1462.71 1632.16 1489.21 C 1623.33 1505.75 1614.8 1514.44 1596.79 1520.47 C 1546.98 1526.42 1552.15 1417.65 1608.72 1401.13 z" fill="rgb(1,1,1)" transform="translate(0,0)"></path>
<path d="M 1644.23 1216.68 C 1645.5 1217.84 1645.5 1217.61 1646.21 1218.98 C 1664.8 1254.5 1678.45 1294.37 1667.96 1334.1 C 1664.27 1332.38 1660.43 1331.01 1656.49 1329.99 C 1636.57 1324.71 1621.2 1330.23 1604.41 1340.07 C 1596.18 1345.83 1590.12 1351.44 1583.12 1358.54 C 1604.91 1297.58 1643.49 1291.26 1644.23 1216.68 z" fill="rgb(48,162,123)" transform="translate(0,0)"></path>
<path d="M 1526.81 1202.06 C 1534.68 1203.92 1535.84 1208.83 1538.61 1215.91 C 1555.44 1258.89 1553.17 1305.65 1526.38 1344.15 C 1528.44 1348.82 1530.31 1353.58 1531.97 1358.41 C 1545.39 1397.31 1539.12 1444.21 1521.29 1480.78 C 1501.19 1521.98 1461.49 1570.03 1410.5 1545.35 C 1331.54 1498.89 1367.27 1321.86 1465.72 1306.2 C 1480.65 1284.98 1499.03 1273.59 1514.03 1246.37 C 1523.23 1229.66 1523.46 1206.58 1526.81 1202.06 z" fill="rgb(1,1,1)" transform="translate(0,0)"></path>
<path d="M 1463.09 1316.31 C 1472.57 1315.13 1485.84 1316.58 1493.84 1321.96 C 1565.63 1370.25 1522.81 1523.59 1445.76 1542.83 C 1342.79 1552.57 1360.12 1332.22 1463.09 1316.31 z" fill="rgb(247,247,247)" transform="translate(0,0)"></path>
<path d="M 1467.13 1384.29 C 1518.82 1376.7 1518.54 1461.82 1492.08 1487.45 C 1483.26 1496 1480.82 1497.32 1469.42 1500.78 C 1412.73 1507.96 1415.95 1405.37 1467.13 1384.29 z" fill="rgb(1,1,1)" transform="translate(0,0)"></path>
<path d="M 1531.18 1225.67 C 1533.88 1230.02 1536.71 1238.59 1537.55 1243.79 C 1543.16 1278.38 1539.6 1306.14 1520.33 1335.14 C 1515.02 1327.98 1510 1323.04 1503.48 1317.06 C 1494.16 1310.27 1487.17 1308.91 1476.29 1307.24 C 1500.44 1277.16 1519.17 1267.89 1531.18 1225.67 z" fill="rgb(48,162,123)" transform="translate(0,0)"></path>
<path d="M 1515.07 1556.26 C 1536.52 1553.89 1561.62 1564.48 1579.95 1574.67 C 1569.78 1585.97 1563.12 1591.83 1549.98 1599.15 C 1495.93 1622.01 1461.7 1566.29 1515.07 1556.26 z" fill="rgb(1,1,1)" transform="translate(0,0)"></path>
<path d="M 1299.14 1796.38 C 1341.43 1791.91 1397.38 1806.03 1420.47 1845.99 C 1429.51 1861.64 1437.34 1891.05 1439.34 1909.21 C 1409.42 1924.17 1376.37 1927.4 1343.61 1928.56 C 1306.33 1929.97 1257.27 1921.1 1226.47 1899.21 C 1205.74 1884.49 1195.62 1856.66 1213.95 1835.17 C 1235.96 1809.35 1266.32 1800.11 1299.14 1796.38 z" fill="rgb(57,139,225)" transform="translate(0,0)"></path>
<path d="M 1641.24 1832.38 C 1643.4 1832.23 1645.56 1832.15 1647.72 1832.13 C 1686.77 1831.81 1728.78 1849.97 1756.87 1877.01 C 1776.28 1895.71 1796.9 1930.03 1771.12 1952.87 C 1748.32 1973.07 1713.6 1970.42 1685.24 1968.83 C 1634.08 1962.24 1581.79 1945.32 1542.05 1911.33 C 1567.36 1867.39 1587.05 1837.54 1641.24 1832.38 z" fill="rgb(57,139,225)" transform="translate(0,0)"></path>
<path d="M 1142.39 1243.19 C 1188.18 1239.14 1221.21 1302.63 1231.36 1304.28 L 1232.83 1302.81 C 1233.24 1298.21 1231.5 1294.43 1230.04 1289.94 C 1232.45 1278.35 1247.89 1241.62 1264.71 1249.4 C 1294.86 1263.32 1295.08 1318.91 1286.73 1346.31 C 1282.53 1360.09 1273.63 1381.74 1260.02 1390.04 C 1241.89 1398.37 1223.59 1406.21 1205.4 1416.3 C 1191.39 1415.62 1172.67 1407.61 1160.6 1400.72 C 1110.61 1372.18 1081.59 1324.11 1112.44 1270.17 C 1114.97 1279.78 1117.65 1284.88 1121.19 1293.79 C 1125.83 1305.44 1153.01 1334.82 1166.09 1327.19 C 1166.47 1324.23 1162.36 1321.95 1159.69 1320.44 C 1143.78 1311.46 1132.1 1298.94 1125.19 1281.88 C 1116.17 1259.64 1122.26 1251.2 1142.39 1243.19 z" fill="rgb(247,247,247)" transform="translate(0,0)"></path>
<path d="M 1892.43 1346.14 C 1919.38 1343.41 1918.57 1371.32 1912.66 1389.78 C 1908.15 1392.52 1897.93 1395.8 1898.89 1401.92 C 1901.47 1404.17 1904.61 1404.99 1907.78 1403.39 C 1946.17 1384.03 2000.69 1348.21 2024.07 1409.06 C 2015.28 1420.84 2004.86 1428.02 1992 1434.53 C 1986.44 1437.34 1977.35 1440.62 1974.88 1446.1 C 1975.55 1449.06 1974.78 1447.94 1977.11 1449.67 C 1989.11 1449.66 2016.94 1429.88 2026.18 1422.68 C 2026.01 1432.57 2024.75 1439.95 2022.28 1449.42 C 2008.26 1489.1 1976.96 1511.19 1936.66 1520.76 C 1929.68 1522.56 1897.23 1525.66 1892.28 1521.71 C 1876.02 1508.73 1861.4 1484.18 1842.48 1472.46 C 1833.25 1428.69 1847.18 1364.9 1892.43 1346.14 z" fill="rgb(247,247,247)" transform="translate(0,0)"></path>
<path d="M 1438.32 1669.72 C 1448.53 1675.21 1458.54 1679.17 1469.48 1682.93 C 1465.22 1693.43 1436.55 1781.89 1433.91 1783.13 C 1422.4 1777.18 1412.08 1771.72 1400.92 1765.18 C 1412.43 1734.48 1425.02 1699.31 1438.32 1669.72 z" fill="rgb(52,100,172)" transform="translate(0,0)"></path>
<path d="M 1602.74 1694.45 C 1603.14 1694.36 1605.95 1694.2 1606.45 1694.17 C 1609.38 1697.54 1619.86 1781.26 1621.37 1792.65 C 1612.13 1793.41 1599.63 1795.59 1590.22 1796.95 C 1587.49 1797.44 1588.8 1797.65 1586.22 1796.76 C 1583.85 1790.81 1581.42 1769.31 1580.35 1761.95 C 1577.23 1740.33 1574.75 1718.77 1570.97 1697.21 C 1580.85 1696.9 1592.77 1695.43 1602.74 1694.45 z" fill="rgb(243,93,50)" transform="translate(0,0)"></path>
<path d="M 1828.19 1481.05 C 1848.16 1478.91 1873.52 1517.57 1885.38 1531.16 C 1896.66 1544.1 1886.18 1554.02 1874.96 1560.61 C 1862.86 1563.9 1858.25 1557.84 1850.74 1549.03 C 1841.65 1538.37 1833.1 1526.95 1824.53 1515.87 C 1812.55 1500.37 1810.11 1492.64 1828.19 1481.05 z" fill="rgb(247,247,247)" transform="translate(0,0)"></path>
<path d="M 1265.17 1399.05 C 1267.58 1398.87 1272.26 1398.64 1273.97 1400.11 C 1309.12 1430.4 1226.41 1457.6 1213.44 1460.59 C 1207.27 1457.15 1190.47 1438.49 1196.65 1432.92 C 1213.17 1418.04 1244.56 1406.08 1265.17 1399.05 z" fill="rgb(247,247,247)" transform="translate(0,0)"></path>
<path d="M 1366.37 1762.86 C 1367.8 1762.94 1369.2 1763.04 1370.61 1763.29 C 1380.31 1765.04 1440.26 1794.14 1444.75 1801.27 C 1446.73 1804.41 1447.48 1808.48 1446.44 1812.08 C 1444.73 1817.99 1440.28 1821.5 1435.19 1824.47 C 1420.76 1827.25 1391.05 1805.88 1377.29 1799.2 C 1360.89 1791.25 1344.2 1776.2 1366.37 1762.86 z" fill="rgb(52,100,172)" transform="translate(0,0)"></path>
<path d="M 1633.97 1799.37 C 1639.29 1798.7 1644.67 1797.47 1649.5 1800.39 C 1659.03 1806.14 1658.45 1814.25 1653.6 1822.79 C 1639.88 1822.86 1626.08 1824.85 1613.09 1829.39 C 1600.79 1833.68 1594.18 1838.2 1581.24 1839.79 C 1576.56 1840.29 1571.69 1840.58 1566.98 1840.93 C 1524.25 1807.49 1617.5 1801.75 1633.97 1799.37 z" fill="rgb(52,100,172)" transform="translate(0,0)"></path>
<path d="M 1271.43 1444.87 C 1273.18 1445.48 1301.77 1470.98 1310.08 1476.14 C 1313 1497.7 1316.04 1512.77 1320.84 1534.08 L 1311.42 1524.83 C 1297.92 1511.65 1259.89 1472.93 1250.21 1458.16 C 1256.9 1453.73 1264.56 1449.17 1271.43 1444.87 z" fill="rgb(243,93,50)" transform="translate(0,0)"></path>
<path d="M 1006.61 8.31829 C 1018.2 14.2541 1031.84 24.8101 1043.67 31.886 C 1121.22 78.2668 1183.21 108.12 1187.91 209.22 C 1197.67 202.851 1207.52 196.613 1217.45 190.509 C 1256.53 218.574 1254.49 246.614 1250.53 290.962 C 1249.19 305.323 1248.04 319.7 1247.07 334.09 C 1259.52 327.045 1271.85 317.783 1284.61 310.18 C 1300.89 329.955 1317.37 361.37 1314.76 387.483 C 1310.62 428.848 1314.86 453.016 1332.99 490.341 C 1335.67 488.513 1339.15 485.35 1341.69 483.185 C 1326.39 451.389 1329.21 437.301 1342.5 404.636 C 1354.56 375.001 1371.68 347.719 1407.28 346.482 C 1427.59 345.776 1439.76 350.951 1454.66 364.514 C 1459.99 361.399 1465.56 358.693 1471.3 356.419 C 1517.02 338.064 1555.35 355.52 1573.08 401.047 C 1596.66 461.556 1568.22 531.697 1511.2 561.566 C 1502.02 566.377 1492.79 569.01 1483.26 572.625 C 1470.98 609.499 1439.76 636.93 1399.96 616.103 C 1381.8 639.815 1353.73 652.962 1331.54 671.403 C 1324.86 676.957 1312.37 699.766 1306.15 708.706 C 1275.52 752.757 1241.58 777.705 1194.17 802.09 C 1198.1 818.381 1204.82 836.121 1209.12 853.508 C 1234.85 856.127 1244.06 870.138 1252.55 892.165 C 1266.75 893.342 1279.42 894.294 1292.69 899.183 C 1351.77 920.938 1413.84 959.34 1387.01 1031.55 C 1377.24 1057.84 1357.6 1073.96 1332.45 1085.54 C 1280.14 1109.62 1216.23 1103.47 1163.27 1084.86 C 1136.21 1074.99 1101.88 1060.65 1089.16 1032.83 C 1078.9 1010.38 1090.59 986.974 1099.08 965.748 C 1096.74 960.776 1094.62 955.709 1092.71 950.56 C 1086.1 932.394 1084.26 918.294 1092.63 900.522 L 1102.51 885.505 C 1099.25 864.074 1093.07 845.411 1090.38 823.121 C 1078.73 824.723 1062.27 824.093 1050.23 823.929 C 1047 848.387 1043.75 867.262 1032.9 889.936 C 1049.69 912.768 1045.41 940.278 1027.1 960.492 C 1034.95 972.066 1044.23 995.203 1046.25 1009.27 C 1048.42 1021.2 1043.21 1034.36 1035.53 1043.5 C 987.168 1100.98 826.784 1117.05 769.606 1070.41 C 751.113 1055.58 739.399 1033.91 737.13 1010.32 C 728.856 926.131 817.951 883.83 889.119 877.243 C 903.552 850.05 911.721 849.146 935.787 835.349 C 937.109 822.998 938.246 810.409 940.413 798.194 C 896.478 776.765 866.848 745.351 840.408 705.375 C 799.539 690.944 770.683 661.943 741.485 631.184 C 709.02 646.669 677.943 632.291 668.802 597.605 C 626.291 590.964 587.576 575.025 563.271 538.657 C 506.49 453.693 561.169 331.487 673.118 381.782 C 689.698 355.612 722.325 346.538 750.252 359.707 C 781.24 374.32 794.017 414.111 804.531 443.973 C 806.125 412.089 835.22 370.714 852.162 342.677 C 881.823 293.587 891.452 248.247 908.744 194.75 C 925.28 206.883 939.525 219.512 955.023 232.854 C 977.036 206.696 993.903 188.628 1004.29 155.135 C 1019.85 104.96 1009.91 58.7714 1006.61 8.31829 z" fill="rgb(247,247,247)" transform="translate(0,0)"></path>
<path d="M 1034.76 57.7589 C 1054.58 64.8033 1086.08 83.8466 1101.99 97.8472 C 1152.63 142.404 1163.48 193.531 1168.47 256.638 C 1177.12 249.764 1185.46 242.508 1193.46 234.892 C 1198.17 230.347 1205.42 222.519 1210.18 218.684 C 1228.7 227.762 1228.74 288.231 1224.92 305.576 C 1219.05 332.256 1217.04 349.066 1227.91 374.618 C 1242.84 366.231 1260.92 351.722 1273.6 340.328 C 1301.79 375.62 1281.84 412.958 1288.43 452.754 C 1290.72 466.528 1298.82 480.486 1304.98 492.948 C 1321.32 525.996 1323.08 558.974 1318.95 595.044 C 1336.87 579.557 1343.96 572.093 1359.39 554.225 C 1354.93 549.168 1350.26 544.661 1347.9 538.251 C 1340.99 519.502 1356 506.903 1372.15 501.46 C 1367.72 490.182 1362.22 481.255 1358.42 468.861 C 1350.73 443.8 1359.3 418.722 1371.39 396.529 C 1380.67 379.478 1391.04 364.397 1410.48 358.58 C 1437.14 367.011 1437.16 387.052 1431.8 410.171 C 1453.34 391.006 1511.54 350.287 1538.78 388.103 C 1541.19 391.444 1542.37 399.053 1544.22 402.949 C 1548.49 411.927 1555.53 419.304 1556.59 429.518 C 1560.11 452.002 1548.3 482.817 1535.02 500.534 C 1509.39 534.726 1483.75 541.59 1444.13 547.525 C 1449.38 553.035 1452.08 555.415 1453.76 563.056 C 1455.71 571.514 1454.09 580.4 1449.28 587.627 C 1433.5 611.4 1409.22 592.772 1393.31 581.423 C 1385.41 587.825 1376.7 596.963 1369.06 604.032 C 1349.17 622.435 1326.99 641.903 1302.48 653.623 C 1301.78 655.458 1301.03 657.274 1300.24 659.069 C 1280.79 703.126 1247.43 739.589 1205.27 762.867 C 1191.39 770.419 1177.93 775.6 1163.3 781.305 C 1169.04 809.255 1180.62 851.22 1188.33 878.938 C 1219 879.26 1220.22 886.165 1230.47 912.828 C 1280.8 919.401 1345.51 942.918 1366.64 994.794 C 1380.42 1028.64 1349.28 1053.79 1319.47 1061.91 C 1260.29 1078.01 1189.06 1070.35 1133.85 1043.59 C 1124.96 1039.29 1111.25 1030.34 1108.4 1020.23 C 1105.28 1005.31 1121.81 975.337 1129.09 963.449 C 1117.23 955.374 1108.16 930.072 1111.55 916.12 C 1114.14 905.49 1128.33 897.635 1137.14 892.373 C 1128.93 870.22 1122.89 846.695 1117.23 823.766 C 1114.93 814.353 1112.45 804.983 1109.8 795.661 C 1074.63 799.698 1058.92 800.615 1023.46 798.04 C 1016.66 836.065 1012.39 862.623 1002.29 900.587 C 1004.53 902.291 1007.85 904.748 1009.88 906.62 C 1014.86 911.167 1017.69 917.602 1017.69 924.346 C 1017.68 938.522 1007.73 953.566 998.14 963.477 C 1008.58 978.257 1032.11 1015.2 1013.43 1029.55 C 969.007 1062.16 912.851 1064.24 860.162 1066.17 C 774.976 1069.29 724.894 1019.8 795.237 949.165 C 824.552 919.729 859.44 911.722 901.451 913.177 C 913.115 883.692 922.011 872.221 954.677 880.099 C 959.83 851.251 967.529 815.155 974.307 786.688 C 912.97 760.334 892.164 734.319 856.351 679.236 C 819.749 666.513 774.442 629.696 747.594 601.51 C 735.966 608.502 731.372 611.978 717.966 615.333 C 697.122 609.611 694.276 591.542 687.249 573.079 C 658.916 572.684 639.099 565.983 615.599 549.459 C 590.833 531.945 574.032 504.983 569.071 475.006 C 564.005 444.386 577.004 397.655 613.624 394.3 C 642.978 391.61 667.236 410.1 688.722 427.718 C 690.692 352.817 755.69 370.046 771.17 426.774 C 779.542 457.454 783.912 484.043 769.278 513.472 C 792.929 534.867 801.835 539.056 781.247 569.834 C 789.334 580.348 812.639 598.967 823.579 608.291 C 802.647 532.4 813.587 459.676 854.754 392.881 C 868.554 370.49 885.302 349.606 897.169 326.241 C 910.291 300.404 914.093 274.07 921.627 246.866 C 939.155 257.571 953.152 278.349 963.587 295.601 C 973.494 247.058 994.22 230.184 1020.94 191.443 C 1049.97 149.343 1043.86 104.322 1034.76 57.7589 z" fill="rgb(1,1,1)" transform="translate(0,0)"></path>
<path d="M 1047 72.6737 C 1120.43 111.421 1150.24 159.458 1158.15 242.186 C 1158.75 246.041 1159.89 266.767 1162.74 268.143 C 1171.6 272.422 1206.46 234.743 1210.17 230.535 C 1216.58 248.088 1219.36 273.112 1217.26 291.603 C 1213.14 327.947 1204.34 352.563 1223.28 387.516 C 1238.29 380.792 1259.01 363.449 1272.08 352.84 C 1290.14 389.086 1272.74 415.546 1279.29 452.983 C 1284.38 482.055 1304.91 502.838 1309.72 534.961 C 1317.87 589.291 1303.26 643.733 1272.35 688.227 C 1229.73 749.585 1177.39 774.166 1106.18 786.494 C 1007.99 799.976 933.957 780.54 876.657 693.637 C 832.464 626.612 811.908 563.365 828.07 481.613 C 838.605 428.33 867.558 390.675 896.283 346.486 C 911.428 323.189 921.586 289.105 927.172 261.556 C 933.045 268.409 938.572 275.549 943.735 282.951 C 948.425 289.683 961.676 313.801 966.841 316.522 C 971.669 313.549 973.961 293.764 975.688 286.55 C 983.022 255.906 1000.85 234.723 1019.66 210.218 C 1053.72 165.861 1054.95 125.743 1047 72.6737 z" fill="rgb(48,162,123)" transform="translate(0,0)"></path>
<path d="M 1102.71 265.343 C 1109.82 267.704 1121.76 283.434 1127.19 289.626 C 1160.46 327.605 1176.27 366.774 1180.46 416.79 C 1252.72 464.032 1266.55 625.206 1179.88 665.167 C 1135.83 681.093 1095.86 652.852 1079.35 612.513 C 1058.45 561.433 1067.93 510.314 1087.49 461.043 C 1076.93 449.19 1071.05 437.317 1073.42 421.037 C 1078.49 386.307 1105.36 358.104 1107.32 322.53 C 1108.28 304.988 1103.14 288.222 1100.9 271.07 C 1100.65 269.12 1101.82 267.006 1102.71 265.343 z" fill="rgb(1,1,1)" transform="translate(0,0)"></path>
<path d="M 1144.83 415.278 C 1155.86 414.224 1166.85 418.306 1176.06 424.103 C 1245.72 467.983 1257.42 640.34 1163.48 660.99 C 1116.32 663.283 1090.52 628.175 1079.53 585.607 C 1067.12 537.591 1087.91 427.568 1144.83 415.278 z" fill="rgb(247,247,247)" transform="translate(0,0)"></path>
<path d="M 1125.56 498.052 C 1175.92 494.757 1181.58 592.519 1127.5 616.77 C 1073.68 622.089 1074.16 515.457 1125.56 498.052 z" fill="rgb(1,1,1)" transform="translate(0,0)"></path>
<path d="M 1113.91 287.647 C 1117.33 290.311 1125.9 302.068 1129.03 306.395 C 1155.95 343.567 1164.56 368.295 1171.63 412.022 C 1149.03 402.457 1132.32 405.4 1113.88 421.386 C 1102.82 432.384 1099.68 438.706 1091.83 452.046 C 1065.06 417.213 1104.74 377.234 1113.3 342.73 C 1117.95 323.95 1116.56 306.529 1113.91 287.647 z" fill="rgb(29,116,80)" transform="translate(0,0)"></path>
<path d="M 996.673 313.171 C 1010.71 320.201 1022.55 344.241 1028.46 358.126 C 1037.9 380.29 1042.75 420.812 1033.06 443.321 C 1053.15 477.499 1056.64 505.99 1056.35 545.341 C 1055.91 603.052 1019.06 693.254 947.13 680.523 C 925.676 673.204 907.692 658.201 896.645 638.408 C 866.724 584.771 883.305 501.347 919.053 453.96 C 929.546 440.051 942.177 431.602 957.21 423.31 C 971.557 399.265 985.878 374.012 991.961 346.42 C 994.336 335.647 993.757 324.114 996.673 313.171 z" fill="rgb(1,1,1)" transform="translate(0,0)"></path>
<path d="M 973.194 427.131 C 1019.01 423.882 1035.01 454.69 1044.48 494.466 C 1058.47 553.297 1038.63 659.169 967.866 673.086 C 855.699 675.601 870.304 452.469 973.194 427.131 z" fill="rgb(247,247,247)" transform="translate(0,0)"></path>
<path d="M 984.144 501.209 C 1029.32 497.598 1036.39 565.083 1022.32 595.315 C 1015.28 610.435 1008.31 616.443 993.446 622.378 C 942.165 631.451 931.513 523.983 984.144 501.209 z" fill="rgb(1,1,1)" transform="translate(0,0)"></path>
<path d="M 1002.76 330.581 C 1004.91 332.407 1008.14 337.603 1009.7 340.19 C 1027.06 368.958 1034.28 403.798 1026.28 436.618 C 1020.33 431.028 1015.52 427.789 1008.57 423.707 C 995.117 417.272 984.732 417.591 970.457 418.968 C 989.717 388.015 998.226 366.079 1002.76 330.581 z" fill="rgb(29,116,80)" transform="translate(0,0)"></path>
<path d="M 1089.94 664.473 C 1094.16 664.452 1106.49 663.424 1107.55 668.645 C 1110.81 684.629 1087.5 701.432 1073.95 705.539 C 1060.13 709.727 1048.32 708.785 1035.6 702.282 C 1023.93 694.501 1018.67 687.102 1012.69 674.819 C 1041.92 669.456 1060.29 665.633 1089.94 664.473 z" fill="rgb(1,1,1)" transform="translate(0,0)"></path>
<path d="M 1226.03 924.39 C 1263.44 923.518 1300.07 939.374 1329.2 962.397 C 1349.14 978.166 1373.21 1009.96 1349.67 1033.51 C 1326.74 1056.45 1284.62 1059.68 1253.91 1060.17 C 1230.03 1059.94 1128.68 1049.79 1118.29 1014.6 C 1115.36 1004.68 1136.9 969.691 1145.13 959.78 C 1164.96 935.89 1195.22 926.676 1226.03 924.39 z" fill="rgb(57,139,225)" transform="translate(0,0)"></path>
<path d="M 874.551 923.336 C 910.256 919.835 941.967 932.184 971.719 951.44 C 985.724 960.505 1020.25 1007.78 1006.82 1021.5 C 986.607 1042.16 935.238 1050.34 906.239 1053.51 C 889.633 1057.33 858.672 1055.07 841.413 1054.74 C 818.214 1054.25 774.875 1047.18 773.3 1016.9 C 770.595 964.905 830.919 929.591 874.551 923.336 z" fill="rgb(57,139,225)" transform="translate(0,0)"></path>
<path d="M 721.703 386.986 C 752.328 387.97 765.606 434.654 768.772 459.047 C 771.928 483.358 766.922 507.435 750.45 526.158 C 737.388 541.006 717.112 562.836 696.154 564.637 C 667.7 566.819 637.622 555.571 616.015 537.87 C 594.321 520.353 580.436 494.966 577.392 467.249 C 576.436 459.08 577.921 449.605 579.015 441.496 C 587.878 460.062 608.586 476.986 627.236 485.466 C 630.225 486.825 632.4 487.301 635.449 486.009 C 641.244 479.857 633.545 477.752 628.255 475.288 C 606.801 465.299 595.77 452.479 582.536 432.56 C 584.275 428.764 586.209 425.061 588.33 421.465 C 615.432 376.392 669.656 423.005 694.474 443.463 C 696.74 445.331 699.39 445.502 702.129 444.802 C 705.165 435.61 683.015 401.433 720.285 387.505 L 721.703 386.986 z" fill="rgb(247,247,247)" transform="translate(0,0)"></path>
<path d="M 1408.97 368.146 C 1442.9 373.168 1412.76 422.168 1423.69 426.104 C 1432.94 423.904 1451.51 404.366 1463.69 397.256 C 1482.89 386.039 1515.84 367.564 1532.52 395.041 C 1547.69 420.044 1496.06 439.943 1493.34 449.755 C 1508.01 456.404 1534.34 426.232 1541.49 414.899 C 1549.61 428.854 1549.54 440.657 1546.48 455.748 C 1539.37 481.199 1528.04 500.921 1507.11 517.458 C 1485.25 534.737 1460.13 536.685 1433.52 540.137 C 1415.28 528.658 1402.79 516.501 1382.39 505.351 C 1378.08 492.876 1371.37 480.939 1367.17 468.562 C 1360.03 447.509 1367.82 421.59 1377.77 402.644 C 1384.29 390.247 1394.83 372.682 1408.97 368.146 z" fill="rgb(247,247,247)" transform="translate(0,0)"></path>
<path d="M 1371.76 510.719 C 1376.32 511.332 1391.22 519.133 1395.93 523.207 C 1411.6 536.758 1452.63 553.258 1444.04 578.895 C 1442.09 584.734 1434.17 588.935 1428.55 590.809 C 1415.62 588.463 1404.24 578.432 1393.92 570.535 C 1381.91 560.637 1366.74 551.515 1357.25 539.044 C 1347.14 525.751 1362.81 516.539 1371.76 510.719 z" fill="rgb(247,247,247)" transform="translate(0,0)"></path>
<path d="M 1154.18 784.135 C 1155.95 785.59 1159.95 803.764 1160.87 807.491 C 1166.92 831.999 1172.48 855.794 1180.9 879.669 C 1167.25 881.221 1157.73 883.666 1145.13 888.728 C 1140.28 881.904 1122.25 808.52 1118.01 793.831 C 1130.13 791.571 1142.4 787.771 1154.18 784.135 z" fill="rgb(57,139,225)" transform="translate(0,0)"></path>
<path d="M 761.681 523.609 C 776.796 526.698 788.753 538.075 780.477 553.809 C 769.002 575.624 742.354 597.902 719.163 606.041 C 704.824 606.166 700.549 583.955 697.229 572.982 C 725.713 565.497 742.896 545.021 761.681 523.609 z" fill="rgb(247,247,247)" transform="translate(0,0)"></path>
<path d="M 935.312 888.315 C 951.952 889.197 1012.47 900.731 1006.65 929.766 C 1005.4 936.002 997.984 950.497 992.214 953.908 C 988.478 954.017 989.744 954.07 986.024 950.687 C 965.779 932.878 936.504 921.261 910.534 915.134 C 915.719 903.259 921.855 891.522 935.312 888.315 z" fill="rgb(92,92,93)" transform="translate(0,0)"></path>
<path d="M 1186.06 889.396 C 1208.82 887.539 1213.35 892.809 1221.65 913.632 C 1188.4 920.73 1173.11 919.986 1147 943.716 C 1143.28 947.928 1139.24 952.063 1135.37 956.148 C 1095.46 911.015 1148.46 893.003 1186.06 889.396 z" fill="rgb(92,92,93)" transform="translate(0,0)"></path>
<path d="M 983.754 789.412 C 992.838 792.872 1004.45 795.206 1014.05 797.148 C 1010.21 824.91 1002.8 869.521 995.308 896.164 C 983.1 889.608 976.762 886.097 963.594 882.223 C 968.935 852.729 976.643 818.621 983.754 789.412 z" fill="rgb(57,139,225)" transform="translate(0,0)"></path>
<path d="M 775.632 576.66 C 781.018 579.082 812.61 612.181 822.679 616.84 C 828.876 619.708 842.698 656.657 847.743 666.986 L 832.482 658.159 C 795.224 635.649 785.166 626.442 753.87 597.072 C 761.91 590.063 768.106 584.129 775.632 576.66 z" fill="rgb(57,139,225)" transform="translate(0,0)"></path>
<path d="M 1366.45 559.831 C 1372.85 564.55 1380.78 571.337 1387.13 576.444 C 1365.01 593.84 1347.91 613.161 1322.38 631.806 C 1317.57 635.43 1313.19 637.952 1308.03 641.027 C 1311.81 630.061 1314.56 618.336 1317.44 607.07 C 1334.04 595.184 1353.03 575.278 1366.45 559.831 z" fill="rgb(57,139,225)" transform="translate(0,0)"></path>
<metadata><recraft-signature>{"signed_by": "recraft", "signature_b64": "rEOmEXXYHVenXOwXdMHU+svVF7rUJNT6MAtUGeTKgJ0d5x5eZPZcuqlsGwfbfVx4lG4mvFuQ7uJBetGaO7YcDQ==", "signing_algo": "Ed25519", "generation_timestamp": 1783497169, "identifier": "2d0c1372-571f-483f-ad2e-075a44565117"}</recraft-signature></metadata></svg>