<svg xmlns="http://www.w3.org/2000/svg" height="1024" preserveAspectRatio="none" style="display: block;" version="1.1" viewBox="0 0 2048 2048" width="1024">
<path d="M 0 0 L 2048 0 L 2048 2048 L 0 2048 L 0 0 z" fill="rgb(243,93,50)" transform="translate(0,0)"></path>
<path d="M 756.433 1373.72 C 764.396 1342.24 771.553 1307.25 778.993 1275.32 L 837.356 1024.53 C 842.802 1000.36 848.492 976.249 854.426 952.194 C 858.94 933.258 862.32 913.419 868.84 895.198 C 879.105 866.513 908.398 848.834 938.521 854.752 C 976.591 862.232 1013.7 871.486 1051.37 879.834 C 1126.86 895.98 1202.14 913.03 1277.22 930.979 L 1376.86 953.872 C 1405.35 960.212 1421.56 959.407 1446.2 976.52 C 1458.41 981.902 1467.81 994.845 1472.86 1006.93 C 1480.96 1026.25 1473.92 1046.48 1469.93 1066.01 C 1465.17 1089.32 1459.03 1112.54 1453.98 1135.85 L 1396.95 1398.77 C 1391.08 1426.5 1385.71 1454.22 1378.82 1481.73 C 1377.17 1488.32 1375.29 1495.7 1374.4 1502.41 C 1381.78 1514.07 1390.4 1527.96 1394.91 1541.01 C 1411.44 1588.86 1410.17 1647.54 1398.77 1696.45 C 1394.22 1715.99 1385.58 1746.51 1375.2 1762.72 C 1386.71 1794.47 1385.18 1829.48 1370.95 1860.11 C 1355.59 1892.69 1326.54 1915.18 1289.63 1898.34 C 1273.73 1891.08 1252.69 1865.75 1255.62 1847.79 C 1252.72 1828.14 1253.54 1819.17 1255.21 1799.75 C 1234.45 1797.31 1217.76 1793.66 1197.26 1789.24 C 1196.48 1802.94 1189.73 1838.82 1183.93 1850.2 C 1200.26 1851.87 1209.75 1878.64 1211.03 1892.71 C 1238.65 1897.43 1255.1 1900.52 1272.35 1923.19 C 1293.17 1937.09 1287.06 1960.88 1284.78 1981.79 C 1282.95 1998.55 1275.96 2032.61 1252.74 2029.76 C 1234.5 2038.6 1168.61 2016.92 1145.49 2011.09 C 1125.99 2006.17 1051.46 1988.96 1040.65 1978.25 C 1034 1971.55 1030.25 1962.51 1030.21 1953.07 C 1030.11 1939.79 1044.84 1900.02 1051.78 1886.88 C 1053.11 1884.37 1057.22 1880.29 1059.42 1878.11 C 1064.82 1851.85 1076 1840.55 1101.44 1832.21 C 1103.75 1820.77 1112.55 1781.49 1116.01 1772 C 1099.63 1767.4 1081.18 1763.75 1064.44 1759.85 C 1029.74 1751.53 994.922 1743.68 960.008 1736.29 C 943.404 1732.68 927.294 1728.81 910.893 1724.43 C 902.973 1722.32 891.727 1720.58 884.35 1717.84 C 882.781 1724.99 870.606 1777.44 868.386 1780.59 C 888.062 1788.49 893.315 1809.56 892.905 1828.76 C 904.73 1841.97 906.653 1857.9 906.084 1875.09 C 905.435 1894.66 894.127 1946.48 868.31 1946.61 C 857.275 1949 856.143 1950.14 844.832 1947.43 C 810.723 1939.26 777.102 1929.65 742.985 1921.45 L 691.618 1909.48 C 679.994 1906.8 668.307 1904.51 656.971 1900.46 C 642.757 1896.3 636.986 1880.93 642.217 1867.03 C 652.175 1840.58 656.084 1804.35 682.431 1788.78 C 705.841 1774.94 728.168 1785.36 751.814 1791.07 C 760.582 1775.32 770.871 1766.99 789.158 1764.68 C 793.735 1747.1 797.57 1720.87 803.554 1704.72 C 787.92 1703.06 750.418 1696.03 738.945 1684.55 C 736.806 1682.95 735.148 1681.33 733.206 1679.52 C 722.62 1707.89 699.767 1752.57 661.633 1742.07 C 651.922 1741.28 643.94 1741.15 635.418 1735.58 C 584.082 1702.02 613.864 1621.42 651.288 1589.99 C 650.501 1574.29 651.742 1556.16 654.577 1540.75 C 668.421 1465.45 694.119 1418.2 756.433 1373.72 z" fill="rgb(247,247,247)" transform="translate(0,0)"></path>
<path d="M 1446.2 976.52 C 1458.41 981.902 1467.81 994.845 1472.86 1006.93 C 1480.96 1026.25 1473.92 1046.48 1469.93 1066.01 C 1465.17 1089.32 1459.03 1112.54 1453.98 1135.85 L 1396.95 1398.77 C 1391.08 1426.5 1385.71 1454.22 1378.82 1481.73 C 1377.17 1488.32 1375.29 1495.7 1374.4 1502.41 C 1381.78 1514.07 1390.4 1527.96 1394.91 1541.01 C 1411.44 1588.86 1410.17 1647.54 1398.77 1696.45 C 1394.22 1715.99 1385.58 1746.51 1375.2 1762.72 C 1386.71 1794.47 1385.18 1829.48 1370.95 1860.11 C 1355.59 1892.69 1326.54 1915.18 1289.63 1898.34 C 1273.73 1891.08 1252.69 1865.75 1255.62 1847.79 C 1256.35 1850.02 1257.12 1852.24 1257.93 1854.45 C 1280.5 1915.34 1349.61 1907.85 1368.02 1848.59 C 1376.84 1820.22 1380.11 1789.54 1367.47 1761.91 C 1385.4 1723.48 1395.9 1686.95 1399.28 1644.51 C 1402.86 1599.59 1397.03 1539.95 1366.47 1504.49 C 1367.92 1494.77 1372.29 1478.3 1374.53 1467.86 L 1391.22 1390.11 L 1444.94 1143.58 C 1453.01 1106.78 1464.57 1067.7 1469.33 1030.16 C 1471.87 1010.11 1459.17 991.022 1446.2 976.52 z" fill="rgb(1,1,1)" transform="translate(0,0)"></path>
<path d="M 1272.35 1923.19 C 1293.17 1937.09 1287.06 1960.88 1284.78 1981.79 C 1282.95 1998.55 1275.96 2032.61 1252.74 2029.76 C 1260.2 2025.13 1266.62 2020.75 1269.89 2011.35 C 1276 1993.81 1280.81 1964.75 1279.36 1946.37 C 1278.77 1938.86 1274.92 1929.68 1272.35 1923.19 z" fill="rgb(1,1,1)" transform="translate(0,0)"></path>
<path d="M 892.905 1828.76 C 904.73 1841.97 906.653 1857.9 906.084 1875.09 C 905.435 1894.66 894.127 1946.48 868.31 1946.61 C 896.044 1929.58 901.708 1885.34 898.981 1855.4 C 897.976 1844.38 889.152 1839.84 892.905 1828.76 z" fill="rgb(1,1,1)" transform="translate(0,0)"></path>
<path d="M 661.633 1742.07 C 712.212 1735.57 724.155 1679.16 730.691 1677.35 L 733.206 1679.52 C 722.62 1707.89 699.767 1752.57 661.633 1742.07 z" fill="rgb(1,1,1)" transform="translate(0,0)"></path>
<path d="M 1183.93 1850.2 L 1180.52 1848 C 1180.19 1847.4 1179.85 1846.79 1179.52 1846.19 C 1183.9 1829.16 1187.71 1806.58 1191.47 1789.99 C 1193.77 1788.23 1193.41 1788.88 1197.26 1789.24 C 1196.48 1802.94 1189.73 1838.82 1183.93 1850.2 z" fill="rgb(1,1,1)" transform="translate(0,0)"></path>
<path d="M 738.945 1684.55 C 758.856 1689.68 784.845 1695.03 803.482 1700.29 C 804.177 1702.57 804.147 1702.4 803.554 1704.72 C 787.92 1703.06 750.418 1696.03 738.945 1684.55 z" fill="rgb(1,1,1)" transform="translate(0,0)"></path>
<path d="M 868.386 1780.59 C 867.373 1774.29 877.893 1720.49 880.966 1717.18 L 884.35 1717.84 C 882.781 1724.99 870.606 1777.44 868.386 1780.59 z" fill="rgb(1,1,1)" transform="translate(0,0)"></path>
<path d="M 921.408 886.122 C 935.575 884.932 961.272 892.121 976.226 895.447 L 1050.51 912.314 C 1163.24 937.456 1275.82 963.254 1388.24 989.705 C 1411.55 995.3 1440.61 999.177 1435.51 1031.76 C 1431.82 1055.43 1424.92 1078.99 1419.52 1102.39 L 1391.72 1226.46 C 1369.99 1322.18 1351.21 1421.99 1328.31 1517.11 C 1329 1517.48 1329.69 1517.86 1330.38 1518.24 C 1347.48 1527.94 1354.41 1551.46 1359.56 1569.32 C 1375.99 1626.3 1358.45 1709.14 1329.08 1760.46 C 1347.14 1778.17 1345.9 1810.07 1339.3 1834.05 C 1331.89 1860.98 1307.47 1884.5 1288.51 1848.29 C 1286.28 1842.71 1284.62 1835.18 1284.48 1829.17 C 1283.8 1799.98 1289.18 1770.25 1319.16 1758.22 C 1355.4 1703.13 1372.94 1592.17 1334.04 1534.21 C 1332.13 1531.36 1330.5 1529.83 1327.17 1529.38 C 1320.84 1536.96 1295.72 1679.83 1288.29 1700.95 C 1278.28 1729.41 1290.88 1757.03 1249.88 1769.58 C 1220.46 1762.98 1194.49 1755.95 1164.03 1749.82 C 1156.61 1788.98 1148.14 1828.15 1140.31 1867.28 C 1179.18 1873.9 1182.47 1880.27 1174.88 1917.46 C 1193.86 1921.65 1228.03 1924.04 1242.04 1935.95 C 1252.19 1944.58 1246.04 1993.1 1236.86 2000.58 C 1226.58 2000.33 1185.75 1989.12 1173.83 1985.84 C 1137.17 1975.74 1098.07 1966.82 1061.78 1956.28 C 1063.64 1948.49 1075.54 1911.81 1079.8 1906.78 C 1080.74 1906.47 1085.13 1905.05 1085.4 1904.22 C 1096.17 1871.47 1086.07 1857.31 1131.03 1866.29 C 1132.95 1858.6 1134.6 1849.99 1136.27 1842.18 C 1142.54 1812.24 1149.77 1777.61 1154.2 1747.56 C 1103.52 1737.95 1046.15 1723.76 995.717 1711.9 L 853.335 1679.38 C 844.076 1714.66 832.898 1764.39 826.005 1800.46 C 829.892 1801.12 833.771 1801.82 837.64 1802.57 C 867.889 1808.65 862.022 1826.03 857.023 1849.5 C 876.348 1869.34 864.121 1893.62 856.737 1916.66 C 808.03 1907.01 759.083 1891.88 710.603 1880.97 C 699.31 1878.43 685.259 1875.93 674.705 1871.6 C 679.18 1857.22 683.266 1842.93 688.829 1828.93 C 698.814 1803.8 720.565 1815.43 739.581 1820.8 C 750.44 1823.76 761.321 1826.63 772.223 1829.43 C 778.921 1797.25 784.264 1791.08 816.604 1798.61 C 822.069 1764.24 835.705 1711.84 843.705 1676.68 C 813.453 1670.94 780.662 1663.76 751.375 1654.62 C 743.003 1652 732.941 1635.45 733.93 1625.96 C 735.867 1607.37 740.737 1588.81 744.727 1570.49 C 751.856 1537.05 759.408 1503.7 767.382 1470.45 C 772.274 1449.94 778.313 1428.19 782.431 1407.67 C 713.169 1448.22 694.314 1530.17 692.603 1604.64 C 705.007 1617.04 705.675 1629.33 703.802 1646.45 C 701.423 1668.19 681.865 1711.97 654.938 1708.07 C 637.03 1705.49 640.59 1671.66 644.553 1658.74 C 651.15 1637.25 662.782 1617.42 682.6 1605.68 C 685.451 1517.24 704.48 1442.98 785.42 1395.52 C 789.054 1382.78 792.671 1363.13 795.849 1349.68 C 804.15 1315.43 812.228 1281.14 820.083 1246.79 L 872.314 1022.2 L 888.365 950.343 C 891.785 935.129 895.419 915.813 901.545 901.615 C 904.836 893.988 913.523 888.661 921.408 886.122 z" fill="rgb(1,1,1)" transform="translate(0,0)"></path>
<path d="M 922.014 895.2 C 927.957 894.855 934.769 895.616 940.586 896.937 C 982.441 906.446 1024.49 915.796 1066.34 925.271 L 1288.26 975.52 L 1373.95 995.373 C 1387.22 998.501 1403.9 1001.61 1416.39 1006.72 C 1430.71 1012.57 1428.48 1029.46 1425.46 1041.96 C 1420.5 1062.48 1415.23 1083.28 1410.44 1104.04 L 1372.67 1271.45 L 1312.95 1544.49 L 1282.76 1684.32 C 1279.44 1699.69 1275.92 1715.56 1272.97 1730.97 C 1269.47 1749.27 1266.23 1754.45 1248.41 1759.1 C 1240.88 1757.97 1227.39 1754.44 1219.64 1752.7 L 1159.77 1739.3 L 938.975 1689.36 L 819.697 1662.38 C 799.75 1657.94 779.2 1654.37 759.649 1648.22 C 746.835 1644.19 741.21 1630.98 743.867 1618.2 C 758.29 1548.8 775.063 1479.9 791.363 1410.96 L 858.969 1119.92 L 891.363 980.389 C 896.8 956.355 901.958 928.826 909.626 905.331 C 911.334 900.098 917.147 897.114 922.014 895.2 z" fill="rgb(247,247,247)" transform="translate(0,0)"></path>
<path d="M 951.934 931.062 C 963.766 930.823 985.4 936.659 997.975 939.509 L 1063.85 954.406 C 1137.92 970.444 1211.85 987.163 1285.61 1004.56 C 1308.93 1009.98 1332.47 1014.92 1355.74 1020.54 C 1371.9 1024.45 1375.54 1025.38 1383.89 1039.4 C 1382.42 1055 1373.66 1088.29 1369.74 1104.96 L 1346.48 1207.05 C 1333.23 1265 1321.81 1323.83 1308.64 1381.83 C 1306.07 1393.11 1302.27 1397.71 1292.43 1403.43 C 1287.99 1404.68 1280.47 1405.82 1276.01 1404.9 C 1251.85 1399.93 1227.46 1394.57 1203.39 1389.23 L 1076.14 1361.89 L 936.871 1332.09 C 926.733 1329.93 916.629 1327.98 906.437 1326.02 C 897.154 1324.24 887.667 1322.77 878.569 1320.09 C 872.283 1318.24 865.36 1310.93 862.711 1305.06 C 860.642 1300.47 860.482 1295.48 861.304 1290.6 C 865.4 1268.83 870.557 1246.98 875.562 1225.43 L 897.824 1127.37 C 906.908 1085.69 916.455 1044.12 926.464 1002.66 C 931.058 982.977 935.187 961.868 941.056 942.584 C 943.024 936.122 946.058 933.796 951.934 931.062 z" fill="rgb(1,1,1)" transform="translate(0,0)"></path>
<path d="M 953.458 939.988 C 963.974 940.512 978.34 944.679 988.791 947.066 L 1035.39 957.484 L 1147.65 982.576 L 1281.87 1013.34 C 1308.52 1019.32 1335.38 1024.62 1361.84 1031.47 C 1370.66 1034.27 1374.87 1037.38 1372.86 1047.24 C 1363.52 1093.04 1350.98 1138.68 1342 1184.55 C 1340.25 1177.38 1338.42 1170.38 1335.83 1163.5 C 1310.85 1096.93 1220.62 1066.77 1161.74 1108.2 C 1148.09 1117.81 1140.63 1126.82 1130.97 1140.07 C 1118.81 1094.59 1092.9 1063.18 1046.72 1049.35 C 1017.97 1040.52 986.871 1043.61 960.42 1057.94 C 936.956 1070.72 920.902 1091.82 913.593 1117.41 C 905.875 1143.58 909.195 1171.76 922.782 1195.41 C 938.923 1223.68 966.439 1240.99 997.248 1249.46 C 1043.06 1259.47 1091.27 1243.59 1116.76 1203.03 C 1123.05 1230.48 1134.82 1252.34 1157.94 1269.35 C 1185.6 1289.42 1220.02 1297.84 1253.82 1292.79 C 1286.79 1287.76 1309.11 1272.25 1328.49 1246.07 C 1323.17 1268.53 1301.56 1380.52 1294.21 1391.12 C 1292.48 1393.61 1288.77 1394.84 1285.88 1395.35 C 1273.68 1397.52 1204.89 1380.03 1187.82 1376.3 L 966.918 1328.84 C 939.494 1322.99 911.936 1317.52 884.439 1312.02 C 881.895 1311.51 879.663 1310.78 877.713 1309.3 C 874.664 1306.98 869.584 1300.87 870.01 1296.73 C 871.134 1285.84 874.633 1272.57 877.097 1261.79 L 894.997 1184.41 L 932.96 1017.52 C 938.243 994.687 943.166 971.589 948.705 948.814 C 949.696 944.739 950.761 943.05 953.458 939.988 z" fill="rgb(57,139,225)" transform="translate(0,0)"></path>
<path d="M 1215.15 1099.37 C 1242.6 1096.56 1274.01 1105.82 1295.01 1123.49 C 1365.43 1182.73 1332.76 1276.53 1242.23 1284.42 C 1164.5 1292.27 1088.36 1207.66 1144.65 1137.32 C 1163.78 1113.42 1185.05 1102.97 1215.15 1099.37 z" fill="rgb(247,247,247)" transform="translate(0,0)"></path>
<path d="M 1184.6 1133.52 C 1213.02 1130.39 1238.57 1150.95 1241.6 1179.38 C 1244.63 1207.81 1223.98 1233.29 1195.54 1236.22 C 1167.23 1239.14 1141.91 1218.61 1138.89 1190.32 C 1135.88 1162.03 1156.32 1136.63 1184.6 1133.52 z" fill="rgb(1,1,1)" transform="translate(0,0)"></path>
<path d="M 1002.68 1054.35 C 1025.97 1051.04 1052.42 1059.12 1072.74 1071.71 C 1116.29 1098.7 1136.88 1153.36 1108.95 1199.23 C 1093.78 1224.12 1068.52 1235.87 1040.55 1242.02 C 985.991 1250.91 926.973 1212.77 919.763 1156.55 C 916.598 1133.06 923.008 1109.28 937.552 1090.56 C 954.001 1069.32 976.237 1057.84 1002.68 1054.35 z" fill="rgb(247,247,247)" transform="translate(0,0)"></path>
<path d="M 1051.6 1108.26 C 1079.49 1104.6 1105.11 1124.14 1108.96 1152.01 C 1112.8 1179.88 1093.42 1205.62 1065.58 1209.64 C 1037.48 1213.69 1011.45 1194.1 1007.58 1165.98 C 1003.7 1137.86 1023.46 1111.96 1051.6 1108.26 z" fill="rgb(1,1,1)" transform="translate(0,0)"></path>
<path d="M 1015.51 1422.94 C 1016.11 1422.99 1016.71 1423.04 1017.31 1423.09 C 1093.12 1436.86 1078.71 1434.55 1067.57 1495.91 C 1078.79 1498.92 1110.69 1504.18 1117.08 1509.55 C 1118.85 1513.08 1119.87 1516.99 1119.29 1520.98 C 1109.16 1590.51 1107.88 1571.82 1055.01 1563.84 C 1051.98 1577.78 1047.28 1611.17 1037.86 1619.12 C 1025.18 1619.85 1014.6 1616.66 1002.69 1614.03 C 991.255 1611.66 971.244 1608.64 975.147 1592.02 C 978.488 1577.8 981.12 1564.35 983.431 1549.85 C 971.001 1546.32 941.028 1542.33 933.35 1535.33 C 928.525 1524.98 937.767 1480.31 945.439 1473.62 C 950.236 1469.44 987.829 1479.57 996.33 1481.5 C 1001.01 1465.21 1001.64 1443.91 1008.97 1428.66 C 1009.79 1426.96 1013.83 1424.13 1015.51 1422.94 z" fill="rgb(1,1,1)" transform="translate(0,0)"></path>
<path d="M 1018.07 1433.7 C 1027.33 1434.29 1058.58 1441.44 1067.1 1444.8 C 1065.55 1455.9 1054.71 1499.43 1062.79 1503.5 C 1072.73 1508.5 1098.77 1511.78 1111.15 1516.68 C 1109.94 1526.28 1105.67 1550.84 1102.51 1558.9 C 1097.36 1572.06 1064.48 1548.98 1049.57 1554.65 C 1045.69 1557.81 1044.7 1563.81 1043.82 1568.56 C 1041.19 1582.95 1039.02 1596.57 1033.94 1610.41 C 1019.64 1608.48 999.265 1603.18 984.567 1599.93 C 985.301 1586.57 996.361 1553.23 991.115 1544.84 C 987.016 1538.29 951.399 1532.87 940.223 1529.72 C 940.939 1519.36 947.049 1490.16 950.686 1480.61 C 963.18 1483.01 1001.96 1498.23 1005.96 1482.16 C 1009.93 1466.27 1013.03 1449.53 1018.07 1433.7 z" fill="rgb(36,128,61)" transform="translate(0,0)"></path>
<path d="M 1192.73 1433.33 C 1221.01 1428.69 1247.75 1447.7 1252.65 1475.94 C 1257.55 1504.18 1238.78 1531.09 1210.59 1536.25 C 1182.03 1541.48 1154.69 1522.41 1149.72 1493.8 C 1144.76 1465.2 1164.08 1438.03 1192.73 1433.33 z" fill="rgb(1,1,1)" transform="translate(0,0)"></path>
<path d="M 1196.45 1441.95 C 1220.09 1439.24 1241.47 1456.16 1244.26 1479.79 C 1247.05 1503.42 1230.2 1524.86 1206.58 1527.72 C 1182.85 1530.6 1161.3 1513.66 1158.49 1489.92 C 1155.69 1466.18 1172.7 1444.68 1196.45 1441.95 z" fill="rgb(243,210,115)" transform="translate(0,0)"></path>
<path d="M 706.763 1822.87 C 711.957 1823.37 716.261 1824.52 721.255 1825.98 C 757.975 1836.78 795.45 1844.31 832.747 1852.69 C 837.584 1853.78 853.743 1858 855.518 1862.62 C 860.227 1874.88 853.745 1893.96 850.038 1905.74 C 846.815 1905.03 842.513 1903.71 839.23 1902.82 L 687.338 1865.29 C 691.195 1852.28 695.542 1829.44 706.763 1822.87 z" fill="rgb(57,139,225)" transform="translate(0,0)"></path>
<path d="M 1086.17 1914.62 C 1102.78 1915.34 1223.77 1933.87 1231.05 1939.45 C 1234.82 1942.33 1236.53 1946.88 1237.15 1951.45 C 1238.31 1960.05 1236.09 1983.8 1231.31 1990.42 L 1228.79 1990.14 C 1177.33 1975.62 1124.59 1963.94 1074.13 1948.17 L 1086.17 1914.62 z" fill="rgb(57,139,225)" transform="translate(0,0)"></path>
<path d="M 1315.64 1770.76 C 1340.92 1770.65 1337.57 1843.96 1309.84 1856.39 C 1292.12 1850.06 1291.36 1825.52 1293.96 1809.65 C 1296.63 1793.4 1301.89 1780.65 1315.64 1770.76 z" fill="rgb(57,139,225)" transform="translate(0,0)"></path>
<path d="M 1106.7 1872.97 C 1120.63 1872.94 1146.97 1878.44 1160.78 1881.96 C 1171.48 1884.69 1169.42 1905.24 1165.07 1913.62 C 1162.15 1915.78 1163.31 1915.16 1158.77 1914.86 C 1137.53 1911.38 1116.25 1908.11 1094.94 1905.05 C 1097.25 1894.2 1098.78 1880.66 1106.7 1872.97 z" fill="rgb(57,139,225)" transform="translate(0,0)"></path>
<path d="M 686.277 1613.87 C 689.125 1616.25 691.902 1619.01 692.8 1622.68 C 699.049 1648.25 684.379 1689.87 658.851 1698.83 C 643.058 1696.31 655.23 1658.76 659.132 1649.46 C 665.803 1633.55 672.691 1624.22 686.277 1613.87 z" fill="rgb(57,139,225)" transform="translate(0,0)"></path>
<path d="M 793.271 1806.02 C 806.333 1805.48 831.018 1811.85 844.353 1814.26 C 854.104 1816.02 852.236 1835.94 847.881 1843.39 C 844.514 1845.25 845.03 1844.47 840.091 1843.53 C 821.137 1840.29 800.007 1835.4 781.017 1831.45 C 783.668 1820.66 784.301 1812.63 793.271 1806.02 z" fill="rgb(57,139,225)" transform="translate(0,0)"></path>
<path d="M 361.387 69.1704 C 370.978 68.505 379.138 68.0325 388.694 69.6197 C 408.944 72.864 427.023 84.1551 438.824 100.928 C 452.247 120.279 454.642 138.631 450.395 161.246 C 500.603 156.983 550.681 155.33 601.285 151.409 C 637.437 148.608 671.542 164.308 679.434 202.965 C 684.027 225.465 684.083 253.118 685.644 276.595 L 694.455 422.213 C 697.244 468.5 700.285 514.771 703.576 561.024 C 705.403 585.478 707.826 609.955 708.95 634.435 C 721.621 645.816 728.058 653.013 737.867 667.244 C 768.944 712.332 785.621 802.368 774.587 855.2 C 786.704 878.597 796.795 905.235 798.9 932.113 C 801.534 965.733 783.7 1008.23 744.457 1008.49 C 725.399 1008.62 710.2 997.437 697.407 984.115 C 678.154 993.609 637.151 994.775 614.724 996.131 C 615.541 1016.46 618.178 1041.66 619.689 1062.3 C 651.347 1077.65 650.674 1092.74 653.188 1123.89 C 673.203 1144.01 683.086 1158.78 686.417 1187.92 C 689.965 1218.94 674.778 1234.15 644.142 1235.3 C 613.664 1237.08 583.088 1237.1 552.636 1240.07 C 522.71 1242.98 491.375 1238.1 490.164 1200.45 C 489.349 1175.14 498.684 1151.02 515.92 1132.16 C 513.375 1099.57 519.036 1087.57 543.307 1066.69 C 542.336 1044.5 540.224 1023.52 539.561 1000.68 C 513.829 1002.01 486.984 1004.05 461.246 1005.84 C 408.566 1008.93 355.913 1012.87 303.214 1014.99 C 305.21 1034.74 306.049 1056.94 307.624 1077.11 C 336.448 1091.77 338.777 1111.63 335.903 1140.63 C 365.5 1167.17 386.181 1236.2 331.42 1249.44 C 317.561 1252.79 295.318 1252.36 280.409 1253.52 C 255.512 1255.46 229.093 1257.81 204.217 1256.43 C 175.122 1254.46 163.798 1224.54 167.798 1199.22 C 172.423 1169.94 183.08 1152.23 206.506 1134.78 C 199.66 1108.54 209.875 1091.14 233.203 1079.18 C 231.465 1059.76 229.917 1040.32 228.559 1020.87 C 194.503 1024.52 187.393 1024.35 155.869 1012.38 C 146.891 1022.71 136.18 1028.26 122.954 1029.93 C 58.3419 1038.53 44.2896 964.525 53.5269 916.412 C 57.9252 893.503 63.5195 890.909 59.0597 866.296 C 48.047 805.521 49.0578 736.856 79.9749 681.865 C 87.6606 668.195 97.4641 656.04 107.238 643.76 C 107.564 610.654 104.42 571.831 102.698 538.506 L 90.7393 320.108 C 89.5095 297.015 87.3663 274.086 86.3184 250.898 C 85.3907 230.368 90.1662 214.48 104.331 199.227 C 111.5 191.811 121.752 184.105 131.958 181.696 C 149.336 177.594 169.625 177.379 187.465 176.296 C 227.458 173.862 267.488 172.077 307.539 170.94 C 305.536 166.622 303.661 161.53 302.579 156.871 C 298.369 138.032 301.831 118.293 312.2 102.011 C 323.68 83.638 340.643 73.8631 361.387 69.1704 z" fill="rgb(247,247,247)" transform="translate(0,0)"></path>
<path d="M 371.425 100.348 C 406.519 98.4264 437.138 136.447 409.771 166.517 C 411.125 175.144 411.337 188.1 411.715 197.195 L 557.479 187.106 C 576.221 185.896 596.404 183.354 615.171 183.739 C 624.169 184.289 628.642 186.346 635.552 191.644 C 653.207 205.181 649.852 233.551 650.742 254.65 C 651.76 278.685 652.996 302.711 654.448 326.724 L 665.613 507.586 C 668.024 555.458 670.893 603.306 674.22 651.124 C 730.231 683.023 747.949 762.558 744.646 822.153 C 743.804 837.338 741.135 852.064 738.191 866.935 C 761.704 887.989 769.122 927.675 762.414 957.593 C 760.096 967.93 750.008 980.088 738.371 975.219 C 702.555 960.233 692.755 883.84 730.116 866.314 C 741.411 796.796 737.784 710.61 676.309 664.425 C 681.146 749.919 687.481 835.321 695.311 920.592 C 699.1 961.593 669.693 957.671 639.83 959.748 C 619.519 961.11 599.214 962.573 578.918 964.139 C 578.952 975.728 581.048 995.182 581.933 1007.45 L 588.028 1096.05 C 598.563 1095.2 605.158 1095.12 615.557 1096.39 C 618.311 1108.98 618.862 1124.15 617.294 1136.9 C 639.688 1150.13 649.625 1167.2 652.089 1193.01 C 652.4 1196.27 652.5 1198.27 650.322 1200.94 C 639.503 1203.03 529.443 1209.1 524.58 1205.94 C 511.934 1187.78 538.528 1155.11 550.95 1142.85 C 550.347 1132.82 549.484 1122.64 549.343 1112.61 C 549.081 1093.95 565.777 1096.55 578.484 1097.09 C 576.664 1052.98 573.478 1008.94 568.931 965.035 C 525.781 968.915 480.685 970.506 437.245 973.781 C 382.291 977.502 323.634 982.842 268.937 985.234 C 271.15 1021.67 274.155 1074.66 274.055 1110.88 C 313.84 1105.59 301.847 1124.56 301.944 1157.8 C 316.262 1164.92 326.96 1177.3 330.513 1193.13 C 332.096 1200.18 333.64 1209.81 329.666 1216.18 C 323.839 1219.67 216.834 1226.09 206.429 1222.89 C 191.057 1218.16 205.446 1176.39 216.326 1167.89 C 223.599 1162.2 228.555 1157.17 241.423 1150.84 L 237.345 1127.41 C 236.453 1122.02 235.471 1119.02 238.675 1114.52 C 244.741 1110.26 258.173 1111.09 266.138 1110.92 C 264.847 1069.78 261.596 1027.09 259.567 985.73 C 242.638 986.606 225.084 988.601 208.148 989.058 C 155.972 990.468 155.998 965.889 153.972 926.473 L 151.011 855.957 L 141.634 668.529 C 131.685 680.089 123.827 689.979 116.609 703.546 C 90.0684 753.433 89.5628 828.574 106.368 882.238 C 127.536 892.235 133.766 913.208 139.12 934.592 C 143.895 953.667 139.929 993.675 115.977 997.649 C 95.9505 1000.97 87.0278 979.15 85.973 962.794 C 84.3248 940.066 83.0747 903.562 98.1217 885.03 C 77.3849 802.122 77.6227 720.784 141.786 656.864 L 118.946 261.548 C 117.812 242.55 118.716 217.051 143.265 213.218 C 160.351 210.55 179.155 210.927 196.67 209.709 C 246.145 206.355 295.647 203.413 345.171 200.884 C 344.431 189.107 344.059 179.324 344.056 167.527 C 317.904 139.008 335.264 104.375 371.425 100.348 z" fill="rgb(1,1,1)" transform="translate(0,0)"></path>
<path d="M 598.446 194.591 C 610.767 193.475 623.584 191.974 632.898 201.673 C 638.376 207.376 638.993 218.099 639.495 225.65 C 641.882 261.548 643.188 297.501 645.397 333.41 L 666.456 671.577 L 679.617 855.99 C 681.341 880.592 684.217 907.478 684.702 932.121 C 684.835 938.859 679.871 942.951 675.047 947.069 C 661.623 949.564 640.099 950.398 625.575 951.424 L 537.314 957.579 L 215.25 978.88 C 195.095 979.757 170.557 981.567 166.828 955.561 C 164.755 941.103 164.894 926.056 164.163 911.426 L 160.087 834.127 L 146.785 572.505 L 135.487 372.492 C 132.815 330.789 130.11 289.039 128.012 247.318 C 127.494 237.025 133.432 224.693 144.33 223.203 C 160.543 220.987 177.918 220.511 194.317 219.599 L 287.216 214.437 C 390.997 208.428 494.742 201.812 598.446 194.591 z" fill="rgb(243,93,50)" transform="translate(0,0)"></path>
<path d="M 590.818 225.426 C 594.84 225.063 596.148 224.728 600.01 225.55 C 601.989 226.957 602.916 228.162 603.758 230.399 C 605.5 235.024 608.15 312.741 608.923 326.516 L 616.341 456.998 C 617.415 473.189 627.338 602.393 623.584 610.665 C 610.694 615.384 535.469 618.529 516.892 619.76 L 204.25 639.094 C 198.626 639.59 194.752 640.736 190.508 637.206 C 188.693 629.981 186.516 583.247 185.933 573.783 L 176.43 401.845 L 170.069 299.441 C 169.517 289.461 167.453 263.195 168.978 254.364 C 179.165 249.269 344.392 241.292 363.417 240.104 L 590.818 225.426 z" fill="rgb(1,1,1)" transform="translate(0,0)"></path>
<path d="M 587.305 235.423 C 590.091 235.041 590.737 234.576 593.191 235.682 C 595.827 239.637 598.426 330.124 600.184 342.666 C 601.879 354.761 603.428 391.956 604.061 406.308 C 583.715 342.496 518.482 309.994 455.273 336.981 C 420.432 351.856 406.863 373.219 393.18 407.279 C 381.711 387.669 371.391 369.825 352.092 356.971 C 325.208 339.064 299.112 336.624 268.422 342.145 C 225.742 351.874 203.126 377.558 186.496 416.324 C 186.827 403.359 184.433 380.134 183.646 366.246 C 181.663 331.304 179.039 297.158 178.552 262.072 C 211.465 260.301 244.272 257.19 277.175 255.112 L 587.305 235.423 z" fill="rgb(57,139,225)" transform="translate(0,0)"></path>
<path d="M 605.584 445.945 C 607.492 455.767 608.76 486.982 609.476 498.532 L 616.09 603.731 C 604.143 605.404 584.26 605.994 571.778 606.749 L 490.914 611.839 L 199.089 630.17 C 196.92 594.443 193.818 556.076 192.796 520.535 L 190.095 483.949 C 193.869 490.866 197.768 498.259 202.409 504.36 C 235.652 548.059 297.921 558.767 345.677 533.301 C 371.56 519.498 385.237 498.352 396.193 472.804 C 397.125 474.621 398.085 476.422 399.075 478.207 C 412.74 502.753 438.045 520.133 464.781 527.68 C 495.855 536.285 529.081 532.088 557.039 516.025 C 585.317 499.82 597.451 476.245 605.584 445.945 z" fill="rgb(57,139,225)" transform="translate(0,0)"></path>
<path d="M 284.572 347.83 C 337.531 343.956 383.609 383.733 387.511 436.689 C 391.412 489.646 351.661 535.746 298.706 539.676 C 245.711 543.608 199.569 503.82 195.665 450.823 C 191.76 397.827 231.573 351.706 284.572 347.83 z" fill="rgb(247,247,247)" transform="translate(0,0)"></path>
<path d="M 320.8 393.187 C 348.498 389.6 373.84 409.199 377.333 436.91 C 380.825 464.62 361.139 489.895 333.416 493.292 C 305.828 496.673 280.702 477.103 277.227 449.527 C 273.751 421.95 293.235 396.757 320.8 393.187 z" fill="rgb(1,1,1)" transform="translate(0,0)"></path>
<path d="M 491.249 337.347 C 542.512 333.786 589.331 367.798 595.519 420.01 C 598.39 443.487 591.782 467.14 577.16 485.731 C 557.329 510.547 533.003 519.626 502.562 522.806 C 420.415 525.307 365.02 446.109 419.666 376.722 C 437.872 353.605 462.11 341.099 491.249 337.347 z" fill="rgb(247,247,247)" transform="translate(0,0)"></path>
<path d="M 457.5 383.39 C 485.57 380.938 510.319 401.687 512.804 429.753 C 515.288 457.82 494.567 482.593 466.504 485.11 C 438.394 487.63 413.572 466.868 411.084 438.756 C 408.595 410.644 429.386 385.846 457.5 383.39 z" fill="rgb(1,1,1)" transform="translate(0,0)"></path>
<path d="M 405.288 697.403 C 410.736 696.718 413.772 695.913 418.565 698.351 C 422.233 702.238 422.757 743.717 423.114 752.069 C 434.743 752.064 464.714 749.022 473.713 751.286 C 478.266 754.846 478.766 785.389 479.774 792.615 C 483.245 817.49 474.455 814.337 455.198 815.531 C 445.699 816.129 436.215 816.935 426.751 817.947 C 431.061 885.721 446.271 874.814 379.669 880.841 C 375.297 881.125 368.224 882.195 364.718 879.768 C 361.473 871.726 360.225 833.391 359.612 822.553 C 349.061 823.028 312.877 827.091 305.967 824.308 C 302.196 815.845 299.4 772.226 301.709 763.128 C 305.827 759.887 347.229 758.221 355.365 757.692 C 354.919 741.131 352.615 724.607 352.644 708.122 C 352.647 706.362 354.094 704.339 355.103 702.99 C 361.093 699.102 394.866 698.34 405.288 697.403 z" fill="rgb(1,1,1)" transform="translate(0,0)"></path>
<path d="M 408.887 707.433 C 410.927 710.02 413.228 755.372 413.993 762.761 C 430.195 763.804 450.094 761.657 466.793 760.778 C 468.251 774.992 469.846 789.734 469.964 803.999 C 458.056 805.607 425.18 805.615 418.524 810.857 C 414.487 817.255 417.528 833.038 418.176 841.144 C 418.818 850.008 419.234 858.887 419.422 867.773 L 372.588 870.092 C 371.378 853.317 371.079 836.545 370.047 819.802 C 369.934 817.972 368.521 815.976 367.442 814.565 C 365.861 813.565 363.73 812.39 361.846 812.457 C 345.362 813.035 329.635 814.349 313.073 814.328 C 312.189 799.918 311.468 785.499 310.908 771.073 C 379.905 765.039 365.885 777.585 363.862 710.073 C 378.765 709.844 393.994 708.53 408.887 707.433 z" fill="rgb(57,139,225)" transform="translate(0,0)"></path>
<path d="M 545.999 669.737 C 572.998 665.13 598.621 683.277 603.236 710.275 C 607.852 737.272 589.713 762.901 562.717 767.525 C 535.709 772.152 510.065 754.003 505.448 726.993 C 500.83 699.983 518.988 674.345 545.999 669.737 z" fill="rgb(1,1,1)" transform="translate(0,0)"></path>
<path d="M 545.728 679.579 C 567.178 674.861 588.391 688.431 593.1 709.883 C 597.809 731.335 584.231 752.542 562.777 757.242 C 541.335 761.94 520.143 748.371 515.437 726.932 C 510.731 705.492 524.29 684.295 545.728 679.579 z" fill="rgb(243,210,115)" transform="translate(0,0)"></path>
<path d="M 261.257 1155.31 C 278.248 1154.22 298.252 1161.23 310.174 1173.46 C 321.66 1185.25 323.959 1194.31 324.204 1209.94 L 268.245 1213.8 C 249.548 1215.04 226.37 1217.24 208.14 1216.86 C 206.757 1180.98 227.088 1160.38 261.257 1155.31 z" fill="rgb(57,139,225)" transform="translate(0,0)"></path>
<path d="M 583.773 1140.31 C 621.713 1137.32 639.015 1159.73 644.465 1193.74 C 625.646 1194.44 606.831 1195.24 588.021 1196.14 C 571.149 1197.29 548.336 1200.03 532.022 1197.89 C 523.199 1196.74 539.717 1169.23 542.01 1165.67 C 552.744 1149 564.64 1143.64 583.773 1140.31 z" fill="rgb(57,139,225)" transform="translate(0,0)"></path>
<path d="M 366.913 111.169 C 374.727 110.676 379.787 110.32 387.553 113.084 C 402.555 118.422 415.66 134.566 408.158 150.8 C 403.795 160.24 395.584 164.807 386.132 168.237 C 368.606 172.209 347.545 163.934 342.643 145.484 C 340.848 138.672 341.846 131.426 345.416 125.354 C 350.677 116.539 357.701 113.677 366.913 111.169 z" fill="rgb(245,177,45)" transform="translate(0,0)"></path>
<path d="M 105.634 889.493 C 131.461 902.909 145.329 966.76 118.54 988.417 C 96.4037 994.849 93.2055 967.451 92.5893 951.957 C 91.8041 932.214 91.7122 904.926 105.634 889.493 z" fill="rgb(57,139,225)" transform="translate(0,0)"></path>
<path d="M 728.448 873.559 C 752.467 873.771 771.934 960.181 743.083 968.79 C 709.719 955.275 704.134 899.031 728.448 873.559 z" fill="rgb(57,139,225)" transform="translate(0,0)"></path>
<path d="M 559.233 1105.13 L 609.888 1104.52 C 609.848 1110.24 610.457 1128.58 607.634 1132.33 L 604.773 1131.94 C 586.854 1128.46 575.224 1132.09 559.046 1138.31 C 558.568 1127.66 558.091 1115.65 559.233 1105.13 z" fill="rgb(57,139,225)" transform="translate(0,0)"></path>
<path d="M 283.3 1118.4 C 285.396 1118.04 291.448 1117.92 293.867 1117.81 C 293.651 1129.44 293.549 1141.07 293.559 1152.7 C 282.067 1148.85 275.606 1147.41 263.614 1146.9 C 258.259 1146.94 254.654 1147.5 249.392 1148.21 C 247.578 1138.41 246.617 1130.03 245.674 1120.13 C 259.157 1119.93 269.904 1119.73 283.3 1118.4 z" fill="rgb(57,139,225)" transform="translate(0,0)"></path>
<path d="M 354.17 173.794 C 371.551 182.163 383.073 181.303 400.5 173.69 L 401.544 196.062 L 401.29 196.61 C 397.503 198.854 360.34 199.854 354.147 200.137 L 354.17 173.794 z" fill="rgb(245,177,45)" transform="translate(0,0)"></path>
<path d="M 1530.35 116.254 C 1547.39 114.794 1567.34 120.111 1579.72 132.406 C 1590.76 143.387 1598.35 158.774 1607.68 171.248 C 1617.83 184.837 1627.93 198.447 1637.98 212.116 L 1729.29 335.422 C 1743.06 354.082 1757.09 372.26 1770.34 391.32 C 1825.53 410.014 1869.56 430.98 1901.47 482.629 C 1908.26 493.63 1913.63 506.134 1921.74 516.158 C 1924.92 520.082 1933.24 523.931 1936.99 527.806 C 1951.66 546.197 1976.3 565.502 1982.78 588.588 C 1993.51 626.794 1964.27 639.172 1934.9 647.434 C 1924.21 680.253 1898.01 690.787 1872.15 711.921 C 1874.96 717.052 1878.9 723.145 1882 728.229 C 1916.4 726.158 1974.09 767.104 1978.52 803.154 C 1979.7 827.068 1946.02 842.898 1931.06 855.117 C 1889.25 889.261 1866.32 911.829 1832.45 851.503 C 1822.72 834.19 1804.05 817.686 1822.49 797.878 C 1821.44 793.946 1820.14 790.059 1819.46 786.021 C 1818.23 778.678 1819.71 759.927 1810.74 757.38 C 1796.43 762.369 1771.17 782.95 1758.37 792.285 C 1730.99 812.261 1704.03 835.491 1676.63 855.189 C 1685.19 863.566 1694.77 877.86 1701.91 887.88 C 1737.57 879.748 1770.3 897.233 1790.46 926.46 C 1797.11 938.033 1800.91 952.624 1789.65 963 C 1768.91 982.095 1741.25 996.786 1719.69 1014.49 C 1666.9 1057.85 1640.54 1004.61 1643.49 955.918 C 1641.93 954.194 1640.4 952.442 1638.91 950.662 C 1627.97 937.536 1627.53 922.196 1641.23 911.094 C 1636.63 905.067 1631.96 899.093 1627.23 893.172 C 1601.69 909.016 1594.5 923.913 1559.51 909.815 C 1556.79 948.34 1517.26 962.174 1487.88 940.701 C 1461.75 921.608 1445.05 889.41 1439.62 857.704 C 1421.9 845.422 1406.48 830.139 1394.02 812.546 C 1367.67 775.545 1354.33 728.952 1361.92 683.695 L 1226.1 504.289 C 1209.18 481.991 1181.53 449.971 1166.74 427.493 C 1163.46 422.442 1161.11 416.845 1159.8 410.966 C 1155.76 392.074 1166.29 372.82 1181.56 362.096 C 1197.26 351.07 1213.16 340.36 1228.69 329.094 C 1275.09 294.8 1321.72 260.825 1368.59 227.171 L 1452.51 165.266 C 1473.12 149.791 1505.92 120.164 1530.35 116.254 z" fill="rgb(247,247,247)" transform="translate(0,0)"></path>
<path d="M 1532.25 147.064 C 1534.81 146.93 1537.38 146.886 1539.94 146.932 C 1544.89 147.062 1553.33 149.187 1556.33 153.295 C 1605.25 219.988 1653.87 287.341 1704.05 353.202 C 1719.67 373.697 1737.79 402.687 1755.32 420.811 C 1833.76 439.373 1864.64 475.249 1899.52 544.613 C 1913.99 546.549 1923.43 559.056 1932.28 569.815 C 1939.77 578.925 1954.53 593.794 1952.07 605.95 C 1949.25 610.656 1939.96 612.008 1934.47 613.383 C 1914.78 607.321 1906.66 589.359 1894.03 574.33 C 1885.83 564.58 1885.69 559.543 1894.5 551.283 C 1873.58 494.78 1823.82 440.622 1762.57 430.077 C 1772.44 444.898 1785.73 460.87 1796.62 475.32 L 1837.53 530.513 C 1859.94 560.132 1883.33 589.868 1904.5 620.467 C 1909.17 627.212 1908.27 641.275 1902.36 647.403 C 1894.5 655.567 1884.31 662.068 1875.07 668.93 C 1858.9 680.837 1842.84 692.9 1826.9 705.119 C 1839.76 724.618 1854.12 746.403 1869.21 764.106 C 1886.12 758.442 1888.23 758.293 1901.72 769.935 C 1925.31 769.864 1935.93 784.87 1947.28 802.648 C 1941.18 808.163 1878.13 855.933 1875.82 856.321 C 1867.4 850.145 1854.79 828.677 1850.13 818.856 C 1848.86 816.169 1859.24 807.674 1861.33 805.839 C 1856.55 797.785 1854.01 793.456 1851.04 784.637 C 1854.73 777.748 1857.63 774.772 1862.83 769.199 C 1849.83 748.717 1835.35 730.223 1822.05 709.003 C 1759.77 754.412 1698.72 801.497 1638.98 850.207 C 1654.48 868.133 1668.48 891.437 1685.08 907.812 C 1705.74 894.129 1708.39 901.026 1721.66 918.897 C 1740.84 917.787 1755.18 928.983 1766.79 943.197 L 1765.56 944.244 C 1749.07 958.061 1704.97 985.642 1685.65 1000.34 C 1684.61 1000.26 1683.57 1000.17 1682.53 1000.09 C 1673.43 994.537 1671.21 974.237 1670.31 964.211 C 1670 960.663 1671.63 955.126 1672.64 951.576 C 1659.48 927.145 1651.95 934.71 1676.79 911.702 C 1661.52 894.506 1647.97 873.256 1632.17 855.62 C 1612.48 869.09 1586.99 899.187 1560.58 880.232 C 1545.13 869.145 1530.68 848.446 1518.17 833.814 C 1487.25 797.627 1459.21 758.892 1428.94 722.15 C 1424.3 716.504 1408.48 695.708 1404 692.804 L 1402.12 694.33 C 1396.99 704.839 1399.16 728.176 1401.74 738.672 C 1415.17 793.24 1455.79 833.827 1505.42 857.451 C 1516.62 862.779 1526.55 880.715 1529.12 892.97 C 1534.4 918.082 1522.24 930.427 1499.79 913.212 C 1479.64 896.301 1471.04 871.597 1468.37 845.548 C 1458.69 837.935 1448.93 830.205 1440.43 821.286 C 1409.06 788.385 1374.3 728.014 1398.84 682.925 C 1358.4 631.088 1320.21 577.18 1280.22 525.128 C 1260.34 499.215 1240.61 473.186 1221.04 447.041 C 1211.08 433.861 1199.65 420.166 1191.23 405.911 C 1189.72 404.338 1189.73 398.588 1191.12 396.628 C 1200.15 383.845 1224.73 369.44 1237.25 360.335 L 1375.37 260.558 L 1466.56 193.15 C 1481.95 181.667 1516.78 153.556 1532.25 147.064 z" fill="rgb(1,1,1)" transform="translate(0,0)"></path>
<path d="M 1535.31 155.054 C 1543.06 154.773 1547.12 154.437 1552.17 160.987 C 1558.86 169.665 1564.73 178.855 1571.14 187.74 L 1622.47 258.947 C 1691.72 353.874 1763.91 446.525 1834.06 540.774 C 1850.36 562.662 1867.35 583.924 1883.22 606.133 C 1887.43 612.018 1893.43 618.751 1896.36 625.315 C 1898.24 629.513 1898.28 635.723 1896.14 639.839 C 1892.88 646.096 1845.62 678.616 1836.54 685.546 C 1782.55 726.718 1728.97 768.428 1675.81 810.669 L 1622.88 852.217 C 1613.12 859.931 1599.56 872.152 1588.97 877.708 C 1582.46 881.122 1572.8 878.149 1566.32 875.335 C 1555.99 868.738 1527.33 831.431 1517.21 819.043 C 1432.05 712.919 1349.12 605.027 1268.47 495.437 L 1224.19 437.132 C 1216.78 427.297 1204.05 410.909 1198.36 400.42 C 1211.69 387.802 1249.16 362.487 1265.18 350.998 L 1388.64 261.635 C 1416.64 241.254 1444.85 220.139 1472.85 199.82 C 1488.08 188.763 1519.94 162.123 1535.31 155.054 z" fill="rgb(48,162,123)" transform="translate(0,0)"></path>
<path d="M 1535.59 182.719 C 1539.09 183.704 1566.35 224.41 1570.33 229.859 L 1678.68 377.718 C 1688.87 391.654 1722.45 434.219 1727.17 446.973 C 1721.03 452.276 1708.23 459.426 1700.95 464.543 C 1688.33 473.417 1676.21 482.203 1663.84 491.461 L 1495.9 617.172 C 1483.01 626.745 1447.25 656.205 1435.13 662.044 C 1431.73 661.741 1433.43 662.229 1430.24 659.287 C 1408.5 634.752 1387.95 604.673 1366.63 579.204 C 1358.89 566.954 1340.23 552.714 1333.31 540.948 C 1312.93 506.271 1289.32 476.789 1263.87 445.736 C 1257.01 437.362 1235.75 412.207 1233.65 403.731 C 1241.27 395.84 1260.48 383.553 1270.59 376.516 C 1284.24 366.846 1297.79 357.036 1311.24 347.089 C 1386.48 292.922 1461.27 238.13 1535.59 182.719 z" fill="rgb(1,1,1)" transform="translate(0,0)"></path>
<path d="M 1534.4 196.074 C 1537.72 199.044 1552.39 220.202 1556.41 225.508 C 1574.49 249.353 1592.08 275.142 1610.91 298.311 C 1566.66 271.37 1508.15 284.392 1479.77 327.485 C 1463.11 352.799 1459.83 379.418 1465.37 408.662 C 1456.53 403.808 1449.06 400.669 1439.23 398.231 C 1413.34 391.663 1385.89 395.793 1363.07 409.692 C 1340.73 423.525 1326.55 443.784 1320.7 469.332 C 1318.18 479.331 1317.91 489.668 1317.6 499.914 C 1293.6 468.586 1268.02 437.444 1243.61 406.417 C 1281.54 379.508 1319.24 352.267 1356.7 324.696 L 1534.4 196.074 z" fill="rgb(57,139,225)" transform="translate(0,0)"></path>
<path d="M 1646.54 348.507 C 1653.11 355.709 1664.56 373.583 1671.12 382.15 C 1686.32 401.989 1701.4 422.532 1715.84 442.924 C 1711.73 446.489 1707.33 449.832 1702.86 452.938 C 1665.85 478.666 1630.03 506.028 1594 533.127 C 1558.72 559.874 1523.3 586.442 1487.75 612.827 C 1472.58 624.169 1450.23 642.471 1434.78 651.831 L 1428.17 644.224 C 1407.44 618.156 1389.46 593.211 1367.86 566.895 C 1384.18 570.894 1398.56 573.178 1415.44 570.954 C 1458.87 565.232 1498.19 526.444 1501.84 482.299 C 1502.62 472.759 1501.88 465.198 1500.63 455.736 C 1518.16 463.33 1535.16 467.968 1554.49 466.479 C 1596.15 463.272 1636.46 431.642 1645.74 390.281 C 1648.82 376.597 1647.6 362.322 1646.54 348.507 z" fill="rgb(57,139,225)" transform="translate(0,0)"></path>
<path d="M 1550.14 293.306 C 1591.04 287.517 1629.66 312.542 1637.54 353.718 C 1647.4 405.246 1611.18 447.088 1561.97 456.727 C 1448.23 473.88 1439.01 311.666 1550.14 293.306 z" fill="rgb(247,247,247)" transform="translate(0,0)"></path>
<path d="M 1512.09 355.199 C 1570.24 350.697 1592.05 425.467 1538.31 440.833 C 1478.75 448.439 1459.81 365.759 1512.09 355.199 z" fill="rgb(1,1,1)" transform="translate(0,0)"></path>
<path d="M 1406.49 404.341 C 1443.66 400.621 1486.06 420.796 1492.87 460.128 C 1501.32 508.944 1462.66 553.641 1415.95 561.929 L 1414.25 562.213 C 1304.61 579.406 1292.64 419.467 1406.49 404.341 z" fill="rgb(247,247,247)" transform="translate(0,0)"></path>
<path d="M 1434.89 420.389 C 1493.53 423.076 1504.87 502.602 1445.97 508.542 C 1434.83 508.631 1424.94 506.382 1415.67 499.869 C 1405.07 492.291 1398.05 480.688 1396.27 467.783 C 1392.28 440.796 1408.73 423.129 1434.89 420.389 z" fill="rgb(1,1,1)" transform="translate(0,0)"></path>
<path d="M 1605.82 617.126 C 1625.56 616.263 1632.75 629.427 1641.74 644.299 C 1651.14 635.615 1662.46 628.326 1675.88 631.879 C 1690.9 635.855 1701.03 654.292 1696.65 669.109 C 1693.49 679.814 1684.53 685.353 1675.43 690.435 C 1696.35 711.706 1692.96 741.818 1661.22 746.361 C 1641.23 745.875 1635.52 736.041 1625.68 720.479 C 1624.65 721.207 1623.62 721.928 1622.58 722.64 C 1613.08 729.161 1602.46 734.763 1590.59 732.24 C 1575.87 729.113 1563.91 713.875 1567.74 698.657 C 1570.82 686.391 1582.61 680.554 1592.52 674.406 C 1573.53 649.132 1570.2 627.849 1605.82 617.126 z" fill="rgb(1,1,1)" transform="translate(0,0)"></path>
<path d="M 1603.15 627.103 C 1627.83 623.317 1624.69 644.965 1639.39 653.122 C 1650.45 654.904 1670.32 620.515 1687.83 652.768 C 1698.27 672.008 1664.75 683.035 1662.88 688.452 C 1667.66 701.63 1700.01 721.682 1663.9 736.938 C 1641.04 738.29 1640.7 722.7 1627.75 708.287 C 1617.57 713.439 1603.78 727.013 1593.49 723.903 C 1571.6 717.287 1570.55 694.707 1591.31 685.426 C 1594.69 683.912 1602.33 678.844 1605.46 676.993 C 1592.18 658.117 1574.12 641.588 1603.15 627.103 z" fill="rgb(245,177,45)" transform="translate(0,0)"></path>
<path d="M 1710.18 511.307 C 1733.43 506.3 1756.34 521.075 1761.37 544.319 C 1766.4 567.563 1751.64 590.486 1728.4 595.536 C 1705.13 600.594 1682.17 585.816 1677.14 562.542 C 1672.1 539.267 1686.9 516.321 1710.18 511.307 z" fill="rgb(1,1,1)" transform="translate(0,0)"></path>
<path d="M 1714.79 519.898 C 1733.11 517.625 1749.83 530.579 1752.21 548.889 C 1754.59 567.2 1741.73 583.993 1723.43 586.474 C 1704.99 588.975 1688.03 575.991 1685.63 557.532 C 1683.23 539.073 1696.32 522.189 1714.79 519.898 z" fill="rgb(245,177,45)" transform="translate(0,0)"></path>
<path d="M 1908.45 777.947 C 1923.26 780.226 1929.71 789.159 1937.74 800.618 C 1926 810.968 1895.37 832.257 1881.5 842.743 L 1875.5 847.23 C 1869.9 838.093 1863.62 828.869 1857.69 819.901 C 1867.54 809.349 1896.04 787.979 1908.45 777.947 z" fill="rgb(247,247,247)" transform="translate(0,0)"></path>
<path d="M 1723.4 927.181 C 1738.04 924.929 1746.1 931.602 1755 942.213 C 1736.08 955.781 1716.95 969.05 1697.61 982.014 C 1693.46 985.017 1689.21 988.548 1685.19 991.765 C 1665.81 954.405 1683.18 952.86 1712.05 932.342 C 1715.22 930.094 1719.8 928.46 1723.4 927.181 z" fill="rgb(247,247,247)" transform="translate(0,0)"></path>
<path d="M 1477.74 853.376 C 1499.62 860.801 1531.28 885.171 1521.75 911.273 C 1498.07 919.373 1480.46 870.861 1477.74 853.376 z" fill="rgb(186,190,93)" transform="translate(0,0)"></path>
<path d="M 1900.06 554.796 C 1900.64 554.797 1903.92 554.807 1904.53 554.983 C 1914.55 557.858 1945.1 593.975 1943.01 602.064 L 1939.84 603.924 C 1937.49 604.031 1930.18 604.291 1928.7 603.232 C 1920.75 597.555 1900.09 570.71 1895.82 563.176 C 1895.88 560.03 1898.18 557.552 1900.06 554.796 z" fill="rgb(166,166,166)" transform="translate(0,0)"></path>
<path d="M 1700.97 907.759 C 1707.74 910.46 1710.38 916.261 1714.26 922.449 C 1701.43 929.884 1692.01 936.609 1680.5 945.637 L 1679.25 945.934 C 1675.75 942.89 1670.35 935.205 1667.35 931.213 C 1680.96 919.101 1684.8 916.652 1700.97 907.759 z" fill="rgb(166,166,166)" transform="translate(0,0)"></path>
<path d="M 1880.44 769.059 C 1884.74 768.553 1890.8 769.454 1894.59 771.65 C 1899.36 779.461 1878.93 792.21 1872.96 796.712 C 1869.33 799.056 1870.17 799.377 1866.98 798.861 C 1863.09 795.695 1861.02 789.668 1858.81 784.862 C 1865.67 776.549 1870.8 773.229 1880.44 769.059 z" fill="rgb(166,166,166)" transform="translate(0,0)"></path>
<metadata><recraft-signature>{"signed_by": "recraft", "signature_b64": "Q5jBlWf3GSNJLVUoecfXYFZjezz1VmNS8pEaD8v1hpphalgpdaMPZZI+ff1Fk5ODoDMN6Cu0ugOCP5kOjieLDQ==", "signing_algo": "Ed25519", "generation_timestamp": 1783497156, "identifier": "c191383c-e5a7-42c9-923e-dc2d41b59913"}</recraft-signature></metadata></svg>