<svg xmlns="http://www.w3.org/2000/svg" height="1024" preserveAspectRatio="none" style="display: block;" version="1.1" viewBox="0 0 2048 2048" width="1024">
<path d="M 0 0 L 2048 0 L 2048 2048 L 0 2048 L 0 0 z" fill="rgb(243,93,50)" transform="translate(0,0)"></path>
<path d="M 897.213 69.1766 C 960.609 47.04 1012.98 67.8822 1039.86 129.868 C 1078.88 143.705 1108.9 172.536 1106.68 216.507 C 1151.27 222.816 1184.74 246.854 1185.11 295.235 C 1206.9 284.408 1232.99 274.521 1255.73 264.291 C 1273.68 256.213 1296.72 245.143 1315.32 239.668 C 1323.74 237.189 1336.41 240.139 1344.34 240.527 C 1353.72 238.066 1368.96 254.282 1373.36 262.41 C 1381.98 278.312 1388.39 296.092 1394.98 312.924 C 1402.33 332.694 1420.72 366.434 1425.11 385.021 C 1428.62 399.732 1426.18 415.233 1418.3 428.146 C 1407.87 444.9 1391.07 450.548 1373.81 457.736 C 1366.97 460.581 1356.07 464.539 1357.42 473.763 C 1357.57 473.427 1359.21 467.93 1358.03 469.646 C 1365.38 458.97 1389.6 455.297 1399.38 450.668 L 1400.4 451.254 C 1381.19 461.865 1358.77 460.625 1367.6 485.684 C 1377.23 513.02 1491.65 799.202 1491.23 800.461 C 1484.36 794.784 1458.84 723.029 1453.79 710.121 L 1401.13 579.049 C 1394.09 561.102 1386.93 543.205 1379.64 525.359 C 1374.61 513.065 1364.64 489.995 1362.26 477.569 L 1360.73 476.239 L 1359.82 477.617 C 1361.56 484.463 1362.12 486.603 1365.56 492.635 C 1370.08 500.3 1369.93 511.499 1375.01 518.773 C 1379.76 525.56 1381.15 538.481 1384.89 545.078 C 1392.81 559.009 1396.3 573.196 1402.3 587.712 C 1424.78 641.175 1446.29 695.038 1466.82 749.276 C 1472.54 764.088 1480.97 787.621 1487.37 801.454 C 1493.11 813.86 1569.38 838.303 1575.03 851.479 C 1596.31 866.166 1616.74 882.364 1634.01 901.771 C 1640.09 908.606 1643.14 914.208 1648.31 920.661 C 1667.99 926.141 1680.38 930.118 1697.86 940.143 C 1789.55 992.754 1824.88 1126.35 1717.89 1184.38 C 1693.47 1197.63 1674.75 1200.37 1647.83 1203.03 C 1656.57 1227.89 1671.48 1254.97 1654.23 1278.37 C 1639.65 1298.17 1624.06 1303.01 1602.41 1311.95 L 1555.35 1331.45 C 1531.43 1341.51 1507.17 1353.39 1483.63 1362.96 L 1388.47 1402.23 C 1372.11 1409.02 1351.86 1416.68 1336.26 1424.21 L 1370.04 1515.74 C 1374.47 1527.6 1381.31 1547.4 1386.45 1558.43 C 1427.73 1569.13 1429.35 1585.93 1442.98 1622.14 C 1467.34 1616.77 1475.29 1617.05 1500.04 1620.48 C 1503.55 1618.67 1505.09 1619.39 1509.37 1620.41 C 1543.31 1628.62 1577.15 1658.63 1592.88 1689.03 C 1602.09 1706.82 1614.29 1744.11 1612.23 1764.16 C 1609.61 1789.61 1595.51 1818.78 1571.95 1831.32 C 1557.72 1838.9 1542.79 1844.15 1528.11 1849.79 L 1455.33 1877.5 C 1428.39 1887.74 1402.22 1899.11 1375.06 1908.86 C 1362.59 1913.34 1350.13 1912.16 1343.07 1914.43 C 1359.7 1920.49 1406.7 1896.31 1411.96 1898.16 C 1392.05 1907.18 1362.38 1919.14 1340.93 1916.19 C 1324.46 1913.92 1312.83 1907.65 1296.31 1912.06 C 1280.12 1938.73 1256.41 1946.48 1228.85 1957.46 C 1206.72 1966.27 1184.3 1974.39 1162.09 1982.99 L 1100.47 2007.02 C 1086.81 2012.26 1067.26 2020.02 1053.18 2022.55 C 1040.07 2024.87 1026.58 2023.8 1014 2019.44 C 942.741 1995.26 918.484 1890.31 958.466 1830.99 C 974.045 1807.88 995.074 1793.64 1019.82 1781.89 C 1010.92 1749.52 993.592 1724.15 1022.91 1695.58 C 1019.77 1683.05 1014.33 1670.48 1010.34 1658.16 C 1000.87 1628.89 988.899 1599.26 979.516 1570.11 C 951.606 1582.38 923.319 1593.33 895.158 1605.38 C 840.576 1628.73 785.994 1654.12 730.08 1674.05 C 720.656 1676.12 711.05 1674.5 702.194 1671.24 C 675.939 1661.56 670.575 1633.6 661.69 1610.51 C 658.729 1602.81 656.101 1595.07 652.933 1587.36 C 651.02 1580.65 646.855 1571.56 643.819 1565.32 C 636.939 1573.06 630.559 1582.38 623.269 1590.49 C 602.734 1613.33 576.895 1630.1 546.823 1637.44 C 475.127 1654.95 407.676 1607.7 392.446 1536.82 C 380.385 1480.68 393.232 1435.67 422.95 1388.1 C 422.573 1314.17 455.839 1245.73 494.636 1184.9 C 485.341 1150.2 466.156 1108.48 453.138 1074.49 L 418.787 985.596 C 405.203 949.817 394.406 919.832 379.164 884.471 C 343.401 898.927 309.493 911.057 284.731 867.647 C 277.612 855.168 268.064 829.583 263.411 815.675 C 252.865 784.157 228.661 748.757 239.568 715.314 C 250.838 682.715 291.07 674.307 319.211 661.3 C 343.521 650.064 368.484 640.602 392.366 628.653 C 373.239 600.291 373.808 557.217 398.734 532.609 C 362.313 503.11 357.596 462.849 377.873 422.309 C 373.223 406.818 366.971 396.352 365.997 378.694 C 363.993 351.423 372.655 327.454 390.406 306.715 C 461.279 223.92 604.305 276.319 673.601 336.583 C 685.624 332.39 704.443 323.101 716.357 317.491 C 730.192 310.977 750.822 302.052 763.469 294.257 C 770.478 255.206 774.675 226.772 789.569 189.52 C 811.158 135.526 842.413 92.7538 897.213 69.1766 z" fill="rgb(247,247,247)" transform="translate(0,0)"></path>
<path d="M 1344.34 240.527 C 1353.72 238.066 1368.96 254.282 1373.36 262.41 C 1381.98 278.312 1388.39 296.092 1394.98 312.924 C 1402.33 332.694 1420.72 366.434 1425.11 385.021 C 1428.62 399.732 1426.18 415.233 1418.3 428.146 C 1407.87 444.9 1391.07 450.548 1373.81 457.736 C 1366.97 460.581 1356.07 464.539 1357.42 473.763 C 1357.57 473.427 1359.21 467.93 1358.03 469.646 C 1365.38 458.97 1389.6 455.297 1399.38 450.668 L 1400.4 451.254 C 1381.19 461.865 1358.77 460.625 1367.6 485.684 C 1377.23 513.02 1491.65 799.202 1491.23 800.461 C 1484.36 794.784 1458.84 723.029 1453.79 710.121 L 1401.13 579.049 C 1394.09 561.102 1386.93 543.205 1379.64 525.359 C 1374.61 513.065 1364.64 489.995 1362.26 477.569 L 1360.73 476.239 L 1359.82 477.617 C 1361.56 484.463 1362.12 486.603 1365.56 492.635 C 1370.08 500.3 1369.93 511.499 1375.01 518.773 C 1379.76 525.56 1381.15 538.481 1384.89 545.078 C 1392.81 559.009 1396.3 573.196 1402.3 587.712 C 1424.78 641.175 1446.29 695.038 1466.82 749.276 C 1472.54 764.088 1480.97 787.621 1487.37 801.454 C 1493.11 813.86 1569.38 838.303 1575.03 851.479 C 1569.98 849.786 1555.14 840.203 1549.05 837.042 C 1528.95 826.81 1508.59 817.09 1487.99 807.891 C 1475.07 778.345 1462.66 743.676 1450.82 713.453 L 1382.42 542.602 C 1372.41 518.216 1362.61 487.252 1350.97 464.942 C 1373.19 455.963 1405.56 447.057 1417.58 425.079 C 1430.27 401.866 1424.13 383.59 1413.97 361.311 C 1400.47 331.742 1388.6 300.868 1375.66 271.023 C 1368.15 253.706 1360.45 248.828 1344.34 240.527 z" fill="rgb(169,86,55)" transform="translate(0,0)"></path>
<path d="M 1500.04 1620.48 C 1503.55 1618.67 1505.09 1619.39 1509.37 1620.41 C 1543.31 1628.62 1577.15 1658.63 1592.88 1689.03 C 1602.09 1706.82 1614.29 1744.11 1612.23 1764.16 C 1609.61 1789.61 1595.51 1818.78 1571.95 1831.32 C 1557.72 1838.9 1542.79 1844.15 1528.11 1849.79 L 1455.33 1877.5 C 1428.39 1887.74 1402.22 1899.11 1375.06 1908.86 C 1362.59 1913.34 1350.13 1912.16 1343.07 1914.43 C 1359.7 1920.49 1406.7 1896.31 1411.96 1898.16 C 1392.05 1907.18 1362.38 1919.14 1340.93 1916.19 C 1324.46 1913.92 1312.83 1907.65 1296.31 1912.06 C 1298.77 1907.32 1299.9 1903.91 1301.7 1898.94 C 1350.36 1920.36 1363.83 1911.73 1411.62 1892.4 C 1426.87 1886.31 1442.18 1880.35 1457.53 1874.5 L 1533.69 1845.33 C 1543.64 1841.47 1562.91 1834.62 1571.35 1829.53 C 1590.47 1817.98 1603.3 1796.94 1608.24 1775.52 C 1614.76 1747.28 1600.09 1701.77 1584.29 1678.66 C 1564.05 1649.07 1535.36 1627.69 1500.04 1620.48 z" fill="rgb(169,86,55)" transform="translate(0,0)"></path>
<path d="M 945.12 91.5841 C 969.69 89.9547 998.403 111.305 1005.32 134.123 C 1007.64 141.778 1010.24 150.637 1013.84 157.625 C 1043.48 162.027 1069.7 173.464 1075.51 207.477 C 1078.51 225.053 1072.19 235.734 1062.17 249.279 C 1083.66 245.697 1102.76 244.547 1123.09 253.471 C 1170.53 274.301 1150.69 315.57 1133.72 349.69 C 1150.97 343.73 1172.01 334.181 1189.1 327.019 L 1270.9 292.837 C 1282.91 287.683 1323.11 265.72 1335.35 272.058 C 1342.87 275.955 1353.16 298.26 1356.32 307.24 C 1366.47 336.156 1385.76 369.394 1392.78 398.884 C 1391.93 401.766 1391.14 404.743 1390 407.528 C 1384.62 420.694 1325.63 441.98 1310.58 448.733 L 1464.95 835.358 C 1512.47 852.554 1568.5 880.962 1602.26 917.896 C 1611.81 928.347 1619.98 940.133 1629.27 950.955 C 1632.11 951.668 1635.65 952.277 1638.58 952.91 C 1677.17 960.956 1710.81 984.362 1731.78 1017.74 C 1781.18 1094.94 1730.41 1168.32 1643.02 1169.78 C 1626.81 1170.05 1614.06 1167.53 1598.43 1163.9 C 1604.38 1181.61 1634.5 1246.12 1629.2 1259.81 C 1627.34 1264.61 1622.66 1267.61 1618.34 1269.97 C 1606.48 1276.45 1593.07 1281.12 1580.57 1286.34 C 1563.79 1293.42 1547.09 1300.67 1530.46 1308.08 C 1452.49 1342.07 1374.06 1374.98 1295.19 1406.82 C 1319.35 1468.32 1341.26 1531.06 1364.82 1592.87 C 1404.58 1580.15 1406.94 1617.61 1418.89 1645.14 C 1420.9 1649.77 1422.48 1655.26 1424.15 1660.09 C 1454.52 1647.03 1496.69 1647.21 1526.06 1664.77 C 1561.87 1686.14 1594.13 1746.96 1570.67 1786.56 C 1558.13 1807.74 1524.05 1814.83 1502.01 1823.63 L 1407.67 1860.92 C 1378.26 1872.31 1342.42 1891.8 1313.82 1870.25 C 1275.55 1841.42 1260.78 1758.95 1288.25 1719.89 C 1280.58 1704.79 1262.07 1662.94 1264.95 1646.32 C 1266.98 1634.65 1275.31 1630.03 1284.3 1624.01 C 1272.67 1595.99 1262.09 1565.05 1251.4 1536.49 C 1239.58 1504.95 1227.27 1473.27 1215.81 1441.67 C 1208.62 1444.11 1200.88 1447.26 1193.85 1450.18 C 1155.31 1466.19 1114.78 1479.82 1076.92 1497.21 C 1085.22 1515.69 1092.72 1538.51 1099.68 1557.85 L 1124.6 1625.16 C 1129.25 1638.06 1138.16 1664.42 1143.83 1675.74 C 1168.65 1672.77 1179.79 1678.96 1187.57 1703.72 C 1192.35 1718.91 1197.21 1734.25 1201.46 1749.63 C 1209.85 1752.31 1212.95 1753.8 1220.84 1757.81 C 1239.36 1769.05 1250.5 1784.24 1260.14 1803.69 C 1277.19 1838.08 1291.15 1895.45 1246.56 1915.94 C 1215.33 1930.29 1181.07 1941.96 1148.56 1954.81 C 1127.71 1963.08 1106.78 1971.13 1085.76 1978.96 C 1076.16 1982.57 1061.87 1988.66 1052.47 1990.65 C 987.386 2004.37 957.591 1912.54 977.033 1864.24 C 992.893 1824.85 1023.62 1815.24 1057.94 1799.99 C 1054.13 1782.38 1045.34 1765.13 1040.13 1747.85 C 1033.11 1724.57 1043.98 1716.86 1063.03 1708.07 C 1061.28 1702.45 1059.3 1696.9 1057.12 1691.44 C 1035.7 1637.81 1017.96 1582.35 997.392 1528.49 C 978.846 1535.73 958.897 1544.74 940.316 1552.54 L 789.253 1616.06 C 769.194 1624.29 746.845 1634.76 726.354 1641.55 C 721.506 1643.16 713.653 1640.77 708.758 1639.19 C 697.913 1627.18 682.138 1579.67 675.562 1561.94 L 638.195 1463.98 C 638.328 1530.25 592.247 1603.2 520.902 1606.83 C 461.661 1609.83 421.724 1558.15 421.055 1502.32 C 420.644 1468.08 431.478 1426.7 455.625 1401.08 C 452.811 1338.95 476.581 1281.74 506.73 1228.94 C 513.567 1216.96 523.342 1198.99 532.249 1188.87 L 397.935 841.334 C 378.783 848.235 359.939 857.444 340.81 863.71 C 331.127 866.882 324.825 864.513 316.698 859.472 C 312.388 852.766 308.874 841.721 305.917 834.002 L 290.356 793.762 C 286.38 783.556 271.011 747.058 269.178 739.101 C 268.052 734.299 268.289 729.278 269.861 724.604 C 271.616 719.476 281.251 713.068 286.242 710.889 C 346.12 684.738 406.145 659.072 465.562 631.833 C 450.14 630.31 432.697 625.377 421.957 613.542 C 414.726 605.605 410.999 595.087 411.621 584.368 C 413.158 557.892 437.451 535.863 455.675 519.001 C 446.322 517.052 435.288 515.081 426.716 511.129 C 415.066 505.84 406.136 495.95 402.06 483.822 C 397.74 470.932 399.224 455.05 405.249 442.896 C 408.308 436.724 413.027 431.166 416.228 424.49 C 409.134 408.698 398.773 393.813 398.263 375.98 C 396.969 330.747 443.497 297.484 484.954 296.901 C 551.106 295.972 620.634 330.904 668.112 374.783 C 681.804 369.953 698.717 361.375 712.334 354.983 C 739.449 341.955 766.725 329.262 794.154 316.906 C 802.34 232.708 833.213 113.962 930.746 92.6416 C 935.035 91.7039 940.684 91.7055 945.12 91.5841 z" fill="rgb(1,1,1)" transform="translate(0,0)"></path>
<path d="M 786.584 674.969 L 788.028 675.216 C 792.863 681.257 816.509 743.915 820.27 754.478 C 770.206 750.694 722.766 763.475 682.382 793.643 C 638.52 825.909 609.535 874.509 601.991 928.435 C 595.041 978.376 609.602 1037.23 640.147 1077.31 C 673.305 1120.81 722.624 1149.08 776.917 1155.7 C 838.349 1163.64 889.471 1142.1 937.148 1105.57 C 941.851 1118.6 948.478 1133.49 953.701 1146.7 L 1007.5 1281.5 L 1049.82 1389.96 C 1058.37 1412.2 1071.39 1447.92 1081.15 1468.42 C 1022.09 1491.86 963.325 1516.05 904.878 1541 L 802.452 1584.65 C 790.935 1589.69 725.927 1620.55 717.764 1617.69 C 710.049 1606.83 699.737 1573.75 694.365 1559.61 L 654.13 1455.66 L 473.912 989.007 C 454.421 939.788 434.59 881.196 413.588 834.028 L 786.584 674.969 z" fill="rgb(57,139,225)" transform="translate(0,0)"></path>
<path d="M 1295.84 455.004 C 1298.18 457.242 1348.2 590.223 1353.26 603.236 C 1394.16 711.446 1435.85 819.351 1478.33 926.944 C 1509.41 1002.26 1539.79 1077.87 1569.45 1153.76 C 1581.5 1184.94 1594.7 1218.15 1605.37 1249.74 C 1482.5 1300.62 1359.93 1352.24 1237.68 1404.59 C 1211.11 1333.35 1181.38 1261.25 1153.53 1190.24 L 1092.45 1035.73 C 1108.22 1038.55 1124.21 1040.99 1140.27 1040.27 C 1189.66 1038.08 1235.64 1017.34 1271.09 983.518 C 1309.11 946.658 1331.05 896.287 1332.15 843.344 C 1334.07 733.604 1246.06 637.38 1134.57 637.684 C 1073.78 637.85 1022.54 661.375 979.818 704.184 C 967.315 671.688 954.457 639.329 941.245 607.115 C 965.451 595.459 997.477 583.408 1022.96 572.39 C 1065.91 553.823 1109.75 534.222 1152.79 516.061 L 1260.18 470.135 C 1272.21 464.92 1283.88 460.504 1295.84 455.004 z" fill="rgb(57,139,225)" transform="translate(0,0)"></path>
<path d="M 1323.83 282.878 L 1326.47 283.047 C 1332.13 286.289 1337.3 297.528 1339.17 303.338 C 1344.16 318.845 1380.01 387.739 1377.41 402.112 C 1366.65 409.938 1348.13 416.751 1335.45 422.263 L 1281.11 446.293 C 1171.08 494.757 1060.65 542.326 949.845 588.996 L 528.082 771.079 C 486.326 789.168 444.443 806.964 402.437 824.466 C 382.531 832.765 356.393 844.271 336.219 850.993 C 334.428 851.414 333.324 851.443 331.492 851.62 C 330.365 851.122 327.817 849.974 327.277 848.71 C 312.165 813.29 296.847 776.803 285.218 740.042 C 283.888 735.838 283.322 732.341 283.914 728.837 C 292.659 720.745 349.866 698.075 364.583 691.679 L 519.102 625.221 L 1045.79 401.838 C 1111.28 374.103 1177.17 347.719 1242.24 319.161 C 1269.18 307.341 1297.87 296.278 1323.83 282.878 z" fill="rgb(48,162,123)" transform="translate(0,0)"></path>
<path d="M 784.013 767.55 C 887.872 757.523 980.209 833.552 990.302 937.404 C 1000.39 1041.26 924.423 1133.64 820.577 1143.8 C 716.638 1153.97 624.153 1077.91 614.051 973.969 C 603.95 870.024 680.062 777.586 784.013 767.55 z" fill="rgb(247,247,247)" transform="translate(0,0)"></path>
<path d="M 797.991 841.558 C 819.807 843.745 834.571 848.732 851.914 864.564 C 883.886 893.75 913.699 959.949 918.3 1003.21 C 920.296 1021.96 910.568 1053.99 896.979 1067.62 C 878.35 1086.3 866.425 1090.06 841.184 1091.28 C 824.364 1091.11 805.663 1083.76 792.44 1073.79 C 777.546 1063.72 748.036 1030.02 755.55 1010.58 C 768.525 977.024 765.611 970.511 734.797 952.439 C 729.057 949.073 726.628 939.088 725.746 931.997 C 721.716 899.619 739.986 863.801 769.314 849.086 C 779.152 844.146 787.187 842.765 797.991 841.558 z" fill="rgb(1,1,1)" transform="translate(0,0)"></path>
<path d="M 1119.66 650.634 C 1121.82 650.406 1123.98 650.244 1126.15 650.149 C 1173.1 648.193 1223.31 667.979 1257.78 699.722 C 1295.17 734.525 1317.18 782.768 1318.96 833.816 C 1323.17 939.464 1239.74 1023.71 1135.13 1027.68 C 1081.21 1028.32 1046.96 1012.04 1004.72 981.665 C 1010.16 906.71 990.508 859.752 938.077 806.509 C 944.295 777.176 961.155 745.261 980.432 722.443 C 1015.62 681.169 1065.63 655.379 1119.66 650.634 z" fill="rgb(247,247,247)" transform="translate(0,0)"></path>
<path d="M 1128.78 728.387 C 1152.46 727.397 1180.04 741.088 1194.78 758.852 C 1213.44 781.35 1235.14 828.685 1241.39 856.806 C 1243.94 868.477 1244.91 880.435 1244.28 892.363 C 1242.08 934.842 1211.91 978.174 1165.75 975.41 C 1147.01 974.217 1131.92 967.386 1117.27 956.238 C 1101.44 944.194 1074.02 918.714 1080.97 896.693 C 1085.18 884.139 1090.61 878.566 1089.2 864.651 C 1087.15 844.564 1056.71 844.323 1055.6 827.136 C 1054.01 802.482 1062.57 773.747 1078.23 754.559 C 1092.13 737.53 1107.33 730.478 1128.78 728.387 z" fill="rgb(1,1,1)" transform="translate(0,0)"></path>
<path d="M 1001.75 994.858 C 1023.63 1013.3 1052.41 1022.92 1077.88 1033.52 C 1083.08 1043.67 1091.48 1067.68 1096.06 1079.28 L 1135.28 1178.9 C 1147.76 1210.41 1160.31 1241.77 1172.67 1273.36 C 1191.63 1321.83 1213.93 1372.65 1230.03 1421.97 C 1204.12 1433.08 1178.03 1443.77 1151.77 1454.02 L 1096.92 1476.07 C 1066.73 1397.47 1035.98 1319.09 1004.66 1240.94 L 974.521 1165.51 C 965.404 1142.28 957.258 1119.75 946.384 1097.26 C 974.921 1067.1 992.871 1035.76 1001.75 994.858 z" fill="rgb(245,177,45)" transform="translate(0,0)"></path>
<path d="M 937.621 104.291 C 939.116 104.147 940.615 104.04 942.115 103.969 C 952.088 103.625 961.96 106.064 970.626 111.013 C 1000.4 128.246 996.234 163.856 1003.27 169.164 C 1007.7 172.511 1030.5 165.8 1048.96 183.165 C 1057.22 190.938 1063.97 202.551 1064.14 214.141 C 1064.23 220.341 1062.26 226.993 1058.48 231.935 C 1043.66 251.294 1020.79 266.89 1002.27 282.788 C 972.047 308.736 941.816 335.162 914.121 363.838 C 907.664 370.115 902.064 375.769 894.882 381.27 C 883.454 362.989 874.961 340.912 863.067 322.4 C 847.688 298.464 831.32 299.897 807.671 309.008 C 812.874 232.255 850.608 118.267 937.621 104.291 z" fill="rgb(245,177,45)" transform="translate(0,0)"></path>
<path d="M 482.79 309.394 C 528.29 304.225 599.312 336.366 635.333 363.746 C 641.611 368.518 650.637 373.916 655.266 380.208 C 644.988 386.512 637.247 392.262 632.723 404.248 C 630.526 409.912 629.861 416.055 630.797 422.058 C 632.443 432.624 651.227 470.428 656.541 482.108 C 629.822 484.719 603.139 487.691 576.5 491.022 C 554.459 493.623 532.455 496.525 510.493 499.727 C 485.821 503.175 456.81 509.458 432.834 500.858 C 411.859 493.334 406.338 469.195 415.006 450.34 C 419.294 441.013 425.979 434.139 429.922 424.32 C 423.651 409.794 412.552 398.572 410.939 381.716 C 406.728 337.716 444.457 314.018 482.79 309.394 z" fill="rgb(245,177,45)" transform="translate(0,0)"></path>
<path d="M 827.68 315.165 C 849.265 314.195 849.97 325.223 859.525 341.805 C 871.93 363.334 883.124 385.474 894.841 407.398 C 898.274 413.821 902.604 425.374 900.23 432.58 C 898.164 437.988 891.247 443.678 886.386 446.691 C 865.864 458.805 842.571 469.001 820.862 478.784 L 711.328 526.997 C 707.603 528.871 703.319 530.132 699.339 531.472 C 682.676 518.442 674.283 488.107 664.537 469.294 C 658.084 456.838 651.559 442.797 645.717 430.209 C 639.377 416.545 642.44 401.04 656.873 394.613 C 681.777 382.349 707.019 371.143 732.065 359.283 L 789.438 332.37 C 800.444 327.149 816.699 318.79 827.68 315.165 z" fill="rgb(245,177,45)" transform="translate(0,0)"></path>
<path d="M 528.591 1368.3 C 531.535 1368.02 534.643 1367.74 537.603 1367.72 C 560.057 1367.54 581.618 1376.5 597.341 1392.53 C 636.268 1431.5 635.69 1495.94 605.888 1540.08 C 596.35 1554.21 586.005 1564.86 573.958 1576.71 C 579.345 1560.92 598.904 1505.11 587.671 1491.8 L 586.083 1492 C 582.062 1495.81 582.601 1503.95 581.423 1509.12 C 575.821 1533.69 567.846 1562.7 559.06 1586.12 C 552.252 1589.03 545.863 1591.03 538.818 1593.32 C 518.761 1598.11 498.42 1597.29 480.407 1586.63 C 483.123 1576.94 498.171 1513.35 495.974 1507.6 C 495.507 1506.38 495.252 1506.61 493.931 1505.89 C 484.744 1510.41 471.933 1567.99 469.35 1579.71 C 395.949 1522.54 440.58 1381.26 528.591 1368.3 z" fill="rgb(247,247,247)" transform="translate(0,0)"></path>
<path d="M 1191.71 1761.95 C 1232.39 1761.28 1259.48 1823.8 1262.18 1856.88 C 1249.11 1864.61 1200.84 1882.05 1184.43 1888.29 L 1040.24 1943.47 C 1029.56 1948.06 1013.75 1953.72 1002.73 1957.06 C 983.516 1934.13 979.977 1892.25 990.943 1864.96 C 1006.86 1825.35 1053.29 1817.32 1088.7 1802.29 C 1122.52 1787.92 1157.69 1775.82 1191.71 1761.95 z" fill="rgb(243,93,50)" transform="translate(0,0)"></path>
<path d="M 1464.64 1663.39 C 1517.64 1658.13 1552.18 1694.92 1564.47 1743.32 C 1498.82 1770.1 1432.95 1796.33 1366.87 1822 C 1347.34 1829.3 1327.55 1837.24 1307.93 1844.12 C 1286.16 1810 1278.96 1757.93 1301.45 1722.42 C 1331.05 1712.36 1362.24 1698.7 1391.73 1687.78 C 1418.33 1677.92 1435.95 1666.64 1464.64 1663.39 z" fill="rgb(243,93,50)" transform="translate(0,0)"></path>
<path d="M 1609.05 961.41 C 1615.72 961.255 1622.4 961.427 1629.05 961.925 C 1642.88 963.026 1656.17 967.24 1668.36 973.751 C 1714.95 998.644 1744.61 1040.88 1740.27 1094.36 C 1729.34 1085.68 1685.99 1054.27 1673.46 1060.63 C 1671.59 1069.43 1675.19 1069.64 1683.06 1072.37 C 1702.74 1079.19 1720.36 1092.61 1735.3 1106.9 C 1729.79 1117.82 1722.25 1127.58 1713.07 1135.67 C 1703.02 1144.61 1682.44 1156.92 1669.01 1156.1 C 1654.05 1146.76 1637.86 1138.27 1623.24 1128.13 C 1616.73 1123.61 1609.9 1113.06 1601.97 1111.08 C 1586.45 1117.06 1609.34 1130.78 1614.9 1135.34 C 1625.9 1144.35 1638.05 1152.09 1650.64 1158.7 C 1629.62 1161.08 1614.55 1158.16 1594.02 1152.57 L 1538.75 1015.9 C 1551.38 983.232 1573.11 963.992 1609.05 961.41 z" fill="rgb(247,247,247)" transform="translate(0,0)"></path>
<path d="M 1089.69 259.478 C 1101.82 259.109 1117.4 261.348 1127.3 268.507 C 1159.5 291.793 1126.07 337.943 1110.45 360.128 C 1097.02 364.432 1068.24 377.254 1054.33 383.106 L 940.928 430.986 C 930.159 435.555 919.422 440.201 908.718 444.922 C 909.042 444.082 909.356 443.238 909.66 442.39 C 916.544 423.024 910.137 412.311 902.067 395.245 C 940.029 363.151 975.294 325.735 1013.54 293.337 C 1047.97 264.167 1042.15 262.093 1089.69 259.478 z" fill="rgb(245,177,45)" transform="translate(0,0)"></path>
<path d="M 659.619 498.453 L 661.954 498.124 C 669.187 500.882 674.556 528.321 687.382 538.637 C 674.257 544.653 659.704 550.292 646.306 556.166 C 612.456 571.262 578.38 585.847 544.09 599.915 C 506.709 615.063 498.572 624.381 455.728 617.799 C 448.336 615.979 441.168 613.414 434.98 608.852 C 428.638 604.177 424.319 597.344 423.322 589.476 C 421.745 577.031 429.074 564.383 436.688 555.045 C 444.999 544.851 462.851 525.488 474.709 520.132 C 496.025 510.503 626.214 501.673 659.619 498.453 z" fill="rgb(245,177,45)" transform="translate(0,0)"></path>
<path d="M 929.07 612.071 C 933.967 618.176 965.645 700.96 970.897 714.198 C 949.789 740.863 935.818 764.846 926.311 797.791 C 907.359 783.932 894.547 776.523 872.664 767.963 C 859.432 762.807 850.333 760.388 836.413 757.564 C 823.707 728.619 811.574 698.041 799.633 668.743 C 840.428 649.938 887.674 629.806 929.07 612.071 z" fill="rgb(245,177,45)" transform="translate(0,0)"></path>
<path d="M 1282.81 1411.96 L 1284.4 1412 C 1289.16 1415.12 1347.29 1577.05 1355.66 1597.01 C 1336.88 1602.74 1315.14 1612.36 1296.69 1620.05 L 1294.51 1620.81 C 1292.12 1618.95 1231.31 1453.29 1225.27 1436.86 C 1240.21 1431.58 1267.02 1418.8 1282.81 1411.96 z" fill="rgb(247,247,247)" transform="translate(0,0)"></path>
<path d="M 1066.33 1500.92 L 1066.71 1501.04 C 1069.91 1503.54 1128.68 1665.81 1132.97 1681.86 C 1113.56 1689.61 1094.23 1697.84 1074.21 1703.74 C 1071.34 1699.92 1059.29 1666.48 1057.04 1660.46 L 1007.18 1524.54 C 1024.41 1516.82 1048.12 1508.26 1066.33 1500.92 z" fill="rgb(247,247,247)" transform="translate(0,0)"></path>
<path d="M 535.9 1200.66 C 539.68 1203.66 576.719 1304.39 581.941 1318.45 C 574.897 1332.54 569.443 1345.2 563.299 1359.76 C 534.511 1356.38 524 1355.75 496.405 1366.88 C 482.65 1373.55 478.336 1377.72 466.731 1387.55 C 467.345 1325.9 502.147 1251.6 535.9 1200.66 z" fill="rgb(247,247,247)" transform="translate(0,0)"></path>
<path d="M 1149.12 1689.04 C 1157.49 1688.38 1160.59 1689.3 1168.2 1692.07 C 1175.34 1704.15 1184.44 1735.16 1187.81 1749.53 C 1154.15 1762.9 1120.55 1774.75 1086.76 1788.46 L 1070.36 1795.35 C 1050.14 1735.82 1030.01 1733.41 1093.6 1709.58 C 1112.04 1702.57 1130.55 1695.72 1149.12 1689.04 z" fill="rgb(243,93,50)" transform="translate(0,0)"></path>
<path d="M 1375.02 1603.04 C 1394.64 1602.31 1395.41 1618.75 1401.4 1634.03 C 1405.4 1644.22 1408.78 1655.03 1412.56 1665.38 C 1378.93 1678.72 1344.18 1690.96 1311.04 1704.5 L 1299.49 1709.39 C 1295.01 1702.36 1291.88 1694.53 1288.65 1686.87 C 1285.16 1678.56 1272.07 1653.48 1277.07 1645.25 C 1282.74 1635.93 1360.01 1608.23 1375.02 1603.04 z" fill="rgb(243,93,50)" transform="translate(0,0)"></path>
<path d="M 1471.16 850.951 C 1508.95 864.395 1559 888.839 1587.12 916.943 C 1597.64 927.452 1605.77 938.231 1614.77 950.007 C 1596.74 951.023 1588.21 952.999 1572.11 961.066 C 1552.49 971.778 1542.84 982.586 1533.21 1002.69 C 1523.54 981.002 1515.91 957.804 1506.69 936.099 C 1494.59 907.634 1482.83 879.587 1471.16 850.951 z" fill="rgb(247,247,247)" transform="translate(0,0)"></path>
<path d="M 1563.77 1758.09 L 1564.48 1758.89 C 1564.56 1763.23 1562.94 1768.41 1561.34 1772.36 C 1556.7 1783.76 1549.68 1790.03 1538.35 1794.38 C 1511.33 1804.73 1483.95 1814.66 1457.04 1825.31 L 1383.2 1854.66 C 1360.53 1863.44 1349.96 1871.52 1325.72 1861.75 C 1322.01 1860.08 1318.98 1858.09 1315.52 1855.97 C 1334.46 1848.08 1358.52 1840.02 1378.24 1832.45 C 1413.23 1818.93 1448.09 1805.1 1482.83 1790.96 C 1509.54 1780.31 1537.62 1769.67 1563.77 1758.09 z" fill="rgb(243,93,50)" transform="translate(0,0)"></path>
<path d="M 1260.81 1874.04 L 1262.68 1874.58 C 1262.53 1884.26 1254.51 1897.11 1245.87 1901.39 C 1223.42 1912.52 1199.17 1920.27 1175.87 1929.52 C 1138.03 1944.54 1100.11 1959.49 1062.02 1973.85 C 1048.44 1978.97 1035.23 1981.57 1021.48 1975 L 1010.71 1968.91 C 1039.59 1959.59 1067.85 1947.88 1096.23 1937.3 C 1151.31 1916.77 1205.6 1894.11 1260.81 1874.04 z" fill="rgb(243,93,50)" transform="translate(0,0)"></path>
<path d="M 587.279 1332.75 C 593.093 1343.79 604.609 1375.93 608.82 1388.14 L 601.534 1381.14 C 590.475 1372.34 587.041 1370.63 573.9 1364.92 C 577.204 1354.67 582.857 1342.76 587.279 1332.75 z" fill="rgb(247,247,247)" transform="translate(0,0)"></path>
<path d="M 1196.52 1478.06 C 1200.66 1485.42 1209.71 1514.45 1213.18 1523.9 L 1233.61 1579.33 C 1237.71 1590.18 1242.49 1601.19 1245.99 1612.17 C 1220.64 1650.94 1238.02 1678.87 1254.11 1717.46 L 1246.69 1736.43 C 1227.69 1726.24 1227.26 1724.92 1219.97 1704.41 C 1210.68 1675.93 1198.58 1646.29 1164.38 1643.49 C 1154.77 1617.95 1145.95 1591.85 1136.4 1566.26 C 1129.46 1547.67 1121.6 1529.2 1114.95 1510.56 C 1138.96 1498.26 1171.28 1492.05 1196.52 1478.06 z" fill="rgb(243,93,50)" transform="translate(0,0)"></path>
<metadata><recraft-signature>{"signed_by": "recraft", "signature_b64": "myMgB4IOdG+8Kk3OTeHEqCVAnuHrrCCd4fZ+armYyj+9ZcJlnEm9gyRNEd1LJ/tUkRBJfo3UR28c6G1LlGRNBQ==", "signing_algo": "Ed25519", "generation_timestamp": 1783497134, "identifier": "d92f0421-b37d-4348-9556-9a970fce7b75"}</recraft-signature></metadata></svg>