<svg xmlns="http://www.w3.org/2000/svg" height="1024" preserveAspectRatio="none" style="display: block;" version="1.1" viewBox="0 0 2048 2048" width="1024">
<path d="M 0 0 L 2048 0 L 2048 2048 L 0 2048 L 0 0 z" fill="rgb(243,93,50)" transform="translate(0,0)"></path>
<path d="M 541.015 613.143 C 584.499 609.871 597.703 650.291 615.697 681.764 C 638.969 685.18 677.095 687.933 692.621 703.953 C 718.596 730.756 700.623 761.424 675.764 779.471 C 670 783.656 660.438 793.877 655.352 798.992 C 663.571 823.163 683.071 851.94 666.606 875.204 C 708.451 915.264 755.205 946.081 804.6 975.838 C 821.355 985.932 824.832 1005.83 819.608 1023.53 C 814.023 1042.46 801.296 1052.32 785.091 1061.54 C 793.183 1069.73 798.618 1075.6 806.12 1084.4 C 816.461 1096.53 831.798 1120.19 843.878 1128.64 C 866.76 1144.65 909.644 1158.87 922.974 1184.53 C 927.063 1192.4 926.603 1203.79 922.946 1212 C 911.416 1237.86 877.254 1264.53 853.776 1278.81 C 843.217 1285.23 824.785 1293.01 813.606 1297.98 C 845.221 1328.79 891.864 1359.74 927.5 1386.49 C 940.712 1396.4 963.685 1411.29 974.657 1422.71 C 980.447 1428.85 984.493 1436.43 986.375 1444.67 C 994.384 1480.22 955.785 1506.34 930.255 1522.63 C 864.412 1564.65 790.102 1588.25 713.845 1602.87 C 717.798 1619.93 720.212 1638.18 723.226 1655.53 C 776.599 1664.61 772.773 1702.18 760.316 1742.94 C 789.878 1756.07 806.816 1767.22 831.064 1788.1 C 838.887 1794.84 851.596 1801.38 860.252 1808.33 C 881.272 1825.23 905.032 1848.59 910.678 1876.01 C 913.636 1890.93 910.51 1906.42 901.995 1919.03 C 871.455 1964.33 811.862 1953.88 764.135 1953.87 C 692.63 1953.86 626.603 1959.75 563.813 1917.03 C 559.327 1913.81 554.836 1909.92 550.56 1906.38 C 539.971 1916.7 529.918 1923.83 516.702 1930.63 C 496.27 1941.06 474.339 1948.24 451.697 1951.92 C 412.023 1958.18 364.195 1954.22 324.001 1953.37 C 296.002 1952.29 268.023 1955.78 240.834 1947.58 C 210.516 1938.95 188.294 1909.85 190.169 1877.79 C 192.536 1837.33 236.19 1810.8 265.165 1789 C 290.433 1769.98 314.381 1754.42 342.696 1740.66 C 333.435 1701.29 329.802 1667.48 378.531 1656.6 C 382.377 1640.62 385.093 1618.79 388.648 1601.4 C 301.388 1587.66 192.651 1553.29 130.852 1487.1 C 117.831 1473.16 113.788 1437.91 128.031 1424.45 C 158.619 1395.56 197.208 1372.62 230.958 1347.32 C 251.548 1331.89 271.258 1315.93 292.2 1300.79 C 258.181 1285.67 234.962 1274.35 206.391 1247.62 C 182.279 1227.79 166.733 1192.42 195.577 1168.04 C 217.246 1149.72 258.615 1137.32 279.594 1118.12 C 292.085 1106.68 304.114 1082.41 317.968 1067.49 L 313.983 1063.45 C 283.223 1032.01 261.665 996.533 310.944 967.495 C 324.189 959.69 336.794 952.457 349.695 943.999 C 379.149 925.036 406.642 903.189 431.77 878.782 C 424.538 850.78 436.2 828.186 440.872 800.1 C 418.657 774.135 371.043 753.526 398.847 710.948 C 416.323 684.187 453.245 686.567 481.365 681.217 C 497.961 654.85 508.232 621.425 541.015 613.143 z" fill="rgb(247,247,247)" transform="translate(0,0)"></path>
<path d="M 543.468 640.667 C 545.805 640.589 548.466 640.605 550.734 641.181 C 564.155 644.588 587.578 696.38 595.051 710.057 C 611.012 713.356 664.466 716.827 673.251 727.031 C 675.088 729.164 675.928 731.22 675.553 734.069 C 674.052 745.473 630.663 780.241 619.514 790.009 C 626.166 811.29 636.606 833.442 642.308 855.25 C 637.92 870.412 631.597 872.555 616.55 869.649 C 648.818 905.932 707.283 948.622 747.87 976.536 C 755.564 983.693 787.941 997.904 791.934 1005.87 C 801.162 1024.26 739.63 1056.98 730.59 1061.09 C 769.914 1081.16 789.487 1104.68 808.677 1143.05 C 819.263 1147.43 833.301 1156.78 843.804 1162.83 C 857.113 1170.86 870.79 1177.93 883.454 1186.97 C 903.931 1201.26 887.037 1213.58 875.107 1224.83 C 849.725 1248.75 823.5 1261.34 791.209 1273.04 C 782.343 1286.05 777.208 1292.19 766.096 1303.36 C 768.384 1304.59 770.599 1305.96 772.728 1307.45 C 797.967 1324.9 828.845 1352.23 854.982 1371.75 C 874.323 1386.22 893.826 1400.47 913.488 1414.49 C 958.503 1446.78 978.128 1454.93 917.554 1494.76 C 846.632 1541.39 761.424 1564.95 677.912 1575.85 C 683.948 1615.03 690.767 1654.08 698.367 1692.98 C 706.623 1691.51 730.339 1684.11 733.775 1693.21 C 740.857 1711.96 723.654 1747.44 720.444 1766.8 L 720.205 1768.28 C 752.322 1773.09 766.918 1775.85 793.857 1798.43 C 798.207 1801.29 805.421 1812.64 809.336 1814.65 C 834.055 1827.28 870.868 1849.09 877.142 1879.38 C 879.093 1888.67 877.05 1898.35 871.511 1906.06 C 857.204 1925.59 824.97 1922.67 803.495 1922.33 L 750.886 1921.62 C 692.454 1920.93 629.969 1928.61 579.923 1889.77 C 576.743 1887.3 569.974 1881.24 569.133 1877.45 C 560.378 1837.94 591.074 1799.94 591.786 1761.34 C 592.077 1737.55 572.261 1716.38 570.482 1701.89 C 575.397 1690.5 591.991 1695.2 602.062 1696.4 C 599.473 1673.56 596.317 1650.77 592.597 1628.08 C 590.335 1613.55 588.115 1596.83 584.583 1582.72 L 563.744 1582.81 C 548.474 1582.94 532.93 1582.71 517.638 1582.64 C 510.213 1616.79 502.929 1663.04 497.117 1698.19 C 503.825 1697.21 519.933 1693.86 525.187 1697.3 C 535.487 1704.04 517.921 1727.12 515.045 1736.11 C 512.501 1744.06 509.668 1747.46 509.806 1757.04 C 510.429 1800.06 535.544 1829.18 538.787 1874.49 C 516.806 1901.03 462.134 1921.34 428.248 1922.87 C 409.28 1923.73 386.47 1922.22 367.138 1922.04 L 298.606 1920.78 C 284.914 1920.41 271.844 1920.3 258.005 1918.82 C 227.198 1915.51 210.432 1889.55 228.947 1862.38 C 238.365 1848.56 252.715 1837.35 266.554 1828.19 C 272.521 1823.92 283.647 1819.64 288.773 1814.93 C 318.15 1787.88 340.296 1774.7 380.343 1766.58 C 376.254 1748.65 373.901 1732.02 371.172 1713.99 C 365.943 1679.44 378.456 1686.22 404.599 1692.61 C 411.793 1656.57 419.02 1611.94 423.902 1575.33 C 332.513 1563.04 233.63 1537.06 161.907 1476.27 C 134.675 1453.18 153.477 1438.1 175.007 1424.17 C 203.909 1405.47 232.368 1384.62 259.909 1363.98 C 286.204 1344.26 316.88 1322.76 340.228 1299.77 C 332.231 1291.89 327.281 1285.79 320.554 1276.88 C 287.343 1269.18 237.019 1238.82 215.245 1211.98 C 208.528 1203.7 213.346 1193.07 222.12 1188.04 C 250.95 1171.52 279.637 1154.82 308.323 1137.99 C 324.083 1104.85 337.209 1088.63 367.679 1067.7 C 358.794 1061.74 350.383 1055.09 342.521 1047.83 C 333.477 1039.55 313.658 1021.63 313.045 1008.38 C 312.555 997.8 334.068 989.102 342.636 984.174 C 351.963 978.787 361.111 973.097 370.067 967.114 C 410.963 939.68 457.486 901.481 491.446 865.714 C 484.872 868.916 476.281 872.506 468.93 869.874 C 465.861 868.767 463.369 866.467 462.02 863.496 C 456.684 851.937 472.923 804.353 477.446 790.537 C 464.64 778.524 424.119 749.817 421.286 734.28 C 420.704 731.089 421.127 728.331 423.182 725.718 C 431.784 714.775 486.264 710.897 501.526 709.711 C 510.62 690.86 527.229 652.587 543.468 640.667 z" fill="rgb(1,1,1)" transform="translate(0,0)"></path>
<path d="M 554.962 1260.46 C 560.305 1271.76 566.725 1285.48 574.818 1295 C 621.912 1350.39 704.36 1350.96 759.098 1307.84 C 762.585 1309.61 765.951 1311.62 769.177 1313.83 C 790.653 1328.36 812.235 1349.31 833.144 1365.03 C 854.825 1381.6 876.742 1397.86 898.89 1413.79 C 912.69 1423.72 926.767 1433.31 940.383 1443.47 C 949.285 1450.12 951.055 1455.95 942.498 1463.8 C 919.323 1485.08 892.219 1501.71 863.705 1514.86 C 806.311 1541.45 745.759 1558.46 683.156 1567.04 C 637.018 1573.37 592.792 1574.07 546.41 1574.07 C 422.545 1574.25 263.495 1552.58 164.547 1467.41 C 152.255 1456.83 155.763 1448.35 167.88 1439.83 C 228.755 1397.04 289.818 1354.75 346.074 1305.82 C 384.477 1339.35 440.738 1351.14 487.135 1330.03 C 516.604 1316.61 543.062 1290.4 554.962 1260.46 z" fill="rgb(92,92,93)" transform="translate(0,0)"></path>
<path d="M 480.888 1355.32 C 486.661 1356.97 486.366 1359.84 487.055 1366.08 C 493.609 1425.43 581.832 1431.71 604.721 1380.83 C 607.381 1374.92 607.797 1360.66 612.211 1356.4 L 614.15 1356.68 C 616.823 1360.88 616.873 1361.76 617.674 1366.72 C 613.644 1397.43 592.615 1415.6 563.228 1422.21 C 543.564 1426.55 522.981 1422.81 506.102 1411.83 C 490.849 1402.08 469.666 1371.76 480.888 1355.32 z" fill="rgb(1,1,1)" transform="translate(0,0)"></path>
<path d="M 549.859 830.853 C 555.233 832.358 592.603 854.902 596.349 859.246 C 648.389 919.586 712.839 968.007 781.133 1008.51 C 783.14 1009.7 782.771 1010.28 782.929 1012.36 C 776.294 1025.11 734.021 1050.51 719.54 1055.91 C 708.984 1052.84 697.171 1049.26 685.986 1048.41 C 640.286 1044.93 598.295 1062.07 569.729 1098.23 C 565.642 1103.41 556.76 1120.67 552.976 1122.15 C 514.888 1054.46 449.435 1031.68 377.604 1062.39 C 360.546 1052.29 328.093 1025.71 320.533 1007.74 C 324.496 1005.07 329.476 1002.63 333.734 1000.32 C 369.469 980.948 402.314 956.4 433.942 930.987 C 452.095 916.401 469.631 901.53 485.9 884.837 C 497.481 872.954 507.445 859.503 519.821 848.647 C 523.798 845.221 544.271 834.022 549.859 830.853 z" fill="rgb(92,92,93)" transform="translate(0,0)"></path>
<path d="M 429.594 1057.42 C 569.008 1051.6 606.23 1244.22 499.498 1314 C 481.522 1325.76 458.417 1332.81 436.9 1333.1 C 407.874 1333.3 377.217 1320.4 354.941 1302.22 C 326.405 1279.22 308.378 1245.67 304.96 1209.18 C 301.547 1171.39 315.496 1130.72 339.751 1101.78 C 361.837 1075.43 395.573 1060.23 429.594 1057.42 z" fill="rgb(247,247,247)" transform="translate(0,0)"></path>
<path d="M 458.318 1106.34 C 539.18 1100.58 552.139 1245.19 496.103 1282.91 C 486.13 1289.62 480.397 1291.31 468.85 1293.71 C 380.494 1304.96 363.009 1118.24 458.318 1106.34 z" fill="rgb(1,1,1)" transform="translate(0,0)"></path>
<path d="M 418.81 1154.02 C 420.282 1153.91 425.097 1153.5 426.255 1154.14 C 438.878 1161.09 439.839 1180.13 439.924 1193.03 C 439.994 1203.68 440.004 1215.55 436.92 1225.93 C 434.257 1234.89 431.324 1237.62 423.58 1241.78 C 403.983 1243.26 403.51 1213.78 402.941 1199.85 C 402.278 1183.63 403.408 1163.33 418.81 1154.02 z" fill="rgb(247,247,247)" transform="translate(0,0)"></path>
<path d="M 663.521 1056.39 C 693.567 1053.78 721.347 1062.96 746.201 1079.33 C 851.159 1148.47 815.474 1307.07 692.993 1328.71 C 667.09 1333.46 640.346 1329.67 616.783 1317.91 C 592.925 1306.16 566.006 1279.62 560.76 1251.16 C 559.645 1245.11 565.479 1229.22 566.557 1222.4 C 571.641 1190.24 567.98 1162.65 557.583 1132.12 C 563.765 1121.93 570.332 1109.98 577.944 1101.01 C 600.578 1074.35 628.856 1059.43 663.521 1056.39 z" fill="rgb(247,247,247)" transform="translate(0,0)"></path>
<path d="M 645.562 1104.38 C 660.333 1104.4 670.821 1107.49 682.444 1117.08 C 700.342 1132.06 711.583 1153.52 713.709 1176.76 C 718.283 1227.35 708.702 1286.46 647.25 1291.64 C 634.509 1291.67 622.123 1287.44 612.063 1279.62 C 571.976 1248.48 569.619 1166.81 600.225 1128.35 C 612.559 1112.85 626.441 1106.6 645.562 1104.38 z" fill="rgb(1,1,1)" transform="translate(0,0)"></path>
<path d="M 686.058 1154.02 C 707.89 1151.73 707.176 1181.8 707.255 1196.68 C 707.337 1212.31 709.588 1231.17 693.192 1238.71 C 673.551 1237.05 672.325 1215.08 672.591 1199.67 C 672.897 1181.89 670.189 1166.09 686.058 1154.02 z" fill="rgb(247,247,247)" transform="translate(0,0)"></path>
<path d="M 545.779 648.652 C 546.749 648.85 547.713 649.073 548.671 649.323 C 558.04 651.846 582.977 705.923 589.212 717.714 C 609.616 719.641 630.114 723.366 650.378 726.496 C 656.192 727.394 664.216 727.655 666.387 733.756 C 664.223 741.84 620.03 777.806 610.031 787.584 C 615.91 806.554 629.181 835.411 632.87 855.684 C 633.278 857.923 631.339 859.339 629.868 860.584 C 625.679 861.655 621.041 861.222 617.185 859.48 C 595.345 849.616 575.717 833.243 553.619 822.844 L 552.335 822.247 C 542.645 820.529 493.732 855.49 481.097 860.613 C 476.194 862.602 471.861 864.372 468.207 859.721 C 466.319 849.703 483.215 799.49 486.451 786.666 C 472.29 772.693 443.448 753.975 430.524 736.894 C 429.049 734.945 429.771 732.895 430.38 731.023 C 438.361 723.336 492.93 718.274 507.839 715.943 C 513.111 703.902 536.514 657.621 545.779 648.652 z" fill="rgb(245,177,45)" transform="translate(0,0)"></path>
<path d="M 719.835 1697.34 C 723.621 1696.8 724.451 1696.81 727.236 1698.43 C 729.665 1702.88 728.611 1708.38 727.301 1713.11 C 722.074 1731.94 715.578 1750.16 711.809 1769.4 C 699.149 1770.46 641.525 1783.48 638.87 1794.45 L 640.874 1797.44 C 646.153 1799.22 654.395 1792.98 659.49 1790.96 C 715.762 1768.66 752.26 1771.71 797.57 1811.67 C 757.251 1804.4 727.471 1814.19 700.864 1845.83 C 685.982 1867.18 690.049 1869.15 681.463 1890.46 L 681.146 1891.23 C 645.638 1885.34 607.363 1874.68 576.383 1856.18 C 578.08 1846.94 581.858 1830.94 584.688 1822.28 C 593.504 1795.31 605.189 1770.5 597.042 1741.49 C 593.15 1727.62 584.063 1717.19 579.906 1704.87 C 582.986 1701.65 598.466 1704.79 605.155 1705.24 C 645.596 1707.97 680.223 1704.47 719.835 1697.34 z" fill="rgb(245,177,45)" transform="translate(0,0)"></path>
<path d="M 376.658 1695.83 C 387.304 1696.45 407.836 1701.63 419.806 1703.32 C 455.735 1708.38 484.763 1708.31 520.574 1704.87 C 516.25 1716.25 507.963 1728.81 504.225 1740.9 C 493.785 1774.67 517.416 1820.97 527.543 1855.76 C 498.283 1873.66 456.263 1885.8 422.704 1893.18 C 420.09 1876.67 416.566 1864.54 407.969 1850.31 C 385.312 1813.58 350.23 1802.1 308.987 1809.12 C 384.637 1738.12 453.15 1805.08 467.209 1793.43 L 467.399 1791.15 C 457.463 1781 403.769 1767.56 388.086 1766.62 C 384.266 1747.49 378.214 1715.23 376.658 1695.83 z" fill="rgb(245,177,45)" transform="translate(0,0)"></path>
<path d="M 319.095 1816.35 C 382.29 1810.24 415.891 1854.77 415.035 1914.48 L 329.129 1913.11 C 304.184 1912.9 279.355 1913.31 254.609 1910.17 C 229.416 1907.45 221.385 1882.55 237.011 1863.44 C 256.873 1839.15 287.967 1820.42 319.095 1816.35 z" fill="rgb(247,247,247)" transform="translate(0,0)"></path>
<path d="M 769.231 1817.35 C 794.875 1815.91 825.695 1829.07 845.703 1846.52 C 876.328 1873.23 885.135 1909.09 832.597 1914.67 C 820.664 1915.94 805.858 1914.53 793.27 1914.1 L 688.732 1913.16 C 688.98 1862.16 716.361 1823.09 769.231 1817.35 z" fill="rgb(247,247,247)" transform="translate(0,0)"></path>
<path d="M 432.42 1575.74 C 458.696 1579.51 483.204 1580.56 509.536 1582.69 C 501.389 1620.5 497.494 1661.24 488.398 1698.62 C 469.432 1699.64 431.456 1698.28 412.776 1693.28 C 418.342 1656.13 425.706 1612.78 432.42 1575.74 z" fill="rgb(57,139,225)" transform="translate(0,0)"></path>
<path d="M 667.11 1577.45 L 668.149 1577.45 C 672.21 1582.15 687.957 1679.34 690.793 1693.71 C 667.685 1696.29 644.449 1697.53 621.199 1697.44 C 616.991 1697.35 614.447 1697.65 610.626 1696.13 C 609.39 1692.68 606.344 1669.13 605.605 1664.08 L 593.717 1582.32 C 619.784 1581.68 641.235 1579.96 667.11 1577.45 z" fill="rgb(57,139,225)" transform="translate(0,0)"></path>
<path d="M 301.891 1150.98 C 303.426 1153.66 299.581 1165.69 298.98 1169.82 C 293.615 1206.7 299.035 1233.55 314.4 1267.35 C 298.731 1262.46 278.416 1250.23 263.929 1241.88 C 252.825 1235.28 221.322 1215.19 221.556 1201.22 C 226.368 1193.8 288.913 1159.49 301.891 1150.98 z" fill="rgb(92,92,93)" transform="translate(0,0)"></path>
<path d="M 811.107 1152.93 C 819.455 1156.46 879.622 1193.41 886.254 1199.83 C 877.478 1213.63 857.681 1230.18 844.202 1239.26 C 830.485 1248.08 813.365 1256.36 798.389 1262.42 C 818.076 1227.36 821.628 1191.58 811.107 1152.93 z" fill="rgb(92,92,93)" transform="translate(0,0)"></path>
<path d="M 574.928 1864.67 C 602.207 1881.7 649.32 1895.26 681.517 1899.47 L 681.59 1913.57 C 653.411 1914.67 603.984 1900.42 582.254 1880.93 C 575.862 1875.2 575.107 1872.62 574.928 1864.67 z" fill="rgb(247,247,247)" transform="translate(0,0)"></path>
<path d="M 529.123 1864.28 C 529.517 1864.73 530.6 1867.32 530.895 1867.97 C 530.797 1870.16 530.439 1871.64 528.807 1873.27 C 505.87 1896.23 455.711 1913.84 424.94 1915.47 L 424.075 1914.95 C 422.722 1911.89 423.134 1904.31 423.122 1900.58 C 461.631 1893.28 494.473 1882.63 529.123 1864.28 z" fill="rgb(247,247,247)" transform="translate(0,0)"></path>
<path d="M 554.967 1613.47 L 555.892 1613.58 C 558.519 1616.78 563.864 1657.52 565.31 1665.55 C 561.043 1668.15 553.872 1673.67 549.848 1673.11 C 545.852 1670.74 539.896 1667.98 535.617 1665.84 C 538.863 1649.25 541.513 1630.95 543.774 1614.21 L 554.967 1613.47 z" fill="rgb(243,93,50)" transform="translate(0,0)"></path>
<path d="M 550.167 1737.71 C 560.167 1751.21 560.51 1763.28 551.511 1777.25 C 538.257 1763.23 540.11 1752.94 550.167 1737.71 z" fill="rgb(243,93,50)" transform="translate(0,0)"></path>
<path d="M 1546.08 191.205 C 1570.63 192.23 1577.47 213.865 1590.23 231.089 C 1607.24 254.051 1622.31 279.353 1639.79 301.894 C 1775.34 260.738 1897.49 396.635 1873.39 528.327 C 1865.14 573.443 1841.96 624.301 1804.21 652.002 C 1831.63 676.456 1885.46 712.356 1902.34 742.394 C 1932.4 795.88 1883.31 843.668 1838.15 868.069 C 1837.31 873.111 1836.32 878.127 1835.18 883.109 C 1827.57 916.209 1812.12 936.219 1783.88 953.88 C 1797.7 964.188 1808.8 980.526 1823.43 987.863 C 1858.18 1005.29 1888.15 1031.28 1886.48 1073.54 C 1885.25 1104.79 1856.32 1132.28 1825.73 1135.77 C 1798.42 1137.68 1767.29 1136.36 1739.67 1136.18 L 1679.83 1136.08 C 1632.03 1136.09 1594.21 1134.16 1554.61 1102.98 C 1526.3 1120.3 1495.82 1133.04 1462.06 1134.56 C 1426.76 1136.16 1391.01 1135.69 1355.62 1135.89 C 1329.09 1136.05 1301.16 1136.82 1274.86 1133.59 C 1237.3 1127.89 1211.22 1094.19 1218.41 1056.27 C 1224.97 1021.7 1252.64 1006.64 1278.43 987.428 C 1293.4 976.273 1306.82 965.379 1322.31 955.025 C 1299.62 941.962 1285.17 928.507 1273.45 904.836 C 1268.62 895.088 1265.08 886.435 1257.92 878.047 C 1241.08 858.335 1221.05 840.863 1204.01 821.616 C 1192.23 808.298 1184.55 789.346 1186.68 771.226 C 1190.96 734.896 1220.33 716.811 1244.75 694.435 C 1260.59 679.927 1273.53 667.985 1290.09 654.408 C 1275 637.761 1263.83 627.032 1251.58 607.41 C 1222.05 559.325 1212.52 501.585 1225.05 446.561 C 1250.06 339.637 1349.62 276.421 1456.94 301.542 C 1466.3 291.992 1475.77 276.152 1483.28 264.73 L 1518.37 211.781 C 1526.77 199.367 1531.47 194.06 1546.08 191.205 z" fill="rgb(247,247,247)" transform="translate(0,0)"></path>
<path d="M 1547.62 224.506 C 1554.48 229.038 1613.66 322.549 1625.01 338.04 C 1661.25 325.506 1687.88 320.135 1726.27 330.535 C 1766.76 341.984 1800.65 369.997 1821.17 406.415 C 1871.15 495.159 1840.7 600.58 1752.21 650.1 C 1769.17 663.844 1786.25 678.07 1803.6 692.5 C 1825.71 710.891 1867.42 739.749 1878.66 766.238 C 1889.08 790.799 1856.61 821.748 1838.07 832.663 C 1828.89 838.066 1819.96 841.304 1809.09 844.66 C 1808.75 875.986 1798.25 912.587 1768.03 927.01 C 1758.88 931.263 1746.61 935.827 1736.75 932.209 C 1729.33 929.487 1721.01 922.552 1713.34 926.631 C 1709.41 932.904 1708.43 950.724 1707.59 958.869 C 1742.27 960.778 1771.79 977.48 1790.37 1006.76 C 1811.8 1014.66 1830.23 1023.52 1845.58 1041.41 C 1867.38 1066.83 1853.12 1101.6 1820.13 1104.98 C 1811.62 1105.85 1803.16 1105.18 1794.54 1105.08 L 1749.82 1104.83 L 1687.56 1104.82 C 1645.49 1105.01 1595.46 1107.1 1565.42 1071.67 C 1555.39 1059.84 1563.79 1024.48 1566.02 1009.02 L 1577.85 926.638 C 1571.42 926.297 1564.24 926.378 1557.75 926.32 L 1533.68 926.347 C 1537.29 943.674 1538.39 970.541 1540.73 988.759 C 1542.65 1009.29 1545.93 1029.91 1547.07 1050.49 C 1547.5 1058.27 1547.47 1063.58 1542.81 1069.88 C 1531.4 1085.33 1510.45 1093.94 1492.62 1098.37 C 1481.65 1101.08 1470.46 1102.85 1459.18 1103.68 C 1447.47 1104.45 1434.57 1104.22 1422.69 1104.11 C 1377.3 1103.67 1331.42 1105.25 1286.11 1103.39 C 1264.9 1101.67 1245.48 1088.48 1247.57 1064.95 C 1249.47 1043.5 1269.54 1029.75 1286.43 1019.65 C 1288.53 1018.4 1300.06 1013.01 1300.91 1011.96 C 1326.5 980.508 1356.08 966.927 1395.04 958.284 C 1394.21 947.749 1394.59 932.113 1390.1 923.403 C 1388.16 922.211 1385.76 924.214 1383.48 925.453 C 1343.58 947.15 1291.65 910.89 1296.54 866.325 C 1274.59 845.307 1250.74 825.999 1228.89 804.982 C 1220.45 796.543 1216.32 788.015 1216.66 776.004 C 1217.31 753.224 1238.66 742.756 1253.32 728.634 C 1262.7 719.591 1273.25 710.615 1283.15 701.905 C 1301.78 685.502 1321.72 670.04 1339.86 653.066 C 1308.39 629.824 1285.91 610.669 1268.09 573.954 C 1247.11 531.018 1244.14 481.482 1259.85 436.347 C 1274.91 393.86 1306.42 359.207 1347.28 340.172 C 1390.05 320.327 1429.24 323.094 1472.24 338.906 C 1496.73 300.494 1522.72 262.788 1547.62 224.506 z" fill="rgb(1,1,1)" transform="translate(0,0)"></path>
<path d="M 1549.22 569.641 C 1552.26 575.926 1554.48 582.636 1557.84 589.01 C 1593.61 656.761 1653.82 676.87 1725.57 661.644 C 1740.02 686.377 1754.65 711.008 1769.46 735.535 C 1786.02 762.798 1798.47 777.696 1804.25 809.96 C 1783.69 821.716 1772.15 820.604 1750.06 814.374 C 1740.68 811.938 1728.95 809.07 1719.62 813.058 C 1700.95 821.035 1692.96 842.794 1701.85 860.964 C 1708.07 873.681 1717.5 876.531 1729.35 880.563 C 1720.53 890.811 1716.48 895.573 1712.03 908.544 C 1713.64 911.703 1715.58 914.851 1717.38 917.921 L 1537.94 917.619 L 1394.45 917.098 C 1408.34 886.658 1394.01 886.475 1372.22 874.07 C 1383.93 869.42 1402.91 865.37 1407.67 852.479 C 1413.72 836.1 1395 822.006 1381.55 817.167 C 1359.69 809.305 1340.02 818.929 1320.55 828.197 C 1312.17 819.323 1303.23 811.007 1293.77 803.301 C 1310.79 759.498 1343.69 704.055 1371.46 666.557 C 1372.42 666.874 1373.39 667.191 1374.36 667.508 C 1409.49 678.402 1447.55 674.533 1479.78 656.79 C 1513.68 638.233 1538.7 606.83 1549.22 569.641 z" fill="rgb(57,139,225)" transform="translate(0,0)"></path>
<path d="M 1475.51 684.234 C 1476.79 684.434 1478.82 684.692 1479.67 685.697 C 1487.91 695.38 1493.68 708.01 1503.08 716.715 C 1529.52 741.21 1573.48 747.092 1599.86 719.189 C 1607.84 710.755 1610.84 703.158 1614.31 692.121 C 1617.17 692.55 1621.56 693.164 1623.32 695.301 L 1622.84 697.947 C 1607.38 733.181 1580.84 751.313 1541.19 744.944 C 1517.75 741.178 1496.28 724.649 1482.95 705.565 C 1478.73 699.516 1474.16 691.801 1475.51 684.234 z" fill="rgb(1,1,1)" transform="translate(0,0)"></path>
<path d="M 1397.1 334.382 C 1403.02 333.727 1408.97 333.464 1414.92 333.596 C 1452.62 334.791 1488.31 350.858 1514.19 378.286 C 1546.56 412.488 1546.14 442.908 1544.7 486.064 C 1544.53 504.846 1545.12 523.7 1544.59 542.475 C 1542.6 613.464 1477.19 668.211 1407.75 665.635 C 1377.75 663.72 1349.09 651.011 1325.45 632.819 C 1288.82 604.307 1264.88 562.524 1258.81 516.503 C 1253.41 473.356 1264.73 427.319 1291.85 393.033 C 1317.66 360.175 1355.58 339.046 1397.1 334.382 z" fill="rgb(247,247,247)" transform="translate(0,0)"></path>
<path d="M 1438.49 389.193 C 1499.42 385.083 1526.63 441.453 1519.64 493.708 C 1517.34 510.87 1521.84 531.009 1518.31 550.365 C 1516.53 560.524 1512.68 570.206 1506.98 578.805 C 1494.95 597.03 1478.78 606.604 1457.64 610.824 C 1416.34 615.124 1386.86 589.319 1377.37 549.817 C 1374.2 535.928 1375.47 521.332 1374.82 507.437 C 1372.49 457.852 1380.64 400.559 1438.49 389.193 z" fill="rgb(1,1,1)" transform="translate(0,0)"></path>
<path d="M 1400.03 446.85 C 1409.57 447.582 1413.11 452.839 1416.8 461.459 C 1425.08 480.768 1427.81 540.286 1403.85 549.109 C 1372.57 545.417 1374.71 465.205 1400.03 446.85 z" fill="rgb(247,247,247)" transform="translate(0,0)"></path>
<path d="M 1671.99 333.377 C 1745.78 322.346 1811.71 381.053 1831.44 449.028 C 1843.56 492.4 1837.97 538.811 1815.89 578.063 C 1793.62 617.928 1760.21 643.115 1716.66 655.426 C 1712.02 656.419 1707.35 657.264 1702.65 657.957 C 1634.67 667.8 1565.83 621.657 1553.24 551.699 C 1551.26 540.682 1553.08 515.487 1552.94 503.631 C 1552.44 461.277 1547.29 420.545 1576.96 385.706 C 1601.87 354.664 1633.03 338.051 1671.99 333.377 z" fill="rgb(247,247,247)" transform="translate(0,0)"></path>
<path d="M 1646.29 389.362 C 1661.35 387.658 1680.37 394.456 1691.93 404.067 C 1718.96 426.98 1723.74 460.073 1723.75 493.196 C 1723.76 545.931 1722.99 605.557 1656.33 611.63 C 1616.68 611.046 1583.66 583.152 1579.28 542.119 C 1576.48 515.92 1576.61 470.798 1581.88 445.519 C 1587.8 417.095 1617.07 392.749 1646.29 389.362 z" fill="rgb(1,1,1)" transform="translate(0,0)"></path>
<path d="M 1690.89 449.012 C 1692.02 448.937 1696.85 448.658 1697.54 448.925 C 1718.98 457.29 1717.65 499.147 1715.63 516.766 C 1713.94 531.383 1710.5 542.108 1699.31 548.04 C 1667.39 552.429 1666.4 466.754 1690.89 449.012 z" fill="rgb(247,247,247)" transform="translate(0,0)"></path>
<path d="M 1399.43 925.71 L 1524.62 926.117 C 1527.36 936.493 1529.39 961.671 1530.54 972.946 C 1532.8 996.385 1535.45 1019.79 1538.48 1043.14 C 1513.59 1062.51 1472.19 1071.23 1441.33 1075.16 C 1440.72 1071.42 1440.04 1067.69 1439.29 1063.96 C 1434.18 1039.62 1423.82 1024.32 1403.37 1010.79 C 1372.11 993.803 1352.12 995.824 1318.26 1004.79 C 1414.41 923.848 1468.87 998.033 1486.03 990.838 L 1486.26 988.854 C 1483.06 983.282 1473.27 979.141 1467.7 976.167 C 1448.29 965.811 1426 956.495 1403.57 957.63 C 1401.96 947.022 1400.58 936.379 1399.43 925.71 z" fill="rgb(245,177,45)" transform="translate(0,0)"></path>
<path d="M 1586.19 926.511 C 1621.66 924.849 1667.21 926.076 1703.54 926.073 C 1701.38 935.904 1700.51 948.547 1699.51 958.758 C 1684.11 960.057 1629.49 975.51 1624.99 989.114 L 1626.31 991.201 C 1628.53 992.205 1629.83 993.388 1632.18 992.017 C 1679.28 964.554 1729.39 953.094 1773.31 997.61 C 1773.98 998.442 1774.82 999.818 1775.44 1000.75 C 1773.25 1002.39 1767.22 1000.52 1764.11 1000.32 C 1708.84 996.688 1673.56 1023.2 1667.76 1077.29 C 1635.56 1072.39 1594.74 1065.1 1569.52 1043.64 L 1580.71 965.664 C 1582.29 954.187 1583.83 937.079 1586.19 926.511 z" fill="rgb(245,177,45)" transform="translate(0,0)"></path>
<path d="M 1348.84 658.064 L 1362.75 664.372 C 1352.58 676.979 1345.56 690.448 1336.32 701.946 C 1332.87 706.239 1312.45 722.816 1307.22 727.301 L 1252.74 774.817 C 1268.88 790.278 1284.25 806.474 1301.12 821.369 C 1307.74 827.211 1313.06 834.032 1320.28 839.382 C 1332.7 831.278 1342.67 825.894 1358.84 823.741 C 1371.11 820.001 1402.76 831.822 1400.87 846.42 C 1398.24 866.784 1331 861.888 1386.16 891.463 C 1389.16 893.854 1391.63 896.639 1390.78 900.817 C 1386.82 920.106 1369.27 925.237 1351.76 923.195 C 1336.85 921.505 1323.3 913.723 1314.33 901.696 C 1304.49 888.704 1303.07 878.059 1305.09 862.692 C 1290.85 849.816 1276.49 837.071 1262.01 824.458 C 1230.99 797.11 1204.11 779.194 1246.98 743.754 C 1281 715.634 1314.19 685.64 1348.84 658.064 z" fill="rgb(57,139,225)" transform="translate(0,0)"></path>
<path d="M 1740.09 656.131 C 1741.83 656.021 1743.86 655.787 1745.55 656.405 C 1749.89 657.999 1848.86 741.272 1857.7 750.107 C 1862.68 755.091 1867.06 760.494 1869.83 767.052 C 1872.99 774.516 1871.82 782.776 1868.61 790.037 C 1856.47 817.508 1825.89 829.052 1800.01 838.938 C 1800.61 856.27 1798.8 878.311 1790.53 894.449 C 1781.18 912.72 1751.45 933.486 1730.77 921.794 C 1724.7 918.365 1721.8 912.706 1719.99 906.13 C 1724.69 898.635 1738.03 884.686 1744.63 876.203 C 1732.03 871.78 1717.07 871.064 1709.75 858.412 C 1706.57 852.917 1704.78 845.037 1707.05 838.98 C 1720.22 803.814 1750.64 827.02 1775.87 826.877 C 1789.93 826.797 1799.01 823.27 1810.24 817.092 C 1815.6 800.181 1831.01 788.933 1842.1 774.541 L 1843.06 773.272 C 1837.63 767.747 1820.83 758.439 1813.02 752.532 C 1784.77 731.439 1761 704.947 1743.07 674.593 C 1740.17 669.657 1734.78 662.842 1736.05 657.918 L 1740.09 656.131 z" fill="rgb(57,139,225)" transform="translate(0,0)"></path>
<path d="M 1347.75 1007.42 C 1397.83 999.045 1447.29 1046.42 1428.48 1096.04 L 1343.43 1096.1 C 1320.66 1096.28 1284.3 1100.51 1265.19 1087.75 C 1250.76 1078.13 1252.62 1058.65 1263.56 1046.98 C 1284.73 1024.41 1317.41 1010 1347.75 1007.42 z" fill="rgb(247,247,247)" transform="translate(0,0)"></path>
<path d="M 1744.72 1008.39 C 1747.53 1007.95 1751.38 1008.2 1755 1007.92 C 1786.05 1005.53 1874.96 1046.67 1840.89 1086.86 C 1829.41 1100.39 1800.77 1097.22 1782.05 1096.96 C 1748.02 1096.3 1713.89 1097.24 1679.82 1096.62 C 1678.23 1092.35 1677.14 1087.91 1676.58 1083.39 C 1671.41 1041.56 1705.62 1012.65 1744.72 1008.39 z" fill="rgb(247,247,247)" transform="translate(0,0)"></path>
<path d="M 1548.26 238.585 C 1558.01 248.153 1609.43 327.703 1616.12 342.86 C 1583.15 360.56 1562.53 386.856 1548.87 421.384 C 1534.04 384.885 1513.96 361.35 1479.52 341.46 C 1502.8 309.038 1526.37 272.231 1548.26 238.585 z" fill="rgb(57,139,225)" transform="translate(0,0)"></path>
<path d="M 1538.32 1052.98 L 1539.52 1053.97 C 1537.11 1088.63 1466.12 1097.35 1439.8 1096.15 L 1438.05 1095.32 C 1437.71 1092.39 1439.54 1086.27 1440.31 1083.11 C 1471.94 1080.93 1511.16 1069.33 1538.32 1052.98 z" fill="rgb(247,247,247)" transform="translate(0,0)"></path>
<path d="M 1567.69 1053.32 C 1573.69 1055.82 1582.67 1062.81 1590.6 1066.22 C 1617.27 1077.7 1639.98 1080.84 1668.18 1084.79 L 1670.81 1096.24 C 1642.96 1097.36 1568.12 1092.14 1567.69 1053.32 z" fill="rgb(247,247,247)" transform="translate(0,0)"></path>
<path d="M 1323.72 724.096 L 1324.29 725.014 C 1309.96 750.444 1299.71 771.243 1287.41 797.689 C 1283.65 794.072 1279.56 790.391 1275.72 786.824 C 1272.1 783.643 1267.67 779.086 1264.13 775.631 C 1282.79 758.867 1304.12 739.677 1323.72 724.096 z" fill="rgb(247,247,247)" transform="translate(0,0)"></path>
<path d="M 1774.09 727.492 C 1777.27 729.158 1795.13 748.394 1800.21 752.592 C 1811.5 761.939 1819.79 767.083 1832.12 774.738 L 1819.1 789.393 C 1816.47 792.166 1812.52 797.821 1810.11 801.064 C 1803.73 770.418 1789.48 754.231 1774.09 727.492 z" fill="rgb(114,184,232)" transform="translate(0,0)"></path>
<path d="M 1598.67 1388.38 C 1646.92 1383.53 1694.42 1409.68 1719.37 1450.57 C 1746.07 1427.04 1778.62 1418.12 1813.73 1418.06 C 1882.09 1417.94 1941.92 1475.22 1899.7 1542.15 C 1889.96 1557.6 1880.33 1566.32 1867.2 1578.74 C 1872.13 1592.66 1865.64 1606.98 1857.05 1617.82 C 1872.49 1621.54 1885.43 1634.43 1882.81 1652.32 C 1878.08 1684.6 1876.19 1723.85 1867.9 1755.51 C 1865.34 1765.31 1837.14 1771.19 1831.75 1778.96 C 1830.65 1780.56 1828.31 1795.67 1827.87 1798.4 L 1819.74 1851.14 C 1810.08 1913.82 1808.72 1905.87 1752.36 1928.55 C 1736.58 1935.02 1720.87 1941.67 1705.25 1948.5 C 1687.49 1955.8 1650.91 1974.7 1633.02 1977.67 C 1609.04 1981.66 1555.93 1933.5 1533.46 1922.49 C 1525.58 1918.63 1491.87 1895.47 1490.51 1888.87 C 1481.95 1847.55 1480.71 1803.72 1474.99 1761.63 C 1457.52 1753.82 1432.23 1745.93 1428.69 1724.5 C 1424.28 1697.74 1423.88 1670.61 1419.23 1643.7 C 1416.75 1628.95 1411.89 1599.23 1431.97 1593.92 C 1479.06 1581.46 1530.49 1577.76 1577.95 1566.72 C 1553.13 1537.11 1525.33 1515.56 1519.67 1473.64 C 1517.23 1455.57 1523.3 1435.99 1534.77 1421.95 C 1551.22 1401.81 1573.29 1391.4 1598.67 1388.38 z" fill="rgb(247,247,247)" transform="translate(0,0)"></path>
<path d="M 1603.65 1419.38 C 1660.82 1415.59 1699.89 1460.59 1711.59 1512.56 C 1720.59 1495.7 1732.87 1477.76 1748.57 1466.34 C 1780.51 1443.08 1852.26 1439.86 1875.96 1477.03 C 1882.28 1486.82 1884.23 1498.8 1881.36 1510.1 C 1874.13 1539.27 1838.59 1563.8 1814.59 1578.58 C 1822.92 1580.07 1831.86 1581.06 1837.26 1587.74 C 1840.97 1604.68 1789.82 1620.84 1776.87 1625.03 C 1797.44 1629.03 1832.54 1640.35 1851.51 1649.66 C 1851.74 1660.18 1849.29 1676.36 1847.87 1687.24 C 1845.64 1704.23 1843.5 1721.22 1841.44 1738.23 C 1830.5 1743.7 1815.23 1749.48 1803.6 1754.2 C 1798.43 1796.97 1791.73 1839.54 1783.5 1881.82 L 1741.75 1899.43 C 1717.9 1908.84 1692.94 1921.45 1669.13 1931.49 C 1656.03 1937.01 1641.05 1944.46 1627.4 1948.13 C 1590.52 1924.57 1553.79 1899.75 1517.11 1876.44 C 1512.44 1830.26 1507.32 1784.13 1501.75 1738.06 C 1487.5 1731.6 1472.15 1727.45 1458.48 1720.31 C 1456.08 1708.39 1454.66 1693.03 1453.08 1680.59 L 1445.18 1621.19 C 1452.97 1619.3 1465.7 1617.53 1474.11 1615.99 L 1558.6 1601.32 C 1587.26 1596.18 1622.99 1586.66 1651.06 1584.26 C 1640.6 1574.27 1624.97 1564.47 1613.41 1554.78 C 1588.92 1533.81 1556.24 1504.84 1550.78 1471.3 C 1545.44 1438.52 1575.88 1422.39 1603.65 1419.38 z" fill="rgb(1,1,1)" transform="translate(0,0)"></path>
<path d="M 1605.19 1427.38 C 1628.7 1426.45 1653.8 1435.47 1670.41 1451.36 C 1700.92 1480.54 1706.78 1518.41 1705.76 1558.62 C 1705.69 1561.36 1705.93 1562.26 1707.82 1564.01 C 1714.33 1563.79 1723.95 1552.53 1729.83 1548.1 C 1738.06 1541.89 1756.1 1532.18 1766.56 1533.3 C 1769.95 1533.67 1774.07 1534.39 1776.74 1532.77 C 1777.49 1525.2 1769.02 1523.94 1763.35 1524.53 C 1745.79 1526.35 1726.12 1538.58 1714.05 1550.8 L 1713.04 1551.83 C 1713.49 1542.33 1713.49 1532.75 1713.57 1523.23 C 1721.1 1515.77 1726.75 1501.51 1733.59 1492.12 C 1761.04 1454.47 1824.25 1445 1861.56 1473.18 C 1901.51 1510.5 1837.13 1558.63 1806.13 1573.42 C 1792.95 1579.71 1773.53 1584.41 1759.3 1588.51 C 1733.65 1595.67 1708.1 1603.21 1682.67 1611.12 C 1671.39 1603.77 1661.05 1598.07 1661.01 1583.41 C 1661 1578.73 1645.68 1569.15 1641.42 1565.85 C 1610.02 1541.51 1566.35 1511.03 1558.6 1469.47 C 1553.29 1441 1582.88 1429.83 1605.19 1427.38 z" fill="rgb(247,247,247)" transform="translate(0,0)"></path>
<path d="M 1626.74 1480.26 C 1629.28 1480.05 1631.83 1480.15 1634.34 1480.56 C 1671.63 1486.28 1686.46 1536.02 1682.84 1567.35 C 1682.47 1570.54 1680.91 1572.03 1678.61 1573.73 C 1674.3 1573.67 1676.37 1574.23 1672.45 1571.19 C 1658.67 1555.34 1645.2 1539.74 1630.72 1524.46 C 1618.84 1511.92 1596.47 1486.29 1626.74 1480.26 z" fill="rgb(1,1,1)" transform="translate(0,0)"></path>
<path d="M 1628.8 1488.04 C 1660.1 1491.75 1675.76 1528.86 1675.27 1556.72 C 1675.24 1558.35 1674.96 1558.13 1673.74 1558.96 L 1670.71 1556.23 C 1655.87 1538.77 1639.21 1522.48 1624.8 1504.66 C 1621.74 1500.87 1618.84 1496.62 1620.39 1491.81 C 1623.21 1489.21 1625.11 1489.05 1628.8 1488.04 z" fill="rgb(247,247,247)" transform="translate(0,0)"></path>
<path d="M 1586.88 1772.24 C 1599.23 1776.51 1630.21 1792.88 1639.9 1792.85 C 1657.21 1792.78 1680.09 1789.8 1698.38 1789.44 C 1695.42 1830.34 1691.22 1872.2 1687.66 1913.12 L 1680.22 1916.5 C 1664.41 1923.97 1644.94 1932.51 1628.8 1938.82 C 1618.75 1932.79 1606.76 1924.29 1596.86 1917.64 C 1593.72 1871.62 1592.85 1817.14 1586.88 1772.24 z" fill="rgb(57,139,225)" transform="translate(0,0)"></path>
<path d="M 1839.21 1655.18 C 1840.66 1654.98 1840.6 1655.16 1842.12 1655.5 C 1843.99 1661.45 1834.74 1720.49 1833.64 1732.28 C 1799.73 1748.24 1748.41 1761.04 1710.37 1776.82 L 1709.2 1776.77 C 1707.66 1774.51 1707.25 1701.31 1707.02 1692.73 C 1719.19 1689.39 1733.11 1684.21 1745.62 1680.45 C 1776.61 1671.27 1807.81 1662.84 1839.21 1655.18 z" fill="rgb(57,139,225)" transform="translate(0,0)"></path>
<path d="M 1759 1630.3 C 1780.02 1632.51 1809.02 1642.4 1829.73 1649.14 C 1804.47 1654.69 1779.41 1661.09 1754.59 1668.35 C 1743 1671.76 1707.91 1684.35 1698.09 1685.08 C 1686.93 1685.92 1635.02 1666.42 1623.72 1670.14 C 1621 1674.4 1623.7 1727.33 1623.95 1735.75 C 1624.21 1749.82 1624.34 1763.89 1624.33 1777.96 C 1613.3 1774.01 1597.87 1766.78 1586.22 1762.09 C 1581.89 1737.44 1576.71 1689.18 1575.64 1664.19 C 1627.26 1664.34 1706.58 1640.28 1759 1630.3 z" fill="rgb(57,139,225)" transform="translate(0,0)"></path>
<path d="M 1455.37 1628.27 C 1463.89 1629.61 1476.54 1634.38 1485.19 1636.8 C 1511.82 1644.28 1540.33 1655.57 1566.92 1661.99 C 1567.44 1691.93 1573.52 1727.54 1576.47 1758.17 C 1539.89 1742.83 1502.33 1729.91 1465.54 1714.28 C 1463.98 1699.2 1453.83 1636.77 1455.37 1628.27 z" fill="rgb(57,139,225)" transform="translate(0,0)"></path>
<path d="M 1793.35 1757.01 L 1794.68 1757.63 C 1795.24 1762.82 1790.26 1791.12 1789.02 1798.69 C 1784.71 1824.18 1780.58 1849.71 1776.63 1875.27 C 1750.47 1886.26 1724.43 1897.54 1698.52 1909.11 L 1697.24 1908.66 C 1696.53 1905.69 1706.83 1797.34 1708.17 1787.19 C 1729.91 1777.89 1770.07 1765.12 1793.35 1757.01 z" fill="rgb(57,139,225)" transform="translate(0,0)"></path>
<path d="M 1510.68 1742.15 C 1528.5 1747.43 1561.34 1761.8 1578.41 1769.45 L 1587.79 1912.18 C 1581.17 1909.24 1530.22 1875.08 1525.04 1870.34 C 1519.18 1828.07 1516.53 1784.63 1510.68 1742.15 z" fill="rgb(57,139,225)" transform="translate(0,0)"></path>
<path d="M 1631.51 1678.32 C 1648.79 1684.69 1680.39 1690.75 1698.94 1694.56 C 1698.99 1706.73 1700.94 1776.2 1697.83 1780.93 C 1677.39 1782.47 1654.58 1784.45 1634.18 1783.94 L 1631.51 1678.32 z" fill="rgb(57,139,225)" transform="translate(0,0)"></path>
<path d="M 1677.16 1620.25 C 1685.67 1618.7 1705.37 1627.01 1715.01 1630.23 C 1684.04 1636.7 1601.37 1658.37 1572.17 1654.87 C 1560.98 1652.32 1544.58 1646.64 1533.22 1643.04 C 1552.1 1640.47 1570.47 1636.16 1589.28 1633.67 C 1591.01 1633.44 1592.05 1635.01 1593.91 1636.57 C 1598.21 1637.45 1666.15 1622.64 1677.16 1620.25 z" fill="rgb(247,247,247)" transform="translate(0,0)"></path>
<path d="M 1629.68 1596.32 L 1630.73 1596.44 C 1630.48 1596.94 1590.71 1622.99 1588.05 1623.87 C 1565.81 1631.23 1543.05 1631.06 1520.35 1638.99 L 1486.28 1628.76 C 1481.84 1627.31 1477.41 1625.83 1472.99 1624.32 C 1479.79 1622.53 1488.39 1621.12 1495.41 1620.12 C 1540.45 1613.64 1584.94 1604.58 1629.68 1596.32 z" fill="rgb(57,139,225)" transform="translate(0,0)"></path>
<path d="M 1801.31 1585.09 C 1804.3 1584.28 1824.29 1590.83 1828.85 1592.26 C 1801.32 1611.71 1760.13 1620.58 1727.22 1628.17 L 1724.97 1628.7 C 1724.77 1628.53 1723.35 1627.39 1723.17 1627.1 C 1719.57 1621.26 1707.48 1617.83 1700.12 1615.05 C 1734.29 1604.4 1767.02 1595.05 1801.31 1585.09 z" fill="rgb(247,247,247)" transform="translate(0,0)"></path>
<path d="M 1650.91 1593.82 C 1652.81 1594.64 1667.08 1609.48 1670.25 1612.52 C 1655.95 1616.75 1634.05 1620.41 1618.95 1623.23 C 1612.19 1624.64 1604.88 1626.54 1598.11 1628.17 C 1614.99 1616.19 1633.39 1604.98 1650.91 1593.82 z" fill="rgb(247,247,247)" transform="translate(0,0)"></path>
<path d="M 383.603 95.2894 C 404.907 92.2833 429.295 100.355 448.031 109.823 C 470.676 121.267 484.85 136.137 498.551 156.999 C 538.768 125.837 614.185 106.204 659.08 138.719 C 685.441 157.81 694.241 190.242 676.913 218.458 C 673.321 224.307 667.637 230.875 663.308 236.324 C 666.541 236.843 669.758 237.452 672.956 238.152 C 686.644 241.27 711.216 248.699 719.374 261.533 C 721.278 265.304 721.969 273.14 721.491 277.3 C 717.627 310.935 715.151 346.432 709.229 379.529 C 706.91 392.492 677.872 404.956 666.095 411.195 C 664.199 433.991 659.508 458.068 656.172 480.857 C 654.585 491.701 650.728 531.382 643.652 537.079 C 629.767 548.259 605.755 559.351 589.64 567.612 C 571.953 576.596 554.37 585.782 536.893 595.167 C 521.89 603.323 500.424 617.691 483.502 618.219 C 477.222 618.448 470.961 617.394 465.102 615.124 C 450.546 609.472 428.274 595.56 413.457 588.085 C 393.218 577.725 372.823 567.218 352.838 556.477 C 320.246 538.959 324.373 513.525 322.725 481.901 C 321.328 456.437 320.064 430.967 318.931 405.491 C 274.732 393.112 272.17 382.852 266.848 337.93 C 264.403 317.294 251.428 270.989 261.628 253.178 C 274.017 231.542 317.452 231.287 341.356 225.565 C 335.225 210.921 329.002 198.311 326.303 182.466 C 318.683 137.742 336.941 102.905 383.603 95.2894 z" fill="rgb(247,247,247)" transform="translate(0,0)"></path>
<path d="M 389.948 127.339 C 437.954 125.44 476.147 168.587 493.509 209.186 C 501.383 200.621 509.956 192.727 519.139 185.585 C 546.162 164.537 580.171 149.591 615.167 153.805 C 627.724 155.317 641.631 160.595 649.3 171.141 C 653.526 177.038 655.09 184.436 653.612 191.54 C 648.841 214.958 615.728 236.56 597.264 249.465 C 628.743 258.091 660.522 266.238 691.539 276.346 C 688.31 307.754 683.683 339.894 679.421 371.234 C 669.39 376.745 651.531 382.804 639.925 387.928 C 635.914 413.802 632.075 439.703 628.409 465.628 C 625.758 483.61 622.536 500.779 620.686 518.9 C 615.412 520.969 608.11 525.143 602.928 527.916 C 580.409 539.248 498.096 587.491 480.53 588.751 C 476.354 589.05 472.07 587.337 468.363 585.611 C 458.882 581.198 364.352 528.781 360.162 524.621 C 356.69 521.174 355.618 515.54 354.859 510.891 C 351.867 492.562 352.524 472.147 351.77 453.524 C 350.861 431.042 348.8 408.288 349.13 385.803 C 333.38 379.365 317.522 373.194 301.563 367.294 C 300.928 361.4 299.961 355.176 298.963 349.308 C 294.32 321.995 291.094 293.992 285.476 266.883 C 296.443 264.621 309.118 263.631 320.523 261.272 C 345.397 256.126 370.273 250.844 395.135 245.654 C 377.983 226.181 362.039 204.528 357.1 178.581 C 351.841 150.958 361.004 131.766 389.948 127.339 z" fill="rgb(1,1,1)" transform="translate(0,0)"></path>
<path d="M 433.005 416.133 C 497.158 440.963 473.145 444.238 542.844 421.948 C 539.513 454.847 537.707 488.37 535.075 521.364 C 534.212 532.177 534.616 543.633 533.607 554.485 C 518.546 563.323 495.001 577.483 478.795 582.266 C 465.21 574.009 450.759 566.009 436.902 558.119 C 437.608 510.799 435.351 463.393 433.005 416.133 z" fill="rgb(57,139,225)" transform="translate(0,0)"></path>
<path d="M 596.331 161.392 C 606.743 160.424 623.196 161.488 632.077 167.039 C 669.361 190.344 622.133 221.577 602.673 235.152 C 582.647 249.122 562.394 254.037 541.852 264.197 C 504.89 282.478 468.213 304.864 427.808 314.928 L 420.054 312.265 C 416.453 310.351 412.602 307.823 409.095 305.653 C 435.25 279.087 498.65 284.486 527.965 248.934 C 532.469 243.471 536.827 239.493 536.423 231.854 C 531.092 220.013 502.538 225.915 491.544 227.333 C 515.675 190.89 552.427 165.614 596.331 161.392 z" fill="rgb(247,247,247)" transform="translate(0,0)"></path>
<path d="M 676.566 284.055 C 677.584 283.993 679.354 283.991 680.406 283.97 C 682.029 287.339 673.597 354.822 672.703 364.926 C 640.277 379.264 589.833 395.361 555.175 407.964 L 552.538 408.71 L 551.435 407.676 C 550.729 398.563 551.41 384.433 551.584 374.976 C 551.97 357.511 552.136 340.041 552.082 322.571 C 590.283 309.533 637.691 295.563 676.566 284.055 z" fill="rgb(57,139,225)" transform="translate(0,0)"></path>
<path d="M 296.578 276.249 C 309.704 278.965 336.997 289.805 350.284 294.775 L 420.454 320.51 C 421.53 348.103 421.941 375.107 423.272 402.961 C 396.341 391.151 366.617 382.862 339.239 371.922 C 329.571 368.059 319.05 364.02 309.115 361.125 L 300.724 308.591 C 299.442 300.495 296.49 283.981 296.578 276.249 z" fill="rgb(57,139,225)" transform="translate(0,0)"></path>
<path d="M 630.274 390.068 C 632.784 392.925 614.307 498.587 613.813 513.207 C 589.999 524.956 566.427 537.19 543.112 549.901 C 541.004 545.799 550.89 434.348 551.143 418.622 C 577.724 409.089 603.851 400.123 630.274 390.068 z" fill="rgb(57,139,225)" transform="translate(0,0)"></path>
<path d="M 356.939 387.996 C 376.854 394.288 403.7 405.107 423.852 412.525 C 426.109 456.19 429.06 510.957 428.66 554.351 C 412.239 544.168 374.899 526.628 363.241 515.701 C 360.652 486.229 361.621 455.61 359.153 426.017 C 358.115 413.563 357.211 400.478 356.939 387.996 z" fill="rgb(57,139,225)" transform="translate(0,0)"></path>
<path d="M 387.918 135.146 C 421.798 133.651 449.248 155.642 469.313 181.102 C 480.537 195.343 486.072 209.944 490.307 227.38 C 482.082 229.985 479.172 231.379 471.46 235.38 C 463.166 218.441 441.69 185.574 417.538 196.531 C 414.561 197.881 411.923 201.293 411.242 204.535 C 409.27 213.922 413.645 221.048 418.475 228.595 C 427.336 239.829 437.976 249.537 449.973 257.333 C 443.711 266.49 440.338 270.566 437.333 281.28 C 392.532 257.535 423.709 256.094 422.424 242.484 C 418.164 239.67 409.884 242.337 404.391 243.391 C 387.333 225.529 371.841 205.125 365.038 181.066 C 358.601 158.305 363.747 141.032 387.918 135.146 z" fill="rgb(247,247,247)" transform="translate(0,0)"></path>
<path d="M 542.884 325.176 C 544.595 328.423 543.068 402.838 543.053 412.452 C 524.084 418.277 503.73 424.97 484.41 429.207 C 483.816 422.89 484.496 404.662 484.555 397.575 C 484.683 378.992 484.639 360.408 484.423 341.826 C 503.985 336.541 523.474 330.991 542.884 325.176 z" fill="rgb(57,139,225)" transform="translate(0,0)"></path>
<path d="M 585.611 255.186 C 609.88 263.553 640.971 269.036 664.669 277.797 C 633.728 287.154 602.926 296.966 572.274 307.229 C 561.034 310.656 549.121 315.074 537.745 311.136 C 524.602 306.588 511.1 301.121 497.973 296.458 C 519.459 287.976 525.676 282.231 543.997 272.535 C 551.743 268.435 575.966 259.359 585.611 255.186 z" fill="rgb(57,139,225)" transform="translate(0,0)"></path>
<path d="M 429.265 323.782 C 442.998 327.892 461.777 335.419 475.476 340.631 C 475.726 368.167 475.089 395.891 475.237 423.548 C 471.964 423.558 438.42 408.742 432.624 406.27 C 430.173 382.137 429.47 348.061 429.265 323.782 z" fill="rgb(57,139,225)" transform="translate(0,0)"></path>
<path d="M 407.384 251.293 L 408.469 251.954 C 406.617 256.709 405.721 258.348 405.268 263.445 C 408.492 273.247 418.553 279.283 426.756 285.161 C 422.835 287.096 418.397 289.431 414.508 291.29 C 406.28 295.222 407.031 295.184 402.363 302.196 C 396.445 304.061 362.344 289.839 354.703 286.913 C 339.816 281.681 324.985 276.293 310.212 270.75 C 338.369 268.241 378.871 257.39 407.384 251.293 z" fill="rgb(57,139,225)" transform="translate(0,0)"></path>
<path d="M 503.785 233.41 C 511.137 232.969 522.386 230.746 527.785 236.082 L 527.726 238.66 C 519.283 253.002 484.881 266.304 469.341 272.194 C 460.661 275.043 454.22 276.693 445.288 278.775 C 450.626 267.12 455.16 262.209 463.381 252.404 C 475.16 238.357 486.525 234.724 503.785 233.41 z" fill="rgb(247,247,247)" transform="translate(0,0)"></path>
<path d="M 486.179 301.936 C 499.225 307.278 520.423 313.866 534.564 319.084 C 520.108 322.677 505.245 327 490.682 330.758 C 476.258 334.347 455.055 324.329 440.772 319.017 C 454.926 315.308 472.735 307.849 486.179 301.936 z" fill="rgb(57,139,225)" transform="translate(0,0)"></path>
<path d="M 422.064 202.927 C 444.877 201.312 455.089 222.982 462.725 240.908 L 456.875 248.72 L 455.039 249.718 C 441.988 244.821 414.368 219.399 422.064 202.927 z" fill="rgb(247,247,247)" transform="translate(0,0)"></path>
<metadata><recraft-signature>{"signed_by": "recraft", "signature_b64": "1r8FK7ySGlCvENc6jruSAGFUbzt7yZS6NnLTMjwXIfXoWMkedlwhEhxX+1OKLT5tWjy+MjTbzuTs510PhIN8AA==", "signing_algo": "Ed25519", "generation_timestamp": 1783497191, "identifier": "8c2fb8c4-0a7b-4f7f-83ea-3de88bff5182"}</recraft-signature></metadata></svg>