<svg xmlns="http://www.w3.org/2000/svg" height="1024" preserveAspectRatio="none" style="display: block;" version="1.1" viewBox="0 0 2048 2048" width="1024">
<path d="M 0 0 L 2048 0 L 2048 2048 L 0 2048 L 0 0 z" fill="rgb(254,254,254)" transform="translate(0,0)"></path>
<path d="M 1020.34 63.0057 C 1048.08 61.6245 1052.77 93.7184 1052.9 114.827 C 1053.01 132.374 1047.38 146.981 1039.4 162.24 C 1112.54 211.932 1192.11 251.695 1262.67 302.087 C 1297.53 327.159 1331.1 353.992 1363.23 382.48 C 1398.14 413.876 1431.68 447.778 1467.18 479.244 C 1510.26 516.978 1553.16 554.928 1595.87 593.093 C 1645.64 637.026 1718.21 703.046 1759.65 755.083 C 1775.27 755.034 1887.98 752.781 1894.39 757.204 C 1896.37 758.571 1896.9 761.217 1896.99 763.461 C 1897.09 765.728 1896.96 768.884 1895.22 770.522 C 1893.27 772.36 1891 772.948 1888.42 773.297 C 1880.48 774.373 1871.61 773.223 1863.56 773.08 C 1850.64 772.964 1837.72 773.017 1824.8 773.24 C 1725.18 774.775 1625.32 777.704 1525.72 774.565 C 1431.37 771.592 1337.15 763.247 1242.75 760.532 C 1174.38 758.849 1106 758.271 1037.62 758.799 L 1037.47 784.916 C 1091.11 784.896 1144.19 782.904 1198.19 785.919 C 1287.83 790.923 1376.42 796.634 1466.23 799.606 C 1574.06 803.175 1680.42 798.348 1787.85 798.112 L 1868.75 797.797 C 1880.41 797.755 1903.75 797.218 1914.46 798.633 C 1918.75 799.197 1922.8 800.924 1926.18 803.628 C 1931.01 807.55 1931.59 814.89 1932.06 820.692 C 1933.3 836.046 1931.51 852.638 1931.27 868.135 C 1930.61 910.797 1923.69 1224.02 1907.72 1237.56 C 1900.98 1243.27 1865.75 1243.39 1855.5 1244 C 1772.58 1249.11 1689.48 1250.71 1606.43 1248.79 C 1523.32 1247.35 1442.11 1240.69 1359.39 1249.75 C 1329.46 1253.03 1292.56 1254.03 1262.61 1253.81 C 1192.33 1252.74 1122.1 1249.88 1051.98 1245.26 C 1051.88 1258.57 1051.96 1271.89 1052.21 1285.2 C 1073.38 1287.76 1098.67 1288.29 1120.02 1289.41 C 1198.2 1293.5 1276.05 1288.75 1354.3 1287.29 L 1906.11 1274.77 C 1910.63 1274.7 1910.77 1275.1 1913.63 1277.93 C 1915.86 1284.15 1914.17 1288.48 1912.43 1294.67 C 1883.58 1299.1 1858.89 1299.11 1829.98 1299.68 L 1747.02 1301.53 C 1709.16 1354.62 1657.29 1400.33 1609.13 1443.9 C 1564.16 1484.71 1518.91 1525.22 1473.4 1565.43 C 1405.43 1626.23 1343.08 1689.88 1268.44 1743.2 C 1215.07 1781.32 1160.06 1813.58 1104.96 1848.76 C 1083.41 1862.52 1060.47 1877 1040.44 1892.77 C 1046.71 1905.59 1052.29 1917.2 1053.57 1932.65 C 1055.12 1951.26 1049.47 1987.43 1025.63 1989.9 C 1018.65 1990.63 1012.19 1985.43 1007.2 1980.79 C 988.385 1953.99 991.766 1920.35 1008.45 1893.47 C 984.716 1873.44 946.499 1850.65 919.932 1833.53 C 866.285 1798.97 814.764 1766.3 762.743 1728.93 C 706.235 1688.33 661.791 1641.54 610.442 1596.55 L 518.478 1515.69 C 480.996 1483.28 445.397 1452.75 409.082 1418.96 C 363.621 1376.66 328.013 1336.86 286.825 1291.23 C 233.862 1293.64 176.366 1299.07 124.34 1299.1 C 125.548 1295.19 128.207 1286.04 131.16 1284.04 C 143.279 1275.84 182.062 1276.18 197.127 1275.09 C 278.039 1269.27 357.898 1268.93 438.856 1269.69 C 488.623 1270.02 538.381 1271.18 588.109 1273.17 C 609.997 1274.19 634.897 1277.55 657.226 1279.26 C 698.612 1282.05 740.046 1284.08 781.507 1285.36 C 856.221 1287.42 924.875 1285.73 999.607 1284.4 C 1000.03 1270.84 1000.8 1257.73 1000.96 1244.08 L 756.255 1242.97 C 671.817 1242.2 588.314 1239.82 503.62 1240.44 C 460.48 1240.59 417.341 1240.97 374.204 1241.58 C 297.624 1243.14 221.346 1245.58 144.714 1243.41 C 139.83 1238.36 137.851 1232.37 136.99 1225.52 C 133.925 1201.12 132.09 1175.57 130.183 1151.05 C 124.803 1074.62 121.699 998.046 120.876 921.429 L 119.524 857.62 C 119.284 845.938 118.804 833.49 119.383 821.904 C 119.606 817.45 121.28 807.481 124.205 804.502 C 127.863 800.778 133.405 799.152 138.505 799.085 C 159.098 798.814 179.888 798.901 200.457 798.931 L 350.628 799.844 C 405.247 799.738 460.157 800.469 514.706 798.851 C 537.624 798.265 560.999 794.662 583.825 793.87 C 705.859 789.633 828.18 795.547 950.172 788.417 C 972.02 787.139 994.054 786.915 1015.86 785.039 L 1015.93 758.657 L 894.323 758.65 C 830.384 757.922 766.439 757.838 702.498 758.396 C 640.997 759.378 144.361 777.247 136.289 771.575 C 134.095 770.034 132.39 767.682 131.979 764.985 C 131.58 762.363 132.412 759.612 134.084 757.577 C 136.314 754.864 139.749 753.691 143.103 753.185 C 157.106 751.069 172.893 752.164 187.086 751.911 C 223.714 751.257 260.872 751.769 297.402 749.101 C 304.206 738.818 316.555 726.054 324.837 716.414 C 367.103 667.219 417.574 624.983 466.474 582.332 C 508.718 545.389 550.639 508.078 592.23 470.401 C 626.037 439.943 658.983 408.512 692.779 377.966 C 718.321 354.881 734.713 338.474 762.937 318.503 C 814.256 282.19 867.462 250.343 920.894 217.377 C 950.076 199.373 981.211 181.307 1008.65 160.983 C 991.791 134.239 985.131 77.263 1020.34 63.0057 z" fill="rgb(0,0,0)" transform="translate(0,0)"></path>
<path d="M 1022.66 1244.03 C 1024.52 1244.11 1026.37 1244.21 1028.23 1244.34 C 1031.81 1248.64 1030.69 1288.46 1031.4 1297 C 1037.71 1374.33 1053.16 1496.18 1152.22 1501.43 C 1165.82 1502.16 1190.24 1498.16 1196.38 1484.6 C 1197.96 1481.08 1197.95 1477.06 1196.36 1473.54 C 1191.16 1462.05 1178.22 1463.13 1174.2 1477.11 C 1081.11 1498.49 1060.04 1371.81 1053.54 1306.34 C 1097.28 1309.61 1140.61 1312.54 1184.5 1312.36 C 1237.09 1312.15 1289.9 1309.96 1342.5 1308.87 L 1633.73 1303.48 C 1590.29 1348.23 1545.53 1391.68 1499.52 1433.77 C 1470.89 1459.51 1439.92 1484.67 1410.72 1510 C 1346.58 1565.66 1281.66 1620.62 1212.31 1669.76 C 1152.03 1712.48 1087.52 1751.28 1024.8 1790.54 L 1005.02 1778.15 C 936.76 1735.96 869.078 1692.94 804.043 1645.79 C 737.813 1597.79 676.795 1544.23 614.718 1491.06 C 537.574 1424.89 461.217 1357.81 385.663 1289.82 C 451.803 1290.11 519.212 1291.86 585.313 1294.06 C 607.32 1294.79 635.345 1298.55 658.171 1300.4 C 690.75 1302.87 723.377 1304.69 756.03 1305.84 C 840.414 1309.15 913.189 1308.22 997.474 1305.69 C 993.675 1369.08 971.405 1498.53 881.053 1476.24 C 877.052 1470.74 870.26 1461.87 862.015 1468.43 C 855.283 1473.78 857.465 1485.3 863.312 1490.81 C 871.739 1498.76 884.378 1500.97 895.725 1501.21 C 921.69 1501.8 946.794 1491.89 965.354 1473.72 C 1015.98 1424.02 1022.19 1311.99 1022.66 1244.03 z" fill="rgb(254,254,254)" transform="translate(0,0)"></path>
<path d="M 1023.3 265.862 C 1027.32 266.157 1042.87 276.181 1047.32 278.952 C 1132.61 332.138 1220.93 381.5 1299.33 444.888 C 1315.22 457.736 1330.86 471.525 1346.38 484.796 L 1450.13 573.319 C 1516.46 629.116 1593.06 692.16 1652.8 754.82 C 1598.8 755.358 1544.8 754.635 1490.84 752.65 C 1397.75 748.824 1304.83 740.504 1211.54 739.11 C 1153.19 738.238 1095.05 738.432 1036.71 738.069 C 1034.87 706.914 1035.43 675.72 1033.16 644.015 C 1048.74 667.092 1081.44 736.018 1114.95 705.35 C 1124.37 696.732 1125.15 686.372 1125.42 674.557 C 1141.05 685.057 1157.27 696.007 1174.14 704.461 C 1180.82 707.802 1188.33 711.34 1194.27 705.426 C 1196.24 699.75 1196.13 696.081 1190.66 692.381 C 1182.22 686.674 1173.23 682.046 1164.48 676.732 C 1139.76 661.721 1114.13 647.256 1092.78 627.498 C 1070.64 605.99 1040.98 558.648 1035.89 527.997 C 1034.92 522.149 1035.15 505.28 1035 498.678 C 1034.74 487.115 1034.23 475.458 1033.86 463.96 C 1054.3 514.477 1070.37 545.78 1121.29 570.584 C 1126.33 573.038 1135.14 576.68 1138.44 568.967 C 1140.97 563.044 1138.72 558.996 1133.49 555.615 C 1123.56 549.196 1113.06 543.231 1103.64 536.023 C 1080.14 519.859 1063.04 488.735 1051.1 462.775 C 1060.46 470.55 1098.26 503.31 1112.69 486.851 C 1114.09 485.26 1114.93 482.377 1114.24 480.031 C 1111.01 469.001 1096.58 471.99 1088.4 466.223 C 1059.36 450.537 1052.86 440.267 1042.54 411.426 C 1054.82 426.676 1065.57 441.152 1083.52 449.785 C 1086.3 447.484 1093.99 439.999 1090.78 436.386 C 1068.29 411.101 1047.75 391.867 1035.92 358.621 C 1024.8 318.099 1013.97 355.792 1007.23 371.628 C 999.194 390.489 984.841 409.882 969.511 423.564 C 960.853 431.291 950.962 446.653 968.7 448.442 C 977.27 449.307 1002.23 418.074 1008.13 411.119 C 999.082 438.384 984.933 455.413 958.344 467.366 C 951.367 470.503 939.961 471.399 937.334 479.056 C 935.368 483.249 941.021 491.835 945.532 491.685 C 963.026 491.102 986.395 472.582 999.199 462.742 C 983.445 496.557 969.582 525.064 936.225 544.361 C 929.495 548.254 915.168 555.655 910.896 560.956 C 906.941 577.911 919.439 575.181 929.588 570.699 C 978.717 548.998 999.616 511.199 1016.88 462.882 C 1014.32 513.01 1018.67 534.137 992.754 579.533 C 967.785 627.98 923.576 656.916 876.388 680.756 C 867.852 685.069 856.779 689.276 862.228 701.205 C 873.035 711.127 915.354 680.444 926.245 673.281 C 925.685 681.331 925.032 688.66 927.556 696.579 C 931.884 710.157 949.285 716.435 962.126 711.82 C 974.826 707.109 983.173 694.811 990.544 684.142 C 1000.54 669.668 1009.63 655.487 1017.51 639.78 C 1018.37 671.564 1015.97 706.203 1015.96 738.737 C 895.179 738.702 774.569 735.077 653.854 738.766 C 572.968 741.238 492.131 744.047 411.247 746.611 C 434.877 723.945 457.723 700.025 482.114 678.178 C 544.394 621.321 609.458 566.182 672.738 510.621 C 759.999 434.002 851.709 368.293 951.902 309.688 C 975.848 295.681 999.193 279.868 1023.3 265.862 z" fill="rgb(254,254,254)" transform="translate(0,0)"></path>
<path d="M 999.541 520.795 C 1030.02 518.713 968.457 601.572 958.149 605.759 C 953.009 604.423 948.489 600.216 948.578 595.048 C 948.74 585.573 964.915 569.343 970.414 561.729 C 980.169 548.224 989.142 533.15 999.541 520.795 z" fill="rgb(0,0,0)" transform="translate(0,0)"></path>
<path d="M 1042.26 520.567 C 1056.5 521.103 1070.33 547.853 1078.92 559.306 C 1088.26 571.734 1103.05 586.185 1093.39 601.119 C 1090.17 601.949 1086.04 603.134 1082.88 601.464 C 1076.63 598.162 1043.53 539.07 1040.78 529.333 C 1039.7 525.505 1040.36 523.977 1042.26 520.567 z" fill="rgb(0,0,0)" transform="translate(0,0)"></path>
<path d="M 1112.08 594.864 C 1119.05 594.77 1189.83 614.745 1160.56 631.383 C 1149.37 630.174 1102.55 615.92 1105.04 601.276 C 1107.1 597.577 1108.34 597.226 1112.08 594.864 z" fill="rgb(0,0,0)" transform="translate(0,0)"></path>
<path d="M 927.919 594.95 C 935.754 594.703 944.535 600.229 941.166 607.367 C 936.159 617.974 906.887 626.001 897.228 628.926 C 894.614 629.488 894.243 629.435 891.543 629.598 C 880.88 625.904 883.252 611.961 894.539 608.262 C 905.653 604.618 917.439 600.045 927.919 594.95 z" fill="rgb(0,0,0)" transform="translate(0,0)"></path>
<path d="M 1024.14 177.989 C 1097.68 231.451 1181.9 271.189 1256.82 325.692 C 1331.86 380.293 1387.14 437.977 1455.39 499.366 C 1524.97 561.954 1597.93 621.943 1664.51 687.963 C 1680.55 703.867 1716.32 737.48 1729.29 754.318 C 1715.11 754.771 1699.26 754.44 1684.96 754.449 C 1660.48 729.509 1637.17 704.548 1610.92 681.22 C 1536.32 614.919 1459.03 551.715 1383.53 486.452 C 1345.78 453.814 1309.43 422.163 1268.62 393.28 C 1227.08 364.138 1184.66 336.29 1141.4 309.774 C 1105.29 287.695 1068.42 266.568 1032.8 243.634 L 1024.54 238.177 C 1009.22 247.178 994.42 257.584 978.789 266.867 C 905.192 310.576 832.403 356.748 763.394 407.445 C 731.918 430.569 700.296 457.914 670.422 483.276 C 632.43 515.715 594.647 548.399 557.076 581.325 C 494.843 636.241 437.381 687.131 379.915 747.098 C 361.84 747.489 344.015 748.922 325.851 748.541 C 334.953 736.592 345.652 726.66 355.575 715.702 C 386.749 681.276 420.481 653.341 454.855 622.765 L 608.865 485.216 C 636.722 460.266 664.318 435.027 691.648 409.501 C 715.513 387.235 740.986 362.72 767.088 343.237 C 848.557 282.425 940.998 235.658 1024.14 177.989 z" fill="rgb(254,254,254)" transform="translate(0,0)"></path>
<path d="M 318.168 1290.48 C 329.729 1290.15 341.298 1290.16 352.859 1290.5 C 365.547 1303.45 381.027 1316.72 394.418 1329.13 C 436.16 1367.84 479.87 1404.45 522.797 1441.81 L 605.439 1513.16 C 634.942 1538.85 665.695 1566.17 696.005 1590.81 C 770.169 1651.37 848.181 1707.06 929.549 1757.52 C 960.221 1776.94 993.487 1798.28 1025.11 1815.69 C 1033.57 1811.33 1041.92 1805.9 1050.05 1800.93 C 1130.98 1751.51 1210.73 1701.98 1285.42 1643.35 C 1333.51 1605.59 1378.94 1566.65 1425.2 1526.82 C 1507.64 1455.86 1592.99 1383.71 1665.88 1302.85 C 1683.15 1302.84 1700.41 1302.45 1717.66 1301.69 C 1708.57 1313.1 1699.12 1324.24 1689.34 1335.07 C 1664.37 1363.58 1633.61 1390.76 1605.59 1416.2 C 1567.12 1451.54 1528.32 1486.52 1489.2 1521.15 L 1395.82 1605.37 C 1348.84 1648.52 1308.04 1687.65 1255.33 1724.8 C 1205.64 1759.81 1154.99 1790.26 1103.9 1822.94 C 1079.67 1838.44 1046.44 1858.29 1024.57 1876.85 C 945.666 1817.41 854.013 1768.95 773.695 1709.09 C 717.287 1667.06 680.019 1627.16 628.64 1581.58 C 536.446 1499.78 440.032 1421.1 355.273 1331.31 C 348.784 1324.43 322.008 1296.74 318.168 1290.48 z" fill="rgb(254,254,254)" transform="translate(0,0)"></path>
<path d="M 1212.35 929.024 C 1226.34 928.497 1263.97 926.757 1274.33 932.047 C 1315.52 953.076 1309.02 1005.5 1266.69 1020.79 C 1275.03 1039.68 1299.42 1069.75 1305.27 1084.55 C 1304.88 1087.2 1305.14 1087.86 1302.62 1089.56 C 1292.04 1096.73 1285.45 1081.27 1281.4 1074.39 C 1270.95 1056.88 1258.52 1038.33 1247.35 1021.18 L 1224.52 1021.19 C 1224.27 1042.4 1224.99 1064.46 1223.75 1085.35 C 1223.51 1089.32 1216.61 1093.55 1211.14 1089.32 C 1209.33 1086.06 1208.98 1083.85 1208.99 1080.07 C 1209.15 1031.5 1208.17 982.858 1208.89 934.31 C 1208.91 932.65 1211.22 930.232 1212.35 929.024 z" fill="rgb(254,254,254)" transform="translate(0,0)"></path>
<path d="M 1239.85 944.487 C 1256.23 944.204 1271.81 942.349 1281.62 958.652 C 1286.08 966.145 1287.28 975.135 1284.94 983.535 C 1282.31 993.163 1277.74 997.713 1269.53 1002.56 C 1259.17 1006.64 1236.24 1005.17 1224.02 1005.04 L 1223.91 944.719 L 1239.85 944.487 z" fill="rgb(0,0,0)" transform="translate(0,0)"></path>
<path d="M 1003.15 927.982 C 1007.24 928.014 1010.01 927.522 1013.45 929.637 C 1016.64 934.09 1015.95 935.03 1015.95 941.021 L 1015.87 1036.67 C 1015.86 1051.97 1016.03 1068.09 1015.53 1083.44 C 1015.34 1085.71 1014.52 1088.38 1012.44 1089.63 C 1007.6 1092.55 1003.09 1091 1000.06 1086.8 C 992.306 1076.08 985.693 1064.59 978.329 1053.62 C 958.195 1023.64 940.163 991.991 920.328 961.884 C 920.081 998.692 921.313 1048.43 919.683 1086.31 C 919.572 1088.91 915.928 1090.68 913.632 1092.19 C 910.191 1091.26 910.145 1091.13 907.206 1089.42 C 905.766 1087.67 904.988 1086.35 904.964 1083.97 C 904.471 1036.16 904.223 988.251 904.464 940.432 C 904.489 935.538 904.454 933.065 908.242 929.647 C 914.084 927.813 917.303 928.65 920.927 933.96 C 948.471 974.322 972.263 1020.21 1000.97 1059.61 C 1000.81 1055.73 1000.25 1041.8 1000.55 1038.73 C 1002.19 1021.71 996.398 938.042 1003.15 927.982 z" fill="rgb(254,254,254)" transform="translate(0,0)"></path>
<path d="M 1025.43 552.699 C 1038.72 583.037 1047.88 605.745 1069.97 631.892 C 1074.64 637.439 1079.74 642.61 1085.22 647.357 C 1093.02 654.098 1108.75 661.837 1110.43 672.809 C 1111.2 677.88 1109.24 686.268 1105.78 690.129 C 1103.89 692.243 1102.07 693.232 1099.24 693.481 C 1076.98 695.431 1041.93 612.059 1026.94 600.861 C 1026.69 600.68 1026.44 600.509 1026.2 600.334 C 1025.52 600.462 1021.79 601.373 1021.72 601.462 C 998.583 629.797 985.549 668.501 957.811 693.365 C 953.218 697.482 945.564 693.002 943.833 687.895 C 935.125 662.203 957.583 654.633 971.49 640.885 C 995.265 617.381 1013.27 583.639 1025.43 552.699 z" fill="rgb(254,254,254)" transform="translate(0,0)"></path>
<path d="M 469.129 928.147 C 477.799 927.999 541.547 926.728 543.94 928.767 C 570.518 951.412 487.526 944.988 479.513 944.961 C 479.031 962.404 479.368 981.465 479.321 999.038 C 487.086 999.018 545.616 993.415 529.012 1013.11 C 522.96 1016.71 488.836 1015.08 479.649 1015.02 C 479.236 1025.98 479.541 1039.12 479.529 1050.25 L 479.484 1075.49 C 501.707 1075.37 525.568 1074.1 547.51 1076.63 C 552.13 1077.17 552.254 1084.84 550.394 1088.62 C 549.542 1089.23 547.312 1090.68 546.388 1090.64 C 532.37 1090.04 474.675 1094.24 465.744 1088.38 C 464.615 1084.96 464.044 1080.16 464.054 1076.51 C 464.185 1028.94 463.152 981.178 464.405 933.663 C 464.473 931.076 467.22 929.396 469.129 928.147 z" fill="rgb(254,254,254)" transform="translate(0,0)"></path>
<path d="M 766.746 929.082 C 776.653 928.278 839.475 927.605 846.328 929.965 C 847.509 931.43 848.405 932.085 848.716 934.021 C 849.161 936.793 848.438 939.376 846.67 941.559 C 842.043 947.273 789.03 944.715 778.784 944.759 L 778.662 999.163 C 793.656 999.362 809.187 998.278 824.158 999.242 C 829.003 999.555 833.303 1001.45 835.22 1006.16 C 835.046 1008.29 834.908 1011.38 832.925 1012.54 C 825.16 1017.09 786.85 1014.99 778.567 1014.92 L 778.512 1041.5 L 778.536 1075.27 L 824.567 1075.25 C 833.309 1075.24 851.844 1072.19 852.436 1084.41 C 848.552 1095.84 776.702 1091.51 764.891 1088.53 C 762.552 1084.78 763.298 1065.15 763.397 1059.59 C 764.115 1019.18 762.679 978.727 763.443 938.343 C 763.521 934.257 764.528 932.364 766.746 929.082 z" fill="rgb(254,254,254)" transform="translate(0,0)"></path>
<path d="M 1495.14 929.183 C 1504.03 928.947 1571.87 927.577 1574.94 930.32 C 1598 950.938 1513.65 944.772 1506.72 944.731 L 1506.86 1000.96 C 1518.2 1001.04 1548.34 999.426 1557.17 1002.03 C 1577.43 1021.79 1512.59 1016.45 1506.89 1016.42 L 1506.87 1043.25 L 1506.88 1075.95 C 1525.82 1075.76 1544.96 1075.38 1563.9 1075.65 C 1568.87 1075.72 1574.6 1076.9 1577.19 1081.53 C 1577.24 1085.23 1575.64 1090.27 1571.6 1090.27 C 1558.37 1090.29 1501.87 1094.5 1492.68 1088.61 C 1489.09 1078.89 1491.52 954.367 1490.96 934.484 C 1490.87 931.561 1492.88 930.851 1495.14 929.183 z" fill="rgb(254,254,254)" transform="translate(0,0)"></path>
<path d="M 1356.25 929.126 C 1367.98 929.023 1426.95 927.027 1433.96 930.972 C 1436.58 934.432 1435.72 932.523 1436.35 937.029 C 1435.71 939.003 1435.29 940.069 1433.7 941.508 C 1426.5 948.049 1379.45 945.114 1367.71 945.137 L 1367.62 1001.1 C 1379.52 1000.75 1391.74 1000.47 1403.66 1000.35 C 1410.83 1000.27 1417.29 1000.75 1419.94 1008.15 C 1419.57 1011.58 1419.82 1011.5 1417.64 1014.09 C 1410.41 1018.03 1377.78 1016.24 1367.95 1016.11 L 1367.83 1048.5 L 1367.64 1075.91 C 1377.87 1075.84 1432.19 1074.27 1437.54 1077.57 C 1439.7 1080.4 1439.62 1080.16 1439.98 1083.69 C 1437.84 1090.61 1427.1 1091.89 1421.07 1091.41 C 1402.12 1089.89 1371.39 1094.14 1353.66 1088.75 C 1348.03 1076.52 1355.54 965.919 1352.21 942.786 C 1351.47 937.663 1352.37 932.82 1356.25 929.126 z" fill="rgb(254,254,254)" transform="translate(0,0)"></path>
<path d="M 595.462 928.01 C 599.349 927.659 599.607 927.656 603.474 928.141 C 605.209 929.079 606.608 930.057 607.329 931.961 C 624.039 976.043 638.61 1021.42 652.734 1066.29 C 670.059 1023.04 680.133 972.659 699.862 930.097 C 701.659 926.22 709.427 927.62 712.632 931.398 C 714.376 936.796 709.487 948.141 707.518 953.748 C 691.97 995.964 679.159 1039.65 662.527 1081.53 C 660.899 1085.63 657.752 1090.37 653.429 1091.9 C 649.595 1090.91 646.713 1089.84 645.2 1085.7 C 641.685 1076.07 638.376 1066.36 634.956 1056.69 L 613.186 994.996 C 606.583 976.234 598.771 955.209 592.945 936.051 C 591.941 932.747 593.64 930.602 595.462 928.01 z" fill="rgb(254,254,254)" transform="translate(0,0)"></path>
<path d="M 1063.69 929.072 C 1076.07 928.723 1150.3 927.584 1157.92 929.837 C 1161.9 933.646 1162.37 937.139 1158.97 941.82 C 1151.63 945.633 1129.85 944.421 1120.04 944.493 C 1120.51 980.69 1120.28 1017.27 1120.31 1053.5 C 1120.32 1059.68 1120.97 1083.36 1119.2 1088 C 1115.17 1091.99 1111.58 1092.24 1106.62 1089.18 C 1102.88 1084.48 1104.48 1041.83 1104.49 1033.19 L 1104 944.883 C 1091.84 944.671 1050.1 950.965 1063.69 929.072 z" fill="rgb(254,254,254)" transform="translate(0,0)"></path>
<path d="M 1023.84 1907.54 C 1027.14 1909.45 1030.41 1918.68 1031.18 1922.3 C 1034.64 1938.6 1033.07 1954.17 1025.38 1968.86 C 1022.55 1967.17 1019.59 1961.7 1018.67 1958.66 C 1012.9 1939.83 1016.22 1924.46 1023.84 1907.54 z" fill="rgb(254,254,254)" transform="translate(0,0)"></path>
<path d="M 1022.86 83.4631 C 1030.05 86.8648 1032.2 104.868 1032.28 112.372 C 1032.4 124.295 1030.17 133.815 1025.17 144.456 C 1021.51 142.423 1018.48 133.398 1017.6 129.423 C 1013.97 112.879 1016.06 98.6171 1022.86 83.4631 z" fill="rgb(254,254,254)" transform="translate(0,0)"></path>
<path d="M 297.02 1003.98 C 303.774 1003.82 308.955 1004.88 312.648 1011.11 C 314.873 1014.85 315.41 1019.36 314.127 1023.52 C 312.232 1029.72 309.734 1031.74 304.334 1034.58 C 283.244 1036.26 279.102 1012.81 297.02 1003.98 z" fill="rgb(254,254,254)" transform="translate(0,0)"></path>
<path d="M 1732.57 1004.89 C 1739.98 1002.57 1747.91 1006.52 1750.53 1013.84 C 1753.15 1021.16 1749.53 1029.24 1742.32 1032.15 C 1737.39 1034.14 1731.77 1033.28 1727.67 1029.89 C 1723.57 1026.51 1721.65 1021.15 1722.67 1015.93 C 1723.7 1010.72 1727.49 1006.48 1732.57 1004.89 z" fill="rgb(254,254,254)" transform="translate(0,0)"></path>
<metadata><recraft-signature>{"signed_by": "recraft", "signature_b64": "taTmxM9Ut56FQLxeExaAHy5UfmdNxs/Q0CSIsH5MKQf6s5T41UKrKN3gb2f808LeEqS1HbRMRxOUfK6IdI/yAA==", "signing_algo": "Ed25519", "generation_timestamp": 1783499150, "identifier": "94bc0392-ae4a-42fe-9c29-688561b8c3ea"}</recraft-signature></metadata></svg>