<svg xmlns="http://www.w3.org/2000/svg" height="1024" preserveAspectRatio="none" style="display: block;" version="1.1" viewBox="0 0 2048 2048" width="1024">
<defs>
	<linearGradient gradientUnits="userSpaceOnUse" id="Gradient1" x1="1722.99" x2="1695.63" y1="1032.88" y2="1226.61">
		<stop class="stop0" offset="0" stop-color="rgb(56,180,63)" stop-opacity="1"></stop>
		<stop class="stop1" offset="1" stop-color="rgb(139,227,72)" stop-opacity="1"></stop>
	</linearGradient>
	<linearGradient gradientUnits="userSpaceOnUse" id="Gradient2" x1="272.679" x2="330.306" y1="1091.43" y2="1034.64">
		<stop class="stop0" offset="0" stop-color="rgb(79,190,86)" stop-opacity="1"></stop>
		<stop class="stop1" offset="1" stop-color="rgb(151,244,105)" stop-opacity="1"></stop>
	</linearGradient>
	<linearGradient gradientUnits="userSpaceOnUse" id="Gradient3" x1="1463.26" x2="1603.1" y1="1176.24" y2="981.905">
		<stop class="stop0" offset="0" stop-color="rgb(109,109,29)" stop-opacity="1"></stop>
		<stop class="stop1" offset="1" stop-color="rgb(165,213,88)" stop-opacity="1"></stop>
	</linearGradient>
	<linearGradient gradientUnits="userSpaceOnUse" id="Gradient4" x1="1029.39" x2="1011.06" y1="1691.57" y2="1835.74">
		<stop class="stop0" offset="0" stop-color="rgb(180,99,67)" stop-opacity="1"></stop>
		<stop class="stop1" offset="1" stop-color="rgb(187,124,75)" stop-opacity="1"></stop>
	</linearGradient>
	<linearGradient gradientUnits="userSpaceOnUse" id="Gradient5" x1="1123.39" x2="724.067" y1="405.207" y2="298.372">
		<stop class="stop0" offset="0" stop-color="rgb(99,185,75)" stop-opacity="1"></stop>
		<stop class="stop1" offset="1" stop-color="rgb(161,215,104)" stop-opacity="1"></stop>
	</linearGradient>
	<linearGradient gradientUnits="userSpaceOnUse" id="Gradient6" x1="845.899" x2="1486.6" y1="615.211" y2="372.972">
		<stop class="stop0" offset="0" stop-color="rgb(76,125,53)" stop-opacity="1"></stop>
		<stop class="stop1" offset="1" stop-color="rgb(92,170,69)" stop-opacity="1"></stop>
	</linearGradient>
</defs>
<path d="M 0 0 L 2048 0 L 2048 2048 L 0 2048 L 0 0 z" fill="rgb(255,255,255)" transform="translate(0,0)"></path>
<path d="M 1014.22 98.3832 C 1102.61 158.725 1155.56 184.945 1193.89 291.612 C 1245.08 282.716 1281.28 267.017 1293.78 213.164 C 1306 221.262 1324.26 239.342 1333.05 250.993 C 1364.44 292.639 1378.33 323.553 1372.68 375.028 C 1420.7 371.627 1442.86 355.974 1461.42 311.916 C 1489.78 347.593 1503.2 389.139 1507.18 433.982 C 1519.44 438.359 1532.02 444.383 1544.09 449.47 C 1596.25 471.453 1644.57 499.288 1692.93 528.54 C 1698.08 556.392 1699.45 587.382 1701.41 615.651 C 1707.71 706.936 1704.23 788.681 1690.87 879.246 C 1716.24 868.647 1791.2 841.331 1815.53 850.49 C 1821.69 856.055 1816.98 876.231 1815.63 883.738 C 1806.37 933.601 1786.99 981.037 1758.68 1023.12 C 1778.53 1018.9 1796.95 1014.65 1817.39 1013.9 C 1828.99 1013.51 1840.6 1013.71 1852.18 1014.49 C 1870.28 1015.77 1932.43 1023.64 1941.51 1032.5 C 1956.28 1046.91 1887.26 1143.79 1876.51 1157.29 C 1862.15 1175 1846.78 1191.89 1830.5 1207.86 C 1818.48 1219.51 1805.44 1229 1791.99 1238.83 C 1828.46 1251.76 1869.76 1285.43 1896.27 1313.99 C 1911.55 1330.44 1887.74 1342.68 1875.1 1351.37 C 1807.75 1397.63 1723.87 1427.05 1641.66 1424.63 C 1616.6 1423.89 1590.99 1416.8 1566.42 1412.25 C 1543.97 1461.51 1516.75 1502.32 1486.23 1546.48 C 1507.62 1550.2 1529.47 1555.36 1550.56 1560.15 C 1560.54 1562.42 1572.36 1570.95 1575.06 1580.94 C 1578.9 1595.12 1570.13 1617.21 1565.95 1630.95 C 1598.68 1639.13 1722.1 1663.38 1740.8 1679.82 C 1746.08 1684.46 1749.29 1691.02 1749.7 1698.04 C 1750.07 1703.49 1748.73 1708.91 1745.89 1713.57 C 1740.08 1723.14 1728.86 1732.49 1720.94 1740.47 C 1703.91 1757.64 1683.52 1774.52 1667.47 1792.35 C 1677.08 1820.08 1690.43 1846.87 1701.81 1873.94 C 1706.33 1884.68 1711.99 1895.99 1714.43 1907.41 C 1715.96 1914.55 1714.27 1921.54 1710.11 1927.52 C 1706.63 1932.5 1699.08 1936.91 1693.04 1937.53 C 1684.99 1938.35 1636.7 1922.66 1625.1 1919.39 C 1561.85 1901.22 1497.91 1885.57 1433.42 1872.48 C 1417.12 1869.24 1367.17 1863.48 1357.75 1854.56 C 1354.26 1851.25 1352.32 1846.53 1351.38 1841.9 C 1348.55 1827.98 1351.04 1799.74 1351.09 1784.33 C 1334.8 1781.83 1318.49 1779.42 1302.18 1777.11 C 1286.45 1788.5 1271.02 1802.26 1254.57 1814.23 C 1190.63 1861.63 1122.69 1903.39 1051.53 1939.04 C 1041.21 1943.97 1031.94 1948.35 1021.32 1952.67 C 1005.81 1947.28 979.097 1932.56 964.386 1924.53 C 909.696 1895.36 857.45 1861.82 808.156 1824.24 C 784.995 1806.93 768.227 1794.94 747.372 1775.18 C 729.032 1777.68 710.728 1780.44 692.464 1783.45 C 694.781 1799.95 698.351 1816.49 699.74 1833.09 C 702.171 1862.14 684.207 1863.81 662.047 1866.5 C 591.404 1875.07 521.557 1889.78 452.886 1908.14 C 435.029 1912.74 417.314 1917.87 399.768 1923.53 C 380.931 1929.59 344.355 1948.3 334.24 1921.36 C 332.824 1917.49 332.513 1913.3 333.343 1909.26 C 335.174 1900.15 344.972 1878.35 348.874 1869.05 C 360.115 1842.3 371.494 1815.6 383.012 1788.96 C 355.852 1764.43 329.297 1737.91 302.133 1713.27 C 293.665 1705.59 290.246 1692.24 298.285 1682.93 C 310.668 1668.58 342.655 1666.05 360.347 1659.5 C 401.637 1647.08 442.78 1637.58 484.796 1629.26 C 482.978 1622.51 481.248 1615.73 479.605 1608.93 C 469.587 1566.62 491.99 1560.31 526.892 1555.4 C 536.389 1554.07 547.783 1551.64 557.152 1549.56 C 544.988 1528.27 530.87 1507.39 519.061 1486.16 C 506.539 1463.65 494.907 1436.89 484.649 1413.26 C 414.619 1430.55 359.74 1434.5 288.924 1412.43 C 259.426 1403.24 164.049 1357.57 151.074 1330.82 C 149.301 1327.17 148.799 1323.52 150.289 1319.68 C 157.053 1302.27 208.883 1266.91 225.803 1257.04 C 237.366 1250.29 249.652 1244.58 261.989 1239.41 C 224.462 1216.45 191.036 1181.77 164.913 1146.55 C 153.258 1130.84 103.015 1052.91 106.272 1036.14 C 106.796 1033.45 108.319 1031.8 110.654 1030.43 C 119.344 1025.34 131.983 1023.93 141.866 1021.89 C 189.59 1012.06 236.196 1007.85 284.03 1019.85 C 274.297 999.492 262.655 979.632 252.842 959.607 C 247.478 948.663 213.397 855.264 231.766 852.354 C 266.895 846.789 318.926 858.313 353.451 867.723 C 351.144 842.367 347.588 817.493 345.655 791.777 C 341.161 730.807 340.837 669.601 344.686 608.587 C 346.44 581.487 347.922 555.21 353.669 528.61 C 359.1 523.236 377.101 512.646 384.28 508.318 C 434.087 478.208 486.341 452.344 540.487 431.001 C 540.827 426.661 541.313 422.334 541.946 418.027 C 547.628 377.883 559.216 346.649 592.554 321.62 C 616.1 362.927 625.699 369.537 671.872 376.554 C 675.448 315.107 698.529 252.164 752.67 217.915 C 769.864 268.506 804.126 271.432 850.434 282.928 C 892.542 189.129 975.487 178.424 1014.22 98.3832 z" fill="rgb(47,34,47)" transform="translate(0,0)"></path>
<path d="M 562.129 1029.64 C 561.847 1022.35 566.626 995.888 568.204 988.075 C 583.335 912.032 617.366 841.021 667.159 781.589 C 728.818 708.027 797.808 659.275 889.808 630.758 C 921.508 620.932 947.489 614.765 980.849 611.896 C 1102.21 601.959 1222.59 640.252 1315.9 718.474 C 1318.32 720.407 1327.55 728.033 1329.24 730.161 C 1348.57 744.807 1365.66 765.94 1381.69 784.284 C 1439.16 850.07 1473.87 921.297 1485.86 1007.75 C 1496.79 1086.59 1474.18 1151.33 1429.04 1215.11 C 1413.94 1236.45 1391.89 1256.67 1370.04 1271.02 C 1307.03 1309.96 1209.57 1329.81 1136.95 1338.85 C 1017.25 1353.75 853.385 1343.39 740.899 1297.56 C 710.95 1285.5 682.738 1269.52 657.004 1250.02 C 637.744 1235.3 616.415 1214.42 604.118 1193.26 C 601.114 1189.95 599.108 1186.84 596.737 1183.09 C 573.712 1146.6 561.692 1109.09 560.323 1066 C 559.996 1055.73 559.969 1039.65 562.129 1029.64 z" fill="rgb(169,206,92)" transform="translate(0,0)"></path>
<path d="M 1329.24 730.161 C 1348.57 744.807 1365.66 765.94 1381.69 784.284 C 1439.16 850.07 1473.87 921.297 1485.86 1007.75 C 1496.79 1086.59 1474.18 1151.33 1429.04 1215.11 C 1413.94 1236.45 1391.89 1256.67 1370.04 1271.02 C 1307.03 1309.96 1209.57 1329.81 1136.95 1338.85 C 1017.25 1353.75 853.385 1343.39 740.899 1297.56 C 710.95 1285.5 682.738 1269.52 657.004 1250.02 C 637.744 1235.3 616.415 1214.42 604.118 1193.26 C 610.8 1195.22 618.118 1198.96 624.267 1202.33 C 774.758 1284.8 946.056 1293.7 1113.52 1281.37 C 1204.12 1274.7 1286.92 1258.84 1358.23 1198.02 C 1366.5 1190.96 1377.12 1181.2 1383.06 1172.26 C 1384.89 1171.53 1386.69 1170.74 1388.48 1169.9 C 1399.08 1164.81 1401.09 1160.24 1404.79 1149.92 C 1420.08 1117.78 1426.14 1100.3 1431.16 1065.24 C 1448.38 945.114 1400.62 826.789 1329.63 732.028 C 1329.5 731.405 1329.37 730.783 1329.24 730.161 z" fill="rgb(103,164,55)" transform="translate(0,0)"></path>
<path d="M 562.129 1029.64 C 561.847 1022.35 566.626 995.888 568.204 988.075 C 583.335 912.032 617.366 841.021 667.159 781.589 C 728.818 708.027 797.808 659.275 889.808 630.758 C 921.508 620.932 947.489 614.765 980.849 611.896 C 1102.21 601.959 1222.59 640.252 1315.9 718.474 C 1314.71 719.113 1314.56 719.545 1313.39 718.834 C 1303.89 713.034 1294.87 706.354 1285.13 700.755 C 1263.02 687.921 1240.31 676.163 1217.07 665.521 C 1093.85 607.534 951.046 608.25 828.419 667.471 C 775.525 693.377 734.818 723.6 695.064 766.972 C 646.031 819.534 608.863 882.018 586.074 950.192 C 578.759 971.629 574.643 989.597 570.276 1011.68 C 568.482 1020.75 565.88 1028.65 564.883 1038.01 L 563.886 1038.5 C 561.691 1034.06 564.403 1035.16 562.129 1029.64 z" fill="rgb(196,230,130)" transform="translate(0,0)"></path>
<path d="M 1383.06 1172.26 C 1359.87 1178.76 1314.71 1179.62 1296.98 1156.68 C 1289.99 1147.66 1303.96 1134.82 1312.38 1130.83 C 1338.56 1118.43 1390.57 1120.68 1404.79 1149.92 C 1401.09 1160.24 1399.08 1164.81 1388.48 1169.9 C 1386.69 1170.74 1384.89 1171.53 1383.06 1172.26 z" fill="rgb(254,234,108)" transform="translate(0,0)"></path>
<path d="M 916.903 1065.96 C 924.712 1066.83 936.689 1071.76 945.418 1073.46 C 977.739 1079.75 1010.78 1083.85 1043.71 1081.65 C 1069.56 1079.92 1093.53 1075.7 1118.58 1069.44 C 1121.82 1068.63 1128.41 1067.32 1131.6 1068.19 C 1137.71 1073.72 1136.07 1084.5 1136.01 1092.27 C 1135.73 1130.23 1125.43 1165.99 1103.23 1196.96 C 1055.43 1259.15 982.906 1254.64 940.116 1190.7 C 921.684 1163.42 913.13 1130.52 911.367 1097.9 C 910.812 1087.63 907.293 1072.01 916.903 1065.96 z" fill="rgb(68,32,53)" transform="translate(0,0)"></path>
<path d="M 924.965 1082.62 C 942.465 1088.36 955.52 1089.96 973.119 1092.72 C 1025.75 1100.95 1070.24 1096.76 1121.11 1083.11 C 1121.8 1116.26 1118.37 1137.37 1104.46 1167.4 C 1066.48 1244.88 982.231 1246.41 943.811 1169.74 C 930.494 1143.81 924.898 1111.58 924.965 1082.62 z" fill="rgb(206,78,75)" transform="translate(0,0)"></path>
<path d="M 943.811 1169.74 C 985.47 1138.65 1045.05 1134.47 1091.04 1158.24 C 1096.34 1160.98 1100.06 1163.32 1104.46 1167.4 C 1066.48 1244.88 982.231 1246.41 943.811 1169.74 z" fill="rgb(231,180,119)" transform="translate(0,0)"></path>
<path d="M 1278.71 962.34 C 1363.65 954.798 1380.64 1107.19 1288.5 1126.86 C 1272.89 1128.09 1260.46 1124.26 1247.81 1114.86 C 1195.83 1076.22 1208.57 970.888 1278.71 962.34 z" fill="rgb(68,32,53)" transform="translate(0,0)"></path>
<path d="M 1258.72 982.013 C 1271.24 981.293 1282.34 990.534 1285.49 1002.43 C 1287.54 1010.03 1286.44 1018.13 1282.45 1024.92 C 1277.96 1032.51 1272.65 1035.61 1264.48 1037.88 C 1230.35 1038.86 1224.85 993.144 1258.72 982.013 z" fill="rgb(255,255,255)" transform="translate(0,0)"></path>
<path d="M 772.726 960.366 C 784.176 958.979 798.514 962.201 807.962 968.637 C 864.313 1007.03 850.576 1109.2 781.348 1124.32 C 700.511 1134.42 676.133 971.666 772.726 960.366 z" fill="rgb(68,32,53)" transform="translate(0,0)"></path>
<path d="M 750.106 981.076 C 755.211 980.772 758.503 980.58 763.388 982.344 C 770.476 984.835 776.217 990.15 779.246 997.025 C 782.502 1004.49 782.648 1012.94 779.652 1020.52 C 775.756 1030.4 769.378 1035.06 760.021 1038.99 C 727.139 1044.98 715.408 996.92 750.106 981.076 z" fill="rgb(255,255,255)" transform="translate(0,0)"></path>
<path d="M 700.596 1124.34 C 747.098 1115.96 817.134 1165.15 727.256 1176.43 C 710.141 1178.61 680.289 1176.3 665.737 1167.05 C 647.099 1155.2 663.046 1136.99 677.514 1130.88 C 686.794 1126.96 690.658 1125.8 700.596 1124.34 z" fill="rgb(254,234,108)" transform="translate(0,0)"></path>
<path d="M 1276.59 843.207 C 1303.66 840.78 1340.42 858.708 1343.48 891.814 C 1343.67 893.848 1341.35 895.26 1339.85 896.283 C 1331.5 897.616 1320.7 887.233 1311.33 883.56 C 1297.72 878.561 1287.24 876.925 1272.86 876.372 C 1262.61 875.978 1243.33 883.101 1236.5 879.747 C 1234.05 874.56 1237.45 867.252 1240.48 862.878 C 1249.12 850.417 1262.45 846.063 1276.59 843.207 z" fill="rgb(68,32,53)" transform="translate(0,0)"></path>
<path d="M 764.998 842.315 C 784.497 840.91 812.501 851.384 820.162 873.339 C 821.168 876.223 815.533 880.867 813.802 880.569 C 796.273 877.56 782.931 877.089 765.403 879.731 C 751.636 883.239 698.526 910.076 725.787 865.309 C 733.057 853.37 751.116 844.423 764.998 842.315 z" fill="rgb(68,32,53)" transform="translate(0,0)"></path>
<path d="M 964.551 669.673 C 983.571 672.889 1000.27 719.278 968.086 730.19 C 937.319 729.022 940.184 686.73 964.551 669.673 z" fill="rgb(103,164,55)" transform="translate(0,0)"></path>
<path d="M 1080.68 670.663 C 1101.97 678.142 1109.7 722.652 1078.33 730.602 C 1048.61 722.626 1056.56 685.064 1080.68 670.663 z" fill="rgb(103,164,55)" transform="translate(0,0)"></path>
<path d="M 1185.61 687.836 C 1206.37 686.55 1216.72 737.511 1185.69 744.566 C 1161.34 740.833 1160.32 715.888 1172.83 699.105 C 1176.81 693.773 1180.25 691.428 1185.61 687.836 z" fill="rgb(103,164,55)" transform="translate(0,0)"></path>
<path d="M 860.061 690.688 C 883.43 698.805 894.763 736.105 866.826 748.475 C 842.846 747.313 837.78 721.929 848.417 704.102 C 852.149 697.847 854.787 695.446 860.061 690.688 z" fill="rgb(103,164,55)" transform="translate(0,0)"></path>
<path d="M 1023.83 149.394 C 1028.62 152.26 1032.57 155.21 1037.06 158.477 C 1041.92 161.759 1045.9 164.255 1050.24 168.244 C 1137.95 220.738 1176.34 306.14 1180.78 404.989 C 1181.07 411.439 1179.42 448.752 1180.33 450.343 L 1180.17 451.891 C 1185.83 432.816 1190.3 413.41 1193.57 393.784 C 1195.15 384.234 1197.04 367.161 1199.12 358.48 C 1198.82 348.62 1197.39 335.752 1196.86 325.275 C 1235.05 321.98 1286.3 306.457 1305.66 270.385 C 1307.61 272.841 1309.44 275.521 1311.26 278.095 C 1319.39 291.437 1326.23 305.523 1331.68 320.163 C 1341.86 347.995 1340.04 368.291 1329.2 395.939 C 1325.51 405.366 1312.24 418.045 1311.15 421.389 C 1367.55 402.557 1411.83 426.073 1459.75 376.8 L 1464.29 390.591 C 1481.43 455.145 1473.17 512.775 1441.12 572.376 C 1431.23 590.762 1420.27 600.472 1403.97 612.849 C 1424.2 605.427 1429.58 603.809 1448.01 593.364 C 1454.48 588.91 1460.74 584.611 1467.03 579.898 C 1507.61 609.966 1536.83 614.101 1584.61 598.314 C 1585.44 603.706 1586.21 607.43 1586.03 612.927 C 1593.2 692.907 1567.16 772.769 1515.18 833.507 C 1504.27 846.252 1490.42 861.633 1476.81 871.203 C 1468.74 857.121 1461.35 843.116 1452.95 829.176 C 1434.6 798.69 1415.24 774.215 1392.67 746.929 C 1346.1 697.137 1307.54 666.257 1247.93 633.829 C 1154.92 583.924 1048.08 565.982 943.868 582.765 C 915.457 587.507 892.257 594.623 864.605 602.785 C 857.941 598.156 848.547 592.738 841.113 587.724 C 825.91 571.196 818.31 545.12 812.443 524.129 C 809.928 506.168 808.987 490.758 810.531 472.702 C 804.273 463.606 789.306 452.581 780.643 445.61 C 776.314 434.251 729.752 410.688 717.241 404.834 C 699.459 362.645 712.43 325.531 733.948 287.582 C 736.819 282.447 738.526 279.36 742.108 274.563 C 764.045 296.276 790.674 305.207 819.733 313.686 C 827.144 315.848 839.169 318.903 845.934 321.534 C 846.386 328.177 847.038 335.468 846.994 342.064 C 847.792 350.492 854.379 396.86 857.144 401.634 L 857.701 401.725 C 859.423 368.977 878.798 310.612 893.41 280.772 C 911.628 243.569 955.283 216.068 985.84 189.621 C 1000.83 176.644 1011.63 165.125 1023.83 149.394 z" fill="url(#Gradient6)" transform="translate(0,0)"></path>
<path d="M 1023.83 149.394 C 1028.62 152.26 1032.57 155.21 1037.06 158.477 C 1041.92 161.759 1045.9 164.255 1050.24 168.244 C 1053.86 177.185 1062.23 189.252 1067.21 197.98 C 1074.71 211.411 1081.67 225.135 1088.07 239.118 C 1121.53 311.543 1132.35 406.185 1103.59 482.069 C 1094.51 506.025 1082.16 525.473 1066.76 545.729 C 1069.55 536.181 1074.05 521.949 1075.81 512.438 C 1081.07 483.932 1078.19 449.656 1065.73 423.314 C 1067.55 466.681 1060.92 503.754 1030.7 537.257 C 1015.09 554.556 995.692 570.171 971.669 570.209 C 928.592 570.276 883.097 573.66 849.396 541.443 C 825.666 518.758 819.17 490.215 812.991 459.825 C 812.626 461.947 811.176 471.341 810.531 472.702 C 804.273 463.606 789.306 452.581 780.643 445.61 C 776.314 434.251 729.752 410.688 717.241 404.834 C 699.459 362.645 712.43 325.531 733.948 287.582 C 736.819 282.447 738.526 279.36 742.108 274.563 C 764.045 296.276 790.674 305.207 819.733 313.686 C 827.144 315.848 839.169 318.903 845.934 321.534 C 846.386 328.177 847.038 335.468 846.994 342.064 C 847.792 350.492 854.379 396.86 857.144 401.634 L 857.701 401.725 C 859.423 368.977 878.798 310.612 893.41 280.772 C 911.628 243.569 955.283 216.068 985.84 189.621 C 1000.83 176.644 1011.63 165.125 1023.83 149.394 z" fill="url(#Gradient5)" transform="translate(0,0)"></path>
<path d="M 1023.83 149.394 C 1028.62 152.26 1032.57 155.21 1037.06 158.477 C 1052.13 203.998 1064.58 265.557 1042.54 310.733 C 1031.15 334.071 1017.91 337.042 1006.85 352.567 C 988.946 377.698 966.88 427.924 958.913 458.344 C 956.331 468.201 956.769 487.231 957.024 497.047 C 942.352 484.829 931.542 474.266 923.034 456.884 C 902.571 415.078 899.603 370.568 913.043 326.388 C 885.631 375.784 877.87 427.321 877.808 482.896 C 867.536 458.987 855.723 428.997 857.825 402.915 C 857.784 402.518 857.742 402.122 857.701 401.725 C 859.423 368.977 878.798 310.612 893.41 280.772 C 911.628 243.569 955.283 216.068 985.84 189.621 C 1000.83 176.644 1011.63 165.125 1023.83 149.394 z" fill="rgb(196,230,130)" transform="translate(0,0)"></path>
<path d="M 742.108 274.563 C 764.045 296.276 790.674 305.207 819.733 313.686 C 827.144 315.848 839.169 318.903 845.934 321.534 C 846.386 328.177 847.038 335.468 846.994 342.064 C 792.165 343.284 757.575 344.718 733.948 287.582 C 736.819 282.447 738.526 279.36 742.108 274.563 z" fill="rgb(196,230,130)" transform="translate(0,0)"></path>
<path d="M 1305.66 270.385 C 1307.61 272.841 1309.44 275.521 1311.26 278.095 C 1319.39 291.437 1326.23 305.523 1331.68 320.163 C 1341.86 347.995 1340.04 368.291 1329.2 395.939 C 1325.51 405.366 1312.24 418.045 1311.15 421.389 C 1297.41 428.28 1287.94 448.632 1283.42 462.546 C 1283.21 463.196 1283.01 463.851 1282.83 464.509 C 1282.65 467.983 1282.09 470.379 1283.14 473.486 C 1282.43 475.715 1272.95 487.014 1270.8 489.62 C 1254.81 509.078 1240.01 532.708 1218.43 546.244 C 1234.77 507.305 1236 477.063 1226.49 436.38 C 1229.51 505.022 1202.94 540.037 1138.34 559.543 C 1141.96 555.94 1145.53 552.283 1149.04 548.573 C 1201.72 493.355 1202.66 444.515 1200.9 371.61 C 1200.78 366.002 1200.27 363.892 1199.12 358.48 C 1198.82 348.62 1197.39 335.752 1196.86 325.275 C 1235.05 321.98 1286.3 306.457 1305.66 270.385 z" fill="rgb(105,190,77)" transform="translate(0,0)"></path>
<path d="M 1305.66 270.385 C 1307.61 272.841 1309.44 275.521 1311.26 278.095 C 1302.8 335.8 1249.12 355.775 1200.9 371.61 C 1200.78 366.002 1200.27 363.892 1199.12 358.48 C 1198.82 348.62 1197.39 335.752 1196.86 325.275 C 1235.05 321.98 1286.3 306.457 1305.66 270.385 z" fill="rgb(196,230,130)" transform="translate(0,0)"></path>
<path d="M 1331.68 320.163 C 1341.86 347.995 1340.04 368.291 1329.2 395.939 C 1325.51 405.366 1312.24 418.045 1311.15 421.389 C 1297.41 428.28 1287.94 448.632 1283.42 462.546 C 1283.21 463.196 1283.01 463.851 1282.83 464.509 C 1278.81 455.908 1279.2 448.427 1278.03 439.699 C 1273.46 405.533 1298.11 388.651 1314.7 363.018 C 1323.14 349.982 1326.21 334.618 1331.68 320.163 z" fill="rgb(103,164,55)" transform="translate(0,0)"></path>
<path d="M 1582.75 616.238 L 1586.03 612.927 C 1593.2 692.907 1567.16 772.769 1515.18 833.507 C 1504.27 846.252 1490.42 861.633 1476.81 871.203 C 1468.74 857.121 1461.35 843.116 1452.95 829.176 C 1434.6 798.69 1415.24 774.215 1392.67 746.929 C 1404.83 748.59 1417.18 749.751 1429.52 749.766 C 1493.65 749.845 1550.28 699.44 1573.52 642.266 C 1576.97 633.786 1581.14 625.344 1582.75 616.238 z" fill="rgb(66,127,52)" transform="translate(0,0)"></path>
<path d="M 1467.03 579.898 C 1507.61 609.966 1536.83 614.101 1584.61 598.314 C 1585.44 603.706 1586.21 607.43 1586.03 612.927 L 1582.75 616.238 C 1580.45 618.023 1571.6 625.856 1569.64 627.542 C 1514.22 675.414 1475.42 664.224 1408.99 652.012 C 1395.26 649.489 1373.25 648.049 1358.08 646.536 C 1376.92 636.381 1445.16 612.008 1448.01 593.364 C 1454.48 588.91 1460.74 584.611 1467.03 579.898 z" fill="rgb(105,190,77)" transform="translate(0,0)"></path>
<path d="M 1459.75 376.8 L 1464.29 390.591 C 1438.13 409.829 1432.51 418.434 1399.54 433.168 C 1387.89 438.408 1375.95 442.954 1363.76 446.784 C 1344.99 452.511 1295.21 462.839 1283.14 473.486 C 1282.09 470.379 1282.65 467.983 1282.83 464.509 C 1283.01 463.851 1283.21 463.196 1283.42 462.546 C 1287.94 448.632 1297.41 428.28 1311.15 421.389 C 1367.55 402.557 1411.83 426.073 1459.75 376.8 z" fill="rgb(169,206,92)" transform="translate(0,0)"></path>
<path d="M 506.087 1586.7 C 708.316 1547.21 914.424 1531.17 1120.33 1538.9 C 1217.15 1541.79 1312.31 1546.97 1408.21 1561.86 C 1439.86 1566.77 1519.36 1576.4 1544.62 1590.8 C 1542.55 1602.44 1537.79 1617.85 1534.53 1629.71 L 1516.33 1696.1 C 1511.61 1713.51 1504.59 1747.5 1498.58 1762.61 L 1494.39 1781.26 C 1257.79 1728.87 1014.16 1715.9 773.339 1742.87 C 699.335 1750.45 619.181 1760.76 547.323 1780.04 C 545.655 1774.45 543.9 1764.72 542.641 1758.72 L 519.301 1646.31 C 515.385 1628.2 508.976 1604.43 506.087 1586.7 z" fill="rgb(231,180,119)" transform="translate(0,0)"></path>
<path d="M 542.641 1758.72 C 570.127 1748.55 637.682 1737.99 668.294 1733.17 C 872.465 1701.97 1079.92 1698.58 1285 1723.09 C 1332.34 1728.32 1379.41 1735.78 1426.04 1745.45 C 1451.13 1750.56 1474.06 1755.21 1498.58 1762.61 L 1494.39 1781.26 C 1257.79 1728.87 1014.16 1715.9 773.339 1742.87 C 699.335 1750.45 619.181 1760.76 547.323 1780.04 C 545.655 1774.45 543.9 1764.72 542.641 1758.72 z" fill="url(#Gradient4)" transform="translate(0,0)"></path>
<path d="M 1155.28 1592.06 C 1182.95 1592.01 1224.06 1592.33 1214.78 1632.64 C 1212.61 1642.05 1208.03 1646.61 1200.07 1651.64 C 1204.37 1661.52 1211.87 1668.5 1213.55 1673.9 L 1212.39 1674.97 L 1206.76 1674.63 L 1194.37 1673.44 C 1192.47 1668.29 1187.49 1658.88 1184.88 1653.61 C 1179.75 1653.02 1173.04 1652.94 1167.77 1652.73 C 1167.17 1658.83 1166.48 1664.92 1165.69 1670.99 L 1148.81 1670.95 C 1151.83 1649.88 1153.81 1613.87 1155.28 1592.06 z" fill="rgb(47,34,47)" transform="translate(0,0)"></path>
<path d="M 1171.27 1608.01 C 1187.54 1608.8 1211.37 1615.06 1193.99 1635.08 C 1185.37 1639 1179.36 1638.01 1169.84 1637.88 L 1171.27 1608.01 z" fill="rgb(231,180,119)" transform="translate(0,0)"></path>
<path d="M 1046.93 1588 L 1061.97 1588.2 C 1061.98 1598.21 1063.77 1663.22 1060.75 1667.39 L 1048.52 1667.67 C 1034.02 1651.13 1020.28 1632.09 1006.15 1614.85 C 1006.61 1632.46 1006.56 1650.79 1006.77 1668.48 L 990.838 1668.95 L 990.898 1588.13 L 1005.92 1588.83 C 1011.89 1598.33 1038.22 1631.56 1046.26 1640.51 C 1046.21 1622.68 1046.14 1605.85 1046.93 1588 z" fill="rgb(47,34,47)" transform="translate(0,0)"></path>
<path d="M 735.321 1606.49 L 736.44 1606.83 C 738.416 1610.66 738.218 1615.98 738.476 1620.49 C 726.591 1622.77 714.578 1624.06 702.532 1626.51 C 703.862 1631.93 704.546 1637.01 705.382 1642.52 C 715.792 1641.85 727.61 1640.15 738.061 1638.82 C 738.868 1643.52 740.48 1648.56 741.806 1653.19 C 730.156 1654.44 718.523 1655.85 706.913 1657.42 L 709.631 1674.88 L 746.641 1670.49 L 747.788 1670.47 C 749.663 1672.98 750.083 1681.74 750.486 1685.4 C 732.596 1686.94 713.455 1690.17 695.582 1692.91 C 691.727 1668.12 687.75 1639.04 684.627 1614.2 C 698.401 1611.11 720.868 1608.31 735.321 1606.49 z" fill="rgb(47,34,47)" transform="translate(0,0)"></path>
<path d="M 876.149 1592.57 L 897.779 1591.55 L 897.817 1605.84 C 885.401 1606.34 872.997 1607.09 860.61 1608.08 C 860.839 1615.24 861.166 1620 862.065 1627.1 C 873.445 1626.17 884.252 1625.27 895.678 1624.85 L 895.934 1638.94 C 884.801 1639.41 873.682 1640.15 862.586 1641.16 C 863.384 1646.98 864.483 1653.14 865.419 1658.98 C 870.63 1658.81 876.26 1658.39 881.5 1658.08 C 888.08 1657.6 894.169 1657.24 900.695 1656.2 L 902.02 1670.84 C 886.758 1672.8 864.517 1674.36 849.138 1675.28 C 846.699 1649.81 843.286 1619.38 842.881 1594.18 C 853.981 1593.88 865.073 1593.34 876.149 1592.57 z" fill="rgb(47,34,47)" transform="translate(0,0)"></path>
<path d="M 1314.01 1607.97 C 1332.68 1609.35 1351.26 1611.78 1369.66 1615.25 C 1368.26 1619.54 1367.24 1624.37 1366.18 1628.8 C 1358.21 1627.08 1337.23 1625.28 1328.15 1624.25 L 1325.41 1640.39 C 1335.91 1641.35 1347.22 1643.1 1357.74 1644.51 C 1356.91 1648.92 1355.71 1653.62 1354.69 1658.01 C 1344.49 1656.72 1332.83 1655.83 1322.49 1654.8 C 1321.69 1661.06 1320.83 1667.31 1319.92 1673.55 C 1332.4 1675.34 1344.85 1677.34 1357.26 1679.56 L 1355.13 1692.41 C 1341.49 1690.63 1314.38 1687.82 1301.87 1684.32 C 1304.83 1658.11 1309.28 1633.88 1314.01 1607.97 z" fill="rgb(47,34,47)" transform="translate(0,0)"></path>
<path d="M 963.239 1588.44 C 966.484 1588.16 967.863 1587.74 970.839 1589.08 C 972.928 1592.21 972.775 1598.84 973.209 1602.86 C 959.988 1602.89 945.936 1603.56 932.682 1604.05 L 933.096 1622.16 C 943.413 1622.24 954.717 1621.56 965.097 1621.15 L 965.07 1634.96 C 954.947 1635.79 944.025 1636.2 933.824 1636.76 L 934.005 1654.9 C 943.363 1655.02 953.252 1654.47 962.645 1654.1 L 974.301 1653.9 L 974.585 1668.86 C 956.669 1668.73 937.998 1669.67 919.938 1669.98 C 918.281 1644.12 917.988 1616.21 916.889 1590.08 C 932.343 1589.66 947.793 1589.12 963.239 1588.44 z" fill="rgb(47,34,47)" transform="translate(0,0)"></path>
<path d="M 822.377 1596.5 C 826.482 1595.98 826.892 1595.92 830.938 1596.48 C 831.612 1598.23 808.265 1669.91 805.438 1678.96 C 800.387 1679.75 795.349 1680.62 790.328 1681.58 C 778.923 1664.38 769.126 1646.8 759.427 1628.61 C 755.026 1620.39 751.568 1613.84 747.857 1605.21 C 753.562 1604.23 760.113 1603.52 765.915 1602.76 C 776.223 1620.71 784.659 1639.67 795.05 1657.86 C 801.109 1642.23 807.966 1614.18 812.047 1597.48 L 822.377 1596.5 z" fill="rgb(47,34,47)" transform="translate(0,0)"></path>
<path d="M 1237.23 1598.81 C 1255.7 1600.59 1274.16 1602.51 1292.59 1604.57 L 1290.52 1618.37 C 1277.69 1616.93 1264.83 1615.72 1251.96 1614.74 C 1251.22 1619.61 1250.86 1626.71 1250.46 1631.81 C 1260.23 1633.43 1270.61 1634.34 1280.5 1635.27 C 1280.2 1639.65 1279.68 1644.13 1279.23 1648.5 C 1272.81 1647.77 1254.23 1643.97 1250.23 1644.51 L 1249.21 1646.13 L 1247.8 1664.41 C 1259.68 1665.86 1272.03 1666.99 1283.96 1668.24 L 1282.46 1682.21 C 1265.26 1679.95 1245.66 1678.15 1228.48 1676.83 C 1232.25 1657.62 1235.44 1619.24 1237.23 1598.81 z" fill="rgb(47,34,47)" transform="translate(0,0)"></path>
<path d="M 1074.92 1588.86 C 1095.64 1589.15 1116.36 1589.55 1137.08 1590.05 C 1136.78 1595.74 1136.35 1599.44 1135.54 1605.04 L 1114.12 1604.79 C 1114.07 1619.35 1113.97 1633.23 1113.32 1647.76 L 1112.68 1668.97 L 1096.36 1668.59 C 1096.59 1647 1097.27 1625.42 1098.4 1603.86 L 1074.56 1603.95 L 1074.92 1588.86 z" fill="rgb(47,34,47)" transform="translate(0,0)"></path>
<path d="M 656.674 621.768 C 653.719 617.66 635.964 605.024 630.796 600.512 C 576.224 552.872 567.359 464.286 582.712 397.516 C 583.699 393.22 585.757 386.293 588.368 382.777 L 590.079 382.716 L 592.092 385.196 C 628.967 412.016 659.619 407.985 702.3 415.563 C 734.342 421.253 753.559 428.49 780.643 445.61 C 789.306 452.581 804.273 463.606 810.531 472.702 C 808.987 490.758 809.928 506.168 812.443 524.129 C 818.31 545.12 825.91 571.196 841.113 587.724 C 848.547 592.738 857.941 598.156 864.605 602.785 C 792.347 629.27 729.276 666.766 675.486 722.112 C 671.466 726.248 665.372 732.738 660.964 736.235 C 657.022 741.223 652.914 746.195 648.766 751.015 C 618.358 786.351 594.567 825.026 571.96 865.63 C 544.102 851.555 530.707 843.85 510.958 818.027 C 478.855 776.05 451.07 685.278 458.857 632.987 L 459.022 620.488 L 459.51 608.807 C 515.303 612.957 547.488 602.329 596.424 579.073 C 611.822 592.187 637.697 614.036 656.674 621.768 z" fill="rgb(105,190,77)" transform="translate(0,0)"></path>
<path d="M 656.674 621.768 C 653.719 617.66 635.964 605.024 630.796 600.512 C 576.224 552.872 567.359 464.286 582.712 397.516 C 583.699 393.22 585.757 386.293 588.368 382.777 L 590.079 382.716 L 592.092 385.196 C 628.967 412.016 659.619 407.985 702.3 415.563 C 734.342 421.253 753.559 428.49 780.643 445.61 C 789.306 452.581 804.273 463.606 810.531 472.702 C 808.987 490.758 809.928 506.168 812.443 524.129 C 818.31 545.12 825.91 571.196 841.113 587.724 C 790.158 598.795 729.795 590.754 685.034 562.87 C 669 552.881 665.43 546.236 653.838 533.847 C 666.522 575.579 689.017 604.129 726.214 627.145 C 715.563 629.351 686.137 636.962 677.566 637.657 C 672.871 629.235 661.112 627.456 656.674 621.768 z" fill="rgb(169,206,92)" transform="translate(0,0)"></path>
<path d="M 592.092 385.196 C 628.967 412.016 659.619 407.985 702.3 415.563 C 734.342 421.253 753.559 428.49 780.643 445.61 C 789.306 452.581 804.273 463.606 810.531 472.702 C 808.987 490.758 809.928 506.168 812.443 524.129 C 808.82 521.4 801.251 511.235 798.698 507.289 C 767.577 459.194 707.677 450.082 656.783 435.596 C 638.22 430.312 618.295 419.384 605.199 404.829 C 601.513 400.732 591.823 390.658 592.092 385.196 z" fill="rgb(196,230,130)" transform="translate(0,0)"></path>
<path d="M 458.857 632.987 C 467.606 647.216 475.117 663.816 483.653 678.35 C 518.128 737.052 584.153 756.462 647.87 739.302 C 651.659 738.281 657.129 736.778 660.964 736.235 C 657.022 741.223 652.914 746.195 648.766 751.015 C 618.358 786.351 594.567 825.026 571.96 865.63 C 544.102 851.555 530.707 843.85 510.958 818.027 C 478.855 776.05 451.07 685.278 458.857 632.987 z" fill="rgb(66,127,52)" transform="translate(0,0)"></path>
<path d="M 596.424 579.073 C 611.822 592.187 637.697 614.036 656.674 621.768 C 661.112 627.456 672.871 629.235 677.566 637.657 C 598.181 655.075 529.688 681.136 459.022 620.488 L 459.51 608.807 C 515.303 612.957 547.488 602.329 596.424 579.073 z" fill="rgb(196,230,130)" transform="translate(0,0)"></path>
<path d="M 852.698 1766.77 C 879.484 1764.45 914.746 1764.02 941.995 1763.56 C 997.937 1762.61 1053.89 1762.99 1109.82 1764.69 C 1131.94 1765.26 1154.06 1766.21 1176.15 1767.55 C 1183.41 1767.99 1197.41 1768.45 1203.79 1769.56 C 1211.48 1770.25 1220.68 1770.83 1228.18 1772.04 C 1236.51 1772.56 1243.58 1773.29 1251.87 1774.32 C 1203.18 1813.87 1141.59 1852.14 1087.25 1883.34 C 1068.7 1893.99 1041.15 1909.45 1021.46 1916.87 C 957.132 1888.46 843.344 1817.58 792.666 1770.1 C 801.525 1769.65 810.375 1769.03 819.212 1768.26 L 852.698 1766.77 z" fill="rgb(118,73,60)" transform="translate(0,0)"></path>
<path d="M 819.212 1768.26 L 852.698 1766.77 C 863.257 1776.25 877.292 1786.01 888.974 1794.18 C 931.413 1823.87 976.919 1848.45 1022.85 1872.22 C 1040.63 1864.37 1059.21 1853.32 1076.47 1844.11 C 1102.6 1830.15 1128.22 1814.76 1154.03 1800.19 C 1163.66 1794.74 1196.73 1771.79 1203.79 1769.56 C 1211.48 1770.25 1220.68 1770.83 1228.18 1772.04 C 1236.51 1772.56 1243.58 1773.29 1251.87 1774.32 C 1203.18 1813.87 1141.59 1852.14 1087.25 1883.34 C 1068.7 1893.99 1041.15 1909.45 1021.46 1916.87 C 957.132 1888.46 843.344 1817.58 792.666 1770.1 C 801.525 1769.65 810.375 1769.03 819.212 1768.26 z" fill="rgb(200,154,97)" transform="translate(0,0)"></path>
<path d="M 792.666 1770.1 C 801.525 1769.65 810.375 1769.03 819.212 1768.26 C 822.041 1779.82 950.255 1863.19 969.825 1874.69 C 979.35 1880.29 1011.37 1899.46 1021.87 1904.13 C 1065.23 1882.04 1098.98 1862.78 1138.91 1834.35 C 1168.53 1813.27 1198.62 1793.62 1228.18 1772.04 C 1236.51 1772.56 1243.58 1773.29 1251.87 1774.32 C 1203.18 1813.87 1141.59 1852.14 1087.25 1883.34 C 1068.7 1893.99 1041.15 1909.45 1021.46 1916.87 C 957.132 1888.46 843.344 1817.58 792.666 1770.1 z" fill="rgb(139,87,62)" transform="translate(0,0)"></path>
<path d="M 757.895 1334.05 C 800.198 1345.74 843.42 1353.81 887.091 1358.17 C 902.638 1377.2 912.646 1388.17 929.971 1405.68 C 938.525 1414 946.171 1421.69 955.877 1428.75 L 971.729 1417.52 C 979.376 1423.58 985.526 1428.58 993.847 1433.77 C 985.001 1452.75 978.367 1471.82 971.575 1491.6 C 970.378 1495.09 965.837 1511.54 964.352 1512.95 C 874.626 1516.61 792.295 1519.25 703.051 1529.14 C 710.467 1494.03 722.789 1457.45 731.153 1422.12 C 738.141 1396.51 745.886 1371.11 754.38 1345.95 L 757.895 1334.05 z" fill="rgb(216,242,198)" transform="translate(0,0)"></path>
<path d="M 703.051 1529.14 C 710.467 1494.03 722.789 1457.45 731.153 1422.12 C 779.04 1478.54 895.751 1496.86 964.352 1512.95 C 874.626 1516.61 792.295 1519.25 703.051 1529.14 z" fill="rgb(135,213,153)" transform="translate(0,0)"></path>
<path d="M 757.895 1334.05 C 800.198 1345.74 843.42 1353.81 887.091 1358.17 C 902.638 1377.2 912.646 1388.17 929.971 1405.68 C 870.753 1399.08 805.009 1377.12 754.38 1345.95 L 757.895 1334.05 z" fill="rgb(135,213,153)" transform="translate(0,0)"></path>
<path d="M 1165.35 1358.22 C 1206.83 1355.14 1247.91 1347.98 1287.99 1336.86 C 1305.47 1390.23 1326.46 1441.36 1336.2 1497 C 1337.87 1506.59 1339.96 1516.87 1342.03 1526.38 C 1314.51 1523.86 1285.93 1522.61 1258.27 1520.98 C 1217 1518.27 1175.69 1516.34 1134.35 1515.2 C 1122.61 1514.94 1097.54 1514.79 1084.56 1514.74 C 1084.08 1514.3 1083.61 1513.87 1083.14 1513.43 L 1082.46 1511 C 1073.53 1485.81 1063.93 1460.51 1055.22 1435.39 C 1063.93 1429.85 1069.15 1425.22 1076.93 1418.57 L 1090.74 1427.35 C 1096.6 1421.65 1111.73 1410.39 1118.94 1404.34 C 1127.35 1396.79 1135.52 1389.51 1143.53 1381.51 C 1150.9 1374.16 1158.07 1365.38 1165.35 1358.22 z" fill="rgb(135,213,153)" transform="translate(0,0)"></path>
<path d="M 1118.94 1404.34 C 1177.21 1403 1235.07 1386.05 1288.55 1363.76 C 1292.84 1380.9 1295.01 1400.53 1299.2 1416.71 C 1253.63 1454.17 1200.2 1480.88 1142.89 1494.86 C 1130.78 1497.86 1091.09 1506.26 1082.46 1511 C 1073.53 1485.81 1063.93 1460.51 1055.22 1435.39 C 1063.93 1429.85 1069.15 1425.22 1076.93 1418.57 L 1090.74 1427.35 C 1096.6 1421.65 1111.73 1410.39 1118.94 1404.34 z" fill="rgb(216,242,198)" transform="translate(0,0)"></path>
<path d="M 1509.45 472.228 C 1559.74 494.053 1616.47 520.116 1660.81 552.689 C 1674.9 664.782 1671.28 856.223 1636.59 964.61 C 1629 954.454 1622.61 945.908 1613.2 937.199 C 1610.94 936.054 1601.24 929.365 1598.14 927.492 C 1579.38 916.163 1565.51 910.929 1544.19 907.103 C 1525.92 905.815 1512.36 906.114 1494.02 906.54 C 1492.45 902.803 1490.93 898.993 1489.39 895.234 C 1552.63 853.11 1571.47 820.731 1603.2 755.744 C 1608.41 736.614 1614.12 717.724 1617.72 698.238 C 1620.59 682.733 1621.41 666.862 1624.01 651.534 C 1624.45 622.878 1620.87 588.942 1616.71 560.612 C 1609.01 560.795 1601.76 561.423 1594.08 562.051 C 1583.23 564.086 1570.49 565.776 1560.03 567.65 C 1527.06 573.557 1515.8 568.904 1487.52 553.94 C 1494.06 540.059 1496.68 531.236 1500.84 516.674 C 1504.84 501.405 1507.03 487.731 1509.45 472.228 z" fill="rgb(200,154,97)" transform="translate(0,0)"></path>
<path d="M 1624.01 651.534 C 1637.08 706.567 1627.18 880.388 1613.2 937.199 C 1610.94 936.054 1601.24 929.365 1598.14 927.492 C 1579.38 916.163 1565.51 910.929 1544.19 907.103 C 1525.92 905.815 1512.36 906.114 1494.02 906.54 C 1492.45 902.803 1490.93 898.993 1489.39 895.234 C 1552.63 853.11 1571.47 820.731 1603.2 755.744 C 1608.41 736.614 1614.12 717.724 1617.72 698.238 C 1620.59 682.733 1621.41 666.862 1624.01 651.534 z" fill="rgb(118,73,60)" transform="translate(0,0)"></path>
<path d="M 1489.39 895.234 C 1552.63 853.11 1571.47 820.731 1603.2 755.744 C 1600.18 788.039 1582.86 838.011 1567.62 866.362 C 1560.27 880.035 1551.84 893.547 1544.19 907.103 C 1525.92 905.815 1512.36 906.114 1494.02 906.54 C 1492.45 902.803 1490.93 898.993 1489.39 895.234 z" fill="rgb(84,48,42)" transform="translate(0,0)"></path>
<path d="M 1500.84 516.674 C 1532.3 529.114 1565.74 543.228 1594.08 562.051 C 1583.23 564.086 1570.49 565.776 1560.03 567.65 C 1527.06 573.557 1515.8 568.904 1487.52 553.94 C 1494.06 540.059 1496.68 531.236 1500.84 516.674 z" fill="rgb(84,48,42)" transform="translate(0,0)"></path>
<path d="M 389.474 547.623 C 399.864 540.29 413.307 533.435 424.364 526.88 C 460.348 505.546 499.694 486.448 538.891 471.716 C 540.134 485.454 541.424 501.728 544.438 515.054 C 547.482 530.526 549.854 540.424 556.04 555.283 C 517.732 576.399 474.586 577.682 432.774 569.064 L 429.489 568.127 C 430.124 580.649 425.405 606.569 424.979 621.591 C 424.693 634.125 424.861 646.664 425.483 659.185 C 425.641 662.309 426.818 678.853 426.615 680.6 C 431.349 716.887 437.196 745.927 450.709 780.357 C 453.539 787.567 467.782 817.722 468.733 821.781 C 476.402 832.009 482.901 841.863 491.256 851.652 C 510.205 873.853 534.491 888.144 559.006 903.229 C 557.268 907.554 555.399 912.012 553.798 916.375 C 536.847 911.557 521.148 906.152 503.372 907.922 C 482.646 908.852 460.633 918.346 443.393 929.477 C 428.459 941.338 420.266 948.846 407.654 963.005 C 385.101 855.196 375.992 745.008 380.534 634.959 C 381.712 609.456 384.05 572.622 389.474 547.623 z" fill="rgb(200,154,97)" transform="translate(0,0)"></path>
<path d="M 420.89 632.539 C 420.767 622.29 423.734 576.399 427.47 568.722 L 429.489 568.127 C 430.124 580.649 425.405 606.569 424.979 621.591 C 424.693 634.125 424.861 646.664 425.483 659.185 C 425.641 662.309 426.818 678.853 426.615 680.6 C 431.349 716.887 437.196 745.927 450.709 780.357 C 453.539 787.567 467.782 817.722 468.733 821.781 C 476.402 832.009 482.901 841.863 491.256 851.652 C 510.205 873.853 534.491 888.144 559.006 903.229 C 557.268 907.554 555.399 912.012 553.798 916.375 C 536.847 911.557 521.148 906.152 503.372 907.922 C 482.646 908.852 460.633 918.346 443.393 929.477 C 439.153 903.328 434.13 878.235 430.378 851.751 C 422.509 795.724 418.721 739.2 419.044 682.624 C 419.23 670.033 419.276 644.282 420.89 632.539 z" fill="rgb(118,73,60)" transform="translate(0,0)"></path>
<path d="M 468.733 821.781 C 476.402 832.009 482.901 841.863 491.256 851.652 C 510.205 873.853 534.491 888.144 559.006 903.229 C 557.268 907.554 555.399 912.012 553.798 916.375 C 536.847 911.557 521.148 906.152 503.372 907.922 C 505.595 907.215 505.502 907.315 507.306 905.862 C 493.196 880.968 474.725 850.102 468.733 821.781 z" fill="rgb(84,48,42)" transform="translate(0,0)"></path>
<path d="M 420.89 632.539 C 420.767 622.29 423.734 576.399 427.47 568.722 L 429.489 568.127 C 430.124 580.649 425.405 606.569 424.979 621.591 C 424.693 634.125 424.861 646.664 425.483 659.185 C 425.641 662.309 426.818 678.853 426.615 680.6 C 422.849 676.445 422.299 630.903 422.925 623.325 L 422.38 623.567 C 422.349 629.048 422.433 633.314 421.72 638.786 L 420.89 632.539 z" fill="rgb(84,48,42)" transform="translate(0,0)"></path>
<path d="M 544.438 515.054 C 547.482 530.526 549.854 540.424 556.04 555.283 C 517.732 576.399 474.586 577.682 432.774 569.064 C 466.393 551.708 509.712 529.153 544.438 515.054 z" fill="rgb(118,73,60)" transform="translate(0,0)"></path>
<path d="M 1557.96 1659.64 C 1565.04 1662.09 1570.79 1663.95 1578.02 1665.9 C 1612.88 1672.96 1686.03 1689.6 1717.8 1701.7 C 1691.69 1726.43 1665.62 1751.36 1639.67 1776.23 C 1629.24 1786.22 1633.82 1795.29 1638.63 1806.43 C 1649.63 1831.89 1662.52 1856.5 1672.76 1882.29 C 1676.1 1889.27 1679.11 1897.76 1681.9 1905.08 C 1658.44 1899.31 1630.82 1890.02 1606.96 1883.33 C 1542.95 1865.39 1481.91 1850.38 1416.39 1838.76 C 1446.94 1831.66 1481.48 1828.04 1509.83 1813.7 C 1519.84 1806.97 1525.1 1787.86 1527.55 1777.3 C 1536.73 1737.73 1548.28 1698.93 1557.96 1659.64 z" fill="rgb(231,180,119)" transform="translate(0,0)"></path>
<path d="M 1557.96 1659.64 C 1565.04 1662.09 1570.79 1663.95 1578.02 1665.9 C 1572.33 1674.21 1566.82 1687.34 1563.26 1696.69 C 1549.05 1734.06 1546.37 1769.25 1554.08 1808.48 C 1557.04 1823.53 1560.75 1836.48 1564.76 1851.36 C 1585.4 1856.34 1605.88 1861.93 1626.19 1868.14 C 1633.95 1870.51 1667.56 1881.94 1672.76 1882.29 C 1676.1 1889.27 1679.11 1897.76 1681.9 1905.08 C 1658.44 1899.31 1630.82 1890.02 1606.96 1883.33 C 1542.95 1865.39 1481.91 1850.38 1416.39 1838.76 C 1446.94 1831.66 1481.48 1828.04 1509.83 1813.7 C 1519.84 1806.97 1525.1 1787.86 1527.55 1777.3 C 1536.73 1737.73 1548.28 1698.93 1557.96 1659.64 z" fill="rgb(192,113,69)" transform="translate(0,0)"></path>
<path d="M 467.122 1664.16 L 494.234 1658.88 C 507.465 1711.02 516.56 1766.09 530.468 1817.74 C 545.13 1822.67 564.689 1825.33 580.236 1828.12 C 596.945 1831.06 613.519 1834.73 629.912 1839.1 C 595.372 1846.29 560.061 1850.84 525.613 1858.38 C 472.022 1870.1 420.418 1884.76 368.029 1900.77 C 370.628 1894.91 373.5 1887.95 376.269 1882.27 C 386.767 1855.25 406.155 1807.1 419.355 1782.14 C 395.954 1760.39 373.492 1737.99 350.474 1715.87 C 345.116 1710.72 339.1 1705.85 334.276 1700.23 C 381.654 1685.6 418.8 1675.42 467.122 1664.16 z" fill="rgb(231,180,119)" transform="translate(0,0)"></path>
<path d="M 467.122 1664.16 L 494.234 1658.88 C 507.465 1711.02 516.56 1766.09 530.468 1817.74 C 545.13 1822.67 564.689 1825.33 580.236 1828.12 C 596.945 1831.06 613.519 1834.73 629.912 1839.1 C 595.372 1846.29 560.061 1850.84 525.613 1858.38 C 472.022 1870.1 420.418 1884.76 368.029 1900.77 C 370.628 1894.91 373.5 1887.95 376.269 1882.27 C 381.712 1881.4 395.193 1876.45 401.224 1874.8 C 423.124 1868.8 451.431 1859.04 473.928 1856.49 C 504.247 1800.96 493.01 1741.53 474.302 1684.45 C 472.059 1677.61 470.064 1670.75 467.122 1664.16 z" fill="rgb(192,113,69)" transform="translate(0,0)"></path>
<path d="M 1504.63 938.189 C 1536.99 935.274 1565.34 941.053 1591.39 962.003 C 1601.56 970.188 1615.68 987.727 1619.68 1000.18 C 1632.49 1021.76 1639.45 1059.55 1633.05 1084.1 C 1632.84 1086.48 1632.48 1088.84 1631.99 1091.18 C 1617.19 1161.92 1550.96 1204.77 1480.36 1189.87 C 1496.29 1153.93 1504.44 1128.99 1513.82 1091.23 C 1548.3 1100.3 1601.57 1077.17 1573.56 1034.45 C 1561.37 1015.85 1535.9 1011.7 1515.14 1008.67 C 1512.74 986.326 1510.75 969.993 1506.45 948.053 C 1505.86 944.891 1505.1 941.339 1504.63 938.189 z" fill="url(#Gradient3)" transform="translate(0,0)"></path>
<path d="M 1504.63 938.189 C 1536.99 935.274 1565.34 941.053 1591.39 962.003 C 1601.56 970.188 1615.68 987.727 1619.68 1000.18 L 1619.33 1001.62 C 1617.17 999.63 1615.53 994.881 1614.21 991.919 C 1610.92 991.542 1608.39 991.004 1605.14 991.628 C 1604.21 995.22 1607.02 994.065 1606.63 998.206 C 1588.98 966.5 1565.68 949.601 1528.28 948.94 C 1521.57 947.825 1513.35 948.069 1506.45 948.053 C 1505.86 944.891 1505.1 941.339 1504.63 938.189 z" fill="rgb(196,230,130)" transform="translate(0,0)"></path>
<path d="M 1837.33 1040.03 C 1853.51 1040.89 1869.67 1042.32 1885.75 1044.3 C 1891.29 1045.02 1892.41 1044.89 1897.24 1047.36 L 1899.53 1048.86 C 1903.87 1048.63 1906.55 1048.19 1910.85 1047.45 C 1892.58 1079.9 1873.74 1110.74 1850.39 1140.01 C 1838.69 1154.68 1799.72 1200.96 1781.08 1198.53 C 1767.45 1209.61 1758.99 1212.96 1745.81 1226.96 C 1733.95 1223.03 1726.12 1221.02 1713.75 1219.05 C 1694.74 1216.5 1667.91 1217.17 1648.81 1218.17 C 1639.95 1219.42 1619.64 1223.16 1612.04 1223.66 C 1596.67 1226.89 1576.28 1231.3 1561.97 1237.3 L 1562.37 1234.57 C 1584.06 1228.59 1709.64 1153.74 1732.12 1136.43 L 1731.76 1135.48 C 1733.41 1132.41 1763.5 1115.03 1768.42 1112.7 L 1770.07 1113.67 C 1778.51 1109.65 1790.78 1101.52 1799.48 1096.7 C 1806.13 1093.03 1818.32 1086.46 1824.17 1082.32 L 1824.02 1079.41 L 1826.68 1077.49 C 1829.8 1073.74 1834.39 1072.02 1838.87 1069.77 C 1837.1 1064.05 1836.7 1061.73 1832.76 1057.02 C 1830.41 1056.42 1831.52 1056.85 1829.44 1055.75 L 1827.68 1054.61 C 1830.75 1049.69 1834.09 1044.84 1837.33 1040.03 z" fill="rgb(103,164,55)" transform="translate(0,0)"></path>
<path d="M 1837.33 1040.03 C 1853.51 1040.89 1869.67 1042.32 1885.75 1044.3 C 1891.29 1045.02 1892.41 1044.89 1897.24 1047.36 L 1899.53 1048.86 C 1903.87 1048.63 1906.55 1048.19 1910.85 1047.45 C 1892.58 1079.9 1873.74 1110.74 1850.39 1140.01 C 1838.69 1154.68 1799.72 1200.96 1781.08 1198.53 C 1789.51 1187.4 1796.46 1175.91 1803.49 1163.86 C 1815.07 1158.62 1841.99 1119.27 1851.16 1108.09 C 1838.93 1104.39 1833.41 1096.36 1827.38 1086.03 C 1825.95 1083.76 1826.19 1084.23 1824.17 1082.32 L 1824.02 1079.41 L 1826.68 1077.49 C 1829.8 1073.74 1834.39 1072.02 1838.87 1069.77 C 1837.1 1064.05 1836.7 1061.73 1832.76 1057.02 C 1830.41 1056.42 1831.52 1056.85 1829.44 1055.75 L 1827.68 1054.61 C 1830.75 1049.69 1834.09 1044.84 1837.33 1040.03 z" fill="rgb(42,100,42)" transform="translate(0,0)"></path>
<path d="M 1837.33 1040.03 C 1853.51 1040.89 1869.67 1042.32 1885.75 1044.3 C 1891.29 1045.02 1892.41 1044.89 1897.24 1047.36 L 1899.53 1048.86 L 1894.75 1051.44 L 1895.02 1053.14 C 1876.37 1062.02 1867.7 1088.1 1851.98 1100.17 C 1856.11 1102.49 1859.04 1104.06 1862.88 1106.91 L 1862.48 1108 C 1857.61 1108.88 1856.21 1108.55 1851.16 1108.09 C 1838.93 1104.39 1833.41 1096.36 1827.38 1086.03 C 1825.95 1083.76 1826.19 1084.23 1824.17 1082.32 L 1824.02 1079.41 L 1826.68 1077.49 C 1829.8 1073.74 1834.39 1072.02 1838.87 1069.77 C 1837.1 1064.05 1836.7 1061.73 1832.76 1057.02 C 1830.41 1056.42 1831.52 1056.85 1829.44 1055.75 L 1827.68 1054.61 C 1830.75 1049.69 1834.09 1044.84 1837.33 1040.03 z" fill="rgb(103,164,55)" transform="translate(0,0)"></path>
<path d="M 1837.33 1040.03 C 1853.51 1040.89 1869.67 1042.32 1885.75 1044.3 C 1891.29 1045.02 1892.41 1044.89 1897.24 1047.36 L 1887.86 1049.85 C 1869.69 1054.9 1843.86 1072.06 1826.68 1077.49 C 1829.8 1073.74 1834.39 1072.02 1838.87 1069.77 C 1837.1 1064.05 1836.7 1061.73 1832.76 1057.02 C 1830.41 1056.42 1831.52 1056.85 1829.44 1055.75 L 1827.68 1054.61 C 1830.75 1049.69 1834.09 1044.84 1837.33 1040.03 z" fill="rgb(103,164,55)" transform="translate(0,0)"></path>
<path d="M 1837.33 1040.03 C 1853.51 1040.89 1869.67 1042.32 1885.75 1044.3 L 1884.52 1045.74 L 1874.55 1046.08 C 1860.62 1043.25 1840.44 1046.35 1829.44 1055.75 L 1827.68 1054.61 C 1830.75 1049.69 1834.09 1044.84 1837.33 1040.03 z" fill="rgb(136,222,106)" transform="translate(0,0)"></path>
<path d="M 1885.75 1044.3 C 1891.29 1045.02 1892.41 1044.89 1897.24 1047.36 L 1887.86 1049.85 C 1883.71 1046.39 1880.83 1047.15 1874.55 1046.08 L 1884.52 1045.74 L 1885.75 1044.3 z" fill="rgb(105,190,77)" transform="translate(0,0)"></path>
<path d="M 1887.86 1049.85 L 1897.24 1047.36 L 1899.53 1048.86 L 1894.75 1051.44 C 1885.79 1053.92 1848.34 1072.04 1838.42 1077.26 C 1839.56 1086.89 1846.32 1091.37 1846.87 1097.69 L 1851.98 1100.17 C 1856.11 1102.49 1859.04 1104.06 1862.88 1106.91 L 1862.48 1108 C 1857.61 1108.88 1856.21 1108.55 1851.16 1108.09 C 1838.93 1104.39 1833.41 1096.36 1827.38 1086.03 C 1825.95 1083.76 1826.19 1084.23 1824.17 1082.32 L 1824.02 1079.41 L 1826.68 1077.49 C 1843.86 1072.06 1869.69 1054.9 1887.86 1049.85 z" fill="rgb(47,34,47)" transform="translate(0,0)"></path>
<path d="M 1838.42 1077.26 C 1839.56 1086.89 1846.32 1091.37 1846.87 1097.69 C 1840.66 1094.6 1833.36 1088.95 1832.18 1081.82 C 1833.82 1078.57 1834.23 1079.28 1838.42 1077.26 z" fill="rgb(196,230,130)" transform="translate(0,0)"></path>
<path d="M 1732.12 1136.43 L 1731.76 1135.48 C 1733.41 1132.41 1763.5 1115.03 1768.42 1112.7 L 1770.07 1113.67 C 1768.1 1114.84 1762.34 1118.08 1760.89 1119.35 C 1763.68 1124.84 1766.88 1128.78 1763.71 1134.91 L 1769.6 1143.94 C 1768.64 1144.1 1765.2 1144.73 1764.46 1144.72 C 1747.83 1156.75 1730.12 1169.94 1713.06 1181.22 C 1701.53 1188.84 1686.15 1195.47 1674.12 1202.63 C 1669.27 1206.24 1650.47 1216.26 1648.81 1218.17 C 1639.95 1219.42 1619.64 1223.16 1612.04 1223.66 C 1596.67 1226.89 1576.28 1231.3 1561.97 1237.3 L 1562.37 1234.57 C 1584.06 1228.59 1709.64 1153.74 1732.12 1136.43 z" fill="rgb(169,206,92)" transform="translate(0,0)"></path>
<path d="M 1732.12 1136.43 L 1731.76 1135.48 C 1733.41 1132.41 1763.5 1115.03 1768.42 1112.7 L 1770.07 1113.67 C 1768.1 1114.84 1762.34 1118.08 1760.89 1119.35 C 1763.68 1124.84 1766.88 1128.78 1763.71 1134.91 L 1769.6 1143.94 C 1768.64 1144.1 1765.2 1144.73 1764.46 1144.72 C 1760.97 1138.82 1755.06 1131.07 1750.92 1125.32 C 1744.53 1128.85 1738.36 1132.64 1732.12 1136.43 z" fill="rgb(9,3,9)" transform="translate(0,0)"></path>
<path d="M 1760.89 1119.35 C 1763.68 1124.84 1766.88 1128.78 1763.71 1134.91 C 1760.7 1131.1 1756.53 1128.3 1755.26 1124.03 C 1756.7 1120.78 1756.94 1121.53 1760.89 1119.35 z" fill="rgb(136,222,106)" transform="translate(0,0)"></path>
<path d="M 1612.04 1223.66 C 1613.47 1219.09 1637.44 1219.3 1642.64 1216.24 C 1639.61 1215.74 1637.79 1216.09 1636.41 1214.3 C 1640.52 1210.79 1668.01 1201.56 1674.12 1202.63 C 1669.27 1206.24 1650.47 1216.26 1648.81 1218.17 C 1639.95 1219.42 1619.64 1223.16 1612.04 1223.66 z" fill="rgb(105,190,77)" transform="translate(0,0)"></path>
<path d="M 1713.75 1219.05 C 1722.81 1207.22 1763.1 1178.41 1778.66 1171.45 C 1787.11 1167.66 1794.42 1165.77 1803.49 1163.86 C 1796.46 1175.91 1789.51 1187.4 1781.08 1198.53 C 1767.45 1209.61 1758.99 1212.96 1745.81 1226.96 C 1733.95 1223.03 1726.12 1221.02 1713.75 1219.05 z" fill="rgb(41,111,42)" transform="translate(0,0)"></path>
<path d="M 1824.17 1082.32 C 1826.19 1084.23 1825.95 1083.76 1827.38 1086.03 C 1814.17 1100.6 1795.91 1115.2 1782.46 1130.4 C 1778.71 1134.64 1772.98 1139.5 1769.6 1143.94 L 1763.71 1134.91 C 1766.88 1128.78 1763.68 1124.84 1760.89 1119.35 C 1762.34 1118.08 1768.1 1114.84 1770.07 1113.67 C 1778.51 1109.65 1790.78 1101.52 1799.48 1096.7 C 1806.13 1093.03 1818.32 1086.46 1824.17 1082.32 z" fill="rgb(105,190,77)" transform="translate(0,0)"></path>
<path d="M 138.038 1044.07 C 142.877 1043.52 145.733 1043.11 150.658 1043.28 C 147.725 1044.75 146.338 1044.43 144.367 1045.62 C 147.297 1050.04 154.179 1052.58 159.078 1054.61 C 161.587 1055.86 164.054 1056.89 166.259 1058.56 C 181.514 1065.42 194.641 1071.26 210.631 1076.45 C 213.97 1077.93 217.52 1078.8 219.246 1081.42 C 217.155 1087.96 209.107 1099.68 202.818 1102.84 L 199.083 1105.04 C 195.331 1106.39 191.425 1107.33 188.682 1110.11 C 191.912 1112.41 199.735 1109.78 203.578 1108.76 C 216.32 1101.47 218.674 1095.63 225.551 1082.93 C 233.883 1087.16 250.505 1095.32 257.19 1100.48 C 269.349 1106.1 287.271 1116.91 299.426 1123.8 L 301.723 1124.71 C 327.631 1138.29 352.845 1157.95 377.875 1170.55 C 375.896 1174.25 374.633 1177.21 371.673 1180.21 L 373.114 1180.94 L 379.953 1174.4 C 393.696 1183.96 468.108 1230.54 469.549 1240.96 C 469.605 1241.36 469.609 1241.77 469.639 1242.18 L 468.459 1242.99 C 460.528 1240.44 452.269 1235.83 444.271 1232.52 C 411.888 1223.68 380.348 1218.4 346.617 1221.46 C 333.277 1224.32 320.708 1227.11 307.196 1229.02 C 299.631 1225.66 291.633 1220.74 284.911 1216.19 C 233.762 1181.58 190.806 1135.03 159.38 1081.93 C 151.561 1068.72 144.278 1058.59 138.038 1044.07 z" fill="rgb(103,164,55)" transform="translate(0,0)"></path>
<path d="M 138.038 1044.07 C 142.877 1043.52 145.733 1043.11 150.658 1043.28 C 147.725 1044.75 146.338 1044.43 144.367 1045.62 C 147.297 1050.04 154.179 1052.58 159.078 1054.61 C 161.587 1055.86 164.054 1056.89 166.259 1058.56 C 181.514 1065.42 194.641 1071.26 210.631 1076.45 C 213.97 1077.93 217.52 1078.8 219.246 1081.42 C 217.155 1087.96 209.107 1099.68 202.818 1102.84 L 199.083 1105.04 C 195.331 1106.39 191.425 1107.33 188.682 1110.11 C 191.912 1112.41 199.735 1109.78 203.578 1108.76 C 233.523 1147.73 270.815 1180.77 313.537 1204.81 C 325.038 1211.28 333.91 1217.07 346.617 1221.46 C 333.277 1224.32 320.708 1227.11 307.196 1229.02 C 299.631 1225.66 291.633 1220.74 284.911 1216.19 C 233.762 1181.58 190.806 1135.03 159.38 1081.93 C 151.561 1068.72 144.278 1058.59 138.038 1044.07 z" fill="rgb(42,100,42)" transform="translate(0,0)"></path>
<path d="M 166.259 1058.56 C 181.514 1065.42 194.641 1071.26 210.631 1076.45 C 213.97 1077.93 217.52 1078.8 219.246 1081.42 C 217.155 1087.96 209.107 1099.68 202.818 1102.84 L 199.083 1105.04 C 194.025 1090.64 183.029 1080.04 173.188 1068.76 C 169.047 1064.01 167.608 1064.71 166.259 1058.56 z" fill="rgb(103,164,55)" transform="translate(0,0)"></path>
<path d="M 210.631 1076.45 C 213.97 1077.93 217.52 1078.8 219.246 1081.42 C 217.155 1087.96 209.107 1099.68 202.818 1102.84 C 202.034 1093.7 210.461 1086.7 210.631 1076.45 z" fill="rgb(169,206,92)" transform="translate(0,0)"></path>
<path d="M 301.723 1124.71 C 327.631 1138.29 352.845 1157.95 377.875 1170.55 C 375.896 1174.25 374.633 1177.21 371.673 1180.21 L 367.738 1183.33 C 361.722 1183.7 298.123 1142.16 288.207 1135.52 C 294.178 1132.27 297.084 1129.34 301.723 1124.71 z" fill="rgb(169,206,92)" transform="translate(0,0)"></path>
<path d="M 373.114 1180.94 L 379.953 1174.4 C 393.696 1183.96 468.108 1230.54 469.549 1240.96 C 469.605 1241.36 469.609 1241.77 469.639 1242.18 L 468.459 1242.99 C 460.528 1240.44 452.269 1235.83 444.271 1232.52 C 443.669 1231.38 442.647 1229.32 441.518 1228.65 C 417.819 1214.66 395.262 1198.07 370.799 1185.5 L 370.421 1184.08 L 373.114 1180.94 z" fill="rgb(169,206,92)" transform="translate(0,0)"></path>
<path d="M 288.789 1129.88 C 281.975 1121.74 249.966 1102.36 248.202 1098.35 L 249.843 1097.53 C 252.844 1099.69 253.527 1099.76 257.19 1100.48 C 269.349 1106.1 287.271 1116.91 299.426 1123.8 C 295.199 1126.62 293.4 1127.83 288.789 1129.88 z" fill="rgb(169,206,92)" transform="translate(0,0)"></path>
<path d="M 299.426 1123.8 L 301.723 1124.71 C 297.084 1129.34 294.178 1132.27 288.207 1135.52 C 285.944 1136.08 279.878 1137.68 278.165 1136.47 C 281.899 1133.69 284.77 1132.15 288.789 1129.88 C 293.4 1127.83 295.199 1126.62 299.426 1123.8 z" fill="rgb(47,34,47)" transform="translate(0,0)"></path>
<path d="M 1490.13 1384.6 C 1505.41 1387.07 1518.83 1388.96 1534.07 1391.13 C 1520.26 1426.6 1495.83 1465.92 1475.64 1498.28 C 1467.01 1512.12 1456.24 1526.19 1447.97 1540.16 C 1431.01 1537.49 1414.02 1535.01 1397.01 1532.71 C 1390.53 1532.53 1376.07 1530.31 1368.4 1529.71 C 1361.12 1491.99 1356.68 1464.03 1345.58 1427 C 1377.59 1420.53 1409.89 1414.43 1441.35 1405.74 C 1451.77 1402.86 1465.19 1399.72 1474.98 1395.48 C 1479.71 1386.74 1480.06 1385.67 1490.13 1384.6 z" fill="rgb(118,73,60)" transform="translate(0,0)"></path>
<path d="M 1490.13 1384.6 C 1505.41 1387.07 1518.83 1388.96 1534.07 1391.13 C 1520.26 1426.6 1495.83 1465.92 1475.64 1498.28 C 1467.01 1512.12 1456.24 1526.19 1447.97 1540.16 C 1431.01 1537.49 1414.02 1535.01 1397.01 1532.71 C 1399.7 1522.86 1440.48 1469.28 1449.5 1454.4 C 1462.92 1432.28 1477.1 1407.71 1490.13 1384.6 z" fill="rgb(200,154,97)" transform="translate(0,0)"></path>
<path d="M 556.326 1387.46 C 560.06 1386.59 563.94 1385.63 567.596 1386.58 L 567.867 1387.74 C 568.619 1390.86 568.622 1392.32 570.966 1394.47 C 585.787 1400.55 615.751 1408.57 632.022 1413.12 C 651.307 1418.5 676.376 1426.6 695.368 1430.61 C 684.981 1467.11 676.79 1496.73 668.534 1533.76 C 661.242 1534.46 647.965 1535.33 641.204 1536.62 C 628.914 1537.83 613.934 1540.54 601.696 1542.56 C 564.921 1498.47 538.892 1439.19 515.273 1387.56 C 530.382 1389.87 541.275 1389.5 556.326 1387.46 z" fill="rgb(118,73,60)" transform="translate(0,0)"></path>
<path d="M 515.273 1387.56 C 530.382 1389.87 541.275 1389.5 556.326 1387.46 C 560.177 1388.86 567.541 1412.38 570.984 1419.49 C 581.077 1440.32 591.27 1460.79 603.283 1480.46 C 607.308 1487.05 641.104 1535.84 641.204 1536.62 C 628.914 1537.83 613.934 1540.54 601.696 1542.56 C 564.921 1498.47 538.892 1439.19 515.273 1387.56 z" fill="rgb(200,154,97)" transform="translate(0,0)"></path>
<path d="M 320.897 1315.56 C 360.102 1313.9 393.069 1315.47 431.823 1315.75 C 427.35 1336.16 433.642 1343.13 446.703 1357.87 C 447.239 1358.19 453.71 1363.69 455.088 1364.68 C 466.798 1373.09 475.568 1377.47 489.358 1381.21 C 467.512 1387.28 446.38 1393.11 423.56 1395.86 C 354.134 1404.26 290.26 1380.64 228.96 1350.91 C 216.169 1344.71 203.234 1336.38 190.577 1329.53 C 205.261 1328.32 219.368 1324.55 233.896 1322.13 C 242.684 1320.66 251.144 1319.93 259.987 1319.04 C 276.988 1318.39 295.152 1316.87 312.212 1315.73 L 313.478 1317.07 C 311.68 1327.33 301.438 1340.14 293.9 1347.2 C 291.524 1352.02 283.161 1360.98 279.214 1365.43 C 294.758 1357.26 299.267 1354 310.671 1340.8 C 315.208 1331.87 318.474 1325.34 320.897 1315.56 z" fill="rgb(41,111,42)" transform="translate(0,0)"></path>
<path d="M 320.897 1315.56 C 360.102 1313.9 393.069 1315.47 431.823 1315.75 C 427.35 1336.16 433.642 1343.13 446.703 1357.87 C 443.74 1358.96 435.247 1358.54 431.493 1358.67 C 389.522 1360.08 350.98 1351.23 310.671 1340.8 C 315.208 1331.87 318.474 1325.34 320.897 1315.56 z" fill="rgb(103,164,55)" transform="translate(0,0)"></path>
<path d="M 259.987 1319.04 C 276.988 1318.39 295.152 1316.87 312.212 1315.73 L 313.478 1317.07 C 311.68 1327.33 301.438 1340.14 293.9 1347.2 L 290.355 1345.02 C 286.827 1343.06 262.264 1324.02 258.456 1320.78 L 259.987 1319.04 z" fill="rgb(103,164,55)" transform="translate(0,0)"></path>
<path d="M 312.212 1315.73 L 313.478 1317.07 C 311.68 1327.33 301.438 1340.14 293.9 1347.2 L 290.355 1345.02 C 294.207 1341.67 307.706 1321.54 312.212 1315.73 z" fill="rgb(169,206,92)" transform="translate(0,0)"></path>
<path d="M 1611.07 1319.27 C 1631.81 1316.73 1725.05 1311.08 1739.94 1315.31 L 1740.28 1316.83 C 1737.66 1321.42 1738.8 1328.16 1739.29 1333.5 C 1741.15 1339.24 1742.93 1345 1744.62 1350.79 C 1746.3 1354.96 1746.97 1357.99 1751.38 1359.75 C 1754.59 1365.54 1755.67 1367.03 1759.76 1372.13 L 1755.27 1349.01 C 1752.95 1337.76 1750.49 1326.54 1747.9 1315.35 C 1766.82 1316.83 1783.72 1318.13 1802.45 1321.05 C 1819.9 1322.6 1837.9 1327.29 1853.48 1328.59 C 1775.17 1375.93 1668.2 1419.75 1577.19 1383.03 C 1585.84 1377.94 1595.74 1373.24 1598.19 1362.6 C 1598.9 1359.51 1599.18 1356.33 1599.03 1353.16 L 1595.46 1345.67 C 1598.92 1342.65 1602.42 1339.27 1605.8 1336.12 C 1609.41 1330.12 1609.89 1325.97 1611.07 1319.27 z" fill="rgb(41,111,42)" transform="translate(0,0)"></path>
<path d="M 1611.07 1319.27 C 1631.81 1316.73 1725.05 1311.08 1739.94 1315.31 L 1740.28 1316.83 C 1737.66 1321.42 1738.8 1328.16 1739.29 1333.5 C 1690.03 1346.99 1654.42 1343.05 1605.8 1336.12 C 1609.41 1330.12 1609.89 1325.97 1611.07 1319.27 z" fill="rgb(103,164,55)" transform="translate(0,0)"></path>
<path d="M 1605.8 1336.12 C 1654.42 1343.05 1690.03 1346.99 1739.29 1333.5 C 1741.15 1339.24 1742.93 1345 1744.62 1350.79 C 1736.04 1352.83 1717.87 1353.18 1708.92 1353.54 C 1672.42 1355.02 1635.4 1352.88 1599.03 1353.16 L 1595.46 1345.67 C 1598.92 1342.65 1602.42 1339.27 1605.8 1336.12 z" fill="rgb(66,127,52)" transform="translate(0,0)"></path>
<path d="M 1747.9 1315.35 C 1766.82 1316.83 1783.72 1318.13 1802.45 1321.05 C 1790.26 1331.74 1776.19 1336.72 1762.05 1344.37 C 1760.03 1345.46 1757.16 1348.39 1755.27 1349.01 C 1752.95 1337.76 1750.49 1326.54 1747.9 1315.35 z" fill="rgb(103,164,55)" transform="translate(0,0)"></path>
<path d="M 1580.05 1248.89 C 1634.06 1237.83 1691.93 1230.16 1745.26 1247.77 C 1766.21 1254.69 1790.3 1264.45 1808.94 1275.98 C 1825.1 1285.73 1852.04 1310.15 1865.3 1324.01 C 1846.92 1322.22 1830.19 1317.36 1811.85 1314.96 C 1787.37 1313.17 1762.11 1309.05 1737.3 1307.77 C 1713.53 1306.55 1690.29 1306.92 1666.52 1307.09 C 1665.77 1307.1 1662.23 1307.16 1661.82 1307.01 C 1651.22 1303.32 1657.36 1274.58 1658.65 1268.07 L 1659.27 1263.64 L 1657.94 1263.17 C 1649.02 1271.52 1649.08 1295.45 1650.94 1306.9 C 1636.94 1306.87 1622.94 1307.31 1608.97 1308.2 C 1619.1 1293.71 1614.98 1279.18 1601.04 1269.8 C 1595.19 1265.86 1584.7 1265.51 1583.26 1259.15 C 1582.71 1255.04 1581.97 1252.66 1580.05 1248.89 z" fill="rgb(103,164,55)" transform="translate(0,0)"></path>
<path d="M 1808.94 1275.98 C 1825.1 1285.73 1852.04 1310.15 1865.3 1324.01 C 1846.92 1322.22 1830.19 1317.36 1811.85 1314.96 C 1810.38 1308.61 1788.57 1297.25 1782.37 1295.08 C 1791.15 1288.93 1800.56 1282.58 1808.94 1275.98 z" fill="rgb(41,111,42)" transform="translate(0,0)"></path>
<path d="M 1658.65 1268.07 C 1662.45 1271.79 1665.01 1299.23 1666.52 1307.09 C 1665.77 1307.1 1662.23 1307.16 1661.82 1307.01 C 1651.22 1303.32 1657.36 1274.58 1658.65 1268.07 z" fill="rgb(136,222,106)" transform="translate(0,0)"></path>
<path d="M 1737.77 1306.02 C 1733.95 1293.7 1740.71 1271.58 1749.21 1262.43 L 1750.56 1262.42 L 1750.88 1266.19 C 1756.84 1272.78 1746.56 1303.16 1739.26 1306.48 L 1737.77 1306.02 z" fill="rgb(136,222,106)" transform="translate(0,0)"></path>
<path d="M 1737.77 1306.02 C 1733.95 1293.7 1740.71 1271.58 1749.21 1262.43 L 1750.56 1262.42 L 1750.88 1266.19 C 1745.82 1278.22 1738.6 1293.15 1737.77 1306.02 z" fill="rgb(47,34,47)" transform="translate(0,0)"></path>
<path d="M 192.203 1040.16 C 200.072 1037.86 223.448 1037.69 231.466 1038.91 C 284.462 1040.52 328.679 1057.69 376.614 1077.81 C 377.901 1082.45 379.647 1088.12 380.608 1092.75 C 386.092 1110.26 391.686 1127.65 400.946 1143.49 C 413.454 1164.9 429.738 1184.49 449.668 1199.31 C 457.038 1204.79 464.816 1209.99 471.84 1215.91 C 471.762 1216.65 471.684 1217.39 471.606 1218.13 C 469.798 1219.25 469.427 1219.52 467.218 1219.06 C 458.337 1217.22 383.148 1163.01 368.697 1153.61 C 348.944 1140.75 328.863 1128.31 307.722 1117.86 C 266.502 1096.56 224.792 1076.1 181.3 1059.98 C 175.162 1057.7 169.035 1055.19 162.921 1052.82 L 159.078 1054.61 C 154.179 1052.58 147.297 1050.04 144.367 1045.62 C 146.338 1044.43 147.725 1044.75 150.658 1043.28 C 162.765 1042.65 175.428 1041.33 187.828 1040.64 L 192.203 1040.16 z" fill="rgb(103,164,55)" transform="translate(0,0)"></path>
<path d="M 315.476 1069.81 C 314.349 1067.01 314.672 1068.46 315.093 1065.32 C 316.795 1066.83 319.149 1068.8 320.706 1070.36 L 322.798 1069.56 C 330.23 1073.44 341.801 1078.2 349.81 1081.33 C 355.534 1084.1 375.698 1093.9 380.608 1092.75 C 386.092 1110.26 391.686 1127.65 400.946 1143.49 C 413.454 1164.9 429.738 1184.49 449.668 1199.31 C 457.038 1204.79 464.816 1209.99 471.84 1215.91 C 471.762 1216.65 471.684 1217.39 471.606 1218.13 C 469.798 1219.25 469.427 1219.52 467.218 1219.06 C 458.337 1217.22 383.148 1163.01 368.697 1153.61 C 348.944 1140.75 328.863 1128.31 307.722 1117.86 C 309.26 1113.14 309.264 1112.83 312.37 1109.1 C 316.042 1092.67 313.103 1081.06 315.476 1069.81 z" fill="rgb(169,206,92)" transform="translate(0,0)"></path>
<path d="M 315.476 1069.81 C 314.349 1067.01 314.672 1068.46 315.093 1065.32 C 316.795 1066.83 319.149 1068.8 320.706 1070.36 C 325.039 1083.28 327.387 1102.67 315.54 1112.57 C 313.819 1114.78 313.947 1114.83 311.605 1116.29 L 310.944 1115.23 L 312.37 1109.1 C 316.042 1092.67 313.103 1081.06 315.476 1069.81 z" fill="rgb(47,34,47)" transform="translate(0,0)"></path>
<path d="M 315.476 1069.81 C 320.834 1084.47 321.003 1097.87 315.54 1112.57 C 313.819 1114.78 313.947 1114.83 311.605 1116.29 L 310.944 1115.23 L 312.37 1109.1 C 316.042 1092.67 313.103 1081.06 315.476 1069.81 z" fill="rgb(136,222,106)" transform="translate(0,0)"></path>
<path d="M 231.466 1038.91 C 284.462 1040.52 328.679 1057.69 376.614 1077.81 C 377.901 1082.45 379.647 1088.12 380.608 1092.75 C 375.698 1093.9 355.534 1084.1 349.81 1081.33 C 341.801 1078.2 330.23 1073.44 322.798 1069.56 L 320.706 1070.36 C 319.149 1068.8 316.795 1066.83 315.093 1065.32 C 308.057 1064.35 288.327 1058.23 280.907 1055.9 C 259.512 1049.2 241.709 1043.91 219.854 1039.59 C 223.726 1039.39 227.597 1039.17 231.466 1038.91 z" fill="url(#Gradient2)" transform="translate(0,0)"></path>
<path d="M 322.798 1069.56 L 322.907 1068.07 C 332.968 1075.16 342.123 1065.01 349.729 1074.41 C 349.948 1076.8 349.598 1079.55 349.962 1081 L 349.81 1081.33 C 341.801 1078.2 330.23 1073.44 322.798 1069.56 z" fill="rgb(136,222,106)" transform="translate(0,0)"></path>
<path d="M 187.828 1040.64 L 192.203 1040.16 C 201.487 1047.17 206.99 1054.42 213.841 1063.68 C 204.508 1056.39 197.33 1048.03 187.828 1040.64 z" fill="rgb(47,34,47)" transform="translate(0,0)"></path>
<path d="M 144.367 1045.62 C 149.223 1047.38 158.972 1051.71 162.921 1052.82 L 159.078 1054.61 C 154.179 1052.58 147.297 1050.04 144.367 1045.62 z" fill="rgb(34,44,29)" transform="translate(0,0)"></path>
<path d="M 423.597 1109 C 422.341 1106.24 421.174 1103.44 420.099 1100.61 C 408.505 1071.18 409.188 1038.32 421.995 1009.4 C 442.081 964.505 492.65 923.922 543.103 946.852 C 541.926 953.064 540.288 959.24 538.756 965.379 C 535.132 980.666 532.358 996.143 530.447 1011.74 C 497.306 1002.71 481.016 1024.44 472.699 1053.4 C 467.428 1071.75 470.869 1087.34 475.15 1105.41 C 473.788 1124.02 443.52 1123.77 429.988 1121.52 C 427.231 1116.78 425.72 1114.18 423.597 1109 z" fill="rgb(169,206,92)" transform="translate(0,0)"></path>
<path d="M 423.597 1109 C 422.341 1106.24 421.174 1103.44 420.099 1100.61 C 408.505 1071.18 409.188 1038.32 421.995 1009.4 C 442.081 964.505 492.65 923.922 543.103 946.852 C 541.926 953.064 540.288 959.24 538.756 965.379 C 512.008 960.785 492.313 961.566 469.163 978.025 C 443.718 996.327 426.558 1023.96 421.44 1054.89 C 419.104 1068.87 420.13 1079.89 421.959 1093.77 C 422.411 1097.2 424 1106.17 423.597 1109 z" fill="rgb(196,230,130)" transform="translate(0,0)"></path>
<path d="M 353.922 1239.11 C 400.468 1238.25 427.676 1240.52 471.288 1260.01 C 459.803 1259.95 455.258 1259.62 444.287 1263.22 C 429.982 1277.63 429.179 1287.68 437.62 1305.04 C 403.604 1305.49 355.062 1303.21 322.917 1306.97 C 315.713 1284.33 312.184 1274.68 291.845 1259.43 C 307.033 1283.65 308.74 1278.27 315.409 1307.78 C 310.406 1307.97 304.685 1308.06 299.748 1308.39 C 293.525 1310.04 271.482 1311.39 263.737 1312.26 C 238.066 1315.14 208.97 1317.01 183.777 1322.15 C 200.018 1308.33 228.505 1285.42 246.123 1275.59 C 277.239 1257.2 317.86 1243.17 353.922 1239.11 z" fill="rgb(103,164,55)" transform="translate(0,0)"></path>
<path d="M 183.777 1322.15 C 200.018 1308.33 228.505 1285.42 246.123 1275.59 C 269.268 1284.09 279.93 1294.95 299.748 1308.39 C 293.525 1310.04 271.482 1311.39 263.737 1312.26 C 238.066 1315.14 208.97 1317.01 183.777 1322.15 z" fill="rgb(66,127,52)" transform="translate(0,0)"></path>
<path d="M 353.922 1239.11 C 400.468 1238.25 427.676 1240.52 471.288 1260.01 C 459.803 1259.95 455.258 1259.62 444.287 1263.22 C 419.504 1250.15 379.931 1244.43 352.377 1240.57 L 353.922 1239.11 z" fill="rgb(136,222,106)" transform="translate(0,0)"></path>
<path d="M 1665.25 1083.16 C 1711.47 1062.49 1750.98 1048.47 1801.86 1042.36 C 1806.91 1041.75 1827.13 1038.91 1829.78 1040.96 L 1828.96 1043.55 C 1826.95 1047.15 1822.77 1054.16 1823.01 1058.2 C 1825.56 1057.75 1825.45 1056.99 1827.68 1054.61 L 1829.44 1055.75 C 1831.52 1056.85 1830.41 1056.42 1832.76 1057.02 C 1836.7 1061.73 1837.1 1064.05 1838.87 1069.77 C 1834.39 1072.02 1829.8 1073.74 1826.68 1077.49 L 1824.02 1079.41 C 1795.31 1092.01 1759.22 1112.18 1731.77 1127.39 C 1705.31 1141.82 1678.94 1156.41 1652.67 1171.16 C 1637.45 1179.85 1600.36 1203.27 1586.93 1208.6 C 1583.6 1208.5 1582.29 1209.19 1579.18 1210.25 L 1577.11 1209.41 C 1578.6 1208.48 1581.31 1207.08 1582.88 1206.24 C 1628.68 1181.72 1648.28 1149.37 1662.38 1101.09 C 1663.41 1095.13 1664.36 1089.15 1665.25 1083.16 z" fill="url(#Gradient1)" transform="translate(0,0)"></path>
<path d="M 1665.25 1083.16 C 1711.47 1062.49 1750.98 1048.47 1801.86 1042.36 C 1806.91 1041.75 1827.13 1038.91 1829.78 1040.96 L 1828.96 1043.55 C 1818.55 1047.18 1806.21 1049.17 1795.31 1051.37 C 1749.12 1060.71 1703.81 1078.93 1662.38 1101.09 C 1663.41 1095.13 1664.36 1089.15 1665.25 1083.16 z" fill="rgb(136,222,106)" transform="translate(0,0)"></path>
<path d="M 475.15 1105.41 C 476.896 1097.89 475.956 1090.78 476.366 1082.51 C 477.5 1059.63 492.954 1017.85 521.732 1021.61 C 524.249 1021.94 527.198 1023.54 528.64 1025.85 C 528.377 1037.25 525.908 1048.1 526.11 1062.07 C 526.94 1119.35 543.351 1154.64 570.537 1201.98 C 509.52 1211.54 458.296 1172.92 429.988 1121.52 C 443.52 1123.77 473.788 1124.02 475.15 1105.41 z" fill="rgb(103,164,55)" transform="translate(0,0)"></path>
<path d="M 1463.56 1282.68 C 1469.18 1269.29 1485.86 1233.56 1503.69 1231.35 C 1507.62 1230.86 1512.35 1235.33 1515.12 1237.91 C 1512 1250.48 1504.52 1267.61 1499.8 1280.49 C 1511.31 1274.56 1552.04 1251.39 1563.67 1259.37 C 1568.42 1270.94 1542.32 1284.59 1533.76 1290.22 C 1545.56 1287.65 1606.9 1270.68 1598.11 1296.48 C 1596.19 1302.08 1556.65 1310.32 1548.46 1313.53 L 1547.19 1314.04 C 1561.58 1313.86 1577.06 1312.37 1591.04 1316.12 C 1595.12 1316.27 1598.97 1324.6 1595.65 1326.81 C 1581.87 1336 1552.83 1332.22 1536.65 1335.57 C 1549.88 1340.1 1568.64 1338.27 1577.13 1349.91 C 1578.29 1357.24 1567.65 1359.09 1562 1359.42 C 1530.97 1361.2 1499.37 1358.57 1468.34 1356.7 C 1466.05 1341.75 1464.17 1327.3 1460.5 1312.59 C 1459.33 1307.89 1453.54 1289.45 1453.8 1286.08 C 1456.42 1283.75 1460.04 1283.43 1463.56 1282.68 z" fill="rgb(205,179,101)" transform="translate(0,0)"></path>
<path d="M 1468.34 1356.7 C 1481.47 1348.74 1520.05 1340.51 1536.65 1335.57 C 1549.88 1340.1 1568.64 1338.27 1577.13 1349.91 C 1578.29 1357.24 1567.65 1359.09 1562 1359.42 C 1530.97 1361.2 1499.37 1358.57 1468.34 1356.7 z" fill="rgb(200,154,97)" transform="translate(0,0)"></path>
<path d="M 607.428 1288.02 C 653.131 1303.95 694.603 1316.04 740.585 1329.92 C 738.832 1334 735.667 1342.1 733.776 1345.74 C 728.139 1363.63 718.421 1385.81 711.061 1403.43 C 674.625 1390.79 629.221 1382.37 594.277 1369.13 C 595.119 1361.58 596.654 1353.24 597.887 1345.66 C 601.626 1326.37 604.133 1307.27 607.428 1288.02 z" fill="rgb(216,242,198)" transform="translate(0,0)"></path>
<path d="M 597.887 1345.66 C 623.688 1351.18 649.451 1356.88 675.174 1362.75 C 686.64 1365.28 709.495 1369.61 719.621 1373.31 C 722.812 1365.78 728.383 1350.57 733.776 1345.74 C 728.139 1363.63 718.421 1385.81 711.061 1403.43 C 674.625 1390.79 629.221 1382.37 594.277 1369.13 C 595.119 1361.58 596.654 1353.24 597.887 1345.66 z" fill="rgb(135,213,153)" transform="translate(0,0)"></path>
<path d="M 1311.51 1335.49 L 1311.05 1331.47 C 1312.64 1329.48 1424.6 1294.1 1434.93 1291.71 C 1442.1 1304.82 1444.95 1322.52 1447.59 1337.29 C 1449.31 1342.42 1450.72 1368.2 1450.99 1373.99 C 1413.08 1386.68 1373.79 1394.22 1334.77 1402.35 C 1327.24 1379.99 1319.48 1357.7 1311.51 1335.49 z" fill="rgb(135,213,153)" transform="translate(0,0)"></path>
<path d="M 1311.51 1335.49 L 1311.05 1331.47 C 1312.64 1329.48 1424.6 1294.1 1434.93 1291.71 C 1442.1 1304.82 1444.95 1322.52 1447.59 1337.29 C 1443.72 1343.4 1364.42 1352.76 1353.45 1351.62 C 1341.59 1350.38 1330.92 1350.23 1320.89 1341.94 C 1317.44 1339.09 1315.76 1337.2 1311.51 1335.49 z" fill="rgb(216,242,198)" transform="translate(0,0)"></path>
<path d="M 494.694 1354.87 C 484.487 1350.38 461.115 1340.88 460.522 1327.96 C 466.356 1319.53 486.117 1328.37 494.058 1324.55 L 494.635 1322.64 C 488.991 1311.46 461.614 1303.96 459.44 1288.52 C 459.323 1287.69 460.041 1285.08 461.052 1284.63 C 475.723 1278.05 496.623 1293.02 511.657 1293.58 C 515.143 1285.95 482.286 1257.9 492.61 1249.14 C 511.541 1246.75 541.158 1288.72 548.455 1290.07 C 553.755 1281.14 535.133 1244.02 552.804 1234.6 C 563.818 1233.85 570.93 1253.89 573.573 1262.82 C 592.085 1300.38 589.472 1311.92 577.949 1352.33 C 553.024 1361.62 519.92 1364.64 494.694 1354.87 z" fill="rgb(169,206,92)" transform="translate(0,0)"></path>
<path d="M 573.573 1262.82 C 592.085 1300.38 589.472 1311.92 577.949 1352.33 C 553.024 1361.62 519.92 1364.64 494.694 1354.87 C 501.296 1353.78 510.183 1355.71 517.335 1355.34 C 579.138 1352.18 576.075 1310.66 573.573 1262.82 z" fill="rgb(103,164,55)" transform="translate(0,0)"></path>
<path d="M 267.227 888.179 L 272.477 892.862 C 283.342 902.968 297.079 915.118 307.123 925.675 C 299.405 930.273 296.068 932.454 286.681 932.852 C 284.156 933.083 282.403 932.913 280.506 934.501 C 284.341 937.029 290.636 936.352 295.267 936.161 C 301.96 934.645 304.064 933.365 310.164 930.278 C 331.672 954.113 352.017 978.974 371.128 1004.77 C 374.224 1007.72 377.328 1010.73 380.455 1013.63 C 379.518 1022.91 378.339 1032.15 376.92 1041.36 C 376.834 1046.14 376.257 1052.65 375.963 1057.54 C 361.988 1048.01 332.634 1037.51 322.672 1024.83 C 296.416 991.426 267.104 940.783 256.093 899.66 C 262.969 897.478 264.952 896.832 270.835 901.761 C 270.251 900.791 269.678 899.814 269.117 898.83 C 266.588 894.37 265.829 893.226 267.227 888.179 z" fill="rgb(42,100,42)" transform="translate(0,0)"></path>
<path d="M 295.267 936.161 C 301.96 934.645 304.064 933.365 310.164 930.278 C 331.672 954.113 352.017 978.974 371.128 1004.77 C 364.141 1004.25 337.461 998.298 330.587 995.765 C 326.51 990.952 323.434 987.524 320.138 982.127 L 317.525 983.092 C 313.312 974.025 299.969 952.562 294.384 942.787 C 291.969 939.603 291.656 940.348 292.025 937.423 L 295.267 936.161 z" fill="rgb(105,190,77)" transform="translate(0,0)"></path>
<path d="M 317.525 983.092 L 320.138 982.127 C 323.434 987.524 326.51 990.952 330.587 995.765 C 337.461 998.298 364.141 1004.25 371.128 1004.77 C 374.224 1007.72 377.328 1010.73 380.455 1013.63 C 379.518 1022.91 378.339 1032.15 376.92 1041.36 C 356.668 1028.29 327.459 1005.78 317.525 983.092 z" fill="rgb(66,127,52)" transform="translate(0,0)"></path>
<path d="M 267.227 888.179 L 272.477 892.862 C 283.342 902.968 297.079 915.118 307.123 925.675 C 299.405 930.273 296.068 932.454 286.681 932.852 C 283.835 921.492 277.867 911.031 270.835 901.761 C 270.251 900.791 269.678 899.814 269.117 898.83 C 266.588 894.37 265.829 893.226 267.227 888.179 z" fill="rgb(105,190,77)" transform="translate(0,0)"></path>
<path d="M 1752.96 912.487 L 1754.4 911.33 C 1757.08 914.108 1758.75 920.512 1764.71 926.942 C 1768.91 930.396 1769.87 930.582 1775.03 932.726 C 1760.2 964.421 1744 993.581 1722.88 1021.59 C 1706.66 1043.12 1689.36 1045.28 1667.02 1057.68 C 1666.33 1052.19 1665.49 1046.54 1665.2 1041.03 C 1663.72 1032.34 1661.29 1023 1659.22 1014.36 C 1663.63 1009.77 1668.19 1004.75 1673.03 1000.67 C 1690.36 980.844 1707.23 960.567 1725.05 941.194 C 1733.8 931.676 1743.16 920.784 1752.96 912.487 z" fill="rgb(103,164,55)" transform="translate(0,0)"></path>
<path d="M 1764.71 926.942 C 1768.91 930.396 1769.87 930.582 1775.03 932.726 C 1760.2 964.421 1744 993.581 1722.88 1021.59 C 1706.66 1043.12 1689.36 1045.28 1667.02 1057.68 C 1666.33 1052.19 1665.49 1046.54 1665.2 1041.03 C 1677.25 1037.5 1723.47 986.295 1732.1 974.675 C 1741.96 961.418 1754.4 940.988 1764.71 926.942 z" fill="rgb(41,111,42)" transform="translate(0,0)"></path>
<path d="M 1752.96 912.487 L 1754.45 914.022 C 1753.46 920.888 1690.49 990.415 1679.83 998.187 C 1677.46 999.91 1675.99 1000.81 1673.03 1000.67 C 1690.36 980.844 1707.23 960.567 1725.05 941.194 C 1733.8 931.676 1743.16 920.784 1752.96 912.487 z" fill="rgb(169,206,92)" transform="translate(0,0)"></path>
<path d="M 1005.69 1438.39 C 1013.2 1440.23 1015.59 1440.86 1023.28 1441.22 L 1041.24 1440.84 C 1050.09 1459.07 1061.75 1494.76 1066.29 1514.98 C 1043.34 1513.49 1018.38 1513.95 995.222 1513.71 L 979.376 1514.1 C 986.572 1489.85 996.948 1462.23 1005.69 1438.39 z" fill="rgb(235,147,54)" transform="translate(0,0)"></path>
<path d="M 1023.28 1441.22 L 1041.24 1440.84 C 1050.09 1459.07 1061.75 1494.76 1066.29 1514.98 C 1043.34 1513.49 1018.38 1513.95 995.222 1513.71 C 999.694 1511.63 1027.41 1513.21 1033.78 1513.5 C 1032.11 1501.19 1026.68 1449.49 1023.28 1441.22 z" fill="rgb(192,113,69)" transform="translate(0,0)"></path>
<path d="M 324.683 885.275 C 336.717 888.938 346.849 892.244 358.635 896.623 C 364.491 928.741 370.831 966.13 379.671 997.366 C 372.038 986.241 320.785 929.196 311.003 921.892 L 309.441 920.11 C 311.451 913.591 312.402 904.447 316.4 899.137 C 319.738 894.139 319.711 891.783 324.683 885.275 z" fill="rgb(169,206,92)" transform="translate(0,0)"></path>
<path d="M 309.441 920.11 C 311.451 913.591 312.402 904.447 316.4 899.137 C 314.849 907.376 313.209 913.776 311.003 921.892 L 309.441 920.11 z" fill="rgb(34,44,29)" transform="translate(0,0)"></path>
<path d="M 905.333 1358.82 C 947.555 1361.3 979.537 1360.4 1020.83 1360.81 C 1015.62 1366.1 1000.82 1380.79 994.223 1384.31 C 983.742 1392.24 966.539 1402.88 955.289 1410.32 C 943.488 1400.65 931.433 1388.33 921.416 1376.92 C 915.638 1369.72 911.995 1365.06 905.333 1358.82 z" fill="rgb(192,113,69)" transform="translate(0,0)"></path>
<path d="M 921.416 1376.92 C 933.791 1369.8 950.183 1370.9 963.29 1374.97 C 971.905 1377.65 986.592 1380.95 994.223 1384.31 C 983.742 1392.24 966.539 1402.88 955.289 1410.32 C 943.488 1400.65 931.433 1388.33 921.416 1376.92 z" fill="rgb(235,147,54)" transform="translate(0,0)"></path>
<path d="M 1029.19 1360.9 C 1066.48 1358.25 1104.99 1362.34 1143.06 1358.29 C 1132.33 1371.78 1110.63 1392.52 1096.45 1403.19 L 1089.98 1408.28 C 1067.17 1394.55 1059.6 1390.55 1040.07 1372.32 C 1034.98 1368.06 1033.39 1366 1029.19 1360.9 z" fill="rgb(192,113,69)" transform="translate(0,0)"></path>
<path d="M 1040.07 1372.32 C 1049.52 1370.4 1080.59 1377.1 1089.76 1382.91 C 1095.42 1386.5 1095.86 1396.68 1096.45 1403.19 L 1089.98 1408.28 C 1067.17 1394.55 1059.6 1390.55 1040.07 1372.32 z" fill="rgb(235,147,54)" transform="translate(0,0)"></path>
<path d="M 1698.03 909.74 C 1697.06 905.549 1696.3 905.299 1697.31 901.732 C 1713.51 890.339 1760.15 870.315 1780.48 864.76 C 1783.34 863.981 1796.88 864.103 1800.51 864.118 C 1796.81 866.305 1793.07 868.425 1789.3 870.476 C 1787.64 873.464 1719.85 937.371 1712.84 942.494 L 1707.91 947.766 C 1707.09 941.798 1706.01 939.253 1703.13 933.952 C 1702.8 926.846 1699.87 916.913 1698.03 909.74 z" fill="rgb(103,164,55)" transform="translate(0,0)"></path>
<path d="M 1698.03 909.74 C 1697.06 905.549 1696.3 905.299 1697.31 901.732 C 1713.51 890.339 1760.15 870.315 1780.48 864.76 C 1783.34 863.981 1796.88 864.103 1800.51 864.118 C 1796.81 866.305 1793.07 868.425 1789.3 870.476 C 1768.39 877.304 1727.33 897.46 1706.17 907.428 L 1698.03 909.74 z" fill="rgb(136,222,106)" transform="translate(0,0)"></path>
<path d="M 1698.03 909.74 L 1706.17 907.428 C 1704.07 909.241 1702.64 910.417 1700.36 912.091 L 1700.48 914.075 C 1702.96 914.15 1702.4 914.149 1704.84 913.683 C 1712.3 920.54 1707.02 937.54 1708.65 942.069 L 1710.18 943.302 L 1712.84 942.494 L 1707.91 947.766 C 1707.09 941.798 1706.01 939.253 1703.13 933.952 C 1702.8 926.846 1699.87 916.913 1698.03 909.74 z" fill="rgb(105,190,77)" transform="translate(0,0)"></path>
<path d="M 1517 1024.95 C 1537.24 1025.49 1568.47 1032.32 1568.91 1060.24 C 1569.02 1066.61 1560.03 1072.58 1555.09 1075.9 C 1540.72 1083.66 1530.53 1085.76 1514.5 1088.59 C 1517.91 1063.1 1517.83 1050.04 1517 1024.95 z" fill="rgb(192,113,69)" transform="translate(0,0)"></path>
<path d="M 1025.74 1373.58 L 1033.59 1382.15 C 1043.31 1392.84 1051.4 1401.71 1061.96 1411.61 C 1051.75 1422.03 1042.12 1426.14 1027.94 1428.46 C 1010.98 1428.27 1002.73 1422.68 989.088 1413.49 L 986.969 1412.13 L 986.693 1410.5 C 999.548 1398.02 1012.56 1385.72 1025.74 1373.58 z" fill="rgb(235,147,54)" transform="translate(0,0)"></path>
<path d="M 1033.59 1382.15 C 1043.31 1392.84 1051.4 1401.71 1061.96 1411.61 C 1051.75 1422.03 1042.12 1426.14 1027.94 1428.46 C 1030.01 1413.93 1032.97 1401.2 1030.44 1386.82 L 1033.59 1382.15 z" fill="rgb(192,113,69)" transform="translate(0,0)"></path>
<path d="M 1025.74 1373.58 L 1033.59 1382.15 L 1030.44 1386.82 L 1028.51 1385.69 C 1020.07 1388.86 999.205 1408.93 989.088 1413.49 L 986.969 1412.13 L 986.693 1410.5 C 999.548 1398.02 1012.56 1385.72 1025.74 1373.58 z" fill="rgb(192,113,69)" transform="translate(0,0)"></path>
<path d="M 663.226 1787.31 C 665.921 1790.81 669.405 1821.65 670.403 1828.72 C 649.417 1824.4 625.375 1817.52 604.477 1811.97 C 594.255 1809.74 586.859 1807.81 576.831 1804.88 C 598.742 1797.69 639.49 1791.71 663.226 1787.31 z" fill="rgb(139,87,62)" transform="translate(0,0)"></path>
<path d="M 256.093 899.66 C 253.911 893.331 247.292 876.495 248.524 870.83 L 251.013 870.13 C 257.868 870.533 266.369 872.349 273.267 873.622 C 290.511 877.025 307.656 880.911 324.683 885.275 C 319.711 891.783 319.738 894.139 316.4 899.137 C 312.402 904.447 311.451 913.591 309.441 920.11 C 300.258 911.125 289.646 902.503 280.083 893.636 L 275.133 891.021 L 272.477 892.862 L 267.227 888.179 C 265.829 893.226 266.588 894.37 269.117 898.83 C 269.678 899.814 270.251 900.791 270.835 901.761 C 264.952 896.832 262.969 897.478 256.093 899.66 z" fill="rgb(105,190,77)" transform="translate(0,0)"></path>
<path d="M 256.093 899.66 C 253.911 893.331 247.292 876.495 248.524 870.83 L 251.013 870.13 L 250.84 872.076 C 252.142 876.058 263.08 884.047 267.227 888.179 C 265.829 893.226 266.588 894.37 269.117 898.83 C 269.678 899.814 270.251 900.791 270.835 901.761 C 264.952 896.832 262.969 897.478 256.093 899.66 z" fill="rgb(103,164,55)" transform="translate(0,0)"></path>
<path d="M 250.84 872.076 C 260.248 875.739 267.576 884.647 275.133 891.021 L 272.477 892.862 L 267.227 888.179 C 263.08 884.047 252.142 876.058 250.84 872.076 z" fill="rgb(34,44,29)" transform="translate(0,0)"></path>
<path d="M 1384.33 1792.41 C 1401.07 1794.68 1455.76 1802.04 1470.15 1806.82 L 1454.65 1810.6 C 1436.11 1816.56 1400.96 1821.51 1381.74 1823.37 C 1382.01 1815.2 1382.79 1800.03 1384.33 1792.41 z" fill="rgb(139,87,62)" transform="translate(0,0)"></path>
<path d="M 1683.27 924.134 C 1684.2 918.965 1685.06 909.64 1688.26 906.311 C 1691.36 908.287 1690.84 909.105 1692.62 913.277 C 1695.67 921.041 1697.87 927.317 1703.13 933.952 C 1706.01 939.253 1707.09 941.798 1707.91 947.766 C 1691.05 966.486 1674.09 983.894 1657.57 1003.17 C 1667.58 976.927 1676.62 951.445 1683.27 924.134 z" fill="rgb(169,206,92)" transform="translate(0,0)"></path>
<path d="M 1787.7 880.138 C 1791.06 876.265 1796.09 873.21 1800.39 870.228 C 1797.64 880.439 1784.18 920.838 1777.55 927.404 C 1773.59 928.291 1773.2 927.542 1769.93 924.782 L 1768.59 923 C 1765.86 919.768 1760.05 911.793 1759.84 907.429 C 1759.69 904.299 1761.41 903.583 1763.74 901.271 C 1768.86 894.878 1780.93 885.511 1787.7 880.138 z" fill="rgb(41,111,42)" transform="translate(0,0)"></path>
<path d="M 1787.7 880.138 C 1787.91 889.049 1773.95 914.17 1769.93 924.782 L 1768.59 923 C 1765.86 919.768 1760.05 911.793 1759.84 907.429 C 1759.69 904.299 1761.41 903.583 1763.74 901.271 C 1768.86 894.878 1780.93 885.511 1787.7 880.138 z" fill="rgb(103,164,55)" transform="translate(0,0)"></path>
<path d="M 1763.74 901.271 C 1767.25 904.263 1770.5 919.026 1768.59 923 C 1765.86 919.768 1760.05 911.793 1759.84 907.429 C 1759.69 904.299 1761.41 903.583 1763.74 901.271 z" fill="rgb(169,206,92)" transform="translate(0,0)"></path>
<path d="M 1739.29 1333.5 C 1738.8 1328.16 1737.66 1321.42 1740.28 1316.83 C 1743.41 1330.88 1746.71 1346.13 1751.38 1359.75 C 1746.97 1357.99 1746.3 1354.96 1744.62 1350.79 C 1742.93 1345 1741.15 1339.24 1739.29 1333.5 z" fill="rgb(169,206,92)" transform="translate(0,0)"></path>
<path d="M 1577.11 1209.41 L 1579.18 1210.25 C 1582.29 1209.19 1583.6 1208.5 1586.93 1208.6 C 1578.75 1214.56 1562.46 1218.61 1553.56 1224.02 L 1551.85 1221.83 C 1557.2 1214.98 1568.37 1212.33 1577.11 1209.41 z" fill="rgb(105,190,77)" transform="translate(0,0)"></path>
<path d="M 1561.97 1237.3 C 1556.56 1239.26 1540.47 1245.71 1535.62 1246.31 C 1541.24 1241.12 1554.7 1237.22 1562.37 1234.57 L 1561.97 1237.3 z" fill="rgb(103,164,55)" transform="translate(0,0)"></path>
<path d="M 1551.85 1221.83 L 1553.56 1224.02 C 1550.99 1226.47 1546.09 1229.88 1543.09 1232.13 L 1551.85 1221.83 z" fill="rgb(66,127,52)" transform="translate(0,0)"></path>
<metadata><recraft-signature>{"signed_by": "recraft", "signature_b64": "VK+wENvVlMmoNxG/Z+0gQZvrjycE9GCA9aTWmHVnKoGYIssTGTbMVzbaiHYD5yHn8Z5f2cC1fMj+kWpyFsLeCA==", "signing_algo": "Ed25519", "generation_timestamp": 1783499078, "identifier": "ecf6d89d-c73c-4512-b0d2-b313df114087"}</recraft-signature></metadata></svg>