<svg xmlns="http://www.w3.org/2000/svg" height="1024" preserveAspectRatio="none" style="display: block;" version="1.1" viewBox="0 0 2048 2048" width="1024">
<defs>
	<linearGradient gradientUnits="userSpaceOnUse" id="Gradient1" x1="470.322" x2="677.742" y1="875.371" y2="879.036">
		<stop class="stop0" offset="0" stop-color="rgb(202,61,62)" stop-opacity="1"></stop>
		<stop class="stop1" offset="1" stop-color="rgb(229,115,80)" stop-opacity="1"></stop>
	</linearGradient>
	<linearGradient gradientUnits="userSpaceOnUse" id="Gradient2" x1="630.618" x2="448.202" y1="751.134" y2="546.433">
		<stop class="stop0" offset="0" stop-color="rgb(230,118,77)" stop-opacity="1"></stop>
		<stop class="stop1" offset="1" stop-color="rgb(248,174,109)" stop-opacity="1"></stop>
	</linearGradient>
	<linearGradient gradientUnits="userSpaceOnUse" id="Gradient3" x1="1578.54" x2="1393.92" y1="745.699" y2="806.586">
		<stop class="stop0" offset="0" stop-color="rgb(233,117,76)" stop-opacity="1"></stop>
		<stop class="stop1" offset="1" stop-color="rgb(245,174,116)" stop-opacity="1"></stop>
	</linearGradient>
	<linearGradient gradientUnits="userSpaceOnUse" id="Gradient4" x1="763.647" x2="905.943" y1="959.101" y2="747.545">
		<stop class="stop0" offset="0" stop-color="rgb(243,145,90)" stop-opacity="1"></stop>
		<stop class="stop1" offset="1" stop-color="rgb(252,204,135)" stop-opacity="1"></stop>
	</linearGradient>
	<linearGradient gradientUnits="userSpaceOnUse" id="Gradient5" x1="1276.96" x2="1144.31" y1="960.411" y2="741.485">
		<stop class="stop0" offset="0" stop-color="rgb(241,141,92)" stop-opacity="1"></stop>
		<stop class="stop1" offset="1" stop-color="rgb(253,209,138)" stop-opacity="1"></stop>
	</linearGradient>
	<linearGradient gradientUnits="userSpaceOnUse" id="Gradient6" x1="1389.62" x2="1150.99" y1="375.197" y2="573.043">
		<stop class="stop0" offset="0" stop-color="rgb(227,105,66)" stop-opacity="1"></stop>
		<stop class="stop1" offset="1" stop-color="rgb(240,147,88)" stop-opacity="1"></stop>
	</linearGradient>
</defs>
<path d="M 0 0 L 2048 0 L 2048 2048 L 0 2048 L 0 0 z" fill="rgb(232,213,183)" transform="translate(0,0)"></path>
<path d="M 1023.22 153.686 C 1176.74 238.788 1330.81 322.886 1485.43 405.973 L 1604.47 470.635 C 1628.93 483.754 1655.09 497.542 1678.77 512.113 C 1685.17 516.058 1695.28 529.163 1696.89 536.295 C 1700.68 553.049 1699.68 576.036 1699.71 593.492 L 1699.79 664.775 L 1699.99 923.294 C 1758.42 924.052 1822.54 924.487 1881 923.424 L 1881.05 954.845 L 1880.96 981.061 L 1880.87 1305.59 L 1880.81 1332.35 L 1880.51 1361.96 L 1702.02 1361.95 L 1701.93 1436.78 C 1701.99 1529.51 1700.28 1522.78 1620.73 1566.37 C 1580.46 1588.64 1540.06 1610.68 1499.55 1632.49 L 1191.65 1801.78 C 1137.17 1831.87 1076.98 1862.53 1024.02 1894.41 C 1000.93 1878.23 963.098 1859.5 937.158 1844.96 C 870.215 1807.37 802.964 1770.33 735.412 1733.84 L 502.838 1604.85 C 466.949 1584.64 430.899 1564.71 394.692 1545.07 C 379.313 1536.56 361.673 1525.6 346.408 1517.81 C 346.642 1465.96 346.603 1414.1 346.291 1362.25 C 289.07 1362.31 224.759 1360.79 168.172 1362.6 L 168.143 1333.18 L 168.071 1305.72 C 166.986 1265.39 168.026 1219.46 168.006 1178.69 L 167.977 980.843 L 168.052 954.17 L 168.023 923.905 C 227.494 923.97 288.504 924.748 347.849 923.931 C 348.745 836.493 347.814 747.79 347.743 660.243 L 347.706 592.136 C 347.698 552.077 342.913 524.839 384.303 505.008 C 397.085 498.885 412.135 490.453 424.705 483.646 L 524.327 429.208 L 801.879 275.905 C 851.089 249.747 900.055 223.133 948.77 196.066 C 974.065 182.058 998.581 168.917 1023.22 153.686 z" fill="rgb(36,62,83)" transform="translate(0,0)"></path>
<path d="M 1023.22 153.686 C 1176.74 238.788 1330.81 322.886 1485.43 405.973 L 1604.47 470.635 C 1628.93 483.754 1655.09 497.542 1678.77 512.113 C 1685.17 516.058 1695.28 529.163 1696.89 536.295 C 1700.68 553.049 1699.68 576.036 1699.71 593.492 L 1699.79 664.775 L 1699.99 923.294 C 1758.42 924.052 1822.54 924.487 1881 923.424 L 1881.05 954.845 L 1880.96 981.061 L 167.977 980.843 L 168.052 954.17 L 168.023 923.905 C 227.494 923.97 288.504 924.748 347.849 923.931 C 348.745 836.493 347.814 747.79 347.743 660.243 L 347.706 592.136 C 347.698 552.077 342.913 524.839 384.303 505.008 C 397.085 498.885 412.135 490.453 424.705 483.646 L 524.327 429.208 L 801.879 275.905 C 851.089 249.747 900.055 223.133 948.77 196.066 C 974.065 182.058 998.581 168.917 1023.22 153.686 z" fill="rgb(33,53,75)" transform="translate(0,0)"></path>
<path d="M 168.052 954.17 L 1881.05 954.845 L 1880.96 981.061 L 167.977 980.843 L 168.052 954.17 z" fill="rgb(103,200,159)" transform="translate(0,0)"></path>
<path d="M 1024.89 306.753 C 1026.24 301.795 1023.85 300.686 1025.18 297.706 L 1030.07 298.064 C 1082.39 324.637 1572.63 590.928 1578.75 600.016 C 1578.79 602.619 1578.92 602.304 1578.4 604.792 C 1577.35 647.908 1578.44 692.978 1578.19 736.342 C 1560.28 735.276 1536.97 735.925 1518.61 735.934 L 1412.63 736.021 C 1394.95 716.542 1380.82 707.024 1363.42 689.814 C 1377.61 692.222 1395.18 699.365 1408.28 705.198 C 1372.05 665.56 1362.46 659.344 1360.97 603.867 C 1361.02 598.998 1360.7 593.677 1360.52 588.775 L 1356.66 587.774 L 1352.75 605.101 L 1352.29 604.957 L 1332.56 604.895 C 1309.29 604.854 1136.97 602.919 1128.31 606.021 C 1111.65 579.819 1097.99 559.614 1073.52 539.457 C 1062.5 530.381 1050.36 521.798 1039.73 512.66 C 1033.81 508.088 1029.83 503.284 1025.52 497.309 C 1032.21 499.833 1039.88 503.033 1046.1 506.503 C 1067.1 515.451 1081.22 520.439 1103.02 527.395 C 1082.43 502.016 1069.03 486.603 1045.28 463.932 L 1042.82 446.328 C 1038.67 406.933 1031.98 367.895 1026.96 328.614 C 1026.03 321.351 1025.11 314.078 1024.89 306.753 z" fill="url(#Gradient6)" transform="translate(0,0)"></path>
<path d="M 1360.97 603.867 C 1433.45 603.584 1505.93 603.892 1578.4 604.792 C 1577.35 647.908 1578.44 692.978 1578.19 736.342 C 1560.28 735.276 1536.97 735.925 1518.61 735.934 L 1412.63 736.021 C 1394.95 716.542 1380.82 707.024 1363.42 689.814 C 1377.61 692.222 1395.18 699.365 1408.28 705.198 C 1372.05 665.56 1362.46 659.344 1360.97 603.867 z" fill="rgb(243,236,203)" transform="translate(0,0)"></path>
<path d="M 1042.82 446.328 C 1137 452.366 1239.95 492.878 1303.45 564.897 C 1314.16 577.213 1323.85 590.386 1332.41 604.284 C 1338.14 604.125 1347 603.475 1352.29 604.957 L 1332.56 604.895 C 1309.29 604.854 1136.97 602.919 1128.31 606.021 C 1111.65 579.819 1097.99 559.614 1073.52 539.457 C 1062.5 530.381 1050.36 521.798 1039.73 512.66 C 1033.81 508.088 1029.83 503.284 1025.52 497.309 C 1032.21 499.833 1039.88 503.033 1046.1 506.503 C 1067.1 515.451 1081.22 520.439 1103.02 527.395 C 1082.43 502.016 1069.03 486.603 1045.28 463.932 L 1042.82 446.328 z" fill="rgb(245,184,122)" transform="translate(0,0)"></path>
<path d="M 1025.52 497.309 C 1032.21 499.833 1039.88 503.033 1046.1 506.503 L 1044.49 507.456 L 1042.45 506.905 C 1040.5 509.45 1040.67 509.519 1039.73 512.66 C 1033.81 508.088 1029.83 503.284 1025.52 497.309 z" fill="rgb(232,213,183)" transform="translate(0,0)"></path>
<path d="M 1200.93 544.587 C 1201.38 545.73 1201.67 546.153 1201.64 547.381 C 1201.37 558.072 1206.05 553.371 1212.61 557.306 C 1201.64 559.828 1203.24 560.202 1200.86 570.784 C 1199.91 566.46 1199.56 564.584 1197.92 560.536 C 1194.73 557.845 1194.68 558.61 1189.87 557.752 C 1198.43 551.29 1197.32 557.691 1200.93 544.587 z" fill="rgb(36,62,83)" transform="translate(0,0)"></path>
<path d="M 1359.37 573.866 L 1360.52 588.775 L 1356.66 587.774 C 1357.57 583.154 1358.52 578.49 1359.37 573.866 z" fill="rgb(36,62,83)" transform="translate(0,0)"></path>
<path d="M 1119.36 413.697 C 1125.43 431.115 1115.54 431.87 1141.35 434.024 C 1136.07 435.329 1127.75 436.517 1122.15 437.52 C 1122.03 443.23 1121.87 445.362 1120.83 450.965 L 1120.51 450.985 C 1117.12 447.172 1118.2 441.297 1115.64 437.361 C 1113.9 434.686 1103.44 434.51 1099.41 433.868 L 1116.37 432.211 C 1117.22 425.493 1117.88 420.32 1119.36 413.697 z" fill="rgb(33,53,75)" transform="translate(0,0)"></path>
<path d="M 1348.45 518.749 C 1351.07 521.562 1349.13 525.229 1352.42 530.354 C 1355.38 532.152 1358.59 532.06 1362.13 532.408 C 1357.44 537.811 1352.85 530.091 1349.61 544.865 L 1349.16 545.851 C 1347.38 543.792 1346.86 539.001 1346.28 536.054 C 1341.78 534.949 1337.23 533.721 1332.74 532.552 L 1346.47 530.824 L 1348.45 518.749 z" fill="rgb(33,53,75)" transform="translate(0,0)"></path>
<path d="M 586.723 536.617 C 640.577 503.892 702.22 471.064 757.691 440.606 L 929.275 345.422 L 997.81 307.551 C 1005.24 303.482 1014.05 298.545 1021.79 294.868 C 1023.87 293.883 1027.55 296.688 1030.07 298.064 L 1025.18 297.706 C 1023.85 300.686 1026.24 301.795 1024.89 306.753 L 1023.4 306.502 L 1004.64 443.908 C 1003.85 449.723 1002.9 455.78 1002.51 461.612 C 998.601 467.071 984.026 481.704 978.61 487.489 C 966.799 500.342 955.109 513.306 943.54 526.378 C 955.499 522.688 967.805 519.009 979.458 514.492 C 993.306 509.123 1007.1 502.401 1020.95 497.104 C 1008.94 512.07 990.883 523.731 975.86 536.495 C 948.497 559.744 938.028 577.41 919.874 606.267 C 911.91 604.326 871.056 605.231 860.17 605.359 C 828.022 605.79 795.87 605.904 763.719 605.7 C 747.004 605.717 724.514 606.474 708.487 605.312 L 695.681 605.303 C 694.437 592.378 693.225 580.132 691.44 567.268 C 689.621 575.751 687.98 596.239 686.94 605.809 C 673.79 605.133 655.469 605.773 642.002 605.795 L 555.601 605.802 C 562.07 590.46 583.335 549.693 586.723 536.617 z" fill="rgb(229,132,77)" transform="translate(0,0)"></path>
<path d="M 708.487 605.312 C 713.267 600.124 721.979 587.447 726.903 581.162 C 737.836 567.357 749.558 554.194 762.008 541.74 C 824.875 478.811 915.948 443.767 1004.64 443.908 C 1003.85 449.723 1002.9 455.78 1002.51 461.612 C 998.601 467.071 984.026 481.704 978.61 487.489 C 966.799 500.342 955.109 513.306 943.54 526.378 C 955.499 522.688 967.805 519.009 979.458 514.492 C 993.306 509.123 1007.1 502.401 1020.95 497.104 C 1008.94 512.07 990.883 523.731 975.86 536.495 C 948.497 559.744 938.028 577.41 919.874 606.267 C 911.91 604.326 871.056 605.231 860.17 605.359 C 828.022 605.79 795.87 605.904 763.719 605.7 C 747.004 605.717 724.514 606.474 708.487 605.312 z" fill="rgb(245,184,122)" transform="translate(0,0)"></path>
<path d="M 828.91 567.555 C 832.066 575.938 831.41 574.658 839.592 579.033 C 838.308 580.646 834.426 580.87 831.765 581.436 C 831.517 585.665 831.147 589.887 830.657 594.096 L 829.63 594.017 L 827.49 581.318 L 815.683 578.371 C 819.492 577.654 821.676 577.277 825.326 576.066 C 828.226 573.685 828.168 571.329 828.91 567.555 z" fill="rgb(36,62,83)" transform="translate(0,0)"></path>
<path d="M 699.298 415.516 C 731.078 395.652 774.115 373.195 807.31 354.963 L 974.592 262.154 C 990.345 253.359 1008.97 244.331 1023.91 235.413 C 1041.71 245.581 1060.04 254.694 1078.05 264.517 C 1121.38 288.49 1164.91 312.089 1208.64 335.31 C 1317.25 392.88 1425.14 451.801 1532.28 512.06 L 1607.97 553.976 C 1615.76 558.251 1624.97 562.583 1632.41 566.846 L 1632.98 800.163 C 1633.01 838.462 1634.18 886.108 1632.66 923.99 L 1601.75 924.163 C 1600.52 891.176 1601.51 858.066 1601.09 825.077 C 1600.08 744.541 1602.81 663.402 1601.31 582.946 C 1568.97 563.646 1532.05 544.268 1498.9 525.764 C 1418.64 480.543 1337.96 436.097 1256.85 392.433 L 1101.38 307.369 C 1078.07 294.576 1046.26 275.567 1023.2 264.565 C 992.483 282.247 961.866 298.146 930.91 315.083 L 840.301 365.654 C 796.34 389.363 752.554 413.394 708.946 437.747 L 708.249 436.156 C 705.562 435.872 698.652 432.241 695.091 430.987 C 694.691 428.258 694.409 426.813 693.729 424.141 C 690.737 423.175 690.373 424.194 686.546 425.807 C 690.193 421.387 695.818 421.643 699.298 415.516 z" fill="rgb(245,184,122)" transform="translate(0,0)"></path>
<path d="M 1293.36 747.698 C 1298.94 744.847 1342.32 725.49 1345.79 725.428 C 1348.28 726.873 1347.48 725.796 1348.48 728.497 C 1346.69 738.523 1333.26 740.681 1324.99 746.166 C 1305.47 759.105 1290.86 777.218 1279.96 797.726 C 1285.36 794.13 1293.12 788.967 1299.26 786.707 C 1316.46 778.273 1332.73 771.677 1350.4 764.33 C 1346.75 767.322 1310.66 789.719 1305.89 791.641 C 1299.59 797.17 1292.03 801.52 1284.61 808.542 C 1269.99 822.378 1259.83 837.165 1248.26 853.355 C 1270.23 840.886 1281.09 836.917 1305.78 831.812 C 1267.59 855.905 1256.67 865.035 1223.82 896.443 C 1230.43 894.206 1237.1 892.132 1243.81 890.223 C 1264.8 884.28 1286.51 881.936 1308.24 881.001 C 1322.37 880.393 1331.41 880.997 1343.94 887.963 C 1344.45 899.116 1344.16 912.676 1344.17 923.983 L 1041.07 923.081 L 1040.41 861.056 C 1073.66 856.759 1086.47 851.954 1115.39 841.997 C 1142.76 832.57 1200.45 848.091 1228.04 858.538 C 1186.52 817.19 1174.27 790.602 1120.99 757.262 C 1121.74 756.477 1123.88 754.815 1124.82 754.038 C 1159.34 764.298 1179.4 771.99 1208.88 793.412 C 1200.98 774.244 1183.11 752.092 1169.64 736.017 C 1213.72 735.692 1257.8 735.708 1301.87 736.063 C 1298.87 739.963 1296.01 743.539 1293.36 747.698 z" fill="url(#Gradient5)" transform="translate(0,0)"></path>
<path d="M 1350.4 764.33 C 1346.75 767.322 1310.66 789.719 1305.89 791.641 L 1304.81 791.373 L 1304.51 790.685 C 1307.81 788.627 1312.86 786.298 1314.34 783.376 C 1309.07 782.223 1305.22 788.752 1299.26 786.707 C 1316.46 778.273 1332.73 771.677 1350.4 764.33 z" fill="rgb(232,213,183)" transform="translate(0,0)"></path>
<path d="M 773.399 795.949 C 761.122 773.587 746.521 758.296 723.605 746.832 C 717.361 743.708 704.869 738.601 699.556 734.25 C 698.805 733.635 699.412 732.759 699.791 731.519 C 709.722 728.344 742.94 743.707 753.2 748.8 L 744.303 735.769 C 763.632 734.548 787.866 735.219 807.732 735.261 C 829.795 735.307 857.036 734.795 878.624 736.887 C 866.624 751.112 852.429 772.596 842.865 788.851 C 863.848 773.42 891.049 762.711 916.196 756.407 C 919.134 758.115 920.248 757.423 922.853 758.603 C 877.99 786.844 848.952 822.521 813.724 860.556 C 845.42 849.868 897.001 832.385 929.33 842.464 C 960.407 852.152 973.227 857.799 1007.04 861.136 L 1006.97 923.774 L 704.94 923.45 L 704.299 886.568 C 738.439 879.77 790.405 881.877 821.475 898.272 C 789.818 862.992 782.858 852.359 739.143 828.28 C 760.096 833.551 780.916 837.156 797.614 851.321 C 778.863 825.482 764.221 798.888 734.942 785.405 C 724.192 780.455 710.309 775.352 700.511 770.055 L 699.488 769.489 C 725.001 771.234 752.705 780.79 773.399 795.949 z" fill="url(#Gradient4)" transform="translate(0,0)"></path>
<path d="M 467.845 605.089 C 468.813 602.989 470.224 601.639 472.265 600.564 C 510.899 580.225 548.341 557.33 586.723 536.617 C 583.335 549.693 562.07 590.46 555.601 605.802 L 642.002 605.795 C 655.469 605.773 673.79 605.133 686.94 605.809 C 685.594 617.127 683.464 640.46 678.439 650.114 C 668.739 668.75 658.95 679.056 652.517 700.627 C 664.801 694.58 676.852 690.1 690.454 687.857 C 673.98 706.24 654.959 707.773 640.393 733.329 C 629.002 733.155 617.61 733.099 606.219 733.161 C 584.705 734.769 549.721 733.825 527.238 733.888 L 468.95 733.997 L 468.685 653.997 C 468.615 638.958 468.907 619.82 467.845 605.089 z" fill="rgb(243,236,203)" transform="translate(0,0)"></path>
<path d="M 467.845 605.089 C 468.813 602.989 470.224 601.639 472.265 600.564 C 510.899 580.225 548.341 557.33 586.723 536.617 C 583.335 549.693 562.07 590.46 555.601 605.802 C 540.191 646.579 530.334 689.242 526.295 732.645 L 577.035 732.593 C 584.51 732.591 599.223 732.237 606.219 733.161 C 584.705 734.769 549.721 733.825 527.238 733.888 L 468.95 733.997 L 468.685 653.997 C 468.615 638.958 468.907 619.82 467.845 605.089 z" fill="rgb(232,213,183)" transform="translate(0,0)"></path>
<path d="M 467.845 605.089 C 468.813 602.989 470.224 601.639 472.265 600.564 C 510.899 580.225 548.341 557.33 586.723 536.617 C 583.335 549.693 562.07 590.46 555.601 605.802 C 526.688 605.103 496.55 606.283 467.845 605.089 z" fill="rgb(226,98,70)" transform="translate(0,0)"></path>
<path d="M 1028.61 574.477 C 1061.79 584.868 1102.97 599.434 1133.54 615.938 L 1128.31 606.021 C 1136.97 602.919 1309.29 604.854 1332.56 604.895 L 1352.29 604.957 L 1352.75 605.101 C 1351.25 614.322 1350.3 622.973 1349.28 632.235 C 1347.41 659.303 1338.81 668.144 1320.85 688.269 C 1316.1 693.587 1311.2 698.102 1307.29 704.12 C 1324.45 697.904 1335.2 693.809 1352.96 689.382 C 1333.52 706.113 1319.65 716.017 1301.87 736.063 C 1257.8 735.708 1213.72 735.692 1169.64 736.017 C 1144.66 707.033 1124.7 687.252 1091.11 667.281 C 1079.69 660.493 1060.52 651.791 1051.23 644.262 C 1060.86 646.642 1070.84 650.724 1080.29 653.634 C 1114.62 664.208 1138.01 674.808 1167.99 694.31 C 1161.77 686.982 1155.8 677.108 1149.64 669.208 C 1135.36 650.872 1119.98 634.813 1101.75 620.562 C 1080.56 603.995 1045.95 592.591 1028.61 574.477 z" fill="rgb(243,236,203)" transform="translate(0,0)"></path>
<path d="M 1332.56 604.895 L 1352.29 604.957 L 1352.75 605.101 C 1351.25 614.322 1350.3 622.973 1349.28 632.235 C 1346.39 629.155 1346.17 629.056 1345.23 625.071 C 1341.64 618.559 1338.57 613.429 1334.55 607.172 L 1332.56 604.895 z" fill="rgb(243,236,203)" transform="translate(0,0)"></path>
<path d="M 1334.55 607.172 L 1336.38 606.784 C 1341.82 610.403 1346.62 618.526 1345.23 625.071 C 1341.64 618.559 1338.57 613.429 1334.55 607.172 z" fill="rgb(175,209,169)" transform="translate(0,0)"></path>
<path d="M 1220.32 624.68 C 1221.68 626.892 1222.53 631.476 1223.09 634.087 C 1224.91 636.391 1229.77 637.369 1232.88 638.324 L 1232.84 639.106 L 1224.07 642.377 C 1223 646.324 1222.17 652.678 1219.59 654.932 C 1218.63 650.216 1217.65 646.262 1216.43 641.634 C 1212.77 640.864 1208.04 640.473 1205.69 638.219 C 1208.98 636.426 1212.96 636.639 1216.8 636.45 L 1220.32 624.68 z" fill="rgb(36,62,83)" transform="translate(0,0)"></path>
<path d="M 919.874 606.267 C 918.414 609.364 917.351 610.584 917.25 613.799 C 919.402 613.48 939.771 601.866 943.929 599.665 C 953.142 594.79 1003.89 573.913 1012.18 576.704 L 1012.67 578.242 C 1008.56 583.256 996.335 588.577 990.125 591.707 C 945.567 614.167 895.951 656.428 871.766 700.533 C 899.926 679.639 921.57 667.871 954.919 656.536 C 969.467 651.591 984.061 647.71 998.484 642.336 L 997.327 643.227 C 991.06 647.98 982.604 652.496 975.592 656.081 C 946.788 670.808 921.445 690.673 898.974 713.846 C 892.025 721.013 885.587 729.433 878.624 736.887 C 857.036 734.795 829.795 735.307 807.732 735.261 C 787.866 735.219 763.632 734.548 744.303 735.769 C 737.266 726.942 729.564 718.022 720.951 710.696 C 711.233 702.43 701.24 695.726 692.153 686.642 C 706.434 690.724 719.103 696.593 732.498 702.814 C 724.97 681.363 714.415 669.675 704.25 650.722 C 699.286 641.466 697.052 616.456 695.681 605.303 L 708.487 605.312 C 724.514 606.474 747.004 605.717 763.719 605.7 C 795.87 605.904 828.022 605.79 860.17 605.359 C 871.056 605.231 911.91 604.326 919.874 606.267 z" fill="rgb(243,236,203)" transform="translate(0,0)"></path>
<path d="M 797.141 660.555 C 800.054 662.369 799.826 662.286 801.539 665.305 C 801.872 669.209 801.354 669.623 799.398 672.953 C 795.524 672.127 794.995 671.487 793.722 668.057 C 794.16 664.153 794.838 663.661 797.141 660.555 z" fill="rgb(33,53,75)" transform="translate(0,0)"></path>
<path d="M 1365.08 722.763 C 1379.67 729.629 1403.13 739.009 1418.49 745.383 L 1412.63 736.021 L 1518.61 735.934 C 1536.97 735.925 1560.28 735.276 1578.19 736.342 C 1578.41 770.268 1578.46 804.196 1578.32 838.123 C 1552.05 838.112 1525.77 838.324 1499.49 838.759 C 1485.41 838.896 1467.84 838.47 1454.07 839.384 C 1427.05 802.378 1419.54 800.122 1383.77 777.547 C 1390.17 774.879 1391.66 779.614 1394.19 777.529 C 1406.4 782.213 1433.13 793.464 1443.36 800.36 C 1422.07 767.786 1403.97 753.343 1369.11 735.991 L 1365.08 722.763 z" fill="url(#Gradient3)" transform="translate(0,0)"></path>
<path d="M 633.036 745.575 C 641.32 742.023 676.209 731.434 683.243 733.363 C 679.845 737.09 669.175 741.044 664.369 743.681 C 635.969 759.262 621.663 769.826 607.837 798.375 C 632.058 778.496 653.127 773.569 683.702 768.049 C 641.282 790.94 624.114 788.939 597.926 834.988 C 575.102 834.8 552.066 836.33 529.58 835.892 L 469.715 836.121 C 469.711 830.416 469.857 824.849 469.237 819.179 C 468.533 791.592 469.026 761.766 468.95 733.997 L 527.238 733.888 C 549.721 733.825 584.705 734.769 606.219 733.161 C 617.61 733.099 629.002 733.155 640.393 733.329 L 633.036 745.575 z" fill="rgb(229,132,77)" transform="translate(0,0)"></path>
<path d="M 468.95 733.997 L 527.238 733.888 C 519.805 752.958 525.285 814.47 529.58 835.892 L 469.715 836.121 C 469.711 830.416 469.857 824.849 469.237 819.179 C 468.533 791.592 469.026 761.766 468.95 733.997 z" fill="rgb(226,98,70)" transform="translate(0,0)"></path>
<path d="M 699.298 415.516 C 695.818 421.643 690.193 421.387 686.546 425.807 C 690.373 424.194 690.737 423.175 693.729 424.141 C 694.409 426.813 694.691 428.258 695.091 430.987 C 698.652 432.241 705.562 435.872 708.249 436.156 L 708.946 437.747 C 705.298 440.445 689.105 448.922 684.473 451.463 L 631.263 480.584 C 607.312 493.696 584.034 507.207 560.245 520.495 C 521.646 542.056 481.882 562.542 443.938 585.178 L 443.784 923.133 L 421.246 923.074 L 421.108 567.997 C 513.552 517.497 606.627 464.761 699.298 415.516 z" fill="url(#Gradient2)" transform="translate(0,0)"></path>
<path d="M 1405.68 831.492 C 1428.9 837.648 1440.24 842.47 1462.13 851.61 L 1454.07 839.384 C 1467.84 838.47 1485.41 838.896 1499.49 838.759 C 1525.77 838.324 1552.05 838.112 1578.32 838.123 C 1578.52 865.801 1579.28 897.014 1578.34 924.58 L 1361.42 924.093 C 1361.22 912.578 1360.78 900.104 1360.88 888.665 C 1390.26 869.935 1449.92 889.87 1480.75 901.535 C 1456.03 864.644 1436.31 856.954 1405.68 831.492 z" fill="rgb(226,98,70)" transform="translate(0,0)"></path>
<path d="M 469.237 819.179 C 469.857 824.849 469.711 830.416 469.715 836.121 L 529.58 835.892 C 552.066 836.33 575.102 834.8 597.926 834.988 C 594.506 841.187 591.312 846.434 587.528 852.427 C 609.219 839.209 617.761 836.717 641.682 830.252 C 628.713 840.025 615.675 849.666 603.244 860.122 C 587.058 873.739 571.989 889.25 554.933 901.667 C 565.418 898.839 576.224 893.427 586.611 890.307 C 616.132 881.439 650.025 879.741 679.781 887.778 C 680.229 899.004 679.974 912.11 680.007 923.482 L 469.057 923.029 C 469.039 889.017 468.424 853.033 469.237 819.179 z" fill="url(#Gradient1)" transform="translate(0,0)"></path>
<path d="M 1363.88 764.929 C 1371.05 767.48 1387.42 774.001 1394.19 777.529 C 1391.66 779.614 1390.17 774.879 1383.77 777.547 C 1376.97 774.142 1370.21 769.248 1363.88 764.929 z" fill="rgb(232,213,183)" transform="translate(0,0)"></path>
<path d="M 916.196 756.407 C 921.859 754.726 927.554 753.156 933.278 751.698 C 930.269 753.806 926.002 757.055 922.853 758.603 C 920.248 757.423 919.134 758.115 916.196 756.407 z" fill="rgb(232,213,183)" transform="translate(0,0)"></path>
<path d="M 1108.51 749.922 C 1113.97 751.205 1119.41 752.577 1124.82 754.038 C 1123.88 754.815 1121.74 756.477 1120.99 757.262 C 1116.8 754.852 1112.64 752.405 1108.51 749.922 z" fill="rgb(232,213,183)" transform="translate(0,0)"></path>
<path d="M 168.143 1333.18 C 187.714 1332.52 211.487 1333.07 231.345 1333.07 L 360.141 1333.26 L 710.309 1332.74 L 1880.81 1332.35 L 1880.51 1361.96 L 1702.02 1361.95 L 1701.93 1436.78 C 1701.99 1529.51 1700.28 1522.78 1620.73 1566.37 C 1580.46 1588.64 1540.06 1610.68 1499.55 1632.49 L 1191.65 1801.78 C 1137.17 1831.87 1076.98 1862.53 1024.02 1894.41 C 1000.93 1878.23 963.098 1859.5 937.158 1844.96 C 870.215 1807.37 802.964 1770.33 735.412 1733.84 L 502.838 1604.85 C 466.949 1584.64 430.899 1564.71 394.692 1545.07 C 379.313 1536.56 361.673 1525.6 346.408 1517.81 C 346.642 1465.96 346.603 1414.1 346.291 1362.25 C 289.07 1362.31 224.759 1360.79 168.172 1362.6 L 168.143 1333.18 z" fill="rgb(33,53,75)" transform="translate(0,0)"></path>
<path d="M 1047.57 1361.97 L 1580.2 1361.85 C 1580.46 1389.71 1580.15 1418.06 1580.12 1445.96 C 1560.03 1456.49 1540.1 1467.34 1520.35 1478.49 C 1501.75 1489.52 1477.95 1501.14 1458.52 1511.29 L 1325.67 1579.7 C 1315.39 1585.01 1268.96 1611.36 1262.09 1612.29 L 1261.69 1611.22 L 1263.02 1608.5 L 1259.14 1606.39 L 1258.76 1604.8 C 1260.96 1604.21 1265.99 1603.93 1267.26 1603.1 L 1267 1601.88 C 1263.98 1601.42 1262.24 1601.27 1259.32 1600.21 L 1258.7 1598.48 C 1261.77 1593.4 1260.7 1597 1265.1 1592.89 L 1263.51 1592.38 C 1261.27 1591.63 1260.05 1591.03 1257.94 1590 L 1257.21 1587.99 C 1259.07 1586.15 1258.43 1586.63 1260.59 1585.38 C 1258.1 1580.07 1256.99 1587.5 1256.46 1580.81 L 1259.9 1577.83 L 1259.59 1576.48 L 1256.55 1576.38 C 1256.38 1572.24 1259.59 1575.82 1256.97 1572.35 L 1254.32 1571.66 C 1255.08 1569.71 1254.73 1570.58 1256.98 1569.04 C 1254.11 1564.03 1254.36 1550.82 1253.16 1549.9 C 1252.41 1551.49 1252.14 1552.91 1252.22 1554.66 C 1252.68 1564.57 1243.53 1573.31 1248.46 1581.4 C 1246.29 1582.24 1245.76 1582.24 1243.44 1582.61 C 1244.07 1585.14 1243.63 1583.94 1246.16 1586.1 C 1243.88 1588.48 1240.63 1591.09 1239.92 1593.85 C 1242.38 1595.22 1242.59 1594.85 1245.5 1594.51 L 1245.77 1595.88 C 1243.15 1597.82 1242.15 1598.39 1239.39 1599.94 L 1239.39 1601.62 L 1245.21 1605.59 L 1245.01 1606.76 C 1242.23 1607.4 1240.15 1607.87 1237.29 1608.29 L 1237.73 1609.47 L 1243.55 1611.59 L 1243.79 1612.64 C 1239.68 1613.76 1234.76 1613.69 1232.45 1615.85 L 1232.66 1618.05 C 1235.59 1620.26 1236.98 1619.69 1241.38 1619.46 L 1241.81 1621.31 C 1238.13 1626.82 1230.8 1631.39 1224.55 1633.29 C 1219.38 1631.85 1222.31 1629.45 1217.78 1627.69 C 1213.88 1626.18 1210.3 1627.61 1206.32 1625.22 L 1206.49 1624.23 C 1210.09 1624 1214.43 1624.09 1217.51 1622.54 L 1218.6 1620.46 C 1217.22 1619.52 1202.11 1616.48 1197.83 1615.13 C 1203.56 1614.56 1209.03 1614.29 1214.45 1612.3 C 1212.35 1611.2 1210.89 1611.44 1208.36 1611.27 L 1210.11 1608.46 C 1207.37 1606.65 1202.77 1606.14 1199.35 1605.43 C 1206.23 1602.91 1214.67 1600.05 1221.2 1597.05 C 1208.71 1597.68 1204.71 1598.18 1192.77 1594.67 C 1202.72 1591.96 1210.2 1590.16 1218.62 1583.82 C 1216.11 1582.97 1213.89 1582.2 1211.33 1581.48 C 1208.46 1581 1207.6 1580.69 1204.9 1579.8 L 1204.78 1578.98 C 1207.76 1578.03 1210.74 1577.05 1213.71 1576.06 L 1214.21 1574.76 C 1207.58 1570.35 1191.8 1570.13 1183.32 1569.39 C 1189.89 1568.22 1200.24 1566.84 1205.93 1564.22 C 1201.95 1562.37 1195.64 1564.41 1190.8 1561.01 L 1193.86 1560.75 C 1199.09 1559.87 1206.53 1560.68 1210.53 1559.29 C 1209.82 1552.98 1200.36 1555.68 1196.39 1552.34 L 1199.34 1549.28 L 1198.51 1550.17 C 1195.47 1547.51 1190.82 1549.84 1184.68 1548.53 L 1184.23 1547.1 C 1189.85 1544.31 1201.8 1548.48 1206.39 1543.14 C 1203.22 1536.19 1201.28 1541.99 1194.18 1539.25 C 1196.78 1538.91 1198.48 1538.97 1200.56 1537.4 L 1199.91 1535.97 C 1194.28 1535.28 1190.24 1538.95 1183.26 1538.84 L 1182.23 1537.42 C 1188.81 1535.17 1201.14 1533.5 1201.64 1525.61 C 1196.08 1520.05 1187.6 1527.73 1180.49 1524.29 L 1180.57 1522.82 C 1185.63 1518.9 1190.08 1519.66 1193.67 1516.52 L 1189.88 1514.11 C 1191.81 1511.22 1193.53 1513.9 1197.14 1510.86 C 1194.54 1507.94 1194.12 1510.42 1189.4 1507.4 L 1191.39 1504.01 C 1187.51 1501.43 1183.13 1506.24 1179.04 1502.45 C 1180.12 1499.83 1187.27 1497.02 1190.26 1495.58 L 1190.91 1493.58 C 1189.62 1490.05 1189.8 1490.25 1186.96 1487.81 L 1185.07 1487.99 L 1185.79 1490.43 C 1183.28 1491.36 1179.61 1491.11 1177.32 1489.66 C 1179.17 1485.99 1180.98 1489.89 1183.85 1486.53 C 1181.7 1484.9 1181.76 1485.15 1179.13 1484.41 L 1179.99 1482.61 C 1183.83 1481.26 1188.4 1478.96 1192.16 1477.2 L 1174.32 1476.49 L 1180.69 1469.61 L 1180.29 1467.41 L 1182.4 1466.53 C 1179.9 1467.11 1179.76 1467.36 1177.5 1468.67 L 1175.07 1468 C 1172.66 1468.12 1171.4 1468.46 1169.07 1468.93 C 1166.33 1470.04 1164.81 1469.74 1161.97 1469.53 L 1160.97 1470.18 C 1162.98 1471.59 1164.7 1472.85 1166.65 1474.36 L 1165.89 1475.39 L 1161.83 1474.13 C 1162.19 1475.96 1163.39 1476.3 1164.61 1478.28 C 1160.23 1480.12 1156.68 1476.65 1153.87 1478.54 C 1155.4 1483.61 1162.25 1481.78 1165.56 1486.56 C 1163.73 1486.95 1162.53 1487.17 1160.68 1487.4 C 1161.39 1489.38 1162.77 1489.78 1164.85 1491.3 C 1160.77 1492.35 1156.82 1490.28 1151.45 1491.18 L 1150.62 1492.13 C 1152.62 1496.19 1161.28 1503.36 1165.18 1506.01 C 1159.6 1505.65 1154.17 1504.49 1149.43 1506.8 C 1146.91 1511.84 1154.91 1517.13 1158.74 1520.55 L 1158.15 1521.71 C 1153.21 1521.22 1147.68 1518.96 1144.26 1520.02 L 1143.85 1521.36 C 1147.83 1523.95 1153.44 1525.09 1155.2 1527.28 C 1149.76 1530.81 1144.74 1527.46 1140.97 1530.11 C 1142.3 1532.2 1143.41 1532.83 1145.35 1534.38 C 1142.95 1534.73 1141.26 1534.68 1138.83 1534.7 L 1138.52 1535.67 C 1143.73 1539.51 1152.8 1541.13 1154.53 1544.36 L 1152.26 1544.72 C 1148.3 1550.74 1137.53 1552.86 1130.76 1553.36 L 1130.21 1554.5 C 1131.7 1555.76 1145.58 1556.93 1151.59 1558.64 C 1146.94 1558.64 1142.3 1558.79 1137.66 1559.08 L 1137.39 1560.05 C 1140.8 1562.31 1143.87 1564.15 1147.4 1566.22 L 1147.6 1567.48 C 1140.32 1569.01 1120.33 1568.51 1113.11 1566.52 L 1112.66 1565.13 L 1115.99 1562.09 C 1114.73 1559.52 1113.66 1563.73 1109.43 1561.26 C 1108.87 1557.97 1108.47 1559.15 1109.45 1556.6 C 1115.86 1559.6 1116.47 1558.06 1124.13 1555.57 L 1115.5 1552.08 C 1115.13 1548.43 1118.85 1549.93 1120.76 1544.56 C 1115.73 1540.92 1105.33 1544.88 1103.45 1538.97 C 1106.55 1537.26 1115.93 1539.58 1116.62 1532.54 C 1111.52 1530.61 1104.75 1533.21 1100.37 1530.03 L 1100.9 1529.04 C 1105.89 1528.53 1112.49 1528.54 1115.4 1523.83 C 1113.27 1522.49 1097.17 1521.66 1093.34 1521.31 C 1097.81 1519.32 1105.08 1516.95 1109.92 1515.1 L 1109.72 1514.54 C 1104.77 1514.99 1101.97 1515.39 1096.97 1514.91 L 1096.6 1513.94 C 1100.63 1509.9 1109.37 1512.03 1111.93 1507.98 L 1110.61 1506.54 C 1105.03 1505.05 1099.3 1505.51 1093.45 1505.57 L 1093.18 1504.62 L 1095.94 1503.87 L 1095.9 1502.58 L 1093.23 1501.66 L 1092.97 1500.61 C 1095.36 1498.24 1100.48 1498.95 1105.6 1497.03 C 1107.66 1491.03 1097.2 1489.51 1093.04 1488.78 L 1092.58 1487.97 C 1094.83 1484.96 1096.29 1483.27 1098.83 1480.5 L 1098.34 1478.97 L 1093.46 1476.81 L 1092.71 1473.72 C 1095.64 1472.27 1097.07 1471.52 1099.79 1469.73 L 1100.06 1468.38 C 1096.73 1468.23 1096.19 1468.25 1092.83 1467.45 C 1092.15 1464.37 1096.54 1465.87 1098.74 1461.7 C 1095.81 1460.59 1094.31 1461.53 1090.67 1462.18 L 1087.88 1463.37 L 1086.75 1462.45 C 1086.61 1458.35 1086.94 1457.86 1088.22 1453.8 L 1088.6 1452.64 C 1086.55 1450.64 1086.87 1450.11 1085.52 1447.6 L 1084.58 1449.31 L 1084.84 1450.6 L 1083.02 1451.91 L 1079.94 1452.5 C 1081.19 1454.61 1081.58 1455.36 1082.09 1457.76 C 1080.08 1462.89 1078.71 1462.2 1073.5 1464.03 L 1073.56 1464.96 L 1080.14 1466.86 C 1081.31 1469.49 1080.99 1468.05 1079.94 1471.57 C 1077.64 1472.79 1077.54 1472.59 1074.88 1472.75 L 1074.34 1473.9 L 1078.97 1477.86 L 1078.8 1479.35 L 1072.8 1482.37 C 1064.03 1485.64 1056.04 1490.65 1047.98 1495.44 L 1047.57 1361.97 z" fill="rgb(21,154,128)" transform="translate(0,0)"></path>
<path d="M 1047.57 1361.97 L 1580.2 1361.85 C 1580.46 1389.71 1580.15 1418.06 1580.12 1445.96 C 1560.03 1456.49 1540.1 1467.34 1520.35 1478.49 C 1485.08 1458.51 1444.02 1439.83 1407.98 1420.7 C 1383.62 1407.77 1359.3 1395.42 1334.38 1383.6 C 1325.19 1379.24 1310.16 1370.4 1301.14 1368 L 1212.96 1415.24 C 1204.93 1419.47 1181.44 1432.71 1174.52 1434.02 L 1173.53 1430.02 C 1172.78 1431.48 1170.63 1436 1169.34 1436.54 C 1155.82 1442.17 1103.59 1474.58 1092.71 1473.72 C 1095.64 1472.27 1097.07 1471.52 1099.79 1469.73 L 1100.06 1468.38 C 1096.73 1468.23 1096.19 1468.25 1092.83 1467.45 C 1092.15 1464.37 1096.54 1465.87 1098.74 1461.7 C 1095.81 1460.59 1094.31 1461.53 1090.67 1462.18 L 1087.88 1463.37 L 1086.75 1462.45 C 1086.61 1458.35 1086.94 1457.86 1088.22 1453.8 L 1088.6 1452.64 C 1086.55 1450.64 1086.87 1450.11 1085.52 1447.6 L 1084.58 1449.31 L 1084.84 1450.6 L 1083.02 1451.91 L 1079.94 1452.5 C 1081.19 1454.61 1081.58 1455.36 1082.09 1457.76 C 1080.08 1462.89 1078.71 1462.2 1073.5 1464.03 L 1073.56 1464.96 L 1080.14 1466.86 C 1081.31 1469.49 1080.99 1468.05 1079.94 1471.57 C 1077.64 1472.79 1077.54 1472.59 1074.88 1472.75 L 1074.34 1473.9 L 1078.97 1477.86 L 1078.8 1479.35 L 1072.8 1482.37 C 1064.03 1485.64 1056.04 1490.65 1047.98 1495.44 L 1047.57 1361.97 z" fill="rgb(103,200,159)" transform="translate(0,0)"></path>
<path d="M 1083.02 1451.91 C 1083.7 1449.33 1083.34 1450.3 1083.21 1448.44 C 1082.92 1444.46 1084.81 1438.01 1085.77 1434.03 L 1086.98 1433.55 C 1090.98 1440.41 1090.79 1447.85 1090.68 1455.61 C 1092.92 1455.75 1092.82 1455.75 1094.95 1455.59 C 1092.11 1460.02 1088.54 1457.46 1088.58 1460.95 L 1090.67 1462.18 L 1087.88 1463.37 L 1086.75 1462.45 C 1086.61 1458.35 1086.94 1457.86 1088.22 1453.8 L 1088.6 1452.64 C 1086.55 1450.64 1086.87 1450.11 1085.52 1447.6 L 1084.58 1449.31 L 1084.84 1450.6 L 1083.02 1451.91 z" fill="rgb(36,62,83)" transform="translate(0,0)"></path>
<path d="M 1169.07 1468.93 L 1162.43 1462.48 L 1163.21 1461.15 C 1165.35 1461.31 1165.46 1461.29 1167.58 1461.74 C 1167.15 1458.46 1166.41 1457.39 1167.47 1454.94 C 1169.19 1450.99 1169.61 1443.3 1170.52 1438.79 C 1171.64 1441.31 1173.37 1445.01 1174.19 1448.08 C 1175.16 1451.68 1176.16 1458.84 1176.97 1462.92 C 1178.02 1463.48 1179.06 1464.04 1180.1 1464.6 C 1179.04 1465.3 1175.86 1467.3 1175.07 1468 C 1172.66 1468.12 1171.4 1468.46 1169.07 1468.93 z" fill="rgb(42,49,84)" transform="translate(0,0)"></path>
<path d="M 1130.76 1553.36 C 1135.54 1550.31 1141.05 1550.52 1144.95 1547.4 C 1139.66 1546.61 1138.17 1545.88 1132.43 1545.49 L 1132.02 1544.81 C 1140.29 1542.04 1143.58 1543.33 1152.26 1544.72 C 1148.3 1550.74 1137.53 1552.86 1130.76 1553.36 z" fill="rgb(42,49,84)" transform="translate(0,0)"></path>
<path d="M 1205.93 1564.22 C 1201.95 1562.37 1195.64 1564.41 1190.8 1561.01 L 1193.86 1560.75 C 1196.3 1560.8 1206.35 1560.68 1207.71 1561.51 L 1205.91 1562.51 L 1205.93 1564.22 z" fill="rgb(20,148,127)" transform="translate(0,0)"></path>
<path d="M 1262.05 1418.36 C 1267.7 1421.36 1263.5 1423.7 1267.14 1426.53 C 1269.44 1424.06 1270.22 1422.5 1273.11 1421.47 C 1274.57 1426.83 1275.75 1425.83 1280.81 1426.84 L 1271.31 1431.86 C 1273.43 1433.76 1277.29 1436.61 1278.05 1438.87 L 1271.03 1437.93 L 1269.63 1439.37 C 1268.17 1442.36 1268.22 1443.56 1265.87 1445.11 C 1263.45 1442.95 1263.07 1440.66 1261.73 1437.38 C 1258.47 1438.61 1257.73 1438.77 1254.46 1439.46 L 1254.37 1438.18 L 1254.5 1439.3 L 1255.71 1439.11 L 1255.4 1436.7 L 1259.69 1432.74 C 1254.61 1429.6 1251.59 1427.43 1246.88 1423.85 C 1251.12 1424.91 1257.08 1428.02 1260.35 1427.19 C 1262.55 1424.09 1261.8 1422.95 1262.05 1418.36 z" fill="rgb(253,253,253)" transform="translate(0,0)"></path>
<path d="M 1312.55 1454.73 C 1314.58 1456.42 1314.51 1457.46 1315.06 1460.06 L 1315.24 1460.97 L 1316.49 1461.61 C 1317.94 1460.91 1319.4 1460.23 1320.86 1459.55 L 1319.68 1460.16 L 1320.19 1461.89 L 1319.09 1463.54 C 1320.61 1466.59 1324.42 1464.71 1326.54 1467.15 C 1323.48 1467.67 1323.53 1467.54 1320.86 1469.05 C 1320.05 1472.36 1320.42 1471.5 1322.09 1475.41 C 1318.14 1474.23 1320.05 1474.27 1316.16 1475.08 C 1314.6 1477.03 1314.98 1477.04 1313 1478.23 L 1313.48 1475.85 C 1312.46 1473.47 1313.07 1474.21 1311.19 1472.56 C 1307.52 1473.7 1303.11 1477.74 1299.02 1480.3 C 1301.7 1476.47 1304.74 1472.58 1307.57 1468.83 C 1303.14 1467.32 1301.78 1466.96 1297.83 1464.62 C 1300.01 1463.47 1301.91 1464.94 1306.11 1464.56 C 1304.65 1462.42 1304.31 1462.28 1303.72 1459.81 L 1305.48 1459.53 C 1307.35 1461.27 1307.71 1461.65 1309.85 1463.01 C 1311.85 1460.72 1311.79 1458.18 1312.55 1454.73 z" fill="rgb(253,253,253)" transform="translate(0,0)"></path>
<path d="M 1396.37 1455.48 L 1399.42 1458.49 C 1402.56 1458.22 1402.56 1458.6 1405.44 1460.14 L 1405.52 1463.66 L 1406.33 1462.67 C 1404.17 1465.06 1404.31 1464.39 1403.15 1467.16 L 1405.53 1471.24 L 1404.45 1472.24 L 1402.79 1471.22 L 1401.24 1471.27 C 1400.87 1471.84 1400.51 1472.4 1400.14 1472.96 C 1398.3 1476.05 1398.17 1469.98 1395.76 1470.87 C 1393.59 1471.67 1393.18 1473.02 1391.1 1472.54 C 1391.55 1471.69 1391.99 1470.83 1392.41 1469.96 C 1395.82 1462.84 1391.81 1467.84 1389.91 1462.56 C 1394.53 1458.15 1390.96 1463.7 1396.47 1460.76 L 1396.37 1455.48 z" fill="rgb(253,253,253)" transform="translate(0,0)"></path>
<path d="M 1286.45 1524.74 C 1287.81 1532.74 1287.02 1527.98 1293.24 1533.35 C 1290.59 1534.1 1290.43 1534.03 1288.14 1535.47 L 1289.14 1540.19 L 1288.91 1540.35 C 1286.79 1538.77 1287 1538.38 1284.45 1537.74 L 1280.68 1540.64 L 1279.88 1540.01 C 1280.64 1538 1280.75 1537.69 1281.11 1535.58 C 1277.65 1534.31 1278.54 1535.36 1276.79 1533.01 C 1278.59 1531.78 1278.76 1531.93 1280.91 1531.43 L 1279.85 1528.02 L 1280.71 1527.38 L 1283.09 1529.56 L 1284.34 1529.21 L 1286.45 1524.74 z" fill="rgb(253,253,253)" transform="translate(0,0)"></path>
<path d="M 749.354 1361.74 C 751.507 1361.77 754.999 1361.69 757.02 1361.92 C 801.216 1361.64 845.414 1361.63 889.61 1361.9 C 927.249 1361.91 966.469 1361.24 1003.86 1361.89 L 1003.78 1440.99 C 1004.44 1465.62 1003.4 1491.71 1003.18 1516.51 C 1003.09 1526.54 1003.32 1556.31 1001.33 1565.2 C 997.646 1567.26 997.742 1567.11 993.486 1567.72 L 993.03 1566.96 C 995.344 1565.44 996.813 1564.61 998.907 1562.77 C 996.299 1558.9 984.845 1560.31 979.893 1557.51 C 984.526 1555.74 989.123 1555.01 992.932 1552.31 L 993.341 1551.32 C 989.734 1548.56 979.392 1550.25 973.77 1550.27 C 980.537 1548.1 990.724 1547.42 993.737 1540.99 L 992.698 1539.45 C 988.292 1540.11 980.669 1542.46 977.149 1541.77 L 976.439 1540.3 C 980.33 1537.02 984.734 1538.37 987.609 1534.92 L 987.099 1533.8 C 983.073 1533.59 977.194 1534.53 975.396 1533 C 980.105 1528.96 986.062 1528.74 988.797 1525.02 C 984.792 1522.66 977.407 1525.31 973.495 1522.86 L 974.642 1522.13 C 975.916 1521.29 976.672 1520.75 977.856 1519.83 C 976.562 1517.8 976.483 1517.75 974.737 1516.08 C 978.67 1513.45 978.917 1517.11 983.288 1513.41 L 983.191 1511.8 C 978.344 1510.82 976.491 1512.53 972.851 1511.98 C 973.399 1507.62 972.703 1507.97 974.96 1504.9 L 978.61 1504.25 C 976.449 1503.02 974.258 1501.83 972.041 1500.7 L 972.1 1499.49 C 974.009 1499.22 975.611 1499 977.373 1498.19 L 977.137 1496.79 C 974.58 1496.34 972.019 1495.91 969.457 1495.49 L 968.694 1493.99 C 970.151 1492.23 970.507 1492 972.307 1490.55 L 972.034 1489 L 968.211 1487.6 C 967.846 1484.88 968.388 1484.61 969.658 1482.03 C 968.163 1477.57 966.614 1473.09 965.276 1468.57 L 963.943 1468.6 C 962.221 1471.74 962.794 1474.32 962.971 1477.99 L 962.231 1479.4 L 958.579 1479.81 C 959.85 1482.91 962.072 1484.02 962.14 1487.16 C 959.753 1488.37 960.037 1488.21 957.478 1488.97 C 957.633 1493.19 960.262 1493.38 959.888 1499.05 C 957.827 1500.72 955.094 1500.52 952.289 1500.75 L 952.455 1502.52 C 955.368 1503.43 956.185 1503.36 959.19 1503.58 L 959.695 1504.82 C 957.491 1506.1 958.171 1505.81 955.847 1506.5 C 957.032 1507.48 959.407 1509.08 959.811 1510.24 C 955.281 1512.15 952.654 1508.92 947.195 1510.67 C 947.79 1516.66 954.841 1515.68 958.006 1519.29 L 956.514 1520.63 L 958.921 1523.07 L 958.115 1523.99 L 947.948 1522.18 L 946.908 1522.98 L 950.228 1526.97 C 946.093 1528.89 945.396 1524.63 941.389 1527.4 C 944.281 1531.23 954.443 1531.21 958.387 1535.34 L 958.161 1536.75 C 952.5 1541.88 950.437 1539.53 949.846 1541.65 L 951.9 1543.13 C 950.488 1544.84 951.422 1544.24 948.94 1544.65 C 953.502 1546.35 958.195 1547.63 962.585 1549.46 C 951.719 1548.44 942.312 1546.97 931.795 1550.82 C 940.492 1553.73 951.363 1556.31 959.282 1559.54 C 954.137 1559.45 947.807 1559.13 942.779 1559.61 L 941.697 1560.88 L 941.772 1559.7 L 939.92 1560.37 C 947.196 1563.22 951.064 1563.39 958.044 1565.45 C 951.891 1565.66 937.473 1566.89 932.273 1569.59 C 933.988 1573.77 944.071 1574.02 948.338 1578 C 947.801 1579.67 948.289 1579.04 947 1579.97 L 945.286 1581.12 L 945.935 1582.07 L 945.408 1583.92 C 941.995 1584.04 936.964 1581.35 933.602 1579.88 C 932.983 1580.41 932.672 1581.2 932.226 1581.99 C 934.97 1585.9 939.658 1585.9 944.311 1590.42 L 944.278 1592.01 L 943.042 1592.84 C 939.796 1590.41 939.12 1589.2 935.384 1590.34 L 938.718 1593.09 L 937.949 1593.8 C 932.684 1592.49 931.058 1591.53 925.882 1593.61 C 926.163 1591.95 926.03 1592.53 926.404 1591.04 L 926.654 1590.08 C 922.357 1586.66 914.335 1592.71 908.969 1588.93 L 909.518 1587.9 L 913.044 1587.72 L 913.788 1586.61 C 909.281 1585.21 908.2 1588.36 902.707 1585.59 L 902.872 1584.31 C 907.972 1583.65 923.194 1579.76 925.579 1575.1 L 924.485 1574.17 C 920.01 1574.21 905.789 1575.33 902.3 1574.87 L 902.932 1573.79 C 908.783 1573.51 922.576 1568.61 925.794 1563.65 C 922.231 1559.08 913.655 1564.64 907.401 1561.26 C 908.592 1558.07 907.94 1558 907.294 1554.07 C 911.31 1550.96 915.119 1552.4 918.412 1549.62 C 916.096 1547.52 916.199 1548.1 912.773 1547.31 C 908.295 1547.78 901.514 1548.94 898.028 1546.15 C 900.656 1543.96 906.312 1542.98 909.876 1542.08 C 911.951 1540.29 914.37 1538.79 916.658 1537.24 L 916.416 1536.31 C 913.225 1536.83 909.992 1537.07 906.759 1537 C 901.742 1536.95 892.969 1537.64 889.729 1534.35 C 890.954 1533.29 892.174 1532.39 893.513 1531.49 C 891.656 1530.04 892.004 1530.64 890.864 1528.75 L 893.837 1527.95 L 895.761 1526.32 L 894.995 1523.74 L 899.038 1522.34 C 895.199 1522.23 890.801 1522.45 887.595 1520.41 C 888.976 1517.74 888.061 1518.97 892.051 1517.54 C 894.98 1512.49 900.327 1515.68 906.142 1511.68 L 905.929 1510.5 C 898.589 1507.83 889.491 1508.6 884.435 1506.16 L 884.803 1504.69 C 889.159 1503.17 898.632 1500.59 900.864 1496.88 C 898.785 1494.61 886.24 1492.99 880.007 1490.94 C 884.575 1488.88 889.203 1487.35 892.503 1483.76 L 892.483 1482.02 C 889.023 1479.51 885.736 1480.06 881.275 1479.95 L 890.542 1471.27 L 889.025 1471.34 C 884.961 1471.5 883.265 1471.97 879.77 1470.1 C 875.648 1463.38 884.732 1462.27 884.146 1456.52 L 882.731 1455.81 C 880.179 1457.07 879.639 1457.34 877.354 1459.01 C 875.263 1455.03 877.173 1453.01 879.234 1449.31 C 875.556 1440.46 874.512 1438.41 873.341 1428.81 L 872.371 1428.22 C 869.713 1434.84 871.392 1439.17 869.902 1446.02 C 869.889 1446.08 866.582 1447.72 866.436 1447.79 C 867.112 1450.51 867.907 1450.57 870.135 1452.92 L 869.536 1453.85 L 864.74 1454.35 C 865.829 1457.23 865.519 1456.25 868.122 1458.6 C 868.865 1461.25 868.95 1460.33 868.59 1462.84 C 866.934 1462.53 865.272 1462.25 863.605 1462 L 863.426 1463.58 L 867.698 1466.96 L 867.41 1468.52 C 863.593 1469.39 860.006 1468.98 858.688 1471.01 C 860.402 1474.7 865.741 1477.66 869.328 1480.09 C 865.074 1479.96 855.913 1479.11 852.664 1480.66 L 852.658 1480.62 C 854.48 1481.85 856.293 1482.98 858.261 1483.96 L 857.505 1487.86 C 859.254 1489.75 863.884 1487.92 868.613 1490.11 L 868.184 1491.8 C 861.029 1495.51 851.666 1492.19 848.099 1495.1 C 850.2 1498.75 853.712 1497.19 853.689 1498.06 C 853.552 1503.45 858.665 1502.03 865 1503.87 L 865.117 1505.72 C 854.682 1509.18 848.357 1507.83 838.08 1508.52 C 843.047 1510.63 860.991 1516.71 863.045 1518.43 C 858.936 1521.4 845.865 1518.75 840.677 1520.92 L 840.67 1522.4 C 849.917 1529.63 854.604 1525.16 860.286 1528.87 L 859.736 1530.33 C 857.758 1531.01 857.114 1531.29 855.072 1531.71 L 854.347 1534.11 L 856.987 1535.77 L 856.682 1537.11 C 851.194 1538.61 837.444 1539.6 831.217 1540.02 L 831.115 1541.32 C 834.768 1544.38 842.086 1544.29 846.883 1544.5 C 844.92 1545.51 844.34 1545.66 842.214 1546.31 C 842.749 1548.26 842.239 1547.33 843.997 1548.94 L 842.956 1549.59 C 838.941 1548.62 829.327 1549.06 825.994 1551.53 L 823.855 1554.36 L 825.035 1556.34 C 826.537 1556.62 838.241 1558.28 838.906 1558.13 L 840.649 1556.6 C 844.88 1556.87 850.629 1556.45 854.018 1557.94 L 853.646 1559.17 C 848.466 1561.81 844.586 1561.8 838.784 1562.32 L 843.589 1565.49 L 843.325 1566.61 C 838.023 1567.24 826.601 1567.87 823 1571.3 C 827.494 1575.45 841.655 1574.74 847.891 1574.51 C 839.308 1576.61 829.28 1579.34 820.73 1581.05 C 827.064 1582.43 833.35 1584.02 839.787 1584.66 L 839.842 1585.18 C 837.099 1585.06 824.792 1584.15 823.486 1585.24 C 830.935 1588.62 840.426 1589.93 848.487 1590.97 C 834.732 1594.45 827.322 1592.64 814.28 1598.54 C 823.784 1601.9 825.036 1599.11 836.191 1605.87 L 837.116 1606.42 L 837.791 1607.51 C 830.134 1612.18 814.716 1614.95 813.257 1619.19 C 815.664 1620.55 831.748 1624.85 835.59 1626.03 C 830.478 1625.57 822.448 1624.7 817.518 1624.87 L 814.264 1626.19 C 810.166 1624.37 804.064 1620.5 803.861 1615.75 L 807.346 1612.1 C 806.889 1608.87 803.954 1611.6 801.692 1608.06 L 806.179 1605.19 L 805.726 1604.15 C 802.354 1603.94 801.627 1603.92 798.22 1603.13 C 799.345 1601.27 803.862 1599.98 806.373 1598.95 C 804.307 1596.59 801.332 1598.72 796.443 1595.88 C 797.679 1591.94 801.12 1594.86 803.942 1589.44 L 803.089 1587.82 C 800.828 1587.47 798.815 1587.1 796.57 1586.65 L 796.178 1585.02 C 799.368 1582.86 801.491 1584.9 806.648 1582.67 L 806.661 1580.94 C 802.648 1576.68 796.967 1580.61 795.232 1574.34 C 799.682 1571 800.709 1574.66 805.606 1571.7 C 804.157 1569.58 799.129 1567.28 796.56 1565.85 L 796.299 1564.56 L 800.51 1561.45 L 800.5 1560.03 C 797.529 1560.11 798.518 1560.37 795.847 1559.43 L 796.882 1557.69 L 797.911 1556.01 L 794.647 1555.84 L 794.084 1554.89 L 796.831 1552.94 L 796.989 1551.42 C 794.755 1550.89 795.864 1551.18 793.664 1550.56 C 793.073 1540.76 792.156 1537.71 789.415 1528.14 L 788.474 1527.93 C 786.921 1531.05 787.325 1537.26 786.59 1541.87 C 784.263 1543.12 784.972 1542.49 783.269 1544.44 C 785.201 1547 784.823 1545.89 785.438 1548.83 L 782.325 1549.41 L 781.439 1550.74 C 783.602 1552.65 783.977 1552.92 785.688 1555.19 L 784.961 1556.73 L 779.645 1557.42 L 779.444 1559.11 C 783.173 1562.81 784.909 1565.16 783.434 1570.74 C 780.081 1570.1 776.999 1568.88 774.339 1570.03 L 774.861 1571.96 C 777.287 1573.22 779.719 1574.47 782.158 1575.7 L 782.551 1577.51 L 780.926 1579.68 C 778.361 1579.71 777.533 1579.81 774.992 1580.21 L 774.913 1581.42 C 777.423 1583.06 778.806 1583.8 780.907 1586.02 C 776.887 1588.52 775.448 1584.62 771.755 1587.55 C 773.397 1590.03 776.153 1589.1 780.591 1590.83 L 779.971 1591.93 L 771.38 1592.54 L 770.467 1593.7 C 773.987 1596.5 776.354 1591.99 780.604 1593.91 C 778.395 1596.45 779.621 1595.33 775.702 1596.43 C 777.784 1597.29 777.738 1597.29 779.502 1598.71 L 779.267 1599.52 C 776.303 1600.35 777.252 1599.8 774.845 1601.56 C 775.006 1603.88 775.123 1602.87 774.729 1604.62 C 763.472 1600 733.907 1582.83 721.999 1576.21 L 636.064 1528.62 C 602.733 1509.8 564.908 1492.08 532.271 1472.76 C 512.333 1462.65 491.285 1450.71 471.531 1439.93 C 470.716 1415.15 471.277 1386.99 471.193 1361.94 L 749.354 1361.74 z" fill="rgb(21,154,128)" transform="translate(0,0)"></path>
<path d="M 471.193 1361.94 L 749.354 1361.74 C 739.28 1369.01 710.789 1381.88 698.674 1387.96 L 579.481 1447.59 C 568.883 1452.89 540.184 1466.7 532.271 1472.76 C 512.333 1462.65 491.285 1450.71 471.531 1439.93 C 470.716 1415.15 471.277 1386.99 471.193 1361.94 z" fill="rgb(103,200,159)" transform="translate(0,0)"></path>
<path d="M 757.02 1361.92 C 801.216 1361.64 845.414 1361.63 889.61 1361.9 C 927.249 1361.91 966.469 1361.24 1003.86 1361.89 L 1003.78 1440.99 C 1002.89 1454.2 1003.22 1470.85 1003.16 1484.35 C 961.532 1462.81 918.864 1443.41 877.342 1421.65 C 864.453 1414.9 850.996 1408.6 837.899 1402.22 L 789.743 1378.92 C 780.397 1374.41 765.381 1367.51 757.02 1361.92 z" fill="rgb(103,200,159)" transform="translate(0,0)"></path>
<path d="M 837.116 1606.42 C 832.967 1607.62 814.367 1605.45 812.517 1600.21 L 814.28 1598.54 C 823.784 1601.9 825.036 1599.11 836.191 1605.87 L 837.116 1606.42 z" fill="rgb(40,89,107)" transform="translate(0,0)"></path>
<path d="M 909.876 1542.08 L 916.282 1541.1 L 917.36 1541.97 C 915.453 1544.71 915.059 1545.05 912.773 1547.31 C 908.295 1547.78 901.514 1548.94 898.028 1546.15 C 900.656 1543.96 906.312 1542.98 909.876 1542.08 z" fill="rgb(20,148,127)" transform="translate(0,0)"></path>
<path d="M 948.94 1544.65 C 945.157 1543.41 941.555 1542.72 939.352 1539.91 C 941.275 1537.81 943.191 1537.86 946.123 1537.27 L 947.422 1537.02 L 947.085 1536.74 C 949.725 1535.83 953.609 1537.12 957.293 1536.83 L 958.161 1536.75 C 952.5 1541.88 950.437 1539.53 949.846 1541.65 L 951.9 1543.13 C 950.488 1544.84 951.422 1544.24 948.94 1544.65 z" fill="rgb(42,49,84)" transform="translate(0,0)"></path>
<path d="M 899.038 1522.34 L 903.064 1522.14 C 906.349 1524.31 907.896 1521.84 911.875 1524.09 C 907.808 1530.01 900.15 1528.38 893.837 1527.95 L 895.761 1526.32 L 894.995 1523.74 L 899.038 1522.34 z" fill="rgb(36,62,83)" transform="translate(0,0)"></path>
<path d="M 838.906 1558.13 L 840.649 1556.6 C 844.88 1556.87 850.629 1556.45 854.018 1557.94 L 853.646 1559.17 C 848.466 1561.81 844.586 1561.8 838.784 1562.32 C 837.056 1564.07 836.794 1564.24 834.743 1565.63 C 834.767 1563.92 837.744 1559.95 838.906 1558.13 z" fill="rgb(20,148,127)" transform="translate(0,0)"></path>
<path d="M 892.051 1517.54 C 895.955 1517.54 898.698 1517.05 901.883 1519.13 C 902.774 1520.8 902.699 1520.34 903.064 1522.14 L 899.038 1522.34 C 895.199 1522.23 890.801 1522.45 887.595 1520.41 C 888.976 1517.74 888.061 1518.97 892.051 1517.54 z" fill="rgb(20,148,127)" transform="translate(0,0)"></path>
<path d="M 933.602 1579.88 C 938.668 1576.38 941.297 1577.29 947 1579.97 L 945.286 1581.12 L 945.935 1582.07 L 945.408 1583.92 C 941.995 1584.04 936.964 1581.35 933.602 1579.88 z" fill="rgb(36,62,83)" transform="translate(0,0)"></path>
<path d="M 833.61 1526.58 C 841.86 1527.68 847.325 1528.79 855.072 1531.71 L 854.347 1534.11 C 846.155 1532.07 841.084 1530.38 833.61 1526.58 z" fill="rgb(42,49,84)" transform="translate(0,0)"></path>
<path d="M 736.138 1489.7 C 738.119 1491.74 738.394 1493.73 739.439 1496.61 L 740.369 1496.56 L 744.975 1491.18 L 745.952 1491.52 L 746.369 1493.53 C 745.417 1495.7 744.968 1496.75 744.289 1499.02 C 747.501 1500.27 754.931 1498.9 758.919 1498.49 C 754.203 1502.14 750.742 1503.99 745.616 1506.87 C 749.739 1510.35 753.165 1513.77 757 1517.53 C 752.022 1515.84 747.494 1513.93 742.646 1511.94 L 741.674 1511.51 C 741.359 1516.29 741.599 1520.48 741.773 1525.24 L 735.924 1511.14 C 731.737 1513.79 727.448 1515.76 723.004 1517.95 L 733.056 1507.56 C 730.364 1505.83 727.179 1504.27 725.653 1501.63 C 734.207 1497.23 733.65 1498.57 736.138 1489.7 z" fill="rgb(253,253,253)" transform="translate(0,0)"></path>
<path d="M 682.004 1510.1 L 680.737 1511.35 L 681.034 1517.44 L 680.027 1518.37 L 678.276 1517.63 L 675.804 1511.48 L 674.657 1511.16 C 673.016 1512.97 671.657 1514.58 670.108 1516.45 L 669.138 1515.99 C 669.984 1513.07 670.598 1512.33 670.201 1509.5 C 666.615 1511.07 667.89 1511.25 664.668 1510.97 C 665.98 1508.69 666.854 1507.75 668.507 1505.72 L 668.292 1503.8 C 665.525 1502.34 665.583 1502.44 663.399 1500.23 L 663.399 1500.23 L 663.233 1500.86 C 665.216 1498.12 666.324 1501.92 671.53 1498.96 C 671.061 1496.42 670.418 1494.27 670.894 1491.76 L 675.011 1496.64 L 676.415 1496.62 L 677.214 1492.86 L 678.373 1492.22 C 684.067 1497.07 676.586 1493.12 680.048 1498.85 C 683.928 1499.93 688.679 1498.53 692.791 1497.75 C 689.179 1500.38 687.12 1501.95 683.872 1505 L 684.05 1506.99 C 688.298 1509.6 692.566 1512.17 696.853 1514.71 C 691.44 1513.35 687.078 1512.49 682.004 1510.1 z" fill="rgb(253,253,253)" transform="translate(0,0)"></path>
<path d="M 819.637 1435.35 C 821.18 1436.61 820.728 1436.28 821.825 1438.06 C 821.15 1441.59 820.902 1440.33 821.846 1443.44 C 826.429 1443.62 825.029 1439.49 829.313 1439.63 C 828.476 1443.2 827.812 1443.08 829.168 1445.42 L 834.88 1446.44 L 835.119 1447.43 C 833.167 1448.83 832.908 1448.8 830.613 1449.58 L 829.849 1452.36 C 827.535 1452.14 828.49 1451.82 826.885 1452.94 L 829.837 1456.55 L 829.394 1457.74 L 826.916 1457.34 C 824.223 1455.05 823.602 1454.24 820.17 1453.15 L 817.826 1456.33 C 814.586 1457.33 815.735 1457.69 813.603 1456.65 C 815.084 1453.67 815.424 1454.43 815.043 1452.06 C 812.48 1451.78 813.323 1452.21 811.356 1450.89 L 814.471 1448.59 C 816.31 1443.65 813.55 1448.86 811.251 1443.7 C 813.189 1443.57 814.882 1443.37 816.81 1443.13 C 819.741 1440.24 818.835 1440.46 819.637 1435.35 z" fill="rgb(253,253,253)" transform="translate(0,0)"></path>
<path d="M 678.528 1438.59 C 679.481 1441.07 679.591 1443.33 679.974 1446.01 C 682.384 1445.73 684.162 1445.62 686.591 1445.51 C 685.528 1448.57 683.119 1446.91 682.279 1450.87 L 685.589 1454.61 C 682.955 1455.95 684.412 1455.52 680.456 1454.37 C 678.049 1456.26 678.66 1456.75 677.729 1460.52 L 676.519 1460.65 L 674.517 1457.85 C 674.823 1455.99 674.842 1456.94 674.402 1455 L 672.682 1458.18 L 671.062 1458.79 L 671.159 1459.64 L 671.247 1453.81 L 667.981 1452.94 L 667.466 1451.69 C 669.373 1450.55 670.582 1450.15 672.721 1449.55 C 670.983 1447.59 670.753 1447.51 669.642 1445.19 L 670.57 1444.15 L 674.052 1444.85 C 677.315 1443.39 676.548 1442.97 678.528 1438.59 z" fill="rgb(253,253,253)" transform="translate(0,0)"></path>
<path d="M 1609.71 1361.5 C 1617.36 1361.29 1625.31 1361.42 1632.99 1361.45 L 1633.86 1477.44 L 1181.16 1721.6 C 1127.92 1750.78 1076.25 1778.52 1023.36 1808.81 C 1002.78 1795.27 963.408 1775.08 941.256 1763.17 L 822.421 1698.14 L 420.06 1474.75 C 419.728 1455.61 420.005 1435.7 419.998 1416.5 L 420.01 1362.19 C 428.5 1362.21 437.535 1362.63 446.065 1362.86 L 445.876 1457.3 C 467.899 1471.14 501.054 1488.02 524.182 1500.53 L 637.965 1562.67 C 720.538 1607.58 802.725 1653.2 884.519 1699.51 C 931.167 1725.5 977.853 1749.66 1024.09 1776.91 C 1032.19 1770.09 1050.5 1760.77 1060.21 1755.14 C 1088.06 1738.99 1117.36 1724.53 1145.35 1708.74 C 1222.59 1665.16 1301.33 1624.88 1379.63 1583.29 L 1606.9 1460.8 L 1606.85 1392.61 C 1606.85 1387.62 1606.49 1366.04 1607.33 1362.19 L 1609.71 1361.5 z" fill="rgb(229,132,77)" transform="translate(0,0)"></path>
<path d="M 1072.8 1482.37 C 1077.09 1484.59 1076.45 1483.52 1078.86 1487.08 C 1077.91 1490.82 1076.73 1489.79 1073.64 1492.47 C 1074.34 1495.11 1076.02 1500.98 1075.63 1503.51 L 1071.52 1501.96 L 1070.17 1502.59 C 1072.69 1507.01 1073.64 1504.21 1074.49 1507.68 C 1071.6 1508.99 1069.18 1508.28 1065.95 1507.87 C 1063.47 1509.38 1064.41 1508.37 1063.16 1511.13 C 1066.7 1514.14 1069.53 1511.49 1074.75 1515.3 L 1075.27 1517.18 C 1070.85 1519.06 1067.02 1516.29 1063.23 1518.11 L 1063.61 1519.43 C 1067.37 1520.01 1071.28 1519.4 1073.13 1521 L 1072.47 1522.06 C 1068.88 1522.24 1066.8 1521.56 1065.04 1523.48 C 1067.73 1527.27 1070.53 1524.86 1071.01 1527.77 C 1064.35 1529.67 1057.65 1526.66 1054.17 1530.96 L 1054.7 1532.41 C 1057.48 1533.41 1059.1 1533.94 1062.03 1534.69 L 1055.22 1537.26 L 1054.75 1538.34 C 1064.37 1540.86 1060.43 1539.55 1068.89 1538.34 L 1069.74 1539.47 C 1067.67 1542.62 1066.31 1543.46 1062.69 1544.29 C 1059.69 1544.97 1056.65 1545.45 1053.58 1545.72 L 1051.95 1546.92 L 1048.74 1547.8 C 1049.32 1533.57 1048.06 1510.77 1047.98 1495.44 C 1056.04 1490.65 1064.03 1485.64 1072.8 1482.37 z" fill="rgb(20,148,127)" transform="translate(0,0)"></path>
<path d="M 1123.3 1581.75 C 1129.27 1584.05 1132.26 1583.87 1138.72 1584 L 1133.98 1585.82 L 1134.1 1587.11 C 1138.77 1589.87 1137.46 1589.19 1140.87 1593.75 L 1141.98 1594.1 L 1142.11 1594.92 C 1140.84 1595 1139.56 1595.04 1138.29 1595.04 C 1133.73 1595.01 1123.35 1594.23 1120.17 1591.07 C 1120.45 1587.82 1120.5 1588.77 1123.7 1585.81 L 1123.3 1581.75 z" fill="rgb(20,148,127)" transform="translate(0,0)"></path>
<path d="M 915.9 1601.51 C 922.039 1600.32 931.101 1600.98 936.711 1603.55 C 936.421 1604.04 936.132 1604.53 935.842 1605.02 C 933.821 1605.14 931.804 1605.31 929.792 1605.53 C 925.159 1605.79 912.427 1606.42 909.035 1603.3 C 911.039 1601.11 911.888 1601.83 915.9 1601.51 z" fill="rgb(20,148,127)" transform="translate(0,0)"></path>
<path d="M 814.264 1626.19 L 817.518 1624.87 C 825.045 1633.42 833.324 1632.27 843.708 1638.81 C 829.169 1636.99 826.345 1634.79 814.264 1626.19 z" fill="rgb(20,148,127)" transform="translate(0,0)"></path>
<path d="M 1120.45 1573.39 C 1124.91 1572.81 1134.59 1572.08 1138.37 1574.29 L 1137.58 1575.31 C 1131.59 1576.88 1124.03 1580.09 1120.45 1573.39 z" fill="rgb(20,148,127)" transform="translate(0,0)"></path>
<path d="M 1001.67 1587.91 C 1002.05 1591.14 1002.43 1591.76 1001.18 1594.76 C 998.335 1596.68 994.163 1596.13 990.518 1596.1 L 990.444 1594.87 C 992.188 1592.3 998.57 1589.52 1001.67 1587.91 z" fill="rgb(20,148,127)" transform="translate(0,0)"></path>
<path d="M 907.401 1561.26 L 904.757 1559.52 C 903.739 1559.53 902.72 1559.52 901.702 1559.5 C 899.132 1559.42 896.332 1559.54 894.805 1557.89 C 899.191 1555.57 902.416 1556.24 907.294 1554.07 C 907.94 1558 908.592 1558.07 907.401 1561.26 z" fill="rgb(20,148,127)" transform="translate(0,0)"></path>
<path d="M 1211.33 1581.48 C 1213.89 1582.2 1216.11 1582.97 1218.62 1583.82 C 1215.99 1583.93 1203.14 1585.75 1200.63 1586.34 L 1198.76 1586.8 L 1199.01 1585.92 C 1203.73 1583.85 1206.55 1584.03 1211.33 1581.48 z" fill="rgb(33,118,116)" transform="translate(0,0)"></path>
<path d="M 910.834 1623.19 C 918.444 1622.19 925.248 1625.35 931.102 1630.02 C 927.474 1630.34 914.356 1625.13 910.834 1623.19 z" fill="rgb(33,118,116)" transform="translate(0,0)"></path>
<path d="M 1197.05 1573.95 C 1201.47 1573.57 1207 1573.55 1211.08 1575.4 L 1209.25 1575.78 C 1205.32 1576.04 1197.12 1577.93 1194.73 1576.64 L 1197.05 1573.95 z" fill="rgb(40,89,107)" transform="translate(0,0)"></path>
<path d="M 825.994 1551.53 C 831.849 1551.82 834.55 1551.72 840.313 1553.16 C 834.204 1555.05 829.899 1553.93 823.855 1554.36 L 825.994 1551.53 z" fill="rgb(20,148,127)" transform="translate(0,0)"></path>
<path d="M 921.333 1609.47 C 926.373 1609.28 928.902 1608.83 933.717 1610.42 L 934.909 1612.79 C 929.88 1612.61 927.416 1612.61 922.461 1611.43 L 921.333 1609.47 z" fill="rgb(20,148,127)" transform="translate(0,0)"></path>
<path d="M 1048.74 1547.8 L 1051.95 1546.92 L 1052.57 1548.98 C 1055.23 1549.67 1056.93 1550.26 1059.49 1551.16 L 1058.95 1552.53 C 1054.87 1553.88 1049.35 1552.94 1048.74 1547.8 z" fill="rgb(20,148,127)" transform="translate(0,0)"></path>
<path d="M 168.071 1305.72 L 1335.89 1305.86 L 1698.2 1305.6 L 1817.43 1305.49 C 1837.59 1305.47 1860.93 1304.9 1880.87 1305.59 L 1880.81 1332.35 L 710.309 1332.74 L 360.141 1333.26 L 231.345 1333.07 C 211.487 1333.07 187.714 1332.52 168.143 1333.18 L 168.071 1305.72 z" fill="rgb(103,200,159)" transform="translate(0,0)"></path>
<path d="M 1227.79 1043.33 C 1250.57 1042.29 1276.81 1043.7 1300.06 1043.08 C 1319.75 1043.34 1339.9 1042.12 1359.53 1043.35 C 1406.84 1046.31 1436.11 1099.17 1416.42 1141.42 C 1408.06 1159.37 1395.33 1166.54 1378.09 1172.89 C 1396.91 1197.8 1415.5 1231.59 1437.22 1250.31 L 1378.85 1250.03 C 1374.95 1250.15 1369.11 1250.78 1365.76 1249.33 C 1365.18 1245.99 1366.4 1245.63 1368.68 1241.74 C 1359.76 1223.12 1338.46 1194.93 1326.02 1177.24 C 1312.43 1177.53 1298.11 1177.29 1284.46 1177.28 C 1283.73 1209.59 1280.05 1222.52 1296.67 1250.23 C 1272.45 1250.37 1248.23 1250.37 1224 1250.22 C 1240.98 1230.06 1238.25 1215.84 1238.3 1191.3 L 1238.38 1137.7 C 1238.4 1113.4 1239.07 1086.18 1237.58 1061.9 C 1237.22 1056.07 1231.27 1048.13 1227.79 1043.33 z" fill="rgb(232,213,183)" transform="translate(0,0)"></path>
<path d="M 1283.91 1082.99 C 1302.4 1083.17 1352.5 1078.67 1366.11 1088.35 C 1372.32 1092.85 1376.38 1099.74 1377.29 1107.35 C 1378.34 1116.21 1375.11 1123.16 1369.91 1129.97 C 1367.29 1132.47 1362.81 1136.17 1359.29 1136.62 C 1337.2 1139.45 1306.44 1138.1 1283.94 1138.08 L 1283.91 1082.99 z" fill="rgb(36,62,83)" transform="translate(0,0)"></path>
<path d="M 837.192 1034.31 C 843.816 1036.98 963.381 1146.9 972.742 1155.87 C 972.515 1135.44 973.05 1114.79 972.984 1094.34 C 972.913 1072.18 975.186 1060.79 960.318 1042.89 C 983.3 1043.21 1006.28 1043.32 1029.27 1043.23 C 1025.51 1048.86 1019.76 1057.55 1019.11 1064.01 C 1017.05 1084.37 1018.01 1107.59 1017.92 1128.19 L 1017.01 1258.51 L 1009.63 1251.19 C 969.25 1210.94 923.689 1170.39 882.169 1129.78 C 882.497 1145.47 882.657 1161.16 882.649 1176.85 C 882.472 1203.5 877.441 1228.09 894.757 1249.96 C 870.713 1250.26 846.667 1250.29 822.623 1250.04 C 827.222 1245.16 833.418 1237.63 834.526 1230.91 C 837.04 1215.67 836.292 1198.65 836.312 1183.2 L 836.17 1087.78 C 836.143 1073.44 835.416 1047.59 837.192 1034.31 z" fill="rgb(232,213,183)" transform="translate(0,0)"></path>
<path d="M 231.252 1043.11 C 284.018 1041.6 343.2 1042.93 396.27 1043.09 C 397.58 1056.54 403.737 1082.74 406.648 1096.6 C 401.064 1092.42 392.724 1086.21 385.94 1085.1 C 358.811 1080.65 320.379 1082.61 292.839 1082.83 L 292.813 1122.82 L 371.369 1122.94 C 371.51 1136.93 371.336 1151.16 371.296 1165.17 C 348.858 1156.11 318 1159.71 292.293 1159.48 L 292.402 1178.18 L 292.734 1208.04 L 355.301 1208.26 C 379.118 1208.34 391.522 1210.11 414.187 1202.07 C 411.522 1219.07 405.007 1233.69 401.09 1250.4 L 233.82 1250.93 C 237.947 1241.16 247.033 1223.19 247.042 1213.29 C 247.082 1168.73 248.134 1123.74 246.503 1079.25 C 246.271 1072.93 234.683 1050.35 231.252 1043.11 z" fill="rgb(232,213,183)" transform="translate(0,0)"></path>
<path d="M 1792 1042.55 C 1797.92 1042.22 1804.4 1042.19 1810.38 1042.06 C 1809.79 1057.9 1810.97 1076.73 1811.51 1092.85 C 1795.01 1080.16 1793.28 1082.18 1772.71 1082.25 C 1748.9 1082.33 1725.01 1082.56 1701.2 1082.75 L 1701.12 1123.21 C 1725.83 1123.57 1750.54 1123.59 1775.25 1123.28 C 1775.68 1136.65 1775.88 1150.03 1775.83 1163.4 C 1761.02 1158.11 1720.21 1159.9 1701.96 1159.9 L 1702.02 1209.51 C 1721.14 1209.49 1740.26 1209.66 1759.37 1210.01 C 1780.13 1210.23 1791.54 1212.29 1810.32 1201.88 L 1811.57 1201.18 L 1812.49 1202.76 C 1812.11 1219.21 1809.6 1234.47 1811.86 1251.06 L 1642.06 1250.96 C 1645.84 1245.85 1653.2 1234.57 1653.5 1228.18 C 1656.01 1175.05 1655.24 1120.6 1653.52 1067.42 C 1653.3 1060.47 1647.14 1048.81 1643.31 1043.01 C 1692.87 1043.19 1742.44 1043.03 1792 1042.55 z" fill="rgb(232,213,183)" transform="translate(0,0)"></path>
<path d="M 633.203 1043.1 C 690.676 1042.69 748.151 1042.6 805.624 1042.83 L 804.985 1093.28 C 785.411 1080.13 767.99 1082.67 745.587 1082.61 C 728.718 1082.58 711.848 1082.45 694.98 1082.23 L 695.121 1122.59 L 767.046 1122.16 C 767.16 1137.8 767.043 1153.44 766.695 1169.08 L 753.285 1158.97 C 733.83 1159.01 714.376 1158.91 694.922 1158.67 L 694.98 1183.5 L 695.033 1209.94 C 725.627 1209.01 784.475 1215.74 806.022 1197.51 L 806.312 1250.11 L 710.594 1250.3 C 686.604 1250.52 659.826 1251.27 636.045 1250.31 C 639.477 1245.56 648.111 1233.5 648.35 1227.49 C 650.406 1175.35 649.781 1122.52 649.286 1070.3 C 649.185 1059.65 641.042 1049.51 633.203 1043.1 z" fill="rgb(232,213,183)" transform="translate(0,0)"></path>
<path d="M 1454.88 1042.97 C 1475.26 1042.46 1606.14 1041.33 1612.01 1044.24 C 1615.24 1045.84 1617.04 1049.1 1618.25 1052.35 C 1621.57 1061.24 1623.39 1081.57 1619.53 1090.32 C 1615.84 1089.05 1604.79 1082.52 1603.04 1082.35 C 1596.15 1081.68 1584.88 1082.06 1577.74 1082.08 L 1515.6 1082.18 C 1515.33 1095.84 1515.45 1110.02 1515.38 1123.72 C 1539.55 1123.24 1563.73 1123.11 1587.9 1123.35 C 1588.02 1135.87 1587.96 1148.39 1587.72 1160.91 C 1572.88 1158.84 1531.71 1160.08 1515.19 1160.19 L 1515.23 1185.33 L 1515.13 1210.03 C 1544.14 1209.74 1580.21 1212.02 1608.68 1208.63 C 1611.63 1208.28 1619.81 1203.38 1622.86 1201.61 C 1623.47 1218.58 1622.61 1234.03 1621.6 1250.93 L 1457.34 1250.98 C 1465.71 1237.58 1467.93 1231.58 1468.02 1215.51 C 1468.25 1174.52 1468.27 1133.53 1468.2 1092.54 C 1468.17 1073.74 1468.71 1057.64 1454.88 1042.97 z" fill="rgb(232,213,183)" transform="translate(0,0)"></path>
<path d="M 572.265 1041.97 L 624.145 1042.16 C 613.072 1062.58 601.916 1087 591.872 1108.14 C 580.038 1133.03 567.949 1157.8 555.607 1182.44 C 544.763 1204.65 531.923 1231.52 519.866 1252.93 C 513.277 1242.74 505.554 1227.16 499.891 1216.13 C 487.628 1192 475.592 1167.77 463.785 1143.42 C 447.17 1109.11 430.053 1076.74 413.351 1042.95 C 431.291 1042.62 450.118 1042.98 468.123 1043.05 C 482.386 1076.73 502.707 1121.16 519.846 1153.4 C 527.174 1142.3 536.898 1120.67 542.604 1108.23 C 552.754 1086.26 562.641 1064.17 572.265 1041.97 z" fill="rgb(232,213,183)" transform="translate(0,0)"></path>
<path d="M 1094.12 1043.51 C 1133.01 1043.17 1171.91 1043.12 1210.81 1043.35 C 1210.78 1057.77 1210.47 1072.93 1211.73 1087.23 C 1186.69 1081.41 1175.68 1081.95 1150.1 1081.91 L 1150.15 1171.4 C 1150.16 1191.49 1147.99 1216.32 1154.54 1235.44 C 1156.02 1239.76 1162.91 1245.6 1162.96 1249.84 L 1160.25 1250.28 L 1089.85 1250.17 C 1094.51 1244.88 1101.8 1236.14 1102.81 1229.37 C 1105.39 1211.97 1104.26 1189.67 1104.17 1171.71 L 1104 1081.86 C 1081.31 1082.22 1062.39 1081.33 1040.78 1088.24 C 1041.87 1072.7 1042.91 1059.32 1042.89 1043.74 L 1094.12 1043.51 z" fill="rgb(232,213,183)" transform="translate(0,0)"></path>
<path d="M 266.578 773.773 C 269.41 776.786 279.511 799.804 281.856 804.921 C 292.987 805.284 311.721 807.837 323.333 809.049 C 313.834 814.913 299.318 828.032 292.617 836.836 C 295.468 850.342 297.65 860.718 301.322 874.108 C 290.574 867.785 279.256 861.576 268.369 855.423 C 264.852 855.756 239.494 871.216 234.49 874.088 C 236.891 861.212 240.073 849.255 241.87 836.185 C 233.877 826.433 221.775 816.991 211.792 809.034 C 223.61 808.689 239.613 806.921 251.704 805.938 C 257.04 794.99 261.89 785.025 266.578 773.773 z" fill="rgb(103,200,159)" transform="translate(0,0)"></path>
<path d="M 1777.34 770.69 C 1780.11 773.422 1793.4 803.363 1795.81 808.542 C 1808.69 810.37 1821.6 812.034 1834.52 813.537 C 1826.15 819.416 1811.18 832.32 1804.02 839.572 C 1806.95 851.038 1809.18 864.178 1811.8 875.96 C 1801.91 869.401 1791.87 863.078 1781.69 856.997 C 1779.7 855.938 1778.46 855.444 1776.38 854.547 C 1769.01 855.029 1751.83 866.925 1741.97 871.3 C 1746.01 859.307 1749.98 847.293 1753.89 835.26 C 1743.94 825.929 1735.94 818.514 1724.78 810.647 C 1735.41 810.356 1749.85 808.636 1760.93 807.867 C 1766.29 795.428 1771.76 783.035 1777.34 770.69 z" fill="rgb(21,154,128)" transform="translate(0,0)"></path>
<path d="M 154.691 821.593 C 161.894 827.785 156.109 831.017 170.324 834.941 L 171.568 835.273 L 172.29 836.618 C 169.995 839.439 167.019 840.589 163.751 842.318 L 166.516 855.596 C 162.517 853.711 158.275 851.36 154.334 849.284 C 149.478 850.39 146.143 853.836 142.559 853.547 C 142.237 850.306 144.018 847.97 145.611 844.959 C 142.717 840.889 139.603 836.792 136.626 832.765 L 148.384 831.923 L 154.691 821.593 z" fill="rgb(253,253,253)" transform="translate(0,0)"></path>
<path d="M 1904.19 807.976 C 1921.22 808.326 1926.59 824.217 1910.22 833.32 C 1891.61 833.828 1887.68 817.779 1904.19 807.976 z" fill="rgb(253,253,253)" transform="translate(0,0)"></path>
<metadata><recraft-signature>{"signed_by": "recraft", "signature_b64": "DiOBsoEEn6f6DIujAxAdZ1ZFQd2JoceHrr5mXEtjg7KTMPz/jt2FMuyST5NCHLboxYd/HG/LUc3d03eZyaTCCg==", "signing_algo": "Ed25519", "generation_timestamp": 1783499006, "identifier": "ff9c3c59-03bd-4ad0-9741-9cf5fb8fc87d"}</recraft-signature></metadata></svg>