<svg xmlns="http://www.w3.org/2000/svg" height="1024" preserveAspectRatio="none" style="display: block;" version="1.1" viewBox="0 0 2048 2048" width="1024">
<path d="M 0 0 L 2048 0 L 2048 2048 L 0 2048 L 0 0 z" fill="rgb(255,255,255)" transform="translate(0,0)"></path>
<path d="M 1037.87 384.14 C 1051.2 386.236 1053.6 390.158 1060.55 400.792 C 1068.45 400.092 1071.56 399.056 1078.61 396.236 C 1098.48 402.244 1091.12 409.086 1098.48 424.628 C 1120.75 426.616 1125.79 424.006 1135.64 445.307 L 1150.57 447.099 C 1151.13 447.968 1151.69 448.843 1152.24 449.726 C 1158.84 460.481 1157.24 468.197 1154.46 479.867 C 1156.4 486.545 1157.36 488.672 1160.31 494.843 C 1163.41 495.971 1167.52 497.413 1170.3 499.061 C 1176.32 502.676 1180.69 508.504 1182.46 515.297 C 1185.04 525.571 1181.36 532.667 1176.51 540.953 C 1187.03 562.798 1190.02 573.055 1169.69 589.436 C 1177.92 601.288 1180.28 603.035 1183.46 616.969 C 1179.54 632.623 1177.08 636.225 1164.16 644.566 C 1156.29 649.943 1158.45 651.682 1157 658.942 C 1151.21 687.913 1126.86 682.659 1107.36 679.397 C 1085.07 700.557 1079.16 702.399 1049.47 694.577 C 1047.35 706.212 1046.03 717.978 1045.52 729.793 C 1044.8 749.227 1048.76 765.322 1062.31 779.923 C 1089.49 780.893 1118.68 780.552 1146.14 781.043 C 1188.55 782.055 1230.96 783.347 1273.35 784.917 L 1643.7 801.958 L 1825.62 808.433 C 1850.43 809.24 1885.36 808.529 1908.92 810.659 C 1909.99 836.257 1904.5 856.116 1900.07 881.185 C 1896.42 901.904 1893.64 922.768 1891.76 943.723 C 1888.47 982.484 1889.96 1021.72 1888.96 1060.59 C 1888.1 1093.57 1884.97 1126.47 1882.45 1159.35 C 1881.31 1174.16 1881.02 1237.32 1873.42 1245.69 C 1867.51 1252.19 1857.52 1254.2 1849.16 1254.83 C 1825.16 1256.64 1800.79 1254.15 1776.74 1254.1 C 1754.75 1254.06 1732.8 1255.46 1710.78 1254.93 C 1652.83 1253.54 1594.66 1248.9 1536.75 1245.74 C 1353.98 1235.78 1171.62 1223.98 988.5 1223.92 C 771.075 1222.94 554.623 1237.04 337.93 1253.06 L 244.813 1260.01 C 223.818 1261.59 202.623 1263.54 181.615 1262.89 C 165.493 1262.1 153.414 1255.12 149 1239.15 C 142.764 1216.58 142.962 1193.22 143.12 1169.99 C 143.243 1151.88 144.268 1133.5 144.96 1115.35 C 146.003 1090.88 146.543 1066.4 146.578 1041.92 C 146.518 1015.93 137.571 833.976 147.249 821.817 C 163.548 801.338 801.632 783.822 876.384 781.88 C 915.958 780.852 955.895 781.799 995.388 779.943 C 1001.38 775.792 1006.28 770.257 1009.67 763.809 C 1018.82 746.212 1015.25 719.466 1009.65 701.119 C 986.427 709.977 956.025 717.654 946.645 687.176 C 927.458 685.203 911.801 697.746 903.782 672.009 C 881.022 671.602 863.504 659.046 880.024 636.921 C 878.268 634.94 876.569 632.91 874.928 630.833 C 850.392 599.808 886.12 600.799 890.459 577.422 C 891.541 570.415 882.282 564.642 879.638 560.003 C 867.337 538.426 891.769 533.741 904.942 526.129 C 912.789 521.594 909.578 510.337 911.04 504.239 C 915.069 487.432 936.508 487.605 949.342 478.943 L 950.27 478.303 C 946.206 469.927 939.941 459.746 946.96 451.164 C 952.059 444.929 954.061 443.106 961.981 441.77 L 965.639 428.871 C 969.986 424.234 971.284 423.346 976.367 419.833 C 981.904 421.41 989.048 424.053 994.627 422.872 C 1004.62 420.757 1005.41 409.132 1010.35 401.499 C 1016.78 391.581 1026.85 386.875 1037.87 384.14 z" fill="rgb(0,0,0)" transform="translate(0,0)"></path>
<path d="M 1022.05 793.517 C 1084.05 792.077 1154.91 795.125 1217.16 796.504 C 1374.63 799.991 1532.66 812.454 1690.08 817.634 C 1756.65 819.825 1829.56 825.138 1895.63 823.736 C 1895.29 828.959 1894.51 834.279 1893.63 839.445 C 1886.82 879.717 1877.52 919.992 1876.38 960.981 C 1875.3 999.505 1876.25 1038.15 1874.26 1076.64 C 1873.08 1099.4 1871.1 1122.25 1869.24 1144.95 C 1867.82 1160.44 1866.79 1175.96 1866.13 1191.51 C 1865.84 1199.36 1865.82 1232.23 1862.9 1236.75 C 1844.68 1245.85 1801.3 1239.01 1779.84 1240.03 C 1721.64 1242.81 1664.61 1238.67 1606.43 1235.55 L 1317.99 1219.37 C 1218.56 1214.03 1119.03 1210.66 1019.46 1209.26 C 826.586 1207.6 633.405 1218.52 441.043 1231.48 C 386.049 1235.18 330.86 1240.15 275.843 1244.1 C 246.429 1246.2 216.506 1249.37 187.033 1249.85 C 180.581 1249.95 171.406 1248.63 167.091 1243.51 C 160.01 1235.12 157.934 1215.99 157.442 1205.34 C 155.107 1154.82 160.51 1104.18 160.8 1053.61 C 161.004 1017.96 158.255 982.927 157.236 947.498 C 156.381 908.506 156.843 869.496 158.621 830.535 C 194.905 825.454 236.502 822.702 273.279 820.178 C 345.736 815.601 418.248 811.916 490.796 809.124 C 667.768 800.611 844.883 795.408 1022.05 793.517 z" fill="rgb(255,255,255)" transform="translate(0,0)"></path>
<path d="M 933.218 805.447 C 953.997 804.307 981.638 804.94 1002.95 804.858 C 1053.88 804.327 1104.81 804.821 1155.72 806.339 C 1297.38 809.863 1438.95 816.161 1580.36 825.23 C 1679.71 831.105 1780.84 831.631 1879.5 837.74 C 1878.66 847.473 1875.32 864.315 1873.64 874.566 C 1870.05 895.559 1867.26 916.681 1865.27 937.885 C 1861.38 981.142 1863.65 1024.32 1861.05 1067.54 C 1857.88 1120.2 1853.23 1171.12 1852.16 1223.95 C 1833.63 1232.45 1791.26 1226.5 1770.16 1227.35 C 1711.12 1229.74 1652.38 1224.99 1593.42 1221.91 L 1315.76 1206.46 C 1246.47 1202.74 1177.12 1200.13 1107.75 1198.61 C 1061.35 1196.64 1011.77 1196.82 965.153 1196.83 C 798.934 1197.91 632.798 1204.59 467.028 1216.85 L 280.951 1230.34 C 254.184 1232.08 227.404 1233.81 200.563 1234.86 C 177.584 1235.76 172.355 1221.71 171.369 1201.72 C 169.266 1152 174.716 1102.63 174.608 1052.86 C 174.534 1018.99 172.123 985.855 171.106 952.083 C 169.986 915.142 170.107 878.173 171.468 841.24 C 269.616 830.534 384.482 825.771 483.368 821.543 C 633.257 814.598 783.215 809.232 933.218 805.447 z" fill="rgb(0,0,0)" transform="translate(0,0)"></path>
<path d="M 1235.48 903.128 C 1278.17 900.381 1328.54 904.031 1329.54 960.282 C 1330.28 1001.35 1309.95 1018.37 1272.97 1030.01 C 1297.45 1050.92 1328.63 1086.91 1339.75 1117.51 C 1341.18 1121.44 1335.66 1124.7 1331.52 1124.75 C 1325.08 1121.69 1319.69 1109.37 1315.5 1102.34 C 1301.78 1081.56 1268.17 1037.03 1245.17 1027.93 C 1245.05 1040.52 1246.64 1111.24 1245.1 1116.62 C 1243.76 1121.31 1241.64 1124.14 1237.38 1126.45 C 1235.23 1126.4 1234.47 1126.83 1232.92 1125 C 1231.26 1122.96 1230.26 1120.37 1230.17 1117.75 C 1229.68 1102.99 1229.89 1088.16 1229.92 1073.4 L 1229.98 991.136 L 1229.84 934.644 C 1229.82 926.63 1229.59 917.635 1230.15 909.609 C 1230.35 906.754 1233.21 904.821 1235.48 903.128 z" fill="rgb(255,255,255)" transform="translate(0,0)"></path>
<path d="M 1244.42 916.968 C 1277.61 916.336 1316.52 918.199 1315.11 962.763 C 1314.57 979.683 1312.08 989.399 1299.62 1001.84 C 1282.16 1014.8 1266.12 1016.59 1244.62 1017.06 L 1244.42 916.968 z" fill="rgb(0,0,0)" transform="translate(0,0)"></path>
<path d="M 989 1076.96 L 989.066 966.5 C 989.057 948.342 988.928 929.916 989.148 911.747 C 989.172 909.78 990.228 905.728 991.65 904.352 C 994.22 901.865 994.004 902.3 996.894 902.21 C 1007.98 907.433 1003.95 941.868 1003.94 953.242 L 1003.92 1041.52 C 1003.9 1053.08 1004.65 1116.8 1002.91 1124.17 C 997.637 1125.18 994.662 1125.83 991.817 1120.38 C 985.582 1108.46 980.36 1095.87 974.849 1083.57 L 940.048 1006.52 C 933.289 991.461 923.377 967.72 915.246 954.363 C 915.643 993.107 915.806 1031.85 915.732 1070.6 C 915.742 1085.26 915.873 1100.89 915.953 1115.63 C 915.969 1118.5 913.415 1123.13 910.87 1124.51 C 908.086 1126.02 907.629 1125.51 905.156 1124.76 C 899.4 1119.06 900.993 1104.61 901.003 1096.55 C 901.079 1034.83 900.648 973.096 900.569 911.376 C 900.565 907.852 900.918 905.995 902.34 902.831 C 907.944 903.11 911.072 903.654 913.372 909.057 C 929.142 946.101 945.055 983.139 961.996 1019.68 C 970.859 1038.79 978.458 1058.74 989 1076.96 z" fill="rgb(255,255,255)" transform="translate(0,0)"></path>
<path d="M 389.381 904.08 C 403.613 903.211 458.469 901.889 469.613 905.04 C 473.317 906.087 475.18 907.406 476.986 910.795 C 476.708 913.055 476.18 914.809 474.569 916.524 C 469.859 921.537 410.428 919.222 400.684 919.209 C 400.371 947.607 400.695 976.624 400.723 1005.06 C 418.32 1004.92 436.173 1004.67 453.781 1004.92 C 459.846 1005 466.197 1006.31 468.996 1012.11 C 468.69 1014.68 468.189 1016.43 466.387 1018.4 C 462.098 1023.08 410.641 1021.32 400.79 1021.37 L 400.77 1067.5 L 400.862 1109.7 L 451.196 1109.68 C 461.567 1109.69 476.798 1106.89 482.787 1115.59 C 483.948 1125.89 463.983 1126.15 455.184 1125.57 C 433.952 1124.17 406.569 1129.19 386.388 1122.04 C 385.405 1121.69 385.011 1116.46 385.009 1115 C 384.924 1050.33 385.071 985.643 384.481 920.971 C 384.419 914.085 384.289 909.051 389.381 904.08 z" fill="rgb(255,255,255)" transform="translate(0,0)"></path>
<path d="M 735.435 904.179 C 759.465 902.304 793.081 903.855 817.396 905.426 C 821.568 905.696 821.835 913.226 818.679 917.237 C 812.462 920.492 756.387 919.334 745.943 919.394 L 745.927 1004.83 C 755.911 1004.96 803.502 1003.66 809.876 1005.86 C 814.528 1009.93 814.39 1014.45 811.596 1019.57 C 807.324 1022.63 755.41 1021.29 745.974 1021.35 L 745.92 1069.5 L 745.833 1109.24 L 796.194 1109.19 C 805.432 1109.17 832.729 1105.07 829.189 1119.55 C 828.037 1120.79 827.003 1121.93 825.464 1122.7 C 815.788 1127.57 743.956 1126.14 732.511 1122.12 C 731.097 1119.26 730.774 1114.67 730.792 1111.42 C 731.165 1046.35 730.649 981.263 730.771 916.193 C 730.782 910.277 731.035 908.085 735.435 904.179 z" fill="rgb(255,255,255)" transform="translate(0,0)"></path>
<path d="M 1409.65 904.425 C 1422.48 904.274 1488.26 902.445 1496.23 906.34 C 1501.06 911.368 1499.09 919.428 1492.91 919.725 C 1469.05 920.87 1443.31 920.177 1419.52 920.417 L 1419.27 1005.56 C 1429.11 1005.49 1480.89 1003.89 1483.97 1006.24 C 1513.24 1028.64 1424.84 1021.66 1419.06 1021.59 L 1419.01 1060.5 L 1418.98 1110.36 C 1438.55 1109.83 1458.39 1109.9 1477.99 1109.56 C 1485.26 1109.44 1493.9 1109.63 1499.25 1114.97 C 1500.71 1122.22 1490.08 1126.06 1485.18 1125.17 C 1472.9 1122.94 1413.96 1128.81 1406.45 1121.74 C 1405.15 1117.45 1404.75 1113.18 1404.6 1108.72 C 1404.02 1091.34 1402.78 913.839 1405.13 908.472 C 1406.32 905.74 1407.08 905.599 1409.65 904.425 z" fill="rgb(255,255,255)" transform="translate(0,0)"></path>
<path d="M 1565.92 904.402 C 1578.55 904.209 1644.35 902.513 1651.46 906.348 C 1655.83 911.679 1654.84 919.592 1647.89 919.898 C 1624.08 920.948 1599.91 920.087 1575.99 920.157 L 1575.95 1005.98 C 1586.86 1006.03 1633.65 1003.75 1640.52 1007.36 C 1644.14 1011.47 1644.59 1015.89 1641.31 1020.2 C 1634.22 1023.31 1585.91 1022 1575.42 1022.02 C 1575.08 1035.04 1575.39 1049.38 1575.41 1062.5 L 1575.57 1110 C 1589.29 1109.98 1642.01 1107.6 1650.46 1112.47 C 1652.83 1113.85 1653.3 1114.9 1653.95 1117.46 C 1652.35 1122.89 1648.59 1125.54 1643.13 1124.99 C 1628.56 1123.53 1570.24 1128.71 1562.18 1121.84 C 1561 1117.95 1560.33 1113.33 1560.34 1109.13 C 1560.44 1043.26 1560.36 977.29 1561.19 911.465 C 1561.23 907.768 1563.24 906.439 1565.92 904.402 z" fill="rgb(255,255,255)" transform="translate(0,0)"></path>
<path d="M 596.922 1094.98 C 610.364 1054.56 620.631 1007.25 632.187 965.727 C 635.953 952.074 638.318 937.64 642.359 924.11 C 644.346 917.457 646.831 902.352 655.6 903.946 C 657.618 904.327 659.301 905.713 660.064 907.619 C 662.506 913.635 657.001 930.002 655.171 936.731 C 644.664 977.787 633.768 1018.74 622.483 1059.59 C 618.087 1075.38 609.128 1114.94 601.011 1126.11 C 597.992 1127.68 599.601 1127.36 595.959 1126.73 C 592.629 1124.39 589.687 1121 588.631 1116.99 C 571.1 1050.3 551.598 983.838 536.875 916.468 C 535.651 910.869 535.722 908.363 538.651 903.67 C 542.484 903.825 543.682 903.569 546.985 905.588 C 552.021 912.782 593.876 1081.67 596.922 1094.98 z" fill="rgb(255,255,255)" transform="translate(0,0)"></path>
<path d="M 1071.65 904.186 C 1097.77 902.117 1129.06 904.813 1155.66 904.135 C 1160.63 904.009 1168.55 906.24 1169.72 911.964 C 1165 923.535 1136.98 919.906 1125.85 919.878 C 1127.06 974.311 1126.19 1031.92 1126.2 1086.5 C 1126.09 1095.29 1131.53 1131.5 1114.81 1124.26 C 1108.63 1117.73 1111.3 1070.45 1111.25 1058.85 L 1111.4 919.695 C 1103.8 919.753 1048.25 923.982 1071.65 904.186 z" fill="rgb(255,255,255)" transform="translate(0,0)"></path>
<path d="M 1042.29 586.639 L 1043.42 587.838 C 1042.05 614.292 1036.05 641.934 1034.22 667.268 C 1058.58 650.43 1059 645.265 1089.58 638.802 C 1076.87 647.485 1066.13 648.866 1055.75 661.985 C 1052.09 666.607 1045.05 674.141 1042.81 679.732 C 1035.71 697.46 1033.68 726.14 1034.78 744.803 C 1031.2 736.015 1029.91 730.451 1027.71 721.213 C 1025.21 709.049 1022.07 700.121 1015.73 689.559 C 1010.17 680.305 982.331 658.075 981.876 649.937 L 983.05 649.371 C 987.664 651.456 996.599 660.898 1001.47 664.708 C 1009.4 670.914 1017.38 677.099 1025.41 683.215 L 1029.56 626.504 C 1025 618.712 1021.25 612.864 1019.85 603.686 C 1023.98 608.258 1028.98 617.374 1035.6 616.378 C 1038.89 611.682 1039.1 594.491 1042.29 586.639 z" fill="rgb(255,255,255)" transform="translate(0,0)"></path>
<path d="M 1153.31 1349.47 C 1263.61 1347.44 1375.38 1354.65 1485.56 1360.73 C 1491.22 1361.67 1510.34 1359.79 1512.03 1367.68 C 1515.22 1382.58 1484.21 1375.86 1475.84 1375.25 C 1455.85 1373.89 1435.85 1372.65 1415.84 1371.53 C 1231.96 1359.24 1047.35 1362.98 864.12 1382.72 C 812.48 1388.5 760.949 1395.21 709.551 1402.85 C 671.538 1408.59 633.584 1415.02 595.662 1421.34 C 579.837 1423.97 563.846 1427.77 547.926 1429.52 C 544.984 1429.85 541.348 1430.41 538.645 1428.94 C 537.004 1428.05 535.98 1425.55 535.92 1423.78 C 535.848 1421.66 536.733 1419 538.382 1417.58 C 542.16 1414.33 590.915 1407.08 599.947 1405.52 C 734.223 1381.86 869.601 1364.95 1005.57 1354.85 C 1054.77 1352 1104.03 1350.2 1153.31 1349.47 z" fill="rgb(0,0,0)" transform="translate(0,0)"></path>
<path d="M 1299.64 671.01 C 1305.44 671.168 1318.56 673.195 1324.9 673.997 C 1341.6 676.21 1358.34 678.092 1375.11 679.643 C 1423.8 683.447 1472.66 684.697 1521.48 683.388 C 1536.88 683 1552.28 682.294 1567.65 681.269 C 1574.82 680.838 1594.95 678.186 1599.75 682.134 C 1603.06 687.479 1602.97 691.012 1597.55 694.684 C 1585.79 696.655 1562.8 697.223 1550 697.879 C 1477.92 701.181 1405.68 698.703 1334 690.467 C 1326.25 689.649 1277.03 688.806 1299.64 671.01 z" fill="rgb(0,0,0)" transform="translate(0,0)"></path>
<path d="M 705.645 677.401 C 713.127 676.082 719.411 676.346 722.699 684.137 C 721.578 689.812 715.262 691.612 709.957 692.056 C 647.639 697.263 585.06 706.411 522.716 710.676 C 502.042 712.015 481.332 712.723 460.615 712.798 C 453.978 713.056 438.328 713.191 441.037 702.084 C 446.21 696.945 457.755 697.609 464.747 697.515 C 545.365 696.429 625.442 686.029 705.645 677.401 z" fill="rgb(0,0,0)" transform="translate(0,0)"></path>
<metadata><recraft-signature>{"signed_by": "recraft", "signature_b64": "NPsuDpNdz3bYYYi3w/kafCQJh9cmGVEWORmOTfhSAesvRiuvsuVPm3h5RE+uP5YxS7bJX1wyVo8cn3ue7/znBg==", "signing_algo": "Ed25519", "generation_timestamp": 1783499017, "identifier": "ce9e169d-7b6f-4900-859f-5e83689c1f1f"}</recraft-signature></metadata></svg>