<svg xmlns="http://www.w3.org/2000/svg" height="1024" preserveAspectRatio="none" style="display: block;" version="1.1" viewBox="0 0 2048 2048" width="1024">
<defs>
	<linearGradient gradientUnits="userSpaceOnUse" id="Gradient1" x1="1083.92" x2="1180.9" y1="1434.82" y2="1426.11">
		<stop class="stop0" offset="0" stop-color="rgb(0,45,44)" stop-opacity="1"></stop>
		<stop class="stop1" offset="1" stop-color="rgb(12,144,114)" stop-opacity="1"></stop>
	</linearGradient>
	<linearGradient gradientUnits="userSpaceOnUse" id="Gradient2" x1="616.183" x2="901.663" y1="968.689" y2="451.779">
		<stop class="stop0" offset="0" stop-color="rgb(4,229,171)" stop-opacity="1"></stop>
		<stop class="stop1" offset="1" stop-color="rgb(36,255,240)" stop-opacity="1"></stop>
	</linearGradient>
	<linearGradient gradientUnits="userSpaceOnUse" id="Gradient3" x1="1054.67" x2="1411.91" y1="863.829" y2="749.71">
		<stop class="stop0" offset="0" stop-color="rgb(139,132,137)" stop-opacity="1"></stop>
		<stop class="stop1" offset="1" stop-color="rgb(184,186,183)" stop-opacity="1"></stop>
	</linearGradient>
	<linearGradient gradientUnits="userSpaceOnUse" id="Gradient4" x1="931.8" x2="1315.86" y1="1500.77" y2="731.949">
		<stop class="stop0" offset="0" stop-color="rgb(0,158,103)" stop-opacity="1"></stop>
		<stop class="stop1" offset="1" stop-color="rgb(10,255,204)" stop-opacity="1"></stop>
	</linearGradient>
	<linearGradient gradientUnits="userSpaceOnUse" id="Gradient5" x1="806.014" x2="1177.88" y1="1942.32" y2="374.014">
		<stop class="stop0" offset="0" stop-color="rgb(0,0,0)" stop-opacity="1"></stop>
		<stop class="stop1" offset="1" stop-color="rgb(46,70,77)" stop-opacity="1"></stop>
	</linearGradient>
</defs>
<path d="M 0 0 L 2048 0 L 2048 2048 L 0 2048 L 0 0 z" fill="rgb(241,241,239)" transform="translate(0,0)"></path>
<path d="M 1550.02 174.333 C 1502.42 256.807 1455.7 339.79 1409.89 423.267 C 1400.65 440.375 1391.61 457.587 1382.77 474.901 C 1380.89 478.532 1372.22 495.82 1370.16 498.162 L 1369.47 500.983 L 1370.9 501.135 C 1376.87 497.664 1393.18 483.386 1399.66 477.962 C 1417.72 462.731 1435.9 447.657 1454.22 432.74 C 1460.63 431.36 1460.34 428.546 1465.29 426.853 L 1466.72 429.08 C 1432.46 472.224 1397.23 514.584 1361.05 556.128 C 1347.07 572.282 1332 590.771 1317.58 605.997 C 1298.04 627.887 1272.63 657.783 1254.01 680.663 C 1261.71 673.853 1272.36 662.195 1279.69 656.492 C 1304.03 637.559 1328.02 618.452 1352.05 599.139 C 1339.38 616.794 1315.17 643.765 1300.23 659.889 C 1312.47 654.458 1325.01 646.421 1337.17 640.486 C 1367.29 625.777 1398.54 608.284 1428.84 594.367 C 1432.58 591.446 1454.25 580.87 1459.74 578.071 L 1525.6 544.298 C 1556.15 528.676 1593.1 506.813 1623.56 492.77 C 1597.12 522.483 1569.98 551.255 1543.6 581.233 C 1528.61 598.252 1503.28 629.136 1487.18 643.009 C 1483.69 647.753 1479.48 651.88 1475.51 656.22 C 1460.19 672.96 1444.3 689.188 1429.27 706.195 L 1474.12 806.328 C 1482 824.253 1489.78 844.066 1497.86 861.584 C 1538.06 860.147 1578.28 859.137 1618.5 858.555 C 1652.81 857.907 1684.01 856.957 1718.31 857.903 C 1709.7 866.051 1682.23 881.836 1670.91 889.24 C 1648.18 904.095 1625.52 920.369 1602.54 934.571 C 1584.22 945.683 1565.99 956.939 1547.85 968.338 C 1540.44 972.991 1526.55 981.35 1520.25 986.494 C 1571.94 992.385 1623.53 999.136 1675 1006.74 C 1694.21 1009.43 1719.48 1011.93 1738.04 1015.43 C 1753.44 1017.13 1784.53 1020.42 1798.9 1023.49 C 1793.02 1025.46 1751.39 1032.3 1745.15 1032.51 L 1614.41 1055.32 C 1582.31 1060.68 1541.28 1066.87 1509.63 1074.43 C 1558.7 1102.56 1611.91 1127.14 1659.38 1155.09 C 1630.1 1154.86 1600.82 1154.18 1571.56 1153.06 C 1550.18 1152.38 1523.9 1151.96 1502.79 1150.07 C 1475.27 1221.99 1447.74 1301.51 1417.45 1371.63 C 1398.82 1383.07 1379.64 1393.4 1360.82 1404.5 C 1305.65 1437.56 1250.06 1469.91 1194.05 1501.52 C 1183.27 1507.71 1094.69 1557.58 1092.64 1560.91 C 1072.12 1594.34 1037.75 1663.29 1018.42 1699.39 L 962.703 1567.99 C 977.742 1545.81 991.018 1527.8 1007.15 1506.38 L 1006.7 1504.74 C 990.438 1524.03 972.474 1542.04 955.206 1560.37 C 913.722 1604.4 869.958 1647.27 829.699 1692.41 C 829.435 1689.69 843.765 1669.88 846.199 1666.28 C 882.328 1612.84 917.104 1557.64 950.7 1502.6 C 901.005 1541.28 850.577 1584.34 802.281 1624.75 C 745.582 1672.18 687.097 1717.26 630.202 1764.26 C 586.616 1800.27 543.338 1837.23 499.11 1872.55 C 512.135 1848.44 527.663 1824.55 541.678 1800.84 C 568.061 1755.37 594.874 1710.15 622.115 1665.19 C 651.242 1616.9 679.529 1564.96 710.362 1518.38 L 530.425 1654.52 L 734.992 1437.5 C 712.433 1446.82 691.601 1457.15 669.565 1467.22 C 611.168 1493.57 553.314 1521.11 496.038 1549.81 C 463.715 1565.69 413.546 1587.22 383.649 1604.63 C 396.185 1584.7 415.795 1560.62 429.539 1540.27 L 603.031 1288.65 C 594.411 1292.08 588.041 1294.18 579.132 1296.84 C 577.917 1278.54 578.379 1254.39 575.778 1236.94 C 549.656 1247.79 519.882 1269.51 493.823 1281.24 C 509.748 1266.82 527.457 1252.94 542.884 1238.27 C 570.178 1212.3 597.895 1188.34 627.217 1164.64 C 634.038 1182.1 637.912 1201.73 641.597 1220.06 C 655.424 1200.86 680.655 1168.27 691.814 1148.73 C 676.932 1164.68 663.457 1178.67 647.588 1193.64 C 643.28 1175.83 640.121 1151.82 636.31 1132.95 C 627.802 1138.94 611.673 1154.61 603.409 1162.37 C 587.108 1177.72 570.692 1192.96 554.162 1208.07 C 554.553 1191.3 552.433 1169.4 551.87 1151.87 C 497.426 1152.98 439.886 1154.3 385.503 1154.51 C 438.178 1132.27 492.692 1104.77 545.253 1080.99 C 500.842 1064.96 469.633 1060.31 422.61 1052.33 C 394.527 1047.41 366.384 1042.84 338.188 1038.61 C 317.243 1035.58 296.884 1032.7 276.135 1028.37 C 267.716 1026.61 258.375 1026.16 250.264 1023.55 C 255.566 1021.76 268.753 1021.23 275.007 1020.4 C 293.577 1017.96 312.216 1015.73 330.835 1013.69 C 398.93 1005.88 467.084 998.581 535.289 991.795 C 520.848 981.773 503.359 971.051 488.39 961.211 L 389.94 896.7 C 373.359 885.969 353.627 874.15 337.804 862.985 L 551.487 862.148 C 556.914 848.516 572.334 808.104 578.312 797.146 C 579.903 792.212 581.827 787.517 583.813 782.737 C 597.918 748.801 610.532 714.313 623.65 679.981 C 644.075 666.993 669.879 652.846 691.068 640.599 C 730.042 617.825 769.136 595.258 808.35 572.9 C 840.257 554.541 872.656 537.017 903.91 517.597 C 918.956 508.249 935.252 498.935 951.098 491.008 C 960.744 472.792 969.559 452.653 978.853 434.026 C 994.857 401.953 1011.24 369.847 1026.01 337.2 C 1030.38 344.496 1036.16 357.193 1040.31 365.315 C 1049.83 383.594 1059.12 401.994 1068.17 420.511 C 1076.28 437.386 1085.23 457.621 1094.22 473.689 C 1104.91 469.286 1119.76 459.442 1130.01 453.501 C 1160.37 435.915 1190.02 413.399 1220.76 397.095 C 1184.69 430.305 1149.24 464.173 1114.41 498.682 C 1106.43 506.488 1085.9 524.116 1080.02 530.919 L 1081.39 531.232 C 1092.42 524.249 1105.96 514.111 1116.74 506.421 C 1137.71 491.674 1158.33 476.437 1178.58 460.722 C 1194.27 448.305 1225.36 422.351 1241.96 412.603 C 1261.68 397.091 1285.06 381.519 1305.48 366.536 C 1334.16 345.221 1362.46 323.411 1390.38 301.115 C 1437.63 263.749 1484.19 225.472 1531.85 188.611 C 1537.95 183.889 1543.65 178.726 1550.02 174.333 z" fill="url(#Gradient5)" transform="translate(0,0)"></path>
<path d="M 1550.02 174.333 C 1502.42 256.807 1455.7 339.79 1409.89 423.267 C 1400.65 440.375 1391.61 457.587 1382.77 474.901 C 1380.89 478.532 1372.22 495.82 1370.16 498.162 L 1369.47 500.983 L 1370.9 501.135 C 1376.87 497.664 1393.18 483.386 1399.66 477.962 C 1417.72 462.731 1435.9 447.657 1454.22 432.74 C 1460.63 431.36 1460.34 428.546 1465.29 426.853 L 1466.72 429.08 C 1432.46 472.224 1397.23 514.584 1361.05 556.128 C 1347.07 572.282 1332 590.771 1317.58 605.997 C 1314.63 604.295 1315.18 604.155 1313.18 602.326 C 1303.96 593.864 1282.39 576.728 1272.23 571.175 C 1268.76 571.08 1268.77 572.08 1265.16 574.713 C 1258.61 585.797 1191.81 700.705 1188.35 702.507 C 1114.04 741.28 1036.3 782.541 960.632 818.898 L 940.963 829.57 C 967.329 796.421 990.459 756.066 1016.53 722.163 C 1024.05 712.384 1029.31 704.506 1038.01 695.237 C 1029.44 695.624 995.335 718.27 985.887 723.97 C 917.875 765.003 845.971 799.531 776.435 837.892 C 754.196 850.162 730.869 861.25 708.103 872.453 C 712.532 861.522 723.716 831.84 728.377 823.08 C 737.961 798.623 736.525 800.435 760.107 787.512 C 819.459 754.99 876.928 718.007 935.741 684.742 L 986.643 656.472 C 998.649 649.833 1015.66 641.039 1025.89 632.454 C 1028.79 626.137 1050.86 611.165 1057.7 606.124 C 1078.18 591.029 1098.1 575.244 1118.44 559.968 C 1122.66 556.799 1128.89 552.402 1128.44 546.746 C 1118.79 535.339 1102.14 535.801 1091.17 533.182 L 1090.58 530.812 C 1087.87 532.812 1085.42 534.406 1082.59 536.235 L 1080.92 535.008 L 1081.39 531.232 C 1092.42 524.249 1105.96 514.111 1116.74 506.421 C 1137.71 491.674 1158.33 476.437 1178.58 460.722 C 1194.27 448.305 1225.36 422.351 1241.96 412.603 C 1261.68 397.091 1285.06 381.519 1305.48 366.536 C 1334.16 345.221 1362.46 323.411 1390.38 301.115 C 1437.63 263.749 1484.19 225.472 1531.85 188.611 C 1537.95 183.889 1543.65 178.726 1550.02 174.333 z" fill="rgb(5,251,198)" transform="translate(0,0)"></path>
<path d="M 1550.02 174.333 C 1502.42 256.807 1455.7 339.79 1409.89 423.267 C 1400.65 440.375 1391.61 457.587 1382.77 474.901 C 1380.89 478.532 1372.22 495.82 1370.16 498.162 L 1369.47 500.983 L 1370.9 501.135 C 1376.87 497.664 1393.18 483.386 1399.66 477.962 C 1417.72 462.731 1435.9 447.657 1454.22 432.74 C 1460.63 431.36 1460.34 428.546 1465.29 426.853 L 1466.72 429.08 C 1432.46 472.224 1397.23 514.584 1361.05 556.128 C 1347.07 572.282 1332 590.771 1317.58 605.997 C 1314.63 604.295 1315.18 604.155 1313.18 602.326 C 1303.96 593.864 1282.39 576.728 1272.23 571.175 C 1268.76 571.08 1268.77 572.08 1265.16 574.713 C 1267.57 570.113 1270.72 564.796 1273.49 560.41 C 1286.22 540.253 1297.57 517.57 1311.36 498.159 C 1319.66 481.525 1335.93 461.021 1343.37 445.039 C 1358.26 420.61 1372.3 395.878 1386.99 371.357 C 1392.96 361.39 1399.11 351.739 1404.85 341.599 C 1360.92 379.005 1317.29 409.119 1272.84 444.788 C 1224.87 483.467 1168.93 524.174 1119.32 561.744 L 1052.63 612.499 C 1045.22 618.04 1033.14 627.718 1025.89 632.454 C 1028.79 626.137 1050.86 611.165 1057.7 606.124 C 1078.18 591.029 1098.1 575.244 1118.44 559.968 C 1122.66 556.799 1128.89 552.402 1128.44 546.746 C 1118.79 535.339 1102.14 535.801 1091.17 533.182 L 1090.58 530.812 C 1087.87 532.812 1085.42 534.406 1082.59 536.235 L 1080.92 535.008 L 1081.39 531.232 C 1092.42 524.249 1105.96 514.111 1116.74 506.421 C 1137.71 491.674 1158.33 476.437 1178.58 460.722 C 1194.27 448.305 1225.36 422.351 1241.96 412.603 C 1261.68 397.091 1285.06 381.519 1305.48 366.536 C 1334.16 345.221 1362.46 323.411 1390.38 301.115 C 1437.63 263.749 1484.19 225.472 1531.85 188.611 C 1537.95 183.889 1543.65 178.726 1550.02 174.333 z" fill="rgb(11,145,130)" transform="translate(0,0)"></path>
<path d="M 1311.36 498.159 C 1322.73 488.37 1354.3 424.806 1361.27 424.009 C 1381.3 432.818 1389.58 453.984 1380.56 474.182 C 1377.61 480.774 1370.86 491.496 1370.16 498.162 L 1369.47 500.983 L 1370.9 501.135 C 1376.87 497.664 1393.18 483.386 1399.66 477.962 C 1417.72 462.731 1435.9 447.657 1454.22 432.74 C 1460.63 431.36 1460.34 428.546 1465.29 426.853 L 1466.72 429.08 C 1432.46 472.224 1397.23 514.584 1361.05 556.128 C 1347.07 572.282 1332 590.771 1317.58 605.997 C 1314.63 604.295 1315.18 604.155 1313.18 602.326 C 1303.96 593.864 1282.39 576.728 1272.23 571.175 C 1268.76 571.08 1268.77 572.08 1265.16 574.713 C 1267.57 570.113 1270.72 564.796 1273.49 560.41 C 1286.22 540.253 1297.57 517.57 1311.36 498.159 z" fill="rgb(11,121,92)" transform="translate(0,0)"></path>
<path d="M 960.632 818.898 C 963.519 811.34 991.988 794.71 1000.13 788.117 C 1063.77 736.556 1131.23 689.54 1185.62 627.558 C 1210.67 599.018 1233.46 567.382 1256.53 537.125 C 1279.43 507.594 1302.14 477.918 1324.67 448.101 C 1335.89 433.09 1348.7 412.053 1359.41 398.979 C 1359.93 403.898 1359.12 405.55 1362.41 409.445 C 1358.82 420.344 1345.62 434.759 1342.18 444.334 L 1343.37 445.039 C 1335.93 461.021 1319.66 481.525 1311.36 498.159 C 1297.57 517.57 1286.22 540.253 1273.49 560.41 C 1270.72 564.796 1267.57 570.113 1265.16 574.713 C 1258.61 585.797 1191.81 700.705 1188.35 702.507 C 1114.04 741.28 1036.3 782.541 960.632 818.898 z" fill="rgb(7,195,150)" transform="translate(0,0)"></path>
<path d="M 728.377 823.08 L 730.181 823.519 C 743.656 818.636 762.672 809.347 776.143 803.097 C 806.97 788.695 837.647 773.974 868.168 758.936 C 910.271 738.685 952.075 717.82 993.569 696.349 C 1023.84 680.766 1053.96 665.534 1082.53 646.987 L 1038.01 695.237 C 1029.44 695.624 995.335 718.27 985.887 723.97 C 917.875 765.003 845.971 799.531 776.435 837.892 C 754.196 850.162 730.869 861.25 708.103 872.453 C 712.532 861.522 723.716 831.84 728.377 823.08 z" fill="rgb(5,166,129)" transform="translate(0,0)"></path>
<path d="M 1006.7 1504.74 C 1008.13 1502.59 1012.32 1496.73 1014.1 1495.11 L 1016.04 1495.51 L 1014.88 1494.53 L 1015.92 1494.73 C 1014.44 1498.46 1010.06 1503.65 1007.15 1506.38 L 1006.7 1504.74 z" fill="rgb(56,62,65)" transform="translate(0,0)"></path>
<path d="M 1359.55 752.047 C 1365.79 760.521 1383.85 797.361 1388.72 808.166 C 1399.37 831.779 1423.42 875.738 1430.17 899.603 C 1441.12 897.892 1469.83 897.668 1482.29 897.19 L 1581.45 892.81 C 1592.96 891.194 1604.18 890.876 1615.67 888.884 C 1595.57 899.645 1574.93 913.123 1555.47 925.329 C 1529.56 941.552 1503.74 957.921 1478.02 974.434 C 1465.56 982.563 1444.02 999.226 1431.64 1005.26 C 1361.09 1039.69 1291.36 1075.6 1221.01 1110.4 C 1215.25 1113.24 1209.34 1115.77 1203.86 1119.13 C 1224.71 1115.42 1262.43 1108.6 1282.9 1108.6 C 1245.11 1122.55 1197.04 1148.04 1159.86 1165.99 L 983.17 1250.19 C 1029.67 1240.79 1078.34 1224.09 1124.6 1212.6 C 1128.47 1211 1127.11 1210.65 1129.85 1211.61 C 1129.11 1213.84 1082.37 1270.43 1075.78 1278.62 C 1017.52 1351.1 957.688 1423.6 892.585 1490.05 C 877.968 1504.96 863.735 1520.73 848.162 1534.62 C 834.081 1547.18 818.968 1558.79 804.303 1570.68 C 752.651 1612.53 698.689 1652.3 649.829 1697.41 C 652.652 1692.36 664.058 1672.1 667.42 1669.12 C 680.254 1649.27 692.948 1627.4 705.385 1607.1 L 792.403 1465.13 C 814.805 1428.87 834.521 1393.38 862.641 1360.93 C 886.911 1332.92 913.083 1317.1 939.653 1294.11 C 905.153 1309.69 869.032 1325.24 835.139 1341.4 C 817.483 1344.77 785.778 1363.95 768.341 1371.85 C 765.094 1373.32 766.039 1375.26 760.768 1374.6 C 756.311 1371.43 757.349 1368.9 754.56 1365.09 C 745.08 1352.17 734.006 1364.92 728.073 1342.55 C 725.487 1332.8 716.585 1339.23 708.484 1336.61 C 725.708 1326.64 745.961 1317.8 762.869 1307.9 L 762.594 1306.55 C 724.924 1326.23 691.742 1343.48 655.087 1365.12 C 659.731 1354.37 680.596 1309.88 678.545 1301.14 C 680.88 1296.46 709.089 1259.93 714.537 1252.84 C 734.106 1227.39 753.008 1199.18 772.697 1174.18 C 772.812 1173.97 772.926 1173.76 773.04 1173.55 C 787.436 1154.98 818.556 1111.29 833.126 1096.35 C 837.582 1091.78 892.792 1069.13 900.814 1065.77 C 939.142 1050.12 977.148 1033.68 1014.81 1016.48 C 1041.82 1003.89 1068.74 990.513 1095.67 977.75 C 1104.56 973.535 1125.14 960.109 1132.88 958.213 C 1128.72 962.79 1117.61 972.473 1112.65 977.003 L 1064.94 1019.89 C 1042.03 1040.57 1019.91 1062.4 996.654 1082.67 C 961.715 1113.14 925.745 1142.87 891.434 1174.05 C 1064.04 1087.27 1238.88 1005.01 1415.77 927.34 C 1401.37 878.472 1382.34 829.197 1368.25 779.932 C 1365.56 770.528 1362.06 761.697 1359.55 752.047 z" fill="rgb(11,121,92)" transform="translate(0,0)"></path>
<path d="M 1359.55 752.047 C 1365.79 760.521 1383.85 797.361 1388.72 808.166 C 1399.37 831.779 1423.42 875.738 1430.17 899.603 C 1441.12 897.892 1469.83 897.668 1482.29 897.19 L 1581.45 892.81 C 1584.93 892.967 1586.75 892.316 1588.57 894.149 C 1584.4 898.53 1566.54 903.497 1560.08 906.227 C 1505.69 929.205 1450.83 952.869 1397.63 978.492 C 1335.38 1009.13 1273.49 1040.49 1211.97 1072.57 L 997.667 1183.52 C 980.857 1192.41 964.379 1202.1 947.517 1211.02 C 893.148 1239.79 837.922 1266.79 783.328 1295 C 779.831 1296.85 764.551 1304.73 762.594 1306.55 C 724.924 1326.23 691.742 1343.48 655.087 1365.12 C 659.731 1354.37 680.596 1309.88 678.545 1301.14 C 680.88 1296.46 709.089 1259.93 714.537 1252.84 C 734.106 1227.39 753.008 1199.18 772.697 1174.18 C 772.812 1173.97 772.926 1173.76 773.04 1173.55 C 787.436 1154.98 818.556 1111.29 833.126 1096.35 C 837.582 1091.78 892.792 1069.13 900.814 1065.77 C 939.142 1050.12 977.148 1033.68 1014.81 1016.48 C 1041.82 1003.89 1068.74 990.513 1095.67 977.75 C 1104.56 973.535 1125.14 960.109 1132.88 958.213 C 1128.72 962.79 1117.61 972.473 1112.65 977.003 L 1064.94 1019.89 C 1042.03 1040.57 1019.91 1062.4 996.654 1082.67 C 961.715 1113.14 925.745 1142.87 891.434 1174.05 C 1064.04 1087.27 1238.88 1005.01 1415.77 927.34 C 1401.37 878.472 1382.34 829.197 1368.25 779.932 C 1365.56 770.528 1362.06 761.697 1359.55 752.047 z" fill="url(#Gradient4)" transform="translate(0,0)"></path>
<path d="M 1124.6 1212.6 C 1128.47 1211 1127.11 1210.65 1129.85 1211.61 C 1129.11 1213.84 1082.37 1270.43 1075.78 1278.62 C 1017.52 1351.1 957.688 1423.6 892.585 1490.05 C 877.968 1504.96 863.735 1520.73 848.162 1534.62 C 834.081 1547.18 818.968 1558.79 804.303 1570.68 C 752.651 1612.53 698.689 1652.3 649.829 1697.41 C 652.652 1692.36 664.058 1672.1 667.42 1669.12 L 668.33 1670.07 C 673.159 1668.08 694.021 1640.84 699.36 1634.83 C 710.826 1621.95 722.664 1609.16 734.574 1596.63 L 995.141 1319.98 L 1055.05 1256.1 C 1063.54 1246.98 1075.37 1235.98 1081.98 1225.95 C 1090.2 1222.73 1121.48 1216.03 1124.6 1212.6 z" fill="rgb(2,73,54)" transform="translate(0,0)"></path>
<path d="M 1446.26 627.127 C 1440.26 633.268 1434.17 639.322 1427.99 645.286 C 1415.34 657.771 1388.11 685.608 1375.31 696.428 C 1357.38 716.289 1329.09 740.008 1309.34 759.213 C 1298.2 770.243 1287.4 781.599 1276.94 793.267 C 1271.05 799.842 1261.79 810.913 1255.51 816.61 C 1242.56 828.35 1227.1 839.353 1213.61 850.517 C 1166.12 889.83 1117.18 921.535 1063.85 952.396 C 1054.79 958.741 1036.07 974.894 1029.01 983.132 C 1042.08 978.1 1059.77 971.546 1073.33 968.523 C 1102.45 957.056 1131.66 948.033 1161.05 935.75 C 1151.44 942.572 1142 950.688 1132.88 958.213 C 1125.14 960.109 1104.56 973.535 1095.67 977.75 C 1068.74 990.513 1041.82 1003.89 1014.81 1016.48 C 977.148 1033.68 939.142 1050.12 900.814 1065.77 C 892.792 1069.13 837.582 1091.78 833.126 1096.35 C 818.556 1111.29 787.436 1154.98 773.04 1173.55 C 772.926 1173.76 772.812 1173.97 772.697 1174.18 C 753.008 1199.18 734.106 1227.39 714.537 1252.84 C 709.089 1259.93 680.88 1296.46 678.545 1301.14 C 643.341 1344.4 609.487 1389.33 574.192 1432.6 C 558.331 1452.05 541.809 1471.01 524.062 1488.76 C 519.188 1491.34 511.057 1496.71 506.093 1499.76 C 518.25 1481.93 530.666 1465.63 542.868 1448.16 L 691.242 1237.75 C 729.961 1183.05 767.61 1126.86 809.23 1074.15 C 824.291 1058.29 867.502 1047.86 882.032 1033.91 C 898.326 1018.28 921.037 986.942 934.674 968.371 C 937.26 968.12 764.162 1050.5 749.683 1057.63 C 755.87 1049.82 784.747 1012.74 790.381 1007.87 C 803.908 989.298 817.851 971.036 832.201 953.094 C 837.717 946.079 854.455 924.068 860.69 919.921 C 876.759 909.233 901.918 898.094 919.565 889.242 L 1067.94 815.358 C 1118.37 789.975 1168.65 764.306 1218.79 738.354 C 1293.92 699.887 1369.76 662.804 1446.26 627.127 z" fill="rgb(241,241,239)" transform="translate(0,0)"></path>
<path d="M 1373.42 680.975 C 1384.71 673.386 1414.44 645.485 1427.99 645.286 C 1415.34 657.771 1388.11 685.608 1375.31 696.428 C 1357.38 716.289 1329.09 740.008 1309.34 759.213 C 1298.2 770.243 1287.4 781.599 1276.94 793.267 C 1271.05 799.842 1261.79 810.913 1255.51 816.61 C 1242.56 828.35 1227.1 839.353 1213.61 850.517 C 1166.12 889.83 1117.18 921.535 1063.85 952.396 C 1054.79 958.741 1036.07 974.894 1029.01 983.132 C 1042.08 978.1 1059.77 971.546 1073.33 968.523 C 1064.17 979.284 934.842 1033.35 916.188 1040.48 C 937.729 1014.46 967.651 985.637 991.772 961.425 C 1021.16 931.921 1053 897.273 1083.84 869.854 C 1116.71 840.626 1158.68 815.156 1195.51 791.193 C 1235.88 764.919 1274.11 737.438 1316.26 713.751 C 1336.31 702.482 1355.98 685.971 1378.12 674.024 L 1377.95 675.052 L 1378.4 674.917 C 1376.62 676.965 1375.09 678.856 1373.42 680.975 z" fill="rgb(212,210,211)" transform="translate(0,0)"></path>
<path d="M 1383.61 675.569 L 1389.84 678.876 L 1389.09 679.763 C 1385.84 683.522 1375.61 692.8 1374.84 695.599 L 1375.31 696.428 C 1357.38 716.289 1329.09 740.008 1309.34 759.213 C 1298.2 770.243 1287.4 781.599 1276.94 793.267 C 1271.05 799.842 1261.79 810.913 1255.51 816.61 C 1242.56 828.35 1227.1 839.353 1213.61 850.517 C 1166.12 889.83 1117.18 921.535 1063.85 952.396 C 1066.32 947.111 1096.27 922.981 1103.05 916.538 C 1170.77 852.169 1240.07 789.759 1313.44 731.847 C 1330.9 718.063 1347.36 702.3 1365.05 688.81 C 1370.71 686.749 1378.6 679.663 1383.61 675.569 z" fill="url(#Gradient3)" transform="translate(0,0)"></path>
<path d="M 967.111 920.183 L 968.187 923.615 L 961.794 932.011 L 962.399 933.17 C 953.279 944.63 943.411 956.705 934.674 968.371 C 937.26 968.12 764.162 1050.5 749.683 1057.63 C 755.87 1049.82 784.747 1012.74 790.381 1007.87 C 792.942 1008.57 792.043 1008.58 794.455 1007.38 C 852.099 978.632 908.012 946.048 967.111 920.183 z" fill="rgb(212,210,211)" transform="translate(0,0)"></path>
<path d="M 967.111 920.183 L 978.185 914.917 C 973.574 920.284 967.149 928.271 962.399 933.17 L 961.794 932.011 L 968.187 923.615 L 967.111 920.183 z" fill="rgb(173,169,172)" transform="translate(0,0)"></path>
<path d="M 803.15 660.641 C 809.295 657.796 820.63 650.264 826.677 646.495 L 867.862 620.718 L 965.703 560.241 C 979.472 551.572 993.036 541.953 1007.25 534.059 C 1016.95 528.676 1025.6 522.102 1035.3 516.805 L 1035.32 517.833 C 1019.67 529.527 1004.1 542.067 988.54 554.012 C 975.187 564.262 959.908 574.876 947.03 585.424 C 927.02 597.131 892.368 624.946 871.88 639.429 C 815.601 679.146 758.876 718.226 701.716 756.662 C 679.247 815.502 656.293 874.155 632.857 932.616 C 672.696 945.914 712.292 961.355 752.123 974.822 C 758.238 976.889 764.953 979.262 770.937 981.628 C 766.252 985.986 761.579 990.421 756.746 994.609 C 743.694 1012.36 721.413 1037.45 706.89 1054.82 C 619.073 998.287 529.478 944.564 438.241 893.733 C 454.046 895.195 471.656 895.026 487.956 896.041 C 530.846 896.396 573.469 897.88 616.771 898.054 C 624.106 877.367 670.352 752.193 680.719 740.437 C 689.165 730.859 712.933 717.728 724.317 710.362 C 741.863 699.115 759.522 688.045 777.291 677.155 C 782.296 674.052 798.224 664.62 802.024 661.565 L 803.15 660.641 z" fill="url(#Gradient2)" transform="translate(0,0)"></path>
<path d="M 438.241 893.733 C 454.046 895.195 471.656 895.026 487.956 896.041 C 488.299 896.789 488.643 897.538 488.986 898.287 C 499.087 904.146 516.178 913.426 525.952 918.413 C 561.759 936.682 596.565 959.46 632.003 977.545 C 657.497 990.556 687.448 1000.91 713.271 1014.2 C 723.041 1009.47 747.804 996.779 756.746 994.609 C 743.694 1012.36 721.413 1037.45 706.89 1054.82 C 619.073 998.287 529.478 944.564 438.241 893.733 z" fill="rgb(5,166,129)" transform="translate(0,0)"></path>
<path d="M 678.545 1301.14 C 680.596 1309.88 659.731 1354.37 655.087 1365.12 C 691.742 1343.48 724.924 1326.23 762.594 1306.55 L 762.869 1307.9 C 745.961 1317.8 725.708 1326.64 708.484 1336.61 C 716.585 1339.23 725.487 1332.8 728.073 1342.55 C 734.006 1364.92 745.08 1352.17 754.56 1365.09 C 757.349 1368.9 756.311 1371.43 760.768 1374.6 C 766.039 1375.26 765.094 1373.32 768.341 1371.85 C 785.778 1363.95 817.483 1344.77 835.139 1341.4 C 817.128 1350.97 796.282 1360.27 777.605 1369.18 L 698.986 1406.94 C 646.951 1431.54 596.1 1458.02 542.628 1479.61 C 536.74 1481.99 529.246 1488.08 524.062 1488.76 C 541.809 1471.01 558.331 1452.05 574.192 1432.6 C 609.487 1389.33 643.341 1344.4 678.545 1301.14 z" fill="rgb(2,73,54)" transform="translate(0,0)"></path>
<path d="M 1396.58 1139.56 C 1404.78 1140.63 1415.58 1141.72 1423.48 1143.39 C 1404.44 1192.3 1387.21 1242.18 1367.81 1291.01 C 1365.4 1297.09 1363.43 1303.58 1360.53 1309.43 C 1331.66 1327.17 1298.98 1343.73 1269.43 1360.72 C 1264.75 1363.42 1236.03 1379.48 1233 1380.56 C 1227.21 1385.09 1195.05 1401.85 1186.36 1406.56 C 1163.44 1419.05 1140.39 1431.3 1117.22 1443.3 C 1105.64 1449.39 1087.93 1459.38 1076.19 1463.74 C 1085.43 1457.03 1111.98 1442.09 1123.5 1435.08 C 1159.68 1413.05 1196.94 1387.92 1233.1 1366.4 C 1241.18 1359.94 1252.72 1353.47 1261.38 1347.38 C 1285.92 1330.13 1316.37 1312.89 1340.06 1295.12 C 1345.35 1272.22 1361.64 1234.55 1370.1 1211.51 C 1377.51 1191.29 1387.38 1157.61 1396.58 1139.56 z" fill="rgb(7,195,150)" transform="translate(0,0)"></path>
<path d="M 1233.1 1366.4 C 1229.06 1374.08 1188.65 1395.72 1179.12 1402.69 C 1179.12 1403.5 1179.11 1404.31 1179.1 1405.12 C 1186.69 1406.94 1189.02 1403.42 1194.2 1400.4 C 1202.53 1395.54 1224.3 1381.99 1233 1380.56 C 1227.21 1385.09 1195.05 1401.85 1186.36 1406.56 C 1163.44 1419.05 1140.39 1431.3 1117.22 1443.3 C 1105.64 1449.39 1087.93 1459.38 1076.19 1463.74 C 1085.43 1457.03 1111.98 1442.09 1123.5 1435.08 C 1159.68 1413.05 1196.94 1387.92 1233.1 1366.4 z" fill="url(#Gradient1)" transform="translate(0,0)"></path>
<path d="M 585.703 1031.91 C 588.45 1032.02 590.938 1033.38 593.275 1034.77 C 624.954 1053.71 656.541 1070.62 689.481 1087.31 C 662.106 1096.32 632.638 1101.66 605.486 1110.62 C 571.438 1121.87 541.942 1125.08 506.796 1129.31 L 478.548 1132.77 C 488.669 1127.98 505.534 1122.56 517.133 1117.5 C 552.993 1101.85 587.894 1087 624.725 1073.63 C 604.341 1070.62 568.953 1057.44 549.214 1050.14 C 559.343 1044.01 574.8 1037.12 585.703 1031.91 z" fill="rgb(5,166,129)" transform="translate(0,0)"></path>
<path d="M 1459.45 1031.31 C 1475.63 1031.24 1494.68 1032.27 1510.27 1031.11 C 1484 1043.39 1446.89 1056.51 1422.44 1069.71 C 1427.08 1071.44 1431.51 1073.52 1436.07 1075.44 C 1470.7 1090.03 1505.7 1103.64 1540.08 1118.88 C 1547.18 1122.03 1553.96 1124.65 1560.8 1128.45 C 1552.6 1127.01 1544.4 1125.53 1536.22 1124 C 1513.77 1119.58 1491.38 1116.3 1468.95 1112.14 C 1429.93 1104.9 1388.45 1096.26 1349.19 1091.65 C 1371.63 1080.07 1393.89 1068.14 1415.97 1055.88 C 1427.67 1049.24 1447.99 1036.42 1459.45 1031.31 z" fill="rgb(5,166,129)" transform="translate(0,0)"></path>
<path d="M 1302.9 813.228 C 1302.99 812.915 1280.96 839.8 1278.36 843.658 C 1279.21 829.423 1292.31 820.567 1302.9 813.228 z" fill="rgb(7,195,150)" transform="translate(0,0)"></path>
<path d="M 1484.22 407.319 C 1478.48 414.646 1472.64 421.901 1466.72 429.08 L 1465.29 426.853 C 1460.34 428.546 1460.63 431.36 1454.22 432.74 C 1464.09 424.207 1474.01 415.419 1484.22 407.319 z" fill="rgb(11,145,130)" transform="translate(0,0)"></path>
<metadata><recraft-signature>{"signed_by": "recraft", "signature_b64": "wq/3wn1HeCRhzTIy92BSuAFmkpr2bmQ6ke6kfwdgO1H3fP5Z1mq8H34nmKcI/Botjv51VHNv9zUPU4nbIptIDg==", "signing_algo": "Ed25519", "generation_timestamp": 1783499188, "identifier": "751f502d-789c-48ad-9f47-777ac93d22e4"}</recraft-signature></metadata></svg>