<svg xmlns="http://www.w3.org/2000/svg" height="1024" preserveAspectRatio="none" style="display: block;" version="1.1" viewBox="0 0 2048 2048" width="1024">
<defs>
	<linearGradient gradientUnits="userSpaceOnUse" id="Gradient1" x1="1712.24" x2="1741.53" y1="1005.25" y2="1011.7">
		<stop class="stop0" offset="0" stop-color="rgb(27,192,111)" stop-opacity="1"></stop>
		<stop class="stop1" offset="1" stop-color="rgb(66,225,126)" stop-opacity="1"></stop>
	</linearGradient>
	<linearGradient gradientUnits="userSpaceOnUse" id="Gradient2" x1="1741.29" x2="1729.62" y1="1001.04" y2="964.673">
		<stop class="stop0" offset="0" stop-color="rgb(9,150,93)" stop-opacity="1"></stop>
		<stop class="stop1" offset="1" stop-color="rgb(43,204,121)" stop-opacity="1"></stop>
	</linearGradient>
	<linearGradient gradientUnits="userSpaceOnUse" id="Gradient3" x1="734.172" x2="742.174" y1="367.181" y2="365.255">
		<stop class="stop0" offset="0" stop-color="rgb(11,181,99)" stop-opacity="1"></stop>
		<stop class="stop1" offset="1" stop-color="rgb(63,210,133)" stop-opacity="1"></stop>
	</linearGradient>
	<linearGradient gradientUnits="userSpaceOnUse" id="Gradient4" x1="1201.61" x2="1216.35" y1="790.061" y2="808.201">
		<stop class="stop0" offset="0" stop-color="rgb(127,226,78)" stop-opacity="1"></stop>
		<stop class="stop1" offset="1" stop-color="rgb(195,244,98)" stop-opacity="1"></stop>
	</linearGradient>
	<linearGradient gradientUnits="userSpaceOnUse" id="Gradient5" x1="1249.13" x2="1054.71" y1="787.47" y2="793.535">
		<stop class="stop0" offset="0" stop-color="rgb(94,194,74)" stop-opacity="1"></stop>
		<stop class="stop1" offset="1" stop-color="rgb(32,164,95)" stop-opacity="1"></stop>
	</linearGradient>
	<linearGradient gradientUnits="userSpaceOnUse" id="Gradient6" x1="1320.16" x2="1208.65" y1="895.798" y2="673.586">
		<stop class="stop0" offset="0" stop-color="rgb(2,99,48)" stop-opacity="1"></stop>
		<stop class="stop1" offset="1" stop-color="rgb(29,180,96)" stop-opacity="1"></stop>
	</linearGradient>
	<linearGradient gradientUnits="userSpaceOnUse" id="Gradient7" x1="972.582" x2="965.214" y1="523.824" y2="528.607">
		<stop class="stop0" offset="0" stop-color="rgb(233,252,241)" stop-opacity="1"></stop>
		<stop class="stop1" offset="1" stop-color="rgb(255,255,255)" stop-opacity="1"></stop>
	</linearGradient>
	<linearGradient gradientUnits="userSpaceOnUse" id="Gradient8" x1="912.076" x2="1052.09" y1="418.162" y2="393.494">
		<stop class="stop0" offset="0" stop-color="rgb(113,205,120)" stop-opacity="1"></stop>
		<stop class="stop1" offset="1" stop-color="rgb(218,228,168)" stop-opacity="1"></stop>
	</linearGradient>
	<linearGradient gradientUnits="userSpaceOnUse" id="Gradient9" x1="952.872" x2="944.995" y1="646.681" y2="651.385">
		<stop class="stop0" offset="0" stop-color="rgb(246,254,237)" stop-opacity="1"></stop>
		<stop class="stop1" offset="1" stop-color="rgb(255,255,255)" stop-opacity="1"></stop>
	</linearGradient>
	<linearGradient gradientUnits="userSpaceOnUse" id="Gradient10" x1="498.244" x2="312.805" y1="1431.85" y2="1305.55">
		<stop class="stop0" offset="0" stop-color="rgb(29,96,105)" stop-opacity="1"></stop>
		<stop class="stop1" offset="1" stop-color="rgb(44,126,113)" stop-opacity="1"></stop>
	</linearGradient>
	<linearGradient gradientUnits="userSpaceOnUse" id="Gradient11" x1="1747.8" x2="1691.89" y1="1591.55" y2="1487.49">
		<stop class="stop0" offset="0" stop-color="rgb(173,125,96)" stop-opacity="1"></stop>
		<stop class="stop1" offset="1" stop-color="rgb(188,160,123)" stop-opacity="1"></stop>
	</linearGradient>
	<linearGradient gradientUnits="userSpaceOnUse" id="Gradient12" x1="1729.54" x2="1555.58" y1="1401.79" y2="1334.88">
		<stop class="stop0" offset="0" stop-color="rgb(5,52,67)" stop-opacity="1"></stop>
		<stop class="stop1" offset="1" stop-color="rgb(11,74,81)" stop-opacity="1"></stop>
	</linearGradient>
	<linearGradient gradientUnits="userSpaceOnUse" id="Gradient13" x1="1137.43" x2="884.783" y1="1703.01" y2="955.608">
		<stop class="stop0" offset="0" stop-color="rgb(192,175,142)" stop-opacity="1"></stop>
		<stop class="stop1" offset="1" stop-color="rgb(254,253,240)" stop-opacity="1"></stop>
	</linearGradient>
	<linearGradient gradientUnits="userSpaceOnUse" id="Gradient14" x1="1645.96" x2="1395.78" y1="956.462" y2="874.852">
		<stop class="stop0" offset="0" stop-color="rgb(16,181,126)" stop-opacity="1"></stop>
		<stop class="stop1" offset="1" stop-color="rgb(92,211,165)" stop-opacity="1"></stop>
	</linearGradient>
	<linearGradient gradientUnits="userSpaceOnUse" id="Gradient15" x1="1340.9" x2="578.607" y1="1915.57" y2="587.896">
		<stop class="stop0" offset="0" stop-color="rgb(3,31,59)" stop-opacity="1"></stop>
		<stop class="stop1" offset="1" stop-color="rgb(49,173,135)" stop-opacity="1"></stop>
	</linearGradient>
</defs>
<path d="M 0 0 L 2048 0 L 2048 2048 L 0 2048 L 0 0 z" fill="rgb(241,240,231)" transform="translate(0,0)"></path>
<path d="M 1453.19 684.948 C 1488.01 685.209 1522.83 684.532 1557.64 684.551 C 1563.33 684.554 1569.01 684.393 1574.68 684.886 C 1593.57 684.188 1623.15 684.038 1641.82 685.257 L 1642.24 987.479 L 1642.16 1076.8 C 1642.08 1092.52 1641.25 1117.23 1642.62 1132.14 L 1814.7 1132.25 C 1840.32 1132.37 1875.24 1131.52 1900.25 1132.98 C 1877.02 1209.45 1848.69 1286.6 1825.85 1362.29 C 1831.47 1383.39 1839.25 1405.21 1845.52 1426.34 L 1895.78 1598.92 L 1613.51 1599.22 L 1532.7 1599.41 C 1525.85 1599.41 1487 1598.86 1482.99 1600.73 C 1452.62 1614.84 1411.75 1638.95 1383.24 1655.05 L 1220.63 1745.13 C 1182.81 1766.12 1144.76 1786.69 1106.48 1806.83 C 1084.24 1818.48 1043.24 1838.6 1023.75 1851.64 C 973.28 1822.94 922.082 1796.67 871.117 1769 C 769.036 1714.38 668.279 1657.33 568.932 1597.88 L 149.618 1597.88 C 163.08 1549.35 178.386 1502.58 192.979 1454.49 L 212.057 1391.62 C 214.98 1382 218.119 1370.05 221.577 1360.78 C 203.486 1308.7 189.192 1254.64 171.808 1202.27 C 164.066 1178.95 156.776 1155.4 149.391 1131.96 C 202.021 1132.09 345.614 1132.64 403.981 1131.87 C 404.231 1131.86 405.928 1130.63 406.205 1130.2 C 405.142 1122.09 405.658 1097.68 405.691 1088.63 C 405.875 1061.37 405.921 1034.11 405.83 1006.85 L 405.403 687.466 C 426.413 686.43 451.958 687.123 473.355 687.194 L 594.43 687.678 C 596.128 700.773 603.424 723.339 607.928 735.925 C 612.773 748.69 617.69 761.427 622.679 774.137 C 630.577 791.227 637.937 806.674 647.55 822.916 C 655.501 834.555 663.951 847.859 671.506 859.861 C 684.6 877.839 692.086 887.52 708.587 903.227 C 682.722 903.977 656.846 904.229 630.972 903.983 L 630.967 1053.92 C 630.946 1073.72 632.045 1109.46 630.695 1128.34 L 631.112 1131.01 C 631.599 1131.39 632.086 1131.76 632.573 1132.14 C 739.473 1132.51 910.113 1132.62 1008.91 1132.25 C 1009.04 1121.75 1009.02 1111.12 1009.82 1100.66 C 1010.61 1110.55 1010.18 1122.33 1009.95 1132.38 C 1016.82 1132.31 1036.94 1133.51 1041.68 1130.73 L 1042.58 1126.61 C 1042.78 1129.13 1042.69 1129.01 1043.8 1131.26 C 1050.58 1134.31 1079.86 1132.66 1089.41 1132.62 L 1178.49 1132.32 L 1419.99 1132.92 L 1420.23 904.868 C 1392.93 904.639 1365.62 904.554 1338.31 904.613 C 1353.23 889.862 1363.06 878.58 1376.6 862.397 C 1386.53 847.943 1395.04 833.906 1404.17 818.956 C 1412.04 805.038 1420.38 790.816 1426.44 776.042 C 1428.12 771.446 1429.89 766.881 1431.75 762.35 C 1434.5 753.284 1438.22 743.185 1441.31 734.128 C 1446.27 717.73 1449.79 701.7 1453.19 684.948 z" fill="url(#Gradient15)" transform="translate(0,0)"></path>
<path d="M 622.679 774.137 C 630.577 791.227 637.937 806.674 647.55 822.916 C 655.501 834.555 663.951 847.859 671.506 859.861 C 684.6 877.839 692.086 887.52 708.587 903.227 C 682.722 903.977 656.846 904.229 630.972 903.983 L 630.967 1053.92 C 630.946 1073.72 632.045 1109.46 630.695 1128.34 C 629.627 1122.58 627.187 1108.98 625.12 1103.61 C 618.033 1099.85 623.786 1099.85 619.659 1096.49 C 618.164 1097.6 617.641 1097.97 616.017 1098.96 C 612.609 1090.22 611.277 1090.43 604.303 1084.07 C 590.828 1071.78 589.208 1070.87 585.956 1053.77 L 585.83 1132.05 L 545.281 1132.22 C 544.246 1127.16 544.549 1109.39 544.556 1103.47 L 544.692 1034.55 C 544.705 1023.09 545.166 1009 543.74 997.799 C 543.115 992.891 536.327 983.45 532.976 979.816 C 516.56 962.012 516.074 944.949 507.962 922.988 C 505.407 916.073 499.574 905.816 497.366 899.606 C 495.595 894.627 499.899 867.998 495.964 862.37 C 494.452 837.818 495.396 800.005 495.73 774.836 C 538.047 775.375 580.37 775.142 622.679 774.137 z" fill="rgb(110,216,175)" transform="translate(0,0)"></path>
<path d="M 622.679 774.137 C 630.577 791.227 637.937 806.674 647.55 822.916 C 614.328 823.343 578.045 822.766 545.191 823.825 L 545.888 1056.49 C 545.766 1072.62 545.745 1088.75 545.823 1104.88 C 545.84 1110.62 546.185 1127.42 545.281 1132.22 C 544.246 1127.16 544.549 1109.39 544.556 1103.47 L 544.692 1034.55 C 544.705 1023.09 545.166 1009 543.74 997.799 C 543.115 992.891 536.327 983.45 532.976 979.816 C 516.56 962.012 516.074 944.949 507.962 922.988 C 505.407 916.073 499.574 905.816 497.366 899.606 C 495.595 894.627 499.899 867.998 495.964 862.37 C 494.452 837.818 495.396 800.005 495.73 774.836 C 538.047 775.375 580.37 775.142 622.679 774.137 z" fill="rgb(22,152,110)" transform="translate(0,0)"></path>
<path d="M 671.506 859.861 C 684.6 877.839 692.086 887.52 708.587 903.227 C 682.722 903.977 656.846 904.229 630.972 903.983 L 630.967 1053.92 C 630.946 1073.72 632.045 1109.46 630.695 1128.34 C 629.627 1122.58 627.187 1108.98 625.12 1103.61 C 618.033 1099.85 623.786 1099.85 619.659 1096.49 C 618.164 1097.6 617.641 1097.97 616.017 1098.96 C 612.609 1090.22 611.277 1090.43 604.303 1084.07 C 590.828 1071.78 589.208 1070.87 585.956 1053.77 C 584.723 1046.26 585.767 1003.32 585.823 992.423 L 585.875 860.009 L 671.506 859.861 z" fill="rgb(22,152,110)" transform="translate(0,0)"></path>
<path d="M 607.928 735.925 C 612.773 748.69 617.69 761.427 622.679 774.137 C 580.37 775.142 538.047 775.375 495.73 774.836 C 495.396 800.005 494.452 837.818 495.964 862.37 C 494.857 892.994 495.99 930.17 495.942 961.527 L 495.475 1131.94 L 454.561 1132.04 C 455.52 1126.62 455.112 1102.6 455.092 1095.99 L 454.937 1024.7 C 454.234 928.538 454.092 832.37 454.511 736.203 C 504.947 735.287 557.39 735.911 607.928 735.925 z" fill="rgb(110,216,175)" transform="translate(0,0)"></path>
<path d="M 1431.75 762.35 C 1434.5 753.284 1438.22 743.185 1441.31 734.128 C 1446.86 735.548 1469.3 734.546 1476.35 734.914 C 1508.61 732.926 1543.33 735.87 1575.77 734.654 C 1581.28 734.446 1587.05 734.902 1592.56 734.348 C 1592.88 809.159 1592.8 883.971 1592.32 958.782 C 1592.31 1015.47 1593.51 1075.11 1592.26 1131.4 L 1553.93 1131.39 L 1554.83 775.727 L 1426.44 776.042 C 1428.12 771.446 1429.89 766.881 1431.75 762.35 z" fill="url(#Gradient14)" transform="translate(0,0)"></path>
<path d="M 1431.75 762.35 C 1434.5 753.284 1438.22 743.185 1441.31 734.128 C 1446.86 735.548 1469.3 734.546 1476.35 734.914 C 1469.89 735.973 1466.83 737.899 1463.46 743.452 C 1458.66 751.36 1447.03 762.026 1437.6 752.754 C 1435.21 756.387 1434.89 759.543 1431.75 762.35 z" fill="rgb(110,216,175)" transform="translate(0,0)"></path>
<path d="M 1404.17 818.956 C 1410.53 821.253 1491.33 819.796 1505.21 820.124 L 1504.02 1131.87 C 1491.43 1131.58 1478.44 1131.15 1465.88 1131.13 C 1464.54 1042.5 1464.69 950.852 1464.91 862.062 L 1376.6 862.397 C 1386.53 847.943 1395.04 833.906 1404.17 818.956 z" fill="rgb(67,203,130)" transform="translate(0,0)"></path>
<path d="M 1453.19 684.948 C 1488.01 685.209 1522.83 684.532 1557.64 684.551 C 1563.33 684.554 1569.01 684.393 1574.68 684.886 C 1570.32 688.105 1552.28 684.478 1545.06 686.146 C 1544.19 688.642 1550.32 698.789 1549.62 700.336 C 1546.38 707.534 1541.58 716.4 1534.59 719.679 C 1532.11 724.949 1524.04 724.497 1522.6 732.534 C 1537.79 734.764 1579.34 731.501 1592.56 734.348 C 1587.05 734.902 1581.28 734.446 1575.77 734.654 C 1543.33 735.87 1508.61 732.926 1476.35 734.914 C 1469.3 734.546 1446.86 735.548 1441.31 734.128 C 1446.27 717.73 1449.79 701.7 1453.19 684.948 z" fill="rgb(22,152,110)" transform="translate(0,0)"></path>
<path d="M 215.409 1180 C 364.852 1177.79 517.905 1179.02 667.653 1179 L 1341.86 1179.24 C 1503.79 1179.73 1671.56 1182.49 1833.15 1179.23 C 1831.97 1184.24 1830.48 1189.44 1828.98 1194.37 C 1820.35 1222.82 1812.97 1252.89 1802.53 1280.72 C 1794.82 1309.25 1785.84 1336.42 1776.68 1364.43 L 1830.31 1551.08 C 1721.35 1551.18 1611.05 1551.83 1502.18 1550.47 C 1477.17 1550.22 1452.16 1550.15 1427.14 1550.26 C 1418.69 1550.27 1398.08 1550.83 1390.47 1550.06 C 1347.42 1552.03 1296.27 1550.91 1252.54 1550.91 L 989.968 1550.31 L 214.018 1549.98 C 226.53 1504.65 243.75 1457.95 256.504 1412.37 C 261.326 1395.14 267.975 1378.15 272.288 1360.51 C 265.997 1336.96 255.384 1307.39 247.769 1283.64 L 215.409 1180 z" fill="url(#Gradient13)" transform="translate(0,0)"></path>
<path d="M 1587.13 1245.7 L 1699.87 1245.27 L 1699.85 1280.89 L 1627.61 1280.75 C 1627.09 1304.14 1626.91 1327.54 1627.08 1350.94 L 1689.33 1351.07 C 1689.14 1362.37 1689.04 1373.67 1689.03 1384.97 L 1628.01 1385 L 1628.17 1399.32 C 1627.66 1420.42 1627.96 1442.19 1628 1463.34 L 1698.99 1463.21 L 1698.73 1492.21 L 1587.28 1492.06 C 1587.29 1470.41 1588.04 1442.55 1587.04 1421.41 C 1588.16 1413.04 1587.27 1376.92 1587.24 1365.67 L 1587.13 1245.7 z" fill="url(#Gradient12)" transform="translate(0,0)"></path>
<path d="M 1628.17 1399.32 C 1632.73 1404.45 1627.85 1450.16 1630.61 1461.37 L 1632.32 1462.23 C 1642.77 1460.91 1654.5 1461.98 1665.17 1462.02 C 1676.57 1462.07 1688.68 1461.47 1699.96 1462.31 C 1700.62 1463.81 1699.82 1482.83 1700.68 1488.27 C 1714.3 1480.12 1717.97 1474.41 1734.03 1466.66 C 1760.69 1453.8 1769.54 1451.37 1797.71 1446.39 C 1797.09 1439.68 1791.92 1428.75 1790.21 1420.14 C 1786.9 1408.48 1772.45 1366.43 1777.21 1356.76 C 1783.15 1344.69 1796.54 1287.03 1802.53 1280.72 C 1794.82 1309.25 1785.84 1336.42 1776.68 1364.43 L 1830.31 1551.08 C 1721.35 1551.18 1611.05 1551.83 1502.18 1550.47 C 1477.17 1550.22 1452.16 1550.15 1427.14 1550.26 C 1418.69 1550.27 1398.08 1550.83 1390.47 1550.06 L 1391.24 1548.93 C 1441.87 1549.97 1493.07 1547.96 1543.73 1548.54 C 1560.63 1548.73 1579.41 1549.26 1596.21 1548.33 C 1596.87 1545.99 1596.79 1545.94 1596.68 1543.55 C 1618.77 1527.05 1641.18 1515.92 1667.59 1508.04 C 1675.59 1505.66 1685.64 1502.08 1690.48 1495.02 C 1687.68 1493.78 1596.84 1494.48 1586 1494.49 C 1586.05 1482.43 1584.75 1429.28 1587.04 1421.41 C 1588.04 1442.55 1587.29 1470.41 1587.28 1492.06 L 1698.73 1492.21 L 1698.99 1463.21 L 1628 1463.34 C 1627.96 1442.19 1627.66 1420.42 1628.17 1399.32 z" fill="url(#Gradient11)" transform="translate(0,0)"></path>
<path d="M 1229.01 1246.22 C 1293.73 1246.5 1368.7 1227.83 1362.76 1318.63 C 1360.7 1350.23 1368.71 1380.64 1331.94 1396.93 C 1344.85 1427.65 1357.1 1460.83 1369.62 1491.98 L 1328.97 1491.54 L 1324.05 1477.73 C 1314.68 1452.01 1303.93 1427.17 1294.88 1401.17 L 1268.88 1401.58 L 1268.34 1491.76 L 1228.94 1492 L 1229.01 1246.22 z" fill="rgb(15,83,88)" transform="translate(0,0)"></path>
<path d="M 1268.52 1280.6 C 1280.83 1280.74 1296.32 1279.13 1308.01 1281.45 C 1316.02 1283.05 1319.17 1288.08 1322.82 1294.74 C 1322.91 1313.05 1324.16 1334.82 1321.24 1352.97 C 1320.78 1355.81 1317.81 1359.88 1316.07 1362.24 C 1305.54 1371.82 1283.38 1369 1268.99 1368.76 L 1268.52 1280.6 z" fill="rgb(234,228,204)" transform="translate(0,0)"></path>
<path d="M 868.361 1245.15 L 896.124 1245.1 C 901.563 1256.27 918.111 1293.02 923.37 1300.86 L 923.59 1299.84 L 924.961 1299.76 C 927.2 1306.29 929.157 1307.41 931.499 1312.74 C 941.232 1334.89 952.815 1356.38 963.462 1377.93 C 965.565 1382.19 960.782 1376.07 964.545 1380.48 C 970.109 1373.39 967.808 1359.06 967.858 1349.95 C 967.998 1327.28 968.269 1304.61 968.672 1281.95 L 969.94 1280.44 C 970.302 1268.93 970.416 1257.42 970.284 1245.91 L 1007.98 1245.76 L 1009.05 1491.98 L 979.308 1491.86 L 925.5 1386.85 C 918.95 1373.99 912.595 1359.51 905.824 1347 C 907.529 1391.35 906.462 1446.55 906.158 1491.56 L 867.999 1491.36 C 868.649 1409.29 868.769 1327.22 868.361 1245.15 z" fill="rgb(15,83,88)" transform="translate(0,0)"></path>
<path d="M 923.37 1300.86 L 923.59 1299.84 L 924.961 1299.76 C 927.2 1306.29 929.157 1307.41 931.499 1312.74 C 941.232 1334.89 952.815 1356.38 963.462 1377.93 C 965.565 1382.19 960.782 1376.07 964.545 1380.48 C 970.109 1373.39 967.808 1359.06 967.858 1349.95 C 967.998 1327.28 968.269 1304.61 968.672 1281.95 L 969.94 1280.44 C 970.807 1318.55 968.511 1356.6 969.2 1394.95 C 960.947 1378.48 953.794 1361.02 944.852 1344.38 C 941.262 1337.7 924.816 1305.69 923.37 1300.86 z" fill="rgb(234,228,204)" transform="translate(0,0)"></path>
<path d="M 616.729 1246.24 L 655.196 1245.99 C 637.673 1328.2 617.102 1409.71 599.688 1491.2 L 552.398 1491.04 C 539.424 1440.01 527.607 1384.95 515.387 1333.25 L 501.556 1276.22 C 499.332 1267.26 495.745 1255 494.201 1246.36 L 534.822 1246.36 C 541.557 1272.79 547.982 1299.29 554.096 1325.87 C 555.576 1332.55 564.02 1373.41 565.791 1377.4 C 571.083 1383.2 571.891 1410.16 577.449 1412.23 C 581.347 1408.01 583.906 1386.07 586.807 1378.24 L 587.988 1377.65 C 592.956 1361.15 598.311 1334.61 601.858 1317.52 L 616.729 1246.24 z" fill="rgb(15,83,88)" transform="translate(0,0)"></path>
<path d="M 565.791 1377.4 C 571.083 1383.2 571.891 1410.16 577.449 1412.23 C 581.347 1408.01 583.906 1386.07 586.807 1378.24 L 587.988 1377.65 C 585.757 1392.49 580.73 1412.68 577.337 1427.76 C 574.344 1415.28 567.317 1389.14 565.791 1377.4 z" fill="rgb(234,228,204)" transform="translate(0,0)"></path>
<path d="M 1420.99 1245.71 L 1539.21 1245.57 L 1539.15 1280.68 C 1513.24 1280.25 1487.31 1280.27 1461.4 1280.74 C 1460.16 1302.89 1460.43 1329.06 1460.1 1351.48 C 1483.07 1351.68 1506.04 1351.64 1529 1351.34 L 1528.96 1385.11 L 1460.82 1384.95 L 1460.78 1418.63 L 1460.8 1458.26 L 1536.69 1458.17 L 1536.54 1492.99 L 1420.67 1492.95 L 1420.99 1245.71 z" fill="rgb(15,83,88)" transform="translate(0,0)"></path>
<path d="M 703.778 1246.04 L 813.84 1245.89 L 813.783 1279.64 L 742.515 1279.34 C 742.279 1302.54 742.755 1326.65 742.926 1349.91 L 804.378 1349.86 L 804.387 1382.8 L 743.491 1383.01 C 743.186 1398.33 743.399 1414.37 743.372 1429.75 C 743.33 1439.58 743.373 1449.41 743.503 1459.24 C 768.077 1459.44 792.652 1459.47 817.226 1459.32 L 816.973 1491.44 C 779.582 1491.88 742.186 1491.95 704.793 1491.66 L 703.778 1246.04 z" fill="rgb(15,83,88)" transform="translate(0,0)"></path>
<path d="M 352.441 1245.5 L 459.796 1245.44 L 459.87 1278.92 L 390.16 1278.84 L 390.704 1349.95 C 409.084 1349.89 427.465 1349.97 445.845 1350.19 C 445.973 1360.58 445.571 1371.46 445.345 1381.88 L 389.989 1381.79 C 389.945 1401.31 390.029 1420.83 390.241 1440.35 L 390.453 1458.88 L 462.64 1458.91 L 462.467 1491.33 C 426.314 1491.12 386.84 1490.71 350.89 1491.82 C 350.826 1428.58 350.734 1315.68 351.206 1247.04 C 351.617 1246.53 352.029 1246.02 352.441 1245.5 z" fill="url(#Gradient10)" transform="translate(0,0)"></path>
<path d="M 1054.7 1246.51 C 1098.84 1246.25 1142.97 1246.24 1187.11 1246.48 C 1187.4 1257.45 1187.22 1268.9 1187.21 1279.9 C 1170.96 1279.85 1154.7 1279.95 1138.45 1280.22 C 1137.7 1304.09 1138.15 1330.47 1138.16 1354.44 C 1138.01 1386.58 1138.14 1418.72 1138.53 1450.86 C 1138.77 1464.37 1138.56 1478.3 1138.52 1491.85 L 1098.87 1491.93 L 1099.06 1280.66 C 1082.24 1280.34 1065.41 1280.2 1048.59 1280.24 C 1048.6 1272.48 1046.56 1252.1 1050.61 1246.83 L 1054.7 1246.51 z" fill="rgb(15,83,88)" transform="translate(0,0)"></path>
<path d="M 665.8 1598.12 C 691.25 1597.44 734.924 1596.1 759.568 1598.4 C 766.286 1599.03 810.091 1625.7 819.721 1631 L 968.178 1712.18 C 986.54 1722.25 1004.28 1733.19 1022.83 1742.92 C 1022.02 1757.98 1023.12 1785.07 1021.61 1797.8 C 1018.04 1796.64 994.533 1782.64 989.934 1779.98 L 920.062 1740.02 C 835.43 1692.25 749.542 1647.06 665.8 1598.12 z" fill="rgb(64,189,126)" transform="translate(0,0)"></path>
<path d="M 1022.83 1742.92 C 1033.97 1738.56 1054.14 1724.87 1066.4 1718.53 C 1127.57 1686.89 1187.23 1651.55 1248.52 1620.23 C 1257.27 1615.76 1286.33 1597.01 1292.91 1596.91 C 1318.6 1596.54 1355.92 1596.47 1381.31 1597.31 C 1363.99 1608.62 1342.79 1619.63 1324.55 1629.84 C 1223.82 1686.21 1122.65 1741.99 1021.61 1797.8 C 1023.12 1785.07 1022.02 1757.98 1022.83 1742.92 z" fill="rgb(22,152,110)" transform="translate(0,0)"></path>
<path d="M 1022.24 1632.97 C 1036.94 1626.38 1083.98 1600.99 1094.55 1598.12 C 1107.9 1594.5 1172.5 1596.04 1190.62 1596.1 C 1136.14 1622.55 1075.74 1658.87 1021.97 1688.03 C 1021.9 1669.81 1021.61 1651.15 1022.24 1632.97 z" fill="rgb(22,152,110)" transform="translate(0,0)"></path>
<path d="M 862.297 1596.94 C 880.667 1597.08 940.169 1594.35 954.081 1598.66 C 964.703 1601.96 974.796 1608.42 984.573 1613.63 C 997.064 1620.2 1009.62 1626.65 1022.24 1632.97 C 1021.61 1651.15 1021.9 1669.81 1021.97 1688.03 C 988.147 1667.14 950.176 1648.01 915.797 1627.79 C 901.624 1619.45 874.558 1606.5 862.297 1596.94 z" fill="rgb(67,203,130)" transform="translate(0,0)"></path>
<path d="M 1024.3 182.244 C 1032.23 196.715 1038.17 211.874 1045.77 226.292 C 1062.29 257.636 1081.89 287.373 1102.98 315.808 C 1106.4 320.412 1115.77 331.647 1118.06 336.17 C 1166.32 395.958 1193.84 477.037 1184.87 553.673 C 1178.51 608.025 1160.19 657.02 1124.93 699.04 C 1107.03 720.369 1087.87 741.728 1072.4 764.741 C 1063.46 778.044 1056.94 793.834 1050.46 808.457 C 1048.87 812.059 1044.16 823.415 1042.38 826.144 L 1041.15 826.023 C 1038.38 831.426 1032.06 836.883 1028.09 841.944 C 1024.24 846.869 1023.26 849.559 1017.05 850.314 C 1016.01 843.899 1015.47 841.801 1013.52 835.705 C 1002.11 809.764 985.942 781.097 968.744 758.425 C 944.978 727.092 912.835 698.256 892.401 664.741 C 884.623 651.982 877.33 630.449 873.375 616.204 C 858.958 564.269 849.758 506.057 867.008 453.671 C 871.102 441.238 875.101 428.016 881.618 416.36 C 893.723 383.101 920.918 349.672 942.006 321.505 C 954.103 305.348 965.703 288.824 976.787 271.956 C 985.953 257.975 994.449 243.566 1002.25 228.778 C 1008.16 217.295 1013.54 204.851 1020 193.785 C 1021.38 189.723 1022.5 186.161 1024.3 182.244 z" fill="rgb(22,152,110)" transform="translate(0,0)"></path>
<path d="M 881.618 416.36 C 889.376 408.928 897.122 382.986 904.385 376.941 C 905.649 380.255 908.012 383.407 908.917 386.429 C 912.638 398.858 914.937 411.85 917.54 424.55 C 918.177 427.637 924.142 440.9 925.856 445.227 L 925.369 445.642 C 923.334 443.34 919.564 438.555 917.073 437.344 L 916.042 438.316 C 916.905 451.128 957.321 538.178 965.903 545.574 L 967.115 545.093 C 981.871 567.62 1001.92 597.581 1019.94 617.858 C 1020.68 630.086 1019.15 696.879 1020.83 703.407 L 1020.83 704.441 C 1019.39 719.572 1021.03 743.122 1020.26 759.789 C 1021.67 788.568 1016.54 818.487 1017.51 843.568 C 1016.67 840.908 1015.76 836.428 1014.01 834.895 L 1013.52 835.705 C 1002.11 809.764 985.942 781.097 968.744 758.425 C 944.978 727.092 912.835 698.256 892.401 664.741 C 884.623 651.982 877.33 630.449 873.375 616.204 C 858.958 564.269 849.758 506.057 867.008 453.671 C 871.102 441.238 875.101 428.016 881.618 416.36 z" fill="rgb(67,203,130)" transform="translate(0,0)"></path>
<path d="M 967.115 545.093 C 981.871 567.62 1001.92 597.581 1019.94 617.858 C 1020.68 630.086 1019.15 696.879 1020.83 703.407 L 1020.83 704.441 C 1019.39 719.572 1021.03 743.122 1020.26 759.789 L 1019.86 760.104 L 1018.28 759.808 L 1016.69 756.656 C 1016.72 756.592 1016.79 756.537 1016.8 756.464 C 1018.35 748.493 952.23 652.748 942.391 635.712 C 950.99 641.003 960.532 664.733 970.528 675.068 C 970.554 674.451 970.579 673.833 970.604 673.215 C 973.208 651.005 969.237 627.045 969.151 604.659 C 969.39 589.608 971.564 574.722 971.52 559.65 C 971.498 552.044 969.381 553.096 966.518 546.931 L 965.903 545.574 L 967.115 545.093 z" fill="rgb(135,220,134)" transform="translate(0,0)"></path>
<path d="M 885.592 539.68 L 884.685 534.827 C 888.954 539.046 899.121 562.195 902.834 568.734 C 911.489 583.974 932.061 623.675 942.391 635.712 C 952.23 652.748 1018.35 748.493 1016.8 756.464 C 1016.79 756.537 1016.72 756.592 1016.69 756.656 L 1014.6 754.614 C 965.589 682.674 917.297 622.604 885.592 539.68 z" fill="url(#Gradient9)" transform="translate(0,0)"></path>
<path d="M 1014.6 754.614 C 1007.54 753.154 981.791 714.115 975.79 706.178 C 942.647 662.351 912.445 614.15 891.984 563.023 C 889.759 557.465 884.97 545.477 885.592 539.68 C 917.297 622.604 965.589 682.674 1014.6 754.614 z" fill="rgb(6,65,37)" transform="translate(0,0)"></path>
<path d="M 1024.3 182.244 C 1032.23 196.715 1038.17 211.874 1045.77 226.292 C 1062.29 257.636 1081.89 287.373 1102.98 315.808 C 1106.4 320.412 1115.77 331.647 1118.06 336.17 C 1111.98 336.496 1097.17 305.159 1087.92 302.089 C 1082.41 304.103 1082.39 318.363 1076.57 325.304 L 1073.1 329.086 L 1072.13 334.196 C 1062.7 347.23 1053.46 364.768 1043.2 379.229 C 1037.74 388.693 1030.91 399.527 1026.53 409.328 C 1023.11 412.178 1021.57 415.473 1019.74 419.573 L 1019.25 426.745 L 1018.84 434.168 L 1019.54 438.451 C 1021.7 468.021 1019.75 514.824 1019.96 545.356 C 1020.4 562.041 1021.07 589.018 1020.13 605.377 L 1020.56 611.889 C 1021.03 616.173 1021.43 614.286 1019.94 617.858 C 1001.92 597.581 981.871 567.62 967.115 545.093 L 965.903 545.574 C 957.321 538.178 916.905 451.128 916.042 438.316 L 917.073 437.344 C 919.564 438.555 923.334 443.34 925.369 445.642 L 925.856 445.227 C 924.142 440.9 918.177 427.637 917.54 424.55 C 914.937 411.85 912.638 398.858 908.917 386.429 C 908.012 383.407 905.649 380.255 904.385 376.941 C 897.122 382.986 889.376 408.928 881.618 416.36 C 893.723 383.101 920.918 349.672 942.006 321.505 C 954.103 305.348 965.703 288.824 976.787 271.956 C 985.953 257.975 994.449 243.566 1002.25 228.778 C 1008.16 217.295 1013.54 204.851 1020 193.785 C 1021.38 189.723 1022.5 186.161 1024.3 182.244 z" fill="url(#Gradient8)" transform="translate(0,0)"></path>
<path d="M 1024.3 182.244 C 1032.23 196.715 1038.17 211.874 1045.77 226.292 C 1062.29 257.636 1081.89 287.373 1102.98 315.808 C 1106.4 320.412 1115.77 331.647 1118.06 336.17 C 1111.98 336.496 1097.17 305.159 1087.92 302.089 C 1082.41 304.103 1082.39 318.363 1076.57 325.304 L 1073.1 329.086 L 1072.13 334.196 C 1062.7 347.23 1053.46 364.768 1043.2 379.229 C 1037.74 388.693 1030.91 399.527 1026.53 409.328 C 1023.11 412.178 1021.57 415.473 1019.74 419.573 L 1020 193.785 C 1021.38 189.723 1022.5 186.161 1024.3 182.244 z" fill="rgb(67,203,130)" transform="translate(0,0)"></path>
<path d="M 1073.1 329.086 L 1072.13 334.196 C 1062.7 347.23 1053.46 364.768 1043.2 379.229 L 1042.23 379.37 L 1041.44 378.337 C 1042.88 372.13 1067.83 336.845 1073.1 329.086 z" fill="rgb(135,220,134)" transform="translate(0,0)"></path>
<path d="M 919.718 443.297 C 923.281 445.118 931.304 461.423 933.392 465.545 C 955.817 509.805 987.897 547.917 1011.73 591.319 C 1014.03 595.505 1017.39 601.625 1020.13 605.377 L 1020.56 611.889 C 1021.03 616.173 1021.43 614.286 1019.94 617.858 C 1001.92 597.581 981.871 567.62 967.115 545.093 C 958.685 530.64 918.596 456.923 919.718 443.297 z" fill="url(#Gradient7)" transform="translate(0,0)"></path>
<path d="M 967.115 545.093 C 958.685 530.64 918.596 456.923 919.718 443.297 C 946.793 505.165 980.734 557.876 1020.56 611.889 C 1021.03 616.173 1021.43 614.286 1019.94 617.858 C 1001.92 597.581 981.871 567.62 967.115 545.093 z" fill="rgb(8,111,71)" transform="translate(0,0)"></path>
<path d="M 1019.54 438.451 C 1018.85 437.903 1018.16 437.343 1017.49 436.771 C 1001.95 423.534 966.979 367.986 965.322 349.591 L 966.686 350.331 L 967.944 350.279 C 977.534 364.781 1008.87 416.702 1019.25 426.745 L 1018.84 434.168 L 1019.54 438.451 z" fill="rgb(8,111,71)" transform="translate(0,0)"></path>
<path d="M 966.686 350.331 L 967.944 350.279 C 977.534 364.781 1008.87 416.702 1019.25 426.745 L 1018.84 434.168 C 1002.31 411.3 977.125 376.049 966.686 350.331 z" fill="rgb(241,240,231)" transform="translate(0,0)"></path>
<path d="M 1123.29 517.419 L 1124.66 518.192 C 1123.54 524.642 1120.39 532.823 1118.37 539.175 C 1101.15 593.383 1068.77 641.92 1037.06 688.61 C 1033.85 693.33 1026.96 704.703 1020.83 704.441 L 1020.83 703.407 C 1023.9 699.596 1035.92 676.909 1037.24 671.902 C 1039.47 666.985 1047.91 653.638 1051.09 648.236 C 1075.85 608.22 1105.3 560.086 1123.29 517.419 z" fill="rgb(6,65,37)" transform="translate(0,0)"></path>
<path d="M 1073.1 329.086 L 1076.57 325.304 C 1076.38 334.764 1070.5 342.329 1067.46 351.007 C 1066.28 357.031 1071.14 353.242 1069.43 360.713 C 1064.46 382.449 1053.59 398.871 1038.92 415.271 C 1035.11 419.53 1027.27 434.686 1021.56 432.96 C 1020.72 449.186 1021.8 469.3 1021.97 485.941 C 1022.16 504.318 1021.2 525.472 1022.24 543.433 C 1021.53 544.057 1020.71 544.834 1019.96 545.356 C 1019.75 514.824 1021.7 468.021 1019.54 438.451 L 1018.84 434.168 L 1019.25 426.745 L 1019.74 419.573 C 1021.57 415.473 1023.11 412.178 1026.53 409.328 C 1030.91 399.527 1037.74 388.693 1043.2 379.229 C 1053.46 364.768 1062.7 347.23 1072.13 334.196 L 1073.1 329.086 z" fill="rgb(64,189,126)" transform="translate(0,0)"></path>
<path d="M 1072.13 334.196 C 1072.3 345.316 1036.44 401.483 1026.53 409.328 C 1030.91 399.527 1037.74 388.693 1043.2 379.229 C 1053.46 364.768 1062.7 347.23 1072.13 334.196 z" fill="rgb(6,65,37)" transform="translate(0,0)"></path>
<path d="M 1049.23 646.885 C 1059.08 625.816 1078.86 595.743 1090.05 574.329 C 1094.55 565.725 1118.78 522.566 1123.29 517.419 C 1105.3 560.086 1075.85 608.22 1051.09 648.236 L 1049.23 646.885 z" fill="rgb(241,240,231)" transform="translate(0,0)"></path>
<path d="M 1037.24 671.902 C 1037.08 666.899 1046.17 651.217 1049.23 646.885 L 1051.09 648.236 C 1047.91 653.638 1039.47 666.985 1037.24 671.902 z" fill="rgb(135,220,134)" transform="translate(0,0)"></path>
<path d="M 1116.92 379.52 C 1116.02 382.842 1114.74 386.44 1113.65 389.737 C 1112.74 412.336 1038.88 552.451 1021.88 553.182 C 1021.77 545.224 1030.98 533.968 1033.34 527.813 C 1030 520.607 1038.43 508.046 1042.54 501.951 C 1048.76 488.33 1061.3 470.528 1069.31 457.401 C 1084.92 431.814 1102.29 405.609 1116.92 379.52 z" fill="rgb(6,65,37)" transform="translate(0,0)"></path>
<path d="M 1116.92 379.52 C 1116.02 382.842 1114.74 386.44 1113.65 389.737 C 1098.54 422.342 1085.16 448.116 1064.92 478.138 C 1058.92 487.042 1051.96 500.083 1045.47 508.219 C 1043.29 508.531 1041.9 510.097 1040.41 511.573 C 1041.55 507.723 1041.96 505.922 1042.54 501.951 C 1048.76 488.33 1061.3 470.528 1069.31 457.401 C 1084.92 431.814 1102.29 405.609 1116.92 379.52 z" fill="rgb(135,220,134)" transform="translate(0,0)"></path>
<path d="M 1033.34 527.813 C 1030 520.607 1038.43 508.046 1042.54 501.951 C 1041.96 505.922 1041.55 507.723 1040.41 511.573 C 1041.9 510.097 1043.29 508.531 1045.47 508.219 C 1041.68 515.592 1037.24 521.034 1033.34 527.813 z" fill="rgb(115,216,84)" transform="translate(0,0)"></path>
<path d="M 1259.21 649.354 C 1271.33 644.583 1287.47 641.297 1300.52 636.075 C 1361.45 611.704 1399.76 587.216 1435.3 532.017 C 1435.75 538.997 1435.78 547.069 1435.97 554.145 C 1435.74 565.315 1435.6 576.56 1435.23 587.721 C 1431.74 692.504 1400.91 807.724 1323.37 882.196 C 1269.22 934.462 1196.65 963.266 1121.4 962.355 C 1109.78 962.115 1086.19 960.125 1075.68 954.992 C 1072.82 951.745 1064.61 947.071 1060.46 944.156 L 1061.77 939.158 C 1060.92 936.601 1061.09 935.918 1060.93 933.215 C 1050.55 866.084 1060.74 821.698 1096.58 763.015 C 1138.57 694.271 1182.23 667.783 1259.21 649.354 z" fill="url(#Gradient6)" transform="translate(0,0)"></path>
<path d="M 1060.93 933.215 C 1050.55 866.084 1060.74 821.698 1096.58 763.015 C 1138.57 694.271 1182.23 667.783 1259.21 649.354 L 1260.3 650.55 C 1255.21 652.453 1251.7 653.002 1246.62 654.384 C 1245.76 656.349 1244.92 658.324 1244.1 660.307 C 1238.46 673.983 1238.69 727.592 1237.93 745.061 C 1237.73 749.723 1234.6 755.047 1235 760.555 C 1242.63 759.516 1259.48 740.929 1263.61 743.454 C 1220.35 776.899 1163.5 809.383 1125.64 849.499 C 1120.9 852.935 1114.95 860.587 1110.82 865.168 C 1090.84 887.325 1076.45 907.908 1060.93 933.215 z" fill="url(#Gradient5)" transform="translate(0,0)"></path>
<path d="M 1259.21 649.354 C 1271.33 644.583 1287.47 641.297 1300.52 636.075 C 1361.45 611.704 1399.76 587.216 1435.3 532.017 C 1435.75 538.997 1435.78 547.069 1435.97 554.145 L 1433.6 553.625 C 1428.97 573.219 1420.94 588.402 1410.56 605.598 C 1409.13 607.96 1399.78 622.524 1399.31 623.961 C 1392.8 631.836 1382.55 644.983 1375.81 652.111 C 1371.82 652.28 1369.36 655.188 1366.22 657.894 C 1370.34 651.84 1385.87 636.088 1386.65 630.695 C 1353.6 668.986 1316.89 707.313 1274.76 735.66 C 1271.2 738.059 1267.23 741.406 1263.61 743.454 C 1259.48 740.929 1242.63 759.516 1235 760.555 C 1234.6 755.047 1237.73 749.723 1237.93 745.061 C 1238.69 727.592 1238.46 673.983 1244.1 660.307 C 1244.92 658.324 1245.76 656.349 1246.62 654.384 C 1251.7 653.002 1255.21 652.453 1260.3 650.55 L 1259.21 649.354 z" fill="rgb(118,203,90)" transform="translate(0,0)"></path>
<path d="M 1386.65 630.695 C 1388.82 624.481 1395.84 616.35 1400.16 611.4 C 1414.97 594.399 1428.7 574.55 1432.93 551.866 L 1433.6 553.625 C 1428.97 573.219 1420.94 588.402 1410.56 605.598 C 1409.13 607.96 1399.78 622.524 1399.31 623.961 C 1392.8 631.836 1382.55 644.983 1375.81 652.111 C 1371.82 652.28 1369.36 655.188 1366.22 657.894 C 1370.34 651.84 1385.87 636.088 1386.65 630.695 z" fill="rgb(115,216,84)" transform="translate(0,0)"></path>
<path d="M 1386.65 630.695 C 1385.87 636.088 1370.34 651.84 1366.22 657.894 C 1369.36 655.188 1371.82 652.28 1375.81 652.111 C 1349.57 684.453 1325.39 709.438 1292.76 735.445 C 1282.99 743.235 1219.94 788.269 1217.9 792.902 L 1218.54 793.91 C 1213.4 794.509 1215.62 793.583 1211.58 796.744 C 1201.64 800.773 1187.71 812.779 1177.46 820.423 C 1133.56 853.179 1091.84 890.534 1063.45 938.05 C 1063.33 938.36 1063.21 938.671 1063.09 938.982 L 1061.77 939.158 C 1060.92 936.601 1061.09 935.918 1060.93 933.215 C 1076.45 907.908 1090.84 887.325 1110.82 865.168 C 1114.95 860.587 1120.9 852.935 1125.64 849.499 C 1163.5 809.383 1220.35 776.899 1263.61 743.454 C 1267.23 741.406 1271.2 738.059 1274.76 735.66 C 1316.89 707.313 1353.6 668.986 1386.65 630.695 z" fill="url(#Gradient4)" transform="translate(0,0)"></path>
<path d="M 1386.65 630.695 C 1385.87 636.088 1370.34 651.84 1366.22 657.894 L 1364.84 659.127 C 1348.66 673.668 1331.43 695.453 1313.42 709.919 C 1293.49 725.917 1272.52 740.595 1251.88 755.637 L 1155.55 826.621 C 1151.31 829.748 1127.68 849.322 1125.64 849.499 C 1163.5 809.383 1220.35 776.899 1263.61 743.454 C 1267.23 741.406 1271.2 738.059 1274.76 735.66 C 1316.89 707.313 1353.6 668.986 1386.65 630.695 z" fill="rgb(234,228,204)" transform="translate(0,0)"></path>
<path d="M 1312.22 791.743 L 1313.52 792.83 L 1313.13 793.775 C 1317.99 793.546 1322.84 793.243 1327.69 792.865 C 1318.07 802.083 1266.22 806.301 1250.84 807.743 C 1240.32 808.73 1214.07 806.893 1206.2 812.297 C 1168.19 838.394 1130.43 867.654 1097.48 899.938 C 1088.58 908.648 1070.27 935.296 1064.31 939.295 L 1063.09 938.982 C 1063.21 938.671 1063.33 938.36 1063.45 938.05 C 1091.84 890.534 1133.56 853.179 1177.46 820.423 C 1187.71 812.779 1201.64 800.773 1211.58 796.744 C 1215.62 793.583 1213.4 794.509 1218.54 793.91 L 1229.1 793.761 C 1256.62 792.781 1284.38 792.749 1312.22 791.743 z" fill="rgb(6,65,37)" transform="translate(0,0)"></path>
<path d="M 1312.22 791.743 L 1313.52 792.83 L 1313.13 793.775 C 1290.01 796.092 1232.16 802.356 1211.58 796.744 C 1215.62 793.583 1213.4 794.509 1218.54 793.91 L 1229.1 793.761 C 1256.62 792.781 1284.38 792.749 1312.22 791.743 z" fill="rgb(241,240,231)" transform="translate(0,0)"></path>
<path d="M 1375.81 652.111 C 1382.55 644.983 1392.8 631.836 1399.31 623.961 C 1396.17 634.162 1383.81 647.433 1377.29 656.426 C 1360.52 679.59 1342.39 700.022 1321.52 719.552 C 1292.62 746.596 1258.94 768.259 1229.1 793.761 L 1218.54 793.91 L 1217.9 792.902 C 1219.94 788.269 1282.99 743.235 1292.76 735.445 C 1325.39 709.438 1349.57 684.453 1375.81 652.111 z" fill="rgb(6,65,37)" transform="translate(0,0)"></path>
<path d="M 1312.22 791.743 C 1316.21 790.85 1323.67 790.426 1327.43 791.725 L 1327.69 792.865 C 1322.84 793.243 1317.99 793.546 1313.13 793.775 L 1313.52 792.83 L 1312.22 791.743 z" fill="rgb(67,203,130)" transform="translate(0,0)"></path>
<path d="M 1137.1 883.913 L 1137.25 883.155 C 1142.11 879.784 1232.16 875.321 1242.66 876.839 C 1249.85 877.521 1253.99 877.2 1261.2 876.776 C 1231.73 888.729 1146.19 894.229 1112.5 894.002 C 1119.32 890.724 1134.59 886.671 1137.1 883.913 z" fill="rgb(6,65,37)" transform="translate(0,0)"></path>
<path d="M 1137.1 883.913 L 1137.25 883.155 C 1142.11 879.784 1232.16 875.321 1242.66 876.839 C 1238.29 876.63 1229.42 878.403 1224.28 878.942 C 1211.31 880.239 1198.32 881.339 1185.31 882.244 C 1171.15 883.244 1148.99 882.332 1137.1 883.913 z" fill="rgb(241,240,231)" transform="translate(0,0)"></path>
<path d="M 610.898 539.808 C 647.146 585.235 695.27 608.258 747.6 630.104 C 759.419 635.038 775.123 640.126 786.078 645.336 C 801.723 649.273 840.404 662.082 853.022 668.675 C 892.039 689.061 935.699 733.67 958.303 771.511 C 992.747 829.171 1004.31 869.981 988.802 936.554 L 987.92 939.179 L 987.199 939.002 L 981.112 937.212 C 983.411 940.432 984.271 941.102 984.532 945.084 C 983.277 949.351 980.356 951.953 977.358 955.38 C 951.474 969.4 876.769 959.179 848.835 950.467 C 805.054 936.813 753.409 910.581 721.693 877.033 C 684.936 838.155 658.013 780.355 639.513 730.808 C 624.642 685.024 614.41 616.255 612.946 567.534 C 611.618 559.099 611.352 548.491 610.898 539.808 z" fill="rgb(63,181,89)" transform="translate(0,0)"></path>
<path d="M 633.349 703.397 C 642.92 712.732 650.787 724.602 660.416 734.846 C 672.276 747.464 694.992 763.063 704.636 775.973 C 700.174 779.392 692.337 776.232 689.501 778.657 L 690.838 779.434 L 690.415 778.466 C 692.889 780.152 693.35 780.411 696.292 780.939 C 705.112 777.134 809.433 790.816 824.275 795.505 L 830.626 799.171 C 834.91 800.169 836.635 800.872 839.249 804.915 C 853.857 816.378 869.253 826.759 884.176 838.6 C 905.941 855.871 923.925 875.046 944.307 893.656 C 957.233 905.458 969.89 926.35 981.112 937.212 C 983.411 940.432 984.271 941.102 984.532 945.084 C 983.277 949.351 980.356 951.953 977.358 955.38 C 951.474 969.4 876.769 959.179 848.835 950.467 C 805.054 936.813 753.409 910.581 721.693 877.033 C 684.936 838.155 658.013 780.355 639.513 730.808 C 640.661 724.314 635.452 710.099 633.349 703.397 z" fill="rgb(16,131,61)" transform="translate(0,0)"></path>
<path d="M 696.292 780.939 C 705.112 777.134 809.433 790.816 824.275 795.505 L 830.626 799.171 C 834.91 800.169 836.635 800.872 839.249 804.915 C 821.42 808.585 711.439 794.096 696.865 783.154 L 697.099 781.608 L 696.292 780.939 z" fill="rgb(6,65,37)" transform="translate(0,0)"></path>
<path d="M 696.292 780.939 C 705.112 777.134 809.433 790.816 824.275 795.505 L 830.626 799.171 C 829.058 799.405 811.042 797.025 808.159 796.766 C 770.027 793.335 734.78 787.926 697.099 781.608 L 696.292 780.939 z" fill="rgb(241,240,231)" transform="translate(0,0)"></path>
<path d="M 941.331 897.713 C 925.468 897.332 909.905 894.515 894.205 893.007 C 863.284 890.036 832.847 889.206 802.385 882.659 C 798.48 881.82 778.803 874.989 776.501 873.233 C 779.172 872.718 787.193 874.546 791.682 874.36 C 809.142 873.339 898.934 876.883 913.191 886.266 C 917.481 889.044 931.937 892.126 941.331 897.713 z" fill="rgb(6,65,37)" transform="translate(0,0)"></path>
<path d="M 791.682 874.36 C 809.142 873.339 898.934 876.883 913.191 886.266 C 874.228 879.109 827.143 883.132 791.682 874.36 z" fill="rgb(241,240,231)" transform="translate(0,0)"></path>
<path d="M 612.946 567.534 C 613.581 560.78 613.603 557.216 613.423 550.439 L 614.404 550.072 C 617.522 558.74 619.358 565.021 623.966 573.04 C 627.916 579.913 639.096 593.255 641.39 599.88 C 645.614 607.062 650.095 614.437 654.162 621.678 L 652.356 622.448 C 685.712 679.943 721.731 719.272 775.046 759.442 C 782.248 764.868 822.27 791.822 824.275 795.505 C 809.433 790.816 705.112 777.134 696.292 780.939 C 693.35 780.411 692.889 780.152 690.415 778.466 L 690.838 779.434 L 689.501 778.657 C 692.337 776.232 700.174 779.392 704.636 775.973 C 694.992 763.063 672.276 747.464 660.416 734.846 C 650.787 724.602 642.92 712.732 633.349 703.397 C 635.452 710.099 640.661 724.314 639.513 730.808 C 624.642 685.024 614.41 616.255 612.946 567.534 z" fill="rgb(63,181,89)" transform="translate(0,0)"></path>
<path d="M 652.356 622.448 C 647.848 620.209 640.181 605.233 641.39 599.88 C 645.614 607.062 650.095 614.437 654.162 621.678 L 652.356 622.448 z" fill="rgb(16,131,61)" transform="translate(0,0)"></path>
<path d="M 610.898 539.808 C 647.146 585.235 695.27 608.258 747.6 630.104 C 759.419 635.038 775.123 640.126 786.078 645.336 C 776.669 646.329 757.399 632.613 753.043 635.836 C 753.462 646.552 757.854 650.396 760.72 660.937 C 764.462 674.703 767.343 694.453 768.544 709.131 C 768.824 712.548 763.598 722.531 765.97 725.664 C 772.095 733.755 802.484 748.216 806.187 756.45 C 777.587 739.217 719.083 693.973 695.966 670.456 C 684.66 659.15 674.25 646.981 664.83 634.061 C 662.868 631.419 661.465 628.594 658.608 627.531 C 657.022 626.185 655.423 623.504 654.162 621.678 C 650.095 614.437 645.614 607.062 641.39 599.88 C 639.096 593.255 627.916 579.913 623.966 573.04 C 619.358 565.021 617.522 558.74 614.404 550.072 L 613.423 550.439 C 613.603 557.216 613.581 560.78 612.946 567.534 C 611.618 559.099 611.352 548.491 610.898 539.808 z" fill="rgb(118,203,90)" transform="translate(0,0)"></path>
<path d="M 652.356 622.448 L 654.162 621.678 C 655.423 623.504 657.022 626.185 658.608 627.531 C 661.465 628.594 662.868 631.419 664.83 634.061 C 674.25 646.981 684.66 659.15 695.966 670.456 C 719.083 693.973 777.587 739.217 806.187 756.45 C 855.645 791.979 881.356 807.601 925.351 851.793 L 924.821 854.647 C 932.539 863.997 958.593 890.155 958.806 899.775 C 966.768 909.927 981.403 927.851 987.199 939.002 L 981.112 937.212 C 969.89 926.35 957.233 905.458 944.307 893.656 C 923.925 875.046 905.941 855.871 884.176 838.6 C 869.253 826.759 853.857 816.378 839.249 804.915 C 836.635 800.872 834.91 800.169 830.626 799.171 L 824.275 795.505 C 822.27 791.822 782.248 764.868 775.046 759.442 C 721.731 719.272 685.712 679.943 652.356 622.448 z" fill="rgb(115,216,84)" transform="translate(0,0)"></path>
<path d="M 652.356 622.448 L 654.162 621.678 C 655.423 623.504 657.022 626.185 658.608 627.531 C 663.615 636.032 680.114 658.337 687.1 665.487 C 690.142 672.503 699.432 682.458 704.758 688.134 C 756.712 743.502 822.452 780.864 881.58 827.599 C 911.487 851.238 933.21 871.986 958.806 899.775 C 966.768 909.927 981.403 927.851 987.199 939.002 L 981.112 937.212 C 969.89 926.35 957.233 905.458 944.307 893.656 C 923.925 875.046 905.941 855.871 884.176 838.6 C 869.253 826.759 853.857 816.378 839.249 804.915 C 836.635 800.872 834.91 800.169 830.626 799.171 L 824.275 795.505 C 822.27 791.822 782.248 764.868 775.046 759.442 C 721.731 719.272 685.712 679.943 652.356 622.448 z" fill="rgb(6,65,37)" transform="translate(0,0)"></path>
<path d="M 658.608 627.531 C 661.465 628.594 662.868 631.419 664.83 634.061 C 674.25 646.981 684.66 659.15 695.966 670.456 C 719.083 693.973 777.587 739.217 806.187 756.45 C 855.645 791.979 881.356 807.601 925.351 851.793 L 924.821 854.647 C 914.633 843.829 902.07 832.945 890.622 823.476 C 833.826 776.5 769.004 740.24 714.065 690.987 C 704.936 682.804 696.726 673.051 687.1 665.487 C 680.114 658.337 663.615 636.032 658.608 627.531 z" fill="rgb(234,228,204)" transform="translate(0,0)"></path>
<path d="M 925.351 851.793 C 942.792 869.952 958.632 889.584 972.695 910.469 C 976.819 916.668 985.847 932.618 988.802 936.554 L 987.92 939.179 L 987.199 939.002 C 981.403 927.851 966.768 909.927 958.806 899.775 C 958.593 890.155 932.539 863.997 924.821 854.647 L 925.351 851.793 z" fill="rgb(209,243,136)" transform="translate(0,0)"></path>
<path d="M 1017.05 850.314 C 1023.26 849.559 1024.24 846.869 1028.09 841.944 C 1032.06 836.883 1038.38 831.426 1041.15 826.023 L 1042.38 826.144 C 1032.66 854.517 1034.73 866.838 1034.84 896.492 L 1035.88 995.297 C 1040.48 982.536 1051.58 953.708 1060.46 944.156 C 1064.61 947.071 1072.82 951.745 1075.68 954.992 C 1067.34 966.134 1063.62 976.948 1057.46 988.673 C 1034.24 1032.85 1047.11 1079.95 1042.58 1126.61 L 1041.68 1130.73 C 1036.94 1133.51 1016.82 1132.31 1009.95 1132.38 C 1010.18 1122.33 1010.61 1110.55 1009.82 1100.66 C 1009.01 1089 1010.09 1071.27 1009.67 1058.48 C 1008.59 1021.79 997.409 986.118 977.358 955.38 C 980.356 951.953 983.277 949.351 984.532 945.084 C 984.271 941.102 983.411 940.432 981.112 937.212 L 987.199 939.002 L 987.92 939.179 C 989.725 943.332 997.627 955.507 1000.21 960.233 C 1007.63 973.801 1011.19 983.538 1015.71 998.232 C 1015.25 950.38 1016.4 898.572 1017.05 850.314 z" fill="rgb(15,83,88)" transform="translate(0,0)"></path>
<path d="M 706.132 340.576 L 705.54 339.364 C 732.216 349.788 761.777 359.193 775.865 387.06 C 787.773 409.805 789.83 424.425 788.888 449.723 L 797.496 458.013 C 772.345 444.683 749.424 449.927 730.162 424.116 C 722.966 415.301 714.901 399.215 712.928 387.959 C 710.988 383.58 709.523 376.039 708.978 371.33 C 708.364 369.025 708.161 366.257 707.87 363.84 C 706.892 361.815 706.048 343.624 706.132 340.576 z" fill="rgb(64,189,126)" transform="translate(0,0)"></path>
<path d="M 706.132 340.576 C 715.032 345.163 740.487 388.134 747.088 397.673 C 751.751 404.412 760.177 412.069 765.257 418.599 C 768.816 422.981 777.723 432.437 777.464 437.767 L 775.51 437.542 C 768.9 431.424 746.445 430.44 737.923 425.183 C 734.162 422.863 734.114 422.739 730.162 424.116 C 722.966 415.301 714.901 399.215 712.928 387.959 C 710.988 383.58 709.523 376.039 708.978 371.33 C 708.364 369.025 708.161 366.257 707.87 363.84 C 706.892 361.815 706.048 343.624 706.132 340.576 z" fill="rgb(110,216,175)" transform="translate(0,0)"></path>
<path d="M 712.928 387.959 C 715.828 390.204 715.634 391.102 717.349 394.202 C 722.187 396.274 730.137 402.859 735.004 406.059 C 743.652 411.744 756.761 416.023 762.52 424.289 L 759.911 426.189 C 752.952 423.988 744.787 421.104 738.719 417.036 L 737.127 417.311 C 741.906 423.446 765.171 427.244 772.074 431.668 C 773.266 432.431 776.457 436.475 777.464 437.767 L 775.51 437.542 C 768.9 431.424 746.445 430.44 737.923 425.183 C 734.162 422.863 734.114 422.739 730.162 424.116 C 722.966 415.301 714.901 399.215 712.928 387.959 z" fill="rgb(63,181,89)" transform="translate(0,0)"></path>
<path d="M 717.349 394.202 C 722.187 396.274 730.137 402.859 735.004 406.059 C 743.652 411.744 756.761 416.023 762.52 424.289 C 751.559 418.983 723.53 403.919 717.349 394.202 z" fill="rgb(110,216,175)" transform="translate(0,0)"></path>
<path d="M 708.978 371.33 L 710.168 371.064 C 714.773 376.812 716.534 376.377 721.059 380.286 L 720.404 380.922 L 717.546 380.688 C 718.376 382.125 727.64 388.539 729.744 389.13 C 737.661 391.353 768.637 422.353 768.098 426.68 C 764.501 427.692 763.735 426 759.911 426.189 L 762.52 424.289 C 756.761 416.023 743.652 411.744 735.004 406.059 C 730.137 402.859 722.187 396.274 717.349 394.202 C 715.634 391.102 715.828 390.204 712.928 387.959 C 710.988 383.58 709.523 376.039 708.978 371.33 z" fill="rgb(64,189,126)" transform="translate(0,0)"></path>
<path d="M 715.648 384.768 C 720.486 386.064 736.402 399.468 741.214 403.292 C 733.922 402.219 721.388 390.125 715.648 384.768 z" fill="rgb(110,216,175)" transform="translate(0,0)"></path>
<path d="M 707.87 363.84 L 709.436 363.263 C 708.244 360.165 708.234 361.686 708.731 358.659 C 715.429 361.465 737.978 386.183 742.637 394.657 C 736.479 391.064 725.944 385.074 720.404 380.922 L 721.059 380.286 C 716.534 376.377 714.773 376.812 710.168 371.064 L 708.978 371.33 C 708.364 369.025 708.161 366.257 707.87 363.84 z" fill="rgb(64,189,126)" transform="translate(0,0)"></path>
<path d="M 710.168 371.064 L 710.934 369.95 C 714.05 372.166 723.388 378.54 724.82 381.541 C 723.611 381.142 722.243 380.72 721.059 380.286 C 716.534 376.377 714.773 376.812 710.168 371.064 z" fill="rgb(135,220,134)" transform="translate(0,0)"></path>
<path d="M 706.132 340.576 L 705.54 339.364 C 732.216 349.788 761.777 359.193 775.865 387.06 L 773.654 388.006 C 771.738 386.777 771.193 386.581 768.944 386.223 L 768.345 387.133 L 767.141 387 L 764.966 386.969 C 763.056 389.984 763.834 389.892 764.201 394.407 C 757.676 391.95 759.367 373.147 750.991 367.854 L 748.821 368.881 C 747.082 365.009 746.303 362.812 743.786 359.45 L 742.642 359.277 C 742.685 366.842 744.633 370.325 745.564 376.827 L 747.021 381.937 L 750.229 385.507 C 750.9 384.104 748.886 372.636 748.796 369.633 C 755.445 376.186 750.487 392.526 762.652 400.179 C 764.271 405.988 767.631 412.165 770.341 417.642 C 768.065 418.558 767.798 418.334 765.257 418.599 C 760.177 412.069 751.751 404.412 747.088 397.673 C 740.487 388.134 715.032 345.163 706.132 340.576 z" fill="rgb(67,203,130)" transform="translate(0,0)"></path>
<path d="M 747.021 381.937 C 747.65 384.147 747.542 384.026 747.739 386.346 C 743.209 384.09 730.185 358.053 729.49 352.551 L 731.614 351.655 C 739.553 354.814 740.831 373.469 745.564 376.827 L 747.021 381.937 z" fill="url(#Gradient3)" transform="translate(0,0)"></path>
<path d="M 768.329 396.989 C 770.233 404.258 772.041 411.531 774.439 418.653 C 771.929 418.646 772.829 418.693 770.341 417.642 C 767.631 412.165 764.271 405.988 762.652 400.179 C 764.71 402.787 763.718 402.261 766.422 403.513 C 766.911 400.914 767.335 399.439 768.329 396.989 z" fill="rgb(63,181,89)" transform="translate(0,0)"></path>
<path d="M 768.329 396.989 L 766.868 391.213 L 768.293 390.671 C 770.57 395.962 774.668 412.029 775.557 417.952 L 774.439 418.653 C 772.041 411.531 770.233 404.258 768.329 396.989 z" fill="rgb(110,216,175)" transform="translate(0,0)"></path>
<path d="M 1788.41 944.019 C 1791.74 943.983 1795.46 943.436 1798 945.286 C 1798.5 948.269 1797.56 949.471 1796.26 952.234 C 1793.06 963.199 1787.6 979.067 1780.63 988.271 C 1767.88 1009.15 1740.68 1021.99 1717.68 1027.47 C 1712.36 1028.7 1706.94 1029.53 1701.49 1029.96 C 1698.14 1030.42 1696.01 1031.02 1692.78 1030.02 C 1691.02 1026.42 1691.94 1025.81 1692.5 1020.98 C 1694.13 1009.26 1696.49 1000.23 1701.75 989.715 C 1709.66 975.494 1720.53 964.27 1734.87 956.412 C 1750.48 946.128 1770.5 944.535 1788.41 944.019 z" fill="rgb(8,111,71)" transform="translate(0,0)"></path>
<path d="M 1734.87 956.412 C 1750.48 946.128 1770.5 944.535 1788.41 944.019 C 1792.15 945.054 1792.63 944.439 1794.28 946.89 C 1791.34 950.583 1789.25 950.531 1786.64 953.613 L 1784.31 953.708 C 1779.42 957.982 1771.76 962.745 1766.16 966.343 C 1741.32 982.286 1720.07 1002.18 1698.47 1022.15 C 1697.44 1021.82 1693.77 1021.22 1692.5 1020.98 C 1694.13 1009.26 1696.49 1000.23 1701.75 989.715 C 1709.66 975.494 1720.53 964.27 1734.87 956.412 z" fill="url(#Gradient2)" transform="translate(0,0)"></path>
<path d="M 1734.87 956.412 C 1750.48 946.128 1770.5 944.535 1788.41 944.019 C 1792.15 945.054 1792.63 944.439 1794.28 946.89 C 1791.34 950.583 1789.25 950.531 1786.64 953.613 L 1784.31 953.708 C 1779.5 953.837 1778.68 956.003 1771.95 955.908 C 1771.55 955.477 1771.14 955.046 1770.74 954.615 C 1766.8 952.471 1753.95 956.225 1750.14 957.321 C 1734.74 961.448 1724.95 972.463 1713.94 983.091 C 1711.43 985.508 1707.19 987.341 1705.8 990.715 C 1704.93 992.813 1705.58 991.957 1704.41 993.061 L 1702.98 990.416 L 1701.75 989.715 C 1709.66 975.494 1720.53 964.27 1734.87 956.412 z" fill="rgb(67,203,130)" transform="translate(0,0)"></path>
<path d="M 1734.87 956.412 C 1733.93 959.269 1726.09 965.063 1723 967.598 C 1715.46 973.793 1709.12 984.989 1702.98 990.416 L 1701.75 989.715 C 1709.66 975.494 1720.53 964.27 1734.87 956.412 z" fill="rgb(8,111,71)" transform="translate(0,0)"></path>
<path d="M 1703.85 1024.93 C 1713.56 1015.13 1759.32 976.409 1770.8 971.096 C 1765.46 981.826 1754.93 988.403 1752.23 999.798 L 1752.87 1001.61 C 1744.3 1009.4 1715.18 1021.42 1703.85 1024.93 z" fill="url(#Gradient1)" transform="translate(0,0)"></path>
<path d="M 1788.41 944.019 C 1791.74 943.983 1795.46 943.436 1798 945.286 C 1798.5 948.269 1797.56 949.471 1796.26 952.234 C 1791.8 955.671 1787.72 965.713 1784.48 971.174 C 1776.95 983.898 1765.6 994.277 1752.87 1001.61 L 1752.23 999.798 C 1754.93 988.403 1765.46 981.826 1770.8 971.096 C 1772.04 968.286 1781.78 960.269 1785.24 956.493 C 1786.67 954.749 1786.23 955.72 1786.64 953.613 C 1789.25 950.531 1791.34 950.583 1794.28 946.89 C 1792.63 944.439 1792.15 945.054 1788.41 944.019 z" fill="rgb(135,220,134)" transform="translate(0,0)"></path>
<path d="M 1701.49 1029.96 C 1703.06 1025.81 1711.81 1024.17 1716.74 1022.75 C 1744.11 1014.88 1755.6 1006.01 1776.26 987.139 C 1778.08 985.473 1778.88 984.485 1780.78 984.691 L 1779.85 987.033 L 1780.63 988.271 C 1767.88 1009.15 1740.68 1021.99 1717.68 1027.47 C 1712.36 1028.7 1706.94 1029.53 1701.49 1029.96 z" fill="rgb(22,152,110)" transform="translate(0,0)"></path>
<path d="M 1786.64 953.613 C 1786.23 955.72 1786.67 954.749 1785.24 956.493 C 1766.86 968.289 1750.65 980.049 1733.82 993.907 C 1723.42 1002.46 1708.34 1017.43 1698.24 1024.54 L 1697.51 1023.94 L 1698.47 1022.15 C 1720.07 1002.18 1741.32 982.286 1766.16 966.343 C 1771.76 962.745 1779.42 957.982 1784.31 953.708 L 1786.64 953.613 z" fill="rgb(241,240,231)" transform="translate(0,0)"></path>
<path d="M 1338.27 356.452 L 1341.58 356.115 L 1342.79 357.406 L 1342.34 359.344 C 1341.21 367.609 1339.86 374.882 1338.26 383.08 C 1334.54 400.117 1331.41 405.66 1320.36 419.346 C 1301.89 441.659 1287.25 443.326 1259.99 450.48 C 1257.62 451.725 1251.08 453.969 1248.27 455.021 C 1265.18 429.199 1247.9 399.011 1285.58 373.556 C 1290.18 370.82 1294.86 368.743 1299.69 366.464 L 1303.79 364.324 L 1308.29 362.666 C 1317.54 359.626 1328.59 357.999 1338.27 356.452 z" fill="rgb(67,203,130)" transform="translate(0,0)"></path>
<path d="M 1335.59 380.501 L 1338.26 383.08 C 1334.54 400.117 1331.41 405.66 1320.36 419.346 C 1301.89 441.659 1287.25 443.326 1259.99 450.48 C 1261.98 446.204 1264.18 445.789 1268.93 443.05 L 1268.11 442.058 C 1265.34 442.919 1262.46 444.999 1260.37 444.478 L 1259.89 442.647 C 1261.82 437.817 1266.87 429.746 1272.53 429.228 L 1274.15 431.131 C 1277.62 431.269 1277.58 430.527 1281.2 428.554 L 1280.28 428.044 C 1278.72 427.35 1279.43 427.881 1278.27 426.301 C 1278.5 423.955 1279.05 423.408 1280.43 421.522 L 1279.88 421.42 C 1281.6 414.282 1290.19 406.036 1295.21 400.754 C 1299.84 399.676 1306.59 397.908 1310.61 395.406 C 1317.59 392.183 1329.93 385.359 1335.59 380.501 z" fill="rgb(63,181,89)" transform="translate(0,0)"></path>
<path d="M 1317.85 419.141 L 1320.36 419.346 C 1301.89 441.659 1287.25 443.326 1259.99 450.48 C 1261.98 446.204 1264.18 445.789 1268.93 443.05 L 1268.11 442.058 C 1276.65 437.6 1289.64 434.735 1298.58 430.608 C 1305.79 427.282 1310.11 422.557 1317.85 419.141 z" fill="rgb(63,181,89)" transform="translate(0,0)"></path>
<path d="M 1268.11 442.058 C 1276.65 437.6 1289.64 434.735 1298.58 430.608 C 1305.79 427.282 1310.11 422.557 1317.85 419.141 C 1306.91 432.464 1284.93 437.727 1268.93 443.05 L 1268.11 442.058 z" fill="rgb(110,216,175)" transform="translate(0,0)"></path>
<path d="M 1278.27 426.301 C 1292.22 420.746 1303.03 415.214 1315.96 407.405 C 1321.11 404.289 1330.03 395.542 1333.38 394.375 C 1331.52 404.62 1289.67 423.966 1280.28 428.044 C 1278.72 427.35 1279.43 427.881 1278.27 426.301 z" fill="rgb(110,216,175)" transform="translate(0,0)"></path>
<path d="M 1315.54 399.144 C 1316.15 399.083 1316.75 399.362 1317.35 399.505 C 1315.49 401.557 1303.87 404.65 1300.24 405.802 L 1299.68 406.008 L 1298.72 405.549 C 1301.22 401.939 1311.18 400.076 1315.54 399.144 z" fill="rgb(110,216,175)" transform="translate(0,0)"></path>
<path d="M 1299.69 366.464 C 1301.54 370.577 1295.19 392.391 1293.8 398.485 C 1291.43 401.23 1289.1 404.002 1286.8 406.8 C 1288.48 388.501 1286.64 385.783 1296.28 370.712 L 1295 369.752 C 1285.34 376.736 1284.97 397.515 1284.13 408.77 C 1280.24 413.359 1276.62 417.866 1272.25 422.005 L 1270.27 420.664 L 1270.46 418.782 L 1271.6 419.018 C 1274.02 415.663 1274.26 402.98 1276.34 396.643 C 1279.13 388.109 1282.04 381.81 1285.58 373.556 C 1290.18 370.82 1294.86 368.743 1299.69 366.464 z" fill="rgb(64,189,126)" transform="translate(0,0)"></path>
<path d="M 1295.21 400.754 C 1307.58 388.015 1327.67 369.64 1342.34 359.344 C 1341.21 367.609 1339.86 374.882 1338.26 383.08 L 1335.59 380.501 C 1329.93 385.359 1317.59 392.183 1310.61 395.406 C 1306.59 397.908 1299.84 399.676 1295.21 400.754 z" fill="rgb(64,189,126)" transform="translate(0,0)"></path>
<path d="M 1310.61 395.406 C 1313.22 390.644 1330.45 381.466 1335.59 380.501 C 1329.93 385.359 1317.59 392.183 1310.61 395.406 z" fill="rgb(110,216,175)" transform="translate(0,0)"></path>
<path d="M 1308.29 362.666 C 1317.54 359.626 1328.59 357.999 1338.27 356.452 L 1340.07 357.571 C 1333.29 365.253 1319.06 374.554 1310.9 381.718 C 1312.57 376.801 1314.51 371.885 1315.22 366.778 L 1314.49 365.998 L 1313.7 366.734 C 1311.12 370.778 1311.33 378.523 1306.81 380.459 C 1305.61 377.228 1305.83 372.439 1305.7 368.765 C 1304.44 370.218 1303.83 371.304 1302.31 372.159 L 1303.79 364.324 L 1308.29 362.666 z" fill="rgb(63,181,89)" transform="translate(0,0)"></path>
<path d="M 1260.69 436.401 C 1262.91 426.628 1266.07 402.523 1270.28 394.904 L 1271.62 394.741 C 1274.08 398.359 1271.26 413.733 1270.46 418.782 L 1270.27 420.664 L 1272.25 422.005 C 1270.71 425.147 1263.24 433.649 1260.69 436.401 z" fill="rgb(63,181,89)" transform="translate(0,0)"></path>
<path d="M 255.593 956.19 C 255.168 952.951 254.38 950.377 255.731 947.538 C 261.303 946.933 267.641 948.449 273.193 949.181 C 298.934 952.572 337.785 968.277 350.34 993.143 C 355.465 1001.67 360.503 1013.84 362.149 1023.67 C 362.308 1024.95 362.403 1024.25 361.46 1025.64 C 332.205 1029.71 297.817 1022.56 277.414 1000.32 C 264.629 986.393 260.181 974.013 255.593 956.19 z" fill="rgb(67,203,130)" transform="translate(0,0)"></path>
<path d="M 255.593 956.19 C 255.168 952.951 254.38 950.377 255.731 947.538 C 261.303 946.933 267.641 948.449 273.193 949.181 C 298.934 952.572 337.785 968.277 350.34 993.143 C 351.075 998.789 353.174 1001.88 353.797 1006.5 L 353.043 1007.4 C 354.36 1008.56 355.356 1009.62 356.581 1010.87 L 356.564 1012.66 L 353.983 1014.36 C 336.087 1002.26 315.933 989.834 298.896 976.726 C 288.996 971.079 264.095 951.673 258.516 949.267 L 256.856 949.959 L 255.593 956.19 z" fill="rgb(67,203,130)" transform="translate(0,0)"></path>
<path d="M 291.45 968.48 L 307.71 968.346 C 326.329 980.286 339.409 989.923 353.797 1006.5 L 353.043 1007.4 C 354.36 1008.56 355.356 1009.62 356.581 1010.87 L 356.564 1012.66 L 353.983 1014.36 C 336.087 1002.26 315.933 989.834 298.896 976.726 C 296.217 973.446 294.459 971.454 291.45 968.48 z" fill="rgb(64,189,126)" transform="translate(0,0)"></path>
<path d="M 256.856 949.959 L 258.516 949.267 C 264.095 951.673 288.996 971.079 298.896 976.726 C 315.933 989.834 336.087 1002.26 353.983 1014.36 L 356.564 1012.66 L 356.581 1010.87 C 355.356 1009.62 354.36 1008.56 353.043 1007.4 L 353.797 1006.5 C 353.174 1001.88 351.075 998.789 350.34 993.143 C 355.465 1001.67 360.503 1013.84 362.149 1023.67 L 360.58 1022.96 C 351.362 1027.25 352.313 1021.41 343.59 1019.13 C 341.282 1018.52 335.309 1018.45 332.682 1018.33 L 336.259 1016.25 L 336.684 1014.34 C 331.551 1008.91 318.127 999.913 311.793 994.696 C 295.341 981.142 278.297 968.482 261.971 954.75 C 260.699 956.227 260.302 956.447 258.473 957.115 L 256.856 949.959 z" fill="rgb(110,216,175)" transform="translate(0,0)"></path>
<path d="M 256.856 949.959 L 258.473 957.115 C 262.481 974.828 280.159 997.283 295.578 1006.81 C 308.11 1014.55 318.454 1016.5 332.682 1018.33 C 335.309 1018.45 341.282 1018.52 343.59 1019.13 C 352.313 1021.41 351.362 1027.25 360.58 1022.96 L 362.149 1023.67 C 362.308 1024.95 362.403 1024.25 361.46 1025.64 C 332.205 1029.71 297.817 1022.56 277.414 1000.32 C 264.629 986.393 260.181 974.013 255.593 956.19 L 256.856 949.959 z" fill="rgb(16,131,61)" transform="translate(0,0)"></path>
<metadata><recraft-signature>{"signed_by": "recraft", "signature_b64": "tazdy/E5RgnKN+8ZsWY5S2TvoD9y+KfxBkZa1LBAtmh5VuaYO0R/nl4PEU5mBKl4lvjkLbdgKrdrtKRaJBvMDQ==", "signing_algo": "Ed25519", "generation_timestamp": 1783498992, "identifier": "1960f597-06a3-4850-9394-e4c8e002945b"}</recraft-signature></metadata></svg>