<svg xmlns="http://www.w3.org/2000/svg" height="1024" preserveAspectRatio="none" style="display: block;" version="1.1" viewBox="0 0 2048 2048" width="1024">
<defs>
	<linearGradient gradientUnits="userSpaceOnUse" id="Gradient1" x1="496.895" x2="560.514" y1="1267.91" y2="1083.07">
		<stop class="stop0" offset="0" stop-color="rgb(16,54,63)" stop-opacity="1"></stop>
		<stop class="stop1" offset="1" stop-color="rgb(43,110,111)" stop-opacity="1"></stop>
	</linearGradient>
	<linearGradient gradientUnits="userSpaceOnUse" id="Gradient2" x1="644.431" x2="715.033" y1="1270.59" y2="856.731">
		<stop class="stop0" offset="0" stop-color="rgb(10,63,64)" stop-opacity="1"></stop>
		<stop class="stop1" offset="1" stop-color="rgb(37,94,98)" stop-opacity="1"></stop>
	</linearGradient>
	<linearGradient gradientUnits="userSpaceOnUse" id="Gradient3" x1="1336.88" x2="1256.84" y1="1110.01" y2="980.604">
		<stop class="stop0" offset="0" stop-color="rgb(13,131,49)" stop-opacity="1"></stop>
		<stop class="stop1" offset="1" stop-color="rgb(13,155,92)" stop-opacity="1"></stop>
	</linearGradient>
	<linearGradient gradientUnits="userSpaceOnUse" id="Gradient4" x1="1344.33" x2="1287.98" y1="1540.51" y2="1412.81">
		<stop class="stop0" offset="0" stop-color="rgb(25,135,94)" stop-opacity="1"></stop>
		<stop class="stop1" offset="1" stop-color="rgb(27,165,104)" stop-opacity="1"></stop>
	</linearGradient>
	<linearGradient gradientUnits="userSpaceOnUse" id="Gradient5" x1="1024.92" x2="914.207" y1="514.949" y2="455.123">
		<stop class="stop0" offset="0" stop-color="rgb(12,162,89)" stop-opacity="1"></stop>
		<stop class="stop1" offset="1" stop-color="rgb(12,209,123)" stop-opacity="1"></stop>
	</linearGradient>
	<linearGradient gradientUnits="userSpaceOnUse" id="Gradient6" x1="1063.26" x2="990.63" y1="449.438" y2="390.964">
		<stop class="stop0" offset="0" stop-color="rgb(11,154,78)" stop-opacity="1"></stop>
		<stop class="stop1" offset="1" stop-color="rgb(19,228,140)" stop-opacity="1"></stop>
	</linearGradient>
	<linearGradient gradientUnits="userSpaceOnUse" id="Gradient7" x1="1071.38" x2="1032.95" y1="933.495" y2="556.485">
		<stop class="stop0" offset="0" stop-color="rgb(150,90,52)" stop-opacity="1"></stop>
		<stop class="stop1" offset="1" stop-color="rgb(181,168,95)" stop-opacity="1"></stop>
	</linearGradient>
	<linearGradient gradientUnits="userSpaceOnUse" id="Gradient8" x1="1332.78" x2="1136.6" y1="848.834" y2="512.768">
		<stop class="stop0" offset="0" stop-color="rgb(100,199,144)" stop-opacity="1"></stop>
		<stop class="stop1" offset="1" stop-color="rgb(161,216,171)" stop-opacity="1"></stop>
	</linearGradient>
	<linearGradient gradientUnits="userSpaceOnUse" id="Gradient9" x1="1177.92" x2="564.777" y1="755.038" y2="399.005">
		<stop class="stop0" offset="0" stop-color="rgb(177,219,175)" stop-opacity="1"></stop>
		<stop class="stop1" offset="1" stop-color="rgb(213,232,210)" stop-opacity="1"></stop>
	</linearGradient>
	<linearGradient gradientUnits="userSpaceOnUse" id="Gradient10" x1="1138.82" x2="909.566" y1="1048.92" y2="292.061">
		<stop class="stop0" offset="0" stop-color="rgb(7,52,56)" stop-opacity="1"></stop>
		<stop class="stop1" offset="1" stop-color="rgb(63,109,121)" stop-opacity="1"></stop>
	</linearGradient>
</defs>
<path d="M 0 0 L 2048 0 L 2048 2048 L 0 2048 L 0 0 z" fill="rgb(247,247,245)" transform="translate(0,0)"></path>
<path d="M 1022.98 244.571 C 1031.63 248.708 1049.57 260.118 1058 265.523 C 1075.81 274.362 1095.73 287.55 1113.26 297.826 L 1266.56 389.655 L 1398.76 468.793 C 1513.43 535.524 1627.61 603.096 1741.29 671.503 C 1705.23 694.438 1660.3 718.749 1622.81 739.736 L 1511.65 803.33 L 1175.96 998.581 L 1082.55 1052.59 C 1061.34 1064.87 1044.46 1073.95 1023.89 1087.6 C 977.98 1058.44 921.308 1027.93 873.447 1000.4 L 614.509 850.124 L 402.268 726.826 L 345.327 693.777 C 335.571 688.012 317.844 676.849 308.083 672.563 C 471.649 572.854 635.948 474.352 800.966 377.066 C 847.239 348.974 893.755 321.284 940.509 294.001 C 945.286 291.247 971.375 274.612 974.031 273.618 C 985.817 264.935 1009.69 252.131 1022.98 244.571 z" fill="url(#Gradient10)" transform="translate(0,0)"></path>
<path d="M 1022.98 244.571 C 1031.63 248.708 1049.57 260.118 1058 265.523 C 1053.22 265.397 1048.21 265.573 1043.68 267.315 L 1041.56 270.942 C 1039.29 271.178 1030.85 269.471 1030.91 269.45 C 1020.43 273.531 1018.8 272.693 1010.36 268.168 C 1008.4 267.114 996.907 274.387 991.488 271.81 L 990.425 269.165 C 985.014 269.452 986.335 275.422 977.692 273.613 L 975.538 275.414 L 974.031 273.618 C 985.817 264.935 1009.69 252.131 1022.98 244.571 z" fill="rgb(61,109,119)" transform="translate(0,0)"></path>
<path d="M 1023.13 298.615 C 1038.63 308.9 1055.03 317.684 1070.76 327.593 C 1118.14 357.444 1168.6 383.366 1215.71 413.55 C 1233.28 423.171 1251.51 434.458 1268.85 444.674 L 1388.32 516.574 C 1458.35 559.572 1530.18 600.357 1600.57 642.804 C 1615.12 651.58 1630.24 659.946 1644.41 669.264 C 1633.06 676.92 1620.58 683.76 1608.62 690.456 C 1571.62 711.187 1534.82 732.423 1498.1 753.662 L 1147.96 956.387 C 1118.09 974.08 1087.27 990.761 1057.77 1009.24 C 1047.8 1015.49 1031.52 1024.31 1022.37 1030.98 C 1016.58 1029.09 986.562 1008.99 979.159 1004.75 C 921.94 972.203 865.055 939.075 808.513 905.368 L 565.124 763.438 L 462.084 704.143 C 443.829 693.551 422.121 681.544 404.615 670.074 C 420.383 656.899 471.107 627.951 490.399 616.456 L 645.517 524.312 C 660.243 515.726 674.484 506.145 689.179 497.336 C 739.557 467.704 789.704 437.681 839.616 407.269 L 1023.13 298.615 z" fill="url(#Gradient9)" transform="translate(0,0)"></path>
<path d="M 1215.71 413.55 C 1233.28 423.171 1251.51 434.458 1268.85 444.674 L 1388.32 516.574 C 1458.35 559.572 1530.18 600.357 1600.57 642.804 C 1615.12 651.58 1630.24 659.946 1644.41 669.264 C 1633.06 676.92 1620.58 683.76 1608.62 690.456 C 1571.62 711.187 1534.82 732.423 1498.1 753.662 L 1147.96 956.387 C 1118.09 974.08 1087.27 990.761 1057.77 1009.24 C 1047.8 1015.49 1031.52 1024.31 1022.37 1030.98 C 1022.06 1000.07 1022.05 969.161 1022.34 938.254 L 1009.13 938.347 C 1010.12 910.364 1009.77 879.46 1010.06 851.286 C 1011.33 840.437 1010.78 817.271 1010.8 805.841 L 1010.95 721.817 C 1008.02 718.602 1005.44 716.23 1002.26 713.291 C 997.995 706.871 957.689 673.093 949.161 665.594 C 953.698 663.635 956.04 663.256 958.03 659.162 L 955.974 655.302 C 974.773 666.557 992.498 678.903 1011.86 689.434 C 1012.01 679.371 1013.08 641.558 1011.09 634.27 L 1013.17 631.775 C 1017.54 629.71 1022.15 629.662 1026.98 629.468 C 1034.63 624.086 1041.57 619.691 1038.69 609.604 L 1036.67 609.344 C 1033.82 604.488 1033.37 566.54 1033.47 558.643 C 1040.21 549.14 1045.22 545.603 1054.43 538.367 L 1052.48 537.574 C 1057.89 531.393 1091.11 510.243 1097.62 506.516 C 1107.74 500.713 1190.2 475.314 1197.82 477.723 C 1200.54 483.595 1200.44 495.743 1200.61 502.382 C 1205.18 495.066 1209.56 483.121 1215.11 474.9 C 1228.04 455.752 1226.26 461.613 1246.99 459.11 C 1250.94 458.634 1266.26 451.816 1270.81 449.674 L 1271.02 448.405 C 1260.6 440.257 1220.4 421.237 1215.71 413.55 z" fill="url(#Gradient8)" transform="translate(0,0)"></path>
<path d="M 1054.43 538.367 C 1066.07 529.7 1085.57 515.025 1098.29 508.76 C 1128.25 493.999 1165.9 487.829 1197.08 478.342 C 1197.58 518.09 1192.67 537.654 1176.59 575.082 C 1164.33 596.159 1153.89 610.961 1134.71 626.778 C 1132.28 628.781 1115.46 641.419 1114.66 642.353 C 1115.28 645.19 1115.34 644.971 1117.54 646.938 C 1119.49 647.5 1119.74 647.596 1121.77 647.901 C 1092.55 676.443 1066.58 697.203 1037.05 723.76 L 1037 810.447 C 1037 818.789 1036.58 845.046 1037.63 851.718 C 1039.05 877.546 1038.03 911.841 1038.03 938.412 L 1022.34 938.254 L 1009.13 938.347 C 1010.12 910.364 1009.77 879.46 1010.06 851.286 C 1011.33 840.437 1010.78 817.271 1010.8 805.841 L 1010.95 721.817 C 1008.02 718.602 1005.44 716.23 1002.26 713.291 C 997.995 706.871 957.689 673.093 949.161 665.594 C 953.698 663.635 956.04 663.256 958.03 659.162 L 955.974 655.302 C 974.773 666.557 992.498 678.903 1011.86 689.434 C 1012.01 679.371 1013.08 641.558 1011.09 634.27 L 1013.17 631.775 C 1017.54 629.71 1022.15 629.662 1026.98 629.468 C 1034.63 624.086 1041.57 619.691 1038.69 609.604 L 1036.67 609.344 C 1033.82 604.488 1033.37 566.54 1033.47 558.643 C 1040.21 549.14 1045.22 545.603 1054.43 538.367 z" fill="rgb(17,131,83)" transform="translate(0,0)"></path>
<path d="M 1127.16 546.483 L 1128.39 548.258 C 1116.75 557.642 1106.39 568.886 1095.65 579.253 C 1093.37 581.449 1083.91 590.976 1081.96 592.167 C 1075.5 599.373 1043.57 629.819 1036.82 634.447 C 1036.87 648.869 1036.27 676.123 1037.93 689.468 C 1065.57 675.337 1089.1 659.714 1114.66 642.353 C 1115.28 645.19 1115.34 644.971 1117.54 646.938 C 1119.49 647.5 1119.74 647.596 1121.77 647.901 C 1092.55 676.443 1066.58 697.203 1037.05 723.76 L 1037 810.447 C 1037 818.789 1036.58 845.046 1037.63 851.718 C 1039.05 877.546 1038.03 911.841 1038.03 938.412 L 1022.34 938.254 L 1009.13 938.347 C 1010.12 910.364 1009.77 879.46 1010.06 851.286 C 1011.33 840.437 1010.78 817.271 1010.8 805.841 L 1010.95 721.817 C 1008.02 718.602 1005.44 716.23 1002.26 713.291 C 997.995 706.871 957.689 673.093 949.161 665.594 C 953.698 663.635 956.04 663.256 958.03 659.162 L 955.974 655.302 C 974.773 666.557 992.498 678.903 1011.86 689.434 C 1012.01 679.371 1013.08 641.558 1011.09 634.27 L 1013.17 631.775 C 1017.54 629.71 1022.15 629.662 1026.98 629.468 C 1034.63 624.086 1041.57 619.691 1038.69 609.604 L 1042.77 607.155 C 1074.46 585.333 1096.35 570.647 1127.16 546.483 z" fill="url(#Gradient7)" transform="translate(0,0)"></path>
<path d="M 1127.16 546.483 C 1130.33 543.57 1136.34 537.206 1140.11 536.563 C 1137.84 540.56 1132.07 545.186 1128.39 548.258 L 1127.16 546.483 z" fill="rgb(66,191,142)" transform="translate(0,0)"></path>
<path d="M 1197.57 696.424 C 1231.44 699.869 1277.51 703.907 1310.91 696.326 C 1301.83 713.05 1293.92 732.051 1283.38 747.821 C 1251.13 796.06 1199.5 829.173 1144.7 846.12 C 1103.26 858.936 1079.08 856.604 1037.63 851.718 C 1036.58 845.046 1037 818.789 1037 810.447 L 1037.05 723.76 C 1055.23 733.333 1139.04 719.253 1160.04 712.041 C 1170.64 708.399 1187.18 698.468 1197.57 696.424 z" fill="rgb(12,92,62)" transform="translate(0,0)"></path>
<path d="M 1178.13 574.971 C 1184 570.331 1242.08 570.951 1253.41 568.65 C 1255.62 568.203 1266.45 567.881 1269.12 567.843 C 1262.88 625.918 1241.52 659.51 1197.57 696.424 C 1187.18 698.468 1170.64 708.399 1160.04 712.041 C 1139.04 719.253 1055.23 733.333 1037.05 723.76 C 1066.58 697.203 1092.55 676.443 1121.77 647.901 C 1119.74 647.596 1119.49 647.5 1117.54 646.938 C 1115.34 644.971 1115.28 645.19 1114.66 642.353 C 1115.46 641.419 1132.28 628.781 1134.71 626.778 C 1153.89 610.961 1164.33 596.159 1176.59 575.082 L 1178.13 574.971 z" fill="rgb(17,131,83)" transform="translate(0,0)"></path>
<path d="M 1114.66 642.353 C 1115.46 641.419 1132.28 628.781 1134.71 626.778 C 1153.89 610.961 1164.33 596.159 1176.59 575.082 L 1178.13 574.971 C 1164.79 604.147 1144.61 625.916 1121.77 647.901 C 1119.74 647.596 1119.49 647.5 1117.54 646.938 C 1115.34 644.971 1115.28 645.19 1114.66 642.353 z" fill="rgb(169,179,107)" transform="translate(0,0)"></path>
<path d="M 752.072 699.155 C 787.37 699.202 822.025 697.773 857.79 697.971 L 858.665 698.06 C 870.222 700.952 880.967 707.127 892.314 710.573 C 918.341 718.478 945.62 723.34 972.757 725.187 C 978.848 725.602 1001.94 725.169 1006.3 722.557 C 1005.8 716.889 1002.99 719.429 1002.26 713.291 C 1005.44 716.23 1008.02 718.602 1010.95 721.817 L 1010.8 805.841 C 1010.78 817.271 1011.33 840.437 1010.06 851.286 C 991.545 855.372 972.505 856.533 953.631 854.726 C 929.19 854.607 889.247 840.336 867.122 829.623 C 826.584 809.996 789.039 778.095 767.517 738.071 C 760.969 725.895 756.579 712.216 752.072 699.155 z" fill="rgb(18,168,99)" transform="translate(0,0)"></path>
<path d="M 858.665 698.06 C 870.222 700.952 880.967 707.127 892.314 710.573 C 918.341 718.478 945.62 723.34 972.757 725.187 C 978.848 725.602 1001.94 725.169 1006.3 722.557 C 1005.8 716.889 1002.99 719.429 1002.26 713.291 C 1005.44 716.23 1008.02 718.602 1010.95 721.817 L 1010.8 805.841 C 1010.78 817.271 1011.33 840.437 1010.06 851.286 C 991.545 855.372 972.505 856.533 953.631 854.726 C 962.702 851.3 986.974 856.533 1006.47 849.793 C 1010.49 841.374 1007.62 810.031 1007.51 798.506 C 978.504 787.155 867.152 723.867 858.665 698.06 z" fill="rgb(12,92,62)" transform="translate(0,0)"></path>
<path d="M 848.465 480.309 C 877.214 485.286 920.965 496.783 947.98 508.451 C 961.37 514.233 980.94 528.608 992.924 537.63 C 1000.88 537.344 1010.58 554.344 1016.8 557.9 C 1024.81 553.871 1023.76 552.589 1032.47 556.316 C 1037.96 550.237 1044.75 541.202 1052.48 537.574 L 1054.43 538.367 C 1045.22 545.603 1040.21 549.14 1033.47 558.643 C 1033.37 566.54 1033.82 604.488 1036.67 609.344 L 1038.69 609.604 C 1041.57 619.691 1034.63 624.086 1026.98 629.468 C 1022.15 629.662 1017.54 629.71 1013.17 631.775 L 1011.09 634.27 C 1013.08 641.558 1012.01 679.371 1011.86 689.434 C 992.498 678.903 974.773 666.557 955.974 655.302 C 934.598 640.127 920.925 630.92 901.29 613.79 C 886.339 599.372 879.79 589.197 868.655 571.81 C 852.319 537.474 848.866 518.06 848.465 480.309 z" fill="rgb(18,168,99)" transform="translate(0,0)"></path>
<path d="M 992.924 537.63 C 1000.88 537.344 1010.58 554.344 1016.8 557.9 C 1024.81 553.871 1023.76 552.589 1032.47 556.316 C 1037.96 550.237 1044.75 541.202 1052.48 537.574 L 1054.43 538.367 C 1045.22 545.603 1040.21 549.14 1033.47 558.643 C 1033.37 566.54 1033.82 604.488 1036.67 609.344 L 1038.69 609.604 C 1041.57 619.691 1034.63 624.086 1026.98 629.468 C 1022.15 629.662 1017.54 629.71 1013.17 631.775 L 1011.09 634.27 C 1007.22 630.277 1003.19 626.463 999.072 622.73 C 979.325 604.841 960.432 585.989 940.371 568.45 L 943.109 565.834 C 952.636 572.117 962.964 578.595 972.228 585.09 C 986.593 595.16 997.447 604.422 1013.21 612.462 C 1012.88 592.798 1013.64 578.579 1015.04 559.045 C 1007.68 550.399 1000.09 545.276 992.924 537.63 z" fill="rgb(169,179,107)" transform="translate(0,0)"></path>
<path d="M 940.371 568.45 C 929.302 558.715 917.476 549.972 907.359 539.357 C 917.381 545.775 932.217 558.102 943.109 565.834 L 940.371 568.45 z" fill="rgb(119,218,166)" transform="translate(0,0)"></path>
<path d="M 776.981 570.962 C 801.766 571.507 843.611 570.856 867.197 572.937 L 868.655 571.81 C 879.79 589.197 886.339 599.372 901.29 613.79 C 920.925 630.92 934.598 640.127 955.974 655.302 L 958.03 659.162 C 956.04 663.256 953.698 663.635 949.161 665.594 C 957.689 673.093 997.995 706.871 1002.26 713.291 C 1002.99 719.429 1005.8 716.889 1006.3 722.557 C 1001.94 725.169 978.848 725.602 972.757 725.187 C 945.62 723.34 918.341 718.478 892.314 710.573 C 880.967 707.127 870.222 700.952 858.665 698.06 L 857.79 697.971 C 852.435 692 840.211 682.01 833.661 675.159 C 801.748 641.776 785.847 615.869 776.981 570.962 z" fill="rgb(18,168,99)" transform="translate(0,0)"></path>
<path d="M 901.29 613.79 C 920.925 630.92 934.598 640.127 955.974 655.302 L 958.03 659.162 C 956.04 663.256 953.698 663.635 949.161 665.594 C 931.916 650.252 915.394 634.116 899.648 617.239 L 901.29 613.79 z" fill="rgb(169,179,107)" transform="translate(0,0)"></path>
<path d="M 868.655 571.81 C 879.79 589.197 886.339 599.372 901.29 613.79 L 899.648 617.239 C 885.654 601.585 877.684 590.67 867.197 572.937 L 868.655 571.81 z" fill="rgb(119,218,166)" transform="translate(0,0)"></path>
<path d="M 1024.76 346.53 C 1033.48 351.718 1053.45 382.429 1058.43 392.009 C 1066.37 407.32 1073.67 426.064 1068.21 443.302 C 1063.3 458.843 1038.73 478.782 1024.99 485.925 C 1020.55 485.973 1016.26 484.276 1013.07 481.374 C 1000.15 469.597 982.498 457.024 980.408 438.584 C 977.107 409.442 1007.42 368.703 1024.76 346.53 z" fill="url(#Gradient6)" transform="translate(0,0)"></path>
<path d="M 1126.94 434.051 C 1128.07 434.757 1127.43 434.22 1128.45 436.059 C 1127.85 445.052 1124.91 454.147 1122.43 462.669 C 1114.89 488.523 1097.2 502.808 1074.98 516.445 C 1060.71 525.205 1046.53 534.257 1031.26 541.813 C 1028.76 531.355 1028.82 507.051 1028.76 495.897 C 1061.41 464.22 1082.32 447.85 1126.94 434.051 z" fill="rgb(18,168,99)" transform="translate(0,0)"></path>
<path d="M 921.711 434.395 C 960.236 444.794 990.587 464.679 1017.2 493.93 C 1017.43 508.804 1016.15 524.665 1015.62 539.713 C 1010.09 541.563 961.911 509.12 954.366 503.837 C 930.042 486.809 924.961 462.431 921.711 434.395 z" fill="url(#Gradient5)" transform="translate(0,0)"></path>
<path d="M 1587.46 1243.34 C 1597.77 1249.28 1613.52 1258.8 1623.97 1263.64 C 1677.77 1293.15 1731.04 1323.63 1783.75 1355.05 L 1664.48 1424.27 C 1642.18 1437.12 1619.64 1449.14 1597.38 1462.26 L 1150.1 1726.69 C 1133.25 1736.61 1032.46 1799.29 1023.22 1800.47 C 1024.56 1788.71 1023.37 1756.13 1023.17 1742.54 C 1024.57 1734.57 1023.89 1695.86 1023.86 1685.84 C 1024.09 1678.61 1024.94 1633.37 1023.21 1630.32 C 1023.23 1624.14 1024.02 1609.09 1022.32 1604.26 L 1022.77 1603.92 C 1022.74 1593.53 1023.04 1580.94 1022.02 1570.77 C 1033.71 1565.88 1056.13 1551.47 1068.07 1544.33 L 1140.07 1502.22 L 1381.6 1361.89 L 1470.72 1309.91 C 1491.32 1297.73 1518.63 1280.56 1539.67 1270.44 C 1555.7 1261.82 1571.31 1252.07 1587.46 1243.34 z" fill="rgb(13,57,61)" transform="translate(0,0)"></path>
<path d="M 1022.02 1570.77 C 1033.71 1565.88 1056.13 1551.47 1068.07 1544.33 L 1140.07 1502.22 L 1381.6 1361.89 L 1470.72 1309.91 C 1491.32 1297.73 1518.63 1280.56 1539.67 1270.44 C 1545.39 1278.2 1558.66 1281.49 1565.45 1288.66 L 1612.2 1313.85 C 1618.78 1317.4 1629.4 1323.58 1635.84 1326.43 C 1615.72 1336.21 1595.65 1349.08 1575.83 1359.69 C 1533.16 1382.53 1492.73 1407.2 1451.27 1431.99 L 1222.69 1567.39 L 1088.34 1645.84 C 1073.42 1654.64 1035.59 1675.83 1023.86 1685.84 C 1024.09 1678.61 1024.94 1633.37 1023.21 1630.32 C 1023.23 1624.14 1024.02 1609.09 1022.32 1604.26 L 1022.77 1603.92 C 1022.74 1593.53 1023.04 1580.94 1022.02 1570.77 z" fill="url(#Gradient4)" transform="translate(0,0)"></path>
<path d="M 1022.02 1570.77 C 1033.71 1565.88 1056.13 1551.47 1068.07 1544.33 L 1140.07 1502.22 L 1381.6 1361.89 L 1470.72 1309.91 C 1491.32 1297.73 1518.63 1280.56 1539.67 1270.44 C 1545.39 1278.2 1558.66 1281.49 1565.45 1288.66 C 1416.05 1378.03 1265.69 1465.79 1114.4 1551.91 C 1097.94 1561.24 1035.03 1600.58 1022.77 1603.92 C 1022.74 1593.53 1023.04 1580.94 1022.02 1570.77 z" fill="rgb(12,92,62)" transform="translate(0,0)"></path>
<path d="M 1635.84 1326.43 C 1646.86 1331.56 1670.08 1347.43 1683.03 1354.66 C 1597.17 1407.48 1508.36 1456.1 1421.77 1507.82 L 1185.42 1646.83 L 1107.41 1692.71 C 1079.86 1709.25 1051.3 1727.18 1023.17 1742.54 C 1024.57 1734.57 1023.89 1695.86 1023.86 1685.84 C 1035.59 1675.83 1073.42 1654.64 1088.34 1645.84 L 1222.69 1567.39 L 1451.27 1431.99 C 1492.73 1407.2 1533.16 1382.53 1575.83 1359.69 C 1595.65 1349.08 1615.72 1336.21 1635.84 1326.43 z" fill="rgb(12,92,62)" transform="translate(0,0)"></path>
<path d="M 459.383 1242.81 C 472.95 1249.09 496.373 1264.46 510.132 1272.53 C 529.727 1283.26 550.279 1296.29 569.837 1307.65 L 759.553 1418.29 L 929.059 1515.96 C 951.581 1528.85 973.965 1541.98 996.205 1555.35 C 1003.73 1559.87 1015.02 1566.06 1022.02 1570.77 C 1023.04 1580.94 1022.74 1593.53 1022.77 1603.92 L 1022.32 1604.26 C 1024.02 1609.09 1023.23 1624.14 1023.21 1630.32 C 1024.94 1633.37 1024.09 1678.61 1023.86 1685.84 C 1023.89 1695.86 1024.57 1734.57 1023.17 1742.54 C 1023.37 1756.13 1024.56 1788.71 1023.22 1800.47 L 539.95 1516.8 C 447.71 1462.84 357.25 1407.25 263.832 1354.59 C 285.125 1344.39 306.399 1331.3 326.955 1319.53 L 424.058 1264.3 C 435.931 1257.3 447.707 1250.13 459.383 1242.81 z" fill="rgb(13,57,61)" transform="translate(0,0)"></path>
<path d="M 510.132 1272.53 C 529.727 1283.26 550.279 1296.29 569.837 1307.65 L 759.553 1418.29 L 929.059 1515.96 C 951.581 1528.85 973.965 1541.98 996.205 1555.35 C 1003.73 1559.87 1015.02 1566.06 1022.02 1570.77 C 1023.04 1580.94 1022.74 1593.53 1022.77 1603.92 L 1022.32 1604.26 C 1024.02 1609.09 1023.23 1624.14 1023.21 1630.32 C 1021.99 1639.68 1022.93 1673.39 1022.69 1685.59 C 938.649 1635.83 851.986 1588.27 766.956 1540.02 L 577.897 1430.93 C 520.632 1398.5 464.28 1361.27 406.845 1330.61 C 432.291 1317.54 458.647 1302.58 483.638 1288.54 C 492.555 1282.74 500.943 1277.85 510.132 1272.53 z" fill="rgb(66,191,142)" transform="translate(0,0)"></path>
<path d="M 510.132 1272.53 C 529.727 1283.26 550.279 1296.29 569.837 1307.65 L 759.553 1418.29 L 929.059 1515.96 C 951.581 1528.85 973.965 1541.98 996.205 1555.35 C 1003.73 1559.87 1015.02 1566.06 1022.02 1570.77 C 1023.04 1580.94 1022.74 1593.53 1022.77 1603.92 L 1022.32 1604.26 C 1011.87 1599.59 983.996 1580.76 972.266 1574.08 C 937.688 1554.39 903.168 1532.58 868.748 1512.7 L 676.542 1401.46 C 611.639 1364.85 547.33 1327.21 483.638 1288.54 C 492.555 1282.74 500.943 1277.85 510.132 1272.53 z" fill="rgb(17,131,83)" transform="translate(0,0)"></path>
<path d="M 365.76 1354.41 C 376.953 1346.85 394.812 1337.22 406.845 1330.61 C 464.28 1361.27 520.632 1398.5 577.897 1430.93 L 766.956 1540.02 C 851.986 1588.27 938.649 1635.83 1022.69 1685.59 C 1022.93 1673.39 1021.99 1639.68 1023.21 1630.32 C 1024.94 1633.37 1024.09 1678.61 1023.86 1685.84 C 1023.89 1695.86 1024.57 1734.57 1023.17 1742.54 C 1017.78 1739.99 995.885 1725.76 988.882 1721.54 C 961.253 1704.89 933.513 1688.42 905.665 1672.15 L 519.721 1445.66 L 419.281 1386.16 C 403.514 1376.73 381.66 1362.4 365.76 1354.41 z" fill="rgb(18,168,99)" transform="translate(0,0)"></path>
<path d="M 1555.8 816.11 C 1564.44 820.922 1586.4 835.591 1593.97 838.357 C 1640.54 868.041 1692.17 895.794 1739.9 924.423 C 1722.77 933.779 1706.28 943.862 1689.35 953.513 C 1627.61 988.632 1566.18 1024.29 1505.07 1060.49 L 1024.4 1338.35 C 1023.67 1326.62 1025.08 1290.14 1022.93 1282.15 L 1022.93 1280.91 C 1022.98 1269.38 1021.54 1224.05 1024.23 1216.06 C 1026.44 1197.7 1025.65 1174.17 1024.28 1155.62 L 1016.32 1150.99 C 1017.75 1150.62 1019.75 1152.02 1021.51 1152.85 C 1021.59 1148.36 1022.19 1129.28 1020.56 1126.92 C 1014.58 1118.29 960.5 1093.86 958.062 1087.44 C 964.319 1089.42 1012.22 1118.5 1022.17 1124.02 C 1030.45 1120.01 1042.39 1112.62 1050.85 1107.82 C 1070.58 1096.74 1090.19 1085.43 1109.66 1073.9 L 1225.06 1006.27 C 1258.24 986.631 1293.43 967.172 1326.97 947.915 L 1503.26 845.959 C 1513.55 839.913 1547.34 819.303 1555.8 816.11 z" fill="url(#Gradient3)" transform="translate(0,0)"></path>
<path d="M 1555.8 816.11 C 1564.44 820.922 1586.4 835.591 1593.97 838.357 C 1640.54 868.041 1692.17 895.794 1739.9 924.423 C 1722.77 933.779 1706.28 943.862 1689.35 953.513 C 1627.61 988.632 1566.18 1024.29 1505.07 1060.49 L 1024.4 1338.35 C 1023.67 1326.62 1025.08 1290.14 1022.93 1282.15 L 1022.93 1280.91 C 1034.74 1276.81 1071.62 1253.5 1085.12 1245.79 C 1144.95 1212.05 1204.34 1177.52 1263.27 1142.21 C 1388.75 1068.23 1515.08 995.691 1642.23 924.617 C 1597.6 898.772 1548.39 870.103 1503.26 845.959 C 1513.55 839.913 1547.34 819.303 1555.8 816.11 z" fill="rgb(13,57,61)" transform="translate(0,0)"></path>
<path d="M 449.376 839.561 C 462.208 832.285 476.166 824.366 488.282 816.083 C 505.376 826.117 523.566 837.116 540.957 846.471 C 562.218 857.409 588.615 874.022 610.47 886.281 C 685.07 928.231 759.254 970.917 833.011 1014.33 L 910.949 1059.69 C 920.915 1065.37 950.69 1081.5 958.062 1087.44 C 960.5 1093.86 1014.58 1118.29 1020.56 1126.92 C 1022.19 1129.28 1021.59 1148.36 1021.51 1152.85 C 1019.75 1152.02 1017.75 1150.62 1016.32 1150.99 L 1024.28 1155.62 C 1025.65 1174.17 1026.44 1197.7 1024.23 1216.06 C 1021.54 1224.05 1022.98 1269.38 1022.93 1280.91 L 1022.93 1282.15 C 1025.08 1290.14 1023.67 1326.62 1024.4 1338.35 C 1016.68 1335.37 1000.89 1325.95 993.332 1321.52 L 940.142 1290.05 L 768.311 1190.05 L 461.16 1010.82 C 412.156 982.44 358.999 953.62 311.05 924.22 C 355.581 899.77 405.262 866.392 449.376 839.561 z" fill="rgb(18,168,99)" transform="translate(0,0)"></path>
<path d="M 449.376 839.561 C 462.208 832.285 476.166 824.366 488.282 816.083 C 505.376 826.117 523.566 837.116 540.957 846.471 C 532.503 850.482 524.706 854.368 517.256 860.124 C 502.619 869.042 474.361 887.441 459.944 894.539 C 444.99 901.633 423.248 914.547 409.297 923.611 C 437.274 938.597 464.528 955.112 491.979 971.062 L 632.638 1053.53 L 889.286 1202.88 C 918.349 1219.83 947.233 1237.09 975.934 1254.65 C 985.059 1260.21 1013.94 1278.42 1022.93 1282.15 C 1025.08 1290.14 1023.67 1326.62 1024.4 1338.35 C 1016.68 1335.37 1000.89 1325.95 993.332 1321.52 L 940.142 1290.05 L 768.311 1190.05 L 461.16 1010.82 C 412.156 982.44 358.999 953.62 311.05 924.22 C 355.581 899.77 405.262 866.392 449.376 839.561 z" fill="url(#Gradient2)" transform="translate(0,0)"></path>
<path d="M 588.211 966.676 L 588.738 965.817 C 586.238 963.648 578.077 959.671 574.577 957.56 C 561.892 949.911 549.238 942.252 536.348 934.955 L 537.455 932.58 C 534.773 911.942 550.097 903.139 557.01 886.77 L 557.49 885.607 C 565.899 891.187 620.185 924.571 626.086 924.492 C 630.434 925.949 645.746 935.051 650.569 937.711 C 672.687 949.911 694.325 963.236 716.134 975.993 C 771.022 1007.42 825.525 1039.52 879.63 1072.28 L 976.931 1130.38 C 990.782 1138.51 1007.7 1149.47 1021.51 1156.6 C 1021.48 1172.2 1020.51 1202.43 1021.83 1217.03 C 1014.45 1211.55 1000.11 1204.06 991.75 1199.12 C 922.626 1158.25 852.211 1120.14 783.123 1079 C 743.491 1055.4 702.887 1033.47 663.034 1009.88 C 647.21 1000.62 631.284 991.545 615.26 982.643 C 607.822 978.461 594.709 971.59 588.211 966.676 z" fill="rgb(66,191,142)" transform="translate(0,0)"></path>
<path d="M 517.256 860.124 C 527.515 866.94 540.429 873.86 551.279 880.329 C 576.036 895.351 600.974 910.072 626.086 924.492 C 620.185 924.571 565.899 891.187 557.49 885.607 L 557.01 886.77 C 550.097 903.139 534.773 911.942 537.455 932.58 L 536.348 934.955 C 549.238 942.252 561.892 949.911 574.577 957.56 C 578.077 959.671 586.238 963.648 588.738 965.817 L 588.211 966.676 C 573.658 959.534 551.041 945.213 536.14 936.596 C 510.905 922.283 485.504 908.263 459.944 894.539 C 474.361 887.441 502.619 869.042 517.256 860.124 z" fill="rgb(119,218,166)" transform="translate(0,0)"></path>
<path d="M 1601.85 1041.97 C 1616.63 1047.55 1630.87 1058.4 1641.06 1062.45 C 1661.97 1074.09 1682.8 1085.87 1703.56 1097.79 C 1714.59 1104.11 1727.14 1112.59 1738.72 1116.9 C 1737.79 1119.25 1734.49 1120.98 1732.09 1122.4 L 1169.04 1447.58 C 1122.45 1474.48 1073.73 1506.11 1025.38 1530.74 C 1024.72 1530.99 1024.06 1531.24 1023.39 1531.5 C 1022.84 1528.6 1023.08 1530.92 1023.18 1528.7 C 1023.79 1514.37 1024.73 1488.08 1023.06 1474.69 L 1022.59 1473.61 C 1024.3 1470.14 1022.92 1387.84 1022.97 1377.44 L 1384.56 1167.44 C 1440.62 1135.1 1498.33 1099.9 1554.97 1068.83 C 1570.78 1060.04 1586.13 1050.86 1601.85 1041.97 z" fill="rgb(175,127,77)" transform="translate(0,0)"></path>
<path d="M 1601.85 1041.97 C 1616.63 1047.55 1630.87 1058.4 1641.06 1062.45 C 1661.97 1074.09 1682.8 1085.87 1703.56 1097.79 C 1714.59 1104.11 1727.14 1112.59 1738.72 1116.9 C 1737.79 1119.25 1734.49 1120.98 1732.09 1122.4 L 1169.04 1447.58 C 1122.45 1474.48 1073.73 1506.11 1025.38 1530.74 C 1024.72 1530.99 1024.06 1531.24 1023.39 1531.5 C 1022.84 1528.6 1023.08 1530.92 1023.18 1528.7 C 1023.79 1514.37 1024.73 1488.08 1023.06 1474.69 C 1039.95 1467.42 1071.42 1447.25 1088.5 1437.65 C 1125.99 1416.57 1163.51 1393.23 1200.79 1371.94 L 1534.17 1178.83 C 1569.52 1158.33 1607.86 1138.17 1642.36 1117.78 C 1614.92 1102.03 1581.18 1086.53 1554.97 1068.83 C 1570.78 1060.04 1586.13 1050.86 1601.85 1041.97 z" fill="rgb(13,57,61)" transform="translate(0,0)"></path>
<path d="M 408.994 1065.33 C 421.983 1058.21 434.771 1049.98 447.355 1042.11 C 464.368 1051.8 481.294 1061.65 498.132 1071.65 C 516.692 1081 537.517 1094.84 556.266 1105.42 C 693.813 1183.03 828.761 1265.18 965.924 1343.49 C 983.595 1353.57 1006.41 1365.89 1022.97 1377.44 C 1022.92 1387.84 1024.3 1470.14 1022.59 1473.61 L 1023.06 1474.69 C 1024.73 1488.08 1023.79 1514.37 1023.18 1528.7 C 1023.08 1530.92 1022.84 1528.6 1023.39 1531.5 C 1025.46 1531.71 957.157 1493.73 953.599 1491.62 L 746.352 1370.78 L 695.261 1341.09 C 688.573 1337.2 675.033 1329.8 669.254 1325.58 C 651.578 1317.42 612.184 1291.51 592.613 1280.26 C 500.339 1227.22 408.983 1172.72 316.562 1119.81 C 347.021 1101.06 377.838 1082.9 408.994 1065.33 z" fill="rgb(209,163,108)" transform="translate(0,0)"></path>
<path d="M 408.994 1065.33 C 421.983 1058.21 434.771 1049.98 447.355 1042.11 C 464.368 1051.8 481.294 1061.65 498.132 1071.65 C 484.351 1077.99 468.441 1087.68 455.159 1095.43 C 442.324 1102.92 427.04 1111.37 414.862 1119.62 L 624.73 1242.54 L 683.052 1275.69 C 689.472 1279.34 708.735 1290.12 713.992 1294.38 L 713.209 1295.85 L 714.248 1297.38 L 714.139 1299.25 C 709.149 1303.66 706.566 1299.29 703.384 1302.8 L 705.938 1306.63 L 705.025 1308.44 C 701.88 1309.07 700.157 1308.5 697.027 1307.92 C 693.43 1309.48 694.603 1308.26 692.815 1311.06 C 694.16 1312.87 694.884 1313.9 695.67 1316.01 C 692.708 1320.73 690.184 1316.39 689.58 1320.29 L 690.525 1321.4 C 692.749 1324.05 694.322 1325.27 694.784 1328.6 C 693.348 1332.26 694.416 1330.66 691.121 1333.33 C 682.389 1335.35 675.839 1323.9 669.254 1325.58 C 651.578 1317.42 612.184 1291.51 592.613 1280.26 C 500.339 1227.22 408.983 1172.72 316.562 1119.81 C 347.021 1101.06 377.838 1082.9 408.994 1065.33 z" fill="url(#Gradient1)" transform="translate(0,0)"></path>
<path d="M 713.992 1294.38 C 724.076 1299.24 738.016 1307.64 748.1 1313.45 L 819.505 1355.39 L 1022.59 1473.61 L 1023.06 1474.69 C 1024.73 1488.08 1023.79 1514.37 1023.18 1528.7 C 1023.08 1530.92 1022.84 1528.6 1023.39 1531.5 C 1025.46 1531.71 957.157 1493.73 953.599 1491.62 L 746.352 1370.78 L 695.261 1341.09 C 688.573 1337.2 675.033 1329.8 669.254 1325.58 C 675.839 1323.9 682.389 1335.35 691.121 1333.33 C 694.416 1330.66 693.348 1332.26 694.784 1328.6 C 694.322 1325.27 692.749 1324.05 690.525 1321.4 L 689.58 1320.29 C 690.184 1316.39 692.708 1320.73 695.67 1316.01 C 694.884 1313.9 694.16 1312.87 692.815 1311.06 C 694.603 1308.26 693.43 1309.48 697.027 1307.92 C 700.157 1308.5 701.88 1309.07 705.025 1308.44 L 705.938 1306.63 L 703.384 1302.8 C 706.566 1299.29 709.149 1303.66 714.139 1299.25 L 714.248 1297.38 L 713.209 1295.85 L 713.992 1294.38 z" fill="rgb(13,57,61)" transform="translate(0,0)"></path>
<path d="M 1555.8 816.11 C 1574.91 804.611 1594.05 792.306 1613.21 781.164 C 1654.18 757.612 1695.79 735.202 1738 713.959 L 1737.85 753.786 C 1730.89 760.389 1711.4 770.061 1702.03 775.144 C 1674.58 790.206 1647.39 805.74 1620.48 821.742 C 1615.54 824.685 1597.2 835.324 1593.97 838.357 C 1586.4 835.591 1564.44 820.922 1555.8 816.11 z" fill="rgb(181,217,196)" transform="translate(0,0)"></path>
<path d="M 318.345 718.884 C 343.502 730.597 375.865 751.419 400.654 765.578 C 424.539 779.221 466.522 800.221 488.282 816.083 C 476.166 824.366 462.208 832.285 449.376 839.561 C 438.606 829.837 397.639 808.402 382.955 800.342 C 362.417 789.068 338.577 774.615 318.085 764.309 C 318.46 749.339 318.313 733.895 318.345 718.884 z" fill="rgb(181,217,196)" transform="translate(0,0)"></path>
<path d="M 318.593 1160.48 C 342.777 1172.79 367.918 1187.68 391.48 1201.56 C 410.473 1212.74 442.85 1229.46 459.383 1242.81 C 447.707 1250.13 435.931 1257.3 424.058 1264.3 C 417.617 1260.1 405.198 1253.65 398.057 1249.66 C 371.674 1234.91 344.696 1221.02 318.05 1206.63 C 318.152 1191.25 318.333 1175.86 318.593 1160.48 z" fill="rgb(181,217,196)" transform="translate(0,0)"></path>
<path d="M 1587.46 1243.34 C 1599.56 1234.96 1636.7 1214.9 1651.31 1207.2 C 1680.32 1191.89 1709.62 1173.55 1737.87 1158.4 C 1737.31 1172.92 1737.59 1187.21 1737.77 1201.74 C 1720.22 1212.27 1698.81 1222.67 1680.53 1232.9 C 1665.3 1241.42 1638.92 1258.49 1623.97 1263.64 C 1613.52 1258.8 1597.77 1249.28 1587.46 1243.34 z" fill="rgb(181,217,196)" transform="translate(0,0)"></path>
<path d="M 316.758 966.394 C 340.202 979.191 363.656 993.274 387.082 1006.29 C 404.858 1016.17 432.276 1029.49 447.355 1042.11 C 434.771 1049.98 421.983 1058.21 408.994 1065.33 C 399.747 1058.52 383.539 1049.84 373.453 1044.06 L 316.878 1011.19 C 317.135 996.257 317.095 981.323 316.758 966.394 z" fill="rgb(181,217,196)" transform="translate(0,0)"></path>
<path d="M 1601.85 1041.97 C 1644.8 1013.89 1695.39 990.696 1738.09 963.295 L 1738.96 1006.21 C 1714.71 1022.18 1687.94 1035.57 1662.83 1050.24 C 1655.94 1054.26 1648.14 1059.03 1641.06 1062.45 C 1630.87 1058.4 1616.63 1047.55 1601.85 1041.97 z" fill="rgb(181,217,196)" transform="translate(0,0)"></path>
<metadata><recraft-signature>{"signed_by": "recraft", "signature_b64": "hx11LXAtMpJia/ZTdYbwkWhPY9bSVvgtk+goEd2eMVShpg64SF3Zz/4M9pK2ZWODVGltfi56Iz6RL/YB01bvCA==", "signing_algo": "Ed25519", "generation_timestamp": 1783499159, "identifier": "d5180c7a-48d2-4304-96bd-8ea2c9d54a4d"}</recraft-signature></metadata></svg>