<svg xmlns="http://www.w3.org/2000/svg" height="1024" preserveAspectRatio="none" style="display: block;" version="1.1" viewBox="0 0 2048 2048" width="1024">
<defs>
	<linearGradient gradientUnits="userSpaceOnUse" id="Gradient1" x1="1057.33" x2="1870.49" y1="1052.44" y2="1870.58">
		<stop class="stop0" offset="0" stop-color="rgb(2,66,65)" stop-opacity="1"></stop>
		<stop class="stop1" offset="1" stop-color="rgb(25,145,120)" stop-opacity="1"></stop>
	</linearGradient>
	<linearGradient gradientUnits="userSpaceOnUse" id="Gradient2" x1="1063.48" x2="946.953" y1="380.408" y2="1527.44">
		<stop class="stop0" offset="0" stop-color="rgb(101,206,144)" stop-opacity="1"></stop>
		<stop class="stop1" offset="1" stop-color="rgb(159,199,175)" stop-opacity="1"></stop>
	</linearGradient>
	<linearGradient gradientUnits="userSpaceOnUse" id="Gradient3" x1="433.088" x2="1617.83" y1="1030.64" y2="1009.6">
		<stop class="stop0" offset="0" stop-color="rgb(8,113,67)" stop-opacity="1"></stop>
		<stop class="stop1" offset="1" stop-color="rgb(8,179,128)" stop-opacity="1"></stop>
	</linearGradient>
	<linearGradient gradientUnits="userSpaceOnUse" id="Gradient4" x1="1499.15" x2="509.911" y1="1612.33" y2="381.197">
		<stop class="stop0" offset="0" stop-color="rgb(22,128,112)" stop-opacity="1"></stop>
		<stop class="stop1" offset="1" stop-color="rgb(24,166,121)" stop-opacity="1"></stop>
	</linearGradient>
</defs>
<path d="M 0 0 L 2048 0 L 2048 2048 L 0 2048 L 0 0 z" fill="rgb(246,246,246)" transform="translate(0,0)"></path>
<path d="M 76.8497 882.341 C 75.8547 822.223 76.9405 759.054 76.9186 698.651 L 76.9571 396.985 C 77.5132 308.482 115.135 230.932 177.662 169.548 C 222.348 126.173 278.303 96.2015 339.171 83.0376 C 376.083 74.8253 413.29 76.7912 450.947 76.9077 L 555.109 77.0895 L 908.532 77.2473 L 1438.73 77.0898 L 1583.1 77.019 C 1622.64 76.9538 1669.14 74.4399 1707.2 82.3812 C 1769.54 94.9828 1826.91 125.366 1872.36 169.859 C 1910.81 207.67 1938.45 256.931 1954.55 308.048 C 1965.19 320.437 1969.68 384.599 1969.26 402.77 C 1968.76 424.684 1968.26 448.834 1968.27 470.951 L 1969.36 616.386 L 1969.49 1032.05 L 1967.96 1326.44 C 1967.92 1355.57 1972.64 1391.49 1972.27 1421.19 C 1972.09 1435.83 1969.21 1451.39 1970.15 1466.47 C 1965.68 1510.8 1969.77 1555.6 1968.52 1600.1 C 1967.88 1623.18 1971.84 1652.7 1969.25 1675.39 C 1972.38 1686.08 1970.74 1693.21 1970.77 1704.07 C 1970.91 1745.38 1957.52 1787.95 1937.17 1823.66 C 1916.89 1858.28 1895.05 1888.76 1862.86 1913.06 C 1835.74 1933.53 1818.17 1948.12 1784.68 1957.64 C 1726.48 1974.19 1673.48 1991.07 1612 1985.56 C 1592.07 1983.77 1566.18 1987 1545.73 1985.55 C 1529.19 1984.96 1515.89 1984.27 1498.86 1984.5 L 1011.78 1988.46 C 917.987 1988.68 826.513 1991.62 732.178 1988.35 C 642.719 1985.24 549.974 1988.04 460.184 1986.53 C 407.03 1985.63 361.594 1985.02 311.512 1962.12 C 302.32 1958.16 293.147 1951.52 283.92 1947.49 C 267.419 1940.28 252.354 1935.14 238.3 1923.06 L 238.011 1921.95 C 162.749 1872.32 109.106 1802.52 86.6646 1714.41 C 73.7168 1663.57 76.7825 1610.41 76.7425 1558.3 L 76.6351 1407.72 L 76.8497 882.341 z" fill="url(#Gradient4)" transform="translate(0,0)"></path>
<path d="M 502.583 1392.19 C 497.438 1386.89 479.878 1357.23 475.258 1349.53 C 418.626 1255.52 387.696 1148.28 385.565 1038.55 C 383.269 857.529 446.38 699.238 572.948 569.754 C 685.379 454.733 850.296 380.629 1011.51 378.893 C 1163.09 376.996 1310.46 428.773 1427.55 525.065 C 1442.83 537.658 1459.21 552.241 1473.47 566.033 C 1485.38 577.547 1497.43 592.884 1509.27 604.321 L 1510.44 605.439 C 1574.91 682.481 1619.99 773.844 1641.92 871.883 C 1644.36 882.781 1650.54 910.603 1651.23 921.122 C 1658.57 948.145 1662.95 1049.63 1658.34 1078.14 C 1643.64 1248.05 1569.18 1398.45 1437.98 1508.8 C 1307.32 1617.91 1138.61 1670.53 969.092 1655.04 C 891.063 1648.15 801.841 1624.26 732.177 1588.23 C 681.313 1564.64 635.37 1529.6 592.4 1494.29 C 589.744 1490.81 583.818 1485.85 580.478 1482.73 C 551.135 1455.26 524.644 1425.92 502.583 1392.19 z" fill="url(#Gradient3)" transform="translate(0,0)"></path>
<path d="M 502.583 1392.19 C 497.438 1386.89 479.878 1357.23 475.258 1349.53 C 418.626 1255.52 387.696 1148.28 385.565 1038.55 C 383.269 857.529 446.38 699.238 572.948 569.754 C 685.379 454.733 850.296 380.629 1011.51 378.893 C 1163.09 376.996 1310.46 428.773 1427.55 525.065 C 1442.83 537.658 1459.21 552.241 1473.47 566.033 C 1485.38 577.547 1497.43 592.884 1509.27 604.321 L 1510.44 605.439 C 1574.91 682.481 1619.99 773.844 1641.92 871.883 C 1644.36 882.781 1650.54 910.603 1651.23 921.122 C 1658.57 948.145 1662.95 1049.63 1658.34 1078.14 L 1657.28 1074.11 C 1653.06 1078.09 1651.9 1079.16 1646.51 1081.23 C 1640.76 1080.41 1636.39 1079.97 1631.09 1077.33 C 1628.07 1075.83 1624.64 1073.45 1621.59 1072.65 C 1621.37 1075.73 1621.89 1076.9 1620.27 1078.69 C 1619.53 1069.92 1621.23 1046.72 1620.92 1036.01 C 1620.17 1009.82 1616.9 989.562 1611.23 964.133 C 1604.45 943.092 1598.66 924.945 1588.55 904.968 C 1559.07 846.663 1511.63 803.694 1453.95 774.378 C 1398.37 746.13 1320.4 721.976 1257.66 722.915 C 1254.31 705.961 1248.02 678.583 1242.01 662.85 C 1213.85 589.173 1161.38 527.153 1095.21 484.577 C 1070.91 468.936 1049.38 458.184 1023.53 445.471 C 914.329 501.143 833.664 566.478 794.629 687.761 C 790.712 700.333 787.365 713.076 784.599 725.95 C 682.872 728.596 591.463 753.164 517.219 827.908 C 382.363 963.673 425.099 1214.62 526.299 1357.84 C 537.982 1374.44 550.383 1390.53 563.469 1406.05 C 566.674 1409.85 585.829 1431.58 587.272 1434.04 C 587.752 1441 627.074 1473.54 635.129 1480.69 L 635.097 1482.28 C 628.527 1491.28 608.724 1496.27 598.973 1491.6 C 593.378 1488.92 588.327 1487.44 583.526 1483.11 C 557.868 1459.95 534.362 1433.62 514.118 1405.61 C 510.979 1401.26 506.815 1396.58 504.442 1391.84 L 502.583 1392.19 z" fill="url(#Gradient2)" transform="translate(0,0)"></path>
<path d="M 1611.23 964.133 C 1613.43 948.913 1595.13 922.233 1593.08 906.784 C 1592.47 902.197 1612.77 896.04 1616.78 891.327 C 1623.59 883.342 1621.48 870.796 1624.51 862.123 C 1628.03 852.021 1631.76 854.192 1631.68 842.107 L 1631.66 840.662 C 1640.1 854.232 1644.09 910.42 1651.23 921.122 C 1658.57 948.145 1662.95 1049.63 1658.34 1078.14 L 1657.28 1074.11 C 1653.06 1078.09 1651.9 1079.16 1646.51 1081.23 C 1640.76 1080.41 1636.39 1079.97 1631.09 1077.33 C 1628.07 1075.83 1624.64 1073.45 1621.59 1072.65 C 1621.37 1075.73 1621.89 1076.9 1620.27 1078.69 C 1619.53 1069.92 1621.23 1046.72 1620.92 1036.01 C 1620.17 1009.82 1616.9 989.562 1611.23 964.133 z" fill="rgb(156,203,181)" transform="translate(0,0)"></path>
<path d="M 1024.51 852.381 C 1031.75 858.2 1044.95 872.586 1047.28 881.427 C 1051.91 898.947 1050.13 926.089 1050.11 944.362 C 1050.2 983.903 1050.04 1023.44 1049.63 1062.98 C 1056.12 1054.75 1064.32 1047.46 1071.55 1039.76 C 1097.97 1011.63 1127.65 987.669 1147.17 953.996 C 1162.08 928.283 1167.5 903.317 1178.65 877.404 C 1184.05 899.209 1184.77 914.831 1183.14 937.23 C 1180.59 972.26 1169.55 990.18 1145.95 1014.66 C 1114.24 1047.57 1083.27 1082.46 1050.88 1114.66 C 1050.96 1146.6 1051.59 1183.69 1049.96 1215.23 C 1075.25 1187.42 1105.76 1159.41 1132.22 1132.11 C 1159.49 1103.91 1187.1 1076.04 1215.05 1048.51 C 1239.32 1024.14 1264.04 998.162 1291.07 976.817 C 1273.63 1046.03 1254.35 1049.97 1211.08 1100.7 C 1242.54 1101.13 1272.76 1098.15 1304.1 1095.95 C 1270.2 1120.83 1228.01 1128.59 1186.55 1128.97 C 1178.44 1140.42 1154.45 1161.98 1144.12 1173.18 C 1113.94 1205.91 1080.71 1237.5 1051.32 1270.75 C 1052.12 1294.64 1051.24 1322.81 1051.28 1347.26 L 1051.09 1525.74 C 1101.26 1531.57 1170.05 1558.04 1206.45 1593.8 C 1289.81 1567.74 1366.65 1524.2 1431.84 1466.08 C 1537.05 1370.53 1613.56 1221.82 1620.27 1078.69 C 1621.89 1076.9 1621.37 1075.73 1621.59 1072.65 C 1624.64 1073.45 1628.07 1075.83 1631.09 1077.33 C 1636.39 1079.97 1640.76 1080.41 1646.51 1081.23 C 1651.9 1079.16 1653.06 1078.09 1657.28 1074.11 L 1658.34 1078.14 C 1643.64 1248.05 1569.18 1398.45 1437.98 1508.8 C 1307.32 1617.91 1138.61 1670.53 969.092 1655.04 C 891.063 1648.15 801.841 1624.26 732.177 1588.23 C 681.313 1564.64 635.37 1529.6 592.4 1494.29 C 589.744 1490.81 583.818 1485.85 580.478 1482.73 C 551.135 1455.26 524.644 1425.92 502.583 1392.19 L 504.442 1391.84 C 506.815 1396.58 510.979 1401.26 514.118 1405.61 C 534.362 1433.62 557.868 1459.95 583.526 1483.11 C 588.327 1487.44 593.378 1488.92 598.973 1491.6 C 608.724 1496.27 628.527 1491.28 635.097 1482.28 L 635.129 1480.69 C 627.074 1473.54 587.752 1441 587.272 1434.04 C 632.336 1478.4 678.517 1515.72 734.191 1545.97 C 741.182 1549.76 748.22 1553.51 755.105 1557.49 C 758.235 1558.54 764.275 1561.5 767.372 1563.08 C 792.234 1575.73 818.513 1583.72 844.216 1594.21 C 893.253 1555.27 936.691 1536.04 998.281 1525.41 L 998.432 1271.96 C 983.555 1253.12 951.975 1223.35 934.161 1205.47 C 909.528 1180.76 879.709 1145.48 854.697 1122.73 C 852.371 1123.13 850.033 1123.46 847.687 1123.71 C 803.024 1128.92 757.076 1120.5 721.309 1092.18 C 767.278 1100.48 790.37 1101.61 836.333 1100.52 C 826.252 1091.09 816.322 1079.8 806.899 1070.55 C 774.28 1038.55 768.084 1019.4 761.553 975.436 C 817.062 1027.26 867.799 1081.91 921.634 1135.29 C 948.645 1162.07 973.163 1186.69 998.046 1215.28 L 997.162 1112.62 C 971.63 1087.22 947.767 1059.18 922.114 1033.74 C 901.759 1013.55 872.326 984.296 865.257 956.31 C 859.491 933.487 860.979 893.198 864.597 869.487 C 874.42 902.942 889.48 941.255 910.08 969.623 C 919.639 982.787 936.666 998.822 948.543 1010.65 L 998.369 1060.59 C 996.963 1004.27 998.078 946.919 998.587 890.574 C 998.703 877.731 1014.81 860.098 1024.51 852.381 z" fill="rgb(246,246,246)" transform="translate(0,0)"></path>
<path d="M 502.583 1392.19 L 504.442 1391.84 C 506.815 1396.58 510.979 1401.26 514.118 1405.61 C 534.362 1433.62 557.868 1459.95 583.526 1483.11 C 588.327 1487.44 593.378 1488.92 598.973 1491.6 C 608.724 1496.27 628.527 1491.28 635.097 1482.28 L 635.129 1480.69 C 627.074 1473.54 587.752 1441 587.272 1434.04 C 632.336 1478.4 678.517 1515.72 734.191 1545.97 C 741.182 1549.76 748.22 1553.51 755.105 1557.49 C 739.228 1556.02 673.673 1510.83 658.268 1499.1 C 661.654 1519.07 659.368 1524.78 640.656 1531.12 C 666.436 1547.7 691.703 1564.76 718.842 1579 C 723.652 1581.52 729.453 1583.88 732.177 1588.23 C 681.313 1564.64 635.37 1529.6 592.4 1494.29 C 589.744 1490.81 583.818 1485.85 580.478 1482.73 C 551.135 1455.26 524.644 1425.92 502.583 1392.19 z" fill="rgb(208,208,207)" transform="translate(0,0)"></path>
<path d="M 1023.22 594.568 C 1027.37 598.805 1032.54 607.97 1035.5 613.22 C 1077.89 688.298 1076.18 740.667 1023.86 810.12 C 1009.88 796.065 991.389 760.009 986.303 740.547 C 970.99 681.952 997.105 641.625 1023.22 594.568 z" fill="rgb(246,246,246)" transform="translate(0,0)"></path>
<path d="M 713.059 798.329 C 766.67 821.04 826.309 869.642 836.874 930.662 C 838.83 941.957 837.709 949.807 830.892 959.118 C 825.942 963.356 817.645 968.531 811.135 967.375 C 737.019 954.215 713.343 855.631 713.059 798.329 z" fill="rgb(246,246,246)" transform="translate(0,0)"></path>
<path d="M 1338.82 802.964 C 1339.22 807.393 1336.64 820.92 1335.9 825.878 C 1330.33 863.057 1319.26 896.728 1296.79 927.425 C 1283.53 945.545 1265 961.961 1241.88 965.876 C 1232.51 967.461 1225.62 964.144 1218.34 958.684 C 1206.49 943.027 1208.95 927.688 1215.51 910.328 C 1236.92 853.694 1287.18 827.059 1338.82 802.964 z" fill="rgb(246,246,246)" transform="translate(0,0)"></path>
<path d="M 590.277 936.019 C 646.778 938.592 724.994 964.708 741.609 1029.57 C 743.724 1037.83 738.974 1046.9 734.138 1053.48 C 713.616 1067.93 692.556 1060.18 672.937 1048.85 C 634.671 1026.76 601.418 977.994 590.277 936.019 z" fill="rgb(208,208,207)" transform="translate(0,0)"></path>
<path d="M 1453.39 931.231 C 1457.06 930.731 1455.58 930.236 1458.31 931.676 C 1458.49 936.741 1446.12 961.597 1443.39 968.27 C 1427.87 1006.28 1365.98 1081.27 1319.03 1058.36 C 1301.46 1044.77 1304.72 1026.15 1315.97 1009.57 C 1347.1 963.694 1400.95 941.938 1453.39 931.231 z" fill="rgb(246,246,246)" transform="translate(0,0)"></path>
<path d="M 689.248 1126.44 C 691.2 1126.39 693.154 1126.4 695.106 1126.46 C 720.033 1126.99 752.43 1135.17 770.813 1153.28 C 780.727 1163.04 779.96 1178.56 767.966 1186.48 C 744.209 1202.17 714.932 1207.23 686.9 1203.68 C 650.559 1197.27 621.215 1182.44 593.813 1158.09 C 626.207 1139.12 651.455 1128.63 689.248 1126.44 z" fill="rgb(208,208,207)" transform="translate(0,0)"></path>
<path d="M 834.62 1194.36 C 842.985 1192.74 862.949 1193.33 869.344 1199.14 C 882.438 1211.03 866.146 1234.34 857.661 1244.3 C 830.769 1275.87 791.963 1292.57 751.263 1296.36 C 740.847 1297.76 720.988 1297.23 710.519 1296.2 C 731.775 1243.33 777.238 1201.99 834.62 1194.36 z" fill="rgb(208,208,207)" transform="translate(0,0)"></path>
<path d="M 877.502 728.674 C 889.892 738.692 902.612 747.333 914.971 757.878 C 942.912 781.716 966.51 814.396 974.387 850.738 C 977.58 865.472 977.574 878.515 969.155 891.573 C 964.317 895.9 959.174 898.463 952.54 896.331 C 930.936 889.385 909.265 871.465 897.427 852.186 C 877.388 819.549 869.122 765.728 877.502 728.674 z" fill="rgb(246,246,246)" transform="translate(0,0)"></path>
<path d="M 1342.84 1127.42 C 1381.85 1123.99 1432.17 1143.22 1467.7 1158.56 C 1439.02 1170.22 1416.61 1182.04 1385.97 1193.15 C 1356.35 1202.24 1325.46 1207.62 1297.02 1192.31 C 1284.56 1185.6 1275.4 1178.51 1268.32 1166.09 C 1269.76 1164.07 1271.29 1162.12 1272.9 1160.24 C 1291.32 1138.42 1315.28 1129.84 1342.84 1127.42 z" fill="rgb(246,246,246)" transform="translate(0,0)"></path>
<path d="M 1195.22 1197.17 C 1268.42 1192.83 1300.53 1247.47 1339.76 1298.76 C 1333.72 1299.66 1328.83 1299.82 1322.74 1300.08 C 1268.87 1300.53 1192.16 1279.88 1178.22 1218.67 C 1177.23 1214.31 1176.47 1208.87 1177.41 1204.53 C 1180.21 1200.16 1189.99 1198.52 1195.22 1197.17 z" fill="rgb(246,246,246)" transform="translate(0,0)"></path>
<path d="M 1164.77 728.968 L 1165.58 729.856 C 1177.91 789.05 1160.01 872.101 1097.01 894.79 C 1090.82 897.022 1087.51 897.574 1081.66 894.748 C 1063.77 870.999 1076.21 833.483 1088.64 810.054 C 1106.6 776.186 1135.73 752.838 1164.77 728.968 z" fill="rgb(246,246,246)" transform="translate(0,0)"></path>
<path d="M 1954.55 308.048 C 1965.19 320.437 1969.68 384.599 1969.26 402.77 C 1968.76 424.684 1968.26 448.834 1968.27 470.951 L 1969.36 616.386 L 1969.49 1032.05 L 1967.96 1326.44 C 1967.92 1355.57 1972.64 1391.49 1972.27 1421.19 C 1972.09 1435.83 1969.21 1451.39 1970.15 1466.47 C 1965.68 1510.8 1969.77 1555.6 1968.52 1600.1 C 1967.88 1623.18 1971.84 1652.7 1969.25 1675.39 C 1972.38 1686.08 1970.74 1693.21 1970.77 1704.07 C 1970.91 1745.38 1957.52 1787.95 1937.17 1823.66 C 1916.89 1858.28 1895.05 1888.76 1862.86 1913.06 C 1835.74 1933.53 1818.17 1948.12 1784.68 1957.64 C 1726.48 1974.19 1673.48 1991.07 1612 1985.56 C 1592.07 1983.77 1566.18 1987 1545.73 1985.55 C 1529.19 1984.96 1515.89 1984.27 1498.86 1984.5 L 1011.78 1988.46 C 917.987 1988.68 826.513 1991.62 732.178 1988.35 C 642.719 1985.24 549.974 1988.04 460.184 1986.53 C 407.03 1985.63 361.594 1985.02 311.512 1962.12 C 302.32 1958.16 293.147 1951.52 283.92 1947.49 C 267.419 1940.28 252.354 1935.14 238.3 1923.06 L 238.011 1921.95 C 245.452 1925.96 254.841 1932.15 261.982 1935.55 C 289.933 1948.89 321.549 1960.43 352.059 1965.43 C 381.469 1970.24 412.17 1968.97 441.929 1969.01 L 558.006 1969.1 L 895.566 1969.08 C 949.283 1969.02 1011 1967.26 1064.13 1968.77 C 1059.25 1962.3 1048.19 1951.49 1042.16 1945.32 L 999.666 1902.23 L 665.378 1569.52 C 654.039 1558.12 593.955 1501.53 592.4 1494.29 C 635.37 1529.6 681.313 1564.64 732.177 1588.23 C 801.841 1624.26 891.063 1648.15 969.092 1655.04 C 1138.61 1670.53 1307.32 1617.91 1437.98 1508.8 C 1569.18 1398.45 1643.64 1248.05 1658.34 1078.14 C 1662.95 1049.63 1658.57 948.145 1651.23 921.122 C 1650.54 910.603 1644.36 882.781 1641.92 871.883 C 1619.99 773.844 1574.91 682.481 1510.44 605.439 C 1517.85 608.371 1684.62 777.302 1703.65 796.129 L 1880.71 969.846 C 1891.58 980.678 1958.16 1048.95 1967.05 1053.36 L 1967.22 637.527 L 1966.95 487.108 C 1966.95 445.966 1968.29 403.534 1965.21 362.508 C 1963.85 344.454 1958.92 325.65 1954.55 308.048 z" fill="url(#Gradient1)" transform="translate(0,0)"></path>
<path d="M 1954.55 308.048 C 1965.19 320.437 1969.68 384.599 1969.26 402.77 C 1968.76 424.684 1968.26 448.834 1968.27 470.951 L 1969.36 616.386 L 1969.49 1032.05 L 1967.96 1326.44 C 1967.92 1355.57 1972.64 1391.49 1972.27 1421.19 C 1972.09 1435.83 1969.21 1451.39 1970.15 1466.47 C 1965.68 1510.8 1969.77 1555.6 1968.52 1600.1 C 1967.88 1623.18 1971.84 1652.7 1969.25 1675.39 C 1972.38 1686.08 1970.74 1693.21 1970.77 1704.07 C 1970.91 1745.38 1957.52 1787.95 1937.17 1823.66 C 1916.89 1858.28 1895.05 1888.76 1862.86 1913.06 C 1835.74 1933.53 1818.17 1948.12 1784.68 1957.64 C 1726.48 1974.19 1673.48 1991.07 1612 1985.56 C 1592.07 1983.77 1566.18 1987 1545.73 1985.55 C 1529.19 1984.96 1515.89 1984.27 1498.86 1984.5 L 1011.78 1988.46 C 917.987 1988.68 826.513 1991.62 732.178 1988.35 C 642.719 1985.24 549.974 1988.04 460.184 1986.53 C 407.03 1985.63 361.594 1985.02 311.512 1962.12 C 302.32 1958.16 293.147 1951.52 283.92 1947.49 C 267.419 1940.28 252.354 1935.14 238.3 1923.06 L 238.011 1921.95 C 245.452 1925.96 254.841 1932.15 261.982 1935.55 C 289.933 1948.89 321.549 1960.43 352.059 1965.43 C 381.469 1970.24 412.17 1968.97 441.929 1969.01 L 558.006 1969.1 L 895.566 1969.08 C 949.283 1969.02 1011 1967.26 1064.13 1968.77 C 1078.03 1969.41 1096.52 1968.84 1110.71 1968.78 L 1199.66 1968.5 C 1290.99 1969.01 1382.32 1969.04 1473.65 1968.58 L 1601.29 1969.01 C 1630.02 1969.13 1662.3 1970.85 1690.28 1966.03 C 1770.74 1952.14 1837.8 1914.23 1890.76 1852.07 C 1934.29 1800.99 1953.09 1758.65 1965.48 1693.2 C 1968.13 1670.79 1967.03 1636.93 1967.01 1613.42 L 1966.85 1479.42 L 1967.05 1053.36 L 1967.22 637.527 L 1966.95 487.108 C 1966.95 445.966 1968.29 403.534 1965.21 362.508 C 1963.85 344.454 1958.92 325.65 1954.55 308.048 z" fill="rgb(208,208,207)" transform="translate(0,0)"></path>
<path d="M 76.8497 882.341 C 75.8547 822.223 76.9405 759.054 76.9186 698.651 L 76.9571 396.985 C 77.5132 308.482 115.135 230.932 177.662 169.548 C 222.348 126.173 278.303 96.2015 339.171 83.0376 C 376.083 74.8253 413.29 76.7912 450.947 76.9077 L 555.109 77.0895 L 908.532 77.2473 C 901.375 78.3149 892.211 77.9947 884.801 77.9662 C 878.655 85.6366 868.602 94.7996 861.373 101.811 C 848.749 113.946 836.243 126.203 823.855 138.58 C 777.206 185.993 730.242 233.094 682.966 279.881 L 301.036 658.525 L 117.11 840.989 C 110.742 847.283 81.6677 879.552 76.8497 882.341 z" fill="rgb(24,194,141)" transform="translate(0,0)"></path>
<metadata><recraft-signature>{"signed_by": "recraft", "signature_b64": "MGLURaNKdQvL8uiPVnBqExUg+vpVvjNRF7o498JkVJpXFYPVF44fiTM85Bd6hR9V4U+JkKejmBwEb7w0RhsnDQ==", "signing_algo": "Ed25519", "generation_timestamp": 1783499208, "identifier": "3c6b97e8-8df0-41cf-b0a3-b9fc43415ca5"}</recraft-signature></metadata></svg>