<svg xmlns="http://www.w3.org/2000/svg" height="1024" preserveAspectRatio="none" style="display: block;" version="1.1" viewBox="0 0 2048 2048" width="1024">
<defs>
	<linearGradient gradientUnits="userSpaceOnUse" id="Gradient1" x1="1044.83" x2="950.737" y1="1692.99" y2="1564.74">
		<stop class="stop0" offset="0" stop-color="rgb(37,65,109)" stop-opacity="1"></stop>
		<stop class="stop1" offset="1" stop-color="rgb(44,102,131)" stop-opacity="1"></stop>
	</linearGradient>
	<linearGradient gradientUnits="userSpaceOnUse" id="Gradient2" x1="911.788" x2="1548.79" y1="1502.08" y2="1157.15">
		<stop class="stop0" offset="0" stop-color="rgb(19,3,41)" stop-opacity="1"></stop>
		<stop class="stop1" offset="1" stop-color="rgb(53,190,161)" stop-opacity="1"></stop>
	</linearGradient>
	<linearGradient gradientUnits="userSpaceOnUse" id="Gradient3" x1="1078.61" x2="1089.13" y1="996.46" y2="910.112">
		<stop class="stop0" offset="0" stop-color="rgb(12,126,90)" stop-opacity="1"></stop>
		<stop class="stop1" offset="1" stop-color="rgb(17,210,120)" stop-opacity="1"></stop>
	</linearGradient>
	<linearGradient gradientUnits="userSpaceOnUse" id="Gradient4" x1="785.898" x2="807.115" y1="767.478" y2="551.171">
		<stop class="stop0" offset="0" stop-color="rgb(0,148,96)" stop-opacity="1"></stop>
		<stop class="stop1" offset="1" stop-color="rgb(65,193,114)" stop-opacity="1"></stop>
	</linearGradient>
	<linearGradient gradientUnits="userSpaceOnUse" id="Gradient5" x1="872.065" x2="873.899" y1="617.223" y2="419.73">
		<stop class="stop0" offset="0" stop-color="rgb(0,155,101)" stop-opacity="1"></stop>
		<stop class="stop1" offset="1" stop-color="rgb(37,218,124)" stop-opacity="1"></stop>
	</linearGradient>
	<linearGradient gradientUnits="userSpaceOnUse" id="Gradient6" x1="1081.1" x2="1000.62" y1="530.506" y2="352.014">
		<stop class="stop0" offset="0" stop-color="rgb(83,196,99)" stop-opacity="1"></stop>
		<stop class="stop1" offset="1" stop-color="rgb(176,212,127)" stop-opacity="1"></stop>
	</linearGradient>
</defs>
<path d="M 0 0 L 2048 0 L 2048 2048 L 0 2048 L 0 0 z" fill="rgb(251,251,251)" transform="translate(0,0)"></path>
<path d="M 1024.89 333.353 C 1033.16 338.061 1047.6 347.492 1055.01 353.573 C 1061.27 356.622 1071.05 363.514 1077.2 367.462 C 1095.56 379.239 1114.14 392.131 1131.89 404.871 C 1143.13 412.933 1164.64 425.409 1174.07 433.582 C 1216.49 457.147 1257.2 491.273 1298.93 516.783 C 1306.32 521.298 1313.98 526.703 1321.18 531.605 C 1323.8 534.736 1324.28 534.72 1324.46 539.459 C 1324.94 551.412 1324.83 563.621 1324.83 575.578 L 1324.77 639.499 C 1324.72 716.41 1323.36 799.382 1325.09 875.848 L 1143.82 995.804 L 1067.95 1045.8 C 1054.47 1054.75 1038.82 1064.59 1026.01 1074.04 C 1017.85 1070.68 1002.55 1059.58 994.765 1054.27 C 981.491 1045.18 968.08 1036.29 954.535 1027.61 L 801.406 928.89 C 775.135 911.846 748.749 895.996 723.172 877.804 L 723.346 782.972 C 723.693 740.088 723.687 697.203 723.329 654.319 C 723.278 625.098 722.721 593.324 723.987 564.344 C 723.626 556.188 724.045 545.231 724.113 536.867 C 732.435 529.518 761.463 510.771 771.441 503.947 C 813.978 474.859 858.678 447.561 900.153 416.848 C 918.618 403.959 938.453 391.272 956.968 378.095 C 964.316 372.865 982.312 360.36 989.802 356.391 C 993.684 353.013 1018.37 337.701 1024.89 333.353 z" fill="rgb(10,106,75)" transform="translate(0,0)"></path>
<path d="M 1024.89 333.353 C 1033.16 338.061 1047.6 347.492 1055.01 353.573 C 1061.27 356.622 1071.05 363.514 1077.2 367.462 C 1095.56 379.239 1114.14 392.131 1131.89 404.871 C 1143.13 412.933 1164.64 425.409 1174.07 433.582 C 1216.49 457.147 1257.2 491.273 1298.93 516.783 C 1306.32 521.298 1313.98 526.703 1321.18 531.605 C 1295.64 549.098 1270.25 566.789 1244.99 584.678 C 1230.4 594.907 1212.19 606.898 1198.23 617.463 C 1186.33 605.576 1174.7 600.815 1163.25 591.649 L 1158.05 588.562 C 1152.84 586.808 1151.86 585.983 1147.12 582.935 C 1132.53 606.173 1108.23 621.877 1088.12 639.491 C 1068.69 656.508 1050.9 670.71 1028.62 683.665 C 1027.02 684.592 1024.34 687.592 1024.13 689.4 C 1020.04 710.399 1023.89 738.558 1021.79 759.347 C 1021.36 788.497 1020.96 830.369 1022.33 859.303 C 1021.8 861.483 1022.39 860.915 1021.08 861.961 C 1019.15 857.237 1017.72 839.661 1016.62 833.283 C 1014.74 822.363 1013.27 816.132 1009.94 805.437 C 1004.97 788.098 992.523 767.381 982.314 752.544 L 981.756 754.652 L 983.223 757.124 C 974.65 768.341 931.102 779.69 915.758 779.854 C 911.927 775.762 911.403 775.181 906.239 773.095 C 870.841 733.673 854.058 677.001 850.785 624.82 L 849.378 620.638 L 848.574 619.929 C 835.233 608.046 809.605 592.083 793.88 581.443 C 779.404 571.648 758.029 556.069 743.448 547.597 C 737.339 543.354 730.741 540.229 724.113 536.867 C 732.435 529.518 761.463 510.771 771.441 503.947 C 813.978 474.859 858.678 447.561 900.153 416.848 C 918.618 403.959 938.453 391.272 956.968 378.095 C 964.316 372.865 982.312 360.36 989.802 356.391 C 993.684 353.013 1018.37 337.701 1024.89 333.353 z" fill="rgb(251,251,251)" transform="translate(0,0)"></path>
<path d="M 1024.89 333.353 C 1033.16 338.061 1047.6 347.492 1055.01 353.573 C 1061.27 356.622 1071.05 363.514 1077.2 367.462 C 1095.56 379.239 1114.14 392.131 1131.89 404.871 C 1143.13 412.933 1164.64 425.409 1174.07 433.582 C 1216.49 457.147 1257.2 491.273 1298.93 516.783 C 1306.32 521.298 1313.98 526.703 1321.18 531.605 C 1295.64 549.098 1270.25 566.789 1244.99 584.678 C 1230.4 594.907 1212.19 606.898 1198.23 617.463 C 1186.33 605.576 1174.7 600.815 1163.25 591.649 L 1158.05 588.562 C 1153.75 584.597 1130.68 569.144 1125.29 565.61 C 1106.82 553.48 1087.65 539.336 1069.08 527.718 C 1056.4 518.445 1034.89 504.354 1021.4 496.298 C 1018.94 494.043 1006.76 486.616 1002.98 484.198 C 991.583 476.916 980.242 469.555 968.953 462.116 C 955.311 453.226 941.739 444.23 928.237 435.13 C 922.054 430.931 905.972 419.304 900.153 416.848 C 918.618 403.959 938.453 391.272 956.968 378.095 C 964.316 372.865 982.312 360.36 989.802 356.391 C 993.684 353.013 1018.37 337.701 1024.89 333.353 z" fill="url(#Gradient6)" transform="translate(0,0)"></path>
<path d="M 1159.87 425.993 C 1164.91 429.382 1168.71 433.14 1174.07 433.582 C 1216.49 457.147 1257.2 491.273 1298.93 516.783 C 1306.32 521.298 1313.98 526.703 1321.18 531.605 C 1295.64 549.098 1270.25 566.789 1244.99 584.678 C 1230.4 594.907 1212.19 606.898 1198.23 617.463 C 1186.33 605.576 1174.7 600.815 1163.25 591.649 C 1154.52 577.283 1090.43 545.696 1080.97 532.522 L 1083.36 530.348 C 1083.75 528.622 1084.74 523.782 1085.93 522.858 C 1092.57 517.666 1107.36 509.067 1112.23 501.964 C 1124.93 483.443 1137.08 463.788 1148.31 444.277 C 1152.01 437.85 1155.84 433.531 1159.3 427.068 L 1159.87 425.993 z" fill="rgb(30,188,114)" transform="translate(0,0)"></path>
<path d="M 1024.89 333.353 C 1033.16 338.061 1047.6 347.492 1055.01 353.573 C 1048.06 352.328 1038.39 342.521 1035.45 342.492 C 1020.5 342.349 1006.54 354.26 989.802 356.391 C 993.684 353.013 1018.37 337.701 1024.89 333.353 z" fill="rgb(172,226,117)" transform="translate(0,0)"></path>
<path d="M 900.153 416.848 C 905.972 419.304 922.054 430.931 928.237 435.13 C 941.739 444.23 955.311 453.226 968.953 462.116 C 980.242 469.555 991.583 476.916 1002.98 484.198 C 1006.76 486.616 1018.94 494.043 1021.4 496.298 L 1021.51 498.76 C 1012.9 507.907 961.565 541.959 948.35 550.962 C 914.915 573.549 881.919 596.779 849.378 620.638 L 848.574 619.929 C 835.233 608.046 809.605 592.083 793.88 581.443 C 779.404 571.648 758.029 556.069 743.448 547.597 C 737.339 543.354 730.741 540.229 724.113 536.867 C 732.435 529.518 761.463 510.771 771.441 503.947 C 813.978 474.859 858.678 447.561 900.153 416.848 z" fill="url(#Gradient5)" transform="translate(0,0)"></path>
<path d="M 1021.4 496.298 C 1034.89 504.354 1056.4 518.445 1069.08 527.718 C 1087.65 539.336 1106.82 553.48 1125.29 565.61 C 1130.68 569.144 1153.75 584.597 1158.05 588.562 C 1152.84 586.808 1151.86 585.983 1147.12 582.935 C 1132.53 606.173 1108.23 621.877 1088.12 639.491 C 1068.69 656.508 1050.9 670.71 1028.62 683.665 C 1027.02 684.592 1024.34 687.592 1024.13 689.4 C 1020.04 710.399 1023.89 738.558 1021.79 759.347 C 1021.23 753.668 1021.27 746.328 1021.35 740.585 C 1022.14 687.892 1021.09 634.929 1021.96 582.265 C 1021.4 564.056 1022.09 545.693 1022.02 527.488 C 1021.99 518.965 1022.59 507.022 1021.51 498.76 L 1021.4 496.298 z" fill="rgb(30,188,114)" transform="translate(0,0)"></path>
<path d="M 1021.4 496.298 C 1034.89 504.354 1056.4 518.445 1069.08 527.718 C 1062.19 527.828 1042.43 509.709 1033.82 506.658 C 1030.62 510.084 1027.82 519.616 1023.65 525.664 C 1023.32 538.626 1024.74 572.39 1021.96 582.265 C 1021.4 564.056 1022.09 545.693 1022.02 527.488 C 1021.99 518.965 1022.59 507.022 1021.51 498.76 L 1021.4 496.298 z" fill="rgb(55,223,138)" transform="translate(0,0)"></path>
<path d="M 850.785 624.82 C 860.563 641.738 872.422 660.375 886.907 673.64 C 910.338 695.096 967.638 723.936 982.314 752.544 L 981.756 754.652 L 983.223 757.124 C 974.65 768.341 931.102 779.69 915.758 779.854 C 911.927 775.762 911.403 775.181 906.239 773.095 C 870.841 733.673 854.058 677.001 850.785 624.82 z" fill="rgb(172,226,117)" transform="translate(0,0)"></path>
<path d="M 724.113 536.867 C 730.741 540.229 737.339 543.354 743.448 547.597 C 758.029 556.069 779.404 571.648 793.88 581.443 C 809.605 592.083 835.233 608.046 848.574 619.929 L 849.378 620.638 L 850.785 624.82 C 854.058 677.001 870.841 733.673 906.239 773.095 C 913.614 782.157 923.908 789.285 930.108 797.164 L 928.164 796.998 C 910.854 782.891 894.769 763.453 882.41 744.729 C 879.442 740.232 876.402 729.271 873.111 726.473 C 870.437 727.684 865.883 730.303 863.489 729.994 C 862.049 753.339 926.498 807.202 927.694 813.105 L 925.313 813.072 L 923.548 812.976 C 915.576 805.503 902.519 790.68 894.924 785.05 C 890.018 799.113 863.373 795.811 849.678 797.001 C 847.713 803.15 857.001 814.661 854.546 818.503 L 853.313 816.371 C 845.624 810.103 842.836 780.42 838.284 772.026 C 838.15 771.777 818.648 771.095 815.858 770.32 C 792.768 763.907 754.507 749.334 736.311 735.262 L 735.075 734.299 C 732.467 734.138 731.213 734.058 728.66 733.577 C 727.4 731.305 727.522 731.123 725.499 729.586 C 724.537 752.419 725.334 775.157 724.824 797.992 C 724.304 792.988 723.811 787.981 723.346 782.972 C 723.693 740.088 723.687 697.203 723.329 654.319 C 723.278 625.098 722.721 593.324 723.987 564.344 C 723.626 556.188 724.045 545.231 724.113 536.867 z" fill="url(#Gradient4)" transform="translate(0,0)"></path>
<path d="M 840.897 665.556 C 850.078 718.815 862.872 749.566 901.479 788.797 C 905.769 793.156 923.346 809.407 925.313 813.072 L 923.548 812.976 C 915.576 805.503 902.519 790.68 894.924 785.05 C 890.018 799.113 863.373 795.811 849.678 797.001 C 847.713 803.15 857.001 814.661 854.546 818.503 L 853.313 816.371 C 832.821 755.294 833.555 726.601 840.897 665.556 z" fill="rgb(107,229,117)" transform="translate(0,0)"></path>
<path d="M 724.113 536.867 C 730.741 540.229 737.339 543.354 743.448 547.597 L 741.529 548.077 C 734.384 543.859 732.075 543.766 726.312 550.058 C 725.194 555.596 725.852 560.055 723.987 564.344 C 723.626 556.188 724.045 545.231 724.113 536.867 z" fill="rgb(30,188,114)" transform="translate(0,0)"></path>
<path d="M 854.546 818.503 C 857.001 814.661 847.713 803.15 849.678 797.001 C 863.373 795.811 890.018 799.113 894.924 785.05 C 902.519 790.68 915.576 805.503 923.548 812.976 L 925.313 813.072 L 927.694 813.105 C 932.669 819.917 946.176 831.287 952.706 838.174 C 971.457 857.953 980.394 876.351 991.845 900.132 C 982.736 907.286 928.245 904.73 916.509 916.136 C 894.596 893.82 862.241 848.234 854.546 818.503 z" fill="rgb(55,223,138)" transform="translate(0,0)"></path>
<path d="M 991.845 900.132 C 999.975 918.647 1005.65 940.348 1007.3 960.486 C 1007.58 963.953 1009.12 991.741 1008.66 993.281 C 1004.97 992.314 1001.78 988.258 997.852 985.427 C 971.603 966.508 938.271 939.307 916.509 916.136 C 928.245 904.73 982.736 907.286 991.845 900.132 z" fill="rgb(30,188,114)" transform="translate(0,0)"></path>
<path d="M 915.758 779.854 C 931.102 779.69 974.65 768.341 983.223 757.124 L 981.756 754.652 L 982.314 752.544 C 992.523 767.381 1004.97 788.098 1009.94 805.437 C 1002.33 821.038 971.732 829.339 957.23 822.148 C 949.925 816.479 939.686 804.768 930.108 797.164 C 923.908 789.285 913.614 782.157 906.239 773.095 C 911.403 775.181 911.927 775.762 915.758 779.854 z" fill="rgb(107,229,117)" transform="translate(0,0)"></path>
<path d="M 1009.94 805.437 C 1013.27 816.132 1014.74 822.363 1016.62 833.283 C 1017.72 839.661 1019.15 857.237 1021.08 861.961 C 1022.39 860.915 1021.8 861.483 1022.33 859.303 C 1024.27 866.746 1019.8 924.02 1019.45 936.181 C 1013.9 909.978 996.651 873.228 981.385 851.258 C 974.807 841.792 965.011 830.916 957.23 822.148 C 971.732 829.339 1002.33 821.038 1009.94 805.437 z" fill="rgb(55,223,138)" transform="translate(0,0)"></path>
<path d="M 1121.47 817.32 L 1122.69 817.808 C 1125.23 815.367 1126.71 812.858 1129.9 813.078 C 1135.86 813.489 1142.25 816.474 1148.06 816.631 C 1157.9 816.898 1185.93 812.266 1193.91 814.939 C 1194.76 818.956 1191.95 819.318 1192.23 826.065 C 1190.23 836.519 1168.82 876.466 1160.86 884.306 C 1141.44 915.179 1101.44 946.686 1073.35 970.259 C 1064.57 977.624 1049.48 990.466 1040.23 996.627 C 1041.36 949.549 1050.08 912.995 1074.56 872.779 C 1078.65 859.781 1109.76 826.412 1121.47 817.32 z" fill="rgb(55,223,138)" transform="translate(0,0)"></path>
<path d="M 1074.56 872.779 C 1075.01 880.417 1060.22 897.675 1059.64 907.199 C 1063.72 909.111 1075.27 908.386 1081.41 909.252 C 1097.31 911.455 1113.01 914.929 1128.36 919.642 C 1133.48 914.861 1158.49 885.023 1160.86 884.306 C 1141.44 915.179 1101.44 946.686 1073.35 970.259 C 1064.57 977.624 1049.48 990.466 1040.23 996.627 C 1041.36 949.549 1050.08 912.995 1074.56 872.779 z" fill="url(#Gradient3)" transform="translate(0,0)"></path>
<path d="M 1065.32 763.892 C 1076.58 747.98 1090.29 733.947 1105.93 722.313 C 1142.08 695.167 1175.65 684.922 1193.62 640.017 C 1186.91 691.195 1180.5 717.13 1150.66 761.503 C 1145.26 768.578 1125.41 793.663 1118.79 798.134 C 1115.82 798.981 1114.57 799.801 1112.38 802.019 C 1111.26 803.153 1110.23 804.302 1108.94 805.242 C 1104.52 808.443 1055.95 803.918 1047.79 802.538 C 1047.63 798.313 1049.75 796.964 1049.43 792.089 C 1052.05 784.452 1060.49 770.515 1065.32 763.892 z" fill="rgb(172,226,117)" transform="translate(0,0)"></path>
<path d="M 1065.32 763.892 C 1073.33 765.907 1095.47 759.192 1107.19 758.767 C 1125.99 758.087 1131.96 758.018 1150.66 761.503 C 1145.26 768.578 1125.41 793.663 1118.79 798.134 C 1115.82 798.981 1114.57 799.801 1112.38 802.019 C 1111.26 803.153 1110.23 804.302 1108.94 805.242 C 1104.52 808.443 1055.95 803.918 1047.79 802.538 C 1047.63 798.313 1049.75 796.964 1049.43 792.089 C 1052.05 784.452 1060.49 770.515 1065.32 763.892 z" fill="rgb(107,229,117)" transform="translate(0,0)"></path>
<path d="M 1121.47 817.32 C 1130.4 807.543 1140.78 797.878 1149.77 787.958 C 1187.94 745.855 1194.26 717.209 1207.18 665.873 C 1212.8 714.799 1213.33 780.913 1192.23 826.065 C 1191.95 819.318 1194.76 818.956 1193.91 814.939 C 1185.93 812.266 1157.9 816.898 1148.06 816.631 C 1142.25 816.474 1135.86 813.489 1129.9 813.078 C 1126.71 812.858 1125.23 815.367 1122.69 817.808 L 1121.47 817.32 z" fill="rgb(107,229,117)" transform="translate(0,0)"></path>
<path d="M 1049.43 792.089 C 1049.75 796.964 1047.63 798.313 1047.79 802.538 C 1055.95 803.918 1104.52 808.443 1108.94 805.242 C 1110.23 804.302 1111.26 803.153 1112.38 802.019 C 1114.57 799.801 1115.82 798.981 1118.79 798.134 C 1113.02 804.683 1103.44 814.589 1096.87 820.386 C 1057.35 864.835 1047.42 878.81 1030.44 936.137 C 1029.35 898.845 1027.57 849.05 1040.58 813.516 C 1042.59 806.019 1045.56 798.815 1049.43 792.089 z" fill="rgb(55,223,138)" transform="translate(0,0)"></path>
<path d="M 1434.94 749.473 C 1458.26 763.753 1482.41 777.523 1504.88 792.966 C 1528.97 806.791 1563.09 830.473 1586.66 845.97 C 1587.85 862.314 1587.22 888.102 1587.29 905.084 C 1587.58 944.49 1587.6 983.899 1587.33 1023.31 L 1587.95 1343.94 C 1576.81 1352.15 1564.32 1359.61 1552.67 1367.29 L 1490.4 1408.46 C 1480.74 1414.75 1449.76 1436.24 1441.9 1440.12 L 1253.25 1564.34 C 1229.68 1580 1206.71 1596.8 1182.81 1611.97 C 1175.71 1616.48 1164.29 1624.74 1157.21 1628.51 C 1144.11 1638.14 1031.19 1712.91 1026.38 1714.16 C 1024.75 1704.62 1025.39 1685.11 1025.49 1674.8 C 1025.7 1657.07 1025.75 1639.33 1025.62 1621.59 L 1024.85 1366.39 C 1025.85 1351.68 1025.04 1327.31 1025.06 1311.8 C 1025.09 1280.06 1025.55 1247.53 1025.03 1215.87 C 1033.91 1208.53 1085.59 1174.13 1094.88 1169.5 C 1100.5 1164.48 1122.2 1150.87 1129.63 1146.03 L 1189.81 1106.18 L 1346.89 1004 C 1376.27 984.838 1405.54 964.502 1435.03 945.666 L 1435.06 944.883 L 1434.94 749.473 z" fill="url(#Gradient2)" transform="translate(0,0)"></path>
<path d="M 1434.94 749.473 C 1458.26 763.753 1482.41 777.523 1504.88 792.966 C 1528.97 806.791 1563.09 830.473 1586.66 845.97 C 1587.85 862.314 1587.22 888.102 1587.29 905.084 C 1587.58 944.49 1587.6 983.899 1587.33 1023.31 L 1587.95 1343.94 C 1576.81 1352.15 1564.32 1359.61 1552.67 1367.29 L 1490.4 1408.46 C 1480.74 1414.75 1449.76 1436.24 1441.9 1440.12 L 1253.25 1564.34 C 1229.68 1580 1206.71 1596.8 1182.81 1611.97 C 1175.71 1616.48 1164.29 1624.74 1157.21 1628.51 L 1156.8 1627.65 C 1153.48 1620.81 1154.78 1545.21 1154.67 1531.81 L 1154.3 1478.76 C 1154.27 1470.59 1153.81 1456.34 1154.85 1448.65 C 1162.46 1445.15 1168.74 1440.44 1175.71 1435.94 C 1217.89 1408.75 1259.27 1380.15 1301.59 1353.2 C 1305.13 1348.93 1349.56 1320.9 1356.23 1316.56 C 1382.79 1299.47 1409.07 1281.96 1435.07 1264.02 L 1434.75 1117.2 C 1433.78 1076.24 1435.57 1035.52 1435.32 994.598 C 1435.25 983.495 1436.32 955.123 1435.03 945.666 L 1435.06 944.883 L 1434.94 749.473 z" fill="rgb(30,80,84)" transform="translate(0,0)"></path>
<path d="M 1154.85 1448.65 C 1162.46 1445.15 1168.74 1440.44 1175.71 1435.94 C 1217.89 1408.75 1259.27 1380.15 1301.59 1353.2 C 1298.54 1360.94 1253.78 1384.16 1246.88 1391.63 L 1247.9 1392.55 L 1253.11 1391.14 C 1263.51 1398.73 1265.06 1407.87 1279.26 1412.1 C 1281.24 1412.69 1293.06 1427.57 1296.54 1429.47 C 1324.46 1446.04 1354.53 1454.31 1384.01 1467.37 C 1382.66 1474.9 1378.59 1472.51 1381.55 1477.43 L 1381.55 1477.33 C 1394.13 1472.7 1433.02 1439.88 1441.9 1440.12 L 1253.25 1564.34 C 1229.68 1580 1206.71 1596.8 1182.81 1611.97 C 1175.71 1616.48 1164.29 1624.74 1157.21 1628.51 L 1156.8 1627.65 C 1153.48 1620.81 1154.78 1545.21 1154.67 1531.81 L 1154.3 1478.76 C 1154.27 1470.59 1153.81 1456.34 1154.85 1448.65 z" fill="rgb(23,30,61)" transform="translate(0,0)"></path>
<path d="M 1434.94 749.473 C 1458.26 763.753 1482.41 777.523 1504.88 792.966 C 1528.97 806.791 1563.09 830.473 1586.66 845.97 C 1577.64 849.487 1564.1 859.267 1555.68 864.843 C 1539.05 875.858 1522.67 887.686 1505.39 897.716 C 1501.95 900.895 1486.01 910.919 1480.94 914.243 C 1465.58 924.364 1450.29 934.578 1435.06 944.883 L 1434.94 749.473 z" fill="rgb(55,223,138)" transform="translate(0,0)"></path>
<path d="M 1504.88 792.966 C 1528.97 806.791 1563.09 830.473 1586.66 845.97 C 1577.64 849.487 1564.1 859.267 1555.68 864.843 C 1539.05 875.858 1522.67 887.686 1505.39 897.716 L 1505.84 896.123 C 1515.22 888.587 1510.52 884.175 1510.93 873.064 C 1511.52 857.351 1511.02 841.459 1511.52 825.773 C 1511.69 820.486 1518.66 812.176 1519.99 805.702 C 1518.54 803.356 1508.51 797.261 1505.14 794.711 L 1504.88 792.966 z" fill="rgb(147,223,178)" transform="translate(0,0)"></path>
<path d="M 1236.26 1245.92 C 1290.43 1209.46 1345.08 1173.72 1400.2 1138.71 C 1405.08 1135.62 1431.44 1118.23 1434.75 1117.2 L 1435.07 1264.02 C 1409.07 1281.96 1382.79 1299.47 1356.23 1316.56 C 1349.56 1320.9 1305.13 1348.93 1301.59 1353.2 C 1259.27 1380.15 1217.89 1408.75 1175.71 1435.94 C 1168.74 1440.44 1162.46 1445.15 1154.85 1448.65 C 1154.26 1432.32 1154.81 1412.84 1154.85 1396.16 L 1154.92 1301.03 C 1181.1 1282.27 1209.8 1265.1 1236.26 1245.92 z" fill="rgb(251,251,251)" transform="translate(0,0)"></path>
<path d="M 464.334 849.324 C 465.446 847.387 465.921 846.642 467.893 845.342 C 515.365 814.06 564.266 784.426 611.098 752.207 L 610.977 938.749 L 610.81 945.713 C 623.185 952.474 641.093 964.735 653.302 972.566 C 681.789 990.593 710.032 1009 738.023 1027.79 C 748.364 1034.63 785.25 1057.59 793.154 1064.52 C 810.949 1074.74 832.815 1089.64 849.998 1101.07 L 916.263 1144.41 L 968.962 1178.19 C 974.999 1182.06 990.249 1191.37 994.988 1195.52 C 1003.42 1199.73 1017.18 1209.82 1025.03 1215.87 C 1025.55 1247.53 1025.09 1280.06 1025.06 1311.8 C 1025.04 1327.31 1025.85 1351.68 1024.85 1366.39 L 1025.62 1621.59 C 1025.75 1639.33 1025.7 1657.07 1025.49 1674.8 C 1025.39 1685.11 1024.75 1704.62 1026.38 1714.16 C 1017.68 1707.9 1002.5 1698.99 992.601 1692.41 C 965.405 1673.98 938.061 1655.77 910.57 1637.79 C 898.875 1630.12 879.163 1617.95 868.493 1609.74 C 859.847 1604.92 850.914 1599.44 842.654 1593.98 C 778.216 1551.32 713.243 1509.28 648.352 1467.35 C 643.867 1465.23 632.837 1457.53 628.141 1454.4 C 616.058 1446.28 603.883 1438.3 591.62 1430.45 L 505.221 1374.53 C 494.41 1367.53 473.823 1355.52 464.832 1348.48 L 465.02 1036.17 C 463.984 1024.98 464.822 999.552 464.878 987.52 L 465.102 894.985 C 465.133 885.348 465.945 857.379 464.334 849.324 z" fill="rgb(60,184,166)" transform="translate(0,0)"></path>
<path d="M 673.047 1157.7 C 670.491 1154.66 669.594 1153.29 666.397 1151.04 L 666.484 1151.38 C 668.056 1147.15 697.586 1132.71 703.721 1129.09 C 714.658 1122.65 726.022 1117.3 736.696 1109.84 C 754.957 1097.11 770.939 1081.38 783.968 1063.33 C 786.979 1062.36 789.647 1063.66 793.154 1064.52 C 810.949 1074.74 832.815 1089.64 849.998 1101.07 L 916.263 1144.41 L 968.962 1178.19 C 974.999 1182.06 990.249 1191.37 994.988 1195.52 C 1003.42 1199.73 1017.18 1209.82 1025.03 1215.87 C 1025.55 1247.53 1025.09 1280.06 1025.06 1311.8 C 1025.04 1327.31 1025.85 1351.68 1024.85 1366.39 L 1025.62 1621.59 C 1025.75 1639.33 1025.7 1657.07 1025.49 1674.8 C 1025.39 1685.11 1024.75 1704.62 1026.38 1714.16 C 1017.68 1707.9 1002.5 1698.99 992.601 1692.41 C 965.405 1673.98 938.061 1655.77 910.57 1637.79 C 898.875 1630.12 879.163 1617.95 868.493 1609.74 L 870.51 1608.89 C 876.891 1612.31 882.427 1618.42 887.552 1619.68 C 887.831 1611.75 887.677 1598.42 888.906 1591.34 C 889.753 1601.79 889.065 1611.61 889.67 1621.44 C 893.274 1611.1 889.763 1465.62 889.069 1444.67 C 887.25 1399.39 888.749 1344.22 888.775 1298.36 L 850.83 1273.37 C 845.925 1270.12 834.957 1263.31 830.849 1259.7 C 824.596 1256.77 814.296 1249.45 808.283 1245.43 C 796.355 1237.43 784.374 1229.52 772.339 1221.69 L 708.735 1180.99 C 697.677 1173.92 683.424 1165.35 673.047 1157.7 z" fill="rgb(44,134,147)" transform="translate(0,0)"></path>
<path d="M 673.047 1157.7 C 670.491 1154.66 669.594 1153.29 666.397 1151.04 L 666.484 1151.38 C 668.056 1147.15 697.586 1132.71 703.721 1129.09 C 714.658 1122.65 726.022 1117.3 736.696 1109.84 C 754.957 1097.11 770.939 1081.38 783.968 1063.33 C 786.979 1062.36 789.647 1063.66 793.154 1064.52 C 810.949 1074.74 832.815 1089.64 849.998 1101.07 L 916.263 1144.41 L 968.962 1178.19 C 974.999 1182.06 990.249 1191.37 994.988 1195.52 C 989.4 1195.9 944.746 1163.28 934.788 1159.34 C 936.534 1165.72 949.135 1172.62 951.64 1178.67 C 953.208 1182.46 959.661 1192.16 958.696 1195.45 C 952.185 1199.92 944.436 1202.62 937.338 1206.05 C 928.94 1210.11 921.013 1215.21 912.461 1218.94 C 899.598 1224.56 855.52 1240.19 843.627 1239.27 C 835.183 1238.61 801.732 1229.53 796.203 1232.53 L 795.736 1234.25 C 803.669 1240.95 826.467 1253.69 830.849 1259.7 C 824.596 1256.77 814.296 1249.45 808.283 1245.43 C 796.355 1237.43 784.374 1229.52 772.339 1221.69 L 708.735 1180.99 C 697.677 1173.92 683.424 1165.35 673.047 1157.7 z" fill="rgb(60,184,166)" transform="translate(0,0)"></path>
<path d="M 889.67 1621.44 C 893.513 1623.57 900.68 1628.65 905.37 1631.45 C 912.231 1625.22 908.892 1624.75 911.733 1619.13 C 916.592 1607.54 939.215 1592.54 944.56 1583.28 C 956.727 1562.22 974.15 1553.02 991.296 1536.3 C 995.559 1532.14 1002.33 1527.69 1008.68 1528.22 C 1014.01 1531.54 1017.21 1533.81 1023.59 1534.08 C 1024.65 1528.41 1023.74 1514.51 1023.68 1508.03 L 1022.6 1442.84 C 1022.36 1431.14 1022.54 1374.55 1024.85 1366.39 L 1025.62 1621.59 C 1025.75 1639.33 1025.7 1657.07 1025.49 1674.8 C 1025.39 1685.11 1024.75 1704.62 1026.38 1714.16 C 1017.68 1707.9 1002.5 1698.99 992.601 1692.41 C 965.405 1673.98 938.061 1655.77 910.57 1637.79 C 898.875 1630.12 879.163 1617.95 868.493 1609.74 L 870.51 1608.89 C 876.891 1612.31 882.427 1618.42 887.552 1619.68 C 887.831 1611.75 887.677 1598.42 888.906 1591.34 C 889.753 1601.79 889.065 1611.61 889.67 1621.44 z" fill="url(#Gradient1)" transform="translate(0,0)"></path>
<path d="M 611.747 1118.7 L 613.631 1118.45 C 624.873 1127.05 659.946 1151.18 673.047 1157.7 C 683.424 1165.35 697.677 1173.92 708.735 1180.99 L 772.339 1221.69 C 784.374 1229.52 796.355 1237.43 808.283 1245.43 C 814.296 1249.45 824.596 1256.77 830.849 1259.7 C 834.957 1263.31 845.925 1270.12 850.83 1273.37 L 888.775 1298.36 C 888.749 1344.22 887.25 1399.39 889.069 1444.67 C 859.751 1426.34 831.27 1407.17 802.153 1388.59 C 797.162 1383.87 747.337 1353.03 738.484 1347.46 C 696.214 1320.83 654.215 1290.67 612.024 1264.72 C 612.901 1216.73 611.954 1166.83 611.747 1118.7 z" fill="rgb(251,251,251)" transform="translate(0,0)"></path>
<path d="M 802.153 1388.59 C 831.27 1407.17 859.751 1426.34 889.069 1444.67 C 889.763 1465.62 893.274 1611.1 889.67 1621.44 C 889.065 1611.61 889.753 1601.79 888.906 1591.34 C 887.677 1598.42 887.831 1611.75 887.552 1619.68 C 882.427 1618.42 876.891 1612.31 870.51 1608.89 L 868.493 1609.74 C 859.847 1604.92 850.914 1599.44 842.654 1593.98 C 778.216 1551.32 713.243 1509.28 648.352 1467.35 C 649.167 1467.02 650.173 1466.55 650.897 1466.88 C 662.972 1472.42 700.124 1500.52 709.635 1503.83 C 709.758 1491.96 720.033 1483 727.722 1474.73 C 729.628 1472.69 734.691 1467.96 737.422 1467.42 C 746.106 1465.53 753.433 1457.16 760.019 1451.23 C 774.146 1438.5 789.404 1427.13 806.431 1418.47 C 813.466 1414.9 821.277 1412.61 828.367 1408.59 C 822.651 1403.03 803.641 1393.51 802.153 1388.59 z" fill="rgb(43,106,134)" transform="translate(0,0)"></path>
<path d="M 610.81 945.713 C 623.185 952.474 641.093 964.735 653.302 972.566 C 681.789 990.593 710.032 1009 738.023 1027.79 C 748.364 1034.63 785.25 1057.59 793.154 1064.52 C 789.647 1063.66 786.979 1062.36 783.968 1063.33 C 770.939 1081.38 754.957 1097.11 736.696 1109.84 C 726.022 1117.3 714.658 1122.65 703.721 1129.09 C 697.586 1132.71 668.056 1147.15 666.484 1151.38 L 666.397 1151.04 C 669.594 1153.29 670.491 1154.66 673.047 1157.7 C 659.946 1151.18 624.873 1127.05 613.631 1118.45 L 611.747 1118.7 C 610.91 1114.82 611.012 1076.45 611.016 1070.37 C 611.042 1028.91 610.389 987.136 610.81 945.713 z" fill="rgb(147,223,178)" transform="translate(0,0)"></path>
<path d="M 464.334 849.324 C 465.446 847.387 465.921 846.642 467.893 845.342 C 515.365 814.06 564.266 784.426 611.098 752.207 L 610.977 938.749 L 609.607 941.418 C 603.514 941.432 576.7 919.897 566.976 915.322 C 543.661 897.663 509.795 879.583 485.306 862.353 C 478.676 857.688 470.581 853.985 464.334 849.324 z" fill="rgb(30,188,114)" transform="translate(0,0)"></path>
<path d="M 464.334 849.324 C 470.581 853.985 478.676 857.688 485.306 862.353 C 509.795 879.583 543.661 897.663 566.976 915.322 C 560.663 914.408 531.812 893.882 523.911 889.025 C 517.666 901.34 494.302 919.984 484.583 930.66 C 481.863 933.648 472.158 940.956 468.923 944.789 C 465.4 959.157 468.873 1024.8 465.02 1036.17 C 463.984 1024.98 464.822 999.552 464.878 987.52 L 465.102 894.985 C 465.133 885.348 465.945 857.379 464.334 849.324 z" fill="rgb(147,223,178)" transform="translate(0,0)"></path>
<metadata><recraft-signature>{"signed_by": "recraft", "signature_b64": "4Ffz+fGr2gC9jYooXV2/+WMNienLrIiEAaeBPIZLVEPwwO/7Gj+b47ieI9TuoxKxcwwQ5SHxSlc1RTlXKiPHAg==", "signing_algo": "Ed25519", "generation_timestamp": 1783499068, "identifier": "3beb23b2-da5e-4c7d-9585-54a001ea831a"}</recraft-signature></metadata></svg>