<svg xmlns="http://www.w3.org/2000/svg" height="1024" preserveAspectRatio="none" style="display: block;" version="1.1" viewBox="0 0 2048 2048" width="1024">
<path d="M 0 0 L 2048 0 L 2048 2048 L 0 2048 L 0 0 z" fill="rgb(254,254,254)" transform="translate(0,0)"></path>
<path d="M 1017.97 167.663 C 1020.98 167.431 1025.38 167.486 1027.26 169.867 C 1035.46 180.257 1043.69 193.343 1050.96 204.317 L 1102.37 281.897 L 1255.51 507.582 C 1280.62 544.895 1305.63 581.189 1330.43 618.871 L 1358.11 660.723 C 1361.91 666.439 1371.3 681.361 1375.63 685.473 C 1386.96 696.238 1404.04 708.158 1416.73 717.741 L 1497.24 778.713 L 1818.33 1018.78 C 1830.93 1028.36 1825.73 1033.95 1815.36 1041.95 C 1801.62 1052.56 1787.31 1062.6 1773.2 1072.71 C 1744.67 1092.78 1716.26 1113.01 1687.95 1133.39 L 1529.44 1247.43 C 1483.52 1279.91 1437.77 1312.64 1392.19 1345.61 C 1374.13 1358.85 1366.97 1373.49 1354.84 1391.93 L 1314.09 1453.89 L 1127.27 1736.98 L 1067.3 1828.16 C 1058.97 1840.91 1040.32 1870.9 1031.14 1881.38 C 1024.8 1882.81 1022.35 1882.58 1018.42 1877.03 C 1008.7 1863.34 999.757 1848.81 990.61 1834.72 L 939.147 1756.62 L 753.903 1474.2 C 738.688 1450.75 722.197 1427.83 706.724 1404.19 C 694.952 1386.2 681.227 1364.26 668.081 1347.77 C 663.575 1342.11 643.949 1329.13 636.963 1324.24 C 619.422 1312.11 601.985 1299.83 584.655 1287.39 C 494.541 1222.56 404.8 1157.21 315.437 1091.35 C 297.401 1078.01 279.282 1064.78 261.079 1051.67 C 251.612 1044.9 223.937 1028.75 223.715 1017.69 C 230.867 1007.59 292.156 964.604 306.358 954.229 L 559.013 768.549 L 626.104 718.997 C 642.631 707 665.737 690.62 680.35 677.382 C 686.465 671.843 703.172 644.349 709.138 635.368 C 726.338 609.937 743.39 584.405 760.292 558.775 L 952.727 267.319 L 994.862 201.774 C 999.799 194.072 1012.42 173.011 1017.97 167.663 z" fill="rgb(1,1,1)" transform="translate(0,0)"></path>
<path d="M 651.87 721.055 C 655.717 726.835 607.966 774.605 619.511 788.518 C 626.284 790.545 668.214 789.921 678.693 789.913 L 777.301 789.986 L 1283.89 790.121 C 1299.45 790.112 1421.69 791.762 1427.61 788.524 C 1429.32 787.59 1431.19 785.405 1431.65 783.51 C 1434.37 772.283 1406.97 736.279 1399.96 725.348 C 1411.99 733.958 1425.08 745.846 1437.22 755.02 C 1456.18 769.338 1475.18 783.646 1494.14 797.955 L 1716.06 964.166 C 1745.56 986.018 1774.17 1007.95 1804.09 1029.44 C 1737.55 1078.53 1666.87 1127.19 1599.41 1175.86 C 1556.53 1207.13 1513.42 1238.07 1470.08 1268.7 C 1448.22 1284.25 1428.75 1298.94 1406.24 1313.87 C 1411.18 1304.95 1417.74 1296.87 1423.5 1288.44 C 1427.76 1282.21 1444.82 1261.6 1430.1 1257.49 C 1424.02 1258.71 1420.08 1262.83 1416.65 1267.89 C 1400.84 1290.91 1385.67 1315.66 1370.04 1338.63 C 1366.45 1343.9 1336.06 1364.07 1328.47 1369.45 L 1226.63 1441.08 L 1207.85 1454.12 C 1190.7 1428.21 1169.67 1390.49 1153.59 1363.17 L 1071.16 1225.1 C 1059.18 1205.14 1042.88 1177.14 1028.79 1158.1 C 1027.47 1156.32 1023.46 1156.2 1021.04 1156.63 C 1011.36 1164.85 972.035 1233.22 962.909 1248.35 L 840.789 1451.74 C 829.422 1444.27 815.103 1433.3 803.859 1425.18 C 777.303 1406.07 750.897 1386.76 724.643 1367.24 C 719.539 1363.46 683.345 1337.65 680.598 1334.34 C 660.271 1309.23 645.26 1278.67 624.37 1254.37 C 622.28 1251.94 613.113 1254.51 613.504 1258.68 C 615.005 1274.67 632.438 1292.38 640.52 1306.42 L 641.275 1307.74 C 619.923 1290.39 596.039 1274.49 573.68 1258.42 C 551.283 1242.32 528.9 1226.09 506.586 1209.87 L 246.504 1019.41 C 258.502 1009.47 275.935 997.667 288.959 988.241 L 366.333 931.962 C 462.014 862.342 557.195 792.038 651.87 721.055 z" fill="rgb(254,254,254)" transform="translate(0,0)"></path>
<path d="M 1195.42 903.288 C 1202.95 903.082 1209.49 903.294 1216.8 905.011 C 1253.3 913.59 1249.6 966.531 1229.46 988.961 C 1223.54 995.558 1218.64 998.346 1211.06 1002.56 C 1219.54 1031.18 1232.58 1061.6 1242.99 1089.97 L 1228.63 1090.05 C 1223.75 1079.38 1216.75 1058.27 1212.54 1046.75 C 1207.9 1034.19 1204.03 1020.27 1199.07 1007.85 C 1198.01 1005.21 1197.21 1005.55 1194.82 1004.83 L 1193.74 1005.77 C 1191.97 1012.81 1191.41 1027.57 1190.78 1035.62 L 1186.69 1089.89 L 1172.93 1089.75 L 1183.79 958.888 C 1185.13 943.551 1186.16 920.512 1188.25 906.137 C 1190.65 903.709 1191.43 904.243 1195.42 903.288 z" fill="rgb(1,1,1)" transform="translate(0,0)"></path>
<path d="M 1201.96 914.892 C 1240.36 915.458 1233.95 965.119 1216.11 985.339 C 1207.3 991.869 1205.28 991.76 1194.51 993.163 C 1195.42 972.27 1199.37 935.926 1201.96 914.892 z" fill="rgb(254,254,254)" transform="translate(0,0)"></path>
<path d="M 919.101 903.011 C 924.811 902.932 930.16 901.399 932.094 907.526 C 945.486 949.957 959.567 992.368 970.539 1035.5 C 972.262 1042.28 973.965 1050.98 976.737 1057.17 C 981.436 1007.38 985.097 953.436 989.253 903.157 L 1002.67 903.274 C 997.957 964.324 991.064 1026.36 986.88 1087.01 L 986.483 1088.22 C 983.466 1089.62 977.476 1089.02 973.863 1088.94 C 956.744 1039.75 944.538 985.746 928.82 936.372 C 927.566 958.988 925.136 982.027 923.385 1004.69 C 921.219 1032.71 919.684 1061.16 916.7 1089.06 L 902.802 1089.07 C 907.758 1049.63 909.073 1008.67 913.248 969.008 C 915.526 947.367 917.748 924.709 919.101 903.011 z" fill="rgb(1,1,1)" transform="translate(0,0)"></path>
<path d="M 745.19 902.167 L 759.956 902.138 C 751.869 928.193 742.921 953.864 734.494 979.805 C 723.095 1015.81 711.244 1051.68 698.944 1087.39 C 694.356 1087.73 688.919 1087.68 684.256 1087.75 C 678.565 1039.65 669.105 985.325 662.338 936.53 C 660.61 927.395 659.1 912.597 657.806 902.989 L 670.888 902.848 C 674.798 923.045 677.607 947.469 680.42 967.985 C 684.975 1000.43 689.342 1032.9 693.52 1065.4 C 697.868 1048.54 705.802 1025.65 711.249 1008.63 C 722.761 973.203 734.075 937.716 745.19 902.167 z" fill="rgb(1,1,1)" transform="translate(0,0)"></path>
<path d="M 560.215 902.025 C 577.341 902.029 594.467 902.126 611.592 902.315 L 610.944 914.991 L 573.17 915.007 C 571.377 939.213 568.754 963.649 566.867 987.974 L 604.994 988.159 C 604.867 992.329 604.387 996.952 604.047 1001.15 L 565.97 1001.02 C 563.905 1017.22 562.885 1040.41 561.5 1057.25 C 560.928 1062.08 560.786 1069.99 560.555 1075.08 C 574.122 1075.5 589.09 1075.23 602.764 1075.26 L 602.128 1087.02 L 544.813 1086.98 C 552.438 1027.47 552.493 961.563 560.215 902.025 z" fill="rgb(1,1,1)" transform="translate(0,0)"></path>
<path d="M 1416.83 905.026 C 1434.85 904.976 1452.87 905.053 1470.89 905.257 C 1470.55 909.679 1470.06 913.702 1469.51 918.092 L 1429.04 917.833 C 1428.05 938.167 1425.84 971.467 1422.89 990.863 L 1461.1 991.071 L 1460.5 1002.87 C 1447.69 1002.77 1434.89 1002.73 1422.09 1002.77 C 1420.08 1019.36 1419.1 1040.28 1417.82 1057.24 L 1415.8 1078.97 L 1458.92 1079.02 L 1458.12 1090.98 L 1400.59 1090.85 C 1401.02 1082.15 1401.99 1072.71 1402.93 1064.01 C 1408.6 1011.19 1411.52 957.811 1416.83 905.026 z" fill="rgb(1,1,1)" transform="translate(0,0)"></path>
<path d="M 1306.17 904.384 C 1323.84 904.334 1341.52 904.41 1359.19 904.614 L 1357.76 917.462 C 1344.99 917.657 1331.89 917.529 1319.08 917.547 C 1316.51 938.825 1313.79 968.684 1312.7 989.974 L 1350.25 989.811 L 1348.76 1002.21 L 1311.21 1002.02 C 1309.82 1021.26 1307.63 1041.01 1306.81 1060.19 C 1306.18 1066.18 1305.46 1072.17 1304.63 1078.14 L 1346.05 1078.19 C 1345.99 1082.26 1345.69 1086.45 1345.46 1090.53 L 1290.34 1090.36 C 1292.43 1045.13 1299.05 999.219 1301.88 953.914 C 1302.81 938.954 1303.69 918.89 1306.17 904.384 z" fill="rgb(1,1,1)" transform="translate(0,0)"></path>
<path d="M 809.13 902.931 C 826.142 902.871 843.153 902.942 860.164 903.145 C 860.075 907.305 859.596 911.496 859.207 915.645 C 846.686 915.377 834.161 915.305 821.636 915.427 C 820.329 939.366 817.793 963.842 816.292 987.997 L 855.593 988 C 855.638 991.782 855.165 996.738 854.91 1000.6 L 815.425 1000.26 C 813.635 1018.71 811.442 1036.64 809.855 1055.24 C 809.074 1062.3 808.341 1069.37 807.657 1076.44 C 821.762 1076.93 837.653 1076.65 851.9 1076.72 L 850.897 1088.3 L 792.764 1088.27 C 797.719 1044.22 800.432 999.507 804.883 955.374 C 806.631 938.039 808.058 920.312 809.13 902.931 z" fill="rgb(1,1,1)" transform="translate(0,0)"></path>
<path d="M 1057.37 903.805 L 1135.2 904.039 C 1135.05 908.132 1134.72 912.334 1134.45 916.431 L 1102.33 916.455 C 1097.83 964.983 1093.62 1013.54 1089.71 1062.12 C 1088.84 1071.1 1087.81 1080.07 1086.62 1089.02 L 1073.06 1089.01 C 1080.03 1033.25 1082.65 973.42 1088.8 916.423 L 1056.8 916.128 C 1056.89 912.103 1057.18 907.847 1057.37 903.805 z" fill="rgb(1,1,1)" transform="translate(0,0)"></path>
<path d="M 426.79 991.63 C 432.528 990.243 438.567 992.086 442.553 996.441 C 446.538 1000.8 447.841 1006.97 445.951 1012.57 C 444.062 1018.16 439.281 1022.28 433.471 1023.33 C 424.846 1024.88 416.549 1019.3 414.742 1010.72 C 412.935 1002.15 418.272 993.69 426.79 991.63 z" fill="rgb(1,1,1)" transform="translate(0,0)"></path>
<path d="M 1602.15 994.798 C 1607.69 994.021 1613.23 996.324 1616.58 1000.81 C 1619.94 1005.29 1620.59 1011.25 1618.29 1016.36 C 1615.98 1021.46 1611.07 1024.91 1605.49 1025.35 C 1597.2 1026 1589.9 1019.96 1589 1011.69 C 1588.09 1003.43 1593.92 995.951 1602.15 994.798 z" fill="rgb(1,1,1)" transform="translate(0,0)"></path>
<path d="M 1024.41 438.718 C 1030.26 440.332 1069.06 472.445 1077.62 478.992 C 1141.52 527.864 1204.31 578.639 1268.44 627.174 L 1327.97 672.088 C 1340.02 681.105 1357.86 692.346 1365.86 704.439 C 1380.8 727.009 1395.69 749.933 1410.12 772.832 L 1035.87 772.873 L 1035.58 681.842 C 1052.75 681.861 1148.88 683.415 1159.39 679.964 C 1164.03 676.27 1163.48 671.345 1160.65 666.652 C 1135.66 625.163 1110.34 583.729 1084.96 542.483 C 1067.79 514.59 1050.51 486.551 1030.71 460.5 C 1028.96 458.199 1024.76 458.33 1022.11 458.167 C 1019.1 460.025 1017.23 461.578 1015.26 464.574 C 991.012 501.457 968.301 539.275 945.133 576.835 C 932.872 596.746 920.724 616.727 908.689 636.776 C 902.269 647.406 895.157 658.646 889.466 669.662 C 887.759 672.967 887.773 674.505 889.066 677.902 C 895.134 683.944 930.345 681.861 940.121 681.846 L 1018.73 681.754 L 1018.49 772.714 L 639.169 772.945 C 657.831 747.232 675.072 715.733 694.12 690.853 C 700.169 682.952 728.742 663.158 737.954 656.143 C 766.117 634.356 794.455 612.795 822.965 591.464 L 973.99 476.847 C 990.783 464.191 1007.36 450.979 1024.41 438.718 z" fill="rgb(254,254,254)" transform="translate(0,0)"></path>
<path d="M 1029.09 205.556 C 1035.47 210.372 1072.51 267.554 1079.98 278.702 L 1141.74 370.184 L 1274.3 565.745 C 1294.22 595.241 1316.27 626.377 1335.22 656.257 C 1332.52 654.945 1317.83 643.527 1314.51 641.013 C 1295.28 626.564 1276.25 611.85 1257.43 596.876 L 1117.19 487.775 L 1064.55 446.68 C 1055.25 439.429 1043.06 429.382 1033.53 423.172 C 1032.52 406.607 1033.17 386.931 1032.78 369.999 C 1031.53 314.997 1031.22 260.572 1029.09 205.556 z" fill="rgb(254,254,254)" transform="translate(0,0)"></path>
<path d="M 1012.52 207.732 C 1014.01 224.621 1013.28 256.864 1013.69 275.552 C 1014.83 324.584 1015.66 373.623 1016.18 422.666 C 990.286 444.757 957.562 466.969 930.386 488.176 C 863.235 540.581 793.392 590.779 726.434 643.243 C 725.836 643.372 725.239 643.501 724.641 643.629 C 724.664 643.497 991.004 238.794 1012.52 207.732 z" fill="rgb(254,254,254)" transform="translate(0,0)"></path>
<path d="M 1202.54 1478.76 C 1204.82 1481.55 1212.07 1494.52 1214.27 1498.35 C 1221.91 1511.58 1229.18 1524.52 1237.35 1537.49 C 1213.49 1575.69 1188.91 1612.23 1164.31 1649.8 C 1128.91 1704.32 1093.23 1758.66 1057.28 1812.82 C 1052.74 1820.17 1048.25 1827.56 1043.82 1834.98 L 1041.8 1593.29 C 1093.41 1557.93 1152.93 1516.04 1202.54 1478.76 z" fill="rgb(254,254,254)" transform="translate(0,0)"></path>
<path d="M 844.751 1475.9 C 898.997 1512.4 952.549 1553.64 1007.22 1590.68 C 1007.57 1667.59 1004.55 1746.69 1003.75 1823.95 L 991.002 1804.5 C 932.639 1713.98 870.483 1620.98 810.722 1531.23 C 822.126 1514.09 833.451 1493.73 844.751 1475.9 z" fill="rgb(254,254,254)" transform="translate(0,0)"></path>
<path d="M 1140.87 1376.83 C 1144.44 1377.81 1188.24 1454.03 1194.14 1464.26 C 1153.5 1493.43 1113.83 1522.46 1072.46 1550.62 C 1062.1 1558.24 1051.6 1565.67 1040.97 1572.92 C 1041.14 1527.54 1038.6 1477.7 1037.78 1431.98 C 1068.68 1413.6 1108.62 1393.82 1140.87 1376.83 z" fill="rgb(254,254,254)" transform="translate(0,0)"></path>
<path d="M 905.896 1374.76 C 940.502 1393.95 975.407 1412.59 1010.6 1430.68 C 1011.24 1475.4 1008.83 1526.05 1008.01 1571.5 C 998.554 1565.18 988.768 1558.04 979.435 1551.44 C 939.842 1521.33 894.388 1490.6 853.608 1461.75 C 871.23 1433.17 888.574 1403.57 905.896 1374.76 z" fill="rgb(254,254,254)" transform="translate(0,0)"></path>
<path d="M 1086 1283.82 C 1090.2 1286.2 1130.72 1357.13 1136.61 1367.67 C 1113.99 1379.95 1091.29 1392.09 1068.51 1404.07 L 1037.04 1421 C 1036.87 1388.71 1035.79 1345.79 1033.71 1313.98 C 1050.43 1303.8 1068.94 1293.63 1086 1283.82 z" fill="rgb(254,254,254)" transform="translate(0,0)"></path>
<path d="M 959.934 1284.32 C 969.036 1288.31 1002.41 1307.64 1012.89 1313.36 C 1011.4 1346.76 1011.54 1386.31 1010.96 1420.12 L 982.298 1405.06 C 958.51 1392.54 934.882 1379.72 911.421 1366.6 C 926.933 1339.19 944.01 1311.74 959.934 1284.32 z" fill="rgb(254,254,254)" transform="translate(0,0)"></path>
<path d="M 956.769 590.699 C 976.909 604.114 999.471 618.793 1018.81 633.048 L 1018.53 665.014 L 975.5 664.97 L 911.549 665.08 C 927.274 640.235 940.308 615.5 956.769 590.699 z" fill="rgb(254,254,254)" transform="translate(0,0)"></path>
<path d="M 1094.56 590.859 C 1099.74 596.013 1134.98 655.964 1139.89 665.03 L 1080.5 664.929 L 1035.34 664.863 C 1035.22 653.396 1036.05 642.247 1035.13 630.734 C 1049.1 619.6 1079.09 599.699 1094.56 590.859 z" fill="rgb(254,254,254)" transform="translate(0,0)"></path>
<path d="M 1339.03 1383.04 L 1339.58 1383.6 C 1338.22 1388.65 1256.64 1510.57 1247.84 1522.33 C 1244.03 1515.7 1240.05 1509.08 1236.16 1502.49 C 1229.29 1491.66 1222.66 1480.68 1216.26 1469.56 C 1243.11 1449.76 1270.93 1431.69 1297.96 1412.17 C 1311.56 1402.34 1325.13 1392.45 1339.03 1383.04 z" fill="rgb(254,254,254)" transform="translate(0,0)"></path>
<path d="M 707.787 1375.63 C 712.489 1377.43 741.912 1400.87 748.361 1405.62 C 775.831 1426.03 803.666 1445.93 831.853 1465.34 C 825.47 1475.64 819.211 1486.02 813.078 1496.47 C 809.111 1503.42 805.41 1509.71 801.123 1516.46 C 789.171 1499.16 775.952 1477.42 764.241 1459.54 C 745.716 1431.37 726.897 1403.4 707.787 1375.63 z" fill="rgb(254,254,254)" transform="translate(0,0)"></path>
<path d="M 1029.15 1189.62 C 1033.21 1192.77 1076.48 1266.4 1081.63 1275.62 L 1064.46 1285.04 C 1053.93 1290.73 1044.04 1296.31 1033.06 1301.15 C 1032.98 1267.84 1032.15 1222.73 1029.15 1189.62 z" fill="rgb(254,254,254)" transform="translate(0,0)"></path>
<path d="M 1015.15 1193.7 C 1016.82 1199.74 1014.02 1290.53 1013.87 1302.84 C 1004.23 1297.93 994.122 1291.98 984.642 1286.65 L 965.466 1275.75 C 981.565 1252.18 999.942 1218.94 1015.15 1193.7 z" fill="rgb(254,254,254)" transform="translate(0,0)"></path>
<path d="M 984.763 543.408 C 992.148 547.165 1010.79 561.76 1018.04 567.222 L 1018.11 617.149 L 1003.47 608.219 C 989.355 599.054 977.066 589.627 962.237 581.021 C 969.915 568.946 978.394 556.135 984.763 543.408 z" fill="rgb(254,254,254)" transform="translate(0,0)"></path>
<path d="M 1064.24 543.758 C 1068.48 545.248 1085.38 574.767 1088.5 579.983 C 1076.01 588.659 1062.36 597.383 1049.63 606.09 C 1045.37 609.185 1039.49 612.783 1034.98 615.729 C 1034.8 598.866 1035.02 581.668 1035.06 564.777 C 1044.82 557.506 1054.12 550.523 1064.24 543.758 z" fill="rgb(254,254,254)" transform="translate(0,0)"></path>
<path d="M 1016.56 493.675 C 1018.16 498.521 1017.93 543.211 1017.96 551.265 L 1003.45 541.852 L 991.493 533.765 C 997.853 522.176 1009.32 505.186 1016.56 493.675 z" fill="rgb(254,254,254)" transform="translate(0,0)"></path>
<path d="M 1033.92 496.567 C 1039.49 501.337 1053.73 525.611 1058.43 533.47 L 1047.62 541.082 C 1042.95 544.214 1038.78 547.329 1034.29 550.686 L 1033.92 496.567 z" fill="rgb(254,254,254)" transform="translate(0,0)"></path>
<metadata><recraft-signature>{"signed_by": "recraft", "signature_b64": "MuJXZtB3mDc//cw3lN/mHmjm6virzj3siy7DNyfheSDfoPcIz5r6RGnBHGjlqyIC45U+mjqY62tbAGTd/Qw/Dg==", "signing_algo": "Ed25519", "generation_timestamp": 1783499199, "identifier": "89180d8e-2d39-46a8-b344-32daf7c975ce"}</recraft-signature></metadata></svg>