<svg xmlns="http://www.w3.org/2000/svg" height="1024" preserveAspectRatio="none" style="display: block;" version="1.1" viewBox="0 0 2048 2048" width="1024">
<path d="M 0 0 L 2048 0 L 2048 2048 L 0 2048 L 0 0 z" fill="rgb(254,254,254)" transform="translate(0,0)"></path>
<path d="M 980.445 270.666 C 970.57 214.269 970.069 159.346 984.221 103.624 C 986.836 93.3247 1001.22 45.598 1012.65 42.9134 C 1015.17 48.9561 1007.48 73.0687 1004.86 79.9164 C 969.243 172.994 994.672 263.576 1019.52 355.438 C 1042.73 354.225 1068.34 352.249 1091.36 352.822 C 1130.19 353.79 1173.73 362.531 1211.24 372.317 C 1366.1 413.9 1502.77 505.696 1599.84 633.312 C 1632.45 676.271 1656.8 719.522 1683.79 765.66 C 1696.19 767.918 1733.56 766.635 1746.82 765.925 C 1656.55 559.344 1468.7 388.132 1252.51 323.011 C 1223.84 314.649 1194.68 308.077 1165.2 303.333 C 1149.23 300.761 1133.68 299.3 1117.39 296.12 C 1103.58 293.427 1097.68 281.423 1111.63 273.845 C 1118.62 270.047 1135.75 272.538 1144.46 273.245 C 1199.51 277.719 1252.37 293.437 1304.49 310.877 C 1321.45 316.52 1334.05 318.28 1351.19 326.109 C 1499.5 393.405 1625.54 501.623 1714.48 638.055 C 1739.44 676.612 1764.8 722.986 1780.72 765.955 C 1840.93 768.075 1926.95 777.262 1940.28 848.9 C 1943.98 868.812 1949.52 888.979 1953.69 908.81 C 1956.48 922.063 1956.42 935.901 1957.02 949.407 C 1957.46 955.093 1958.93 965.241 1956.12 970.085 L 1955.04 970.851 C 1953.27 972.857 1952.97 972.828 1952.28 975.349 C 1957.57 988.062 1956.15 992.508 1951.83 1005.91 C 1952.02 1001.88 1953.3 982.432 1952.56 980.241 C 1951.35 989.38 1953.27 994.079 1948.49 1003.42 C 1947.62 1005.13 1952.85 1016.92 1953.04 1019.19 C 1953.38 1066.94 1947.73 1118.73 1940.66 1165.61 C 1934.13 1208.94 1926.1 1253.36 1894.44 1285.43 C 1876.8 1303.78 1861.81 1313.82 1838.14 1323.64 C 1830.68 1326.97 1822.43 1331.49 1814.85 1334.54 C 1778.82 1440.59 1733.22 1543.52 1664.32 1633.07 C 1643.38 1660.28 1618.63 1684.72 1594.57 1709.37 C 1554.13 1750.8 1504.16 1792.86 1455.91 1824.92 C 1436.67 1837.7 1397.44 1856.89 1375.67 1868.29 C 1339.9 1887.02 1295.07 1903.33 1255.76 1912.46 C 1262.33 1907.97 1266.67 1906.44 1274.09 1903.4 C 1267.36 1904.72 1249.87 1907.54 1244.58 1910.28 C 1227.27 1919.27 1221.47 1924.11 1201.37 1927.24 C 1174.63 1931.41 1147.96 1934.47 1120.95 1936.68 C 1088.81 1940.63 1057.98 1947.49 1025.05 1947.04 C 1001.32 1946.71 978.553 1945.09 955.061 1941.31 C 948.709 1940.28 937.466 1935.97 933.869 1935.66 C 924.234 1934.92 914.442 1934.76 904.883 1933.19 C 836.592 1921.98 766.269 1905.33 704.065 1873.89 C 655.815 1849.5 605.107 1820.86 559.028 1792.3 C 530.032 1774.34 504.568 1747.39 479.706 1724.52 C 469.332 1714.49 453.135 1700.26 444.019 1689.64 C 427.13 1669.95 411.254 1647.04 396.246 1625.83 C 390.349 1617.5 381.847 1608.84 376.81 1601.37 C 363.953 1582.31 351.225 1562.81 340.403 1542.54 C 333.543 1529.68 319.602 1508.66 314.775 1495.94 L 311.692 1494.56 C 300.168 1481.23 295.072 1461.81 288.325 1446.03 C 284.865 1437.93 279.492 1428.93 275.047 1421.27 C 228.26 1403.8 179.902 1391.98 139.518 1360.12 C 123.002 1347.09 121.466 1333.07 114.844 1314.88 C 100.032 1274.2 89.4911 1233.26 86.0413 1190.02 C 82.4677 1144.84 78.5746 1098.99 79.0151 1053.62 C 79.2268 1031.82 83.3518 1008.34 86.6049 986.808 C 93.0425 944.194 98.6281 904.343 127.275 870.003 C 163.595 826.466 212.308 822.472 264.546 817.828 C 268.704 799.985 285.532 765.697 293.712 747.614 C 304.001 724.871 317.518 695.493 329.901 673.902 C 341.34 654.219 354.9 635.589 366.86 616.267 C 409.433 547.489 470.214 485.288 534.136 435.294 C 610.196 375.964 696.268 330.737 788.275 301.755 C 804.819 296.512 829.795 282.206 844.419 299.744 C 847.133 303.836 848.294 313.004 842.114 314.651 C 669.045 360.777 522.333 457.204 413.065 598.795 C 392.258 625.758 376.779 652.812 359.088 681.485 C 332.801 724.09 308.584 767.493 293.242 815.425 C 316.711 814.54 342.697 811.834 366.338 810.012 C 397.915 725.372 445.444 647.579 506.345 580.855 C 617.359 459.633 767.707 381.632 930.74 360.675 C 956.024 357.257 979.685 356.898 1005.11 355.57 C 997.071 333.558 990.773 307.28 982.704 284.356 C 966.489 283.63 945.194 284.595 928.876 285.118 C 938.545 297.859 966.726 325.379 962.534 342.046 C 956.849 349.093 946.331 346 939.237 342.495 C 906.282 326.163 878.919 304.922 856.538 275.84 C 831.398 243.171 838.088 229.623 876.461 250.567 C 893.139 259.669 904.232 265.347 919.651 277.827 C 943.88 274.083 955.574 271.039 980.445 270.666 z" fill="rgb(0,0,0)" transform="translate(0,0)"></path>
<path d="M 1954.63 950.995 C 1954.85 954.632 1954.58 969.777 1955.04 970.851 C 1953.27 972.857 1952.97 972.828 1952.28 975.349 C 1952.15 969.426 1953.25 956.496 1954.63 950.995 z" fill="rgb(242,242,242)" transform="translate(0,0)"></path>
<path d="M 311.692 1494.56 C 313.151 1489.03 306.332 1484.42 306.536 1478.33 C 310.051 1481.04 313.478 1491.65 314.775 1495.94 L 311.692 1494.56 z" fill="rgb(156,160,164)" transform="translate(0,0)"></path>
<path d="M 1777.52 800.349 C 1791.11 798.939 1792.66 803.768 1803.24 802.859 C 1806.32 802.594 1806.61 800.934 1813.63 801.571 C 1841.06 804.062 1874.22 809.857 1893.04 831.993 C 1898.8 838.767 1900.54 845.73 1903.91 853.084 C 1915.73 878.906 1913.02 900.269 1914.15 928.134 C 1914.98 948.571 1918.54 974.652 1917.1 994.741 C 1913.53 1044.5 1906.29 1095.16 1898.35 1144.4 C 1894.39 1168.96 1892.59 1194.75 1889.71 1219.4 C 1864.04 1218.74 1839.95 1215.57 1814.51 1213.32 C 1744.14 1207.1 1672.94 1208.15 1602.61 1212.56 C 1567.19 1214.9 1531.75 1216.98 1496.3 1218.8 L 984.002 1248.86 C 964.318 1249.99 942.307 1247.82 923.213 1249.57 C 842.236 1257 761.19 1259.34 680.066 1264.25 C 665.172 1265.15 649.722 1267.99 634.583 1269.35 C 578.808 1274.37 522.527 1274.83 467.044 1282.21 C 449.101 1284.64 434.571 1287.15 416.251 1287.15 C 403.012 1287.14 386.756 1287.98 373.57 1289.27 C 322.421 1294.29 271.434 1301.7 220.782 1310.14 C 198.33 1313.81 174.543 1318.92 152.116 1323.33 C 145.303 1313.58 141.099 1300.34 137.029 1289.18 C 113.819 1225.56 114.333 1156.76 109.113 1090.38 C 106.95 1095.27 106.824 1096.79 106.576 1102.15 L 104.067 1103.92 C 106.081 1091.36 108.089 1076.07 108.785 1063.5 C 110.269 1050.98 107.932 1033.02 110.104 1021.07 C 117.025 983.017 119.958 926.7 142.946 895.647 C 152.593 882.736 166.008 873.137 181.342 868.175 C 192.585 864.557 198.677 865.442 209.864 864.061 C 231.951 861.336 254.02 859.428 276.163 857.293 C 297.178 855.267 318.82 850.377 339.66 847.913 C 353.943 846.223 369.869 846.645 385 845.07 C 408.683 842.605 432.263 839.238 455.917 837.185 C 471.392 835.843 481.793 838.978 498.22 837.799 C 517.792 836.394 536.97 834.825 556.514 833.177 C 570.293 832.015 585.361 832.552 599.498 831.294 C 619.199 829.637 638.869 827.633 658.596 826.283 C 673.912 825.236 689.431 825.205 704.716 823.905 C 717.383 822.828 729.804 823.205 742.393 822.655 L 810.5 819.096 C 819.249 818.718 819.113 814.719 823.858 814.954 C 834.968 816.223 846.422 816.161 857.469 817.121 C 879.375 819.025 900.254 814.242 921.942 813.851 C 976.865 812.861 1031.94 810.515 1086.88 810.432 L 1300.68 809.696 C 1319.3 809.673 1337.31 811.447 1356.43 811.085 C 1392.74 810.398 1428.96 808.46 1465.2 807.417 L 1610.81 804.253 L 1731.74 801.224 C 1742.2 800.952 1751.88 801.15 1762.31 802.253 C 1765.79 802.621 1773.67 800.952 1777.52 800.349 z" fill="rgb(254,254,254)" transform="translate(0,0)"></path>
<path d="M 900.399 897.056 C 926.113 895.077 920.323 931.598 919.817 948.429 C 919.402 962.249 918.368 977.887 916.738 991.548 C 927.835 970.609 945.235 933.499 970.676 927.66 C 996.56 921.719 1006.32 954.906 1009.84 974.408 C 1018.76 1023.81 1018.46 1074.59 1013.7 1124.45 C 1012.39 1131.42 1013.69 1152.94 1008.61 1158.19 C 999.073 1168.05 976.449 1167.84 976.322 1149.71 C 976.217 1134.71 976.702 1122.22 977.167 1108.27 C 978.106 1084.94 978.504 1061.59 978.359 1038.25 C 977.802 1015.23 977.482 989.076 973.583 966.272 C 972.92 962.394 971.83 960.776 968.52 958.715 C 966.385 958.701 965.536 958.645 963.698 959.931 C 941.42 975.514 914.226 1059.46 909.823 1086.46 C 906.959 1104.02 908.364 1122.23 905.211 1139.67 C 904.113 1145.74 901.183 1152.12 895.758 1155.53 C 890.696 1158.71 885.258 1159.57 879.473 1158.08 C 876.291 1157.26 873.529 1155.57 871.991 1152.56 C 859.267 1127.66 870.535 949.35 880.297 918.295 C 883.655 907.614 890.893 902.096 900.399 897.056 z" fill="rgb(0,0,0)" transform="translate(0,0)"></path>
<path d="M 525.397 906.429 C 554.28 906.117 578.804 932.21 570.046 960.69 C 559.333 995.531 517.736 1022.06 487.004 1038.97 C 486.221 1063.86 484.393 1131.62 526.936 1120.24 C 542.39 1116.1 552.586 1110.1 559.913 1095.63 C 562.124 1091.26 564.307 1089.15 568.983 1088.14 C 576.168 1091.5 573.646 1106.28 572.249 1112.84 C 561.928 1136.48 530.389 1146.22 506.673 1148.77 C 443.077 1155.61 436.512 1085.08 439.737 1039 C 443.535 984.734 459.558 911.737 525.397 906.429 z" fill="rgb(0,0,0)" transform="translate(0,0)"></path>
<path d="M 523.576 932.997 C 528.171 932.924 535.192 934.116 536.86 938.688 C 546.381 964.79 513.533 991.373 497.313 1002.03 C 493.203 1004.6 489.613 1005.96 485.178 1007.84 C 487.893 977.193 491.78 946.496 523.576 932.997 z" fill="rgb(254,254,254)" transform="translate(0,0)"></path>
<path d="M 1545.18 907.153 C 1586.72 903.444 1612.48 927.671 1598.28 969.998 C 1587.42 1002.34 1544.51 1028.28 1514.97 1041.96 C 1514.8 1060.98 1517.04 1083.07 1520.86 1101.59 C 1526.87 1130.74 1552.38 1125.43 1571.1 1112.47 C 1578.96 1107.03 1584.39 1099.38 1594.03 1096.89 C 1601.26 1098.35 1600.85 1103.48 1601.25 1109.9 C 1584.24 1140.62 1529.56 1159.38 1497.6 1141.53 C 1485.52 1134.78 1476.65 1118.99 1473.93 1105.35 C 1463.19 1051.36 1469.74 990.544 1498.75 942.982 C 1510.46 924.108 1523.81 912.209 1545.18 907.153 z" fill="rgb(0,0,0)" transform="translate(0,0)"></path>
<path d="M 1554.6 933.027 C 1568.33 933.011 1569.04 943.666 1566.89 954.96 C 1562.66 977.227 1543.98 994.951 1526.14 1007.46 C 1522.86 1009.53 1519.11 1011.63 1515.74 1013.62 C 1517.37 982.33 1525.25 949.399 1554.6 933.027 z" fill="rgb(254,254,254)" transform="translate(0,0)"></path>
<path d="M 799.216 907.241 C 808.428 906.627 815.744 906.588 824.759 909.781 C 835.744 913.669 844.652 921.893 849.405 932.532 C 853.063 940.802 854.088 951.083 852.154 959.877 C 843.186 1000.64 802.825 1025.09 768.244 1041.31 C 768.401 1062.29 767.044 1106.73 786.048 1120.85 C 798.372 1130.01 822.453 1120.37 832.89 1111.34 C 838.925 1106.11 844.191 1092.98 851.378 1091.37 L 853.35 1092.97 C 855.535 1097.25 855.159 1101.16 855.329 1106.06 C 852.445 1134.06 822.716 1142.64 800.052 1147.97 C 757.765 1157.84 732.64 1135.07 725.637 1094.56 C 715.702 1037.09 727.948 919.96 799.216 907.241 z" fill="rgb(0,0,0)" transform="translate(0,0)"></path>
<path d="M 803.354 933.111 C 820.016 931.097 823.679 942.627 819.887 956.678 C 813.959 978.643 797.893 995.175 779.059 1006.87 C 775.042 1009.24 769.038 1011.98 764.734 1014.1 C 766.066 983.999 775.052 948.549 803.354 933.111 z" fill="rgb(254,254,254)" transform="translate(0,0)"></path>
<path d="M 1409.23 906.392 C 1448.32 906.144 1467.41 933.184 1454.8 969.93 C 1443.37 1003.25 1401.22 1027.64 1370.98 1042.05 C 1371.67 1061.78 1371.92 1099.18 1382.15 1116.05 C 1384.71 1120.26 1391.32 1122.02 1395.88 1122.42 C 1419.35 1124.45 1430.71 1108.13 1446.61 1095.24 C 1449.4 1092.98 1451.06 1093.19 1454.02 1093.79 C 1459.24 1098.31 1458.75 1104.42 1456.54 1110.24 C 1438.03 1141.63 1380.37 1162.19 1349.6 1138.01 C 1333.9 1125.67 1330.64 1097.56 1328.46 1079.22 C 1322.08 1025.39 1340.54 912.875 1409.23 906.392 z" fill="rgb(0,0,0)" transform="translate(0,0)"></path>
<path d="M 1411.19 933.952 C 1423.78 932.912 1426.06 942.278 1424.29 952.437 C 1420.34 975.233 1400.79 994.319 1383.38 1006.93 C 1380.06 1009.23 1376.22 1011.59 1372.8 1013.8 C 1374.03 984.82 1382.24 947.494 1411.19 933.952 z" fill="rgb(254,254,254)" transform="translate(0,0)"></path>
<path d="M 617.379 889.298 C 630.525 890.275 632.91 896.015 634.069 908.073 C 637.058 939.171 637.416 970.806 639.637 1001.99 C 642.055 1035.92 646.59 1069.83 648.276 1103.73 C 665.692 1067.39 679.014 1033.66 687.917 994.076 C 691.173 979.602 700.59 921.238 710.542 914.283 C 725.219 914.596 706.953 994.884 704.708 1005.83 C 696.723 1040.96 672.379 1169.2 631.83 1176.78 C 626.056 1177.81 620.112 1176.41 615.405 1172.91 C 607.645 1167.19 603.654 1157.31 602.424 1148.06 C 598.14 1115.85 597.61 1082.37 595.631 1049.82 C 593.387 1012.92 589.053 975.313 588.745 938.485 C 588.664 928.866 590.224 906.432 596.178 898.852 C 601.974 891.474 608.893 890.618 617.379 889.298 z" fill="rgb(0,0,0)" transform="translate(0,0)"></path>
<path d="M 1108.98 822.279 C 1123.12 822.019 1129.17 827.828 1130.04 842.621 C 1131.07 860.03 1128.09 878.396 1125.04 895.547 C 1142.05 894.555 1174.19 885.433 1169.24 914.284 C 1166.02 918.101 1129.12 924.049 1121.19 925.747 C 1113.66 960.065 1108.57 994.874 1105.97 1029.91 C 1104.9 1042.82 1098.14 1108.55 1108.57 1118.75 C 1124.01 1133.85 1139.29 1090.09 1145.48 1083.52 C 1157.96 1080.26 1154.47 1099.66 1152.74 1106.06 C 1150.31 1115.01 1146.38 1121.94 1141.42 1129.64 C 1136.83 1136.26 1131.02 1142.7 1124.74 1147.76 C 1116.11 1154.72 1106.04 1158.69 1094.88 1157.25 C 1085.83 1156.08 1078.47 1151.42 1073.03 1144.17 C 1043.4 1104.74 1070.55 983.69 1078.28 934.949 C 1065.16 937.187 1025.59 938.15 1030.06 917.403 C 1031.59 910.302 1076.07 906.235 1082.26 905.458 C 1085.43 890.808 1087.51 876.508 1089.98 861.783 C 1092.54 846.499 1092.03 827.776 1108.98 822.279 z" fill="rgb(0,0,0)" transform="translate(0,0)"></path>
<path d="M 1201.09 888.19 C 1226.43 886.141 1225.11 911.088 1225.86 929.556 C 1226.46 944.107 1225.54 958.777 1224.83 973.311 C 1235.24 951.44 1247.41 929.739 1269.47 918.123 C 1284.97 909.957 1306.71 915.314 1314.55 931.533 C 1324.23 951.54 1314.58 984.201 1294.67 994.701 C 1291.73 996.256 1290.84 996.042 1288.1 994.989 C 1276.62 980.902 1292.14 947.187 1276.33 938.928 C 1259.47 939.449 1241.91 987.198 1237.57 999.758 C 1225.29 1036.96 1223.8 1072.47 1228.25 1111.04 C 1230.34 1129.1 1239.6 1150.53 1220.82 1161.13 C 1215.26 1164.2 1208.73 1164.96 1202.63 1163.25 C 1198.01 1161.92 1195.62 1159.38 1193.57 1155.13 C 1173.97 1114.4 1170.55 945.796 1184.76 905.545 C 1187.89 896.683 1192.75 892.16 1201.09 888.19 z" fill="rgb(0,0,0)" transform="translate(0,0)"></path>
<path d="M 1648.01 1244.43 C 1643.41 1246.59 1641.03 1245.07 1636.24 1247.35 C 1637.38 1248.82 1646.24 1249.05 1648.42 1249.15 C 1659.59 1252.08 1695.38 1248.88 1710.25 1248.66 C 1697.99 1309.43 1666.71 1380.56 1637.13 1434.81 C 1600 1502.9 1560.22 1551.32 1506.81 1606.95 C 1418.98 1698.43 1335.44 1750.93 1212.54 1785.25 C 1037.38 1834.66 849.747 1812.2 691.189 1722.86 C 565.089 1651.73 450.159 1521.18 395.657 1387.7 C 387.762 1368.37 377.612 1343.26 372.068 1323.4 C 387.012 1322.05 402.112 1321.82 417.088 1320.65 C 434.352 1319.31 451.731 1317.06 469.013 1316.28 C 495.11 1315.1 521.164 1314.68 547.268 1313.08 C 559.86 1312.31 616.407 1305.99 623.818 1308.05 C 639.306 1312.36 746.545 1301.64 770.677 1300.46 C 1047.43 1288.13 1324.04 1272.84 1600.46 1254.58 C 1619.48 1253.51 1630.06 1244.58 1648.01 1244.43 z" fill="rgb(254,254,254)" transform="translate(0,0)"></path>
<path d="M 1029.68 1339.1 C 1049.22 1338.11 1055.81 1353.93 1057.4 1370.76 C 1060.88 1407.61 1039.06 1451.07 1016.95 1478.91 C 1020.34 1488.39 1026.89 1501.45 1034.2 1508.47 C 1074.71 1547.41 1125.34 1510.2 1155.5 1480.9 C 1148.59 1469.14 1144.14 1456.1 1142.41 1442.58 C 1138.38 1412.89 1146.29 1356.57 1184.64 1350.02 C 1202.37 1348.02 1208.99 1367.16 1210.21 1380.78 C 1213.77 1420.44 1194.68 1453.19 1171.1 1482.84 C 1221.86 1535.86 1324.32 1510.74 1377.12 1473.13 C 1372.5 1459.33 1369.58 1448.95 1368.47 1433.05 C 1366.26 1401.24 1384.2 1355.62 1420.5 1352.18 C 1441.39 1352.21 1449.54 1377.56 1447.92 1393.63 C 1444.5 1427.81 1418.62 1455.3 1394.16 1476.61 C 1409.76 1505.88 1452.12 1520.74 1481.35 1530.46 C 1437.4 1526.33 1410.87 1521.73 1383.79 1483.86 C 1361.85 1497.17 1339.12 1509.88 1314 1516.03 C 1261.84 1528.81 1203.49 1531.12 1162.7 1491.28 L 1155.24 1498.11 C 1102.93 1542.12 1045.19 1560.5 1008.05 1489.19 C 960.886 1539.53 906.805 1568.29 848.758 1514.5 C 832.819 1526.97 820.78 1539.65 802.898 1550.63 C 734.292 1592.76 633.167 1599.86 585.223 1524.11 C 663.406 1599.75 769.795 1575.56 841.365 1504.11 C 819.485 1462.39 815.785 1419.53 841.306 1377.35 C 850.756 1361.73 873.31 1347.38 890.442 1360.21 C 908.529 1374.94 907.424 1398.81 903.068 1418.88 C 895.445 1454.01 879.012 1477 857.403 1504.59 C 860.735 1508.49 864.418 1512.09 868.406 1515.32 C 916.426 1554.04 970.548 1516.5 1002.83 1476.85 C 996.703 1439.83 980.145 1353.75 1029.68 1339.1 z" fill="rgb(0,0,0)" transform="translate(0,0)"></path>
<path d="M 870.275 1367.1 C 885.158 1364.85 892.782 1375.71 894.218 1389.43 C 897.99 1425.45 875.289 1460.81 854.885 1488.53 L 849.749 1494.57 C 830.255 1456.46 826.273 1389.43 870.275 1367.1 z" fill="rgb(254,254,254)" transform="translate(0,0)"></path>
<path d="M 1419.38 1363.27 C 1433.01 1365.72 1437.43 1376.91 1436.76 1389.91 C 1435.33 1417.92 1412.85 1443.41 1393.18 1461.31 L 1387.25 1466.07 C 1385.54 1461.28 1384.03 1456.42 1382.74 1451.5 C 1374.79 1420.22 1383.37 1372.32 1419.38 1363.27 z" fill="rgb(254,254,254)" transform="translate(0,0)"></path>
<path d="M 1183.48 1360.94 C 1194.45 1361.62 1197.11 1369.08 1198.59 1378.9 C 1203.68 1412.67 1186.98 1443.92 1166.67 1469.11 L 1163.91 1471.38 L 1162.25 1470.65 C 1156.66 1457.35 1153.53 1447.29 1152.82 1432.73 C 1151.6 1407.51 1157.81 1372.41 1183.48 1360.94 z" fill="rgb(254,254,254)" transform="translate(0,0)"></path>
<path d="M 1028.13 1350.96 C 1037.9 1350.13 1043.83 1355.75 1045.48 1365.13 C 1050.95 1396.28 1035.75 1431.17 1018.83 1456.35 L 1012.82 1464.41 C 1006.77 1433.18 996.452 1371.36 1028.13 1350.96 z" fill="rgb(254,254,254)" transform="translate(0,0)"></path>
<path d="M 1025.84 378.215 C 1088.72 375.904 1150.41 390.976 1210.9 403.942 C 1272.9 417.231 1312.92 430.939 1366.13 465.883 C 1403.43 490.381 1441.11 513.752 1475.23 543.433 C 1500.55 565.461 1523.38 589.805 1545.73 614.806 C 1591.78 664.226 1626.3 708.626 1657.45 768.931 C 1596.23 770.472 1533.57 764.844 1472.01 767.398 C 1457.41 768.003 1433.28 769.552 1419.46 768.875 C 1362.46 766.08 1306.56 769 1249.61 770.683 C 1184.22 771.151 1118.17 769.803 1052.99 771.169 C 1054.57 731.58 1051.7 696.197 1052.37 657.643 C 1072.7 652.594 1091.4 649.098 1111.49 644.492 C 1174.44 629.797 1228.88 590.478 1262.61 535.333 C 1269.75 523.881 1293.16 482.473 1290.3 470.21 C 1285.61 464.426 1276.19 466.569 1269.52 467.914 C 1195.85 482.776 1126.63 515.877 1081.35 577.798 C 1067.86 596.239 1058.5 616.694 1049.66 637.588 C 1049.42 569.909 1050.13 502.138 1038.67 435.145 C 1035.65 417.478 1029.55 401.247 1024.81 384.078 C 1024.07 381.396 1024.81 380.492 1025.84 378.215 z" fill="rgb(254,254,254)" transform="translate(0,0)"></path>
<path d="M 1008.62 378.155 L 1010.08 378.525 C 1012.31 382.347 1015.23 399.313 1016.3 404.507 C 1030.79 475.131 1034.37 552.524 1035.03 624.856 C 1004.7 577.911 941.948 536.864 889.015 520.387 C 837.153 504.261 781.702 503.686 729.516 518.732 C 719.837 521.419 695.942 526.145 693.217 536.46 C 693.642 540.392 694.444 542.275 696.873 545.553 C 726.758 585.883 782.501 642.483 825.738 666.293 C 848.244 678.721 872.91 686.751 898.42 689.955 C 939.41 695.137 981.314 688.581 1020.37 675.795 C 1026.83 673.678 1030.77 671.966 1036.25 667.744 C 1039.44 706.823 1039.08 732.68 1037.9 771.351 C 1017.27 773.254 994.23 773.288 973.369 773.863 L 873.131 776.22 C 828.958 777.243 786.035 779.024 742.002 783.09 C 701.149 786.864 659.488 784.518 618.625 787.489 C 584.261 789.987 550.198 797.32 515.731 799.3 C 473.806 802.356 431.566 803.579 389.765 807.129 C 495.562 574.98 687.931 416.065 943.202 386.598 C 964.504 384.139 988.173 383.94 1008.62 378.155 z" fill="rgb(254,254,254)" transform="translate(0,0)"></path>
<path d="M 1731.46 1248.44 C 1748.21 1248.11 1765.56 1248.55 1782.09 1249.11 C 1801.37 1250.11 1796.5 1261.89 1792.49 1274.36 C 1773.57 1333.28 1753.13 1393.16 1726.72 1449.16 C 1673.79 1562.92 1593.87 1662.02 1493.91 1737.86 C 1350.48 1847.35 1184.09 1903.34 1002.61 1897.07 C 968.788 1895.9 922.327 1889 887.945 1884.55 C 813.314 1874.9 736.124 1839.83 670.355 1804.93 C 505.579 1719.52 396.352 1582.74 318.433 1417.25 C 305.959 1390.39 295.091 1362.82 285.887 1334.68 C 318.456 1327.21 319.891 1325.35 353.592 1325.86 C 375.531 1398.38 394.82 1458.65 438.26 1522.25 C 548.732 1684.35 719.18 1795.82 911.971 1832.04 C 950.172 1839.16 989.635 1838.63 1028.35 1838.1 C 1062.14 1837.63 1095.33 1837.79 1128.91 1833.74 C 1165.52 1829.53 1200.54 1819.31 1235.6 1808.73 C 1446.53 1745.12 1616.95 1576.2 1693.84 1371.03 C 1704.35 1342.98 1714.35 1315.16 1721.81 1286.02 C 1725.02 1273.5 1729.09 1261.23 1731.46 1248.44 z" fill="rgb(254,254,254)" transform="translate(0,0)"></path>
<path d="M 244.606 1340.61 C 247.611 1340.2 249.168 1340.17 252.156 1340.09 C 252.814 1340.47 253.472 1340.85 254.129 1341.22 C 260.185 1356.55 268.442 1385.3 272.867 1399.91 C 248.311 1393.32 238.157 1389.19 214.748 1379.48 C 196.304 1371.65 183.642 1363.8 167.072 1353.01 C 179.077 1348.32 193.755 1346.18 206.029 1347.47 C 204.996 1347.36 214.261 1340.82 222.936 1342.24 C 226.189 1342.77 242.06 1340.86 244.606 1340.61 z" fill="rgb(254,254,254)" transform="translate(0,0)"></path>
<path d="M 1832.53 1257.01 C 1845.62 1257.63 1879.75 1260.09 1891.77 1262.48 C 1882.43 1278.96 1875.01 1282.68 1859.43 1291.83 C 1846.72 1299.78 1833.87 1306.44 1820.47 1313.08 C 1824.8 1295.15 1828.4 1275.31 1832.53 1257.01 z" fill="rgb(254,254,254)" transform="translate(0,0)"></path>
<path d="M 865.132 1266.84 L 866.099 1267.14 C 867.512 1270.15 867.67 1269 867.238 1271.49 L 864.565 1270.75 C 863.763 1272.86 864.292 1271.93 863.048 1273.58 C 855.343 1272.92 851.483 1272.85 843.752 1273.16 L 840.616 1272.99 L 840.29 1272.02 C 845.442 1267.72 858.25 1266.73 865.132 1266.84 z" fill="rgb(242,242,242)" transform="translate(0,0)"></path>
<path d="M 1478.8 1800.09 L 1479.29 1800.51 L 1478.89 1802.41 C 1473.24 1809.06 1465.77 1812.75 1458.22 1817 L 1457.74 1816.69 C 1458.3 1814.28 1475.5 1802.47 1478.8 1800.09 z" fill="rgb(242,242,242)" transform="translate(0,0)"></path>
<path d="M 1450.75 1819.96 L 1451.46 1820.45 C 1449.48 1823.28 1436.66 1829.71 1431.21 1835.24 L 1430.13 1833.94 C 1431.98 1830.09 1446.65 1822.33 1450.75 1819.96 z" fill="rgb(109,110,113)" transform="translate(0,0)"></path>
<path d="M 1079.93 1267.07 C 1082.97 1266.73 1089.22 1267.83 1092.51 1268.28 L 1093.08 1269.26 C 1086.72 1271.02 1083.9 1273.13 1079.93 1267.07 z" fill="rgb(242,242,242)" transform="translate(0,0)"></path>
<path d="M 556.298 828.312 C 559.644 827.952 558.458 827.648 561.332 828.762 C 558.924 830.895 556.481 830.748 553.186 831.153 C 550.707 831.148 550.349 831.025 547.899 830.501 C 550.278 828.871 553.343 828.764 556.298 828.312 z" fill="rgb(109,110,113)" transform="translate(0,0)"></path>
<path d="M 1043.55 111.64 C 1045.81 111.894 1049.1 112.444 1050.59 114.208 C 1085.66 155.672 1074.82 271.594 1043.07 308.164 C 1041.04 308.948 1037.64 309.037 1036.43 307.109 C 1025.66 289.879 1020.29 259.227 1017.6 239.383 C 1012.71 203.414 1020.69 140.358 1043.55 111.64 z" fill="rgb(0,0,0)" transform="translate(0,0)"></path>
<metadata><recraft-signature>{"signed_by": "recraft", "signature_b64": "4dQS1H+qZDsnzQN8XEMXOXGVSy9rap6unvEvZ4FkQYDun+qIFoS0M8Zz67+DKY8GYE11Px0BObzuqxKTS7GCBw==", "signing_algo": "Ed25519", "generation_timestamp": 1783499090, "identifier": "6ca68440-b5f3-4b70-abbe-f8ab545718db"}</recraft-signature></metadata></svg>