<svg xmlns="http://www.w3.org/2000/svg" height="1024" preserveAspectRatio="none" style="display: block;" version="1.1" viewBox="0 0 2048 2048" width="1024">
<path d="M 0 0 L 2048 0 L 2048 2048 L 0 2048 L 0 0 z" fill="rgb(255,255,255)" transform="translate(0,0)"></path>
<path d="M 177.89 1153.37 C 189.351 1153.19 200.815 1153.22 212.275 1153.47 C 220.376 1163.81 236.575 1178.63 246.478 1188.33 L 311.446 1252.02 C 389.428 1329.39 469.319 1410.1 549.204 1485.27 C 590.722 1466.68 622.74 1480.23 657.876 1505.77 C 663.894 1510.15 670.314 1514.08 675.398 1519.58 C 693.862 1520.53 707.398 1523.78 724.953 1528.31 C 685.059 1489.14 631.036 1442.12 587.836 1405.68 C 574.625 1407.72 561.159 1407.46 548.037 1404.9 C 499.622 1395.8 465.553 1367.2 438.26 1327.42 C 481.972 1314.08 520.463 1318.72 557.851 1346.73 C 574.974 1359.56 589.522 1376.22 592.432 1398.16 C 615.975 1421.92 646.403 1442.52 670.851 1465.89 C 675.238 1470.08 703.224 1496.61 706.836 1496.05 C 705.794 1491.7 699.985 1485.04 696.947 1481.51 C 661.895 1440.8 674.502 1389.03 689.334 1341.39 C 722.072 1366.48 755.183 1438.78 731.74 1478.08 C 727.407 1485.34 715 1493.64 717.069 1502.93 C 738.222 1527.59 742.578 1527.37 771.355 1540.14 C 789.355 1548.14 807.315 1556.24 825.234 1564.42 C 879.033 1589.06 928.862 1619.96 983.422 1642.88 C 996.135 1648.22 1012.37 1654.89 1024.26 1661.67 L 1025.51 1662.39 C 1003.6 1659.96 970.124 1639.13 951.968 1633.59 C 944.627 1631.35 885.256 1632.8 874.148 1632.99 C 845.26 1677.71 786.072 1688.91 738.759 1669.21 C 750.708 1643.82 766.068 1628.3 787.503 1611.59 C 788.419 1607.82 788.104 1606.78 787.695 1603 L 786.564 1602.75 C 767.47 1617.3 740.611 1617.05 727.014 1597.82 C 724.968 1594.93 723.041 1595.62 719.972 1595.92 C 718.89 1594.79 718.14 1594.2 718.552 1592.38 C 725.795 1560.47 737.976 1550.03 768.857 1549.79 C 745.849 1537.75 744.176 1536.15 718.087 1535.52 C 716.891 1538.25 715.621 1540.94 714.28 1543.61 C 701.148 1569.14 680.483 1589.06 653.013 1598.07 C 671.449 1617.34 695.041 1638.94 714.382 1657.53 L 814.34 1754.51 C 881.9 1820.34 954.646 1894.68 1024.23 1957.59 C 1038.88 1942.46 1055.06 1927.25 1070.13 1912.33 C 1110.09 1873.25 1149.78 1833.91 1189.21 1794.31 L 1605.59 1384.95 L 1764.43 1227.06 C 1787.74 1203.86 1812.61 1176.33 1836.19 1154.85 L 1868.43 1154.94 C 1868.36 1155.62 1868.27 1156.3 1868.16 1156.97 C 1860.47 1208.38 1841.46 1271.33 1822.54 1319.32 C 1741.85 1525.98 1583.07 1692.58 1380.51 1783.09 C 1348 1797.78 1314.59 1810.4 1280.49 1820.9 C 1265.86 1825.31 1251.15 1829.43 1236.35 1833.24 C 1177.29 1847.92 1188.54 1839.06 1145.26 1882.36 C 1119.19 1908.46 1092.94 1934.38 1066.5 1960.11 C 1057.6 1968.9 1035.34 1992.21 1026.47 1998.7 C 1009.45 1990.6 981.082 1959.53 965.867 1944.62 L 892.888 1874.3 C 853.859 1836.81 864.787 1844.9 812.503 1833.99 C 800.107 1831.44 787.798 1828.48 775.595 1825.12 C 698.169 1803.19 610.369 1764.22 544.085 1718.5 C 351.448 1586.59 219.587 1383.09 177.89 1153.37 z" fill="rgb(0,0,0)" transform="translate(0,0)"></path>
<path d="M 1826.69 1206.89 C 1826.45 1213.07 1818.89 1236.61 1816.63 1243.87 C 1795.33 1314.56 1764.65 1382.07 1725.4 1444.61 C 1612.63 1624.88 1433.55 1753.63 1226.75 1803.14 C 1226.73 1803 1226.69 1802.86 1226.7 1802.73 C 1227.12 1798.34 1670.61 1362.93 1718.07 1315.86 C 1754.47 1279.74 1790.01 1242.74 1826.69 1206.89 z" fill="rgb(255,255,255)" transform="translate(0,0)"></path>
<path d="M 221.032 1206.54 C 228.225 1211.37 255.067 1240.62 263.8 1249.37 L 359.303 1343.71 L 465.851 1447.69 C 481.116 1462.52 507.721 1486.93 521.061 1502.54 C 513.424 1508.6 509.148 1513.77 502.902 1521.2 C 515.272 1524.45 536.215 1530.41 548.536 1531.11 C 559.662 1541.43 571.973 1554.37 582.737 1565.25 C 572.055 1571.48 562.508 1579.19 553.031 1587.1 C 574.303 1592.31 588.367 1595.1 610.102 1598.33 C 617.978 1605.17 627.375 1615.23 635.15 1622.84 C 652.028 1639.05 668.768 1655.39 685.37 1671.88 L 797.123 1780.63 C 804.815 1788.58 814.037 1796.8 822.207 1804.4 C 752.652 1788.06 699.045 1769.22 635.297 1735.83 C 469.979 1648.1 339.535 1506.6 265.516 1334.7 C 254.28 1308.81 244.581 1281.07 235.173 1254.39 C 229.765 1239.05 225.944 1222.25 221.032 1206.54 z" fill="rgb(255,255,255)" transform="translate(0,0)"></path>
<path d="M 472.677 1328.36 C 516.263 1324.34 560.867 1349.59 581.429 1387.89 C 572.685 1381.71 516.216 1351.14 508.387 1356.7 C 510.421 1361.58 518.283 1365.57 522.864 1368.23 C 542.113 1379.4 558.197 1383.7 581.026 1398.31 C 527.941 1399.12 484.144 1374.9 453.047 1332.12 C 460.804 1330.16 464.768 1329.31 472.677 1328.36 z" fill="rgb(255,255,255)" transform="translate(0,0)"></path>
<path d="M 668.422 1529.4 C 679.139 1529.09 689.862 1529.77 700.455 1531.42 C 691.723 1535.02 638.72 1564.54 641.068 1574 C 649.145 1575.37 689.366 1546.48 704.374 1540 L 705.946 1539.33 C 699.447 1551.35 693.144 1558.54 683.72 1568.31 C 651.285 1598.81 612.792 1590.18 571.905 1583.13 C 594.483 1566.06 641.114 1534.08 668.422 1529.4 z" fill="rgb(255,255,255)" transform="translate(0,0)"></path>
<path d="M 693.888 1356.6 C 711.002 1374.61 727.786 1407.04 730.788 1431.85 C 733.211 1451.88 729.247 1465.05 717.012 1480.68 C 714.418 1462.18 713.385 1443.73 710.597 1425.25 L 709.576 1421.68 L 707.462 1421.9 L 708.442 1420.19 L 707.472 1420.34 C 702.035 1428.05 706.797 1470.59 707.822 1481.48 C 675.954 1435.53 678.962 1409.44 693.888 1356.6 z" fill="rgb(255,255,255)" transform="translate(0,0)"></path>
<path d="M 829.311 1618.41 C 837.203 1617.43 850.989 1618.18 859.312 1618.47 C 850.35 1622.11 799.44 1643.53 796.255 1649.27 C 806.811 1652.29 856.155 1629.55 870.183 1624.45 C 864.117 1633.54 860.939 1636.91 852.619 1643.94 C 822.956 1670.14 787.803 1674.42 750.422 1664.28 C 755.115 1656.08 761.243 1648.23 767.312 1641.22 C 787.516 1617.88 801.609 1620.03 829.311 1618.41 z" fill="rgb(255,255,255)" transform="translate(0,0)"></path>
<path d="M 580.145 1485.36 C 606.562 1483.69 630.342 1498.35 651.307 1512.47 C 639.754 1512.35 601.071 1508.9 594.029 1514.1 L 594.317 1515.51 C 602.085 1522.23 619.69 1522.01 630.008 1522.65 L 649.57 1523.17 C 630.262 1533.09 618.724 1541 595.127 1534.31 C 577.332 1529.26 560.519 1510.19 551.873 1494.32 C 561.869 1488.09 568.951 1486.68 580.145 1485.36 z" fill="rgb(255,255,255)" transform="translate(0,0)"></path>
<path d="M 762.342 1558.35 C 782.545 1556.61 785.096 1564.63 787.473 1582.53 C 776.264 1581.02 767.67 1580.36 756.405 1580.06 C 746.913 1580.02 739.183 1581.24 729.925 1582.98 C 737.984 1566.21 743.661 1560.94 762.342 1558.35 z" fill="rgb(255,255,255)" transform="translate(0,0)"></path>
<path d="M 740.954 1590.33 C 756.605 1588.97 769.205 1589.81 784.689 1592.63 C 781.514 1595.27 778.188 1597.21 774.693 1599.4 C 763.831 1604.74 738.629 1604.52 734.297 1592.2 C 736.406 1590.09 737.134 1590.74 740.954 1590.33 z" fill="rgb(255,255,255)" transform="translate(0,0)"></path>
<path d="M 829.65 1606.53 C 847.528 1604.14 856.997 1609.72 874.015 1611.38 C 882.374 1612.2 890.861 1609.58 899.699 1609.33 L 900.236 1610.14 L 897.794 1611.24 C 886.895 1613.2 882.869 1610.18 875.345 1619.12 L 873.553 1618.57 C 872.986 1617.67 869.829 1612.83 869.269 1612.55 C 859.749 1607.73 837.781 1609.95 829.65 1606.53 z" fill="rgb(118,118,118)" transform="translate(0,0)"></path>
<path d="M 528.387 1508.7 C 531.917 1510.65 537.673 1515.17 539.474 1518.78 L 538.691 1519.94 L 534.359 1519.58 C 528.978 1518.86 524.572 1517.54 519.356 1516.14 C 522.191 1513.62 525.425 1511.11 528.387 1508.7 z" fill="rgb(255,255,255)" transform="translate(0,0)"></path>
<path d="M 1031.43 40.5553 C 1036.44 40.8407 1039.83 44.2824 1043.32 47.584 C 1058.65 62.0626 1073.91 76.7424 1089.08 91.3819 C 1124.95 126.562 1161.06 161.505 1197.39 196.208 C 1257.5 211.341 1298.91 220.968 1357.35 246.207 C 1580.11 342.419 1742.13 512.538 1831.95 736.778 L 1799.36 736.639 C 1784.56 706.256 1772.51 678.44 1756.22 647.949 C 1676.25 500.032 1553.56 379.654 1404.14 302.521 C 1348.81 274.191 1297.23 255.227 1238.04 237.302 C 1255.19 256.105 1280.81 279.678 1299.68 297.114 C 1322.5 293.395 1350.98 296.803 1372.12 306.227 C 1365.21 321.202 1349.6 332.235 1336.7 342.072 C 1351 357.72 1370.56 375.386 1386.06 390.224 L 1457.1 458.961 L 1654.8 652.331 C 1680.61 677.566 1719.11 712.005 1742 737.577 C 1728.11 737.308 1713.5 737.597 1699.47 737.488 C 1663.53 701.952 1627.3 666.703 1590.79 631.744 C 1549.53 590.765 1507.97 550.084 1466.12 509.703 L 1372.03 418.798 C 1352.39 399.792 1330.91 379.856 1312.29 360.211 C 1253.83 388.364 1245.24 365.826 1190.23 365.672 C 1196 371.289 1200.98 376.925 1206.33 382.906 C 1250.91 389.741 1273.48 414.325 1290.18 454.662 C 1301.75 456.539 1313.73 455.902 1325.34 457.8 C 1368.61 464.872 1402.46 498.065 1426.64 532.977 C 1371.64 552.089 1316.33 523.095 1297.48 470.127 C 1295.54 464.653 1293.41 461.048 1289.86 456.524 L 1289 455.444 L 1289.26 470.664 C 1262.19 469.569 1237.18 457.826 1221.13 435.291 C 1212.62 423.336 1202.67 401.64 1205.17 386.838 C 1200.13 381.767 1192.5 373.866 1186.87 369.875 C 1171.73 359.158 1141.21 352.484 1122.8 349.058 C 1132.73 360.363 1138.97 356.884 1150.7 364.042 C 1159.05 369.141 1171.92 384.281 1177.34 392.492 C 1207.93 438.842 1211.28 464.599 1202.14 516.463 C 1164.7 502.914 1136.73 464.891 1129.22 426.649 C 1125.17 405.967 1127.06 384.207 1128.83 363.379 L 1126.01 359.902 C 1123.76 357.158 1117.95 349.883 1115.07 348.898 C 1076.84 335.815 1023.11 330.054 983.919 326.151 C 996.211 333.287 1013.75 337.889 1026.91 342.736 C 1045.49 349.579 1066.3 353.933 1077 372.404 C 1085.56 387.192 1071.59 413.168 1053.59 398.355 C 1044.39 390.789 1040.94 381.542 1033.05 373.088 C 1013.32 356.035 985.26 349.469 962.042 341.844 C 974.559 364.374 1000.63 379.66 1013.03 404.528 C 1027.41 433.386 1021.95 471.094 1012.36 500.397 C 972.486 480.268 948.156 438.591 950.234 393.971 C 951.497 368.04 959.989 360.027 951.001 335.207 C 945.897 331.219 942.901 329.315 937.424 325.97 C 900.782 326.542 857.756 334.166 822.365 343.957 C 816.645 345.539 787.422 354.85 783.658 353.724 L 781.925 349.345 C 820.198 336.284 855.784 325.911 895.945 319.643 C 912.78 317.016 928.585 318.11 944.944 315.355 C 946.37 315.115 950.551 313.537 951.008 312.324 C 954.002 304.378 954.771 293.922 956.794 285.366 C 959.543 274.056 963.924 263.206 969.798 253.158 C 992.359 213.967 1029.31 193.951 1072.05 182.554 C 1069.38 203.81 1063.4 224.519 1054.35 243.936 C 1034.93 285.265 1007.78 303.493 965.184 318.952 C 975.118 318.919 988.226 318.958 997.859 319.619 C 1023.53 321.381 1028.93 325.402 1053.53 317.249 C 1065.33 303.782 1068.57 286.479 1084.8 271.445 C 1114.74 243.696 1148.45 238.969 1187.29 239.347 C 1186.39 241.976 1185.43 244.584 1184.42 247.17 C 1165.79 293.892 1119.34 324.073 1069.67 322.238 C 1061.89 321.95 1055.54 322.433 1048.3 325.542 L 1047.07 326.082 C 1062.08 328.735 1077.05 331.625 1091.96 334.752 C 1107.59 338.167 1124.05 342.708 1139.95 343.501 C 1153.59 337.583 1157.11 324.192 1168.91 315.32 C 1177.13 307.128 1204.33 299.057 1212.38 311.629 C 1225.09 331.493 1159.5 343.531 1148.41 348.221 C 1165.33 352.848 1183.05 358.088 1200.52 359.1 C 1209.04 354.325 1213.54 348.431 1220.34 341.492 C 1234.81 326.721 1245.57 315.492 1264.43 306.779 C 1243.15 283.832 1219.86 263.4 1197.71 241.584 L 1034.49 80.6519 C 1021.71 91.2992 1007.77 106.047 995.799 117.754 C 919.15 192.704 844.095 269.536 767.997 344.997 L 560.311 549.249 C 514.033 595.618 467.184 641.414 419.775 686.625 C 401.853 703.7 384.851 721.967 366.076 737.916 C 352.749 738.062 339.421 737.965 326.098 737.626 C 338.339 723.655 362.387 701.677 376.22 688.047 L 485.14 581.146 C 603.695 465.073 726.377 347.108 841.736 228.157 C 823.072 233.497 803.872 237.816 785.129 243.217 C 747.896 253.937 711.47 267.287 676.127 283.163 C 513.177 357.948 378.975 483.707 293.774 641.461 C 279.09 668.358 258.822 709.072 248.213 737.839 C 237.981 737.065 226.247 737.149 215.883 736.99 C 231.668 692.289 257.808 640.532 281.973 599.96 C 379.723 433.398 531.061 304.902 711.271 235.457 C 738.24 225.25 765.688 216.355 793.518 208.805 C 805.796 205.528 877.738 189.582 881.147 186.572 C 924.181 148.58 990.179 78.0249 1031.43 40.5553 z" fill="rgb(0,0,0)" transform="translate(0,0)"></path>
<path d="M 1062.6 191.862 L 1064.36 192.025 C 1064.61 197.231 1057.77 217.376 1055.94 222.531 C 1041.4 263.426 1010.73 290.073 971.656 307.805 C 976.154 300.134 986.515 289.361 992.451 281.877 C 1000.82 271.328 1006.37 262.719 1013.44 251.44 C 1015.45 247.963 1017.26 243.875 1019.02 240.213 C 1014.59 243.17 1011.64 245.753 1008.14 249.775 C 994.904 264.946 980.285 278.779 966.8 293.711 C 982.291 236.265 1010.58 215 1062.6 191.862 z" fill="rgb(255,255,255)" transform="translate(0,0)"></path>
<path d="M 1148.85 373.56 C 1161.55 380.277 1171.14 393.521 1178.47 405.525 C 1197.33 436.404 1207.11 471.472 1198.5 507.328 C 1180.42 496.169 1167.37 479.902 1155.52 462.549 C 1139.76 438.631 1139.52 414.164 1139.99 386.938 C 1143.79 395.883 1164.03 444.683 1172.56 444.427 C 1175.55 434.446 1153.83 386.341 1148.85 373.56 z" fill="rgb(255,255,255)" transform="translate(0,0)"></path>
<path d="M 1305.36 307.381 C 1318.4 305.58 1346.97 308.042 1360.49 310.091 C 1349.11 324.017 1321.49 345.045 1304.96 352.553 C 1283.45 362.326 1253.09 365.112 1230.7 356.738 L 1242.23 354.264 C 1256.15 350.469 1280.27 340.584 1291.06 331.204 L 1290.82 329.903 C 1283.65 329.214 1245.71 343.123 1233.42 346.309 C 1255.9 322.282 1272.2 310.812 1305.36 307.381 z" fill="rgb(255,255,255)" transform="translate(0,0)"></path>
<path d="M 972.297 369.602 C 1016.11 409.333 1020.9 431 1008.4 490.028 C 992.924 479.298 984.9 467.725 975.923 451.471 C 963.241 425.741 962.379 412.556 963.271 384.978 C 968.375 401.05 980.015 427.759 991.105 440.04 C 988.445 415.172 977.761 393.917 972.297 369.602 z" fill="rgb(255,255,255)" transform="translate(0,0)"></path>
<path d="M 1177.1 244.429 L 1178.37 245.487 C 1175.58 252.248 1167.24 265.966 1162.6 271.825 C 1136.65 304.556 1112.15 309.383 1073.96 314.376 C 1089.1 305.553 1110.63 289.952 1125.71 279.685 C 1129.17 276.932 1132.05 273.896 1135.17 270.775 C 1120.05 275.869 1087.12 294.743 1072.3 303.491 C 1101.95 263.057 1125.71 247.62 1177.1 244.429 z" fill="rgb(255,255,255)" transform="translate(0,0)"></path>
<path d="M 1310.64 462.135 C 1360.08 470.867 1383.42 489.22 1415.25 527.999 C 1412.39 528.555 1409.53 529.089 1406.67 529.602 C 1381.93 534 1362.04 529.506 1341.3 515.033 C 1327.65 504.309 1317.94 491.095 1309.59 476.072 C 1321.39 483.311 1356.33 509.609 1368.98 508.995 L 1370.09 507.519 C 1369.62 506.235 1369.51 505.814 1368.29 505.011 C 1348.17 491.813 1328.56 478.311 1310.64 462.135 z" fill="rgb(255,255,255)" transform="translate(0,0)"></path>
<path d="M 1225 399.616 C 1235.94 401.267 1248.16 409.666 1256.46 416.774 C 1263.84 423.096 1292.68 453.721 1281.72 462.893 C 1271.26 465.034 1252.49 453.42 1243.63 447.911 C 1227.83 436.581 1220.19 421.768 1214.56 403.579 C 1224.15 412.763 1239.53 425.594 1250.98 431.685 C 1245.22 419.323 1234.54 409.247 1225 399.616 z" fill="rgb(255,255,255)" transform="translate(0,0)"></path>
<path d="M 1044.84 356.423 C 1059.72 362.904 1077.89 372.594 1069.52 391.625 C 1058.73 400.794 1049.87 384.78 1047.15 376.178 C 1044.92 369.163 1045.04 363.623 1044.84 356.423 z" fill="rgb(255,255,255)" transform="translate(0,0)"></path>
<path d="M 1192.37 314.231 C 1196.41 313.99 1203.26 313.203 1205.25 317.237 C 1202.13 323.749 1184.37 328.216 1177.24 330.317 L 1165.41 333.31 C 1174.71 323.236 1179.06 318.576 1192.37 314.231 z" fill="rgb(255,255,255)" transform="translate(0,0)"></path>
<path d="M 999.337 342.959 C 1007.28 342.299 1029.91 351.521 1038.28 354.77 L 1038.27 369.313 C 1024.65 360.405 1013.84 352.031 999.337 342.959 z" fill="rgb(255,255,255)" transform="translate(0,0)"></path>
<path d="M 949.16 327.362 C 961.743 325.69 979.585 330.125 988.978 338.839 C 979.881 337.147 956.385 331.869 949.16 327.362 z" fill="rgb(255,255,255)" transform="translate(0,0)"></path>
<path d="M 790.201 1150.41 C 936.581 1150.97 1085.11 1148.19 1231.22 1151.01 C 1229.58 1174.09 1225.42 1223.69 1207.79 1240.19 C 1163.42 1281.73 1131.85 1189.52 1093.22 1179.03 C 1066.33 1171.74 1049.95 1173.87 1025.56 1173.98 C 1007.4 1174.1 989.234 1174.11 971.071 1174.02 L 970.628 1380.42 L 970.765 1441.08 C 970.808 1459.63 970.674 1475.9 972.982 1494.45 C 979.136 1543.88 1011.25 1587.57 1062.97 1594.95 C 1117.37 1602.7 1178.57 1600.8 1225.6 1568.51 C 1262.16 1542.97 1283.85 1498.11 1296.67 1456.61 C 1301.47 1441.08 1303.03 1406.49 1319.83 1399.68 C 1324.56 1397.77 1329.88 1397.92 1334.49 1400.12 C 1342.86 1404.08 1351.73 1416.56 1354.17 1425.91 C 1371.82 1493.62 1327.81 1602.33 1259.96 1627.55 C 1240.8 1634.68 1198.8 1632.89 1177.2 1632.88 L 1082.56 1632.84 C 1062.76 1632.83 978.064 1635.02 964.791 1631.06 C 948.675 1626.26 922.361 1606.91 905.805 1598.3 C 868.064 1578.67 828.823 1562.07 790.882 1542.9 C 789.447 1529.62 790.018 1504.35 789.976 1490.14 C 789.831 1458.54 789.851 1426.93 790.038 1395.33 L 790.201 1150.41 z" fill="rgb(0,0,0)" transform="translate(0,0)"></path>
<path d="M 895.06 1432.51 C 900.995 1434.93 908.867 1449.58 911.851 1455.43 C 927.995 1487.08 921.626 1542.07 909.816 1574.52 C 907.94 1564.11 902.972 1513.93 900.529 1508.87 C 889.325 1511.24 897.242 1562.43 898.714 1572.59 C 887.304 1556.97 879.68 1538.91 876.442 1519.84 C 870.922 1488.71 876.988 1458.61 895.06 1432.51 z" fill="rgb(255,255,255)" transform="translate(0,0)"></path>
<path d="M 672.681 571.457 C 779.805 569.291 892.151 571.034 999.579 571.025 L 1113.58 571.033 C 1144.77 571.054 1176.82 570.718 1207.79 574.43 C 1287.5 583.98 1304.13 675.585 1315.38 740.094 L 1235.5 739.805 C 1230.16 723.162 1225.31 708.37 1219.41 691.756 C 1201.71 643.837 1187.82 614.691 1131.42 614.425 C 1083.75 614.2 1019.4 621.039 980.68 650.476 C 965.119 662.306 966.012 717.776 966.026 737.154 L 771.839 736.998 C 774.596 709.17 772.97 674.684 764.301 648.065 C 750.767 602.932 712.202 604.537 673.614 604.252 C 664.922 603.643 649.501 604.358 649.518 592.095 C 649.543 574.736 658.396 572.037 672.681 571.457 z" fill="rgb(0,0,0)" transform="translate(0,0)"></path>
<path d="M 1342.55 778.423 C 1350.39 777.79 1361.46 778.458 1369.12 777.677 C 1459.41 768.473 1536.78 832.127 1488.36 923.832 C 1474.01 951.016 1446.03 965.49 1414.91 973.255 C 1442.31 1000.38 1458.67 1035.45 1477.45 1068.48 C 1482.12 1076.69 1496.21 1104.79 1504.74 1105.48 C 1508.85 1104 1511.41 1101.12 1514.71 1098.15 C 1518.31 1100.64 1520.7 1102.63 1524.07 1105.45 C 1493.77 1148.69 1469.43 1109.19 1451.66 1081.97 C 1429.49 1047.74 1407.82 1009.74 1383.93 976.922 L 1362.38 976.832 C 1362.8 1018.53 1362.97 1060.23 1362.9 1101.93 C 1368.29 1102.62 1371.81 1102.19 1374.94 1106.06 C 1375.21 1109.58 1375.41 1109.6 1374.05 1113.01 C 1368.23 1116.99 1322.55 1114.05 1312.67 1114.78 C 1310.43 1114.95 1308.44 1112.69 1307.12 1111.11 C 1306.8 1106.88 1306.47 1108.91 1308.52 1104.87 C 1312.36 1102.37 1313.36 1103.09 1318.34 1102.79 C 1319.69 1101.89 1320.5 1101.65 1321.22 1100.12 C 1322.45 1097.51 1322.56 1094.13 1322.57 1091.28 C 1322.65 1058.72 1321.64 1026.08 1321.39 993.503 C 1321.23 971.712 1322.18 811.155 1318.09 801.297 C 1316.1 796.492 1307.9 795.881 1303.66 793.814 C 1301.21 792.617 1300.66 791.399 1299.75 788.944 C 1300.08 787.255 1300.16 784.98 1301.22 784.131 C 1307.89 778.808 1334.07 778.889 1342.55 778.423 z" fill="rgb(0,0,0)" transform="translate(0,0)"></path>
<path d="M 1368.29 793.487 C 1371.7 793.404 1375.11 793.386 1378.51 793.433 C 1399.82 793.696 1420.12 802.54 1434.83 817.964 C 1460.29 844.724 1462.83 893.348 1443.38 924.092 C 1438.91 931.165 1434.36 935.97 1428.36 941.708 C 1407.75 958.204 1387.2 962.61 1361.19 962.993 C 1360.48 917.943 1361.29 872.675 1360.6 827.605 C 1360.44 817.217 1360.14 805.444 1360.93 795.194 C 1363.42 793.032 1364.13 793.758 1368.29 793.487 z" fill="rgb(255,255,255)" transform="translate(0,0)"></path>
<path d="M 793.823 777.075 C 807.601 776.331 822.779 776.328 836.268 778.971 C 886.682 874.551 936.219 970.591 984.873 1067.08 C 985.005 1046.54 984.189 1026.11 984.034 1005.57 L 983.295 835.154 C 983.29 824.757 981.702 788.131 984.103 780.726 C 990.208 774.575 1008.77 774.731 1008.88 784.896 C 1007.13 788.379 1006.68 788.499 1003.46 790.999 L 1002.56 791.682 C 1000.43 800.188 1001.71 868.494 1001.81 881.583 C 1002.59 953.553 1002.98 1025.53 1002.99 1097.5 C 1003.31 1111.33 1003.09 1122.27 983.022 1118.55 C 971.253 1116.37 960.748 1090.66 954.946 1079.54 C 945.389 1061.2 935.979 1042.79 926.719 1024.3 C 905.955 982.808 884.617 941.608 862.711 900.71 C 853.158 882.775 843.356 863.137 833.167 845.733 C 835.552 878.231 833.059 1094.57 837.359 1101.3 C 838.47 1103.03 838.731 1104.03 839.099 1106.04 C 837.749 1112.54 830.023 1114.45 824.234 1113.73 C 812.287 1111.96 815.492 1105.62 816.109 1097.38 C 818.24 1068.89 816.829 1037.95 816.628 1009.37 C 816.651 953.582 815.837 897.799 814.187 842.037 C 813.853 830.417 814.214 811.584 812.525 800.473 C 811.094 791.052 796.229 792.817 791.839 786.924 C 791.312 783.077 792.538 780.768 793.823 777.075 z" fill="rgb(0,0,0)" transform="translate(0,0)"></path>
<path d="M 426.924 1071.93 C 455.15 976.047 479.511 878.634 512.134 784.013 C 514.526 777.075 526.573 777.6 531.482 780.399 C 532.829 785.157 519.192 822.124 516.867 829.101 C 497.934 887.92 480.361 947.168 464.162 1006.8 C 458.583 1027.67 453.184 1048.58 447.963 1069.54 C 444.865 1082.3 442.065 1097.14 437.784 1109.08 C 434.268 1118.97 410.904 1121.64 404.37 1116.58 C 394.37 1108.84 388.776 1078.93 385.366 1066.6 L 366.785 999.213 C 348.429 931.792 328.855 859.657 307.812 793.09 C 301.796 793.149 295.661 794.606 293.013 788.411 C 295.298 781.225 304.037 780.017 310.387 779.42 C 315.056 779.188 320.334 779.041 324.899 778.801 C 340.594 777.978 345.388 783.734 350.359 797.61 C 354.786 809.97 357.939 822.337 361.615 834.916 C 369.048 860.096 376.194 885.359 383.051 910.701 C 397.746 964.176 413.758 1018.21 426.924 1071.93 z" fill="rgb(0,0,0)" transform="translate(0,0)"></path>
<path d="M 625.949 780.508 C 643.258 780.401 735.389 778.831 744.264 781.853 C 749.251 786.997 747.261 795.137 742.662 799.139 C 730.752 811.384 721.739 795.063 718.055 794.744 C 695.604 792.803 641.29 793.508 621.997 793.456 L 622.014 935.111 C 635.175 935.087 678.692 936.956 689.482 934.074 C 694.173 932.822 699.6 930.244 704.502 930.83 C 708.108 931.261 712.162 933.055 714.171 936.239 C 715.892 938.967 716.328 941.39 715.351 944.51 C 714.412 947.507 712.116 949.992 709.347 951.422 C 703.82 954.275 698.856 952.292 693.361 950.513 C 680.744 946.43 637.402 948.897 621.998 948.971 L 621.862 1095.25 C 621.971 1099.54 621.169 1097.96 623.222 1100.72 C 651.605 1104.13 691.852 1100.33 721.09 1100.54 C 726.307 1100.58 744.24 1087.43 749.486 1092.88 C 773.376 1117.68 730.911 1114.03 718.23 1113.99 L 670.219 1113.91 C 640.949 1113.87 611.687 1113.92 582.417 1114.08 C 578.376 1114.1 570.089 1114.73 567.174 1112.23 C 566.749 1108.53 566.586 1108.59 567.778 1104.88 C 569.631 1102.75 569.796 1102.77 572.564 1102.05 L 581.314 1099.67 C 581.772 1032.19 581.798 964.704 581.392 897.223 C 581.264 863.549 581.712 827.832 580.553 794.335 C 573.688 793.435 560.822 793.231 567.799 782.035 C 572.988 779.148 617.862 780.496 625.949 780.508 z" fill="rgb(0,0,0)" transform="translate(0,0)"></path>
<path d="M 86.7558 780.238 C 92.8219 779.912 98.9911 779.993 105.067 780.015 C 152.046 780.184 199.181 779.669 246.141 780.244 C 257.978 780.389 259.632 795.702 252.584 801.407 C 242.057 809.929 226.765 796.001 216.049 794.523 C 206.469 793.412 195.485 793.782 185.6 793.793 L 131.696 793.903 L 131.894 935.009 C 151.417 935.145 171.677 935.483 191.046 934.796 C 201.597 932.545 207.3 927.418 218.02 933.729 C 227.752 938.279 220.175 952.084 212.8 951.148 C 185.735 947.713 158.839 948.109 131.682 948.066 C 131.805 983.294 131.724 1018.52 131.439 1053.75 L 131.293 1102.64 C 163.593 1103.09 198.427 1103.39 230.826 1101.54 C 240.316 1101 264.182 1079.74 266.978 1103.1 C 267.499 1107.46 266.24 1109.79 263.537 1112.83 C 254.766 1115.7 97.763 1115.48 79.7573 1113.81 C 76.1316 1111.57 75.4721 1110.69 76.945 1107 C 81.3903 1103.04 87.2429 1102.2 93.1167 1100.69 L 92.8729 793.181 C 87.3637 793.279 77.404 794.724 75.2793 788.557 C 77.2 784.357 82.7193 782.074 86.7558 780.238 z" fill="rgb(0,0,0)" transform="translate(0,0)"></path>
<path d="M 1712.12 777.565 C 1722.09 776.854 1744.43 773.943 1745.3 788.816 C 1742.29 795.631 1734.62 797.796 1727.64 797.81 C 1719.02 797.827 1709.83 792.929 1701.23 792.678 C 1690.99 792.379 1680.65 792.72 1670.4 792.678 C 1651.58 792.425 1632.76 792.336 1613.93 792.413 C 1613.7 838.011 1614.94 889.23 1616.25 934.691 C 1640.11 934.917 1670.38 937.904 1691.43 929.98 C 1702.32 925.879 1716.13 958.115 1684.02 951.049 C 1667.2 947.349 1634.59 948.67 1616.75 948.705 L 1617.97 1102.32 C 1646.12 1103.4 1679.4 1102.64 1707.94 1102.51 C 1722.67 1101.96 1727.82 1093.72 1741.5 1092.65 C 1750.33 1091.97 1751.87 1102.84 1750.54 1109.87 C 1748.33 1112.52 1747.3 1113.92 1743.27 1114.16 C 1731.93 1114.83 1719.91 1114.68 1708.53 1114.68 L 1642.8 1114.57 C 1628.01 1114.49 1613.23 1114.51 1598.44 1114.62 C 1589.34 1114.71 1569.01 1116.76 1562.22 1111.46 C 1558.9 1103.83 1573.75 1101.42 1578.84 1100.19 L 1577.13 794.002 C 1570.17 793.881 1564.1 794.941 1560.76 787.982 C 1560.94 780.391 1566.9 778.674 1573.59 778.396 C 1619.35 776.493 1666.5 780.026 1712.12 777.565 z" fill="rgb(0,0,0)" transform="translate(0,0)"></path>
<path d="M 1950.92 777.428 C 1959.13 777.03 1972.84 779.03 1974.52 788.771 C 1971.86 796.25 1963.87 797.978 1956.65 797.976 C 1947.25 797.974 1938.98 793.877 1929.34 793.728 C 1900.54 793.282 1871.72 793.238 1842.92 793.119 L 1843.78 934.352 C 1870.29 934.389 1896.25 935.393 1922.52 931.181 C 1926.81 930.493 1932.95 936.306 1933.15 940.954 C 1935.21 946.323 1924.78 953.424 1919.78 952.313 C 1895.58 946.935 1868.46 948.54 1843.58 948.309 C 1844.27 999.82 1844.66 1051.33 1844.77 1102.85 C 1874.25 1102.89 1911.86 1103.97 1940.87 1101.67 C 1948.78 1098.86 1964.8 1087.87 1970.37 1094.23 C 1993.12 1120.23 1946.02 1114.73 1936.3 1114.66 L 1878.32 1114.32 L 1824.13 1114.14 C 1816.19 1114.13 1795.76 1116.01 1791.09 1110.66 C 1790.36 1101.64 1800.33 1102.05 1807.1 1100.94 C 1807.65 1067.1 1806.75 1031.78 1806.3 997.87 L 1803.19 795.302 C 1797.16 794.794 1791.44 795.329 1788.53 789.644 C 1788.71 785.895 1788.67 786.162 1790.76 783.022 C 1795.34 780.683 1802.44 779.012 1807.63 778.944 C 1855.53 778.317 1903.02 780.041 1950.92 777.428 z" fill="rgb(0,0,0)" transform="translate(0,0)"></path>
<path d="M 1258.59 773.283 C 1269.86 774.232 1279.79 779.906 1267.62 790.345 C 1258.36 797.946 1246.23 801.196 1234.59 802.961 C 1216.38 805.725 1198.77 804.677 1180.58 802.806 C 1178.9 831.065 1179.76 868.021 1179.84 896.589 C 1180.08 943.289 1180.08 989.991 1179.82 1036.69 C 1179.82 1059.44 1180.58 1082.18 1180.17 1104.93 C 1179.94 1118.12 1167.53 1120.64 1156.7 1121.82 C 1146.54 1122.92 1138.28 1120.08 1137.39 1108.63 C 1136.99 1103.48 1141.57 1097.74 1141.07 1092.36 C 1141.17 1073.69 1141.12 1055.01 1141.07 1036.33 C 1141.47 956.975 1141.45 877.622 1141.02 798.271 C 1125.54 795.364 1108.74 795.18 1093.11 795.485 C 1077.23 795.795 1078.77 806.635 1069.95 814.62 C 1068.42 814.482 1067.02 814.341 1065.61 813.672 C 1061.1 811.525 1057.94 806.999 1056.6 802.268 C 1055.36 797.854 1055.89 792.565 1058.2 788.574 C 1059.43 786.448 1061.27 784.485 1063.55 783.497 C 1090.18 771.931 1189.35 783.82 1224.72 782.013 C 1236.22 781.425 1246.39 776.271 1257.42 773.559 L 1258.59 773.283 z" fill="rgb(0,0,0)" transform="translate(0,0)"></path>
<metadata><recraft-signature>{"signed_by": "recraft", "signature_b64": "PBFxaieh+rcEdQZtsm72ZeNZ60Rw4rfRK2xwuSUYU0wvgU0/H8hGwDFjjsI96OL7hZrgqvxQj7nuUM1jEjueBg==", "signing_algo": "Ed25519", "generation_timestamp": 1783499049, "identifier": "3a6e9058-4584-48e9-9201-35e807e545b4"}</recraft-signature></metadata></svg>