<svg xmlns="http://www.w3.org/2000/svg" height="1024" preserveAspectRatio="none" style="display: block;" version="1.1" viewBox="0 0 2048 2048" width="1024">
<defs>
	<linearGradient gradientUnits="userSpaceOnUse" id="Gradient1" x1="1696.88" x2="1609.5" y1="327.782" y2="404.83">
		<stop class="stop0" offset="0" stop-color="rgb(13,103,101)" stop-opacity="1"></stop>
		<stop class="stop1" offset="1" stop-color="rgb(21,122,107)" stop-opacity="1"></stop>
	</linearGradient>
	<linearGradient gradientUnits="userSpaceOnUse" id="Gradient2" x1="390.901" x2="474.62" y1="664.077" y2="697.335">
		<stop class="stop0" offset="0" stop-color="rgb(237,158,90)" stop-opacity="1"></stop>
		<stop class="stop1" offset="1" stop-color="rgb(255,210,133)" stop-opacity="1"></stop>
	</linearGradient>
	<linearGradient gradientUnits="userSpaceOnUse" id="Gradient3" x1="1532.95" x2="1633.29" y1="785.171" y2="674.239">
		<stop class="stop0" offset="0" stop-color="rgb(76,132,171)" stop-opacity="1"></stop>
		<stop class="stop1" offset="1" stop-color="rgb(98,157,179)" stop-opacity="1"></stop>
	</linearGradient>
	<linearGradient gradientUnits="userSpaceOnUse" id="Gradient4" x1="1678.45" x2="1632.41" y1="1209.45" y2="912.892">
		<stop class="stop0" offset="0" stop-color="rgb(176,167,145)" stop-opacity="1"></stop>
		<stop class="stop1" offset="1" stop-color="rgb(230,221,190)" stop-opacity="1"></stop>
	</linearGradient>
	<linearGradient gradientUnits="userSpaceOnUse" id="Gradient5" x1="406.787" x2="405.993" y1="1193.1" y2="934.659">
		<stop class="stop0" offset="0" stop-color="rgb(172,150,123)" stop-opacity="1"></stop>
		<stop class="stop1" offset="1" stop-color="rgb(222,204,168)" stop-opacity="1"></stop>
	</linearGradient>
	<linearGradient gradientUnits="userSpaceOnUse" id="Gradient6" x1="896.189" x2="930.252" y1="1711.84" y2="1534.48">
		<stop class="stop0" offset="0" stop-color="rgb(173,75,49)" stop-opacity="1"></stop>
		<stop class="stop1" offset="1" stop-color="rgb(216,102,62)" stop-opacity="1"></stop>
	</linearGradient>
	<linearGradient gradientUnits="userSpaceOnUse" id="Gradient7" x1="477.315" x2="587.961" y1="1465.39" y2="1313.86">
		<stop class="stop0" offset="0" stop-color="rgb(162,67,39)" stop-opacity="1"></stop>
		<stop class="stop1" offset="1" stop-color="rgb(211,99,59)" stop-opacity="1"></stop>
	</linearGradient>
	<linearGradient gradientUnits="userSpaceOnUse" id="Gradient8" x1="994.608" x2="1741.89" y1="1565.74" y2="1432.65">
		<stop class="stop0" offset="0" stop-color="rgb(249,225,172)" stop-opacity="1"></stop>
		<stop class="stop1" offset="1" stop-color="rgb(253,240,215)" stop-opacity="1"></stop>
	</linearGradient>
	<linearGradient gradientUnits="userSpaceOnUse" id="Gradient9" x1="825.192" x2="1237.19" y1="1790.67" y2="260.937">
		<stop class="stop0" offset="0" stop-color="rgb(17,21,45)" stop-opacity="1"></stop>
		<stop class="stop1" offset="1" stop-color="rgb(49,67,97)" stop-opacity="1"></stop>
	</linearGradient>
</defs>
<path d="M 0 0 L 2048 0 L 2048 2048 L 0 2048 L 0 0 z" fill="rgb(246,238,224)" transform="translate(0,0)"></path>
<path d="M 994.742 231.446 C 1194.35 224.065 1389.32 292.795 1540.17 423.725 C 1648.09 516.677 1729.35 636.663 1775.61 771.378 C 1787.94 807.157 1799.95 848.132 1802.39 886.085 C 1824.36 886.469 1846.34 886.688 1868.32 886.742 C 1847.1 921.53 1827.05 958.061 1806.96 993.496 C 1792 1019.88 1776.24 1045.91 1761.86 1072.61 L 1826.73 1182.79 C 1837.36 1201.16 1851.78 1229.39 1863.02 1246.02 C 1836.81 1245.08 1810.25 1245.96 1783.68 1245.14 C 1748.44 1365.31 1703.08 1451.68 1620.61 1546.36 C 1513.86 1666.6 1373.91 1752.56 1218.39 1793.39 C 1168.14 1806.2 1114.41 1813.33 1062.67 1816.85 C 1028.29 1817.54 991.998 1817.44 957.752 1814.75 C 855.778 1806.75 742.478 1775.5 652.116 1726.95 C 489.932 1640.94 362.603 1501.34 291.837 1331.94 C 280.883 1305.38 270.494 1273.06 262.241 1245.72 C 236.806 1246.11 210.776 1245.91 185.292 1245.98 C 197.513 1226.9 208.313 1205.77 219.938 1186.21 C 242.181 1148.77 262.813 1111.16 283.622 1072.9 C 275.144 1061.52 252.631 1019.42 245.073 1005.47 C 224.387 967.276 197.787 924.986 179.874 886.037 C 201.234 885.842 222.595 885.862 243.955 886.097 C 263.81 765.372 312.699 651.277 386.416 553.631 C 419.016 510.521 458.36 467.778 499.146 432.079 C 636.738 310.814 811.541 240.048 994.742 231.446 z" fill="url(#Gradient9)" transform="translate(0,0)"></path>
<path d="M 971.042 1031.5 C 1011.06 1029.55 1059.61 1031.48 1099.93 1032.37 C 1255.35 1034.48 1410.27 1050.47 1562.84 1080.14 C 1563.3 1151.8 1563.12 1223.46 1562.31 1295.11 C 1531.48 1287.38 1496.23 1282.42 1464.7 1277.06 C 1338.44 1255.56 1207.99 1247.29 1080 1244.7 C 1002.89 1241.5 916.35 1245.34 839.462 1249.95 C 720.721 1257.08 604.409 1269.71 487.94 1294.73 L 488.025 1076.3 C 638.885 1047.49 817.737 1035.45 971.042 1031.5 z" fill="rgb(253,220,166)" transform="translate(0,0)"></path>
<path d="M 991.994 1087.26 L 1018.88 1086.99 L 1018.04 1184.23 L 989.084 1184 C 980.386 1170.95 963.884 1148.8 953.991 1136.73 C 952.996 1152.9 952.969 1169.7 952.722 1185.94 L 927.151 1186.16 C 927.701 1153.7 927.664 1121.24 927.039 1088.79 C 936.102 1088.13 945.157 1088.14 954.242 1088.04 C 966.688 1102.43 978.186 1121.26 991.154 1135.32 C 992.421 1120.59 991.989 1102.33 991.994 1087.26 z" fill="rgb(35,43,72)" transform="translate(0,0)"></path>
<path d="M 1126.84 1087.78 C 1160.91 1088.91 1217.55 1082.83 1209.21 1137.7 C 1207.94 1146.06 1200.49 1150.52 1193.76 1154.39 C 1196.63 1160.91 1212.04 1186.95 1212.63 1189.41 C 1209.87 1190.41 1205.47 1189.64 1202.25 1189.4 C 1195.38 1188.78 1188.52 1188.1 1181.66 1187.37 C 1167.58 1158.05 1154.75 1137.98 1155.59 1187.08 C 1146.2 1186.53 1136.8 1186.11 1127.4 1185.84 C 1126.25 1154.75 1126.92 1119.21 1126.84 1087.78 z" fill="rgb(35,43,72)" transform="translate(0,0)"></path>
<path d="M 1155.72 1113.03 C 1171.2 1112.63 1189.2 1115.45 1178.49 1135.93 C 1171.46 1140.7 1164.7 1139.17 1156 1138.73 C 1155.74 1130.29 1155.79 1121.5 1155.72 1113.03 z" fill="rgb(254,244,208)" transform="translate(0,0)"></path>
<path d="M 1310.13 1100.73 C 1331.85 1104.47 1360.95 1106.25 1383.73 1109 L 1383.47 1133.35 C 1374.39 1132.78 1347.82 1128.95 1340.57 1130.23 C 1339.22 1133.41 1339.77 1138.05 1339.88 1141.66 C 1352.28 1144.1 1365.83 1144.86 1378.77 1147.17 L 1378.88 1168.84 C 1367.87 1166.95 1355.39 1165.74 1344.23 1164.56 C 1340.96 1164.04 1342.28 1163.6 1339.93 1165.07 C 1338.54 1168.47 1339.31 1173.05 1339.58 1176.87 C 1350.12 1179.11 1371.05 1180.76 1383.06 1182.38 L 1383.02 1205.37 C 1361.94 1202.43 1330.99 1198.88 1310 1197.69 L 1310.13 1100.73 z" fill="rgb(35,43,72)" transform="translate(0,0)"></path>
<path d="M 722.771 1103.59 C 723.634 1108.16 723.722 1123.39 723.869 1128.78 C 712.487 1129.46 694.153 1131.5 682.957 1133.34 L 682.883 1147.35 C 695.276 1146.48 707.142 1144.43 720.077 1143.73 L 720.249 1166.86 C 707.893 1167.82 695.238 1168.59 682.984 1170.31 L 683.11 1184.28 C 696.595 1182.68 710.837 1181.53 724.41 1180.23 L 724.469 1194.25 C 724.472 1200.86 724.589 1201.27 717.701 1202.06 C 696.183 1204.5 674.633 1206.89 653.125 1209.4 L 653.796 1110.72 C 669.798 1109.31 709.107 1106.67 722.771 1103.59 z" fill="rgb(35,43,72)" transform="translate(0,0)"></path>
<path d="M 1222.98 1093.76 C 1244.19 1095.66 1275.83 1098.83 1296.78 1099.01 L 1296.69 1123.68 C 1282.1 1121.4 1266.34 1120.01 1251.63 1118.74 C 1251.53 1124.21 1251.66 1130.05 1251.7 1135.55 C 1263.92 1137.03 1277.29 1138.06 1289.62 1139.24 L 1289.58 1160.26 L 1261.76 1157.84 L 1255.75 1157.1 C 1250.62 1159.18 1250.05 1162.96 1252.27 1167.79 C 1256.92 1170.57 1286.98 1172.45 1295.04 1173.24 L 1294.96 1196.39 C 1271.04 1193.82 1247.06 1191.86 1223.04 1190.5 L 1222.98 1093.76 z" fill="rgb(35,43,72)" transform="translate(0,0)"></path>
<path d="M 1397.36 1110.59 C 1419.35 1112.66 1445.25 1118.37 1467.91 1121.42 C 1467.89 1129.96 1468.5 1138.76 1468.96 1147.31 C 1463.87 1146.32 1429.81 1139.06 1427.46 1141.76 C 1415.42 1155.61 1453.63 1157.21 1461.96 1158.46 L 1462.59 1179.76 C 1451.46 1178.11 1440.33 1176.53 1429.19 1174.99 C 1426.67 1174.93 1427.47 1174.73 1425.34 1175.81 C 1423.92 1179.48 1424.8 1184.41 1425.12 1188.49 C 1435.56 1191 1457.38 1193.51 1469.24 1195.43 L 1469.11 1219.4 C 1443.51 1214.05 1423.12 1210.56 1397.34 1207.63 C 1396.72 1176.02 1397.34 1142.37 1397.36 1110.59 z" fill="rgb(35,43,72)" transform="translate(0,0)"></path>
<path d="M 907.673 1089.44 L 912.04 1089.24 C 915.575 1093.05 914.007 1107 913.913 1113.09 C 899.164 1113.55 884.421 1114.19 869.688 1115.01 C 869.677 1120.21 869.878 1125.8 869.975 1131.03 C 880.148 1131.17 892.479 1130.17 902.789 1129.6 L 902.733 1151.88 C 891.778 1152.13 880.828 1152.53 869.885 1153.09 L 869.848 1154.09 C 869.728 1157.84 869.126 1162.52 871.464 1165.03 C 881.163 1166.17 904.717 1164.62 915.175 1163.98 L 914.509 1175.77 L 914.197 1186.8 C 890.679 1187.11 864.969 1188.89 841.222 1189.84 C 840.172 1158.64 840.787 1124.51 840.761 1093.1 C 860.347 1093.11 888.1 1090.86 907.673 1089.44 z" fill="rgb(35,43,72)" transform="translate(0,0)"></path>
<path d="M 821.566 1094.59 L 836.274 1093.59 C 823.425 1124.97 812.958 1163.82 798.831 1193.64 C 788.503 1195.21 777.261 1196.19 766.809 1197.25 C 762.801 1182.39 747.808 1148.63 741.424 1133.25 C 737.01 1123.36 732.753 1113.41 728.655 1103.39 C 739.624 1102.37 749.354 1101.43 760.277 1099.76 C 765.854 1119.4 776.939 1146.1 784.874 1164.95 C 792.005 1144.22 799.094 1117.13 804.949 1095.81 L 821.566 1094.59 z" fill="rgb(35,43,72)" transform="translate(0,0)"></path>
<path d="M 1049.63 1086.52 C 1071.22 1086.12 1093.89 1086.89 1115.55 1087.31 L 1115.51 1112.03 C 1107.01 1112.04 1097.46 1111.34 1088.89 1110.9 L 1088.69 1180.25 L 1088.35 1183.57 C 1085.06 1185.88 1065.66 1184.43 1059.04 1184.7 L 1059.21 1110.99 C 1049.68 1110.97 1039.61 1111.46 1030.05 1111.77 L 1030.07 1086.71 L 1049.63 1086.52 z" fill="rgb(35,43,72)" transform="translate(0,0)"></path>
<path d="M 587.197 1130.54 C 590.316 1133.26 599.51 1153.95 602.364 1159.54 C 612.708 1157.19 623.19 1155.5 633.748 1154.47 C 625.539 1162.22 616.595 1169.79 608.06 1177.23 C 613.014 1188.51 619.009 1200.12 624.5 1211.21 C 615.917 1206.08 607.304 1200.99 598.662 1195.96 L 592.499 1192.69 C 584.632 1201.56 576.651 1210.32 568.557 1218.99 C 570.71 1207.49 572.631 1195.94 574.317 1184.36 C 564.983 1179.17 555.384 1174.18 546.847 1167.79 C 557.837 1166.55 568.778 1164.91 579.649 1162.87 C 582.709 1151.9 584.839 1141.67 587.197 1130.54 z" fill="rgb(35,43,72)" transform="translate(0,0)"></path>
<path d="M 1507.42 1147.56 C 1509.77 1149.54 1515.39 1164.09 1516.96 1167.82 L 1530.72 1167.41 C 1529.56 1173.85 1529.42 1174.67 1530.75 1180.98 L 1531.08 1182.5 C 1529.22 1184.64 1519.43 1184.88 1515.42 1185.31 C 1512.43 1188.8 1508.25 1196.1 1505.53 1200.27 L 1503.69 1200.48 L 1492.53 1184.34 C 1488.73 1184.16 1485.63 1184.57 1482.75 1182.34 C 1480.24 1177.58 1480.65 1170.2 1476.7 1162.07 C 1482.89 1163.67 1489.12 1164.7 1495.42 1165.86 C 1499.31 1160.47 1503.73 1153.25 1507.42 1147.56 z" fill="rgb(35,43,72)" transform="translate(0,0)"></path>
<path d="M 1689.48 1246.06 L 1712.13 1245.97 C 1705.18 1271.65 1690.44 1307.1 1679.07 1331.41 C 1616.77 1463.68 1515.34 1573.62 1388.5 1646.34 C 1279.57 1708.87 1150.52 1746.38 1024.42 1744.99 C 1024.15 1738.31 1024.33 1731.53 1024.41 1724.84 C 1025.2 1711.79 1025.39 1667.2 1024.52 1654.31 C 1027.62 1651.53 1040.09 1643.47 1044.1 1640.7 L 1087.09 1610.82 C 1122.34 1586.36 1158.16 1562.94 1193.33 1538.41 C 1209.82 1526.9 1225.92 1515.19 1242.75 1504.14 C 1253.83 1495.41 1274.14 1481.79 1286.14 1473.69 C 1300.03 1462.63 1316.74 1452.42 1331.4 1441.89 C 1369.76 1414.18 1408.35 1386.78 1447.15 1359.69 C 1453.2 1347.55 1459.21 1331.49 1465.69 1318.01 C 1487.95 1322.8 1510.78 1325.96 1533.12 1330.44 C 1557.22 1335.27 1581.06 1341.04 1605.14 1346.04 L 1605.1 1246.72 C 1633.23 1246.3 1661.35 1246.08 1689.48 1246.06 z" fill="rgb(106,48,40)" transform="translate(0,0)"></path>
<path d="M 1605.1 1246.72 C 1633.23 1246.3 1661.35 1246.08 1689.48 1246.06 C 1669.56 1319.57 1612.7 1415.93 1562.87 1472.89 C 1504.4 1473.24 1445.92 1473.3 1387.45 1473.06 C 1357.04 1473.17 1315.49 1475.27 1286.14 1473.69 C 1300.03 1462.63 1316.74 1452.42 1331.4 1441.89 C 1369.76 1414.18 1408.35 1386.78 1447.15 1359.69 C 1453.2 1347.55 1459.21 1331.49 1465.69 1318.01 C 1487.95 1322.8 1510.78 1325.96 1533.12 1330.44 C 1557.22 1335.27 1581.06 1341.04 1605.14 1346.04 L 1605.1 1246.72 z" fill="rgb(244,155,78)" transform="translate(0,0)"></path>
<path d="M 1242.75 1504.14 C 1244.58 1510.37 1243.78 1548.03 1243.73 1556.36 L 1243.25 1655.43 C 1243.22 1661.44 1242.69 1684.43 1243.96 1688.9 C 1227.39 1695.1 1207.44 1699.35 1190.2 1703.47 C 1162.89 1709.98 1135.42 1716.06 1107.52 1719.46 C 1080.14 1722.81 1052.01 1723.75 1024.41 1724.84 C 1025.2 1711.79 1025.39 1667.2 1024.52 1654.31 C 1027.62 1651.53 1040.09 1643.47 1044.1 1640.7 L 1087.09 1610.82 C 1122.34 1586.36 1158.16 1562.94 1193.33 1538.41 C 1209.82 1526.9 1225.92 1515.19 1242.75 1504.14 z" fill="rgb(244,155,78)" transform="translate(0,0)"></path>
<path d="M 1689.48 1246.06 L 1712.13 1245.97 C 1705.18 1271.65 1690.44 1307.1 1679.07 1331.41 C 1616.77 1463.68 1515.34 1573.62 1388.5 1646.34 C 1279.57 1708.87 1150.52 1746.38 1024.42 1744.99 C 1024.15 1738.31 1024.33 1731.53 1024.41 1724.84 C 1052.01 1723.75 1080.14 1722.81 1107.52 1719.46 C 1135.42 1716.06 1162.89 1709.98 1190.2 1703.47 C 1207.44 1699.35 1227.39 1695.1 1243.96 1688.9 C 1378.31 1640.61 1470.02 1581.27 1562.87 1472.89 C 1612.7 1415.93 1669.56 1319.57 1689.48 1246.06 z" fill="url(#Gradient8)" transform="translate(0,0)"></path>
<path d="M 336.126 1246.46 C 343.694 1246.16 350.134 1246.32 357.719 1246.57 C 385.27 1246.76 414.058 1246.42 441.478 1246.96 C 441.374 1278.82 440.259 1317.77 441.585 1349.1 C 493.2 1335.58 545.514 1324.89 598.295 1317.08 L 598.863 1363.67 C 622.802 1379.99 647.161 1395.9 670.748 1412.68 C 698.82 1432.66 726.665 1452.97 754.979 1472.61 C 762.282 1476.6 800.028 1502.49 806.237 1508.2 C 849.415 1537.61 892.763 1566.76 936.281 1595.67 L 997.334 1635.69 C 1005.09 1640.87 1017.68 1648.62 1024.52 1654.31 C 1025.39 1667.2 1025.2 1711.79 1024.41 1724.84 C 1024.33 1731.53 1024.15 1738.31 1024.42 1744.99 C 920.009 1745.25 816.811 1722.58 722.122 1678.57 C 670.957 1654.88 622.7 1625.36 578.313 1590.59 C 456.956 1496.06 389.369 1389.09 336.126 1246.46 z" fill="rgb(106,48,40)" transform="translate(0,0)"></path>
<path d="M 357.719 1246.57 C 385.27 1246.76 414.058 1246.42 441.478 1246.96 C 441.374 1278.82 440.259 1317.77 441.585 1349.1 C 493.2 1335.58 545.514 1324.89 598.295 1317.08 L 598.863 1363.67 C 622.802 1379.99 647.161 1395.9 670.748 1412.68 C 698.82 1432.66 726.665 1452.97 754.979 1472.61 C 732.167 1474.19 701.491 1473.67 678.174 1473.74 L 553.094 1473.91 C 539.183 1473.91 496.998 1472.84 485.106 1474.26 C 478.957 1468.43 464.768 1450.14 459.579 1443.03 C 417.963 1385.96 379.28 1313.81 357.719 1246.57 z" fill="url(#Gradient7)" transform="translate(0,0)"></path>
<path d="M 806.237 1508.2 C 849.415 1537.61 892.763 1566.76 936.281 1595.67 L 997.334 1635.69 C 1005.09 1640.87 1017.68 1648.62 1024.52 1654.31 C 1025.39 1667.2 1025.2 1711.79 1024.41 1724.84 C 950.029 1727.14 874.684 1711.96 804.144 1689.74 C 805.587 1685.39 805.061 1660.51 805.059 1654.11 L 805.538 1562.87 C 805.51 1551.17 804.644 1517.87 806.237 1508.2 z" fill="url(#Gradient6)" transform="translate(0,0)"></path>
<path d="M 336.126 1246.46 C 343.694 1246.16 350.134 1246.32 357.719 1246.57 C 379.28 1313.81 417.963 1385.96 459.579 1443.03 C 464.768 1450.14 478.957 1468.43 485.106 1474.26 C 574.713 1576.98 674.601 1646.16 804.144 1689.74 C 874.684 1711.96 950.029 1727.14 1024.41 1724.84 C 1024.33 1731.53 1024.15 1738.31 1024.42 1744.99 C 920.009 1745.25 816.811 1722.58 722.122 1678.57 C 670.957 1654.88 622.7 1625.36 578.313 1590.59 C 456.956 1496.06 389.369 1389.09 336.126 1246.46 z" fill="rgb(244,155,78)" transform="translate(0,0)"></path>
<path d="M 1021.93 348.974 C 1166.18 348.929 1307.45 394.047 1422.32 482.447 C 1427.44 486.387 1439.36 496.585 1444.44 499.262 C 1462.98 515.326 1490.28 538.935 1506.86 556.722 C 1497.06 566.444 1487.53 576.438 1478.28 586.693 C 1484.16 593.428 1497.35 607.805 1501.92 614.731 C 1493.37 611.543 1467.97 573.454 1460.11 572.229 C 1447.15 580.425 1379.23 569.354 1361.94 565.62 C 1352.95 563.68 1352.59 564.1 1342.9 567.992 C 1339.2 569.482 1337.88 563.946 1329.35 567.559 C 1335.01 577.431 1329.38 585.344 1323.82 593.239 C 1303.43 603.449 1294.69 592.021 1285.93 574.204 C 1285.74 573.814 1285.32 566.642 1284.95 564.814 C 1280.3 562.131 1284.21 566.88 1281.54 566.854 C 1253.15 566.576 1225.27 565.145 1196.96 563.431 C 1196.75 563.418 1194.76 566.009 1192.51 566.474 C 1191.45 564.195 1192 564.905 1190.02 563.259 L 1185.56 565.993 C 1182.38 566.119 1180.66 563.913 1177.56 561.624 C 1176.19 563.24 1174.78 564.833 1173.35 566.403 C 1167.39 572.928 1164.06 570.283 1155.92 571.493 L 1155.07 571.625 C 1137.7 563.131 1145.07 564.878 1139.47 548.737 C 1139.13 551.123 1139.48 550.305 1138.26 552.318 C 1132.64 547.206 1122.05 537.746 1114.06 538.197 C 1112.33 537.959 1106.02 537.734 1104.78 536.97 C 1093.91 530.232 1073.03 528.255 1064.89 519.55 C 1064.17 516.775 1063.35 514.493 1062.41 511.806 L 1061.35 511.775 C 1060.74 514.129 1057.62 517.849 1056.28 521.066 L 1055.95 519.762 L 1052.79 519.931 C 1054.39 529.343 1055.76 538.793 1056.89 548.273 C 1046.23 543.998 1034.99 537.314 1024.66 531.826 C 1015.32 534.168 998.031 543.454 988.517 548.218 C 989.982 536.601 991.586 522.357 994.699 511.191 C 989.364 507.458 982.181 500.746 977.093 496.251 L 975.882 496.412 C 972.932 495.316 972.287 493.919 970.347 491.395 L 969.606 490.415 C 964.58 488.607 956.661 491.119 952.818 490.019 C 941.408 486.756 930.098 483.57 918.576 480.656 C 906.002 477.476 894.731 467.824 882.744 462.778 C 881.502 462.253 868.208 463.495 866.222 463.533 C 853.889 456.804 836.225 449.729 828.395 438.511 C 828.095 434.488 829.775 432.167 831.747 428.583 L 832.646 426.971 L 831.662 423.67 C 822.631 423.117 768.318 448.23 757.509 453.315 C 754.177 454.882 753.694 455.448 751.187 454.434 C 755.333 451.205 780.598 440.556 786.103 438.221 C 860.531 406.1 940.794 389.71 1021.86 390.078 C 1021.96 376.377 1021.99 362.675 1021.93 348.974 z" fill="rgb(55,89,121)" transform="translate(0,0)"></path>
<path d="M 1021.93 348.974 C 1166.18 348.929 1307.45 394.047 1422.32 482.447 C 1427.44 486.387 1439.36 496.585 1444.44 499.262 C 1462.98 515.326 1490.28 538.935 1506.86 556.722 C 1497.06 566.444 1487.53 576.438 1478.28 586.693 C 1473.3 581.428 1468.26 576.206 1463.19 571.027 C 1347.21 453.117 1186.02 391.42 1021.86 390.078 C 1021.96 376.377 1021.99 362.675 1021.93 348.974 z" fill="rgb(126,214,215)" transform="translate(0,0)"></path>
<path d="M 1022.59 447.242 C 1026.65 455.554 1036.07 473.273 1044.41 477.878 C 1050.51 481.248 1069.73 482.77 1075.09 487.423 L 1073.69 490.281 C 1073.34 496.099 1056.73 513.015 1055.95 519.762 L 1052.79 519.931 C 1054.39 529.343 1055.76 538.793 1056.89 548.273 C 1046.23 543.998 1034.99 537.314 1024.66 531.826 C 1015.32 534.168 998.031 543.454 988.517 548.218 C 989.982 536.601 991.586 522.357 994.699 511.191 C 989.364 507.458 982.181 500.746 977.093 496.251 C 977.293 496.617 969.777 487.054 969.177 486.246 C 979.954 483.429 992.052 481.956 1003.29 479.354 C 1009.45 471.967 1017.68 456.135 1022.59 447.242 z" fill="rgb(246,238,224)" transform="translate(0,0)"></path>
<path d="M 1073.69 490.281 C 1073.34 496.099 1056.73 513.015 1055.95 519.762 L 1052.79 519.931 C 1052.18 518.062 1052.08 515.988 1051.85 513.992 C 1053.7 508.252 1068.42 495.704 1073.69 490.281 z" fill="rgb(35,43,72)" transform="translate(0,0)"></path>
<path d="M 1156.24 532.738 C 1162.83 531.475 1169.58 533.859 1173.92 538.975 C 1178.25 544.091 1179.49 551.146 1177.17 557.436 C 1174.84 563.725 1169.31 568.274 1162.68 569.337 C 1152.66 570.946 1143.2 564.211 1141.44 554.212 C 1139.68 544.212 1146.27 534.65 1156.24 532.738 z" fill="rgb(254,244,208)" transform="translate(0,0)"></path>
<path d="M 1308.96 558.414 C 1319.02 557.27 1328.12 564.443 1329.36 574.492 C 1330.61 584.54 1323.52 593.714 1313.49 595.055 C 1303.31 596.414 1293.98 589.21 1292.72 579.021 C 1291.46 568.832 1298.76 559.573 1308.96 558.414 z" fill="rgb(254,244,208)" transform="translate(0,0)"></path>
<path d="M 258.699 934.946 C 311.696 933.008 365.372 934.359 418.438 934.419 C 464.42 934.472 510.472 933.467 556.42 933.86 C 518.201 955.209 474.241 990.139 444.039 1021.68 C 443.502 1073.03 443.862 1125.19 442.893 1176.39 C 443.13 1182.62 443.174 1188.87 443.025 1195.11 C 429.095 1195.1 268.352 1195.63 266.269 1194.05 C 272.484 1180.47 284.262 1160.72 291.858 1147.03 C 305.594 1121.93 319.501 1096.92 333.58 1072.01 C 307.994 1029.69 283.104 978.777 258.699 934.946 z" fill="url(#Gradient5)" transform="translate(0,0)"></path>
<path d="M 441.51 1193.65 C 441.452 1189.47 440.673 1179.19 442.893 1176.39 C 443.13 1182.62 443.174 1188.87 443.025 1195.11 C 429.095 1195.1 268.352 1195.63 266.269 1194.05 C 287.487 1192.2 303.691 1193.21 324.517 1193.45 C 346.998 1193.71 370.103 1193.45 392.627 1193.39 L 387.656 1192.83 L 387.217 1191.7 C 401.187 1183.83 424.193 1194.48 441.51 1193.65 z" fill="rgb(158,140,120)" transform="translate(0,0)"></path>
<path d="M 550.511 477.116 C 637.895 401.667 741.515 347.404 853.303 318.555 C 1036.12 272.164 1229.93 301.719 1390.62 400.493 C 1531.22 483.897 1639.86 611.974 1699.2 764.304 C 1713.43 801.243 1726.26 846.582 1735.68 884.54 C 1729.88 884.719 1722.49 884.354 1716.58 884.212 C 1690.37 760.538 1632.1 645.93 1547.62 551.879 C 1524.27 525.744 1491.81 494.151 1463.24 473.946 C 1459.62 474.171 1457.04 472.101 1454.58 469.381 C 1452.59 472.312 1452.78 475.168 1452.71 478.766 C 1449.2 484.025 1444.78 490.029 1442.57 495.776 L 1445.24 497.765 L 1444.44 499.262 C 1439.36 496.585 1427.44 486.387 1422.32 482.447 C 1307.45 394.047 1166.18 348.929 1021.93 348.974 C 1021.52 338.826 1021.83 326.233 1021.81 315.903 C 893.342 317.428 767.69 353.77 658.239 421.06 C 638.917 433.35 620.052 446.342 601.681 460.012 C 593.06 466.523 583.531 474.753 575.096 480.797 L 572.662 480.727 C 568.348 483.966 560.225 493.615 556.472 493.704 C 554.065 491.848 553.974 491.026 553.005 488.211 L 552.533 486.813 C 551.064 482.579 550.26 481.5 550.511 477.116 z" fill="rgb(253,220,166)" transform="translate(0,0)"></path>
<path d="M 1021.81 315.903 C 1158 317.305 1288.74 354.226 1402.38 430.089 C 1411.07 435.89 1457.54 466.539 1463.24 473.946 C 1459.62 474.171 1457.04 472.101 1454.58 469.381 C 1452.59 472.312 1452.78 475.168 1452.71 478.766 C 1449.2 484.025 1444.78 490.029 1442.57 495.776 L 1445.24 497.765 L 1444.44 499.262 C 1439.36 496.585 1427.44 486.387 1422.32 482.447 C 1307.45 394.047 1166.18 348.929 1021.93 348.974 C 1021.52 338.826 1021.83 326.233 1021.81 315.903 z" fill="rgb(55,89,121)" transform="translate(0,0)"></path>
<path d="M 1485.57 934.324 C 1518.12 933.29 1555.96 934.116 1588.87 934.064 L 1787.83 934.067 C 1779.43 952.494 1766.34 973.918 1755.96 991.797 C 1740.73 1017.93 1725.65 1044.14 1710.73 1070.45 L 1754.66 1148.63 C 1763.2 1163.35 1774.9 1181.26 1781.92 1195.98 L 1605 1195.39 C 1605.03 1134.17 1604.01 1072.47 1604.56 1011.38 C 1580.55 994.788 1554.65 979.108 1530.19 963.193 C 1519.4 956.175 1493.81 942.05 1485.57 934.324 z" fill="url(#Gradient4)" transform="translate(0,0)"></path>
<path d="M 864.697 900.179 L 1074.49 900.116 C 1109.46 900.144 1149.83 899.294 1184.51 900.462 C 1195.05 914.773 1205.86 928.701 1216.49 942.924 C 1225.84 955.426 1235.03 970.255 1245.26 981.987 C 1248.03 983.657 1251.55 988.107 1253.83 990.705 C 1221.11 988.683 1173.94 990.093 1139.9 990.034 L 908.947 990.629 C 885.773 990.763 862.211 990.602 839.051 990.015 C 832.439 989.848 801.573 990.688 797.237 989.619 C 796.841 986.956 796.722 988.313 798.5 985.564 C 806.918 980.881 820.323 983.9 830.537 982.182 L 803.784 982.11 C 816.045 966.318 826.808 951.069 838.275 934.686 C 845.634 924.172 855.831 909.178 864.697 900.179 z" fill="rgb(62,130,141)" transform="translate(0,0)"></path>
<path d="M 830.537 982.182 C 968.311 980.353 1107.45 983.475 1245.26 981.987 C 1248.03 983.657 1251.55 988.107 1253.83 990.705 C 1221.11 988.683 1173.94 990.093 1139.9 990.034 L 908.947 990.629 C 885.773 990.763 862.211 990.602 839.051 990.015 C 832.439 989.848 801.573 990.688 797.237 989.619 C 796.841 986.956 796.722 988.313 798.5 985.564 C 806.918 980.881 820.323 983.9 830.537 982.182 z" fill="rgb(35,43,72)" transform="translate(0,0)"></path>
<path d="M 371.175 881.078 C 399.079 723.891 492.141 583.008 619.166 488.506 C 640.87 472.359 661.765 456.396 685.011 442.406 C 786.994 381.814 903.308 349.559 1021.93 348.974 C 1021.99 362.675 1021.96 376.377 1021.86 390.078 C 940.794 389.71 860.531 406.1 786.103 438.221 C 780.598 440.556 755.333 451.205 751.187 454.434 C 604.534 519.973 483.496 654.407 428.769 804.704 C 419.579 829.943 410.821 854.624 405.229 880.928 C 393.878 881.06 382.526 881.11 371.175 881.078 z" fill="rgb(230,100,83)" transform="translate(0,0)"></path>
<path d="M 1026.94 807.481 L 1127.86 807.3 C 1145.36 828.474 1174.72 870.572 1189.7 893.821 C 1177.38 892.258 1145.22 893.028 1131.08 893.027 L 1018.52 893.056 L 914.875 893 C 896.226 892.998 871.592 892.39 853.468 893.862 C 856.807 888.524 860.389 883.156 864.032 878.021 C 880.479 854.846 895.704 830.11 913.421 807.926 L 1026.94 807.481 z" fill="rgb(61,167,144)" transform="translate(0,0)"></path>
<path d="M 1337.88 1300.5 L 1396.48 1307.84 C 1398.68 1316.33 1401.06 1326.66 1403.65 1334.9 C 1357.08 1369.73 1307.86 1401.83 1260.39 1435.4 C 1202.05 1476.58 1143.45 1517.39 1084.59 1557.83 C 1064.65 1571.44 1045.16 1585.68 1024.95 1598.86 C 1024.51 1579.97 1025.38 1559.37 1023.87 1540.59 C 1039.21 1527.06 1059.24 1514.72 1076 1502.67 C 1113.13 1475.96 1151.4 1450.91 1189.13 1425.11 C 1221.68 1402.48 1254.4 1380.1 1287.3 1357.97 C 1304.26 1346.45 1323.13 1332.32 1340.95 1322.84 L 1337.88 1300.5 z" fill="rgb(230,100,83)" transform="translate(0,0)"></path>
<path d="M 645.121 1307.22 C 666.48 1306.09 692.648 1301.9 715.055 1300.08 C 712.531 1309.78 709.725 1319.56 708.377 1329.48 C 732.86 1347.42 760.467 1362.79 785.098 1380.55 C 819.067 1405.03 854.719 1426.38 888.836 1450.56 C 911.552 1465.09 933.999 1480.03 956.164 1495.39 C 972.614 1506.88 1006.94 1531.24 1023.87 1540.59 C 1025.38 1559.37 1024.51 1579.97 1024.95 1598.86 C 1017.96 1599.04 923.564 1531.16 909.3 1522.32 C 901.457 1517.45 873.749 1498.94 866.037 1492.4 C 863.941 1491.59 851.379 1482.63 848.819 1480.86 L 796.178 1444.02 L 696.771 1375.85 C 680.584 1364.67 661.057 1351.86 645.885 1339.9 C 645.912 1328.4 645.816 1318.73 645.121 1307.22 z" fill="rgb(62,130,141)" transform="translate(0,0)"></path>
<path d="M 888.836 1450.56 C 911.552 1465.09 933.999 1480.03 956.164 1495.39 C 972.614 1506.88 1006.94 1531.24 1023.87 1540.59 C 1025.38 1559.37 1024.51 1579.97 1024.95 1598.86 C 1017.96 1599.04 923.564 1531.16 909.3 1522.32 C 901.457 1517.45 873.749 1498.94 866.037 1492.4 C 877.429 1494.84 928.083 1537.34 938.865 1537.26 C 939.271 1536.24 939.689 1535.21 940.117 1534.19 C 940.471 1533.36 942 1529.73 942.618 1529.26 C 951.312 1522.72 964.747 1514.26 974.805 1510.45 C 972.688 1509.17 963.708 1503.16 962.418 1501.93 C 952.65 1492.63 893.037 1458.89 888.836 1450.56 z" fill="rgb(123,81,115)" transform="translate(0,0)"></path>
<path d="M 956.722 721.464 C 1001.2 720.959 1046.61 721.642 1091.3 721.374 C 1109.22 745.442 1129.88 774.693 1145.57 799.932 L 1088.5 799.846 C 1025.45 799.713 962.403 799.917 899.357 800.458 C 915.879 775.005 934.73 749.746 951.948 724.676 C 953.152 722.923 954.711 722.051 956.722 721.464 z" fill="rgb(138,202,173)" transform="translate(0,0)"></path>
<path d="M 1506.86 556.722 C 1594.07 647.766 1654.58 761.022 1681.78 884.122 C 1667.7 884.612 1653.6 884.889 1639.51 884.952 C 1619.07 801.457 1585.01 723.152 1534.01 653.803 C 1527.97 645.591 1509.03 620.786 1501.92 614.731 C 1497.35 607.805 1484.16 593.428 1478.28 586.693 C 1487.53 576.438 1497.06 566.444 1506.86 556.722 z" fill="url(#Gradient3)" transform="translate(0,0)"></path>
<path d="M 941.128 714.217 C 960.094 687.701 977.243 659.941 995.421 632.896 C 1003.82 620.4 1012.74 605.711 1022.03 594.059 C 1041.94 624.896 1064.68 654.912 1084.38 685.479 L 1104.58 713.128 L 1085.48 713.179 C 1037.36 712.931 989.241 713.278 941.128 714.217 z" fill="rgb(251,201,121)" transform="translate(0,0)"></path>
<path d="M 1085.48 713.179 L 1086.97 711.985 C 1088.34 705.799 1086.14 699.104 1084.34 693.263 C 1086.85 694.779 1087.85 695.896 1090.02 697.846 C 1090.09 695.38 1086.01 691.635 1083.77 687.55 L 1084.38 685.479 L 1104.58 713.128 L 1085.48 713.179 z" fill="rgb(253,220,166)" transform="translate(0,0)"></path>
<path d="M 1023.36 1314.77 C 1026 1315.96 1086.69 1375.98 1093.35 1383.17 C 1071.33 1404.92 1047.09 1425.51 1024.96 1447.65 C 1021.58 1446.11 963.193 1390.2 955.266 1383.05 C 977.796 1360.12 1000.49 1337.36 1023.36 1314.77 z" fill="rgb(244,155,78)" transform="translate(0,0)"></path>
<path d="M 550.511 477.116 C 550.26 481.5 551.064 482.579 552.533 486.813 L 553.005 488.211 C 553.974 491.026 554.065 491.848 556.472 493.704 C 560.225 493.615 568.348 483.966 572.662 480.727 L 575.096 480.797 C 572.463 484.319 552.513 501.215 547.9 505.286 C 533.072 518.37 519.77 530.601 506.743 545.538 C 415.615 650.032 366.552 749.168 333.661 882.947 C 327.465 883.466 321.545 883.723 315.34 883.986 C 321.898 856.389 328.341 828.892 336.98 801.858 C 369.509 700.404 423.962 607.351 496.479 529.298 C 513.645 510.903 532.001 494.104 550.511 477.116 z" fill="url(#Gradient2)" transform="translate(0,0)"></path>
<path d="M 600.904 954.029 C 602.515 957.339 602.866 967.818 603.607 972.35 C 605.844 986.023 615.216 1000.57 623.141 1011.6 C 594.063 1013.62 548.849 1021.25 519.233 1025.77 L 498.68 1028.57 C 524.929 1002.14 568.447 971.928 600.904 954.029 z" fill="rgb(230,100,83)" transform="translate(0,0)"></path>
<path d="M 1443.04 957.61 C 1474.66 978.4 1506.75 998.486 1538.1 1019.67 C 1543.2 1023.12 1549.91 1027.12 1554.33 1031.24 C 1539.73 1029.88 1520.16 1025.88 1505.45 1023.33 C 1484.37 1019.72 1463.24 1016.36 1442.08 1013.24 C 1442.28 994.697 1442.59 976.152 1443.04 957.61 z" fill="rgb(230,100,83)" transform="translate(0,0)"></path>
<path d="M 1348.17 843.339 C 1357.94 843.008 1366.21 850.5 1366.84 860.257 C 1367.47 870.014 1360.23 878.507 1350.5 879.436 C 1343.93 880.063 1337.54 877.066 1333.83 871.615 C 1330.11 866.164 1329.66 859.123 1332.64 853.239 C 1335.63 847.356 1341.57 843.562 1348.17 843.339 z" fill="rgb(254,244,208)" transform="translate(0,0)"></path>
<path d="M 1483.94 836.214 C 1493.49 833.777 1503.2 839.575 1505.59 849.14 C 1507.97 858.706 1502.12 868.386 1492.54 870.718 C 1483.04 873.033 1473.45 867.236 1471.08 857.745 C 1468.72 848.254 1474.46 838.633 1483.94 836.214 z" fill="rgb(254,244,208)" transform="translate(0,0)"></path>
<path d="M 880.619 537.581 C 886.859 535.975 893.48 537.884 897.907 542.567 C 902.334 547.25 903.868 553.968 901.914 560.108 C 899.96 566.249 894.826 570.844 888.507 572.108 C 879.098 573.99 869.9 568.037 867.763 558.682 C 865.626 549.328 871.326 539.972 880.619 537.581 z" fill="rgb(254,244,208)" transform="translate(0,0)"></path>
<path d="M 1430.3 632.575 C 1439.83 631.811 1448.2 638.853 1449.08 648.371 C 1449.96 657.89 1443.02 666.348 1433.52 667.346 C 1427.26 668.003 1421.14 665.245 1417.48 660.126 C 1413.83 655.007 1413.21 648.318 1415.86 642.615 C 1418.51 636.912 1424.03 633.077 1430.3 632.575 z" fill="rgb(254,244,208)" transform="translate(0,0)"></path>
<path d="M 600.461 634.385 C 609.96 633.575 618.325 640.6 619.17 650.096 C 620.015 659.592 613.022 667.984 603.529 668.864 C 593.986 669.749 585.541 662.71 584.691 653.164 C 583.842 643.618 590.912 635.199 600.461 634.385 z" fill="rgb(254,244,208)" transform="translate(0,0)"></path>
<path d="M 686.086 563.28 C 695.376 561.128 704.639 566.959 706.717 576.266 C 708.795 585.572 702.891 594.789 693.568 596.793 C 684.349 598.775 675.257 592.951 673.202 583.748 C 671.147 574.545 676.899 565.407 686.086 563.28 z" fill="rgb(254,244,208)" transform="translate(0,0)"></path>
<path d="M 543.035 839.288 C 549.018 837.815 555.33 839.691 559.537 844.193 C 563.744 848.694 565.19 855.118 563.317 860.988 C 561.444 866.858 556.545 871.258 550.509 872.491 C 541.428 874.346 532.532 868.594 530.497 859.552 C 528.462 850.51 534.036 841.502 543.035 839.288 z" fill="rgb(254,244,208)" transform="translate(0,0)"></path>
<path d="M 810.372 620.709 C 819.575 620.046 827.618 626.868 828.463 636.056 C 829.308 645.245 822.646 653.42 813.476 654.447 C 807.381 655.129 801.393 652.465 797.82 647.48 C 794.247 642.496 793.646 635.969 796.25 630.416 C 798.854 624.863 804.255 621.15 810.372 620.709 z" fill="rgb(254,244,208)" transform="translate(0,0)"></path>
<path d="M 680.514 839.491 C 689.299 837.462 698.054 842.986 700.005 851.789 C 701.956 860.593 696.355 869.298 687.535 871.172 C 678.824 873.022 670.25 867.506 668.323 858.811 C 666.396 850.117 671.836 841.494 680.514 839.491 z" fill="rgb(254,244,208)" transform="translate(0,0)"></path>
<path d="M 1222.15 623.454 C 1231.04 622.839 1238.75 629.527 1239.39 638.41 C 1240.03 647.292 1233.37 655.02 1224.49 655.69 C 1215.57 656.363 1207.8 649.663 1207.15 640.742 C 1206.51 631.821 1213.23 624.073 1222.15 623.454 z" fill="rgb(254,244,208)" transform="translate(0,0)"></path>
<path d="M 1239.78 800.664 C 1245.11 799.284 1250.77 800.914 1254.56 804.919 C 1258.34 808.924 1259.65 814.67 1257.97 819.917 C 1256.29 825.165 1251.89 829.083 1246.48 830.145 C 1238.46 831.722 1230.63 826.633 1228.82 818.659 C 1227 810.684 1231.86 802.712 1239.78 800.664 z" fill="rgb(254,244,208)" transform="translate(0,0)"></path>
<path d="M 795.056 798.103 C 813.995 795.522 826.043 815.835 805.996 826.051 C 798.861 826.475 792.768 826.065 788.028 819.906 C 785.723 816.967 784.845 813.156 785.632 809.505 C 786.885 803.566 790.326 801.185 795.056 798.103 z" fill="rgb(254,244,208)" transform="translate(0,0)"></path>
<path d="M 1402.14 749.816 C 1410.04 749.16 1417.03 754.89 1417.93 762.76 C 1418.84 770.63 1413.33 777.796 1405.49 778.949 C 1400.2 779.728 1394.9 777.561 1391.67 773.296 C 1388.43 769.031 1387.78 763.345 1389.96 758.457 C 1392.14 753.57 1396.81 750.258 1402.14 749.816 z" fill="rgb(254,244,208)" transform="translate(0,0)"></path>
<path d="M 1507.48 720.023 C 1514.39 718.713 1521.09 723.087 1522.68 729.934 C 1524.27 736.78 1520.17 743.658 1513.39 745.518 C 1508.76 746.79 1503.8 745.423 1500.47 741.956 C 1497.15 738.489 1495.99 733.48 1497.45 728.903 C 1498.91 724.327 1502.76 720.919 1507.48 720.023 z" fill="rgb(254,244,208)" transform="translate(0,0)"></path>
<path d="M 779.506 499.563 C 786.16 497.472 793.26 501.113 795.444 507.737 C 797.629 514.361 794.088 521.511 787.495 523.788 C 783.148 525.29 778.328 524.335 774.882 521.288 C 771.436 518.241 769.897 513.575 770.855 509.077 C 771.812 504.578 775.118 500.943 779.506 499.563 z" fill="rgb(254,244,208)" transform="translate(0,0)"></path>
<path d="M 1289.79 697.398 C 1294.09 695.99 1298.82 697.052 1302.11 700.165 C 1305.39 703.278 1306.71 707.941 1305.53 712.312 C 1304.36 716.683 1300.88 720.058 1296.48 721.105 C 1290.05 722.633 1283.56 718.819 1281.76 712.458 C 1279.97 706.098 1283.51 699.454 1289.79 697.398 z" fill="rgb(254,244,208)" transform="translate(0,0)"></path>
<path d="M 627.937 748.678 C 631.962 746.736 636.728 747.161 640.345 749.785 C 643.962 752.408 645.846 756.807 645.249 761.235 C 644.653 765.664 641.673 769.407 637.49 770.98 C 631.411 773.267 624.609 770.366 622.052 764.396 C 619.495 758.426 622.088 751.5 627.937 748.678 z" fill="rgb(254,244,208)" transform="translate(0,0)"></path>
<path d="M 936.177 612.279 C 942.451 610.299 949.147 613.75 951.176 620.008 C 953.205 626.267 949.806 632.99 943.563 635.067 C 937.252 637.167 930.438 633.723 928.387 627.395 C 926.336 621.067 929.833 614.281 936.177 612.279 z" fill="rgb(254,244,208)" transform="translate(0,0)"></path>
<path d="M 1113.49 612.57 C 1119.72 612.053 1125.25 616.523 1126.05 622.717 C 1126.85 628.911 1122.64 634.639 1116.49 635.721 C 1112.25 636.467 1107.95 634.824 1105.28 631.445 C 1102.62 628.066 1102.03 623.498 1103.75 619.553 C 1105.46 615.608 1109.21 612.926 1113.49 612.57 z" fill="rgb(254,244,208)" transform="translate(0,0)"></path>
<path d="M 528.181 725.567 C 534.483 724.431 540.519 728.597 541.691 734.891 C 542.863 741.186 538.732 747.246 532.444 748.454 C 526.105 749.672 519.985 745.5 518.803 739.154 C 517.621 732.808 521.829 726.712 528.181 725.567 z" fill="rgb(254,244,208)" transform="translate(0,0)"></path>
<path d="M 747.642 698.384 C 751.819 697.926 755.916 699.774 758.337 703.209 C 760.758 706.644 761.121 711.123 759.286 714.904 C 757.45 718.684 753.705 721.168 749.509 721.39 C 743.268 721.719 737.898 717.023 737.393 710.794 C 736.887 704.565 741.43 699.065 747.642 698.384 z" fill="rgb(254,244,208)" transform="translate(0,0)"></path>
<path d="M 1152.17 708.66 C 1158.16 706.546 1164.73 709.673 1166.87 715.656 C 1169.01 721.639 1165.91 728.226 1159.93 730.39 C 1153.93 732.566 1147.29 729.443 1145.14 723.425 C 1142.99 717.408 1146.14 710.787 1152.17 708.66 z" fill="rgb(254,244,208)" transform="translate(0,0)"></path>
<path d="M 880.34 706.292 C 886.541 704.794 892.776 708.635 894.226 714.848 C 895.676 721.06 891.786 727.265 885.563 728.667 C 879.407 730.054 873.284 726.216 871.85 720.07 C 870.416 713.925 874.206 707.773 880.34 706.292 z" fill="rgb(254,244,208)" transform="translate(0,0)"></path>
<path d="M 757.468 911.466 C 763.176 909.673 769.273 912.761 771.206 918.424 C 773.138 924.087 770.2 930.257 764.586 932.328 C 760.83 933.712 756.619 932.953 753.584 930.343 C 750.549 927.733 749.167 923.683 749.974 919.762 C 750.781 915.841 753.649 912.666 757.468 911.466 z" fill="rgb(254,244,208)" transform="translate(0,0)"></path>
<path d="M 1281.24 911.19 C 1286.3 909.678 1291.65 912.439 1293.34 917.438 C 1295.04 922.438 1292.48 927.883 1287.54 929.761 C 1284.19 931.039 1280.4 930.381 1277.67 928.046 C 1274.94 925.711 1273.71 922.072 1274.45 918.558 C 1275.2 915.045 1277.8 912.219 1281.24 911.19 z" fill="rgb(254,244,208)" transform="translate(0,0)"></path>
<path d="M 1157.21 1334.62 C 1161.74 1333.5 1166.33 1336.23 1167.5 1340.75 C 1168.68 1345.27 1166 1349.89 1161.5 1351.12 C 1158.54 1351.93 1155.37 1351.08 1153.2 1348.9 C 1151.04 1346.73 1150.21 1343.55 1151.04 1340.59 C 1151.87 1337.64 1154.23 1335.35 1157.21 1334.62 z" fill="rgb(246,238,224)" transform="translate(0,0)"></path>
<path d="M 665.652 941.511 C 668.54 940.602 671.695 941.323 673.902 943.397 C 676.109 945.471 677.025 948.574 676.297 951.514 C 675.569 954.454 673.312 956.772 670.392 957.577 C 665.989 958.791 661.424 956.253 660.132 951.872 C 658.839 947.491 661.294 942.882 665.652 941.511 z" fill="rgb(254,244,208)" transform="translate(0,0)"></path>
<path d="M 873.613 1334.43 C 876.331 1333.25 879.473 1333.65 881.815 1335.46 C 884.157 1337.27 885.328 1340.22 884.87 1343.14 C 884.413 1346.07 882.4 1348.51 879.617 1349.52 C 875.489 1351.02 870.915 1348.97 869.292 1344.89 C 867.668 1340.81 869.582 1336.18 873.613 1334.43 z" fill="rgb(246,238,224)" transform="translate(0,0)"></path>
<path d="M 1369.28 927.66 C 1373.26 927.122 1376.94 929.882 1377.55 933.86 C 1378.15 937.838 1375.45 941.564 1371.48 942.231 C 1368.86 942.672 1366.2 941.663 1364.53 939.593 C 1362.86 937.523 1362.43 934.712 1363.41 932.239 C 1364.4 929.767 1366.64 928.016 1369.28 927.66 z" fill="rgb(254,244,208)" transform="translate(0,0)"></path>
<path d="M 311.824 1668.83 C 320.836 1637.09 351.154 1616.25 384.014 1619.21 C 416.875 1622.17 442.98 1648.09 446.173 1680.93 C 448.845 1708.41 434.799 1734.81 410.522 1747.94 C 386.245 1761.08 356.461 1758.4 334.923 1741.13 C 313.385 1723.87 304.284 1695.38 311.824 1668.83 z" fill="rgb(61,167,144)" transform="translate(0,0)"></path>
<path d="M 311.824 1668.83 L 312.638 1670.13 C 315.941 1675.51 318.076 1681.65 321.689 1687.42 C 348.579 1730.31 411.716 1731.14 440.318 1689.76 C 442.195 1687.04 443.895 1683.19 446.173 1680.93 C 448.845 1708.41 434.799 1734.81 410.522 1747.94 C 386.245 1761.08 356.461 1758.4 334.923 1741.13 C 313.385 1723.87 304.284 1695.38 311.824 1668.83 z" fill="rgb(11,108,101)" transform="translate(0,0)"></path>
<path d="M 1597.47 328.719 C 1610.83 303.122 1639.06 288.936 1667.57 293.49 C 1696.09 298.044 1718.49 320.318 1723.22 348.803 C 1728 377.636 1713.58 406.249 1687.56 419.557 C 1661.54 432.866 1629.89 427.812 1609.31 407.06 C 1588.73 386.309 1583.94 354.627 1597.47 328.719 z" fill="rgb(61,167,144)" transform="translate(0,0)"></path>
<path d="M 1597.47 328.719 C 1600.54 345.886 1603.36 358.286 1616.4 370.171 C 1646.28 397.396 1697.14 391.808 1718.15 356.558 C 1719.03 355.078 1722.37 349.707 1723.22 348.803 C 1728 377.636 1713.58 406.249 1687.56 419.557 C 1661.54 432.866 1629.89 427.812 1609.31 407.06 C 1588.73 386.309 1583.94 354.627 1597.47 328.719 z" fill="url(#Gradient1)" transform="translate(0,0)"></path>
<path d="M 1642.68 1596.8 C 1657.62 1551.64 1723.3 1553.58 1732.56 1602.07 C 1736.79 1624.86 1729.82 1647.79 1708.4 1659.44 C 1696.58 1665.91 1682.62 1667.24 1669.8 1663.11 C 1657.67 1658.98 1647.67 1650.21 1641.99 1638.72 C 1634.44 1623.36 1637.56 1611.65 1642.68 1596.8 z" fill="rgb(244,155,78)" transform="translate(0,0)"></path>
<path d="M 1642.68 1596.8 C 1643.56 1624.77 1658.21 1648.15 1688.92 1647.25 C 1701.46 1646.84 1713.25 1641.19 1721.42 1631.66 C 1731.6 1619.92 1727.88 1611.77 1732.56 1602.07 C 1736.79 1624.86 1729.82 1647.79 1708.4 1659.44 C 1696.58 1665.91 1682.62 1667.24 1669.8 1663.11 C 1657.67 1658.98 1647.67 1650.21 1641.99 1638.72 C 1634.44 1623.36 1637.56 1611.65 1642.68 1596.8 z" fill="rgb(171,105,65)" transform="translate(0,0)"></path>
<path d="M 327.062 403.667 C 334.012 383.248 354.03 370.235 375.512 372.17 C 396.994 374.106 414.364 390.487 417.552 411.819 C 420.418 430.991 411.155 449.942 394.268 459.458 C 377.38 468.974 356.372 467.082 341.457 454.7 C 326.542 442.318 320.816 422.017 327.062 403.667 z" fill="rgb(244,155,78)" transform="translate(0,0)"></path>
<path d="M 327.062 403.667 C 332.824 434.589 349.223 450.767 382.921 445.598 C 402.434 442.606 411.352 429.394 417.552 411.819 C 420.418 430.991 411.155 449.942 394.268 459.458 C 377.38 468.974 356.372 467.082 341.457 454.7 C 326.542 442.318 320.816 422.017 327.062 403.667 z" fill="rgb(171,105,65)" transform="translate(0,0)"></path>
<path d="M 1844.83 615.882 C 1857.02 613.993 1868.46 622.232 1870.54 634.387 C 1872.61 646.541 1864.55 658.111 1852.43 660.371 C 1844.42 661.863 1836.23 658.926 1830.99 652.684 C 1825.76 646.443 1824.3 637.866 1827.16 630.242 C 1830.03 622.618 1836.78 617.13 1844.83 615.882 z" fill="rgb(61,167,144)" transform="translate(0,0)"></path>
<path d="M 283.672 1533.65 C 295.499 1530.46 307.676 1537.44 310.917 1549.25 C 314.158 1561.06 307.245 1573.27 295.449 1576.57 C 283.57 1579.89 271.256 1572.92 267.992 1561.03 C 264.729 1549.13 271.761 1536.85 283.672 1533.65 z" fill="rgb(203,52,55)" transform="translate(0,0)"></path>
<path d="M 1511.23 240.731 C 1522.91 238.691 1534.05 246.407 1536.25 258.049 C 1538.45 269.692 1530.89 280.941 1519.27 283.298 C 1511.62 284.851 1503.72 282.165 1498.6 276.267 C 1493.49 270.37 1491.94 262.173 1494.55 254.815 C 1497.17 247.456 1503.54 242.075 1511.23 240.731 z" fill="rgb(203,52,55)" transform="translate(0,0)"></path>
<path d="M 229.768 501.336 C 241.057 497.457 253.348 503.498 257.174 514.806 C 260.999 526.113 254.901 538.376 243.575 542.148 C 232.325 545.895 220.162 539.845 216.362 528.613 C 212.562 517.381 218.554 505.189 229.768 501.336 z" fill="rgb(61,167,144)" transform="translate(0,0)"></path>
<path d="M 196.112 685.159 C 199.92 684.846 203.961 684.434 207.409 686.144 C 212.327 688.58 216.078 692.865 217.843 698.061 C 221.802 709.914 215.148 720.348 203.643 724.021 C 194.465 724.115 186.808 721.902 182.847 712.78 C 180.739 707.818 180.693 702.221 182.721 697.225 C 185.637 690.006 189.427 687.951 196.112 685.159 z" fill="rgb(244,155,78)" transform="translate(0,0)"></path>
<path d="M 582.444 1761.05 C 601.286 1759.98 616.099 1785.43 591.25 1797.5 C 566.897 1801.74 559.534 1774.28 582.444 1761.05 z" fill="rgb(61,167,144)" transform="translate(0,0)"></path>
<path d="M 1753.36 507.51 C 1759.35 505.42 1766 506.712 1770.76 510.894 C 1775.53 515.076 1777.68 521.5 1776.39 527.709 C 1775.1 533.918 1770.56 538.951 1764.52 540.885 C 1755.35 543.82 1745.53 538.839 1742.47 529.708 C 1739.42 520.576 1744.27 510.685 1753.36 507.51 z" fill="rgb(244,155,78)" transform="translate(0,0)"></path>
<path d="M 727.475 171.836 C 736.663 170.948 744.839 177.656 745.763 186.84 C 746.688 196.024 740.012 204.227 730.832 205.188 C 721.6 206.154 713.341 199.433 712.412 190.197 C 711.482 180.961 718.236 172.729 727.475 171.836 z" fill="rgb(35,43,72)" transform="translate(0,0)"></path>
<path d="M 1806.01 1398.58 C 1811.77 1397.35 1817.75 1399.32 1821.66 1403.73 C 1825.57 1408.15 1826.81 1414.32 1824.91 1419.9 C 1823 1425.48 1818.24 1429.6 1812.45 1430.69 C 1803.63 1432.36 1795.11 1426.62 1793.35 1417.82 C 1791.58 1409.02 1797.23 1400.44 1806.01 1398.58 z" fill="rgb(35,43,72)" transform="translate(0,0)"></path>
<path d="M 1204.6 1843.55 C 1210.27 1841.95 1216.36 1843.56 1220.49 1847.75 C 1224.63 1851.94 1226.16 1858.05 1224.49 1863.69 C 1222.82 1869.34 1218.21 1873.63 1212.46 1874.89 C 1203.92 1876.76 1195.44 1871.51 1193.32 1863.03 C 1191.2 1854.56 1196.19 1845.93 1204.6 1843.55 z" fill="rgb(61,167,144)" transform="translate(0,0)"></path>
<path d="M 1376.48 217.54 C 1384.79 214.695 1393.83 219.046 1396.8 227.307 C 1399.76 235.569 1395.54 244.68 1387.33 247.764 C 1381.9 249.799 1375.81 248.756 1371.37 245.035 C 1366.93 241.313 1364.84 235.489 1365.9 229.794 C 1366.96 224.099 1371 219.417 1376.48 217.54 z" fill="rgb(61,167,144)" transform="translate(0,0)"></path>
<path d="M 494.399 306.899 C 500.46 307.369 505.588 309.935 508.442 315.579 C 510.194 319.072 510.425 323.135 509.079 326.804 C 507.168 331.91 503.875 333.635 499.224 335.716 C 479.835 334.691 477.184 315.411 494.399 306.899 z" fill="rgb(171,105,65)" transform="translate(0,0)"></path>
<path d="M 1581.86 1714.8 C 1599.81 1714.15 1605.97 1731.14 1590.23 1741.77 C 1572.66 1744.41 1568.41 1725.95 1581.86 1714.8 z" fill="rgb(203,52,55)" transform="translate(0,0)"></path>
<metadata><recraft-signature>{"signed_by": "recraft", "signature_b64": "P1ZP2HaepIiqjM4W/0mPqbO6AnmACU4JGW+UnBG+kWeTS0bfJ6WsEtw0G2xcdngDKkN59+UozwFXYN7GgkJXAg==", "signing_algo": "Ed25519", "generation_timestamp": 1783499169, "identifier": "f6d8cf23-f166-48ce-aeb3-0b847d48db57"}</recraft-signature></metadata></svg>