<svg xmlns="http://www.w3.org/2000/svg" height="1024" preserveAspectRatio="none" style="display: block;" version="1.1" viewBox="0 0 2048 2048" width="1024">
<defs>
	<linearGradient gradientUnits="userSpaceOnUse" id="Gradient1" x1="1524.37" x2="1548.55" y1="982.633" y2="767.594">
		<stop class="stop0" offset="0" stop-color="rgb(0,115,75)" stop-opacity="1"></stop>
		<stop class="stop1" offset="1" stop-color="rgb(31,186,132)" stop-opacity="1"></stop>
	</linearGradient>
	<linearGradient gradientUnits="userSpaceOnUse" id="Gradient2" x1="325.068" x2="357.675" y1="1000.43" y2="922.203">
		<stop class="stop0" offset="0" stop-color="rgb(6,44,45)" stop-opacity="1"></stop>
		<stop class="stop1" offset="1" stop-color="rgb(34,178,123)" stop-opacity="1"></stop>
	</linearGradient>
	<linearGradient gradientUnits="userSpaceOnUse" id="Gradient3" x1="406.676" x2="222.067" y1="1049.43" y2="882.743">
		<stop class="stop0" offset="0" stop-color="rgb(1,83,61)" stop-opacity="1"></stop>
		<stop class="stop1" offset="1" stop-color="rgb(59,219,153)" stop-opacity="1"></stop>
	</linearGradient>
	<linearGradient gradientUnits="userSpaceOnUse" id="Gradient4" x1="1715.71" x2="1704.24" y1="981.659" y2="966.162">
		<stop class="stop0" offset="0" stop-color="rgb(22,59,60)" stop-opacity="1"></stop>
		<stop class="stop1" offset="1" stop-color="rgb(8,76,66)" stop-opacity="1"></stop>
	</linearGradient>
	<linearGradient gradientUnits="userSpaceOnUse" id="Gradient5" x1="1655.9" x2="1801.06" y1="1065.91" y2="866.158">
		<stop class="stop0" offset="0" stop-color="rgb(0,83,57)" stop-opacity="1"></stop>
		<stop class="stop1" offset="1" stop-color="rgb(60,221,157)" stop-opacity="1"></stop>
	</linearGradient>
	<linearGradient gradientUnits="userSpaceOnUse" id="Gradient6" x1="1654.82" x2="1657.09" y1="927.332" y2="826.12">
		<stop class="stop0" offset="0" stop-color="rgb(4,101,71)" stop-opacity="1"></stop>
		<stop class="stop1" offset="1" stop-color="rgb(26,170,115)" stop-opacity="1"></stop>
	</linearGradient>
	<linearGradient gradientUnits="userSpaceOnUse" id="Gradient7" x1="1659.8" x2="1661.93" y1="799.326" y2="656.969">
		<stop class="stop0" offset="0" stop-color="rgb(52,190,132)" stop-opacity="1"></stop>
		<stop class="stop1" offset="1" stop-color="rgb(129,219,164)" stop-opacity="1"></stop>
	</linearGradient>
	<linearGradient gradientUnits="userSpaceOnUse" id="Gradient8" x1="1518.81" x2="1744.12" y1="1126.18" y2="1159.26">
		<stop class="stop0" offset="0" stop-color="rgb(0,23,41)" stop-opacity="1"></stop>
		<stop class="stop1" offset="1" stop-color="rgb(9,73,70)" stop-opacity="1"></stop>
	</linearGradient>
	<linearGradient gradientUnits="userSpaceOnUse" id="Gradient9" x1="1576.64" x2="1756.42" y1="1232.08" y2="1031.69">
		<stop class="stop0" offset="0" stop-color="rgb(1,90,67)" stop-opacity="1"></stop>
		<stop class="stop1" offset="1" stop-color="rgb(38,202,140)" stop-opacity="1"></stop>
	</linearGradient>
	<linearGradient gradientUnits="userSpaceOnUse" id="Gradient10" x1="505.653" x2="241.01" y1="1160.95" y2="1107.76">
		<stop class="stop0" offset="0" stop-color="rgb(6,82,65)" stop-opacity="1"></stop>
		<stop class="stop1" offset="1" stop-color="rgb(51,217,148)" stop-opacity="1"></stop>
	</linearGradient>
	<linearGradient gradientUnits="userSpaceOnUse" id="Gradient11" x1="513.292" x2="416.067" y1="943.907" y2="1001.41">
		<stop class="stop0" offset="0" stop-color="rgb(15,55,56)" stop-opacity="1"></stop>
		<stop class="stop1" offset="1" stop-color="rgb(14,126,94)" stop-opacity="1"></stop>
	</linearGradient>
	<linearGradient gradientUnits="userSpaceOnUse" id="Gradient12" x1="415.881" x2="360.136" y1="931.175" y2="659.904">
		<stop class="stop0" offset="0" stop-color="rgb(8,110,80)" stop-opacity="1"></stop>
		<stop class="stop1" offset="1" stop-color="rgb(70,225,159)" stop-opacity="1"></stop>
	</linearGradient>
	<linearGradient gradientUnits="userSpaceOnUse" id="Gradient13" x1="1054.42" x2="1111.16" y1="825.784" y2="723.717">
		<stop class="stop0" offset="0" stop-color="rgb(243,116,56)" stop-opacity="1"></stop>
		<stop class="stop1" offset="1" stop-color="rgb(252,189,114)" stop-opacity="1"></stop>
	</linearGradient>
	<linearGradient gradientUnits="userSpaceOnUse" id="Gradient14" x1="871.341" x2="871.651" y1="780.242" y2="742.733">
		<stop class="stop0" offset="0" stop-color="rgb(253,214,162)" stop-opacity="1"></stop>
		<stop class="stop1" offset="1" stop-color="rgb(245,230,193)" stop-opacity="1"></stop>
	</linearGradient>
	<linearGradient gradientUnits="userSpaceOnUse" id="Gradient15" x1="901.23" x2="1056.58" y1="701.297" y2="899.911">
		<stop class="stop0" offset="0" stop-color="rgb(240,103,58)" stop-opacity="1"></stop>
		<stop class="stop1" offset="1" stop-color="rgb(177,80,67)" stop-opacity="1"></stop>
	</linearGradient>
	<linearGradient gradientUnits="userSpaceOnUse" id="Gradient16" x1="1019.1" x2="1023.26" y1="473.751" y2="378.483">
		<stop class="stop0" offset="0" stop-color="rgb(232,114,65)" stop-opacity="1"></stop>
		<stop class="stop1" offset="1" stop-color="rgb(242,194,134)" stop-opacity="1"></stop>
	</linearGradient>
	<linearGradient gradientUnits="userSpaceOnUse" id="Gradient17" x1="588.625" x2="523.553" y1="1077.6" y2="907.272">
		<stop class="stop0" offset="0" stop-color="rgb(10,89,72)" stop-opacity="1"></stop>
		<stop class="stop1" offset="1" stop-color="rgb(23,175,118)" stop-opacity="1"></stop>
	</linearGradient>
	<linearGradient gradientUnits="userSpaceOnUse" id="Gradient18" x1="1092.78" x2="986.915" y1="1230.05" y2="399.589">
		<stop class="stop0" offset="0" stop-color="rgb(6,32,42)" stop-opacity="1"></stop>
		<stop class="stop1" offset="1" stop-color="rgb(49,81,92)" stop-opacity="1"></stop>
	</linearGradient>
</defs>
<path d="M 0 0 L 2048 0 L 2048 2048 L 0 2048 L 0 0 z" fill="rgb(246,243,237)" transform="translate(0,0)"></path>
<path d="M 414.045 1241.66 C 447.313 1235.92 480.44 1227.99 513.823 1222.7 C 553.737 1216.38 593.389 1208.45 633.382 1202.68 C 863.269 1168.46 1096.6 1163.95 1327.64 1189.23 C 1394.85 1197.18 1461.85 1206.83 1528.58 1218.16 C 1564.41 1224.32 1594.5 1231.64 1631.68 1237.01 C 1628.35 1250 1625.78 1263.18 1623.97 1276.47 C 1641.51 1280.94 1668.77 1287.37 1686.5 1290.49 L 1745.48 1304.22 C 1756.2 1306.73 1772.56 1310.24 1782.83 1313.8 C 1766.74 1325.8 1750.6 1337.99 1734.82 1350.39 C 1724.04 1358.86 1706.7 1369.77 1697.39 1378.81 C 1709.78 1407.51 1735.92 1447.33 1751.31 1476.53 C 1715.71 1468.08 1681.17 1461.07 1645.65 1453.17 C 1618.9 1446.81 1589.84 1439.49 1562.79 1435.68 C 1561.15 1436.56 1560.45 1436.45 1560.32 1437.95 C 1559.15 1451.41 1559.88 1468.91 1560.08 1482.2 C 1525.1 1501.92 1492.23 1522.36 1457.7 1542.51 L 1187.83 1701.28 L 1078.76 1765.47 C 1064.27 1774.05 1036.83 1791.92 1023.03 1798.1 C 977.39 1773.74 930.636 1742.93 885.493 1717.17 C 829.991 1685.49 774.979 1652.68 719.686 1620.75 L 577.579 1538.24 C 555.075 1525.67 532.773 1512.75 510.683 1499.47 C 504.237 1495.64 491.322 1488.76 485.758 1484.83 C 485.872 1476.91 486.157 1444.43 485.053 1438.05 L 483.089 1436.89 C 469.248 1439.98 455.348 1442.8 441.397 1445.36 C 435.005 1446.53 420.956 1448.7 415.311 1450.39 L 302.544 1470.92 C 310.809 1450.72 338.375 1396.85 349.767 1378.76 C 319.887 1356.58 288.746 1334.77 259.294 1312.49 C 288.26 1305.12 325.522 1299.61 356.174 1292.77 C 375.163 1289.84 400.35 1284.41 419.22 1280.32 C 420.761 1278.01 414.952 1247.18 414.045 1241.66 z" fill="rgb(208,95,66)" transform="translate(0,0)"></path>
<path d="M 571.659 1395.5 C 586.885 1393.38 602.288 1390.75 617.504 1388.98 C 622.893 1394.42 631.193 1398.78 637.349 1403.59 C 658.753 1420.8 683.299 1432.26 706.288 1446.7 C 729.517 1461.29 754.076 1473.62 777.392 1487.77 C 821.837 1514.74 867.072 1540.23 911.751 1566.76 C 916.958 1569.85 945.99 1585.15 948.312 1588.13 C 948.576 1588.83 948.84 1589.52 949.104 1590.21 C 969.79 1602.99 990.918 1615.1 1011.9 1627.37 C 1015.56 1629.51 1018.12 1630.78 1021.74 1632.56 C 1023.76 1633.55 1023.58 1635.75 1023.64 1637.41 C 1018.28 1636.8 1012.67 1631.04 1005.24 1629.06 C 1009.55 1632.61 1019.7 1638.23 1025.05 1640.96 C 1024.99 1662.29 1025.52 1687.21 1024.74 1708.26 C 1172.41 1623.53 1319.5 1537.79 1465.99 1451.04 C 1466.02 1432.98 1462.92 1414.15 1462.63 1395.37 C 1486.45 1399.32 1510.2 1403.67 1533.88 1408.41 C 1542.4 1410.08 1556.02 1412.25 1563.75 1414.31 C 1562.76 1417.93 1561.55 1431.88 1562.71 1435.17 L 1562.79 1435.68 C 1561.15 1436.56 1560.45 1436.45 1560.32 1437.95 C 1559.15 1451.41 1559.88 1468.91 1560.08 1482.2 C 1525.1 1501.92 1492.23 1522.36 1457.7 1542.51 L 1187.83 1701.28 L 1078.76 1765.47 C 1064.27 1774.05 1036.83 1791.92 1023.03 1798.1 C 977.39 1773.74 930.636 1742.93 885.493 1717.17 C 829.991 1685.49 774.979 1652.68 719.686 1620.75 L 577.579 1538.24 C 555.075 1525.67 532.773 1512.75 510.683 1499.47 C 504.237 1495.64 491.322 1488.76 485.758 1484.83 C 512.493 1474.18 547.718 1453.54 572.023 1444.93 C 570.443 1431.5 571.12 1409.15 571.659 1395.5 z" fill="rgb(7,29,46)" transform="translate(0,0)"></path>
<path d="M 571.659 1395.5 C 586.885 1393.38 602.288 1390.75 617.504 1388.98 C 622.893 1394.42 631.193 1398.78 637.349 1403.59 C 658.753 1420.8 683.299 1432.26 706.288 1446.7 C 729.517 1461.29 754.076 1473.62 777.392 1487.77 C 821.837 1514.74 867.072 1540.23 911.751 1566.76 C 916.958 1569.85 945.99 1585.15 948.312 1588.13 C 948.576 1588.83 948.84 1589.52 949.104 1590.21 C 969.79 1602.99 990.918 1615.1 1011.9 1627.37 C 1015.56 1629.51 1018.12 1630.78 1021.74 1632.56 C 1023.76 1633.55 1023.58 1635.75 1023.64 1637.41 C 1018.28 1636.8 1012.67 1631.04 1005.24 1629.06 C 1009.55 1632.61 1019.7 1638.23 1025.05 1640.96 C 1024.99 1662.29 1025.52 1687.21 1024.74 1708.26 C 1019.58 1705.68 1014.49 1702.72 1009.55 1699.75 C 982.159 1683.28 954.209 1667.82 926.547 1651.84 L 711.471 1526.62 L 622.22 1473.55 C 607.125 1464.56 588.474 1452.76 573.222 1444.67 L 572.023 1444.93 C 570.443 1431.5 571.12 1409.15 571.659 1395.5 z" fill="rgb(34,142,109)" transform="translate(0,0)"></path>
<path d="M 571.659 1395.5 C 586.885 1393.38 602.288 1390.75 617.504 1388.98 C 622.893 1394.42 631.193 1398.78 637.349 1403.59 C 658.753 1420.8 683.299 1432.26 706.288 1446.7 C 729.517 1461.29 754.076 1473.62 777.392 1487.77 C 821.837 1514.74 867.072 1540.23 911.751 1566.76 C 916.958 1569.85 945.99 1585.15 948.312 1588.13 C 948.576 1588.83 948.84 1589.52 949.104 1590.21 C 969.79 1602.99 990.918 1615.1 1011.9 1627.37 C 1015.56 1629.51 1018.12 1630.78 1021.74 1632.56 C 1023.76 1633.55 1023.58 1635.75 1023.64 1637.41 C 1018.28 1636.8 1012.67 1631.04 1005.24 1629.06 C 999.62 1627.92 963.727 1605.03 957.135 1601.16 C 915.501 1576.72 872.588 1554.37 831.044 1529.78 C 793.889 1507.36 756.421 1485.47 718.651 1464.11 C 699.749 1453.3 678.783 1440.84 659.466 1431.11 C 634.994 1432.52 610.372 1438.85 586.071 1441.97 C 581.708 1442.53 577.393 1443.23 573.222 1444.67 L 572.023 1444.93 C 570.443 1431.5 571.12 1409.15 571.659 1395.5 z" fill="rgb(14,63,66)" transform="translate(0,0)"></path>
<path d="M 1050.03 1353.87 C 1062.16 1354.17 1077 1355.07 1088.83 1354.94 C 1107.87 1355.17 1137.25 1356.19 1156.02 1358.16 C 1161.08 1358.1 1173.47 1358.94 1178.35 1359.86 C 1185.94 1360.3 1211.74 1361.31 1217.05 1363.35 C 1222.92 1362.77 1249.08 1366.2 1257.32 1367.29 C 1287.72 1371.35 1324.36 1373.37 1354.07 1379.43 C 1361.47 1377.9 1422.36 1388.64 1434.27 1390.52 C 1443.74 1392.08 1453.19 1393.7 1462.63 1395.37 C 1462.92 1414.15 1466.02 1432.98 1465.99 1451.04 C 1319.5 1537.79 1172.41 1623.53 1024.74 1708.26 C 1025.52 1687.21 1024.99 1662.29 1025.05 1640.96 C 1019.7 1638.23 1009.55 1632.61 1005.24 1629.06 C 1012.67 1631.04 1018.28 1636.8 1023.64 1637.41 C 1023.58 1635.75 1023.76 1633.55 1021.74 1632.56 C 1018.12 1630.78 1015.56 1629.51 1011.9 1627.37 C 990.918 1615.1 969.79 1602.99 949.104 1590.21 C 948.84 1589.52 948.576 1588.83 948.312 1588.13 C 958.352 1594.07 1022.84 1630.62 1026.42 1635.37 C 1030.49 1633.69 1030.27 1633.8 1033.06 1630.35 L 1027.94 1632.71 L 1026.31 1632.09 C 1024.26 1616.5 1027.65 1586.44 1024.84 1573.15 C 1025.4 1546.74 1021.79 1502.2 1024.47 1478.48 L 1027.19 1476.81 C 1023.86 1473.12 1025.06 1456.11 1024.8 1449.28 L 1024.25 1449.14 C 1025.36 1442.83 1024.91 1399.38 1024.93 1390.68 L 1025.18 1390.22 C 1025.18 1378.54 1025.09 1366.86 1024.92 1355.18 C 1027.36 1353.27 1044.74 1354.1 1050.03 1353.87 z" fill="rgb(19,97,79)" transform="translate(0,0)"></path>
<path d="M 1050.03 1353.87 C 1062.16 1354.17 1077 1355.07 1088.83 1354.94 C 1107.87 1355.17 1137.25 1356.19 1156.02 1358.16 C 1161.08 1358.1 1173.47 1358.94 1178.35 1359.86 C 1185.94 1360.3 1211.74 1361.31 1217.05 1363.35 C 1222.92 1362.77 1249.08 1366.2 1257.32 1367.29 C 1287.72 1371.35 1324.36 1373.37 1354.07 1379.43 C 1310.97 1407.82 1258.55 1436.53 1213.81 1462.75 L 1107.56 1524.51 C 1080.26 1540.54 1052.31 1557.65 1024.84 1573.15 C 1025.4 1546.74 1021.79 1502.2 1024.47 1478.48 L 1027.19 1476.81 C 1023.86 1473.12 1025.06 1456.11 1024.8 1449.28 L 1024.25 1449.14 C 1025.36 1442.83 1024.91 1399.38 1024.93 1390.68 L 1025.18 1390.22 C 1025.18 1378.54 1025.09 1366.86 1024.92 1355.18 C 1027.36 1353.27 1044.74 1354.1 1050.03 1353.87 z" fill="rgb(219,218,216)" transform="translate(0,0)"></path>
<path d="M 1050.03 1353.87 C 1062.16 1354.17 1077 1355.07 1088.83 1354.94 C 1107.87 1355.17 1137.25 1356.19 1156.02 1358.16 C 1161.08 1358.1 1173.47 1358.94 1178.35 1359.86 C 1175.74 1362.64 1035.51 1444.43 1024.8 1449.28 L 1024.25 1449.14 C 1025.36 1442.83 1024.91 1399.38 1024.93 1390.68 L 1025.18 1390.22 C 1025.18 1378.54 1025.09 1366.86 1024.92 1355.18 C 1027.36 1353.27 1044.74 1354.1 1050.03 1353.87 z" fill="rgb(86,53,51)" transform="translate(0,0)"></path>
<path d="M 1050.03 1353.87 C 1062.16 1354.17 1077 1355.07 1088.83 1354.94 L 1087.04 1357.78 C 1074.91 1364.33 1035.72 1389.17 1025.18 1390.22 C 1025.18 1378.54 1025.09 1366.86 1024.92 1355.18 C 1027.36 1353.27 1044.74 1354.1 1050.03 1353.87 z" fill="rgb(7,29,46)" transform="translate(0,0)"></path>
<path d="M 1088.83 1354.94 C 1107.87 1355.17 1137.25 1356.19 1156.02 1358.16 C 1131.68 1361.05 1111.48 1358.95 1087.04 1357.78 L 1088.83 1354.94 z" fill="rgb(49,38,38)" transform="translate(0,0)"></path>
<path d="M 1178.35 1359.86 C 1185.94 1360.3 1211.74 1361.31 1217.05 1363.35 C 1188.71 1381.34 1154.33 1400.93 1125.17 1418.44 C 1099.85 1433.78 1074.35 1448.84 1048.68 1463.61 C 1041.83 1467.62 1033.78 1473.16 1027.19 1476.81 C 1023.86 1473.12 1025.06 1456.11 1024.8 1449.28 C 1035.51 1444.43 1175.74 1362.64 1178.35 1359.86 z" fill="rgb(7,29,46)" transform="translate(0,0)"></path>
<path d="M 1354.07 1379.43 C 1361.47 1377.9 1422.36 1388.64 1434.27 1390.52 L 1428.18 1397.94 L 1151.32 1560 C 1121.09 1577.59 1090.35 1594.5 1060.63 1613.08 C 1055.37 1616.37 1036.42 1627.24 1033.06 1630.35 L 1027.94 1632.71 L 1026.31 1632.09 C 1024.26 1616.5 1027.65 1586.44 1024.84 1573.15 C 1052.31 1557.65 1080.26 1540.54 1107.56 1524.51 L 1213.81 1462.75 C 1258.55 1436.53 1310.97 1407.82 1354.07 1379.43 z" fill="rgb(7,29,46)" transform="translate(0,0)"></path>
<path d="M 1428.18 1397.94 C 1429.4 1403.07 1429.19 1406.73 1429.25 1411.97 C 1363.71 1452.78 1291.23 1490.96 1224.27 1530.01 C 1184.65 1553.1 1145.24 1576.56 1106.07 1600.39 C 1079.14 1616.73 1053.62 1632.91 1026.17 1648.38 C 1026.08 1644.48 1025.72 1639.06 1026.42 1635.37 C 1030.49 1633.69 1030.27 1633.8 1033.06 1630.35 C 1036.42 1627.24 1055.37 1616.37 1060.63 1613.08 C 1090.35 1594.5 1121.09 1577.59 1151.32 1560 L 1428.18 1397.94 z" fill="rgb(14,63,66)" transform="translate(0,0)"></path>
<path d="M 899.177 1357.71 C 903.997 1355.98 962.017 1353.91 969.542 1354.18 C 976.395 1355.55 1018.55 1356.97 1024.92 1355.18 C 1025.09 1366.86 1025.18 1378.54 1025.18 1390.22 L 1024.93 1390.68 C 1024.91 1399.38 1025.36 1442.83 1024.25 1449.14 L 1024.8 1449.28 C 1025.06 1456.11 1023.86 1473.12 1027.19 1476.81 L 1024.47 1478.48 C 1021.79 1502.2 1025.4 1546.74 1024.84 1573.15 C 1027.65 1586.44 1024.26 1616.5 1026.31 1632.09 L 1027.94 1632.71 L 1033.06 1630.35 C 1030.27 1633.8 1030.49 1633.69 1026.42 1635.37 C 1022.84 1630.62 958.352 1594.07 948.312 1588.13 C 945.99 1585.15 916.958 1569.85 911.751 1566.76 C 867.072 1540.23 821.837 1514.74 777.392 1487.77 C 754.076 1473.62 729.517 1461.29 706.288 1446.7 C 683.299 1432.26 658.753 1420.8 637.349 1403.59 C 631.193 1398.78 622.893 1394.42 617.504 1388.98 C 622.419 1388.07 627.675 1387.59 632.647 1386.85 C 675.263 1380.56 717.472 1373.97 760.367 1369.71 C 765.523 1367.34 812.251 1364.65 822.218 1363.18 C 836.601 1362.52 852.684 1360.83 867.154 1359.61 L 869.899 1358.86 C 876.759 1359.24 891.815 1358.05 899.177 1357.71 z" fill="rgb(246,243,237)" transform="translate(0,0)"></path>
<path d="M 760.367 1369.71 L 761.839 1370.72 L 762.035 1371.93 C 738.328 1373.84 715.572 1377.7 693.5 1379.55 C 701.465 1386.36 723.708 1398.78 733.614 1404.6 L 825.63 1457.65 C 877.987 1488.31 929.879 1519.73 983.151 1548.87 C 994.895 1555.3 1013.74 1568.19 1024.84 1573.15 C 1027.65 1586.44 1024.26 1616.5 1026.31 1632.09 L 1027.94 1632.71 L 1033.06 1630.35 C 1030.27 1633.8 1030.49 1633.69 1026.42 1635.37 C 1022.84 1630.62 958.352 1594.07 948.312 1588.13 C 945.99 1585.15 916.958 1569.85 911.751 1566.76 C 867.072 1540.23 821.837 1514.74 777.392 1487.77 C 754.076 1473.62 729.517 1461.29 706.288 1446.7 C 683.299 1432.26 658.753 1420.8 637.349 1403.59 C 631.193 1398.78 622.893 1394.42 617.504 1388.98 C 622.419 1388.07 627.675 1387.59 632.647 1386.85 C 675.263 1380.56 717.472 1373.97 760.367 1369.71 z" fill="rgb(7,29,46)" transform="translate(0,0)"></path>
<path d="M 899.177 1357.71 C 903.997 1355.98 962.017 1353.91 969.542 1354.18 C 976.395 1355.55 1018.55 1356.97 1024.92 1355.18 C 1025.09 1366.86 1025.18 1378.54 1025.18 1390.22 L 1024.93 1390.68 C 1024.91 1399.38 1025.36 1442.83 1024.25 1449.14 L 1024.8 1449.28 C 1025.06 1456.11 1023.86 1473.12 1027.19 1476.81 L 1024.47 1478.48 C 1019.44 1473.86 1003.52 1465.12 996.669 1461.16 L 936.482 1427.14 C 906.06 1409.94 862.753 1382.76 831.932 1368.75 C 828.163 1366.79 825.718 1365.54 822.218 1363.18 C 836.601 1362.52 852.684 1360.83 867.154 1359.61 L 869.899 1358.86 C 876.759 1359.24 891.815 1358.05 899.177 1357.71 z" fill="rgb(7,29,46)" transform="translate(0,0)"></path>
<path d="M 899.177 1357.71 C 903.997 1355.98 962.017 1353.91 969.542 1354.18 C 976.395 1355.55 1018.55 1356.97 1024.92 1355.18 C 1025.09 1366.86 1025.18 1378.54 1025.18 1390.22 L 1024.93 1390.68 C 1019.12 1389.53 929.25 1392.41 923.221 1394 C 907.374 1385.23 883.8 1371.85 868.919 1362.11 C 869.644 1361.56 869.294 1361.95 869.749 1360.78 L 867.154 1359.61 L 869.899 1358.86 C 876.759 1359.24 891.815 1358.05 899.177 1357.71 z" fill="rgb(139,53,46)" transform="translate(0,0)"></path>
<path d="M 899.177 1357.71 L 898.224 1359.76 C 892.353 1360.61 875.872 1362.65 871.15 1359.64 L 869.899 1358.86 C 876.759 1359.24 891.815 1358.05 899.177 1357.71 z" fill="rgb(86,53,51)" transform="translate(0,0)"></path>
<path d="M 923.221 1394 C 929.25 1392.41 1019.12 1389.53 1024.93 1390.68 C 1024.91 1399.38 1025.36 1442.83 1024.25 1449.14 C 1018.68 1447.4 992.085 1432.77 985.86 1429.22 C 965.639 1417.66 942.782 1406.2 923.221 1394 z" fill="rgb(245,139,78)" transform="translate(0,0)"></path>
<path d="M 760.367 1369.71 C 765.523 1367.34 812.251 1364.65 822.218 1363.18 C 825.718 1365.54 828.163 1366.79 831.932 1368.75 C 814.898 1369.35 776.732 1372.93 762.035 1371.93 L 761.839 1370.72 L 760.367 1369.71 z" fill="rgb(108,115,114)" transform="translate(0,0)"></path>
<path d="M 259.294 1312.49 C 288.26 1305.12 325.522 1299.61 356.174 1292.77 C 366.148 1328.68 384.148 1347.89 400.939 1376.24 C 405.709 1384.29 412.757 1437.16 415.311 1450.39 L 302.544 1470.92 C 310.809 1450.72 338.375 1396.85 349.767 1378.76 C 319.887 1356.58 288.746 1334.77 259.294 1312.49 z" fill="rgb(208,95,66)" transform="translate(0,0)"></path>
<path d="M 1686.5 1290.49 L 1745.48 1304.22 C 1756.2 1306.73 1772.56 1310.24 1782.83 1313.8 C 1766.74 1325.8 1750.6 1337.99 1734.82 1350.39 C 1724.04 1358.86 1706.7 1369.77 1697.39 1378.81 C 1709.78 1407.51 1735.92 1447.33 1751.31 1476.53 C 1715.71 1468.08 1681.17 1461.07 1645.65 1453.17 C 1647.23 1439.68 1649.68 1425.29 1651.36 1411.63 C 1653.84 1400.52 1653.13 1381.06 1657.47 1370.99 C 1669.8 1342.42 1680.49 1321.73 1686.5 1290.49 z" fill="rgb(184,71,50)" transform="translate(0,0)"></path>
<path d="M 1623.97 1276.47 C 1641.51 1280.94 1668.77 1287.37 1686.5 1290.49 C 1680.49 1321.73 1669.8 1342.42 1657.47 1370.99 C 1653.13 1381.06 1653.84 1400.52 1651.36 1411.63 C 1649.68 1425.29 1647.23 1439.68 1645.65 1453.17 C 1618.9 1446.81 1589.84 1439.49 1562.79 1435.68 L 1562.71 1435.17 C 1561.55 1431.88 1562.76 1417.93 1563.75 1414.31 C 1574.17 1416.81 1588.24 1419.77 1598.23 1422.74 L 1599.92 1421.64 C 1605 1406.05 1610.29 1360.91 1613.8 1342.09 C 1616.19 1329.24 1623.38 1288.1 1623.97 1276.47 z" fill="rgb(139,53,46)" transform="translate(0,0)"></path>
<path d="M 1563.75 1414.31 C 1574.17 1416.81 1588.24 1419.77 1598.23 1422.74 L 1599.27 1423.74 C 1596.52 1426.18 1567.52 1434.27 1562.71 1435.17 C 1561.55 1431.88 1562.76 1417.93 1563.75 1414.31 z" fill="rgb(3,13,24)" transform="translate(0,0)"></path>
<path d="M 419.22 1280.32 C 425.378 1287.73 440.416 1410.37 446.058 1416.59 L 445.648 1418.14 C 450.496 1423.54 474.663 1432.4 483.089 1436.89 C 469.248 1439.98 455.348 1442.8 441.397 1445.36 C 435.005 1446.53 420.956 1448.7 415.311 1450.39 C 412.757 1437.16 405.709 1384.29 400.939 1376.24 C 384.148 1347.89 366.148 1328.68 356.174 1292.77 C 375.163 1289.84 400.35 1284.41 419.22 1280.32 z" fill="rgb(139,53,46)" transform="translate(0,0)"></path>
<path d="M 446.058 1416.59 C 460.643 1413.11 478.769 1410.53 493.862 1408.06 L 571.659 1395.5 C 571.12 1409.15 570.443 1431.5 572.023 1444.93 C 547.718 1453.54 512.493 1474.18 485.758 1484.83 C 485.872 1476.91 486.157 1444.43 485.053 1438.05 L 483.089 1436.89 C 474.663 1432.4 450.496 1423.54 445.648 1418.14 L 446.058 1416.59 z" fill="rgb(3,13,24)" transform="translate(0,0)"></path>
<path d="M 969.542 1354.18 C 986.505 1353.86 1035.2 1351.66 1050.03 1353.87 C 1044.74 1354.1 1027.36 1353.27 1024.92 1355.18 C 1018.55 1356.97 976.395 1355.55 969.542 1354.18 z" fill="rgb(86,53,51)" transform="translate(0,0)"></path>
<path d="M 1073.63 1223.96 C 1085.96 1224.16 1098.9 1223.88 1111.07 1225.87 C 1127.97 1228.64 1133.69 1243.51 1130.46 1258.98 C 1128.93 1266.31 1123.24 1269.35 1117.45 1273.09 C 1122.68 1282.7 1129.54 1293.66 1135.16 1303.24 L 1119.48 1302.62 L 1115.71 1301.75 C 1111.41 1297.39 1105.35 1281.49 1102.73 1275.07 L 1089.81 1275.04 L 1089.98 1301 C 1084.46 1300.88 1078.74 1300.56 1073.21 1300.33 C 1073.82 1274.88 1073.96 1249.41 1073.63 1223.96 z" fill="rgb(246,243,237)" transform="translate(0,0)"></path>
<path d="M 1090.01 1237.04 C 1106.01 1236.75 1122.6 1240.54 1113.39 1260.78 C 1105.88 1264.21 1098.08 1263.13 1089.68 1262.96 L 1090.01 1237.04 z" fill="rgb(184,71,50)" transform="translate(0,0)"></path>
<path d="M 968.778 1223.44 C 971.749 1223.27 972.259 1223.03 975.121 1223.97 C 977.541 1228.1 976.299 1232.46 975.85 1237.69 L 944.675 1239.05 L 944.776 1255.24 C 953.528 1255.07 962.278 1254.8 971.022 1254.41 L 970.894 1268.88 C 962.119 1268.61 953.721 1268.82 944.96 1269 C 944.904 1275.82 945.2 1282.63 945.433 1289.45 L 976.868 1288.1 L 978.402 1288.96 C 980.188 1292.77 979.961 1296.65 980.179 1300.94 C 963.206 1301.44 946.112 1302.52 929.012 1303.03 C 928.974 1277.33 928.164 1250.91 927.912 1225.08 C 941.525 1224.33 955.149 1223.79 968.778 1223.44 z" fill="rgb(246,243,237)" transform="translate(0,0)"></path>
<path d="M 1232.98 1231.91 C 1250.12 1233.91 1267.81 1235.6 1284.99 1237.3 L 1284.33 1249.7 C 1272.88 1249.02 1261.46 1248.01 1250.07 1246.69 C 1249.32 1252.96 1249.11 1258.44 1248.84 1264.74 C 1258.34 1265.61 1267.86 1266.39 1277.38 1267.06 C 1276.91 1271.31 1276.17 1275.96 1275.58 1280.23 C 1270.26 1279.68 1251.82 1277.13 1248.06 1279.27 C 1247.5 1285.75 1247.06 1292.24 1246.72 1298.74 C 1258.27 1299.68 1269.81 1300.7 1281.35 1301.79 L 1280.91 1315.17 C 1267.24 1312.98 1244.17 1310.62 1230.63 1309.71 C 1231.36 1283.44 1232.72 1258.29 1232.98 1231.91 z" fill="rgb(246,243,237)" transform="translate(0,0)"></path>
<path d="M 1160.72 1226.24 C 1177.1 1227.57 1193.19 1229.02 1209.64 1229.3 L 1208.4 1243.11 L 1176.93 1240.84 L 1176.11 1260.8 C 1184.8 1261.15 1193.48 1261.55 1202.15 1262.03 L 1201.86 1275.22 C 1195.62 1275.03 1180.31 1272.07 1176.08 1274.53 L 1175.69 1277.25 C 1175.2 1282.13 1175.11 1287.93 1174.91 1292.91 C 1186.06 1293.36 1197.21 1293.89 1208.35 1294.49 L 1207.99 1308.09 C 1192.46 1306.1 1174.53 1305.29 1158.9 1304.45 C 1158.69 1279.84 1159.8 1250.99 1160.72 1226.24 z" fill="rgb(246,243,237)" transform="translate(0,0)"></path>
<path d="M 814.046 1232.45 L 816.515 1232.76 C 818.422 1236.46 817.931 1240.5 817.955 1244.82 C 808.303 1246.11 797.007 1246.81 787.196 1247.65 L 787.964 1265.44 C 796.912 1265.09 805.855 1264.64 814.792 1264.07 C 814.964 1267.98 815.598 1272.24 816.085 1276.16 L 788.565 1278.17 L 789.505 1298.68 C 800.653 1298.07 811.789 1297.26 822.908 1296.25 C 823.08 1300.31 823.651 1304.91 824.058 1309 L 774.981 1313.23 C 771.979 1293.21 770.601 1257.47 769.14 1236.5 C 782.289 1234.57 800.467 1233.58 814.046 1232.45 z" fill="rgb(246,243,237)" transform="translate(0,0)"></path>
<path d="M 889.219 1226.56 C 893.992 1226.18 899.276 1226.04 904.101 1225.82 C 897.113 1252.42 887.02 1278.39 880.925 1305.05 L 868.191 1304.94 C 861.955 1290.14 854.029 1274.63 847.32 1259.7 C 842.79 1250.07 838.382 1240.38 834.096 1230.64 L 852.336 1228.87 C 859.657 1242.36 867.521 1262.97 872.194 1277.49 C 876.693 1266.01 882.303 1236.11 886.794 1227.31 L 889.219 1226.56 z" fill="rgb(246,243,237)" transform="translate(0,0)"></path>
<path d="M 996.712 1224.39 C 1012.53 1223.43 1036.22 1223.36 1051.86 1223.72 L 1051.99 1236.7 L 1033.04 1237.04 L 1032.9 1286.36 L 1032.79 1301.2 L 1015.53 1301.28 C 1015.8 1279.87 1015.95 1258.47 1015.99 1237.06 L 995.239 1237.99 C 995.014 1232.89 994.723 1229.05 996.712 1224.39 z" fill="rgb(246,243,237)" transform="translate(0,0)"></path>
<path d="M 1022.94 246.125 C 1028.17 248.911 1033.73 252.562 1038.87 255.659 C 1078.91 279.796 1119.79 302.344 1160.37 325.573 C 1197.37 346.477 1234.14 367.799 1270.66 389.536 C 1290.03 400.832 1310.1 411.445 1328.96 423.609 C 1341.85 430.246 1357.23 439.797 1369.96 447.19 L 1461.08 500.445 L 1545.04 548.533 C 1554.56 554.087 1576.42 566.014 1583.56 572.882 C 1582.16 596.697 1583.15 621.97 1582.79 645.904 C 1581.99 699.61 1584.06 755.084 1582.94 808.669 C 1554.86 777.551 1540.48 766.16 1504.54 744.628 C 1487.15 734.88 1475.17 727.455 1456.06 721.189 C 1453.48 748.44 1455.88 786.109 1455.15 814.194 C 1454.95 822.122 1455.42 857.287 1456.62 863.97 C 1467.57 880.207 1478.91 890.121 1490.63 904.536 C 1522.37 943.563 1559.79 992.054 1549.32 1045.5 C 1541.88 1083.44 1514.66 1117.85 1482.84 1138.41 C 1477.73 1141.71 1472.56 1145.38 1466.98 1147.76 L 1461.54 1150.63 C 1458.94 1152 1457.55 1152.01 1457.07 1154.66 C 1455.34 1164.25 1457.45 1173.81 1456.36 1183.53 L 1457.69 1185.73 L 1458.36 1186.94 C 1432.64 1182.94 1408.91 1179.5 1382.97 1176.1 C 1348.37 1173.76 1312.65 1166.02 1277.68 1164.94 C 1273.99 1164.83 1267.58 1164.45 1264.26 1163.46 L 1266.86 1162.79 C 1269.01 1158.34 1268.49 1101.49 1268.59 1090.73 C 1286.87 1100.77 1307.72 1110.07 1327.02 1117.93 C 1327.8 1068.08 1327.34 1016.95 1327.52 966.97 C 1345.86 971.864 1363.22 975.263 1381.79 979.077 L 1381.93 826.436 L 1381.84 774.334 C 1381.83 765.213 1381.39 751.868 1382.32 743.024 C 1369.93 735.434 1356.21 728.652 1343.39 721.536 L 1276.23 683.694 L 1094.7 580.364 C 1072.25 567.347 1043.67 552.763 1022.54 538.965 C 985.437 562.226 943.989 585.238 905.804 606.938 C 862.608 631.975 819.171 656.594 775.499 680.791 L 707.665 718.201 C 694.509 725.382 679.536 732.8 667.059 740.745 L 667.31 1023.26 C 667.384 1072.51 668.803 1128.09 667.38 1176.63 C 647.659 1179.15 631.356 1182.1 611.888 1185.59 C 612.515 1168.58 612.014 1163.87 596.804 1154.21 C 591.169 1150.88 563.714 1131.58 559.638 1127.67 C 552.583 1123.37 545.935 1118.44 539.779 1112.93 C 518.462 1093.81 498.534 1066.84 497.741 1037.39 C 496.398 987.568 522.023 932.863 554.561 896.478 C 557.16 892.553 568.655 880.422 572.127 876.649 C 581.459 866.625 590.561 856.391 599.428 845.954 L 599.545 834.409 L 591.412 841.561 C 592.434 834.769 593.324 827.959 594.085 821.133 C 594.036 816.702 594.352 811.911 594.455 807.426 C 595.106 779.225 590.528 751.616 584.114 724.223 C 569.269 730.536 554.707 737.496 540.47 745.083 C 532.036 750.914 521.497 757.132 512.71 763.156 C 490.163 778.615 481.798 790.274 465.302 811.292 L 462.998 572.235 C 484.633 557.412 517.805 539.916 541.022 526.467 C 571.969 508.54 607.622 485.718 638.935 469.425 C 655.396 458.62 681.754 444.65 699.645 434.355 L 819.564 365.113 L 969.507 277.601 C 986.268 267.906 1006.49 254.696 1022.94 246.125 z" fill="url(#Gradient18)" transform="translate(0,0)"></path>
<path d="M 1022.94 246.125 C 1028.17 248.911 1033.73 252.562 1038.87 255.659 C 1078.91 279.796 1119.79 302.344 1160.37 325.573 C 1197.37 346.477 1234.14 367.799 1270.66 389.536 C 1290.03 400.832 1310.1 411.445 1328.96 423.609 C 1321.01 422.771 1311.48 415.175 1303.67 413.678 C 1302.27 416.24 1302.11 417.291 1299.55 418.53 C 1287.37 418.201 1275.02 418.343 1262.88 417.77 C 1251.59 417.236 1237.28 414.492 1226.17 414.332 C 1212.47 414.136 1199.46 416.826 1185.15 415.141 C 1170.58 413.426 1159.26 406.437 1144.72 404.752 C 1129.87 403.061 1110.65 407.585 1097.16 400.727 C 1094.32 399.279 1095.56 398.917 1091.52 398.496 C 1088.63 393.983 1093.4 397.509 1089.04 391.275 L 1100.8 382.482 C 1087.47 381.997 1073.88 380.123 1060.46 379.336 C 1056.71 378.976 1049.55 378.755 1046.64 377.006 C 1036.86 378.556 1016.22 376.761 1004.22 377.982 C 994.83 379.467 981.658 379.466 973.805 381.018 C 964.298 380.824 958.602 381.228 949.093 382.173 C 956.936 388.53 964.885 394.756 972.936 400.847 C 965.579 402.542 964.912 404.848 959.816 410.132 C 948.057 422.323 901.963 417.758 893.384 423.448 L 891.914 418.708 L 890.558 418.186 C 888.149 420.753 884.541 431.543 882.829 435.807 C 882.442 432.148 882.513 430.867 880.937 427.469 L 879.821 426.885 C 876.291 428.038 877.814 428.284 874.959 427.251 L 876.605 424.787 C 872.604 423.494 841.355 430.215 833.907 429.856 C 827.213 429.533 812.999 439.3 804.957 441.607 C 761.489 453.763 717.543 464.144 673.23 472.724 C 663.961 474.512 649.154 468.069 638.935 469.425 C 655.396 458.62 681.754 444.65 699.645 434.355 L 819.564 365.113 L 969.507 277.601 C 986.268 267.906 1006.49 254.696 1022.94 246.125 z" fill="rgb(62,93,105)" transform="translate(0,0)"></path>
<path d="M 1025.7 321.477 L 1046.64 377.006 C 1036.86 378.556 1016.22 376.761 1004.22 377.982 C 1011.75 360.033 1017.82 340.229 1025.7 321.477 z" fill="rgb(247,226,187)" transform="translate(0,0)"></path>
<path d="M 540.748 625.047 C 561.504 612.085 583.314 599.824 604.421 587.287 L 704.888 527.663 C 733.903 510.781 768.235 489.223 797.537 473.705 C 809.015 491.273 819.223 508.465 830.112 526.361 C 778.72 555.554 727.475 585.004 676.378 614.71 C 651.854 628.671 622.352 643.791 599.007 658.37 C 598.441 681.401 598.151 704.437 598.138 727.475 C 598.076 742.597 598.234 808.863 594.085 821.133 C 594.036 816.702 594.352 811.911 594.455 807.426 C 595.106 779.225 590.528 751.616 584.114 724.223 C 569.269 730.536 554.707 737.496 540.47 745.083 C 538.321 707.571 541.21 663.196 540.748 625.047 z" fill="rgb(105,208,161)" transform="translate(0,0)"></path>
<path d="M 599.428 845.954 C 599.549 862.756 599.184 879.573 599.198 896.368 C 598.914 914.746 598.789 933.126 598.823 951.506 C 600.086 991.347 598.276 1036.42 597.893 1076.67 L 597.065 1127.42 C 597.017 1133.83 597.464 1148.39 596.804 1154.21 C 591.169 1150.88 563.714 1131.58 559.638 1127.67 C 552.583 1123.37 545.935 1118.44 539.779 1112.93 C 518.462 1093.81 498.534 1066.84 497.741 1037.39 C 496.398 987.568 522.023 932.863 554.561 896.478 C 557.16 892.553 568.655 880.422 572.127 876.649 C 581.459 866.625 590.561 856.391 599.428 845.954 z" fill="url(#Gradient17)" transform="translate(0,0)"></path>
<path d="M 533.69 1103.38 C 536.279 1091.86 535.743 1080.98 538.982 1069.56 C 554.14 1016.15 572.582 956.871 597.548 907.575 C 597.766 938.775 596.062 970.597 597.271 1001.64 C 599.113 990.558 597.266 966.333 598.688 952.69 L 598.823 951.506 C 600.086 991.347 598.276 1036.42 597.893 1076.67 L 597.065 1127.42 C 597.017 1133.83 597.464 1148.39 596.804 1154.21 C 591.169 1150.88 563.714 1131.58 559.638 1127.67 C 559.415 1126.85 559.191 1126.04 558.968 1125.22 C 549.855 1118 541.195 1112.21 533.69 1103.38 z" fill="rgb(19,97,79)" transform="translate(0,0)"></path>
<path d="M 599.428 845.954 C 599.549 862.756 599.184 879.573 599.198 896.368 C 596.274 892.443 589.942 889.091 585.133 888.066 C 573.365 885.557 561.941 898.183 555.011 900.038 C 555.154 898.234 555.198 898.267 554.561 896.478 C 557.16 892.553 568.655 880.422 572.127 876.649 C 581.459 866.625 590.561 856.391 599.428 845.954 z" fill="rgb(44,172,127)" transform="translate(0,0)"></path>
<path d="M 1272.64 553.325 C 1270.99 548.245 1270.19 545.477 1267.6 540.691 C 1263.29 537.872 1259.95 536.827 1259.78 531.505 C 1266.97 523.727 1262.01 522.643 1270.35 517.685 C 1293.44 515.478 1325.7 525.981 1349 530.501 C 1353.19 531.313 1382.75 549.039 1388.75 552.194 L 1390.43 551.65 C 1419.9 567.106 1448.78 584.842 1477.67 601.438 C 1486.7 606.628 1496.67 612.19 1505.22 618.044 C 1504.35 659.657 1505.96 703.709 1504.54 744.628 C 1487.15 734.88 1475.17 727.455 1456.06 721.189 C 1456.97 701.446 1456.58 678.689 1456.71 658.721 C 1425.04 641.915 1393.94 623.898 1362.83 606.075 C 1355.67 601.974 1322.28 584.47 1317.64 580.649 L 1317.49 579.167 C 1309.57 573.52 1282.02 558.421 1272.64 553.325 z" fill="rgb(44,172,127)" transform="translate(0,0)"></path>
<path d="M 1382.32 743.024 C 1383.55 751.607 1383.01 774.542 1383 784.129 L 1382.93 863.002 L 1382.97 1176.1 C 1348.37 1173.76 1312.65 1166.02 1277.68 1164.94 C 1273.99 1164.83 1267.58 1164.45 1264.26 1163.46 L 1266.86 1162.79 C 1269.01 1158.34 1268.49 1101.49 1268.59 1090.73 C 1286.87 1100.77 1307.72 1110.07 1327.02 1117.93 C 1327.8 1068.08 1327.34 1016.95 1327.52 966.97 C 1345.86 971.864 1363.22 975.263 1381.79 979.077 L 1381.93 826.436 L 1381.84 774.334 C 1381.83 765.213 1381.39 751.868 1382.32 743.024 z" fill="rgb(186,213,191)" transform="translate(0,0)"></path>
<path d="M 1456.62 863.97 C 1467.57 880.207 1478.91 890.121 1490.63 904.536 C 1522.37 943.563 1559.79 992.054 1549.32 1045.5 C 1541.88 1083.44 1514.66 1117.85 1482.84 1138.41 C 1477.73 1141.71 1472.56 1145.38 1466.98 1147.76 L 1461.54 1150.63 C 1459.5 1149.2 1459.66 1149.21 1458.4 1147.03 C 1466.34 1135.16 1477.21 1117.54 1480.58 1103.45 C 1489.87 1064.62 1480.15 1018.7 1469 981.062 C 1465.96 970.818 1461.38 954.916 1456.34 946.096 L 1456.87 940.812 C 1455.98 934.085 1456.23 914.677 1456.37 907.058 C 1456.59 894.695 1455.46 875.738 1456.62 863.97 z" fill="rgb(19,97,79)" transform="translate(0,0)"></path>
<path d="M 1456.87 940.812 C 1481.38 974.413 1508.57 1041.92 1502.12 1084.29 C 1499.08 1104.3 1489.84 1119.41 1476.85 1134.52 C 1474.33 1137.44 1468.21 1144.42 1466.98 1147.76 L 1461.54 1150.63 C 1459.5 1149.2 1459.66 1149.21 1458.4 1147.03 C 1466.34 1135.16 1477.21 1117.54 1480.58 1103.45 C 1489.87 1064.62 1480.15 1018.7 1469 981.062 C 1465.96 970.818 1461.38 954.916 1456.34 946.096 L 1456.87 940.812 z" fill="rgb(14,63,66)" transform="translate(0,0)"></path>
<path d="M 1046.64 377.006 C 1049.55 378.755 1056.71 378.976 1060.46 379.336 C 1073.88 380.123 1087.47 381.997 1100.8 382.482 L 1089.04 391.275 C 1078.87 398.303 1064.82 407.532 1056.2 416.001 C 1062.05 439.928 1066.26 453.708 1074.44 476.975 C 1060.4 466.459 1035.76 451.265 1024.51 441.297 C 1007.83 454.161 993.212 464.229 975.948 476.164 C 981.287 456.76 989.235 435.068 993.954 416.636 C 986.63 410.709 980.671 406.225 972.936 400.847 C 964.885 394.756 956.936 388.53 949.093 382.173 C 958.602 381.228 964.298 380.824 973.805 381.018 C 981.658 379.466 994.83 379.467 1004.22 377.982 C 1016.22 376.761 1036.86 378.556 1046.64 377.006 z" fill="url(#Gradient16)" transform="translate(0,0)"></path>
<path d="M 1046.64 377.006 C 1049.55 378.755 1056.71 378.976 1060.46 379.336 C 1041.56 382.32 1026.55 386.192 1006.45 384.65 C 998.783 384.062 992.234 382.63 984.842 381.524 C 980.384 380.857 980.988 383.108 973.805 381.018 C 981.658 379.466 994.83 379.467 1004.22 377.982 C 1016.22 376.761 1036.86 378.556 1046.64 377.006 z" fill="rgb(251,212,158)" transform="translate(0,0)"></path>
<path d="M 1246.01 468.618 C 1293.51 497.23 1342.9 523.63 1390.43 551.65 L 1388.75 552.194 C 1382.75 549.039 1353.19 531.313 1349 530.501 C 1325.7 525.981 1293.44 515.478 1270.35 517.685 C 1262.01 522.643 1266.97 523.727 1259.78 531.505 C 1259.95 536.827 1263.29 537.872 1267.6 540.691 C 1270.19 545.477 1270.99 548.245 1272.64 553.325 C 1282.02 558.421 1309.57 573.52 1317.49 579.167 L 1317.64 580.649 C 1312.62 578.314 1306.08 574.58 1301.3 571.603 C 1274.71 555.043 1244.13 541.667 1218.22 524.536 C 1224.74 508.824 1237.98 486.308 1246.01 468.618 z" fill="rgb(105,208,161)" transform="translate(0,0)"></path>
<path d="M 1456.34 946.096 C 1461.38 954.916 1465.96 970.818 1469 981.062 C 1480.15 1018.7 1489.87 1064.62 1480.58 1103.45 C 1477.21 1117.54 1466.34 1135.16 1458.4 1147.03 C 1459.66 1149.21 1459.5 1149.2 1461.54 1150.63 C 1458.94 1152 1457.55 1152.01 1457.07 1154.66 C 1455.34 1164.25 1457.45 1173.81 1456.36 1183.53 C 1454.1 1171.08 1455.57 1127.07 1455.92 1112.77 C 1457.25 1057.43 1455.36 1001.22 1456.34 946.096 z" fill="rgb(19,97,79)" transform="translate(0,0)"></path>
<path d="M 865.873 457.255 C 872.59 457.376 876.496 457.544 883.042 458.202 C 890.517 458.953 900.25 462.801 906.414 462.411 C 907.054 467.045 913.43 486.321 915.144 491.858 C 903.046 486.463 900.304 484.347 889.823 475.531 C 881.998 480.544 873.373 486.994 865.716 492.443 C 867.902 482.665 870.323 472.941 872.978 463.279 L 865.873 457.255 z" fill="rgb(245,139,78)" transform="translate(0,0)"></path>
<path d="M 882.829 435.807 C 884.541 431.543 888.149 420.753 890.558 418.186 L 891.914 418.708 L 893.384 423.448 C 895.802 430.398 898.812 438.41 900.882 445.375 L 928.121 446.635 C 925.391 448.975 919.92 454.012 916.992 455.462 C 909.771 456.306 906.006 460.284 900.063 455.58 C 900.135 452.53 900.663 450.045 898.939 447.73 C 893.942 444.991 888.406 447.432 880.528 446.415 L 879.386 446.259 C 880.714 443.099 881.805 439.151 882.829 435.807 z" fill="rgb(247,226,187)" transform="translate(0,0)"></path>
<path d="M 877.259 446.16 L 879.386 446.259 L 880.528 446.415 C 888.406 447.432 893.942 444.991 898.939 447.73 C 900.663 450.045 900.135 452.53 900.063 455.58 C 906.006 460.284 909.771 456.306 916.992 455.462 C 912.547 459.172 911.605 459.935 906.414 462.411 C 900.25 462.801 890.517 458.953 883.042 458.202 C 876.496 457.544 872.59 457.376 865.873 457.255 L 853.738 445.892 C 861.579 445.935 869.419 446.024 877.259 446.16 z" fill="rgb(251,212,158)" transform="translate(0,0)"></path>
<path d="M 1148.3 445.141 C 1151.24 436.478 1154.22 427.105 1157.76 418.734 C 1161.63 427.572 1165.24 436.525 1168.56 445.582 C 1176.27 444.483 1185.57 445.299 1193.35 446.095 C 1189.33 449.972 1185.31 453.988 1181.08 457.609 L 1174.36 462.922 C 1177.38 472.125 1179.19 480.628 1181.33 490.034 C 1172.32 485.318 1165.57 480.897 1157.77 474.278 C 1150.79 480.651 1141.91 486.228 1133.95 491.421 C 1136.92 482.577 1139.77 473.694 1142.5 464.773 C 1138.99 461.619 1134.73 458.246 1131.06 455.188 L 1121.98 446.498 C 1131.14 445.519 1139.12 444.169 1148.3 445.141 z" fill="rgb(250,171,116)" transform="translate(0,0)"></path>
<path d="M 1148.3 445.141 C 1151.24 436.478 1154.22 427.105 1157.76 418.734 C 1161.63 427.572 1165.24 436.525 1168.56 445.582 C 1176.27 444.483 1185.57 445.299 1193.35 446.095 C 1189.33 449.972 1185.31 453.988 1181.08 457.609 C 1162.93 451.895 1149.51 451.46 1131.06 455.188 L 1121.98 446.498 C 1131.14 445.519 1139.12 444.169 1148.3 445.141 z" fill="rgb(251,212,158)" transform="translate(0,0)"></path>
<path d="M 1148.3 445.141 C 1151.24 436.478 1154.22 427.105 1157.76 418.734 C 1161.63 427.572 1165.24 436.525 1168.56 445.582 C 1163.39 447.981 1153.54 447.36 1148.3 445.141 z" fill="rgb(247,226,187)" transform="translate(0,0)"></path>
<path d="M 1142.5 464.773 C 1146.44 466.89 1155.18 471.096 1157.77 474.278 C 1150.79 480.651 1141.91 486.228 1133.95 491.421 C 1136.92 482.577 1139.77 473.694 1142.5 464.773 z" fill="rgb(245,139,78)" transform="translate(0,0)"></path>
<path d="M 1023.67 654.301 C 1049.71 671.101 1079.64 683.579 1106.51 698.888 C 1143.29 719.837 1181.09 739.705 1217.73 760.761 L 1218.84 761.229 C 1223.29 763.428 1238.4 770.179 1240.14 773.804 C 1239.57 823.491 1239.63 873.184 1240.31 922.87 L 1299.42 952.901 C 1306.26 956.389 1321.29 964.634 1327.52 966.97 C 1327.34 1016.95 1327.8 1068.08 1327.02 1117.93 C 1307.72 1110.07 1286.87 1100.77 1268.59 1090.73 C 1268.49 1101.49 1269.01 1158.34 1266.86 1162.79 L 1264.26 1163.46 L 1245.91 1161.93 C 1172.04 1155.72 1097.9 1153.16 1023.78 1154.24 C 964.908 1154.82 887.022 1156.38 828.016 1162.3 C 827.826 1135.81 829.002 1106.94 828.001 1080.86 L 802.135 1092.66 C 801.87 1116.88 802.149 1141.55 802.212 1165.81 L 782.635 1167.65 C 782.145 1143.08 782.813 1118.41 782.29 1093.72 C 763.229 1101.97 740.652 1114.32 721.407 1123.61 L 721.079 967.42 C 743.694 958.497 782.693 936.976 805.678 925.081 C 803.006 911.534 803.918 884.535 803.934 869.726 L 804.13 775.395 C 824.447 762.694 845.852 752.866 866.627 741.465 C 897.295 724.636 927.791 707.112 958.272 689.98 C 979.903 677.821 1001.98 667.002 1023.67 654.301 z" fill="rgb(7,29,46)" transform="translate(0,0)"></path>
<path d="M 1023.67 654.301 C 1049.71 671.101 1079.64 683.579 1106.51 698.888 C 1143.29 719.837 1181.09 739.705 1217.73 760.761 C 1216.61 767.09 1217.9 773.666 1217.92 780.22 L 1213.25 778.293 C 1208.18 779.643 1204.35 780.775 1199.35 782.469 C 1185.47 788.633 1085.79 831.935 1079.09 840.846 L 1060.02 831.256 L 1045.97 824.127 C 1037.83 820.171 1032.79 817.572 1025.27 812.493 C 1007.68 821.405 989.634 832.233 972.314 840.632 C 967.378 843.236 953.836 850.821 949.343 852.539 C 944.902 849.736 917.58 837.86 911.004 834.827 C 886.831 823.606 862.747 812.192 838.756 800.586 C 838.238 836.437 837.961 872.291 837.926 908.145 C 833.156 910.685 826.971 914.225 822.215 916.48 C 816.444 919.793 811.684 922.189 805.678 925.081 C 803.006 911.534 803.918 884.535 803.934 869.726 L 804.13 775.395 C 824.447 762.694 845.852 752.866 866.627 741.465 C 897.295 724.636 927.791 707.112 958.272 689.98 C 979.903 677.821 1001.98 667.002 1023.67 654.301 z" fill="rgb(245,139,78)" transform="translate(0,0)"></path>
<path d="M 1023.67 654.301 C 1049.71 671.101 1079.64 683.579 1106.51 698.888 C 1143.29 719.837 1181.09 739.705 1217.73 760.761 C 1216.61 767.09 1217.9 773.666 1217.92 780.22 L 1213.25 778.293 C 1190.04 765.317 1165.54 753.273 1141.48 739.749 C 1117.3 726.041 1092.91 712.704 1068.32 699.742 C 1053.79 692.051 1036.27 682.373 1021.2 676.49 L 1000.75 687.927 C 975.382 701.322 945.35 720.116 921.007 732.263 C 916.726 733.708 916.932 733.628 913.484 736.585 C 909.305 744.107 855.342 774.526 847.717 783.943 L 847.069 784.239 C 841.821 790.191 839.589 792.045 838.235 799.994 L 838.756 800.586 C 838.238 836.437 837.961 872.291 837.926 908.145 C 833.156 910.685 826.971 914.225 822.215 916.48 C 816.444 919.793 811.684 922.189 805.678 925.081 C 803.006 911.534 803.918 884.535 803.934 869.726 L 804.13 775.395 C 824.447 762.694 845.852 752.866 866.627 741.465 C 897.295 724.636 927.791 707.112 958.272 689.98 C 979.903 677.821 1001.98 667.002 1023.67 654.301 z" fill="url(#Gradient15)" transform="translate(0,0)"></path>
<path d="M 821.261 792.343 C 826.47 788.64 827.517 784.701 834.772 780.133 C 840.169 781.464 842.023 781.981 847.069 784.239 C 841.821 790.191 839.589 792.045 838.235 799.994 L 838.756 800.586 C 838.238 836.437 837.961 872.291 837.926 908.145 C 833.156 910.685 826.971 914.225 822.215 916.48 C 820.669 900.14 821.737 868.445 821.892 850.927 C 822.051 832.86 820.584 809.154 821.261 792.343 z" fill="rgb(247,226,187)" transform="translate(0,0)"></path>
<path d="M 821.261 792.343 C 826.47 788.64 827.517 784.701 834.772 780.133 C 840.169 781.464 842.023 781.981 847.069 784.239 C 841.821 790.191 839.589 792.045 838.235 799.994 C 832.31 797.06 827.374 794.879 821.261 792.343 z" fill="rgb(245,139,78)" transform="translate(0,0)"></path>
<path d="M 913.484 736.585 C 909.305 744.107 855.342 774.526 847.717 783.943 L 847.069 784.239 C 842.023 781.981 840.169 781.464 834.772 780.133 C 858.481 765.276 888.694 749.671 913.484 736.585 z" fill="url(#Gradient14)" transform="translate(0,0)"></path>
<path d="M 1021.2 676.49 C 1036.27 682.373 1053.79 692.051 1068.32 699.742 C 1092.91 712.704 1117.3 726.041 1141.48 739.749 C 1165.54 753.273 1190.04 765.317 1213.25 778.293 C 1208.18 779.643 1204.35 780.775 1199.35 782.469 C 1185.47 788.633 1085.79 831.935 1079.09 840.846 L 1060.02 831.256 L 1045.97 824.127 C 1054.53 821.934 1085.94 807.217 1096.7 802.576 L 1144.09 782.284 C 1152.52 778.698 1163.99 774.375 1171.55 769.745 C 1161.19 762.3 1024.16 700.93 1018.73 702.168 C 1012.3 695.23 1008.64 693.134 1000.75 687.927 L 1021.2 676.49 z" fill="url(#Gradient13)" transform="translate(0,0)"></path>
<path d="M 1171.55 769.745 C 1176.17 771.347 1179.7 772.59 1184.49 773.775 C 1172.4 780.748 1157.39 787.5 1144.56 793.286 C 1117.81 805.348 1091.03 818.36 1063.43 828.275 C 1061.8 828.86 1061.03 829.93 1060.02 831.256 L 1045.97 824.127 C 1054.53 821.934 1085.94 807.217 1096.7 802.576 L 1144.09 782.284 C 1152.52 778.698 1163.99 774.375 1171.55 769.745 z" fill="rgb(208,95,66)" transform="translate(0,0)"></path>
<path d="M 1000.75 687.927 C 1008.64 693.134 1012.3 695.23 1018.73 702.168 C 1021.57 734.791 984.918 753.126 957.151 754.618 C 943.222 755.367 933.162 752.974 920.256 748.24 C 920.488 743.676 921.033 736.722 921.007 732.263 C 945.35 720.116 975.382 701.322 1000.75 687.927 z" fill="rgb(251,212,158)" transform="translate(0,0)"></path>
<path d="M 847.717 783.943 C 868.205 791.166 889.953 802.629 910.037 811.694 C 929.386 820.428 954.241 829.82 972.314 840.632 C 967.378 843.236 953.836 850.821 949.343 852.539 C 944.902 849.736 917.58 837.86 911.004 834.827 C 886.831 823.606 862.747 812.192 838.756 800.586 L 838.235 799.994 C 839.589 792.045 841.821 790.191 847.069 784.239 L 847.717 783.943 z" fill="rgb(208,95,66)" transform="translate(0,0)"></path>
<path d="M 1023.9 968.845 C 1045.4 980.342 1070.65 992.045 1092.72 1002.85 L 1187.73 1049.66 C 1206.18 1058.62 1228.09 1068.58 1245.98 1078.18 C 1245.91 1105.88 1245.53 1134.28 1245.91 1161.93 C 1172.04 1155.72 1097.9 1153.16 1023.78 1154.24 C 1024.49 1095.31 1022.55 1036.32 1023.13 977.689 C 1024.03 974.63 1023.81 972.107 1023.9 968.845 z" fill="rgb(184,71,50)" transform="translate(0,0)"></path>
<path d="M 828.048 1080.01 C 868.031 1062.08 908.698 1040.86 947.44 1020.35 C 973.443 1006.58 998.33 993.638 1023.13 977.689 C 1022.55 1036.32 1024.49 1095.31 1023.78 1154.24 C 964.908 1154.82 887.022 1156.38 828.016 1162.3 C 827.826 1135.81 829.002 1106.94 828.001 1080.86 L 828.048 1080.01 z" fill="rgb(245,139,78)" transform="translate(0,0)"></path>
<path d="M 1217.73 760.761 L 1218.84 761.229 C 1220.58 770.681 1219.6 773.557 1219.93 782.814 L 1220.01 868.661 C 1220.01 876.781 1220.51 902.861 1219.63 909.758 L 1218.65 910.38 C 1199.78 902.627 1179.08 891.723 1160.75 882.415 C 1138.87 871.309 1116.21 860.216 1094.56 848.735 C 1089.28 846.235 1084.25 843.564 1079.09 840.846 C 1085.79 831.935 1185.47 788.633 1199.35 782.469 C 1204.35 780.775 1208.18 779.643 1213.25 778.293 L 1217.92 780.22 C 1217.9 773.666 1216.61 767.09 1217.73 760.761 z" fill="rgb(184,71,50)" transform="translate(0,0)"></path>
<path d="M 1199.35 782.469 C 1202.59 785.756 1203.46 786.928 1206.03 790.777 C 1181.85 804.926 1154.88 816.593 1129.95 829.473 C 1120.15 834.537 1103.53 842.539 1094.56 848.735 C 1089.28 846.235 1084.25 843.564 1079.09 840.846 C 1085.79 831.935 1185.47 788.633 1199.35 782.469 z" fill="rgb(208,95,66)" transform="translate(0,0)"></path>
<path d="M 1217.73 760.761 L 1218.84 761.229 C 1220.58 770.681 1219.6 773.557 1219.93 782.814 L 1220.01 868.661 C 1220.01 876.781 1220.51 902.861 1219.63 909.758 L 1218.65 910.38 C 1219.71 897.398 1220.44 789.719 1218.2 781.317 L 1217.92 780.22 C 1217.9 773.666 1216.61 767.09 1217.73 760.761 z" fill="rgb(86,53,51)" transform="translate(0,0)"></path>
<path d="M 1213.25 778.293 L 1217.92 780.22 L 1218.2 781.317 C 1216.6 785.869 1215.26 786.39 1210.64 788.623 C 1209.11 789.357 1207.57 790.075 1206.03 790.777 C 1203.46 786.928 1202.59 785.756 1199.35 782.469 C 1204.35 780.775 1208.18 779.643 1213.25 778.293 z" fill="rgb(245,139,78)" transform="translate(0,0)"></path>
<path d="M 838.756 800.586 C 862.747 812.192 886.831 823.606 911.004 834.827 C 917.58 837.86 944.902 849.736 949.343 852.539 C 912.671 871.997 875.521 890.538 837.926 908.145 C 837.961 872.291 838.238 836.437 838.756 800.586 z" fill="rgb(245,139,78)" transform="translate(0,0)"></path>
<path d="M 827.13 1069.1 C 846.321 1057.71 874.04 1044.95 894.447 1034.24 L 968.271 996.193 C 975.651 992.364 1019.4 968.192 1023.9 968.845 C 1023.81 972.107 1024.03 974.63 1023.13 977.689 C 998.33 993.638 973.443 1006.58 947.44 1020.35 C 908.698 1040.86 868.031 1062.08 828.048 1080.01 C 828.046 1075.37 828.256 1073.51 827.13 1069.1 z" fill="rgb(208,95,66)" transform="translate(0,0)"></path>
<path d="M 827.13 1069.1 C 828.256 1073.51 828.046 1075.37 828.048 1080.01 L 828.001 1080.86 L 802.135 1092.66 L 802.372 1082.14 L 827.13 1069.1 z" fill="rgb(219,218,216)" transform="translate(0,0)"></path>
<path d="M 1218.84 761.229 C 1223.29 763.428 1238.4 770.179 1240.14 773.804 C 1232.98 777.534 1227.47 779.79 1219.93 782.814 C 1219.6 773.557 1220.58 770.681 1218.84 761.229 z" fill="rgb(139,53,46)" transform="translate(0,0)"></path>
<path d="M 1017.59 839.496 C 1020.51 837.962 1021.9 836.451 1024.74 837.557 C 1033.91 841.127 1043.73 846.163 1052.41 850.632 C 1070.18 859.975 1088.02 869.188 1105.92 878.27 L 1237.71 944.141 C 1257.08 953.875 1287.32 968.056 1305.53 978.948 C 1306.44 986.54 1306.06 1000.77 1306.05 1008.79 L 1305.99 1063.08 C 1306.38 1070.13 1306.17 1078.83 1306.17 1086.01 C 1292.64 1079.92 1276.97 1072.16 1263.95 1065.11 C 1187.1 1023.5 1105.87 988.752 1028.87 947.735 L 1028.82 925.391 C 1028.71 913.294 1029 872.635 1027.28 863.038 L 1025.99 862.827 L 1022.1 865.864 C 1018.51 877.972 1019.3 912.105 1019.41 926.055 L 1019.62 947.004 C 998.289 959.82 973.54 972.468 951.155 983.403 C 881.045 1017.65 812.459 1057.43 742.245 1091.08 L 742.089 1072.13 C 741.762 1050.13 742.005 1027.45 741.979 1005.4 L 741.985 980.899 L 921.068 889.081 C 950.237 873.932 988.478 852.898 1017.59 839.496 z" fill="rgb(105,208,161)" transform="translate(0,0)"></path>
<path d="M 741.985 980.899 L 921.068 889.081 C 950.237 873.932 988.478 852.898 1017.59 839.496 C 1019.5 846.144 1020.41 852.273 1022.06 858.638 L 1021.69 860.34 C 1010.64 868.217 977.528 882.969 963.116 890.461 L 818.586 965.227 C 798.271 975.655 759.355 994.149 741.979 1005.4 L 741.985 980.899 z" fill="rgb(246,243,237)" transform="translate(0,0)"></path>
<path d="M 1028.82 925.391 C 1063.28 943.37 1099.8 960.16 1134.86 977.028 C 1162.65 990.561 1190.32 1004.33 1217.87 1018.33 C 1235.5 1027.18 1253.46 1036.13 1271.06 1045 C 1276.47 1047.73 1301.77 1061.98 1305.99 1063.08 C 1306.38 1070.13 1306.17 1078.83 1306.17 1086.01 C 1292.64 1079.92 1276.97 1072.16 1263.95 1065.11 C 1187.1 1023.5 1105.87 988.752 1028.87 947.735 L 1028.82 925.391 z" fill="rgb(44,172,127)" transform="translate(0,0)"></path>
<path d="M 1017.59 839.496 C 1020.51 837.962 1021.9 836.451 1024.74 837.557 C 1033.91 841.127 1043.73 846.163 1052.41 850.632 C 1070.18 859.975 1088.02 869.188 1105.92 878.27 L 1237.71 944.141 C 1257.08 953.875 1287.32 968.056 1305.53 978.948 C 1304.71 983.739 1304.97 994.095 1304.96 999.408 C 1282.55 988.48 1259.14 975.926 1236.71 964.55 L 1108.44 899.723 L 1056.07 872.614 C 1048.89 868.888 1028.9 856.608 1022.06 858.638 C 1020.41 852.273 1019.5 846.144 1017.59 839.496 z" fill="rgb(186,213,191)" transform="translate(0,0)"></path>
<path d="M 1019.41 926.055 L 1019.62 947.004 C 998.289 959.82 973.54 972.468 951.155 983.403 C 881.045 1017.65 812.459 1057.43 742.245 1091.08 L 742.089 1072.13 C 745.726 1071 757.14 1065.16 761.02 1063.32 C 779.342 1054.64 797.054 1044.75 814.967 1035.33 C 848.441 1017.98 881.738 1000.3 914.853 982.275 C 951.096 962.453 982.219 944.436 1019.41 926.055 z" fill="rgb(44,172,127)" transform="translate(0,0)"></path>
<path d="M 385.541 653.972 C 427.495 707.21 464.822 763.779 447.027 835.537 C 445.521 852.707 437.785 872.8 433.44 889.687 C 433.008 891.368 431.667 898.811 431.187 899.709 C 430.593 912.928 429.95 926.827 431.625 940.088 C 440.299 1008.75 473.861 1071.49 519.863 1122.38 C 538.661 1143.17 578.297 1175.35 603.655 1186.66 C 591.841 1188.54 582.234 1190.21 570.562 1193.15 C 501.507 1154.38 445.808 1072.2 425.724 996.581 C 420.81 978.082 419.502 960.982 415.578 942.81 C 409.333 937.487 402.129 932.4 396.36 927.369 C 345.23 893.122 319.347 829.453 328.045 769.21 C 329.079 762.046 330.645 755.326 333.212 748.558 C 338.574 724.579 370.563 674.014 385.541 653.972 z" fill="url(#Gradient12)" transform="translate(0,0)"></path>
<path d="M 384.196 720.408 C 389.266 748.5 388.884 782.339 394.343 812.337 C 395.079 807.776 393.155 797.821 395.929 796.309 C 407.059 790.239 431.05 792.32 442.563 794.149 C 444.553 794.474 446.536 794.846 448.509 795.267 C 448.923 807.235 446.001 827.943 447.027 835.537 C 445.521 852.707 437.785 872.8 433.44 889.687 C 433.008 891.368 431.667 898.811 431.187 899.709 C 430.593 912.928 429.95 926.827 431.625 940.088 C 440.299 1008.75 473.861 1071.49 519.863 1122.38 C 538.661 1143.17 578.297 1175.35 603.655 1186.66 C 591.841 1188.54 582.234 1190.21 570.562 1193.15 C 501.507 1154.38 445.808 1072.2 425.724 996.581 C 420.81 978.082 419.502 960.982 415.578 942.81 C 409.333 937.487 402.129 932.4 396.36 927.369 C 403.976 928.347 400.643 930.085 407.772 933.128 C 407.954 931.83 404.423 930.075 404.178 925.814 C 405.328 926.888 406.502 927.934 407.699 928.954 C 407.404 927.398 407.042 926.146 406.224 924.774 C 386.461 891.605 380.67 825.371 379.524 786.416 C 380.215 762.946 381.782 743.793 384.196 720.408 z" fill="url(#Gradient11)" transform="translate(0,0)"></path>
<path d="M 394.343 812.337 C 395.079 807.776 393.155 797.821 395.929 796.309 C 407.059 790.239 431.05 792.32 442.563 794.149 C 444.553 794.474 446.536 794.846 448.509 795.267 C 448.923 807.235 446.001 827.943 447.027 835.537 C 445.521 852.707 437.785 872.8 433.44 889.687 C 433.008 891.368 431.667 898.811 431.187 899.709 C 426.329 909.527 430.265 920.804 428.174 933.034 L 427.235 933.652 C 413.835 912.667 395.759 838.599 394.343 812.337 z" fill="rgb(34,142,109)" transform="translate(0,0)"></path>
<path d="M 248.278 1067.71 C 311.111 1057.99 376.267 1057.51 436.438 1080.82 C 444.35 1089.96 457.728 1111.28 465.315 1122.38 C 472.646 1131.42 480.278 1140.22 488.198 1148.75 C 489.719 1150.42 500.458 1161.97 501.26 1163.28 C 514.813 1176.13 526.565 1186.71 541.049 1198.38 C 528.206 1199.4 512.45 1202.62 499.505 1204.96 C 476.799 1208.91 437.218 1218.98 415.92 1213.03 C 411.762 1213.02 406.368 1211.78 402.163 1211.14 C 343.579 1202.24 294.67 1161.76 267.194 1110.33 C 259.843 1096.57 254.213 1082.25 248.278 1067.71 z" fill="url(#Gradient10)" transform="translate(0,0)"></path>
<path d="M 287.943 1090.65 C 338.364 1105.7 385.162 1126.94 433.116 1147.77 C 436.455 1141.03 450.948 1119.49 455.964 1113.82 C 458.209 1114.63 461.418 1120.2 463.856 1123.13 L 465.315 1122.38 C 472.646 1131.42 480.278 1140.22 488.198 1148.75 C 489.719 1150.42 500.458 1161.97 501.26 1163.28 C 514.813 1176.13 526.565 1186.71 541.049 1198.38 C 528.206 1199.4 512.45 1202.62 499.505 1204.96 C 493.271 1198.78 457.851 1179.01 448.613 1174.29 C 434.105 1165.95 413.007 1157.36 397.348 1149.23 C 360.851 1130.28 322.916 1112.27 287.943 1090.65 z" fill="rgb(14,63,66)" transform="translate(0,0)"></path>
<path d="M 433.116 1147.77 C 436.455 1141.03 450.948 1119.49 455.964 1113.82 C 458.209 1114.63 461.418 1120.2 463.856 1123.13 L 465.315 1122.38 C 472.646 1131.42 480.278 1140.22 488.198 1148.75 C 489.719 1150.42 500.458 1161.97 501.26 1163.28 L 500.771 1164.58 C 501.736 1167.32 507.399 1172.19 509.799 1174.51 C 489.95 1175.35 452.325 1156.69 433.116 1147.77 z" fill="rgb(19,97,79)" transform="translate(0,0)"></path>
<path d="M 1589.97 1108.82 C 1621.11 1073.65 1653.97 1065.89 1698.97 1063.59 C 1723.52 1062.34 1775.01 1064.06 1799.22 1068.88 C 1781.88 1108.62 1765.31 1138.19 1731.12 1166.58 C 1723.41 1172.98 1712.83 1182 1704 1186.62 C 1641.25 1226 1610.75 1214.53 1543.21 1201.66 C 1530.61 1199.33 1517.96 1197.23 1505.28 1195.37 L 1518.01 1186.29 C 1536.13 1170.71 1552.62 1149.15 1568.72 1131.36 C 1575.05 1124.37 1582.75 1114.57 1589.97 1108.82 z" fill="url(#Gradient9)" transform="translate(0,0)"></path>
<path d="M 1589.97 1108.82 C 1596.02 1107.19 1601.97 1097.99 1604.66 1099.69 C 1619.39 1108.98 1633.57 1118.14 1647.52 1128.63 C 1644.61 1129.84 1643.91 1129.49 1642.79 1131.63 L 1642.88 1131.43 L 1643.98 1131.73 C 1624.49 1143.05 1535.03 1188.96 1518.01 1186.29 C 1536.13 1170.71 1552.62 1149.15 1568.72 1131.36 C 1575.05 1124.37 1582.75 1114.57 1589.97 1108.82 z" fill="rgb(34,142,109)" transform="translate(0,0)"></path>
<path d="M 1643.98 1131.73 C 1681.93 1117.96 1711.61 1102.39 1753.3 1091.29 L 1753.99 1092.27 L 1754.69 1091.73 L 1754.31 1091.11 L 1754.72 1091.71 C 1745.51 1097.35 1734.24 1101.95 1724.51 1106.94 C 1707.91 1115.45 1691.22 1124.06 1674.68 1132.64 C 1671.06 1134.51 1654.14 1143.22 1651.59 1145.4 C 1629.35 1156.01 1604.43 1172.09 1581.92 1183.7 C 1571.29 1189.19 1550.53 1197.27 1543.21 1201.66 C 1530.61 1199.33 1517.96 1197.23 1505.28 1195.37 L 1518.01 1186.29 C 1535.03 1188.96 1624.49 1143.05 1643.98 1131.73 z" fill="url(#Gradient8)" transform="translate(0,0)"></path>
<path d="M 1663.75 654.177 C 1701.16 691.162 1730.13 755.112 1723.26 808.231 C 1722.85 811.877 1722.45 817.313 1721.41 820.667 C 1718.45 856.257 1682.61 920.308 1643.21 929.441 C 1629.63 932.589 1625.25 891.868 1623.25 882.947 C 1619.34 865.609 1612.45 852.189 1602.74 837.283 C 1599.21 831.795 1594.82 825.17 1595.15 819.019 C 1594.57 806.748 1595.51 795.704 1596.8 783.555 C 1601.02 737.906 1630.58 685.121 1663.75 654.177 z" fill="url(#Gradient7)" transform="translate(0,0)"></path>
<path d="M 1659.88 715.916 C 1662.73 738.595 1663.84 770.633 1665.37 794.156 L 1667.35 815.161 L 1668.98 815.759 C 1669.47 820.105 1669.45 826.73 1671.97 829.581 C 1687.72 832.617 1700.48 827.615 1716.22 833.833 C 1717.83 830.002 1719.62 823.227 1721.41 820.667 C 1718.45 856.257 1682.61 920.308 1643.21 929.441 C 1629.63 932.589 1625.25 891.868 1623.25 882.947 C 1619.34 865.609 1612.45 852.189 1602.74 837.283 C 1599.21 831.795 1594.82 825.17 1595.15 819.019 C 1594.57 806.748 1595.51 795.704 1596.8 783.555 C 1603.79 792.95 1625.9 797.55 1637.34 799.924 C 1646.36 801.795 1650.95 793.173 1652.88 805.238 C 1654.1 779.588 1657.79 756.451 1658.13 730.228 L 1659.88 715.916 z" fill="url(#Gradient6)" transform="translate(0,0)"></path>
<path d="M 1659.88 715.916 C 1662.73 738.595 1663.84 770.633 1665.37 794.156 L 1667.35 815.161 C 1667.39 847.342 1678.43 883.775 1649.54 908.957 C 1650.46 897.576 1652.29 885.241 1652.71 873.907 C 1653.46 853.283 1653.05 832.09 1652.81 811.419 L 1652.88 805.238 C 1654.1 779.588 1657.79 756.451 1658.13 730.228 L 1659.88 715.916 z" fill="rgb(19,97,79)" transform="translate(0,0)"></path>
<path d="M 1596.8 783.555 C 1603.79 792.95 1625.9 797.55 1637.34 799.924 C 1646.36 801.795 1650.95 793.173 1652.88 805.238 L 1652.81 811.419 L 1652.6 812.358 C 1651.32 818.471 1651.98 831.157 1649.89 833.02 C 1639.84 832.93 1625.77 827.393 1615.48 825.627 C 1609.62 824.621 1604.33 826.665 1598.58 824.454 C 1596.11 821.129 1597.18 816.767 1596.5 811.062 C 1595.18 813.693 1595.33 816.052 1595.15 819.019 C 1594.57 806.748 1595.51 795.704 1596.8 783.555 z" fill="rgb(44,172,127)" transform="translate(0,0)"></path>
<path d="M 1665.37 794.156 L 1666.65 794.802 L 1667.45 791.785 C 1688.09 799.181 1700.6 793.868 1719.98 794.503 L 1722.25 791.553 C 1722.49 798.116 1721.85 801.665 1723.26 808.231 C 1722.85 811.877 1722.45 817.313 1721.41 820.667 C 1719.62 823.227 1717.83 830.002 1716.22 833.833 C 1700.48 827.615 1687.72 832.617 1671.97 829.581 C 1669.45 826.73 1669.47 820.105 1668.98 815.759 L 1667.35 815.161 L 1665.37 794.156 z" fill="rgb(44,172,127)" transform="translate(0,0)"></path>
<path d="M 1658.13 730.228 C 1657.78 722.335 1657.57 717.183 1659.27 709.263 C 1660.49 711.486 1660.04 713.329 1659.88 715.916 L 1658.13 730.228 z" fill="rgb(44,172,127)" transform="translate(0,0)"></path>
<path d="M 1652.48 974.367 C 1678.07 911.363 1737.75 889.808 1802.13 890.729 C 1814.44 890.905 1827.38 891.047 1839.54 892.988 C 1828.06 927.762 1810.13 971.807 1779.12 993.781 C 1765.85 1008.47 1726.42 1024.92 1707.46 1028.94 C 1682 1034.33 1654.35 1037.3 1628.73 1043.16 C 1626.47 1043.67 1625.04 1043.31 1623.17 1042.2 L 1623.25 1040.47 C 1625.12 1035.76 1626.91 1032.6 1629.32 1028.2 C 1634.87 1013.4 1645.12 988.253 1652.48 974.367 z" fill="url(#Gradient5)" transform="translate(0,0)"></path>
<path d="M 1677.51 985.088 C 1712.31 957.01 1768.32 926.868 1811.16 914.794 C 1793.83 923.266 1768.29 937.719 1752.26 948.506 C 1742.33 953.458 1725.87 965.389 1716.73 971.967 C 1696.67 986.428 1676.79 1001.15 1657.11 1016.12 C 1649.64 1021.9 1630.31 1039.42 1623.25 1040.47 C 1625.12 1035.76 1626.91 1032.6 1629.32 1028.2 C 1634.87 1013.4 1645.12 988.253 1652.48 974.367 C 1653.91 972.817 1655.37 971.292 1656.86 969.794 C 1660.2 972.265 1676.37 983.222 1677.51 985.088 z" fill="url(#Gradient4)" transform="translate(0,0)"></path>
<path d="M 1652.48 974.367 C 1653.91 972.817 1655.37 971.292 1656.86 969.794 C 1660.2 972.265 1676.37 983.222 1677.51 985.088 C 1667.83 993.168 1658.34 1001.47 1649.04 1010 C 1645.36 1013.43 1632.5 1026.28 1629.32 1028.2 C 1634.87 1013.4 1645.12 988.253 1652.48 974.367 z" fill="rgb(19,97,79)" transform="translate(0,0)"></path>
<path d="M 211.326 894.664 C 249.793 890.623 291.59 893.085 327.563 908.076 C 383.268 934.995 399.772 977.329 420.526 1032.1 C 421.566 1034.84 423.479 1039.63 422.636 1042.25 L 421.018 1042.12 L 419.009 1039.58 C 409.187 1033.17 395.239 1031.71 383.693 1031.39 C 337.74 1030.08 301.695 1024.02 265.876 991.572 C 242.144 973.361 217.269 924.231 211.326 894.664 z" fill="url(#Gradient3)" transform="translate(0,0)"></path>
<path d="M 327.563 908.076 C 383.268 934.995 399.772 977.329 420.526 1032.1 C 421.566 1034.84 423.479 1039.63 422.636 1042.25 L 421.018 1042.12 L 419.009 1039.58 C 414.015 1033.29 411.813 1026.32 405.427 1021 C 368.383 990.118 323.784 969.362 283.439 943.52 C 269.462 934.699 252.873 924.883 240.388 914.352 C 261.368 921.331 286.94 935.708 307.636 944.81 C 311.066 946.318 322.707 953.243 324.065 953.552 C 318.235 947.666 298.553 939.219 290.021 935.116 C 309.705 927.118 313.115 916.077 327.563 908.076 z" fill="url(#Gradient2)" transform="translate(0,0)"></path>
<path d="M 572.183 749.725 C 577.051 782.221 578.789 832.87 556.575 860.078 C 554.299 865.722 538.977 886.354 534.557 892.505 C 514.034 921.065 492.233 952.863 476.723 984.383 C 473.506 990.921 470.92 1003.41 469.36 1010.76 C 450.613 970.391 439.905 893.948 461.422 853.352 C 478.452 810.359 530.815 768.425 572.183 749.725 z" fill="rgb(34,142,109)" transform="translate(0,0)"></path>
<path d="M 572.183 749.725 C 577.051 782.221 578.789 832.87 556.575 860.078 C 557.871 851.237 565.047 845.057 563.806 838.286 C 557.21 829.599 528.519 838.15 520.63 833.178 C 520.681 831.042 532.784 803.583 534.644 799.582 C 530.277 799.982 516.791 838.665 511.92 841.172 C 512.376 837.057 511.707 838.966 514.418 835.404 L 514.241 834.488 C 504.575 832.958 484.481 835.505 473.753 835.061 C 473.277 835.041 464.516 850.743 461.422 853.352 C 478.452 810.359 530.815 768.425 572.183 749.725 z" fill="rgb(44,172,127)" transform="translate(0,0)"></path>
<path d="M 1478.53 756.439 C 1491.06 764.662 1510.15 776.002 1521.37 784.525 C 1555.72 810.601 1590.51 847.861 1599.23 891.317 C 1606.29 926.495 1601.23 963.814 1581.45 993.924 C 1579.84 997.167 1575.61 1002.87 1573.39 1006.05 C 1570.53 979.158 1551.53 946.771 1536.42 924.717 C 1532.07 918.378 1526.99 912.783 1522.69 906.151 C 1513.62 895.697 1489.08 867.633 1483.6 856.795 C 1481.4 852.506 1479.97 847.86 1479.38 843.073 C 1478.38 835.526 1478.77 819.804 1478.77 811.635 C 1478.83 793.236 1478.75 774.837 1478.53 756.439 z" fill="url(#Gradient1)" transform="translate(0,0)"></path>
<path d="M 1513.8 818.175 C 1542.31 855.203 1571.23 904.405 1579.05 950.769 C 1580.66 960.277 1579.62 989.328 1581.45 993.924 C 1579.84 997.167 1575.61 1002.87 1573.39 1006.05 C 1570.53 979.158 1551.53 946.771 1536.42 924.717 C 1532.07 918.378 1526.99 912.783 1522.69 906.151 C 1522.2 900.413 1512.74 890.775 1508.35 886.542 C 1515.43 881.616 1527.7 874.514 1536.37 875.071 C 1541.48 877.978 1541.18 881.279 1542.44 886.841 L 1543.96 887.635 C 1542.01 875.908 1519.88 830.07 1513.8 818.175 z" fill="rgb(19,97,79)" transform="translate(0,0)"></path>
<path d="M 1457.69 1185.73 C 1503.12 1153.94 1538.57 1120.75 1567.35 1072.34 C 1593.69 1028.04 1611.32 982.435 1628.03 933.978 C 1628.81 931.712 1630.31 931.328 1632.31 931.154 C 1635.66 938.053 1624.83 978.237 1622.19 987.345 C 1599.71 1065.08 1550.03 1144.68 1482.27 1190.63 C 1476.93 1190 1462.53 1188.61 1458.36 1186.94 L 1457.69 1185.73 z" fill="rgb(7,29,46)" transform="translate(0,0)"></path>
<metadata><recraft-signature>{"signed_by": "recraft", "signature_b64": "3n2DlBtAElqafaxYogbCX+lLnarzWbdqjv2PNdF1ZMqdWlNCe2hJxu9a8XC3xyiJav1Te5cJuNyyiIFv57FJAg==", "signing_algo": "Ed25519", "generation_timestamp": 1783499099, "identifier": "ff2bb19c-5c35-4ac0-a502-367a1117e22e"}</recraft-signature></metadata></svg>