<svg xmlns="http://www.w3.org/2000/svg" height="1024" preserveAspectRatio="none" style="display: block;" version="1.1" viewBox="0 0 2048 2048" width="1024">
<defs>
	<linearGradient gradientUnits="userSpaceOnUse" id="Gradient1" x1="1421.01" x2="625.732" y1="986.618" y2="993.358">
		<stop class="stop0" offset="0" stop-color="rgb(162,203,161)" stop-opacity="1"></stop>
		<stop class="stop1" offset="1" stop-color="rgb(208,233,206)" stop-opacity="1"></stop>
	</linearGradient>
	<linearGradient gradientUnits="userSpaceOnUse" id="Gradient2" x1="1126.87" x2="922.392" y1="1818.91" y2="227.931">
		<stop class="stop0" offset="0" stop-color="rgb(56,128,77)" stop-opacity="1"></stop>
		<stop class="stop1" offset="1" stop-color="rgb(118,191,124)" stop-opacity="1"></stop>
	</linearGradient>
</defs>
<path d="M 0 0 L 2048 0 L 2048 2048 L 0 2048 L 0 0 z" fill="rgb(238,233,217)" transform="translate(0,0)"></path>
<path d="M 1024.68 213.18 C 1038.53 218.091 1069.76 238.076 1084 246.673 L 1196.47 314.742 L 1514.16 505.905 L 1595.62 555.685 C 1612.43 565.751 1629.66 575.771 1646.37 586.015 C 1650.57 588.589 1656.9 596.153 1658.8 600.635 C 1660.55 604.777 1661.77 613.794 1661.82 618.431 C 1662.26 656.303 1662.06 694.59 1662.05 732.444 L 1661.92 972.984 C 1671.26 973.001 1684.22 972.658 1693.27 973.176 C 1762.57 972.581 1833.95 974.863 1902.47 973.718 C 1876.89 1005.1 1851.19 1036.17 1824.75 1066.83 C 1811.26 1082.47 1798.49 1099.47 1785.09 1115.06 C 1798.13 1127.25 1825.73 1162.65 1838.52 1178.66 C 1857.56 1202.48 1882.34 1230.28 1900.43 1254.16 L 1662.97 1254.03 L 1662.57 1370.41 C 1662.51 1389.27 1662.77 1408.42 1661.95 1427.26 C 1661.71 1432.89 1659.93 1439.5 1658.09 1444.78 C 1655.61 1451.92 1647.22 1456.96 1641.3 1461.19 C 1621.65 1472.96 1601.84 1484.75 1582.17 1496.56 L 1486.33 1554.6 L 1252.25 1697.29 L 1102.5 1788.64 L 1055.67 1818.09 C 1047.47 1823.29 1029.42 1837.69 1020.51 1833.09 C 991.27 1818.01 963.055 1799.49 934.988 1782.2 L 795.791 1697.72 L 520.714 1531.04 C 492.675 1514.35 464.814 1497.37 437.134 1480.09 C 404.311 1459.92 385.387 1454.63 387.628 1411.52 C 388.349 1397.67 387.889 1379.77 387.998 1365.61 C 388.223 1328.41 388.198 1291.21 387.923 1254 C 369.583 1254.15 351.243 1254.09 332.905 1253.82 C 314.364 1254.75 288.555 1253.96 269.26 1253.97 L 143.553 1254.04 C 184.443 1208.42 222.768 1160.51 263.192 1114.83 C 250.74 1100.58 239.416 1085.57 227.327 1070.99 L 145.711 972.734 C 179.348 972.231 214.219 972.813 248.008 972.749 C 294.325 972.412 340.644 972.491 386.959 972.984 L 387.718 714.215 C 387.841 693.893 387.845 673.57 387.729 653.248 C 387.637 625.246 382.894 602.515 410.608 585.582 C 423.665 577.605 437.124 569.316 450.218 561.322 L 549.703 500.144 L 768.409 365.876 C 845.21 317.379 922.731 270.032 1000.95 223.851 C 1009.93 218.645 1014.67 215.812 1024.68 213.18 z" fill="url(#Gradient2)" transform="translate(0,0)"></path>
<path d="M 145.711 972.734 C 179.348 972.231 214.219 972.813 248.008 972.749 C 294.325 972.412 340.644 972.491 386.959 972.984 L 387.872 1253.26 C 370.785 1253.09 349.763 1252.72 332.905 1253.82 C 314.364 1254.75 288.555 1253.96 269.26 1253.97 L 143.553 1254.04 C 184.443 1208.42 222.768 1160.51 263.192 1114.83 C 250.74 1100.58 239.416 1085.57 227.327 1070.99 L 145.711 972.734 z" fill="rgb(48,90,80)" transform="translate(0,0)"></path>
<path d="M 1693.27 973.176 C 1762.57 972.581 1833.95 974.863 1902.47 973.718 C 1876.89 1005.1 1851.19 1036.17 1824.75 1066.83 C 1811.26 1082.47 1798.49 1099.47 1785.09 1115.06 C 1798.13 1127.25 1825.73 1162.65 1838.52 1178.66 C 1857.56 1202.48 1882.34 1230.28 1900.43 1254.16 L 1662.97 1254.03 C 1661.48 1222.78 1662.24 1183.93 1662.2 1152.15 L 1662.06 973.554 C 1671.7 973.838 1683.8 973.872 1693.27 973.176 z" fill="rgb(48,90,80)" transform="translate(0,0)"></path>
<path d="M 1022.97 278.96 C 1033.76 281.58 1128.27 342.026 1144.37 351.736 C 1228.4 402.015 1312.14 452.788 1395.57 504.052 C 1459.49 542.52 1523.56 580.681 1587.04 619.874 C 1597.11 626.092 1605.84 634.743 1606.04 647.387 C 1606.33 665.423 1606.3 683.47 1606.24 701.495 L 1606 799.053 L 1606.39 1095.69 L 1605.9 1307.64 L 1605.69 1369.81 C 1605.63 1383.4 1608.46 1411.94 1596.35 1419.71 C 1571.92 1435.38 1545.91 1449.07 1521.08 1464.34 C 1455.58 1505.32 1389.71 1545.71 1323.48 1585.5 L 1147.67 1692.34 C 1111.83 1714.33 1064.49 1744.93 1028.48 1763.99 C 1026.7 1764.65 1024.35 1765.52 1022.54 1764.64 C 1002.54 1754.96 980.341 1739.63 961.507 1728.02 L 855.823 1664.07 L 586.074 1500.73 C 547.341 1477.27 508.592 1453.84 469.798 1430.48 C 458.325 1423.57 447.615 1413.05 447.248 1398.59 C 446.565 1371.72 447.125 1344.61 447.099 1317.69 L 447.037 1151.4 L 446.791 632.56 C 533.663 577.43 621.173 523.311 709.303 470.215 C 813.369 405.662 917.928 341.909 1022.97 278.96 z" fill="rgb(238,233,217)" transform="translate(0,0)"></path>
<path d="M 1022.96 350.722 C 1031.96 354.258 1054.8 368.704 1064.52 374.565 L 1159.8 433.065 C 1259.66 492.785 1358.96 553.44 1457.69 615.02 C 1484.54 631.808 1513.44 647.648 1538.69 666.407 C 1549.78 674.654 1546.76 705.323 1546.76 718.448 L 1546.5 793.836 C 1546.23 859.823 1547.69 925.922 1547.04 991.86 L 1547.27 1247.26 L 1547.2 1317.9 C 1547.02 1384.38 1544.95 1382.86 1488.27 1417.51 L 1426.41 1455.57 C 1344.79 1506.18 1262.71 1556.07 1180.2 1605.22 C 1143.8 1627.27 1108.64 1650.76 1071.62 1672.37 C 1062.95 1679.04 1035.52 1694.63 1025.58 1699.17 C 1013.02 1693.71 998.408 1684.46 986.552 1677.28 C 968.516 1666.44 950.587 1655.42 932.767 1644.23 C 896.484 1621.44 858.08 1598.39 821.348 1576.09 C 748.64 1532.35 676.21 1488.16 604.061 1443.51 C 576.971 1426.92 546.284 1409.63 521.018 1390.94 C 500.454 1375.72 506.51 1322.04 506.506 1298 L 506.552 1149.47 L 505.614 669.304 C 513.305 662.454 544.006 644.455 554.496 637.928 C 592.177 614.298 630.013 590.919 668.003 567.791 L 866.023 446.621 C 918.68 414.098 969.215 382.038 1022.96 350.722 z" fill="url(#Gradient1)" transform="translate(0,0)"></path>
<path d="M 1022.96 350.722 C 1031.96 354.258 1054.8 368.704 1064.52 374.565 L 1159.8 433.065 C 1259.66 492.785 1358.96 553.44 1457.69 615.02 C 1484.54 631.808 1513.44 647.648 1538.69 666.407 C 1549.78 674.654 1546.76 705.323 1546.76 718.448 L 1546.5 793.836 C 1546.23 859.823 1547.69 925.922 1547.04 991.86 C 1542.36 989.805 1497.81 943.087 1489.12 934.531 L 1362.24 808.563 C 1294.76 740.895 1174.61 616.711 1098.73 547.31 C 1097.87 546.525 1096.67 547.464 1095.38 548.071 C 1070.84 524.269 1048.89 500.371 1023.24 476.958 C 989.869 505.835 953.941 543.652 924.036 576.247 C 816.369 693.6 714.512 857.442 698.633 1019.46 C 675.49 1003.11 649.083 988.393 626.681 972.04 C 618.072 1119.42 659.483 1260.69 766.977 1366.16 C 774.298 1373.34 783.396 1380.96 790.176 1388.27 C 790.034 1393.28 793.938 1397.14 797.221 1400.68 C 832.204 1438.39 869.868 1473.99 906.735 1509.83 L 999.612 1601.48 L 1044.3 1645.12 C 1052.61 1653.18 1064.18 1663.83 1071.62 1672.37 C 1062.95 1679.04 1035.52 1694.63 1025.58 1699.17 C 1013.02 1693.71 998.408 1684.46 986.552 1677.28 C 968.516 1666.44 950.587 1655.42 932.767 1644.23 C 896.484 1621.44 858.08 1598.39 821.348 1576.09 C 748.64 1532.35 676.21 1488.16 604.061 1443.51 C 576.971 1426.92 546.284 1409.63 521.018 1390.94 C 500.454 1375.72 506.51 1322.04 506.506 1298 L 506.552 1149.47 L 505.614 669.304 C 513.305 662.454 544.006 644.455 554.496 637.928 C 592.177 614.298 630.013 590.919 668.003 567.791 L 866.023 446.621 C 918.68 414.098 969.215 382.038 1022.96 350.722 z" fill="rgb(59,116,98)" transform="translate(0,0)"></path>
<path d="M 1095.38 548.071 C 1096.67 547.464 1097.87 546.525 1098.73 547.31 C 1174.61 616.711 1294.76 740.895 1362.24 808.563 L 1489.12 934.531 C 1497.81 943.087 1542.36 989.805 1547.04 991.86 L 1547.27 1247.26 L 1547.2 1317.9 C 1547.02 1384.38 1544.95 1382.86 1488.27 1417.51 L 1426.41 1455.57 C 1344.79 1506.18 1262.71 1556.07 1180.2 1605.22 C 1143.8 1627.27 1108.64 1650.76 1071.62 1672.37 C 1064.18 1663.83 1052.61 1653.18 1044.3 1645.12 L 999.612 1601.48 L 906.735 1509.83 C 869.868 1473.99 832.204 1438.39 797.221 1400.68 C 793.938 1397.14 790.034 1393.28 790.176 1388.27 C 839.197 1428.49 891.019 1454.54 950.133 1477.14 C 973.974 1486.25 999.291 1493.22 1023.08 1502.81 C 1045.73 1494.07 1071.36 1487.33 1095.09 1477.92 C 1175.17 1446.15 1241.76 1406.24 1299.68 1342.43 C 1381.31 1252.49 1421.26 1147.78 1423.51 1026.73 C 1423.94 1003.5 1422.9 981.894 1421.76 958.71 C 1403.32 989.242 1381.11 1008.87 1347.2 1021.51 C 1338.02 887.053 1263.2 752.798 1182.43 648.152 C 1155.51 613.273 1125.53 580.153 1095.38 548.071 z" fill="rgb(48,90,80)" transform="translate(0,0)"></path>
<path d="M 1021.98 649.928 L 1023.69 648.609 C 1026.64 651.723 1032.82 661.697 1035.69 665.792 C 1051.27 688.007 1064.31 710.131 1063.76 738.323 C 1063.24 764.779 1048.68 787.857 1031.95 807.54 C 1031.83 833.671 1031.86 859.803 1032.05 885.935 C 1035.62 876.705 1038.48 863.894 1041.56 853.995 C 1060.79 792.244 1129.6 778.343 1181.48 751.706 C 1176.75 794.194 1161.68 837.372 1127.43 864.918 C 1095.5 890.592 1067.19 890.491 1032.29 901.009 L 1032.15 976.293 C 1032.13 989.78 1031.67 1007.03 1032.44 1020.16 C 1041.44 974.672 1055.6 946.046 1094.63 919.386 C 1127.56 896.9 1182.28 881.306 1211.07 856.97 C 1201.89 973.811 1143.87 1022.06 1032.76 1040.34 L 1032.91 1118.38 C 1032.93 1130.48 1033.44 1147.51 1032.82 1159.32 C 1034.47 1160.55 1033.74 1160.28 1034.77 1160.59 C 1036.69 1126.08 1055.17 1093.86 1080.47 1070.91 C 1116.38 1038.34 1200.58 1018.07 1232.11 982.638 C 1231.5 1036.55 1209.71 1088.06 1171.46 1126.05 C 1129.81 1166.83 1088.19 1180.25 1032.5 1187.31 C 1032.84 1215.79 1032.84 1244.28 1032.5 1272.76 C 1032.47 1278.83 1031.7 1301.22 1032.79 1305.81 C 1035.15 1297.48 1035.65 1288.9 1038.02 1280.28 C 1062.96 1189.32 1173.37 1189.16 1232.38 1129.35 C 1229.29 1162.73 1225 1190.56 1211.79 1222.04 C 1181.34 1294.56 1108.78 1333.98 1032.36 1336.16 C 1032.54 1368.87 1032.43 1401.57 1032.06 1434.28 C 1026.97 1436.57 1021.27 1436.84 1016.14 1434.71 C 1018.35 1427.35 1016.92 1348.69 1016.77 1336.07 C 1016.57 1331.09 1018.11 1325.02 1017.78 1318 C 1016.17 1314.87 1016.25 1315.11 1016.45 1311.57 C 1017.83 1306.17 1017.01 1280.59 1017.08 1273.28 C 1017.37 1245.2 1016.05 1215.88 1017.14 1187.86 L 1017.63 1188.02 C 1016.56 1179.31 1021.73 1171.56 1019.01 1163.12 C 1016.49 1136.45 1017.5 1111.06 1017.42 1084.49 C 1017.4 1077.2 1018.33 1043.91 1016.85 1038.89 C 1016.05 1034.7 1020.81 1020.22 1017.02 1014 L 1017.29 901.477 C 921.149 883.539 887.205 844.512 867.788 750.472 C 903.501 768.52 943.965 783.258 976.309 807.155 C 990.95 818.945 1003.1 836.762 1009.16 854.511 C 1012.99 865.704 1014.12 877.719 1018 889.01 C 1018.21 865.462 1017.11 833.928 1019.12 811.08 C 1003.79 793.888 990.923 774.86 985.524 752.158 C 975.929 711.821 1002.19 681.495 1021.98 649.928 z" fill="rgb(58,159,101)" transform="translate(0,0)"></path>
<path d="M 1019.12 811.08 C 1003.79 793.888 990.923 774.86 985.524 752.158 C 975.929 711.821 1002.19 681.495 1021.98 649.928 C 1023.32 669.702 1023.93 796.91 1019.12 811.08 z" fill="rgb(61,169,109)" transform="translate(0,0)"></path>
<path d="M 1017.14 1187.86 L 1017.63 1188.02 L 1017.85 1271.11 C 1017.93 1285.2 1018.61 1304.23 1017.78 1318 C 1016.17 1314.87 1016.25 1315.11 1016.45 1311.57 C 1017.83 1306.17 1017.01 1280.59 1017.08 1273.28 C 1017.37 1245.2 1016.05 1215.88 1017.14 1187.86 z" fill="rgb(122,195,148)" transform="translate(0,0)"></path>
<path d="M 1032.82 1159.32 C 1034.47 1160.55 1033.74 1160.28 1034.77 1160.59 C 1034.62 1163.85 1034.84 1169.33 1032.73 1171.27 C 1030.93 1167.62 1031.89 1163.21 1032.82 1159.32 z" fill="rgb(122,195,148)" transform="translate(0,0)"></path>
<path d="M 1353.95 1059.11 C 1360.35 1059.16 1366.71 1058.38 1373.08 1057.76 C 1373 1085.54 1365.58 1112.84 1359.6 1139.66 C 1325.07 1294.38 1173.83 1425.56 1022 1458.72 C 950.323 1433.89 890.173 1410.51 830.997 1360.82 C 739.409 1283.92 686.569 1181.15 675.556 1062.78 C 681.775 1062.47 687.99 1062.59 694.218 1062.63 C 703.556 1127.94 717.17 1175.97 749.634 1233.75 C 794.568 1313.72 866.957 1372.5 950.038 1409.85 C 971.43 1419.47 994.102 1427.21 1016.14 1434.71 C 1021.27 1436.84 1026.97 1436.57 1032.06 1434.28 C 1174.21 1390.22 1291.59 1296.37 1336.56 1150.54 C 1345.87 1120.34 1350.25 1090.38 1353.95 1059.11 z" fill="rgb(48,90,80)" transform="translate(0,0)"></path>
<path d="M 816.459 1137.63 C 843.051 1151.69 869.751 1165.54 896.557 1179.19 C 962.993 1212.95 1002.94 1231.04 1016.45 1311.57 C 1016.25 1315.11 1016.17 1314.87 1017.78 1318 C 1018.11 1325.02 1016.57 1331.09 1016.77 1336.07 C 971.047 1336.02 919.856 1317.29 884.817 1287.92 C 838.175 1248.83 821.562 1196.6 816.459 1137.63 z" fill="rgb(61,169,109)" transform="translate(0,0)"></path>
<path d="M 816.446 983.516 C 826.018 992.11 838.846 997.958 850.041 1004.84 C 897.806 1034.19 961.904 1053.87 993.395 1102.56 C 1000.12 1113.51 1006.6 1124.7 1011.07 1136.77 C 1014.08 1144.88 1015.24 1155.62 1019.01 1163.12 C 1021.73 1171.56 1016.56 1179.31 1017.63 1188.02 L 1017.14 1187.86 C 1013.62 1186.73 991.814 1183.92 985.93 1182.62 C 949.309 1174.56 919.085 1162.42 889.844 1138.61 C 840.136 1098.15 822.552 1045.3 816.446 983.516 z" fill="rgb(61,169,109)" transform="translate(0,0)"></path>
<path d="M 834.733 855.023 C 886.953 894.889 968.376 908.14 1001.63 972.123 C 1009.67 987.596 1010.94 1000.63 1017.02 1014 C 1020.81 1020.22 1016.05 1034.7 1016.85 1038.89 C 979.563 1038.53 928.721 1019.93 900.093 995.61 C 854.996 957.307 840.202 912.121 834.733 855.023 z" fill="rgb(61,169,109)" transform="translate(0,0)"></path>
<metadata><recraft-signature>{"signed_by": "recraft", "signature_b64": "vVZcPT/qykySrfQqoUOsXyivCuXRudEt4zVzSRvvlWCkCEWaY8oEvsV0dz7rQsS+tFKMR+9265NgMYbwuH9mBw==", "signing_algo": "Ed25519", "generation_timestamp": 1783499129, "identifier": "92930c1f-bf49-4030-ac71-ce4343e09c13"}</recraft-signature></metadata></svg>